<?xml version="1.0" standalone="no"?>
<!DOCTYPE svg PUBLIC "-//W3C//DTD SVG 1.1//EN" "http://www.w3.org/Graphics/SVG/1.1/DTD/svg11.dtd" >
<svg xmlns="http://www.w3.org/2000/svg">
<metadata></metadata>
<defs>
<font id="louis_vuittondemi_oblique" horiz-adv-x="500" >
<font-face units-per-em="1000" ascent="729" descent="-271" />
<missing-glyph horiz-adv-x="250" />
<glyph unicode="ff" horiz-adv-x="561" d="M42 0l38 310h-50l12 94h50l18 149q13 104 45.5 143.5t105.5 39.5q35 0 75 -9l-13 -106q-17 4 -31 4q-31 0 -42.5 -16t-18.5 -69l-17 -136h54l-11 -94h-54l-39 -310h-122zM315 0l38 310h-50l12 94h50l18 149q13 104 45.5 143.5t106.5 39.5q35 0 74 -9l-13 -106 q-17 4 -30 4q-32 0 -43.5 -16t-18.5 -69l-16 -136h85l-12 -94h-85l-38 -310h-123z" />
<glyph unicode="fi" horiz-adv-x="524" d="M42 0l38 310h-50l12 94h50l18 149q13 104 45.5 143.5t105.5 39.5q35 0 75 -9l-13 -106q-17 4 -31 4q-31 0 -42.5 -16t-18.5 -69l-17 -136h86l-12 -94h-85l-39 -310h-122zM487 404l-49 -404h-123l50 404h122zM446 630q29 0 50.5 -21.5t21.5 -51.5q0 -31 -21.5 -52.5 t-51.5 -21.5q-31 0 -52.5 21.5t-21.5 52.5t21.5 52t53.5 21z" />
<glyph unicode="fl" horiz-adv-x="524" d="M42 0l38 310h-50l12 94h50l18 149q13 104 45.5 143.5t105.5 39.5q35 0 75 -9l-13 -106q-17 4 -31 4q-31 0 -42.5 -16t-18.5 -69l-17 -136h86l-12 -94h-85l-39 -310h-122zM315 0l90 729h123l-90 -729h-123z" />
<glyph unicode="ffi" horiz-adv-x="797" d="M42 0l38 310h-50l12 94h50l18 149q13 104 45.5 143.5t105.5 39.5q35 0 75 -9l-13 -106q-17 4 -31 4q-31 0 -42.5 -16t-18.5 -69l-17 -136h54l-11 -94h-54l-39 -310h-122zM315 0l38 310h-50l12 94h50l18 149q13 104 45.5 143.5t106.5 39.5q35 0 74 -9l-13 -106 q-17 4 -30 4q-32 0 -43.5 -16t-18.5 -69l-16 -136h85l-12 -94h-85l-38 -310h-123zM761 404l-50 -404h-123l50 404h123zM720 630q29 0 50.5 -21.5t21.5 -51.5q0 -31 -21.5 -52.5t-51.5 -21.5q-31 0 -52.5 21.5t-21.5 52.5t21.5 52t53.5 21z" />
<glyph unicode="ffl" horiz-adv-x="798" d="M42 0l38 310h-50l12 94h50l18 149q13 104 45.5 143.5t105.5 39.5q35 0 75 -9l-13 -106q-17 4 -31 4q-31 0 -42.5 -16t-18.5 -69l-17 -136h54l-11 -94h-54l-39 -310h-122zM315 0l38 310h-50l12 94h50l18 149q13 104 45.5 143.5t106.5 39.5q35 0 74 -9l-13 -106 q-17 4 -30 4q-32 0 -43.5 -16t-18.5 -69l-16 -136h85l-12 -94h-85l-38 -310h-123zM588 0l90 729h123l-90 -729h-123z" />
<glyph unicode=" "  horiz-adv-x="250" />
<glyph unicode="&#x09;" horiz-adv-x="250" />
<glyph unicode="&#xa0;" horiz-adv-x="250" />
<glyph unicode="!" horiz-adv-x="273" d="M80 208l56 459h109l-56 -459h-109zM118 140q31 0 53 -22.5t22 -53.5q0 -32 -22 -54.5t-54 -22.5t-54.5 22.5t-22.5 54.5q0 31 23 53.5t55 22.5z" />
<glyph unicode="&#x22;" horiz-adv-x="380" d="M79 392l15 275h118l-52 -275h-81zM261 392l15 275h118l-52 -275h-81z" />
<glyph unicode="#" horiz-adv-x="567" d="M558 485l-11 -94h-99l-19 -102h93l-11 -94h-99l-38 -205l-93 13l35 192h-89l-38 -205l-94 13l36 193h-96l11 93h103l19 102h-96l11 94h103l35 192l93 -13l-33 -179h88l36 192l93 -13l-33 -179h93zM352 391h-89l-18 -102h88z" />
<glyph unicode="$" horiz-adv-x="567" d="M28 54l47 125q101 -61 197 -61q59 0 90.5 19.5t31.5 56.5q0 27 -19.5 40.5t-80.5 29.5q-99 26 -130 40q-97 43 -97 156q0 60 28 107.5t79 72.5q47 25 122 30l12 95h79l-11 -95q78 -12 142 -51l-41 -120q-95 48 -172 48q-53 0 -83.5 -19.5t-30.5 -54.5q0 -28 23.5 -45 t81.5 -30q80 -19 111.5 -30t57.5 -30q61 -45 61 -136q0 -56 -27.5 -102t-75.5 -72q-49 -26 -130 -31l-13 -110h-80l14 110q-100 14 -186 57z" />
<glyph unicode="%" horiz-adv-x="788" d="M205 673q54 0 85 -38.5t31 -105.5q0 -92 -40 -147.5t-106 -55.5q-57 0 -87.5 38t-30.5 109q0 88 41.5 144t106.5 56zM201 613q-31 0 -52.5 -40.5t-21.5 -99.5q0 -87 50 -87q33 0 53.5 39.5t20.5 101.5q0 40 -13.5 63t-36.5 23zM257 11l246 663l53 -18l-245 -663zM640 340 q54 0 85 -38.5t31 -105.5q0 -91 -40 -146.5t-106 -55.5q-57 0 -87.5 38t-30.5 108q0 88 41.5 144t106.5 56zM636 280q-31 0 -52.5 -40.5t-21.5 -99.5q0 -86 50 -86q33 0 53.5 39.5t20.5 101.5q0 40 -13.5 62.5t-36.5 22.5z" />
<glyph unicode="&#x26;" horiz-adv-x="613" d="M500 304l70 -97l-76 -62l97 -145h-143l-49 70q-60 -48 -94.5 -64t-79.5 -16q-79 0 -131 48.5t-52 122.5q0 65 36 115t118 100q-31 46 -42 73t-11 61q0 72 50 119.5t126 47.5q71 0 115.5 -43.5t44.5 -112.5q0 -74 -53 -121q-24 -21 -70 -50l73 -109zM338 163l-85 126 q-59 -43 -76 -63t-17 -47q0 -28 19.5 -47t48.5 -19q45 0 110 50zM299 427q70 50 70 96q0 24 -16 39t-41 15q-26 0 -42 -15t-16 -40q0 -40 45 -95z" />
<glyph unicode="'" horiz-adv-x="198" d="M79 392l15 275h118l-52 -275h-81z" />
<glyph unicode="(" horiz-adv-x="326" d="M245 -118l-81 -52q-103 174 -103 362q0 173 73 331q44 97 138 216l77 -53q-91 -140 -130.5 -257.5t-39.5 -250.5q0 -149 66 -296z" />
<glyph unicode=")" horiz-adv-x="326" d="M95 686l81 53q103 -174 103 -363q0 -172 -73 -330q-46 -101 -138 -216l-77 53q91 139 130.5 256.5t39.5 251.5q0 149 -66 295z" />
<glyph unicode="*" horiz-adv-x="567" d="M286 602l9 134l100 -12l-23 -132l130 32l19 -98l-133 -19l71 -114l-88 -48l-59 120l-86 -103l-73 68l96 94l-124 50l42 91z" />
<glyph unicode="+" horiz-adv-x="567" d="M54 294v93h196v190h95v-190h196v-93h-196v-196h-95v196h-196z" />
<glyph unicode="," horiz-adv-x="267" d="M-7 -164l68 284h129l-129 -284h-68z" />
<glyph unicode="-" horiz-adv-x="215" d="M-9 156l13 102h215l-13 -102h-215z" />
<glyph unicode="." horiz-adv-x="267" d="M114 140q31 0 53 -22.5t22 -53.5q0 -32 -22 -54.5t-54 -22.5t-54.5 22.5t-22.5 54.5q0 31 23 53.5t55 22.5z" />
<glyph unicode="/" horiz-adv-x="379" d="M291 739l94 -29l-278 -880l-95 28z" />
<glyph unicode="0" horiz-adv-x="567" d="M329 680q101 0 159.5 -76t58.5 -207q0 -164 -66 -282q-35 -61 -90.5 -94.5t-122.5 -33.5q-112 0 -171 84q-52 72 -52 205q0 177 80 290.5t204 113.5zM322 569q-72 0 -111 -90q-41 -91 -41 -204q0 -177 101 -177q37 0 67 25t48 70q36 97 36 200q0 82 -27 129t-73 47z" />
<glyph unicode="1" horiz-adv-x="567" d="M203 0l68 556h-86l14 111h211l-82 -667h-125z" />
<glyph unicode="2" horiz-adv-x="567" d="M498 111l-14 -111h-471l227 238q97 102 126.5 148.5t29.5 96.5q0 41 -23 63.5t-63 22.5q-49 0 -74.5 -29t-33.5 -91h-122q8 76 33 123q27 50 80 79t118 29q92 0 151 -56.5t59 -145.5q0 -76 -53.5 -152t-204.5 -215h235z" />
<glyph unicode="3" horiz-adv-x="567" d="M61 192h123q3 -41 14 -60q24 -38 76 -38q47 0 74 29t27 78q0 48 -29 69.5t-94 21.5l13 101h23q107 0 107 96q0 38 -22 60.5t-60 22.5q-52 0 -76 -39q-12 -18 -18 -55h-123q14 98 70.5 150t149.5 52q90 0 143.5 -47.5t53.5 -127.5q0 -68 -42 -112q-21 -22 -69 -43 q52 -24 74.5 -59t22.5 -90q0 -101 -72 -165q-55 -49 -160 -49q-129 0 -177 76q-28 41 -29 129z" />
<glyph unicode="4" horiz-adv-x="567" d="M300 0l18 142h-290l14 112l324 413h140l-53 -429h76l-11 -96h-77l-17 -142h-124zM329 238l36 289l-220 -289h184z" />
<glyph unicode="5" horiz-adv-x="567" d="M514 667l-14 -111h-217l-28 -128q39 3 52 3q92 0 145 -52t53 -143q0 -113 -71.5 -181t-191.5 -68q-61 0 -110 15t-106 50l34 110q109 -64 187 -64q59 0 96 34t37 89t-40.5 88.5t-108.5 33.5q-41 0 -107 -19l75 343h315z" />
<glyph unicode="6" horiz-adv-x="567" d="M358 667h152l-210 -248h28q91 0 143 -51.5t52 -142.5q0 -104 -71 -171t-180 -67q-100 0 -166 59t-66 148q0 84 66 174q13 17 64 78zM287 332q-53 0 -87.5 -35t-34.5 -90q0 -50 29 -79.5t79 -29.5q56 0 90.5 34.5t34.5 89.5q0 50 -30.5 80t-80.5 30z" />
<glyph unicode="7" horiz-adv-x="567" d="M66 0l327 556h-275l14 111h461l-384 -667h-143z" />
<glyph unicode="8" horiz-adv-x="567" d="M212 358q-49 24 -70.5 57t-21.5 83q0 80 60 131t154 51q87 0 140.5 -48t53.5 -125q0 -75 -45 -118q-22 -22 -71 -40q98 -52 98 -153q0 -86 -66 -150q-64 -59 -162 -59q-103 0 -165.5 52.5t-62.5 139.5q0 48 20 88t55 62q27 17 83 29zM288 300q-47 0 -78 -30t-31 -75 q0 -44 27.5 -72t71.5 -28q47 0 77.5 31t30.5 79q0 43 -27 69t-71 26zM329 578q-42 0 -68 -26.5t-26 -69.5q0 -41 23 -65t62 -24q42 0 67.5 27t25.5 71q0 40 -23 63.5t-61 23.5z" />
<glyph unicode="9" horiz-adv-x="567" d="M235 0h-153l211 248h-29q-91 0 -143 51.5t-52 142.5q0 104 71 171t181 67q100 0 166 -59t66 -148q0 -84 -66 -174q-13 -18 -65 -78zM320 569q-56 0 -91 -34.5t-35 -89.5q0 -49 30.5 -79.5t80.5 -30.5q53 0 88 35t35 90q0 50 -29 79.5t-79 29.5z" />
<glyph unicode=":" horiz-adv-x="267" d="M114 140q31 0 53 -22.5t22 -53.5q0 -32 -22 -54.5t-54 -22.5t-54.5 22.5t-22.5 54.5q0 31 23 53.5t55 22.5zM148 417q31 0 53 -22.5t22 -53.5q0 -32 -22 -54.5t-54 -22.5t-54.5 22.5t-22.5 54.5q0 31 23 53.5t55 22.5z" />
<glyph unicode=";" horiz-adv-x="267" d="M-7 -164l68 284h129l-129 -284h-68zM160 370q31 0 53 -22.5t22 -53.5q0 -32 -22 -54.5t-54 -22.5t-54.5 22.5t-22.5 54.5q0 31 23 53.5t55 22.5z" />
<glyph unicode="&#x3c;" d="M478 609v-128l-296 -147l295 -148l1 -128l-433 222v109z" />
<glyph unicode="=" horiz-adv-x="567" d="M54 376v89h487v-89h-487zM54 215v89h487v-89h-487z" />
<glyph unicode="&#x3e;" d="M45 58v129l296 147l-295 147l-1 128l433 -221v-109z" />
<glyph unicode="?" horiz-adv-x="470" d="M285 202h-122l23 187q25 -3 38 -3q117 0 117 96q0 37 -22 59t-59 22q-76 0 -87 -87h-109q11 90 44 133q56 71 161 71q90 0 144.5 -53t54.5 -141q0 -108 -78 -167q-37 -28 -94 -32zM209 140q31 0 53 -22.5t22 -53.5q0 -32 -22 -54.5t-54 -22.5t-54.5 22.5t-22.5 54.5 q0 31 23 53.5t55 22.5z" />
<glyph unicode="@" horiz-adv-x="764" d="M585 508l-27 -227q-3 -24 -3 -46q0 -26 20 -26q36 0 66 52t30 115q0 103 -73 170t-185 67q-118 0 -198.5 -80.5t-80.5 -198.5q0 -77 35.5 -140.5t98.5 -99.5q62 -36 153 -36q101 0 204 50l16 8l29 -70q-122 -61 -248 -61q-114 0 -199 47q-80 46 -126 126.5t-46 174.5 q0 148 104 248.5t257 100.5q141 0 236 -86.5t95 -215.5q0 -98 -52.5 -170t-124.5 -72q-55 0 -76 54q-49 -56 -116 -56q-70 0 -117 52.5t-47 132.5q0 83 52 139t130 56q74 0 108 -42l4 34h81zM398 436q-44 0 -72.5 -33.5t-28.5 -85.5q0 -45 23 -74.5t59 -29.5q44 0 77 38.5 t33 89.5q0 41 -25.5 68t-65.5 27z" />
<glyph unicode="A" horiz-adv-x="620" d="M-15 0l336 667h129l142 -667h-138l-22 109h-246l-54 -109h-147zM408 232l-33 166q-9 40 -9 73q0 15 2 34l-9 1q-9 -46 -44 -120l-74 -154h167z" />
<glyph unicode="B" horiz-adv-x="572" d="M49 0l82 667h148q120 0 169 -32q66 -41 66 -132q0 -69 -42 -114q-24 -25 -77 -40q62 -14 89 -35q48 -37 48 -115q0 -57 -26 -102t-72 -69q-55 -28 -190 -28h-195zM196 113h57q62 0 90 14q21 10 33.5 32.5t12.5 48.5q0 43 -27 59.5t-97 16.5h-48zM230 388h33q49 0 73 10 q47 21 47 83q0 41 -21.5 57t-76.5 16h-35z" />
<glyph unicode="C" horiz-adv-x="593" d="M544 186l-19 -155q-70 -44 -161 -44q-63 0 -122.5 24.5t-101.5 68.5q-86 86 -86 230q0 161 100.5 265.5t254.5 104.5q106 0 189 -53l-18 -147q-85 67 -169 67q-91 0 -152.5 -68t-61.5 -168q0 -85 49.5 -138t128.5 -53t169 66z" />
<glyph unicode="D" horiz-adv-x="652" d="M49 0l82 667h170q83 0 131.5 -10.5t86.5 -36.5q106 -71 106 -255q0 -111 -43.5 -198.5t-118.5 -125.5q-82 -41 -229 -41h-185zM197 120h30q96 0 146 25q52 26 80.5 86t28.5 142q0 126 -82 160q-35 14 -114 14h-36z" />
<glyph unicode="E" horiz-adv-x="469" d="M49 0l82 667h345l-15 -123h-212l-18 -148h204l-15 -123h-204l-18 -150h212l-16 -123h-345z" />
<glyph unicode="F" horiz-adv-x="426" d="M49 0l82 667h315l-15 -123h-182l-18 -148h182l-15 -123h-182l-33 -273h-134z" />
<glyph unicode="G" horiz-adv-x="720" d="M369 347h321q-7 -142 -56 -220q-42 -66 -112 -103t-153 -37q-63 0 -122.5 22.5t-100.5 62.5q-92 87 -92 236q0 160 99 266t249 106q183 0 268 -158l-115 -65q-31 47 -67 68.5t-86 21.5q-87 0 -146 -68t-59 -168q0 -85 49.5 -138.5t129.5 -53.5q123 0 147 105h-170z" />
<glyph unicode="H" horiz-adv-x="664" d="M49 0l82 667h133l-32 -267h243l33 267h133l-82 -667h-133l34 277h-243l-35 -277h-133z" />
<glyph unicode="I" horiz-adv-x="287" d="M49 0l82 667h134l-82 -667h-134z" />
<glyph unicode="J" horiz-adv-x="420" d="M262 667h136l-61 -493q-12 -99 -52 -143t-118 -44q-70 0 -110.5 32.5t-62.5 104.5l103 54q13 -36 23.5 -47t30.5 -11q26 0 37.5 17t17.5 66z" />
<glyph unicode="K" horiz-adv-x="593" d="M49 0l82 667h133l-37 -301l222 301h154l-244 -331l207 -336h-166l-178 322l-40 -322h-133z" />
<glyph unicode="L" horiz-adv-x="424" d="M49 0l82 667h133l-66 -544h200l-15 -123h-334z" />
<glyph unicode="M" horiz-adv-x="835" d="M19 0l205 667h125l63 -348q7 -35 7 -66q0 -17 -2 -39l8 -1q6 43 30 91l172 363h127l12 -667h-134l-6 307v19q0 42 10 93l-8 2q-10 -44 -27 -83l-161 -338h-91l-61 326q-8 43 -8 77q0 14 1 28h-8q-6 -55 -21 -107l-100 -324h-133z" />
<glyph unicode="N" horiz-adv-x="749" d="M49 0l82 667h134l228 -379q32 -52 47 -106l8 2q-4 31 -4 51q0 35 5 68l44 364h134l-82 -667h-134l-222 365q-45 78 -54 117l-7 -2q5 -31 5 -53q0 -7 -3 -43l-48 -384h-133z" />
<glyph unicode="O" horiz-adv-x="760" d="M410 680q145 0 234 -88.5t89 -231.5q0 -153 -97 -261q-101 -112 -258 -112q-147 0 -238 93q-86 89 -86 234q0 157 101.5 261.5t254.5 104.5zM413 547q-92 0 -154 -67t-62 -167q0 -87 51 -140t134 -53q96 0 153 74q55 71 55 162q0 86 -49 138.5t-128 52.5z" />
<glyph unicode="P" horiz-adv-x="535" d="M49 0l82 667h155q117 0 169 -29q39 -20 61 -66t22 -105q0 -65 -25.5 -113t-71.5 -72q-60 -32 -169 -32h-59l-31 -250h-133zM227 365h40q61 0 88 18q40 27 40 85q0 43 -25 62q-18 14 -80 14h-41z" />
<glyph unicode="Q" horiz-adv-x="760" d="M591 -46l-53 69q-75 -36 -160 -36q-145 0 -234.5 89.5t-89.5 232.5q0 161 100.5 266t255.5 105q145 0 234 -88.5t89 -231.5q0 -161 -109 -274l73 -94zM453 132l-72 93l105 38l51 -66q53 71 53 159q0 86 -49 138.5t-128 52.5q-94 0 -155 -67t-61 -170q0 -86 52 -138 t137 -52q34 0 67 12z" />
<glyph unicode="R" horiz-adv-x="574" d="M49 0l82 667h163q114 0 164 -31q71 -43 71 -149q0 -102 -66 -162q-37 -32 -95 -42l167 -283h-155l-164 276l-34 -276h-133zM249 544l-22 -179h42q53 0 79 18q37 27 37 87q0 41 -20 57.5t-69 16.5h-47z" />
<glyph unicode="S" horiz-adv-x="477" d="M11 50l69 112q78 -42 135 -42q37 0 60 20t23 52q0 23 -14.5 39.5t-64.5 51.5q-70 51 -87 67q-53 49 -53 124q0 88 61 147t153 59q100 0 177 -58l-60 -119q-64 44 -119 44q-31 0 -50 -16.5t-19 -43.5q0 -23 14 -38t66 -48q80 -51 110 -92t30 -101q0 -94 -67.5 -157.5 t-165.5 -63.5q-48 0 -88.5 13t-109.5 50z" />
<glyph unicode="T" horiz-adv-x="411" d="M115 0l67 544h-137l15 123h397l-15 -123h-127l-67 -544h-133z" />
<glyph unicode="U" horiz-adv-x="664" d="M131 667h133l-45 -368q-7 -59 -7 -79q0 -100 112 -100q86 0 115 69q15 40 24 113l45 365h133l-48 -392q-18 -146 -59 -199q-66 -89 -219 -89q-112 0 -179 52q-60 48 -60 144q0 38 8 106z" />
<glyph unicode="V" horiz-adv-x="595" d="M54 667h136l80 -353q11 -53 11 -84q0 -15 -1 -26l6 -2q17 61 52 130l168 335h143l-338 -667h-107z" />
<glyph unicode="W" horiz-adv-x="878" d="M54 667h134l47 -340q6 -43 6 -64q0 -18 -3 -48l8 -2q10 51 31 99l153 355h121l48 -343q5 -34 5 -68q0 -14 -3 -45l9 -1q8 46 35 109l148 348h139l-287 -667h-123l-51 356q-6 42 -6 73q0 13 3 40l-8 2q-8 -45 -28 -94l-163 -377h-122z" />
<glyph unicode="X" horiz-adv-x="592" d="M-4 0l233 345l-176 322h153l62 -115q24 -44 32 -66t10 -53l7 -1q18 58 60 119l76 116h154l-222 -328l186 -339h-152l-76 138q-33 58 -39 112l-7 1q-10 -44 -53 -110l-96 -141h-152z" />
<glyph unicode="Y" horiz-adv-x="560" d="M189 0l36 293l-178 374h152l100 -229l153 229h162l-256 -374l-36 -293h-133z" />
<glyph unicode="Z" horiz-adv-x="549" d="M19 0l306 544h-253l15 123h465l-308 -544h272l-16 -123h-481z" />
<glyph unicode="[" horiz-adv-x="337" d="M26 -160l109 889h237l-10 -83h-120l-89 -723h120l-10 -83h-237z" />
<glyph unicode="\" horiz-adv-x="379" d="M214 739l62 -901l-102 -8l-62 900z" />
<glyph unicode="]" horiz-adv-x="337" d="M325 729l-109 -889h-237l10 83h120l89 723h-120l10 83h237z" />
<glyph unicode="^" d="M153 334h-136l160 337h171l160 -337h-136l-109 233z" />
<glyph unicode="_" d="M12 -46h500v-117h-500v117z" />
<glyph unicode="`" d="M167 591l107 52l76 -143l-71 -33z" />
<glyph unicode="a" horiz-adv-x="535" d="M377 404h121l-49 -404h-125l11 57q-36 -38 -67.5 -54t-71.5 -16q-73 0 -118.5 52t-45.5 136q0 104 57.5 173t145.5 69q44 0 73 -15.5t62 -55.5zM272 319q-45 0 -76 -36.5t-31 -89.5q0 -44 23 -70.5t62 -26.5q45 0 75 36t30 91q0 44 -22.5 70t-60.5 26z" />
<glyph unicode="b" horiz-adv-x="528" d="M30 0l90 729h123l-48 -388q37 43 67.5 59.5t70.5 16.5q73 0 116.5 -52.5t43.5 -140.5q0 -103 -56.5 -170t-144.5 -67q-42 0 -72 16t-60 54l-7 -57h-123zM276 311q-44 0 -74 -36.5t-30 -88.5q0 -44 23 -71t60 -27q44 0 74.5 37t30.5 90q0 44 -22.5 70t-61.5 26z" />
<glyph unicode="c" horiz-adv-x="376" d="M335 128l-23 -126q-52 -15 -94 -15q-87 0 -137.5 53t-50.5 145q0 104 60.5 168t157.5 64q58 0 120 -25l-21 -112q-46 20 -86 20q-46 0 -72.5 -29.5t-26.5 -79.5q0 -41 22.5 -63t63.5 -22q39 0 87 22z" />
<glyph unicode="d" horiz-adv-x="534" d="M537 729l-90 -729h-122l8 61q-32 -41 -63.5 -57.5t-74.5 -16.5q-76 0 -121 51.5t-45 138.5q0 103 57.5 171.5t144.5 68.5q45 0 76.5 -16.5t59.5 -55.5l48 384h122zM267 317q-44 0 -74.5 -36t-30.5 -89q0 -44 23 -71t60 -27q44 0 75 37t31 90q0 44 -23 70t-61 26z" />
<glyph unicode="e" horiz-adv-x="483" d="M316 121l106 -42q-53 -92 -183 -92q-95 0 -151.5 55.5t-56.5 148.5q0 99 63.5 162.5t161.5 63.5q90 0 141.5 -54.5t51.5 -150.5q0 -20 -2 -37h-296q5 -35 18 -52q25 -30 73 -30q36 0 74 28zM162 258h176q-7 68 -74 68q-36 0 -59 -15.5t-43 -52.5z" />
<glyph unicode="f" horiz-adv-x="287" d="M42 0l38 310h-50l12 94h50l18 149q13 104 45.5 143.5t105.5 39.5q35 0 75 -9l-13 -106q-17 4 -31 4q-31 0 -42.5 -16t-18.5 -69l-17 -136h86l-12 -94h-85l-39 -310h-122z" />
<glyph unicode="g" horiz-adv-x="531" d="M371 404h123l-47 -383q-8 -66 -20 -98.5t-38 -59.5q-65 -67 -183 -67q-83 0 -129.5 36.5t-52.5 106.5h123q10 -51 75 -51q62 0 86 62q10 24 19 95q-31 -28 -57 -38.5t-67 -10.5q-82 0 -128.5 47t-46.5 130q0 102 58.5 173t143.5 71q46 0 75 -19t57 -68zM265 306 q-44 0 -74.5 -36t-30.5 -89q0 -44 23 -71t60 -27q44 0 75 37t31 90q0 44 -23 70t-61 26z" />
<glyph unicode="h" horiz-adv-x="499" d="M30 0l90 729h122l-46 -377q43 38 70.5 51.5t64.5 13.5q56 0 87 -28t31 -78q0 -25 -4 -46l-32 -265h-123l25 203q6 43 6 55q0 49 -55 49q-50 0 -73 -46q-10 -22 -18 -81l-22 -180h-123z" />
<glyph unicode="i" horiz-adv-x="239" d="M202 404l-49 -404h-123l50 404h122zM161 630q29 0 50.5 -21.5t21.5 -51.5q0 -31 -21.5 -52.5t-51.5 -21.5q-31 0 -52.5 21.5t-21.5 52.5t21.5 52t53.5 21z" />
<glyph unicode="j" horiz-adv-x="239" d="M202 404l-72 -591h-123l72 591h123zM161 630q29 0 50.5 -21.5t21.5 -51.5q0 -31 -21.5 -52.5t-51.5 -21.5q-31 0 -52.5 21.5t-21.5 52.5t21.5 52t53.5 21z" />
<glyph unicode="k" horiz-adv-x="461" d="M30 0l90 729h122l-59 -486l132 161h147l-163 -193l140 -211h-148l-113 207l-25 -207h-123z" />
<glyph unicode="l" horiz-adv-x="239" d="M30 0l90 729h123l-90 -729h-123z" />
<glyph unicode="m" horiz-adv-x="761" d="M30 0l50 404h123l-8 -60q34 40 65 56.5t72 16.5q42 0 68 -15.5t43 -52.5q35 39 64.5 53.5t72.5 14.5q62 0 96 -29.5t34 -83.5q0 -22 -3 -46l-32 -258h-123l28 223q2 26 2 34q0 50 -57 50q-47 0 -70 -39q-12 -20 -18 -71l-24 -197h-123l28 221q2 24 2 34q0 52 -56 52 q-47 0 -71 -43q-10 -21 -16 -71l-24 -193h-123z" />
<glyph unicode="n" d="M30 0l50 404h122l-7 -61q38 44 65.5 59.5t67.5 15.5q61 0 96 -33q25 -25 25 -74q0 -15 -2 -43l-34 -268h-122l27 222q3 18 3 35q0 51 -55 51q-48 0 -71 -41q-12 -26 -16 -67l-25 -200h-124z" />
<glyph unicode="o" horiz-adv-x="513" d="M260 417q95 0 155.5 -58t60.5 -150q0 -95 -64.5 -158.5t-160.5 -63.5q-98 0 -159 57t-61 149q0 95 66 159.5t163 64.5zM259 308q-41 0 -68.5 -32.5t-27.5 -81.5q0 -44 23 -71t61 -27q43 0 70 32.5t27 83.5q0 44 -23 70t-62 26z" />
<glyph unicode="p" horiz-adv-x="534" d="M7 -187l73 591h122l-7 -61q35 40 67 57t72 17q74 0 119 -52t45 -138q0 -104 -57.5 -172.5t-145.5 -68.5q-40 0 -68.5 15.5t-66.5 57.5l-30 -246h-123zM282 313q-44 0 -74.5 -37t-30.5 -91q0 -44 22.5 -70t61.5 -26q44 0 74 36.5t30 88.5q0 44 -23 71.5t-60 27.5z" />
<glyph unicode="q" horiz-adv-x="533" d="M374 404h123l-72 -589h-123l31 252q-34 -44 -65 -62t-75 -18q-74 0 -118.5 52.5t-44.5 139.5q0 103 57.5 170.5t144.5 67.5q47 0 78.5 -16.5t56.5 -55.5zM269 322q-44 0 -75 -37t-31 -89q0 -44 23 -71t62 -27q46 0 75.5 36t29.5 91q0 46 -22 71.5t-62 25.5z" />
<glyph unicode="r" horiz-adv-x="332" d="M30 0l50 404h122l-9 -78q37 55 63.5 73.5t65.5 18.5l21 -1l-15 -126q-27 7 -46 7q-51 0 -75 -26t-32 -90l-22 -182h-123z" />
<glyph unicode="s" horiz-adv-x="374" d="M9 27l30 97q49 -26 73.5 -34t52.5 -8q48 0 48 34q0 16 -11.5 23.5t-61.5 24.5q-56 20 -77.5 43.5t-21.5 66.5q0 66 43.5 104.5t117.5 38.5q69 0 144 -38l-43 -86q-54 33 -100 33q-48 0 -48 -33q0 -16 11.5 -23t70.5 -24q53 -16 75 -41t22 -71q0 -69 -43 -108t-120 -39 q-83 0 -162 40z" />
<glyph unicode="t" horiz-adv-x="257" d="M36 0l38 310h-51l12 94h51l17 137h122l-16 -137h54l-11 -94h-55l-38 -310h-123z" />
<glyph unicode="u" horiz-adv-x="505" d="M80 404h122l-26 -215q-3 -18 -3 -32q0 -30 18 -46.5t51 -16.5q37 0 54 22.5t25 79.5l25 208h123l-26 -211q-12 -101 -43 -141q-49 -65 -163 -65q-90 0 -138 41t-48 117q0 17 4 59z" />
<glyph unicode="v" horiz-adv-x="451" d="M13 404h124l49 -166q18 -58 18 -99v-8l6 -1q13 52 45 107l94 167h127l-230 -404h-109z" />
<glyph unicode="w" horiz-adv-x="735" d="M13 404h121l41 -157q14 -53 14 -88q0 -14 -2 -25l8 -2q13 49 44 104l96 168h98l41 -157q12 -46 12 -90v-24l8 -1q7 36 47 110l93 162h126l-232 -404h-98l-42 162q-16 61 -16 99l1 22l-8 1q-13 -53 -45 -107l-102 -177h-98z" />
<glyph unicode="x" horiz-adv-x="434" d="M-27 0l168 215l-118 189h141l53 -109l74 109h148l-157 -197l132 -207h-142l-70 123l-88 -123h-141z" />
<glyph unicode="y" horiz-adv-x="440" d="M13 404h131l73 -253l118 253h130l-290 -588h-129l96 198z" />
<glyph unicode="z" horiz-adv-x="386" d="M1 0l187 306h-156l12 98h333l-186 -306h161l-12 -98h-339z" />
<glyph unicode="{" horiz-adv-x="316" d="M321 635h-12q-47 0 -60 -26q-7 -13 -12 -51l-20 -168q-8 -46 -22.5 -67.5t-51.5 -38.5q48 -35 48 -95q0 -9 -1 -13l-21 -173q-2 -20 -2 -30q0 -23 13 -30.5t55 -8.5l-13 -103h-24q-17 -1 -40 -1q-58 0 -82.5 25t-24.5 84q0 24 3 48l24 195q-2 48 -49 56l12 99 q31 7 46.5 28t20.5 63l23 185q8 67 39.5 96.5t93.5 29.5q20 0 70 -2z" />
<glyph unicode="|" d="M197 667h130v-834h-130v834z" />
<glyph unicode="}" horiz-adv-x="316" d="M-3 -169l13 103q48 0 63 14t20 63l21 168q7 46 21.5 67t51.5 39q-48 35 -48 95q0 7 1 12l21 174q2 9 2 30q0 18 -5 23q-11 16 -50 16h-12l12 102q11 1 25 1q16 1 39 1q58 0 82.5 -25t24.5 -84q0 -27 -3 -48l-24 -196v-4q0 -41 50 -52l-13 -98q-30 -8 -46 -29t-21 -63 l-22 -185q-8 -66 -39.5 -95.5t-94.5 -29.5q-19 0 -69 1z" />
<glyph unicode="~" horiz-adv-x="667" d="M173 247l-71 46q6 12 8 18q19 44 31 62t32 33q33 27 81 27q33 0 103 -26q64 -24 87 -24q24 0 39 10.5t32 40.5l74 -42q-23 -47 -38 -69t-36 -37q-40 -28 -85 -28q-28 0 -103 28q-61 22 -81 22q-25 0 -44 -17q-11 -9 -29 -44z" />
<glyph unicode="&#xa1;" horiz-adv-x="273" d="M200 299l-56 -459h-109l56 459h109zM165 520q31 0 53 -22.5t22 -53.5q0 -32 -22 -54.5t-54 -22.5t-54.5 22.5t-22.5 54.5q0 31 23 53.5t55 22.5z" />
<glyph unicode="&#xa2;" horiz-adv-x="567" d="M418 258l-15 -123q-21 -7 -63 -12l-14 -107h-77l14 112q-56 18 -84 47q-54 56 -54 148q0 120 79 188q43 36 112 45l11 95h77l-11 -95q30 -5 59 -17l-14 -116q-56 18 -86 18q-47 0 -75.5 -29.5t-28.5 -79.5q0 -43 24 -66t68 -23q40 0 78 15z" />
<glyph unicode="&#xa3;" horiz-adv-x="567" d="M17 1l14 113q72 23 111.5 60t39.5 83q0 5 -2 23h-133l11 85h88q-39 75 -39 122q0 83 68 138t171 55q167 0 230 -143l-109 -59q-22 48 -47.5 67t-69.5 19q-46 0 -72.5 -24t-26.5 -65q0 -28 21 -71q10 -22 14 -39h167l-11 -85h-138q2 -22 2 -27q0 -65 -85 -127 q33 -3 82 -12q41 -7 66 -7q57 0 108 28l31 -118q-66 -30 -126 -30q-41 0 -153 24q-62 12 -96 12q-46 0 -116 -22z" />
<glyph unicode="&#xa4;" horiz-adv-x="667" d="M20 137l103 103q-44 63 -44 138q0 72 44 137l-104 104l71 71l104 -104q67 44 140 44q71 0 137 -43l103 102l70 -70l-102 -102q45 -71 45 -140t-43 -136l103 -103l-70 -71l-103 103q-65 -45 -142 -45q-69 0 -139 44l-103 -102zM335 514q-58 0 -98 -39.5t-40 -97.5 q0 -56 40 -96t96 -40t96 40t40 97q0 56 -39.5 96t-94.5 40z" />
<glyph unicode="&#xa5;" horiz-adv-x="567" d="M77 363l11 91h62l-101 213h148l100 -229l153 229h158l-145 -213h71l-11 -91h-123l-42 -63h157l-11 -91h-162l-26 -209h-125l26 209h-159l11 91h154l-29 63h-117z" />
<glyph unicode="&#xa6;" d="M197 667h130v-347h-130v347zM197 153h130v-320h-130v320z" />
<glyph unicode="&#xa7;" horiz-adv-x="567" d="M52 33h120q5 -54 13 -67q18 -30 71 -30q81 0 81 74q0 29 -13.5 41t-71.5 32q-72 26 -107 52q-60 44 -60 133q0 64 26.5 105.5t91.5 78.5q-51 59 -51 120q0 74 55 121t140 47q90 0 132 -45t42 -142v-22h-103l-1 14q-2 53 -17.5 73t-53.5 20q-34 0 -56 -22t-22 -57t29 -53 q18 -11 72 -31q63 -23 88 -45q49 -44 49 -127q0 -58 -26.5 -99.5t-84.5 -76.5q58 -48 58 -122q0 -79 -55.5 -127t-146.5 -48q-61 0 -108.5 22.5t-69.5 61.5q-20 35 -21 119zM295 385q-41 0 -69.5 -29t-28.5 -72t27.5 -71t69.5 -28q43 0 72 28.5t29 71.5t-28.5 71.5 t-71.5 28.5z" />
<glyph unicode="&#xa8;" d="M195 613q27 0 46.5 -19.5t19.5 -46.5q0 -28 -19.5 -47.5t-47.5 -19.5q-27 0 -46.5 19.5t-19.5 47.5t19.5 47t47.5 19zM383 613q26 0 45.5 -19.5t19.5 -46.5q0 -28 -19.5 -47.5t-46.5 -19.5q-28 0 -47.5 19.5t-19.5 47.5t19.5 47t48.5 19z" />
<glyph unicode="&#xa9;" horiz-adv-x="733" d="M504 261l-13 -106q-47 -29 -107 -29q-86 0 -142.5 55t-56.5 140q0 95 64 157.5t161 62.5q69 0 124 -34l-12 -101q-36 26 -59 35.5t-52 9.5q-53 0 -88.5 -37t-35.5 -92q0 -47 29.5 -76.5t76.5 -29.5q28 0 51 9.5t60 35.5zM385 682q140 0 240.5 -103t100.5 -246 q0 -144 -101.5 -246t-244.5 -102t-245 102t-102 246q0 146 102 247.5t250 101.5zM384 619q-118 0 -200 -83t-82 -203q0 -118 81.5 -202t196.5 -84q114 0 195 84t81 202q0 117 -80.5 201.5t-191.5 84.5z" />
<glyph unicode="&#xaa;" horiz-adv-x="339" d="M47 362h279l-7 -55h-279zM275 667h89l-31 -248h-91l2 19q-39 -27 -74 -27q-49 0 -79 32.5t-30 84.5q0 63 37.5 105t94.5 42q24 0 39.5 -6t37.5 -25zM215 605q-25 0 -41.5 -19t-16.5 -47q0 -24 12.5 -38t34.5 -14q25 0 41 18.5t16 47.5q0 24 -12.5 38t-33.5 14z" />
<glyph unicode="&#xab;" horiz-adv-x="455" d="M430 348l-121 -145l83 -135l-67 -44l-114 183l158 194zM250 348l-121 -145l84 -135l-68 -44l-114 183l158 194z" />
<glyph unicode="&#xac;" d="M348 0v150h-303v117h433v-267h-130z" />
<glyph unicode="&#xad;" horiz-adv-x="215" d="M-9 156l13 102h215l-13 -102h-215z" />
<glyph unicode="&#xae;" horiz-adv-x="733" d="M214 133l50 400h107q80 0 116 -26t36 -85q0 -47 -25 -80t-69 -43l107 -166h-113l-95 147l-18 -147h-96zM350 452l-12 -97h19q67 0 67 56q0 23 -11.5 32t-40.5 9h-22zM385 682q140 0 240.5 -103t100.5 -246q0 -144 -101.5 -246t-244.5 -102t-245 102t-102 246 q0 146 102 247.5t250 101.5zM384 619q-118 0 -200 -83t-82 -203q0 -118 81.5 -202t196.5 -84q114 0 195 84t81 202q0 117 -80.5 201.5t-191.5 84.5z" />
<glyph unicode="&#xaf;" d="M140 584h320l-9 -80h-321z" />
<glyph unicode="&#xb0;" horiz-adv-x="567" d="M322 680q56 0 95 -39t39 -94t-39 -94.5t-94 -39.5q-56 0 -95 39.5t-39 95.5q0 54 39.5 93t93.5 39zM322 613q-27 0 -46.5 -19.5t-19.5 -46.5q0 -28 19.5 -47.5t47.5 -19.5q27 0 46.5 19.5t19.5 47.5q0 27 -19.5 46.5t-47.5 19.5z" />
<glyph unicode="&#xb1;" horiz-adv-x="567" d="M54 294v93h196v190h95v-190h196v-93h-196v-196h-95v196h-196zM54 -27v93h487v-93h-487z" />
<glyph unicode="&#xb2;" horiz-adv-x="387" d="M352 339l-9 -72h-303l145 145q58 58 76.5 85.5t18.5 56.5q0 23 -13.5 36t-37.5 13q-29 0 -43.5 -17t-19.5 -55h-82q5 49 21 78q17 31 50.5 48.5t74.5 17.5q59 0 96.5 -34.5t37.5 -89.5q0 -44 -31.5 -87.5t-121.5 -124.5h141z" />
<glyph unicode="&#xb3;" horiz-adv-x="387" d="M74 387h83q1 -31 14 -44.5t40 -13.5q26 0 41.5 16t15.5 43q0 28 -17.5 39.5t-58.5 11.5l8 67q7 -1 18 -1q62 0 62 53q0 22 -13 34.5t-35 12.5q-24 0 -37 -13t-18 -43h-83q17 126 140 126q58 0 92 -29t34 -78q0 -62 -63 -91q55 -26 55 -89q0 -60 -45 -99q-35 -30 -102 -30 q-81 0 -112 46q-18 26 -19 82z" />
<glyph unicode="&#xb4;" d="M442 569l-150 -102l-64 44l124 132z" />
<glyph unicode="&#xb5;" horiz-adv-x="505" d="M130 -187h-123l72 591h123l-26 -215q-3 -18 -3 -33q0 -30 18 -46.5t51 -16.5q37 0 54.5 22.5t24.5 80.5l25 208h123l-26 -211q-12 -101 -43 -141q-49 -66 -154 -66q-60 0 -108 28z" />
<glyph unicode="&#xb6;" horiz-adv-x="567" d="M128 -92l53 430h-10q-56 0 -89.5 41t-33.5 110q0 178 214 178h326l-14 -113h-73l-80 -646h-103l79 646h-86l-79 -646h-104z" />
<glyph unicode="&#xb7;" horiz-adv-x="267" d="M132 283q31 0 53 -22.5t22 -53.5q0 -32 -22 -54.5t-54 -22.5t-54.5 22.5t-22.5 54.5q0 31 23 53.5t55 22.5z" />
<glyph unicode="&#xb8;" d="M152 -166l86 121l72 -45l-101 -115z" />
<glyph unicode="&#xb9;" horiz-adv-x="387" d="M175 267l40 328h-53l9 72h138l-50 -400h-84z" />
<glyph unicode="&#xba;" horiz-adv-x="339" d="M47 362h279l-7 -55h-279zM210 675q62 0 101 -36t39 -92q0 -58 -41.5 -97t-103.5 -39q-64 0 -104 35.5t-40 91.5q0 58 43 97.5t106 39.5zM208 598q-23 0 -37.5 -16.5t-14.5 -42.5q0 -23 13 -37.5t34 -14.5q23 0 37.5 17t14.5 43q0 23 -12.5 37t-34.5 14z" />
<glyph unicode="&#xbb;" horiz-adv-x="455" d="M20 65l121 146l-83 135l67 43l114 -182l-158 -195zM200 65l121 146l-84 135l67 43l115 -182l-159 -195z" />
<glyph unicode="&#xbc;" horiz-adv-x="925" d="M172 267l40 328h-53l9 72h138l-50 -400h-84zM320 11l249 665l62 -20l-248 -665zM731 0l11 84h-180l9 70l201 246h92l-31 -253h47l-8 -63h-47l-10 -84h-84zM750 147l19 156l-124 -156h105z" />
<glyph unicode="&#xbd;" horiz-adv-x="925" d="M172 267l40 328h-53l9 72h138l-50 -400h-84zM320 11l249 665l62 -20l-248 -665zM861 72l-10 -72h-302l145 146q58 58 76.5 85.5t18.5 56.5q0 23 -13.5 35.5t-37.5 12.5q-29 0 -44 -17t-19 -54h-82q4 50 21 77q17 31 50.5 48.5t74.5 17.5q59 0 96.5 -34.5t37.5 -88.5 q0 -44 -31.5 -88t-122.5 -125h142z" />
<glyph unicode="&#xbe;" horiz-adv-x="925" d="M70 387h83q1 -31 14 -44.5t40 -13.5q26 0 41.5 16t15.5 43q0 28 -17.5 39.5t-58.5 11.5l8 67q7 -1 18 -1q62 0 62 53q0 22 -13 34.5t-35 12.5q-24 0 -37 -13t-18 -43h-83q17 126 140 126q58 0 92 -29t34 -78q0 -62 -63 -91q55 -26 55 -89q0 -60 -45 -99q-35 -30 -102 -30 q-81 0 -112 46q-18 26 -19 82zM320 11l248 665l62 -20l-247 -665zM731 0l10 84h-179l9 70l201 246h92l-31 -253h47l-8 -63h-47l-11 -84h-83zM749 147l19 156l-124 -156h105z" />
<glyph unicode="&#xbf;" horiz-adv-x="470" d="M191 305h122l-23 -187q-24 3 -38 3q-117 0 -117 -97q0 -37 22 -59t59 -22q77 0 87 88h109q-11 -92 -44 -133q-55 -72 -161 -72q-90 0 -144.5 53t-54.5 141q0 109 78 168q37 28 95 32zM270 520q31 0 53 -22.5t22 -53.5q0 -32 -22 -54.5t-54 -22.5t-54.5 22.5t-22.5 54.5 q0 31 23 53.5t55 22.5z" />
<glyph unicode="&#xc0;" horiz-adv-x="620" d="M-15 0l336 667h129l142 -667h-138l-22 109h-246l-54 -109h-147zM408 232l-33 166q-9 40 -9 73q0 15 2 34l-9 1q-9 -46 -44 -120l-74 -154h167zM262 822l99 53l80 -125l-66 -33z" />
<glyph unicode="&#xc1;" horiz-adv-x="620" d="M-15 0l336 667h129l142 -667h-138l-22 109h-246l-54 -109h-147zM408 232l-33 166q-9 40 -9 73q0 15 2 34l-9 1q-9 -46 -44 -120l-74 -154h167zM544 792l-160 -75l-52 50l139 108z" />
<glyph unicode="&#xc2;" horiz-adv-x="620" d="M-15 0l336 667h129l142 -667h-138l-22 109h-246l-54 -109h-147zM408 232l-33 166q-9 40 -9 73q0 15 2 34l-9 1q-9 -46 -44 -120l-74 -154h167zM240 778l184 99l123 -108l-61 -52l-80 66l-124 -66z" />
<glyph unicode="&#xc3;" horiz-adv-x="620" d="M-15 0l336 667h129l142 -667h-138l-22 109h-246l-54 -109h-147zM408 232l-33 166q-9 40 -9 73q0 15 2 34l-9 1q-9 -46 -44 -120l-74 -154h167zM280 734h-67q31 120 122 120q30 0 71 -24q36 -20 55 -20q18 0 28 8t20 30h68q-31 -120 -124 -120q-31 0 -70 20q-44 22 -61 22 q-16 0 -24.5 -7.5t-17.5 -28.5z" />
<glyph unicode="&#xc4;" horiz-adv-x="620" d="M-15 0l336 667h129l142 -667h-138l-22 109h-246l-54 -109h-147zM408 232l-33 166q-9 40 -9 73q0 15 2 34l-9 1q-9 -46 -44 -120l-74 -154h167zM297 863q28 0 48.5 -20.5t20.5 -49.5t-20.5 -49.5t-49.5 -20.5t-49.5 20.5t-20.5 50.5q0 28 21 48.5t50 20.5zM490 863 q28 0 48.5 -20.5t20.5 -49.5t-20.5 -49.5t-49.5 -20.5t-49.5 20.5t-20.5 50.5q0 28 21 48.5t50 20.5z" />
<glyph unicode="&#xc5;" horiz-adv-x="620" d="M-15 0l336 667h129l142 -667h-138l-22 109h-246l-54 -109h-147zM408 232l-33 166q-9 40 -9 73q0 15 2 34l-9 1q-9 -46 -44 -120l-74 -154h167zM397 913q40 0 69 -29.5t29 -70.5t-29.5 -70.5t-70.5 -29.5q-42 0 -71 29.5t-29 71.5q0 41 29.5 70t72.5 29zM396 851 q-16 0 -27.5 -11t-11.5 -27t11 -27t27 -11t27 11t11 27t-11 27t-26 11z" />
<glyph unicode="&#xc6;" horiz-adv-x="894" d="M-15 0l345 667h352l31 -123h-221l33 -149h224l30 -123h-225l34 -149h228l30 -123h-368l-24 107h-267l-57 -107h-145zM427 230l-41 186q-8 35 -8 68q0 16 1 30l-7 1q-6 -39 -32 -92l-96 -193h183z" />
<glyph unicode="&#xc7;" horiz-adv-x="593" d="M544 186l-19 -155q-70 -44 -161 -44q-63 0 -122.5 24.5t-101.5 68.5q-86 86 -86 230q0 161 100.5 265.5t254.5 104.5q106 0 189 -53l-18 -147q-85 67 -169 67q-91 0 -152.5 -68t-61.5 -168q0 -85 49.5 -138t128.5 -53t169 66zM206 -166l106 119l78 -52l-116 -112z" />
<glyph unicode="&#xc8;" horiz-adv-x="469" d="M49 0l82 667h345l-15 -123h-212l-18 -148h204l-15 -123h-204l-18 -150h212l-16 -123h-345zM209 822l99 53l80 -125l-66 -33z" />
<glyph unicode="&#xc9;" horiz-adv-x="469" d="M49 0l82 667h345l-15 -123h-212l-18 -148h204l-15 -123h-204l-18 -150h212l-16 -123h-345zM449 792l-160 -75l-52 50l139 108z" />
<glyph unicode="&#xca;" horiz-adv-x="469" d="M49 0l82 667h345l-15 -123h-212l-18 -148h204l-15 -123h-204l-18 -150h212l-16 -123h-345zM161 778l184 99l123 -108l-61 -52l-80 66l-124 -66z" />
<glyph unicode="&#xcb;" horiz-adv-x="469" d="M49 0l82 667h345l-15 -123h-212l-18 -148h204l-15 -123h-204l-18 -150h212l-16 -123h-345zM221 863q28 0 48.5 -20.5t20.5 -49.5t-20.5 -49.5t-49.5 -20.5t-49.5 20.5t-20.5 50.5q0 28 21 48.5t50 20.5zM414 863q28 0 48.5 -20.5t20.5 -49.5t-20.5 -49.5t-49.5 -20.5 t-49.5 20.5t-20.5 50.5q0 28 21 48.5t50 20.5z" />
<glyph unicode="&#xcc;" horiz-adv-x="287" d="M49 0l82 667h134l-82 -667h-134zM82 822l99 53l80 -125l-66 -33z" />
<glyph unicode="&#xcd;" horiz-adv-x="287" d="M49 0l82 667h134l-82 -667h-134zM338 796l-140 -79l-52 50l122 108z" />
<glyph unicode="&#xce;" horiz-adv-x="287" d="M49 0l82 667h134l-82 -667h-134zM64 778l178 99l116 -108l-61 -52l-74 66l-117 -66z" />
<glyph unicode="&#xcf;" horiz-adv-x="287" d="M49 0l82 667h134l-82 -667h-134zM127 861q27 0 47 -20t20 -48q0 -29 -20 -48.5t-48 -19.5q-29 0 -48.5 20t-19.5 49q0 28 20 47.5t49 19.5zM302 861q27 0 47 -20t20 -48q0 -29 -19.5 -48.5t-48.5 -19.5t-48.5 20t-19.5 49q0 28 20 47.5t49 19.5z" />
<glyph unicode="&#xd0;" horiz-adv-x="652" d="M48 0l36 290h-58l12 100h58l35 277h170q83 0 131 -10.5t86 -36.5q106 -71 106 -255q0 -111 -43.5 -198.5t-118.5 -125.5q-81 -41 -228 -41h-186zM197 120h30q95 0 145 25q51 25 80 86t29 142q0 126 -82 160q-35 14 -114 14h-36l-19 -157h133l-12 -100h-133z" />
<glyph unicode="&#xd1;" horiz-adv-x="749" d="M49 0l82 667h134l228 -379q32 -52 47 -106l8 2q-4 31 -4 51q0 35 5 68l44 364h134l-82 -667h-134l-222 365q-45 78 -54 117l-7 -2q5 -31 5 -53q0 -7 -3 -43l-48 -384h-133zM336 734h-67q31 120 122 120q30 0 71 -24q36 -20 55 -20q18 0 28 8t20 30h68q-31 -120 -124 -120 q-31 0 -70 20q-44 22 -61 22q-16 0 -24.5 -7.5t-17.5 -28.5z" />
<glyph unicode="&#xd2;" horiz-adv-x="760" d="M410 680q145 0 234 -88.5t89 -231.5q0 -153 -97 -261q-101 -112 -258 -112q-147 0 -238 93q-86 89 -86 234q0 157 101.5 261.5t254.5 104.5zM413 547q-92 0 -154 -67t-62 -167q0 -87 51 -140t134 -53q96 0 153 74q55 71 55 162q0 86 -49 138.5t-128 52.5zM335 822l99 53 l80 -125l-66 -33z" />
<glyph unicode="&#xd3;" horiz-adv-x="760" d="M410 680q145 0 234 -88.5t89 -231.5q0 -153 -97 -261q-101 -112 -258 -112q-147 0 -238 93q-86 89 -86 234q0 157 101.5 261.5t254.5 104.5zM413 547q-92 0 -154 -67t-62 -167q0 -87 51 -140t134 -53q96 0 153 74q55 71 55 162q0 86 -49 138.5t-128 52.5zM597 792 l-160 -75l-52 50l139 108z" />
<glyph unicode="&#xd4;" horiz-adv-x="760" d="M410 680q145 0 234 -88.5t89 -231.5q0 -153 -97 -261q-101 -112 -258 -112q-147 0 -238 93q-86 89 -86 234q0 157 101.5 261.5t254.5 104.5zM413 547q-92 0 -154 -67t-62 -167q0 -87 51 -140t134 -53q96 0 153 74q55 71 55 162q0 86 -49 138.5t-128 52.5zM300 778l184 99 l123 -108l-61 -52l-80 66l-124 -66z" />
<glyph unicode="&#xd5;" horiz-adv-x="760" d="M410 680q145 0 234 -88.5t89 -231.5q0 -153 -97 -261q-101 -112 -258 -112q-147 0 -238 93q-86 89 -86 234q0 157 101.5 261.5t254.5 104.5zM413 547q-92 0 -154 -67t-62 -167q0 -87 51 -140t134 -53q96 0 153 74q55 71 55 162q0 86 -49 138.5t-128 52.5zM336 734h-67 q31 120 122 120q30 0 71 -24q36 -20 55 -20q18 0 28 8t20 30h68q-31 -120 -124 -120q-31 0 -70 20q-44 22 -61 22q-16 0 -24.5 -7.5t-17.5 -28.5z" />
<glyph unicode="&#xd6;" horiz-adv-x="760" d="M410 680q145 0 234 -88.5t89 -231.5q0 -153 -97 -261q-101 -112 -258 -112q-147 0 -238 93q-86 89 -86 234q0 157 101.5 261.5t254.5 104.5zM413 547q-92 0 -154 -67t-62 -167q0 -87 51 -140t134 -53q96 0 153 74q55 71 55 162q0 86 -49 138.5t-128 52.5zM353 863 q28 0 48.5 -20.5t20.5 -49.5t-20.5 -49.5t-49.5 -20.5t-49.5 20.5t-20.5 50.5q0 28 21 48.5t50 20.5zM546 863q28 0 48.5 -20.5t20.5 -49.5t-20.5 -49.5t-49.5 -20.5t-49.5 20.5t-20.5 50.5q0 28 21 48.5t50 20.5z" />
<glyph unicode="&#xd7;" horiz-adv-x="567" d="M82 187l153 156l-158 159l61 59l156 -157l156 158l69 -67l-157 -158l156 -157l-61 -59l-155 154l-153 -154z" />
<glyph unicode="&#xd8;" horiz-adv-x="773" d="M27 65l77 72q-25 46 -34 83t-9 88q0 161 101 266.5t255 105.5q122 0 211 -67l80 72l67 -75l-81 -73q26 -49 36 -87t10 -89q0 -154 -97 -262q-101 -112 -259 -112q-64 0 -114 17t-101 57l-79 -72zM217 235l303 285q-46 27 -99 27q-94 0 -155.5 -67t-61.5 -171 q0 -38 13 -74zM582 439l-304 -285q44 -34 113 -34q94 0 151 74q55 71 55 163q0 38 -15 82z" />
<glyph unicode="&#xd9;" horiz-adv-x="664" d="M131 667h133l-45 -368q-7 -59 -7 -79q0 -100 112 -100q86 0 115 69q15 40 24 113l45 365h133l-48 -392q-18 -146 -59 -199q-66 -89 -219 -89q-112 0 -179 52q-60 48 -60 144q0 38 8 106zM285 822l99 53l80 -125l-66 -33z" />
<glyph unicode="&#xda;" horiz-adv-x="664" d="M131 667h133l-45 -368q-7 -59 -7 -79q0 -100 112 -100q86 0 115 69q15 40 24 113l45 365h133l-48 -392q-18 -146 -59 -199q-66 -89 -219 -89q-112 0 -179 52q-60 48 -60 144q0 38 8 106zM546 792l-160 -75l-52 50l139 108z" />
<glyph unicode="&#xdb;" horiz-adv-x="664" d="M131 667h133l-45 -368q-7 -59 -7 -79q0 -100 112 -100q86 0 115 69q15 40 24 113l45 365h133l-48 -392q-18 -146 -59 -199q-66 -89 -219 -89q-112 0 -179 52q-60 48 -60 144q0 38 8 106zM247 778l184 99l123 -108l-61 -52l-80 66l-124 -66z" />
<glyph unicode="&#xdc;" horiz-adv-x="664" d="M131 667h133l-45 -368q-7 -59 -7 -79q0 -100 112 -100q86 0 115 69q15 40 24 113l45 365h133l-48 -392q-18 -146 -59 -199q-66 -89 -219 -89q-112 0 -179 52q-60 48 -60 144q0 38 8 106zM304 863q28 0 48.5 -20.5t20.5 -49.5t-20.5 -49.5t-49.5 -20.5t-49.5 20.5 t-20.5 50.5q0 28 21 48.5t50 20.5zM497 863q28 0 48.5 -20.5t20.5 -49.5t-20.5 -49.5t-49.5 -20.5t-49.5 20.5t-20.5 50.5q0 28 21 48.5t50 20.5z" />
<glyph unicode="&#xdd;" horiz-adv-x="560" d="M189 0l36 293l-178 374h152l100 -229l153 229h162l-256 -374l-36 -293h-133zM490 792l-160 -75l-52 50l139 108z" />
<glyph unicode="&#xde;" horiz-adv-x="535" d="M49 0l82 667h134l-12 -94h22q115 0 169 -29q39 -20 61 -65.5t22 -104.5q0 -65 -25.5 -113t-71.5 -72q-60 -32 -170 -32h-58l-20 -157h-133zM216 272h40q61 0 88 18q40 27 40 85q0 43 -25 62q-18 14 -80 14h-41z" />
<glyph unicode="&#xdf;" horiz-adv-x="527" d="M30 0l58 473q11 81 22 121.5t31 67.5q57 79 172 79q85 0 134.5 -45.5t49.5 -124.5q0 -76 -37 -121q-22 -27 -78 -47q53 -27 72 -50q40 -45 40 -122q0 -72 -34.5 -129.5t-92.5 -81.5q-47 -19 -156 -20l14 117h21q55 0 85.5 34t30.5 93q0 51 -26.5 75t-82.5 24l14 115h10h6 q42 1 68 30.5t26 76.5q0 37 -17.5 57.5t-49.5 20.5q-60 0 -82 -77q-9 -31 -18 -104l-57 -462h-123z" />
<glyph unicode="&#xe0;" horiz-adv-x="535" d="M377 404h121l-49 -404h-125l11 57q-36 -38 -67.5 -54t-71.5 -16q-73 0 -118.5 52t-45.5 136q0 104 57.5 173t145.5 69q44 0 73 -15.5t62 -55.5zM272 319q-45 0 -76 -36.5t-31 -89.5q0 -44 23 -70.5t62 -26.5q45 0 75 36t30 91q0 44 -22.5 70t-60.5 26zM187 591l107 52 l76 -143l-71 -33z" />
<glyph unicode="&#xe1;" horiz-adv-x="535" d="M377 404h121l-49 -404h-125l11 57q-36 -38 -67.5 -54t-71.5 -16q-73 0 -118.5 52t-45.5 136q0 104 57.5 173t145.5 69q44 0 73 -15.5t62 -55.5zM272 319q-45 0 -76 -36.5t-31 -89.5q0 -44 23 -70.5t62 -26.5q45 0 75 36t30 91q0 44 -22.5 70t-60.5 26zM453 569l-150 -102 l-64 44l124 132z" />
<glyph unicode="&#xe2;" horiz-adv-x="535" d="M377 404h121l-49 -404h-125l11 57q-36 -38 -67.5 -54t-71.5 -16q-73 0 -118.5 52t-45.5 136q0 104 57.5 173t145.5 69q44 0 73 -15.5t62 -55.5zM272 319q-45 0 -76 -36.5t-31 -89.5q0 -44 23 -70.5t62 -26.5q45 0 75 36t30 91q0 44 -22.5 70t-60.5 26zM165 534l177 111 l121 -133l-73 -45l-66 73l-109 -73z" />
<glyph unicode="&#xe3;" horiz-adv-x="535" d="M377 404h121l-49 -404h-125l11 57q-36 -38 -67.5 -54t-71.5 -16q-73 0 -118.5 52t-45.5 136q0 104 57.5 173t145.5 69q44 0 73 -15.5t62 -55.5zM272 319q-45 0 -76 -36.5t-31 -89.5q0 -44 23 -70.5t62 -26.5q45 0 75 36t30 91q0 44 -22.5 70t-60.5 26zM211 491h-67 q15 58 45 89t71 31q28 0 71 -24q35 -20 55 -20q17 0 26.5 8t19.5 30h67q-32 -120 -122 -120q-32 0 -68 20q-43 22 -58 22q-17 0 -25.5 -8t-14.5 -28z" />
<glyph unicode="&#xe4;" horiz-adv-x="535" d="M377 404h121l-49 -404h-125l11 57q-36 -38 -67.5 -54t-71.5 -16q-73 0 -118.5 52t-45.5 136q0 104 57.5 173t145.5 69q44 0 73 -15.5t62 -55.5zM272 319q-45 0 -76 -36.5t-31 -89.5q0 -44 23 -70.5t62 -26.5q45 0 75 36t30 91q0 44 -22.5 70t-60.5 26zM219 613 q27 0 46.5 -19.5t19.5 -46.5q0 -28 -19.5 -47.5t-47.5 -19.5q-27 0 -46.5 19.5t-19.5 47.5t19.5 47t47.5 19zM407 613q26 0 45.5 -19.5t19.5 -46.5q0 -28 -19.5 -47.5t-46.5 -19.5q-28 0 -47.5 19.5t-19.5 47.5t19.5 47t48.5 19z" />
<glyph unicode="&#xe5;" horiz-adv-x="535" d="M377 404h121l-49 -404h-125l11 57q-36 -38 -67.5 -54t-71.5 -16q-73 0 -118.5 52t-45.5 136q0 104 57.5 173t145.5 69q44 0 73 -15.5t62 -55.5zM272 319q-45 0 -76 -36.5t-31 -89.5q0 -44 23 -70.5t62 -26.5q45 0 75 36t30 91q0 44 -22.5 70t-60.5 26zM314 657 q39 0 67 -28.5t28 -67.5q0 -40 -28 -68.5t-68 -28.5q-41 0 -69 28t-28 69q0 40 28.5 68t69.5 28zM313 599q-16 0 -27.5 -11t-11.5 -27q0 -17 11 -28t28 -11q16 0 27 11.5t11 27.5t-11 27t-27 11z" />
<glyph unicode="&#xe6;" horiz-adv-x="753" d="M608 131l90 -34q-68 -110 -184 -110q-98 0 -156 65q-38 -35 -75 -50t-87 -15q-82 0 -130.5 38t-48.5 101q0 62 46.5 101.5t118.5 39.5q83 0 140 -56q1 10 1 28q0 49 -33 71q-35 22 -83 22q-45 0 -122 -29l11 91q64 23 125 23q62 0 101 -18.5t63 -58.5q35 42 70 59.5 t83 17.5q82 0 131.5 -53.5t49.5 -142.5q0 -22 -2 -44h-296q1 -39 10 -58q19 -42 79 -42q31 0 52.5 12t45.5 42zM442 252h162q-1 41 -16 59t-49 18t-55.5 -17t-41.5 -60zM215 176q-40 0 -64.5 -14t-24.5 -36t24 -35.5t63 -13.5q38 0 63 14.5t25 37.5q0 22 -23 34.5t-63 12.5z " />
<glyph unicode="&#xe7;" horiz-adv-x="376" d="M335 128l-23 -126q-52 -15 -94 -15q-87 0 -137.5 53t-50.5 145q0 104 60.5 168t157.5 64q58 0 120 -25l-21 -112q-46 20 -86 20q-46 0 -72.5 -29.5t-26.5 -79.5q0 -41 22.5 -63t63.5 -22q39 0 87 22zM79 -166l86 121l72 -45l-101 -115z" />
<glyph unicode="&#xe8;" horiz-adv-x="483" d="M316 121l106 -42q-53 -92 -183 -92q-95 0 -151.5 55.5t-56.5 148.5q0 99 63.5 162.5t161.5 63.5q90 0 141.5 -54.5t51.5 -150.5q0 -20 -2 -37h-296q5 -35 18 -52q25 -30 73 -30q36 0 74 28zM162 258h176q-7 68 -74 68q-36 0 -59 -15.5t-43 -52.5zM162 591l107 52l76 -143 l-71 -33z" />
<glyph unicode="&#xe9;" horiz-adv-x="483" d="M316 121l106 -42q-53 -92 -183 -92q-95 0 -151.5 55.5t-56.5 148.5q0 99 63.5 162.5t161.5 63.5q90 0 141.5 -54.5t51.5 -150.5q0 -20 -2 -37h-296q5 -35 18 -52q25 -30 73 -30q36 0 74 28zM162 258h176q-7 68 -74 68q-36 0 -59 -15.5t-43 -52.5zM420 569l-150 -102 l-64 44l124 132z" />
<glyph unicode="&#xea;" horiz-adv-x="483" d="M316 121l106 -42q-53 -92 -183 -92q-95 0 -151.5 55.5t-56.5 148.5q0 99 63.5 162.5t161.5 63.5q90 0 141.5 -54.5t51.5 -150.5q0 -20 -2 -37h-296q5 -35 18 -52q25 -30 73 -30q36 0 74 28zM162 258h176q-7 68 -74 68q-36 0 -59 -15.5t-43 -52.5zM129 534l177 111 l121 -133l-73 -45l-66 73l-109 -73z" />
<glyph unicode="&#xeb;" horiz-adv-x="483" d="M316 121l106 -42q-53 -92 -183 -92q-95 0 -151.5 55.5t-56.5 148.5q0 99 63.5 162.5t161.5 63.5q90 0 141.5 -54.5t51.5 -150.5q0 -20 -2 -37h-296q5 -35 18 -52q25 -30 73 -30q36 0 74 28zM162 258h176q-7 68 -74 68q-36 0 -59 -15.5t-43 -52.5zM190 613 q27 0 46.5 -19.5t19.5 -46.5q0 -28 -19.5 -47.5t-47.5 -19.5q-27 0 -46.5 19.5t-19.5 47.5t19.5 47t47.5 19zM378 613q26 0 45.5 -19.5t19.5 -46.5q0 -28 -19.5 -47.5t-46.5 -19.5q-28 0 -47.5 19.5t-19.5 47.5t19.5 47t48.5 19z" />
<glyph unicode="&#xec;" horiz-adv-x="239" d="M202 404l-50 -404h-122l49 404h123zM19 591l107 52l76 -143l-71 -33z" />
<glyph unicode="&#xed;" horiz-adv-x="239" d="M202 404l-49 -404h-123l50 404h122zM301 569l-140 -102l-64 44l115 132z" />
<glyph unicode="&#xee;" horiz-adv-x="239" d="M202 404l-49 -404h-123l50 404h122zM10 534l173 111l118 -133l-73 -45l-62 73l-106 -73z" />
<glyph unicode="&#xef;" horiz-adv-x="239" d="M203 404l-50 -404h-123l50 404h123zM73 613q27 0 46.5 -19.5t19.5 -46.5q0 -28 -19.5 -47.5t-47.5 -19.5q-27 0 -46.5 19.5t-19.5 47.5t19.5 47t47.5 19zM244 613q26 0 45.5 -19.5t19.5 -46.5q0 -28 -19.5 -47.5t-46.5 -19.5q-28 0 -47.5 19.5t-19.5 47.5t19.5 47 t48.5 19z" />
<glyph unicode="&#xf0;" horiz-adv-x="512" d="M103 682l60 54q65 -28 120 -73l104 60l43 -63l-90 -53q57 -61 87 -127q53 -116 53 -232q0 -120 -56 -186q-63 -75 -171 -75q-99 0 -160 56t-61 147q0 96 65.5 161.5t162.5 65.5q37 0 70 -18q-14 77 -77 159l-107 -62l-37 65l90 54q-29 29 -96 67zM261 308 q-42 0 -69.5 -32.5t-27.5 -81.5q0 -44 23.5 -71.5t61.5 -27.5q43 0 70 33t27 84q0 44 -23 70t-62 26z" />
<glyph unicode="&#xf1;" d="M30 0l50 404h122l-7 -61q38 44 65.5 59.5t67.5 15.5q61 0 96 -33q25 -25 25 -74q0 -15 -2 -43l-34 -268h-122l27 222q3 18 3 35q0 51 -55 51q-48 0 -71 -41q-12 -26 -16 -67l-25 -200h-124zM182 491h-67q15 58 45 89t71 31q28 0 71 -24q35 -20 55 -20q17 0 26.5 8 t19.5 30h67q-32 -120 -122 -120q-32 0 -68 20q-43 22 -58 22q-16 0 -25 -8t-15 -28z" />
<glyph unicode="&#xf2;" horiz-adv-x="513" d="M260 417q95 0 155.5 -58t60.5 -150q0 -95 -64.5 -158.5t-160.5 -63.5q-98 0 -159 57t-61 149q0 95 66 159.5t163 64.5zM259 308q-41 0 -68.5 -32.5t-27.5 -81.5q0 -44 23 -71t61 -27q43 0 70 32.5t27 83.5q0 44 -23 70t-62 26zM174 591l107 52l76 -143l-71 -33z" />
<glyph unicode="&#xf3;" horiz-adv-x="513" d="M260 417q95 0 155.5 -58t60.5 -150q0 -95 -64.5 -158.5t-160.5 -63.5q-98 0 -159 57t-61 149q0 95 66 159.5t163 64.5zM259 308q-41 0 -68.5 -32.5t-27.5 -81.5q0 -44 23 -71t61 -27q43 0 70 32.5t27 83.5q0 44 -23 70t-62 26zM436 569l-150 -102l-64 44l124 132z" />
<glyph unicode="&#xf4;" horiz-adv-x="513" d="M260 417q95 0 155.5 -58t60.5 -150q0 -95 -64.5 -158.5t-160.5 -63.5q-98 0 -159 57t-61 149q0 95 66 159.5t163 64.5zM259 308q-41 0 -68.5 -32.5t-27.5 -81.5q0 -44 23 -71t61 -27q43 0 70 32.5t27 83.5q0 44 -23 70t-62 26zM144 534l177 111l121 -133l-73 -45l-66 73 l-109 -73z" />
<glyph unicode="&#xf5;" horiz-adv-x="513" d="M260 417q95 0 155.5 -58t60.5 -150q0 -95 -64.5 -158.5t-160.5 -63.5q-98 0 -159 57t-61 149q0 95 66 159.5t163 64.5zM259 308q-41 0 -68.5 -32.5t-27.5 -81.5q0 -44 23 -71t61 -27q43 0 70 32.5t27 83.5q0 44 -23 70t-62 26zM189 491h-67q15 58 45 89t71 31 q28 0 71 -24q35 -20 55 -20q17 0 26.5 8t19.5 30h67q-32 -120 -122 -120q-32 0 -68 20q-43 22 -58 22q-17 0 -25.5 -8t-14.5 -28z" />
<glyph unicode="&#xf6;" horiz-adv-x="513" d="M260 417q95 0 155.5 -58t60.5 -150q0 -95 -64.5 -158.5t-160.5 -63.5q-98 0 -159 57t-61 149q0 95 66 159.5t163 64.5zM259 308q-41 0 -68.5 -32.5t-27.5 -81.5q0 -44 23 -71t61 -27q43 0 70 32.5t27 83.5q0 44 -23 70t-62 26zM202 613q27 0 46.5 -19.5t19.5 -46.5 q0 -28 -19.5 -47.5t-47.5 -19.5q-27 0 -46.5 19.5t-19.5 47.5t19.5 47t47.5 19zM390 613q26 0 45.5 -19.5t19.5 -46.5q0 -28 -19.5 -47.5t-46.5 -19.5q-28 0 -47.5 19.5t-19.5 47.5t19.5 47t48.5 19z" />
<glyph unicode="&#xf7;" horiz-adv-x="567" d="M54 294v93h487v-93h-487zM299 240q29 0 50 -21.5t21 -50.5q0 -31 -21 -52t-51 -21q-31 0 -52 21t-21 52q0 30 21.5 51t52.5 21zM299 585q29 0 50 -21.5t21 -50.5q0 -31 -21 -52t-51 -21q-31 0 -52 21t-21 52q0 30 21.5 51t52.5 21z" />
<glyph unicode="&#xf8;" horiz-adv-x="540" d="M8 36l61 53q-25 47 -25 100q0 98 65.5 163t163.5 65q77 0 133 -39l63 54l52 -62l-61 -51q29 -54 29 -111q0 -94 -64.5 -157.5t-159.5 -63.5q-85 0 -142 43l-67 -56zM179 163l143 130q-22 15 -50 15q-42 0 -69 -32.5t-27 -82.5q0 -11 3 -30zM353 247l-147 -132 q26 -19 55 -19q42 0 69 33t27 84q0 15 -4 34z" />
<glyph unicode="&#xf9;" horiz-adv-x="505" d="M80 404h122l-26 -215q-3 -18 -3 -32q0 -30 18 -46.5t51 -16.5q37 0 54 22.5t25 79.5l25 208h123l-26 -211q-12 -101 -43 -141q-49 -65 -163 -65q-90 0 -138 41t-48 117q0 17 4 59zM171 591l107 52l76 -143l-71 -33z" />
<glyph unicode="&#xfa;" horiz-adv-x="505" d="M80 404h122l-26 -215q-3 -18 -3 -32q0 -30 18 -46.5t51 -16.5q37 0 54 22.5t25 79.5l25 208h123l-26 -211q-12 -101 -43 -141q-49 -65 -163 -65q-90 0 -138 41t-48 117q0 17 4 59zM438 569l-150 -102l-64 44l124 132z" />
<glyph unicode="&#xfb;" horiz-adv-x="505" d="M80 404h122l-26 -215q-3 -18 -3 -32q0 -30 18 -46.5t51 -16.5q37 0 54 22.5t25 79.5l25 208h123l-26 -211q-12 -101 -43 -141q-49 -65 -163 -65q-90 0 -138 41t-48 117q0 17 4 59zM140 534l177 111l121 -133l-73 -45l-66 73l-109 -73z" />
<glyph unicode="&#xfc;" horiz-adv-x="505" d="M80 404h122l-26 -215q-3 -18 -3 -32q0 -30 18 -46.5t51 -16.5q37 0 54 22.5t25 79.5l25 208h123l-26 -211q-12 -101 -43 -141q-49 -65 -163 -65q-90 0 -138 41t-48 117q0 17 4 59zM198 613q27 0 46.5 -19.5t19.5 -46.5q0 -28 -19.5 -47.5t-47.5 -19.5q-27 0 -46.5 19.5 t-19.5 47.5t19.5 47t47.5 19zM386 613q26 0 45.5 -19.5t19.5 -46.5q0 -28 -19.5 -47.5t-46.5 -19.5q-28 0 -47.5 19.5t-19.5 47.5t19.5 47t48.5 19z" />
<glyph unicode="&#xfd;" horiz-adv-x="440" d="M13 404h131l73 -253l118 253h130l-290 -588h-129l96 198zM405 569l-150 -102l-64 44l124 132z" />
<glyph unicode="&#xfe;" horiz-adv-x="534" d="M7 -187l113 916h122l-47 -386q35 40 67 57t72 17q74 0 119 -52t45 -138q0 -104 -57.5 -172.5t-145.5 -68.5q-40 0 -68.5 15.5t-66.5 57.5l-30 -246h-123zM282 313q-44 0 -74.5 -37t-30.5 -91q0 -44 22.5 -70t61.5 -26q44 0 74 36.5t30 88.5q0 44 -23 71.5t-60 27.5z" />
<glyph unicode="&#xff;" horiz-adv-x="440" d="M13 404h131l73 -253l118 253h130l-290 -588h-129l96 198zM165 613q27 0 46.5 -19.5t19.5 -46.5q0 -28 -19.5 -47.5t-47.5 -19.5q-27 0 -46.5 19.5t-19.5 47.5t19.5 47t47.5 19zM353 613q26 0 45.5 -19.5t19.5 -46.5q0 -28 -19.5 -47.5t-46.5 -19.5q-28 0 -47.5 19.5 t-19.5 47.5t19.5 47t48.5 19z" />
<glyph unicode="&#x100;" horiz-adv-x="620" d="M-15 0l336 667h129l142 -667h-138l-22 109h-246l-54 -109h-147zM408 232l-33 166q-9 40 -9 73q0 15 2 34l-9 1q-9 -46 -44 -120l-74 -154h167zM226 829h337l-10 -80h-337z" />
<glyph unicode="&#x101;" horiz-adv-x="535" d="M377 404h121l-49 -404h-125l11 57q-36 -38 -67.5 -54t-71.5 -16q-73 0 -118.5 52t-45.5 136q0 104 57.5 173t145.5 69q44 0 73 -15.5t62 -55.5zM272 319q-45 0 -76 -36.5t-31 -89.5q0 -44 23 -70.5t62 -26.5q45 0 75 36t30 91q0 44 -22.5 70t-60.5 26zM159 584h320 l-9 -80h-321z" />
<glyph unicode="&#x102;" horiz-adv-x="620" d="M-15 0l336 667h129l142 -667h-138l-22 109h-246l-54 -109h-147zM408 232l-33 166q-9 40 -9 73q0 15 2 34l-9 1q-9 -46 -44 -120l-74 -154h167zM255 860h81v-7q0 -32 13 -46.5t42 -14.5q33 0 53.5 15t37.5 53h81q-43 -140 -175 -140q-61 0 -97 33.5t-36 90.5v16z" />
<glyph unicode="&#x103;" horiz-adv-x="535" d="M377 404h121l-49 -404h-125l11 57q-36 -38 -67.5 -54t-71.5 -16q-73 0 -118.5 52t-45.5 136q0 104 57.5 173t145.5 69q44 0 73 -15.5t62 -55.5zM272 319q-45 0 -76 -36.5t-31 -89.5q0 -44 23 -70.5t62 -26.5q45 0 75 36t30 91q0 44 -22.5 70t-60.5 26zM179 623h83 q0 -46 11 -63.5t40 -17.5q30 0 49 18t35 63h84q-44 -153 -173 -153q-59 0 -94 36t-35 98v19z" />
<glyph unicode="&#x104;" horiz-adv-x="620" d="M-15 0l336 667h129l142 -667q-76 -48 -76 -88q0 -15 11 -24.5t30 -9.5q26 0 59 19l-26 -78q-25 -16 -63 -16q-43 0 -71 23t-28 59q0 60 94 115h-68l-22 109h-246l-54 -109h-147zM408 232l-33 166q-9 40 -9 73q0 15 2 34l-9 1q-9 -46 -44 -120l-74 -154h167z" />
<glyph unicode="&#x105;" horiz-adv-x="535" d="M377 404h121l-49 -404q-73 -43 -73 -81q0 -14 12.5 -23.5t32.5 -9.5q21 0 50 13l-22 -67q-24 -17 -59 -17q-37 0 -61.5 21.5t-24.5 53.5q0 62 86 110h-66l11 57q-36 -38 -67.5 -54t-71.5 -16q-73 0 -118.5 52t-45.5 136q0 104 57.5 173t145.5 69q44 0 73 -15.5t62 -55.5z M272 319q-45 0 -76 -36.5t-31 -89.5q0 -44 23 -70.5t62 -26.5q45 0 75 36t30 91q0 44 -22.5 70t-60.5 26z" />
<glyph unicode="&#x106;" horiz-adv-x="593" d="M544 186l-19 -155q-70 -44 -161 -44q-63 0 -122.5 24.5t-101.5 68.5q-86 86 -86 230q0 161 100.5 265.5t254.5 104.5q106 0 189 -53l-18 -147q-85 67 -169 67q-91 0 -152.5 -68t-61.5 -168q0 -85 49.5 -138t128.5 -53t169 66zM557 792l-160 -75l-52 50l139 108z" />
<glyph unicode="&#x107;" horiz-adv-x="376" d="M335 128l-23 -126q-52 -15 -94 -15q-87 0 -137.5 53t-50.5 145q0 104 60.5 168t157.5 64q58 0 120 -25l-21 -112q-46 20 -86 20q-46 0 -72.5 -29.5t-26.5 -79.5q0 -41 22.5 -63t63.5 -22q39 0 87 22zM393 569l-150 -102l-64 44l124 132z" />
<glyph unicode="&#x108;" horiz-adv-x="593" d="M544 186l-19 -155q-70 -44 -161 -44q-63 0 -122.5 24.5t-101.5 68.5q-86 86 -86 230q0 161 100.5 265.5t254.5 104.5q106 0 189 -53l-18 -147q-85 67 -169 67q-91 0 -152.5 -68t-61.5 -168q0 -85 49.5 -138t128.5 -53t169 66zM274 778l184 99l123 -108l-61 -52l-80 66 l-124 -66z" />
<glyph unicode="&#x109;" horiz-adv-x="376" d="M335 128l-23 -126q-52 -15 -94 -15q-87 0 -137.5 53t-50.5 145q0 104 60.5 168t157.5 64q58 0 120 -25l-21 -112q-46 20 -86 20q-46 0 -72.5 -29.5t-26.5 -79.5q0 -41 22.5 -63t63.5 -22q39 0 87 22zM116 534l177 111l121 -133l-73 -45l-66 73l-109 -73z" />
<glyph unicode="&#x10a;" horiz-adv-x="593" d="M544 186l-19 -155q-70 -44 -161 -44q-63 0 -122.5 24.5t-101.5 68.5q-86 86 -86 230q0 161 100.5 265.5t254.5 104.5q106 0 189 -53l-18 -147q-85 67 -169 67q-91 0 -152.5 -68t-61.5 -168q0 -85 49.5 -138t128.5 -53t169 66zM423 863q28 0 48.5 -20.5t20.5 -49.5 t-20.5 -49.5t-49.5 -20.5t-49.5 20.5t-20.5 50.5q0 28 21 48.5t50 20.5z" />
<glyph unicode="&#x10b;" horiz-adv-x="376" d="M335 128l-23 -126q-52 -15 -94 -15q-87 0 -137.5 53t-50.5 145q0 104 60.5 168t157.5 64q58 0 120 -25l-21 -112q-46 20 -86 20q-46 0 -72.5 -29.5t-26.5 -79.5q0 -41 22.5 -63t63.5 -22q39 0 87 22zM254 620q28 0 48.5 -20.5t20.5 -49.5t-20.5 -49.5t-49.5 -20.5 t-49.5 20.5t-20.5 50.5q0 28 21 48.5t50 20.5z" />
<glyph unicode="&#x10c;" horiz-adv-x="593" d="M544 186l-19 -155q-70 -44 -161 -44q-63 0 -122.5 24.5t-101.5 68.5q-86 86 -86 230q0 161 100.5 265.5t254.5 104.5q106 0 189 -53l-18 -147q-85 67 -169 67q-91 0 -152.5 -68t-61.5 -168q0 -85 49.5 -138t128.5 -53t169 66zM591 815l-184 -98l-123 108l61 52l81 -66 l124 66z" />
<glyph unicode="&#x10d;" horiz-adv-x="376" d="M335 128l-23 -126q-52 -15 -94 -15q-87 0 -137.5 53t-50.5 145q0 104 60.5 168t157.5 64q58 0 120 -25l-21 -112q-46 20 -86 20q-46 0 -72.5 -29.5t-26.5 -79.5q0 -41 22.5 -63t63.5 -22q39 0 87 22zM417 578l-183 -111l-121 133l73 45l66 -73l109 73z" />
<glyph unicode="&#x10e;" horiz-adv-x="652" d="M49 0l82 667h170q83 0 131.5 -10.5t86.5 -36.5q106 -71 106 -255q0 -111 -43.5 -198.5t-118.5 -125.5q-82 -41 -229 -41h-185zM197 120h30q96 0 146 25q52 26 80.5 86t28.5 142q0 126 -82 160q-35 14 -114 14h-36zM521 815l-184 -98l-123 108l61 52l81 -66l124 66z" />
<glyph unicode="&#x10f;" horiz-adv-x="659" d="M537 729l-90 -729h-122l8 61q-32 -41 -63.5 -57.5t-74.5 -16.5q-76 0 -121 51.5t-45 138.5q0 103 57.5 171.5t144.5 68.5q45 0 76.5 -16.5t59.5 -55.5l48 384h122zM267 317q-44 0 -74.5 -36t-30.5 -89q0 -44 23 -71t60 -27q44 0 75 37t31 90q0 44 -23 70t-61 26zM633 729 h100l-97 -173h-72z" />
<glyph unicode="&#x110;" horiz-adv-x="652" d="M48 0l36 290h-58l12 100h58l35 277h170q83 0 131 -10.5t86 -36.5q106 -71 106 -255q0 -111 -43.5 -198.5t-118.5 -125.5q-81 -41 -228 -41h-186zM197 120h30q95 0 145 25q51 25 80 86t29 142q0 126 -82 160q-35 14 -114 14h-36l-19 -157h133l-12 -100h-133z" />
<glyph unicode="&#x111;" horiz-adv-x="534" d="M580 643l-10 -80h-53l-70 -563h-122l8 61q-32 -41 -63.5 -57.5t-74.5 -16.5q-76 0 -121 51.5t-45 138.5q0 103 57.5 171.5t144.5 68.5q45 0 76.5 -16.5t59.5 -55.5l27 218h-112l10 80h112l11 86h122l-10 -86h53zM267 317q-44 0 -74.5 -36t-30.5 -89q0 -44 23 -71t60 -27 q44 0 75 37t31 90q0 44 -23 70t-61 26z" />
<glyph unicode="&#x112;" horiz-adv-x="469" d="M49 0l82 667h345l-15 -123h-212l-18 -148h204l-15 -123h-204l-18 -150h212l-16 -123h-345zM154 829h337l-10 -80h-337z" />
<glyph unicode="&#x113;" horiz-adv-x="483" d="M316 121l106 -42q-53 -92 -183 -92q-95 0 -151.5 55.5t-56.5 148.5q0 99 63.5 162.5t161.5 63.5q90 0 141.5 -54.5t51.5 -150.5q0 -20 -2 -37h-296q5 -35 18 -52q25 -30 73 -30q36 0 74 28zM162 258h176q-7 68 -74 68q-36 0 -59 -15.5t-43 -52.5zM130 584h320l-9 -80 h-321z" />
<glyph unicode="&#x114;" horiz-adv-x="469" d="M49 0l82 667h345l-15 -123h-212l-18 -148h204l-15 -123h-204l-18 -150h212l-16 -123h-345zM175 860h81v-7q0 -32 13 -46.5t42 -14.5q33 0 53.5 15t37.5 53h81q-43 -140 -175 -140q-61 0 -97 33.5t-36 90.5v16z" />
<glyph unicode="&#x115;" horiz-adv-x="483" d="M316 121l106 -42q-53 -92 -183 -92q-95 0 -151.5 55.5t-56.5 148.5q0 99 63.5 162.5t161.5 63.5q90 0 141.5 -54.5t51.5 -150.5q0 -20 -2 -37h-296q5 -35 18 -52q25 -30 73 -30q36 0 74 28zM162 258h176q-7 68 -74 68q-36 0 -59 -15.5t-43 -52.5zM149 623h83 q0 -46 11 -63.5t40 -17.5q30 0 49 18t35 63h84q-44 -153 -173 -153q-59 0 -94 36t-35 98v19z" />
<glyph unicode="&#x116;" horiz-adv-x="469" d="M49 0l82 667h345l-15 -123h-212l-18 -148h204l-15 -123h-204l-18 -150h212l-16 -123h-345zM319 863q28 0 48.5 -20.5t20.5 -49.5t-20.5 -49.5t-49.5 -20.5t-49.5 20.5t-20.5 50.5q0 28 21 48.5t50 20.5z" />
<glyph unicode="&#x117;" horiz-adv-x="483" d="M316 121l106 -42q-53 -92 -183 -92q-95 0 -151.5 55.5t-56.5 148.5q0 99 63.5 162.5t161.5 63.5q90 0 141.5 -54.5t51.5 -150.5q0 -20 -2 -37h-296q5 -35 18 -52q25 -30 73 -30q36 0 74 28zM162 258h176q-7 68 -74 68q-36 0 -59 -15.5t-43 -52.5zM281 620 q28 0 48.5 -20.5t20.5 -49.5t-20.5 -49.5t-49.5 -20.5t-49.5 20.5t-20.5 50.5q0 28 21 48.5t50 20.5z" />
<glyph unicode="&#x118;" horiz-adv-x="469" d="M49 0l82 667h345l-15 -123h-212l-18 -148h204l-15 -123h-204l-18 -150h212l-16 -123q-75 -47 -75 -88q0 -15 11 -24.5t30 -9.5q25 0 58 19l-26 -78q-25 -16 -63 -16q-43 0 -70.5 23t-27.5 59q0 60 93 115h-275z" />
<glyph unicode="&#x119;" horiz-adv-x="483" d="M360 -94l-22 -67q-26 -17 -59 -17q-37 0 -62 21.5t-25 53.5q0 55 59 90h-15q-92 0 -148.5 56t-56.5 148q0 99 63.5 162.5t161.5 63.5q90 0 141.5 -54.5t51.5 -150.5q0 -20 -2 -37h-296q5 -35 18 -52q25 -30 73 -30q36 0 74 28l106 -42q-25 -45 -86 -75q-71 -37 -71 -78 q0 -14 12.5 -23.5t31.5 -9.5q22 0 51 13zM162 258h176q-7 68 -74 68q-36 0 -59 -15.5t-43 -52.5z" />
<glyph unicode="&#x11a;" horiz-adv-x="469" d="M49 0l82 667h345l-15 -123h-212l-18 -148h204l-15 -123h-204l-18 -150h212l-16 -123h-345zM475 815l-184 -98l-123 108l61 52l81 -66l124 66z" />
<glyph unicode="&#x11b;" horiz-adv-x="483" d="M316 121l106 -42q-53 -92 -183 -92q-95 0 -151.5 55.5t-56.5 148.5q0 99 63.5 162.5t161.5 63.5q90 0 141.5 -54.5t51.5 -150.5q0 -20 -2 -37h-296q5 -35 18 -52q25 -30 73 -30q36 0 74 28zM162 258h176q-7 68 -74 68q-36 0 -59 -15.5t-43 -52.5zM438 578l-177 -111 l-121 133l73 45l66 -73l109 73z" />
<glyph unicode="&#x11c;" horiz-adv-x="720" d="M369 347h321q-7 -142 -56 -220q-42 -66 -112 -103t-153 -37q-63 0 -122.5 22.5t-100.5 62.5q-92 87 -92 236q0 160 99 266t249 106q183 0 268 -158l-115 -65q-31 47 -67 68.5t-86 21.5q-87 0 -146 -68t-59 -168q0 -85 49.5 -138.5t129.5 -53.5q123 0 147 105h-170z M277 778l184 99l123 -108l-61 -52l-80 66l-124 -66z" />
<glyph unicode="&#x11d;" horiz-adv-x="531" d="M371 404h123l-47 -383q-8 -66 -20 -98.5t-38 -59.5q-65 -67 -183 -67q-83 0 -129.5 36.5t-52.5 106.5h123q10 -51 75 -51q62 0 86 62q10 24 19 95q-31 -28 -57 -38.5t-67 -10.5q-82 0 -128.5 47t-46.5 130q0 102 58.5 173t143.5 71q46 0 75 -19t57 -68zM265 306 q-44 0 -74.5 -36t-30.5 -89q0 -44 23 -71t60 -27q44 0 75 37t31 90q0 44 -23 70t-61 26zM162 534l177 111l121 -133l-73 -45l-66 73l-109 -73z" />
<glyph unicode="&#x11e;" horiz-adv-x="720" d="M369 347h321q-7 -142 -56 -220q-42 -66 -112 -103t-153 -37q-63 0 -122.5 22.5t-100.5 62.5q-92 87 -92 236q0 160 99 266t249 106q183 0 268 -158l-115 -65q-31 47 -67 68.5t-86 21.5q-87 0 -146 -68t-59 -168q0 -85 49.5 -138.5t129.5 -53.5q123 0 147 105h-170z M289 860h81v-7q0 -32 13 -46.5t42 -14.5q33 0 53.5 15t37.5 53h81q-43 -140 -175 -140q-61 0 -97 33.5t-36 90.5v16z" />
<glyph unicode="&#x11f;" horiz-adv-x="531" d="M371 404h123l-47 -383q-8 -66 -20 -98.5t-38 -59.5q-65 -67 -183 -67q-83 0 -129.5 36.5t-52.5 106.5h123q10 -51 75 -51q62 0 86 62q10 24 19 95q-31 -28 -57 -38.5t-67 -10.5q-82 0 -128.5 47t-46.5 130q0 102 58.5 173t143.5 71q46 0 75 -19t57 -68zM265 306 q-44 0 -74.5 -36t-30.5 -89q0 -44 23 -71t60 -27q44 0 75 37t31 90q0 44 -23 70t-61 26zM175 623h83q0 -46 11 -63.5t40 -17.5q30 0 49 18t35 63h84q-44 -153 -173 -153q-59 0 -94 36t-35 98v19z" />
<glyph unicode="&#x120;" horiz-adv-x="720" d="M369 347h321q-7 -142 -56 -220q-42 -66 -112 -103t-153 -37q-63 0 -122.5 22.5t-100.5 62.5q-92 87 -92 236q0 160 99 266t249 106q183 0 268 -158l-115 -65q-31 47 -67 68.5t-86 21.5q-87 0 -146 -68t-59 -168q0 -85 49.5 -138.5t129.5 -53.5q123 0 147 105h-170z M427 863q28 0 48.5 -20.5t20.5 -49.5t-20.5 -49.5t-49.5 -20.5t-49.5 20.5t-20.5 50.5q0 28 21 48.5t50 20.5z" />
<glyph unicode="&#x121;" horiz-adv-x="531" d="M371 404h123l-47 -383q-8 -66 -20 -98.5t-38 -59.5q-65 -67 -183 -67q-83 0 -129.5 36.5t-52.5 106.5h123q10 -51 75 -51q62 0 86 62q10 24 19 95q-31 -28 -57 -38.5t-67 -10.5q-82 0 -128.5 47t-46.5 130q0 102 58.5 173t143.5 71q46 0 75 -19t57 -68zM265 306 q-44 0 -74.5 -36t-30.5 -89q0 -44 23 -71t60 -27q44 0 75 37t31 90q0 44 -23 70t-61 26zM305 620q28 0 48.5 -20.5t20.5 -49.5t-20.5 -49.5t-49.5 -20.5t-49.5 20.5t-20.5 50.5q0 28 21 48.5t50 20.5z" />
<glyph unicode="&#x122;" horiz-adv-x="720" d="M369 347h321q-7 -142 -56 -220q-42 -66 -112 -103t-153 -37q-63 0 -122.5 22.5t-100.5 62.5q-92 87 -92 236q0 160 99 266t249 106q183 0 268 -158l-115 -65q-31 47 -67 68.5t-86 21.5q-87 0 -146 -68t-59 -168q0 -85 49.5 -138.5t129.5 -53.5q123 0 147 105h-170z M305 -53h105l-95 -161h-74z" />
<glyph unicode="&#x123;" horiz-adv-x="531" d="M371 404h123l-47 -383q-8 -66 -20 -98.5t-38 -59.5q-65 -67 -183 -67q-83 0 -129.5 36.5t-52.5 106.5h123q10 -51 75 -51q62 0 86 62q10 24 19 95q-31 -28 -57 -38.5t-67 -10.5q-82 0 -128.5 47t-46.5 130q0 102 58.5 173t143.5 71q46 0 75 -19t57 -68zM265 306 q-44 0 -74.5 -36t-30.5 -89q0 -44 23 -71t60 -27q44 0 75 37t31 90q0 44 -23 70t-61 26zM331 477h-100l92 153h72z" />
<glyph unicode="&#x124;" horiz-adv-x="664" d="M49 0l82 667h133l-32 -267h243l33 267h133l-82 -667h-133l34 277h-243l-35 -277h-133zM244 778l184 99l123 -108l-61 -52l-80 66l-124 -66z" />
<glyph unicode="&#x125;" horiz-adv-x="499" d="M30 0l90 729h122l-46 -377q43 38 70.5 51.5t64.5 13.5q56 0 87 -28t31 -78q0 -25 -4 -46l-32 -265h-123l25 203q6 43 6 55q0 49 -55 49q-50 0 -73 -46q-10 -22 -18 -81l-22 -180h-123zM91 812l184 99l123 -108l-61 -52l-80 66l-124 -66z" />
<glyph unicode="&#x126;" horiz-adv-x="664" d="M52 496l12 93h58l9 78h133l-9 -78h243l10 78h133l-9 -78h58l-12 -93h-58l-61 -496h-133l34 277h-243l-35 -277h-133l61 496h-58zM243 496l-11 -96h243l12 96h-244z" />
<glyph unicode="&#x127;" horiz-adv-x="499" d="M46 563l10 80h53l11 86h122l-10 -86h112l-10 -80h-112l-26 -211q43 38 70.5 51.5t64.5 13.5q56 0 87 -28t31 -78q0 -14 -4 -46l-32 -265h-123l25 203q6 43 6 55q0 49 -56 49q-49 0 -72 -46q-10 -18 -18 -81l-22 -180h-123l69 563h-53z" />
<glyph unicode="&#x128;" horiz-adv-x="287" d="M49 0l82 667h134l-82 -667h-134zM95 734h-67q31 120 122 120q30 0 71 -24q36 -20 55 -20q18 0 28 8t20 30h68q-32 -120 -124 -120q-31 0 -70 20q-44 22 -61 22q-16 0 -24.5 -7.5t-17.5 -28.5z" />
<glyph unicode="&#x129;" horiz-adv-x="239" d="M203 404l-50 -404h-123l50 404h123zM47 491h-67q15 58 45 89t71 31q28 0 71 -24q35 -20 55 -20q17 0 26.5 8t19.5 30h67q-32 -120 -122 -120q-32 0 -68 20q-43 22 -58 22q-17 0 -25.5 -8t-14.5 -28z" />
<glyph unicode="&#x12a;" horiz-adv-x="287" d="M49 0l82 667h134l-82 -667h-134zM93 829h244l-10 -80h-244z" />
<glyph unicode="&#x12b;" horiz-adv-x="239" d="M202 404l-49 -404h-123l50 404h122zM41 584h240l-9 -80h-241z" />
<glyph unicode="&#x12c;" horiz-adv-x="287" d="M49 0l82 667h134l-82 -667h-134zM60 860h81v-7q0 -32 13 -46.5t42 -14.5q33 0 53.5 15t37.5 53h81q-43 -140 -175 -140q-61 0 -97 33.5t-36 90.5v16z" />
<glyph unicode="&#x12d;" horiz-adv-x="239" d="M202 404l-49 -404h-123l50 404h122zM32 623h83q0 -46 8.5 -63.5t31.5 -17.5q25 0 41 18t30 63h83q-20 -74 -60.5 -113.5t-98.5 -39.5q-56 0 -87.5 36t-31.5 99q0 11 1 18z" />
<glyph unicode="&#x12e;" horiz-adv-x="287" d="M264 667l-82 -667q-70 -48 -70 -90q0 -32 33 -32q28 0 61 19l-27 -78q-26 -16 -62 -16q-41 0 -65 21.5t-24 59.5q0 67 84 116h-64l83 667h133z" />
<glyph unicode="&#x12f;" horiz-adv-x="239" d="M202 404l-49 -404q-38 -22 -53 -42q-17 -23 -17 -42q0 -30 37 -30q26 0 55 13l-22 -67q-25 -17 -57 -17q-38 0 -61.5 21t-23.5 55q0 63 83 109h-64l50 404h122zM161 630q29 0 50.5 -21.5t21.5 -51.5q0 -31 -21.5 -52.5t-51.5 -21.5q-31 0 -52.5 21.5t-21.5 52.5t21.5 52 t53.5 21z" />
<glyph unicode="&#x130;" horiz-adv-x="287" d="M49 0l82 667h134l-82 -667h-134zM214 863q28 0 48.5 -20.5t20.5 -49.5t-20.5 -49.5t-49.5 -20.5t-49.5 20.5t-20.5 50.5q0 28 21 48.5t50 20.5z" />
<glyph unicode="&#x131;" horiz-adv-x="239" d="M202 404l-49 -404h-123l50 404h122z" />
<glyph unicode="&#x132;" horiz-adv-x="704" d="M49 0l82 667h134l-82 -667h-134zM546 667h136l-61 -493q-12 -99 -52 -143t-118 -44q-70 0 -110.5 32.5t-62.5 104.5l103 54q13 -36 23.5 -47t30.5 -11q26 0 37.5 17t17.5 66z" />
<glyph unicode="&#x133;" horiz-adv-x="474" d="M202 404l-49 -404h-123l50 404h122zM161 630q29 0 50.5 -21.5t21.5 -51.5q0 -31 -21.5 -52.5t-51.5 -21.5q-31 0 -52.5 21.5t-21.5 52.5t21.5 52t53.5 21zM438 404l-72 -591h-123l72 591h123zM397 630q29 0 50.5 -21.5t21.5 -51.5q0 -31 -21.5 -52.5t-51.5 -21.5 q-31 0 -52.5 21.5t-21.5 52.5t21.5 52t53.5 21z" />
<glyph unicode="&#x134;" horiz-adv-x="420" d="M262 667h136l-61 -493q-12 -99 -52 -143t-118 -44q-70 0 -110.5 32.5t-62.5 104.5l103 54q13 -36 23.5 -47t30.5 -11q26 0 37.5 17t17.5 66zM179 778l184 99l123 -108l-61 -52l-80 66l-124 -66z" />
<glyph unicode="&#x135;" horiz-adv-x="239" d="M203 404l-73 -591h-123l73 591h123zM-2 534l177 111l121 -133l-73 -45l-66 73l-109 -73z" />
<glyph unicode="&#x136;" horiz-adv-x="593" d="M49 0l82 667h133l-37 -301l222 301h154l-244 -331l207 -336h-166l-178 322l-40 -322h-133zM229 -53h105l-95 -161h-74z" />
<glyph unicode="&#x137;" horiz-adv-x="461" d="M30 0l90 729h122l-59 -486l132 161h147l-163 -193l140 -211h-148l-113 207l-25 -207h-123zM165 -53h100l-92 -154h-72z" />
<glyph unicode="&#x138;" horiz-adv-x="461" d="M30 0l50 404h123l-20 -161l132 161h147l-163 -193l140 -211h-148l-113 207l-25 -207h-123z" />
<glyph unicode="&#x139;" horiz-adv-x="424" d="M49 0l82 667h133l-66 -544h200l-15 -123h-334zM366 792l-160 -75l-52 50l139 108z" />
<glyph unicode="&#x13a;" horiz-adv-x="239" d="M30 0l90 729h123l-90 -729h-123zM323 842l-140 -79l-52 50l122 108z" />
<glyph unicode="&#x13b;" horiz-adv-x="424" d="M49 0l82 667h133l-66 -544h200l-15 -123h-334zM163 -53h105l-95 -161h-74z" />
<glyph unicode="&#x13c;" horiz-adv-x="239" d="M30 0l90 729h123l-90 -729h-123zM37 -53h100l-92 -154h-72z" />
<glyph unicode="&#x13d;" horiz-adv-x="424" d="M49 0l82 667h133l-66 -544h200l-15 -123h-334zM374 667h105l-102 -174h-74z" />
<glyph unicode="&#x13e;" horiz-adv-x="365" d="M30 0l90 729h123l-90 -729h-123zM338 729h100l-97 -173h-72z" />
<glyph unicode="&#x13f;" horiz-adv-x="424" d="M49 0l82 667h133l-66 -544h200l-15 -123h-334zM371 431q37 0 63.5 -27t26.5 -64q0 -38 -26.5 -65t-64.5 -27t-65 27t-27 65t27 64.5t66 26.5z" />
<glyph unicode="&#x140;" horiz-adv-x="422" d="M30 0l90 729h123l-90 -729h-123zM346 431q37 0 63.5 -27t26.5 -64q0 -38 -26.5 -65t-64.5 -27t-65 27t-27 65t27 64.5t66 26.5z" />
<glyph unicode="&#x141;" horiz-adv-x="424" d="M264 667l-28 -231l118 75l-14 -114l-118 -75l-25 -199h201l-15 -123h-334l31 256l-70 -44l14 114l70 44l37 297h133z" />
<glyph unicode="&#x142;" horiz-adv-x="259" d="M252 729l-32 -263l76 52l-13 -105l-76 -52l-45 -361h-122l37 308l-76 -52l13 105l76 52l39 316h123z" />
<glyph unicode="&#x143;" horiz-adv-x="749" d="M49 0l82 667h134l228 -379q32 -52 47 -106l8 2q-4 31 -4 51q0 35 5 68l44 364h134l-82 -667h-134l-222 365q-45 78 -54 117l-7 -2q5 -31 5 -53q0 -7 -3 -43l-48 -384h-133zM582 792l-160 -75l-52 50l139 108z" />
<glyph unicode="&#x144;" d="M30 0l50 404h122l-7 -61q38 44 65.5 59.5t67.5 15.5q61 0 96 -33q25 -25 25 -74q0 -15 -2 -43l-34 -268h-122l27 222q3 18 3 35q0 51 -55 51q-48 0 -71 -41q-12 -26 -16 -67l-25 -200h-124zM419 569l-150 -102l-64 44l124 132z" />
<glyph unicode="&#x145;" horiz-adv-x="749" d="M49 0l82 667h134l228 -379q32 -52 47 -106l8 2q-4 31 -4 51q0 35 5 68l44 364h134l-82 -667h-134l-222 365q-45 78 -54 117l-7 -2q5 -31 5 -53q0 -7 -3 -43l-48 -384h-133zM307 -53h105l-95 -161h-74z" />
<glyph unicode="&#x146;" d="M30 0l50 404h122l-7 -61q38 44 65.5 59.5t67.5 15.5q61 0 96 -33q25 -25 25 -74q0 -15 -2 -43l-34 -268h-122l27 222q3 18 3 35q0 51 -55 51q-48 0 -71 -41q-12 -26 -16 -67l-25 -200h-124zM168 -53h100l-92 -154h-72z" />
<glyph unicode="&#x147;" horiz-adv-x="749" d="M49 0l82 667h134l228 -379q32 -52 47 -106l8 2q-4 31 -4 51q0 35 5 68l44 364h134l-82 -667h-134l-222 365q-45 78 -54 117l-7 -2q5 -31 5 -53q0 -7 -3 -43l-48 -384h-133zM608 815l-184 -98l-123 108l61 52l81 -66l124 66z" />
<glyph unicode="&#x148;" d="M30 0l50 404h122l-7 -61q38 44 65.5 59.5t67.5 15.5q61 0 96 -33q25 -25 25 -74q0 -15 -2 -43l-34 -268h-122l27 222q3 18 3 35q0 51 -55 51q-48 0 -71 -41q-12 -26 -16 -67l-25 -200h-124zM446 578l-177 -111l-121 133l73 45l66 -73l109 73z" />
<glyph unicode="&#x149;" horiz-adv-x="635" d="M253 680l-117 -276h-68l59 276h126zM165 0l49 404h123l-8 -61q37 43 65.5 59t68.5 16q61 0 96 -33q25 -25 25 -74q0 -22 -3 -43l-33 -268h-123l28 222q0 4 1.5 16.5t1.5 18.5q1 24 -13.5 37.5t-41.5 13.5q-50 0 -71 -41q-11 -20 -17 -67l-24 -200h-124z" />
<glyph unicode="&#x14a;" horiz-adv-x="664" d="M134 667h130l-11 -89q40 57 79.5 80.5t95.5 23.5q82 0 135 -52t53 -133q0 -27 -5 -74l-38 -306q-14 -120 -66 -179q-63 -73 -170 -73q-46 0 -106 24l13 112q57 -18 88 -18q57 0 83 47q17 30 27 102l33 271q5 37 5 59q0 101 -100 101q-73 0 -114 -60q-28 -43 -37 -124 l-47 -379h-130z" />
<glyph unicode="&#x14b;" d="M30 0l50 404h122l-7 -61q38 44 65.5 59.5t67.5 15.5q61 0 96 -33q25 -25 25 -74q0 -15 -2 -43l-28 -223q-19 -162 -172 -162q-39 0 -79 15l14 111q32 -16 55 -16q37 0 50 30q9 17 15 67l16 132q3 18 3 36q0 50 -55 50q-48 0 -71 -41q-12 -26 -16 -67l-25 -200h-124z" />
<glyph unicode="&#x14c;" horiz-adv-x="760" d="M410 680q145 0 234 -88.5t89 -231.5q0 -153 -97 -261q-101 -112 -258 -112q-147 0 -238 93q-86 89 -86 234q0 157 101.5 261.5t254.5 104.5zM413 547q-92 0 -154 -67t-62 -167q0 -87 51 -140t134 -53q96 0 153 74q55 71 55 162q0 86 -49 138.5t-128 52.5zM285 829h337 l-10 -80h-337z" />
<glyph unicode="&#x14d;" horiz-adv-x="513" d="M260 417q95 0 155.5 -58t60.5 -150q0 -95 -64.5 -158.5t-160.5 -63.5q-98 0 -159 57t-61 149q0 95 66 159.5t163 64.5zM259 308q-41 0 -68.5 -32.5t-27.5 -81.5q0 -44 23 -71t61 -27q43 0 70 32.5t27 83.5q0 44 -23 70t-62 26zM136 584h320l-9 -80h-321z" />
<glyph unicode="&#x14e;" horiz-adv-x="760" d="M410 680q145 0 234 -88.5t89 -231.5q0 -153 -97 -261q-101 -112 -258 -112q-147 0 -238 93q-86 89 -86 234q0 157 101.5 261.5t254.5 104.5zM413 547q-92 0 -154 -67t-62 -167q0 -87 51 -140t134 -53q96 0 153 74q55 71 55 162q0 86 -49 138.5t-128 52.5zM282 860h81v-7 q0 -32 13 -46.5t42 -14.5q33 0 53.5 15t37.5 53h81q-43 -140 -175 -140q-61 0 -97 33.5t-36 90.5v16z" />
<glyph unicode="&#x14f;" horiz-adv-x="513" d="M260 417q95 0 155.5 -58t60.5 -150q0 -95 -64.5 -158.5t-160.5 -63.5q-98 0 -159 57t-61 149q0 95 66 159.5t163 64.5zM259 308q-41 0 -68.5 -32.5t-27.5 -81.5q0 -44 23 -71t61 -27q43 0 70 32.5t27 83.5q0 44 -23 70t-62 26zM146 623h83q0 -46 11 -63.5t40 -17.5 q30 0 49 18t35 63h84q-44 -153 -173 -153q-59 0 -94 36t-35 98v19z" />
<glyph unicode="&#x150;" horiz-adv-x="760" d="M410 680q145 0 234 -88.5t89 -231.5q0 -153 -97 -261q-101 -112 -258 -112q-147 0 -238 93q-86 89 -86 234q0 157 101.5 261.5t254.5 104.5zM413 547q-92 0 -154 -67t-62 -167q0 -87 51 -140t134 -53q96 0 153 74q55 71 55 162q0 86 -49 138.5t-128 52.5zM493 814 l-140 -97l-55 40l117 118zM679 814l-139 -97l-55 40l117 118z" />
<glyph unicode="&#x151;" horiz-adv-x="513" d="M260 417q95 0 155.5 -58t60.5 -150q0 -95 -64.5 -158.5t-160.5 -63.5q-98 0 -159 57t-61 149q0 95 66 159.5t163 64.5zM259 308q-41 0 -68.5 -32.5t-27.5 -81.5q0 -44 23 -71t61 -27q43 0 70 32.5t27 83.5q0 44 -23 70t-62 26zM344 592l-129 -125l-59 31l102 145z M511 592l-130 -125l-58 31l101 145z" />
<glyph unicode="&#x152;" horiz-adv-x="970" d="M624 611l7 56h345l-15 -123h-212l-18 -148h204l-15 -123h-204l-19 -150h212l-15 -123h-345l7 60q-29 -28 -51 -41q-57 -33 -137 -33q-137 0 -225.5 91t-88.5 231q0 161 100.5 266.5t253.5 105.5q129 0 216 -69zM412 547q-92 0 -153.5 -67t-61.5 -168q0 -87 51 -140 t134 -53q95 0 152 74q55 71 55 162q0 86 -48.5 139t-128.5 53z" />
<glyph unicode="&#x153;" horiz-adv-x="789" d="M645 135l96 -42q-65 -106 -189 -106q-53 0 -88.5 16.5t-65.5 55.5q-34 -39 -70 -55.5t-86 -16.5q-92 0 -152 57.5t-60 145.5q0 96 65 161.5t160 65.5q48 0 84 -19t70 -62q49 47 84.5 64t83.5 17q84 0 130 -55t46 -156v-29h-295q1 -40 12 -59q23 -41 78 -41q54 0 97 58z M255 311q-46 0 -76.5 -33.5t-30.5 -84.5q0 -47 25.5 -73.5t70.5 -26.5q47 0 76 32t29 84q0 46 -25.5 74t-68.5 28zM470 254h172q-2 41 -19 59.5t-52 18.5q-37 0 -60.5 -18.5t-40.5 -59.5z" />
<glyph unicode="&#x154;" horiz-adv-x="574" d="M49 0l82 667h163q114 0 164 -31q71 -43 71 -149q0 -102 -66 -162q-37 -32 -95 -42l167 -283h-155l-164 276l-34 -276h-133zM249 544l-22 -179h42q53 0 79 18q37 27 37 87q0 41 -20 57.5t-69 16.5h-47zM455 792l-160 -75l-52 50l139 108z" />
<glyph unicode="&#x155;" horiz-adv-x="332" d="M30 0l50 404h122l-9 -78q37 55 63.5 73.5t65.5 18.5l21 -1l-15 -126q-27 7 -46 7q-51 0 -75 -26t-32 -90l-22 -182h-123zM358 569l-150 -102l-64 44l124 132z" />
<glyph unicode="&#x156;" horiz-adv-x="574" d="M49 0l82 667h163q114 0 164 -31q71 -43 71 -149q0 -102 -66 -162q-37 -32 -95 -42l167 -283h-155l-164 276l-34 -276h-133zM249 544l-22 -179h42q53 0 79 18q37 27 37 87q0 41 -20 57.5t-69 16.5h-47zM229 -53h105l-95 -161h-74z" />
<glyph unicode="&#x157;" horiz-adv-x="332" d="M30 0l50 404h123l-10 -78q38 55 64.5 73.5t65.5 18.5l21 -1l-16 -126q-27 7 -45 7q-51 0 -75.5 -26t-31.5 -90l-23 -182h-123zM39 -53h100l-92 -154h-72z" />
<glyph unicode="&#x158;" horiz-adv-x="574" d="M49 0l82 667h163q114 0 164 -31q71 -43 71 -149q0 -102 -66 -162q-37 -32 -95 -42l167 -283h-155l-164 276l-34 -276h-133zM249 544l-22 -179h42q53 0 79 18q37 27 37 87q0 41 -20 57.5t-69 16.5h-47zM488 815l-184 -98l-123 108l61 52l81 -66l124 66z" />
<glyph unicode="&#x159;" horiz-adv-x="332" d="M30 0l50 404h122l-9 -78q37 55 63.5 73.5t65.5 18.5l21 -1l-15 -126q-27 7 -46 7q-51 0 -75 -26t-32 -90l-22 -182h-123zM382 578l-177 -111l-121 133l73 45l66 -73l109 73z" />
<glyph unicode="&#x15a;" horiz-adv-x="477" d="M11 50l69 112q78 -42 135 -42q37 0 60 20t23 52q0 23 -14.5 39.5t-64.5 51.5q-70 51 -87 67q-53 49 -53 124q0 88 61 147t153 59q100 0 177 -58l-60 -119q-64 44 -119 44q-31 0 -50 -16.5t-19 -43.5q0 -23 14 -38t66 -48q80 -51 110 -92t30 -101q0 -94 -67.5 -157.5 t-165.5 -63.5q-48 0 -88.5 13t-109.5 50zM445 792l-160 -75l-52 50l139 108z" />
<glyph unicode="&#x15b;" horiz-adv-x="374" d="M9 27l30 97q49 -26 73.5 -34t52.5 -8q48 0 48 34q0 16 -11.5 23.5t-61.5 24.5q-56 20 -77.5 43.5t-21.5 66.5q0 66 43.5 104.5t117.5 38.5q69 0 144 -38l-43 -86q-54 33 -100 33q-48 0 -48 -33q0 -16 11.5 -23t70.5 -24q53 -16 75 -41t22 -71q0 -69 -43 -108t-120 -39 q-83 0 -162 40zM359 569l-150 -102l-64 44l124 132z" />
<glyph unicode="&#x15c;" horiz-adv-x="477" d="M11 50l69 112q78 -42 135 -42q37 0 60 20t23 52q0 23 -14.5 39.5t-64.5 51.5q-70 51 -87 67q-53 49 -53 124q0 88 61 147t153 59q100 0 177 -58l-60 -119q-64 44 -119 44q-31 0 -50 -16.5t-19 -43.5q0 -23 14 -38t66 -48q80 -51 110 -92t30 -101q0 -94 -67.5 -157.5 t-165.5 -63.5q-48 0 -88.5 13t-109.5 50zM170 778l184 99l123 -108l-61 -52l-80 66l-124 -66z" />
<glyph unicode="&#x15d;" horiz-adv-x="374" d="M9 27l30 97q49 -26 73.5 -34t52.5 -8q48 0 48 34q0 16 -11.5 23.5t-61.5 24.5q-56 20 -77.5 43.5t-21.5 66.5q0 66 43.5 104.5t117.5 38.5q69 0 144 -38l-43 -86q-54 33 -100 33q-48 0 -48 -33q0 -16 11.5 -23t70.5 -24q53 -16 75 -41t22 -71q0 -69 -43 -108t-120 -39 q-83 0 -162 40zM75 534l177 111l121 -133l-73 -45l-66 73l-109 -73z" />
<glyph unicode="&#x15e;" horiz-adv-x="477" d="M11 50l69 112q78 -42 135 -42q37 0 60 20t23 52q0 23 -14.5 39.5t-64.5 51.5q-70 51 -87 67q-53 49 -53 124q0 88 61 147t153 59q100 0 177 -58l-60 -119q-64 44 -119 44q-31 0 -50 -16.5t-19 -43.5q0 -23 14 -38t66 -48q80 -51 110 -92t30 -101q0 -94 -67.5 -157.5 t-165.5 -63.5q-48 0 -88.5 13t-109.5 50zM80 -166l106 119l78 -52l-116 -112z" />
<glyph unicode="&#x15f;" horiz-adv-x="374" d="M9 27l30 97q49 -26 73.5 -34t52.5 -8q48 0 48 34q0 16 -11.5 23.5t-61.5 24.5q-56 20 -77.5 43.5t-21.5 66.5q0 66 43.5 104.5t117.5 38.5q69 0 144 -38l-43 -86q-54 33 -100 33q-48 0 -48 -33q0 -16 11.5 -23t70.5 -24q53 -16 75 -41t22 -71q0 -69 -43 -108t-120 -39 q-83 0 -162 40zM49 -166l86 121l72 -45l-101 -115z" />
<glyph unicode="&#x160;" horiz-adv-x="477" d="M11 50l69 112q78 -42 135 -42q37 0 60 20t23 52q0 23 -14.5 39.5t-64.5 51.5q-70 51 -87 67q-53 49 -53 124q0 88 61 147t153 59q100 0 177 -58l-60 -119q-64 44 -119 44q-31 0 -50 -16.5t-19 -43.5q0 -23 14 -38t66 -48q80 -51 110 -92t30 -101q0 -94 -67.5 -157.5 t-165.5 -63.5q-48 0 -88.5 13t-109.5 50zM481 815l-184 -98l-123 108l61 52l81 -66l124 66z" />
<glyph unicode="&#x161;" horiz-adv-x="374" d="M9 27l30 97q49 -26 73.5 -34t52.5 -8q48 0 48 34q0 16 -11.5 23.5t-61.5 24.5q-56 20 -77.5 43.5t-21.5 66.5q0 66 43.5 104.5t117.5 38.5q69 0 144 -38l-43 -86q-54 33 -100 33q-48 0 -48 -33q0 -16 11.5 -23t70.5 -24q53 -16 75 -41t22 -71q0 -69 -43 -108t-120 -39 q-83 0 -162 40zM387 578l-177 -111l-121 133l73 45l66 -73l109 73z" />
<glyph unicode="&#x162;" horiz-adv-x="411" d="M115 0l67 544h-137l15 123h397l-15 -123h-127l-67 -544h-133zM124 -53h105l-95 -161h-74z" />
<glyph unicode="&#x163;" horiz-adv-x="257" d="M36 0l39 310h-52l12 94h51l17 137h123l-17 -137h55l-12 -94h-55l-38 -310h-123zM44 -53h100l-92 -154h-72z" />
<glyph unicode="&#x164;" horiz-adv-x="411" d="M115 0l67 544h-137l15 123h397l-15 -123h-127l-67 -544h-133zM434 815l-184 -98l-123 108l61 52l81 -66l124 66z" />
<glyph unicode="&#x165;" horiz-adv-x="368" d="M36 0l38 310h-51l12 94h51l17 137h122l-16 -137h54l-11 -94h-55l-38 -310h-123zM334 675h100l-97 -173h-72z" />
<glyph unicode="&#x166;" horiz-adv-x="411" d="M44 366l11 93h117l10 85h-137l15 123h398l-15 -123h-128l-10 -85h108l-11 -93h-109l-45 -366h-133l45 366h-116z" />
<glyph unicode="&#x167;" horiz-adv-x="257" d="M6 169l10 80h51l8 61h-52l12 94h51l17 137h123l-17 -137h55l-12 -94h-55l-7 -61h55l-10 -80h-55l-21 -169h-123l21 169h-51z" />
<glyph unicode="&#x168;" horiz-adv-x="664" d="M131 667h133l-45 -368q-7 -59 -7 -79q0 -100 112 -100q86 0 115 69q15 40 24 113l45 365h133l-48 -392q-18 -146 -59 -199q-66 -89 -219 -89q-112 0 -179 52q-60 48 -60 144q0 38 8 106zM285 734h-67q31 120 122 120q30 0 71 -24q36 -20 55 -20q18 0 28 8t20 30h68 q-32 -120 -124 -120q-31 0 -70 20q-44 22 -61 22q-16 0 -24.5 -7.5t-17.5 -28.5z" />
<glyph unicode="&#x169;" horiz-adv-x="505" d="M80 404h122l-26 -215q-3 -18 -3 -32q0 -30 18 -46.5t51 -16.5q37 0 54 22.5t25 79.5l25 208h123l-26 -211q-12 -101 -43 -141q-49 -65 -163 -65q-90 0 -138 41t-48 117q0 17 4 59zM185 491h-67q15 58 45 89t71 31q28 0 71 -24q35 -20 55 -20q17 0 26.5 8t19.5 30h67 q-32 -120 -122 -120q-32 0 -68 20q-43 22 -58 22q-17 0 -25.5 -8t-14.5 -28z" />
<glyph unicode="&#x16a;" horiz-adv-x="664" d="M131 667h133l-45 -368q-7 -59 -7 -79q0 -100 112 -100q86 0 115 69q15 40 24 113l45 365h133l-48 -392q-18 -146 -59 -199q-66 -89 -219 -89q-112 0 -179 52q-60 48 -60 144q0 38 8 106zM234 829h337l-10 -80h-337z" />
<glyph unicode="&#x16b;" horiz-adv-x="505" d="M80 404h122l-26 -215q-3 -18 -3 -32q0 -30 18 -46.5t51 -16.5q37 0 54 22.5t25 79.5l25 208h123l-26 -211q-12 -101 -43 -141q-49 -65 -163 -65q-90 0 -138 41t-48 117q0 17 4 59zM134 584h320l-9 -80h-321z" />
<glyph unicode="&#x16c;" horiz-adv-x="664" d="M131 667h133l-45 -368q-7 -59 -7 -79q0 -100 112 -100q86 0 115 69q15 40 24 113l45 365h133l-48 -392q-18 -146 -59 -199q-66 -89 -219 -89q-112 0 -179 52q-60 48 -60 144q0 38 8 106zM244 860h81v-7q0 -32 13 -46.5t42 -14.5q33 0 53.5 15t37.5 53h81 q-43 -140 -175 -140q-61 0 -97 33.5t-36 90.5v16z" />
<glyph unicode="&#x16d;" horiz-adv-x="505" d="M80 404h122l-26 -215q-3 -18 -3 -32q0 -30 18 -46.5t51 -16.5q37 0 54 22.5t25 79.5l25 208h123l-26 -211q-12 -101 -43 -141q-49 -65 -163 -65q-90 0 -138 41t-48 117q0 17 4 59zM152 623h83q0 -46 11 -63.5t40 -17.5q30 0 49 18t35 63h84q-44 -153 -173 -153 q-59 0 -94 36t-35 98v19z" />
<glyph unicode="&#x16e;" horiz-adv-x="664" d="M131 667h133l-45 -368q-7 -59 -7 -79q0 -100 112 -100q86 0 115 69q15 40 24 113l45 365h133l-48 -392q-18 -146 -59 -199q-66 -89 -219 -89q-112 0 -179 52q-60 48 -60 144q0 38 8 106zM403 913q40 0 69 -29.5t29 -70.5t-29.5 -70.5t-70.5 -29.5q-42 0 -71 29.5 t-29 71.5q0 41 29.5 70t72.5 29zM402 851q-16 0 -27.5 -11t-11.5 -27t11 -27t27 -11t27 11t11 27t-11 27t-26 11z" />
<glyph unicode="&#x16f;" horiz-adv-x="505" d="M80 404h122l-26 -215q-3 -18 -3 -32q0 -30 18 -46.5t51 -16.5q37 0 54 22.5t25 79.5l25 208h123l-26 -211q-12 -101 -43 -141q-49 -65 -163 -65q-90 0 -138 41t-48 117q0 17 4 59zM293 657q39 0 67 -28.5t28 -67.5q0 -40 -28 -68.5t-68 -28.5t-68.5 28t-28.5 69 q0 40 28.5 68t69.5 28zM292 599q-16 0 -27.5 -11t-11.5 -27q0 -17 11.5 -28t27.5 -11t27 11.5t11 27.5t-11 27t-27 11z" />
<glyph unicode="&#x170;" horiz-adv-x="664" d="M131 667h133l-45 -368q-7 -59 -7 -79q0 -100 112 -100q86 0 115 69q15 40 24 113l45 365h133l-48 -392q-18 -146 -59 -199q-66 -89 -219 -89q-112 0 -179 52q-60 48 -60 144q0 38 8 106zM444 814l-140 -97l-55 40l117 118zM630 814l-139 -97l-55 40l117 118z" />
<glyph unicode="&#x171;" horiz-adv-x="505" d="M80 404h122l-26 -215q-3 -18 -3 -32q0 -30 18 -46.5t51 -16.5q37 0 54 22.5t25 79.5l25 208h123l-26 -211q-12 -101 -43 -141q-49 -65 -163 -65q-90 0 -138 41t-48 117q0 17 4 59zM337 592l-129 -125l-59 31l102 145zM504 592l-130 -125l-58 31l101 145z" />
<glyph unicode="&#x172;" horiz-adv-x="664" d="M494 -96l-26 -79q-26 -15 -63 -15q-43 0 -71 23t-28 59q0 56 71 99q-33 -4 -62 -4q-114 0 -179 53q-60 47 -60 143q0 38 8 106l47 378h133l-45 -368q-7 -59 -7 -79q0 -100 112 -100q86 0 115 69q15 40 24 113l45 365h133l-48 -392q-16 -119 -38.5 -166t-89.5 -97 q-71 -55 -71 -93q0 -15 11.5 -24.5t29.5 -9.5q25 0 59 19z" />
<glyph unicode="&#x173;" horiz-adv-x="505" d="M385 -94l-22 -67q-25 -17 -59 -17q-37 0 -62 21.5t-25 53.5q0 56 60 92q-15 -2 -37 -2q-92 0 -140.5 40.5t-48.5 117.5q0 17 4 59l25 200h122l-26 -215q-3 -18 -3 -32q0 -30 18 -46.5t51 -16.5q37 0 54 22.5t25 79.5l25 208h123l-26 -211q-10 -84 -28.5 -119t-73.5 -76 q-51 -41 -51 -72q0 -14 12.5 -23.5t31.5 -9.5q22 0 51 13z" />
<glyph unicode="&#x174;" horiz-adv-x="878" d="M54 667h134l47 -340q6 -43 6 -64q0 -18 -3 -48l8 -2q10 51 31 99l153 355h121l48 -343q5 -34 5 -68q0 -14 -3 -45l9 -1q8 46 35 109l148 348h139l-287 -667h-123l-51 356q-6 42 -6 73q0 13 3 40l-8 2q-8 -45 -28 -94l-163 -377h-122zM346 778l184 99l123 -108l-61 -52 l-80 66l-124 -66z" />
<glyph unicode="&#x175;" horiz-adv-x="735" d="M13 404h121l41 -157q14 -53 14 -88q0 -14 -2 -25l8 -2q13 49 44 104l96 168h98l41 -157q12 -46 12 -90v-24l8 -1q7 36 47 110l93 162h126l-232 -404h-98l-42 162q-16 61 -16 99l1 22l-8 1q-13 -53 -45 -107l-102 -177h-98zM245 534l177 111l121 -133l-73 -45l-66 73 l-109 -73z" />
<glyph unicode="&#x176;" horiz-adv-x="560" d="M189 0l36 293l-178 374h152l100 -229l153 229h162l-256 -374l-36 -293h-133zM194 778l184 99l123 -108l-61 -52l-80 66l-124 -66z" />
<glyph unicode="&#x177;" horiz-adv-x="440" d="M13 404h131l73 -253l118 253h130l-290 -588h-129l96 198zM107 534l177 111l121 -133l-73 -45l-66 73l-109 -73z" />
<glyph unicode="&#x178;" horiz-adv-x="560" d="M189 0l36 293l-178 374h152l100 -229l153 229h162l-256 -374l-36 -293h-133zM253 863q28 0 48.5 -20.5t20.5 -49.5t-20.5 -49.5t-49.5 -20.5t-49.5 20.5t-20.5 50.5q0 28 21 48.5t50 20.5zM446 863q28 0 48.5 -20.5t20.5 -49.5t-20.5 -49.5t-49.5 -20.5t-49.5 20.5 t-20.5 50.5q0 28 21 48.5t50 20.5z" />
<glyph unicode="&#x179;" horiz-adv-x="549" d="M19 0l306 544h-253l15 123h465l-308 -544h272l-16 -123h-481zM461 792l-160 -75l-52 50l139 108z" />
<glyph unicode="&#x17a;" horiz-adv-x="386" d="M1 0l187 306h-156l12 98h333l-186 -306h161l-12 -98h-339zM365 569l-150 -102l-64 44l124 132z" />
<glyph unicode="&#x17b;" horiz-adv-x="549" d="M19 0l306 544h-253l15 123h465l-308 -544h272l-16 -123h-481zM335 863q28 0 48.5 -20.5t20.5 -49.5t-20.5 -49.5t-49.5 -20.5t-49.5 20.5t-20.5 50.5q0 28 21 48.5t50 20.5z" />
<glyph unicode="&#x17c;" horiz-adv-x="386" d="M1 0l187 306h-156l12 98h333l-186 -306h161l-12 -98h-339zM231 620q28 0 48.5 -20.5t20.5 -49.5t-20.5 -49.5t-49.5 -20.5t-49.5 20.5t-20.5 50.5q0 28 21 48.5t50 20.5z" />
<glyph unicode="&#x17d;" horiz-adv-x="549" d="M19 0l306 544h-253l15 123h465l-308 -544h272l-16 -123h-481zM501 815l-184 -98l-123 108l61 52l81 -66l124 66z" />
<glyph unicode="&#x17e;" horiz-adv-x="386" d="M1 0l187 306h-156l12 98h333l-186 -306h161l-12 -98h-339zM396 578l-177 -111l-121 133l73 45l66 -73l109 73z" />
<glyph unicode="&#x17f;" horiz-adv-x="287" d="M42 0l38 310h-50l12 94h50l18 149q13 104 45.5 143.5t105.5 39.5q35 0 75 -9l-13 -106q-17 4 -31 4q-32 0 -43 -15.5t-18 -69.5l-67 -540h-122z" />
<glyph unicode="&#x18f;" horiz-adv-x="798" d="M61 363h577q-2 89 -56.5 145t-139.5 56q-134 0 -217 -128l-107 64q52 83 144.5 133t195.5 50q134 0 223 -87.5t89 -220.5q0 -159 -119.5 -276t-282.5 -117q-136 0 -226 86t-90 217q0 27 9 78zM613 262h-421q13 -56 34 -85q25 -35 67.5 -55.5t89.5 -20.5t95.5 20.5 t80.5 54.5q29 29 54 86z" />
<glyph unicode="&#x192;" horiz-adv-x="567" d="M371 362l-45 -255q-14 -80 -24.5 -117t-26.5 -62q-50 -76 -153 -76q-27 0 -68 7l17 98q29 -3 38 -3q58 0 79 56q10 29 24 108l43 244h-63l15 85h63l20 114q18 103 52 141t108 38q32 0 71 -8l-18 -99q-15 3 -27 3q-36 0 -49 -16t-23 -72l-18 -101h84l-14 -85h-85z" />
<glyph unicode="&#x1a0;" horiz-adv-x="760" d="M667 566l38 93h105l-100 -170q23 -63 23 -130q0 -152 -97 -260q-101 -112 -259 -112q-144 0 -233.5 89.5t-89.5 232.5q0 160 101 265.5t255 105.5q79 0 146.5 -30t110.5 -84zM413 547q-92 0 -154 -67t-62 -167q0 -87 51 -140t134 -53q96 0 153 74q55 71 55 162 q0 86 -49 138.5t-128 52.5z" />
<glyph unicode="&#x1a1;" horiz-adv-x="513" d="M429 345l34 85h100l-93 -167q6 -29 6 -53q0 -95 -64.5 -159t-160.5 -64q-97 0 -158.5 57t-61.5 146q0 97 66 162t164 65q110 0 168 -72zM259 308q-41 0 -68.5 -32.5t-27.5 -81.5q0 -44 23 -71t61 -27q43 0 70 32.5t27 83.5q0 44 -23 70t-62 26z" />
<glyph unicode="&#x1af;" horiz-adv-x="690" d="M131 667h133l-45 -368q-7 -59 -7 -79q0 -100 112 -100q86 0 115 69q15 40 24 113l45 365h133l-48 -392q-18 -146 -59 -199q-66 -89 -219 -89q-112 0 -179 52q-60 48 -60 144q0 38 8 106zM724 686h105l-102 -173h-74z" />
<glyph unicode="&#x1b0;" horiz-adv-x="527" d="M80 404h122l-26 -215q-3 -18 -3 -32q0 -30 18 -46.5t51 -16.5q37 0 54 22.5t25 79.5l25 208h123l-26 -211q-12 -101 -43 -141q-49 -65 -163 -65q-90 0 -138 41t-48 117q0 17 4 59zM551 478h99l-96 -174h-72z" />
<glyph unicode="&#x1cd;" horiz-adv-x="620" d="M-15 0l336 667h129l142 -667h-138l-22 109h-246l-54 -109h-147zM408 232l-33 166q-9 40 -9 73q0 15 2 34l-9 1q-9 -46 -44 -120l-74 -154h167zM554 815l-184 -98l-123 108l61 52l81 -66l124 66z" />
<glyph unicode="&#x1ce;" horiz-adv-x="535" d="M377 404h121l-49 -404h-125l11 57q-36 -38 -67.5 -54t-71.5 -16q-73 0 -118.5 52t-45.5 136q0 104 57.5 173t145.5 69q44 0 73 -15.5t62 -55.5zM272 319q-45 0 -76 -36.5t-31 -89.5q0 -44 23 -70.5t62 -26.5q45 0 75 36t30 91q0 44 -22.5 70t-60.5 26zM471 578l-177 -111 l-121 133l73 45l66 -73l109 73z" />
<glyph unicode="&#x1cf;" horiz-adv-x="287" d="M49 0l82 667h134l-82 -667h-134zM381 815l-184 -98l-123 108l61 52l80 -66l125 66z" />
<glyph unicode="&#x1d0;" horiz-adv-x="239" d="M202 404l-50 -404h-122l49 404h123zM318 578l-177 -111l-121 133l73 45l66 -73l109 73z" />
<glyph unicode="&#x1d2;" horiz-adv-x="513" d="M260 417q95 0 155.5 -58t60.5 -150q0 -95 -64.5 -158.5t-160.5 -63.5q-98 0 -159 57t-61 149q0 95 66 159.5t163 64.5zM259 308q-41 0 -68.5 -32.5t-27.5 -81.5q0 -44 23 -71t61 -27q43 0 70 32.5t27 83.5q0 44 -23 70t-62 26zM443 578l-177 -111l-121 133l73 45l66 -73 l109 73z" />
<glyph unicode="&#x1d3;" horiz-adv-x="664" d="M131 667h133l-45 -368q-7 -59 -7 -79q0 -100 112 -100q86 0 115 69q15 40 24 113l45 365h133l-48 -392q-18 -146 -59 -199q-66 -89 -219 -89q-112 0 -179 52q-60 48 -60 144q0 38 8 106zM564 815l-184 -98l-123 108l61 52l81 -66l124 66z" />
<glyph unicode="&#x1d4;" horiz-adv-x="505" d="M80 404h122l-26 -215q-3 -18 -3 -32q0 -30 18 -46.5t51 -16.5q37 0 54 22.5t25 79.5l25 208h123l-26 -211q-12 -101 -43 -141q-49 -65 -163 -65q-90 0 -138 41t-48 117q0 17 4 59zM450 578l-177 -111l-121 133l73 45l66 -73l109 73z" />
<glyph unicode="&#x1dd;" horiz-adv-x="538" d="M378 237l1 24q0 44 -26 71.5t-66 27.5q-69 0 -111 -64l-120 9q35 65 97.5 102t139.5 37q96 0 154 -53.5t58 -141.5q0 -110 -77 -185.5t-189 -75.5q-93 0 -150 56.5t-57 149.5q0 5 4 43h342zM367 169h-212q2 -45 27.5 -71.5t66.5 -26.5q42 0 74.5 27t43.5 71z" />
<glyph unicode="&#x1e6;" horiz-adv-x="720" d="M369 347h321q-7 -142 -56 -220q-42 -66 -112 -103t-153 -37q-63 0 -122.5 22.5t-100.5 62.5q-92 87 -92 236q0 160 99 266t249 106q183 0 268 -158l-115 -65q-31 47 -67 68.5t-86 21.5q-87 0 -146 -68t-59 -168q0 -85 49.5 -138.5t129.5 -53.5q123 0 147 105h-170z M591 815l-184 -98l-123 108l61 52l81 -66l124 66z" />
<glyph unicode="&#x1e7;" horiz-adv-x="531" d="M371 404h123l-47 -383q-8 -66 -20 -98.5t-38 -59.5q-65 -67 -183 -67q-83 0 -129.5 36.5t-52.5 106.5h123q10 -51 75 -51q62 0 86 62q10 24 19 95q-31 -28 -57 -38.5t-67 -10.5q-82 0 -128.5 47t-46.5 130q0 102 58.5 173t143.5 71q46 0 75 -19t57 -68zM265 306 q-44 0 -74.5 -36t-30.5 -89q0 -44 23 -71t60 -27q44 0 75 37t31 90q0 44 -23 70t-61 26zM468 578l-177 -111l-121 133l73 45l66 -73l109 73z" />
<glyph unicode="&#x1f4;" horiz-adv-x="720" d="M369 347h321q-7 -142 -56 -220q-42 -66 -112 -103t-153 -37q-63 0 -122.5 22.5t-100.5 62.5q-92 87 -92 236q0 160 99 266t249 106q183 0 268 -158l-115 -65q-31 47 -67 68.5t-86 21.5q-87 0 -146 -68t-59 -168q0 -85 49.5 -138.5t129.5 -53.5q123 0 147 105h-170z M560 792l-160 -75l-52 50l139 108z" />
<glyph unicode="&#x1f5;" horiz-adv-x="531" d="M371 404h123l-47 -383q-8 -66 -20 -98.5t-38 -59.5q-65 -67 -183 -67q-83 0 -129.5 36.5t-52.5 106.5h123q10 -51 75 -51q62 0 86 62q10 24 19 95q-31 -28 -57 -38.5t-67 -10.5q-82 0 -128.5 47t-46.5 130q0 102 58.5 173t143.5 71q46 0 75 -19t57 -68zM265 306 q-44 0 -74.5 -36t-30.5 -89q0 -44 23 -71t60 -27q44 0 75 37t31 90q0 44 -23 70t-61 26zM406 569l-150 -102l-64 44l124 132z" />
<glyph unicode="&#x1fa;" horiz-adv-x="620" d="M-15 0l336 667h129l142 -667h-138l-22 109h-246l-54 -109h-147zM408 232l-33 166q-9 40 -9 73q0 15 2 34l-9 1q-9 -46 -44 -120l-74 -154h167zM388 884q40 0 69 -29.5t29 -70.5t-29.5 -70.5t-70.5 -29.5q-42 0 -71 29.5t-29 71.5q0 41 29.5 70t72.5 29zM387 822 q-16 0 -27.5 -11t-11.5 -27t11 -27t27 -11t27 11t11 27t-11 27t-26 11zM449 941l-160 -75l-52 50l139 108z" />
<glyph unicode="&#x1fb;" horiz-adv-x="535" d="M377 404h121l-49 -404h-125l11 57q-36 -38 -67.5 -54t-71.5 -16q-73 0 -118.5 52t-45.5 136q0 104 57.5 173t145.5 69q44 0 73 -15.5t62 -55.5zM272 319q-45 0 -76 -36.5t-31 -89.5q0 -44 23 -70.5t62 -26.5q45 0 75 36t30 91q0 44 -22.5 70t-60.5 26zM314 657 q39 0 67 -28.5t28 -67.5q0 -40 -28 -68.5t-68 -28.5q-41 0 -69 28t-28 69q0 40 28.5 68t69.5 28zM313 599q-16 0 -27.5 -11t-11.5 -27q0 -17 11 -28t28 -11q16 0 27 11.5t11 27.5t-11 27t-27 11zM384 743l-150 -102l-64 44l124 132z" />
<glyph unicode="&#x1fc;" horiz-adv-x="894" d="M-15 0l345 667h352l31 -123h-221l33 -149h224l30 -123h-225l34 -149h228l30 -123h-368l-24 107h-267l-57 -107h-145zM427 230l-41 186q-8 35 -8 68q0 16 1 30l-7 1q-6 -39 -32 -92l-96 -193h183zM607 792l-160 -75l-52 50l139 108z" />
<glyph unicode="&#x1fd;" horiz-adv-x="753" d="M608 131l90 -34q-68 -110 -184 -110q-98 0 -156 65q-38 -35 -75 -50t-87 -15q-82 0 -130.5 38t-48.5 101q0 62 46.5 101.5t118.5 39.5q83 0 140 -56q1 10 1 28q0 49 -33 71q-35 22 -83 22q-45 0 -122 -29l11 91q64 23 125 23q62 0 101 -18.5t63 -58.5q35 42 70 59.5 t83 17.5q82 0 131.5 -53.5t49.5 -142.5q0 -22 -2 -44h-296q1 -39 10 -58q19 -42 79 -42q31 0 52.5 12t45.5 42zM442 252h162q-1 41 -16 59t-49 18t-55.5 -17t-41.5 -60zM215 176q-40 0 -64.5 -14t-24.5 -36t24 -35.5t63 -13.5q38 0 63 14.5t25 37.5q0 22 -23 34.5t-63 12.5z M534 569l-150 -102l-64 44l124 132z" />
<glyph unicode="&#x1fe;" horiz-adv-x="773" d="M27 65l77 72q-25 46 -34 83t-9 88q0 161 101 266.5t255 105.5q122 0 211 -67l80 72l67 -75l-81 -73q26 -49 36 -87t10 -89q0 -154 -97 -262q-101 -112 -259 -112q-64 0 -114 17t-101 57l-79 -72zM217 235l303 285q-46 27 -99 27q-94 0 -155.5 -67t-61.5 -171 q0 -38 13 -74zM582 439l-304 -285q44 -34 113 -34q94 0 151 74q55 71 55 163q0 38 -15 82zM579 792l-160 -75l-52 50l139 108z" />
<glyph unicode="&#x1ff;" horiz-adv-x="540" d="M8 36l61 53q-25 47 -25 100q0 98 65.5 163t163.5 65q77 0 133 -39l63 54l52 -62l-61 -51q29 -54 29 -111q0 -94 -64.5 -157.5t-159.5 -63.5q-85 0 -142 43l-67 -56zM179 163l143 130q-22 15 -50 15q-42 0 -69 -32.5t-27 -82.5q0 -11 3 -30zM353 247l-147 -132 q26 -19 55 -19q42 0 69 33t27 84q0 15 -4 34zM440 569l-150 -102l-64 44l124 132z" />
<glyph unicode="&#x218;" horiz-adv-x="477" d="M11 50l69 112q78 -42 135 -42q37 0 60 20t23 52q0 23 -14.5 39.5t-64.5 51.5q-70 51 -87 67q-53 49 -53 124q0 88 61 147t153 59q100 0 177 -58l-60 -119q-64 44 -119 44q-31 0 -50 -16.5t-19 -43.5q0 -23 14 -38t66 -48q80 -51 110 -92t30 -101q0 -94 -67.5 -157.5 t-165.5 -63.5q-48 0 -88.5 13t-109.5 50zM153 -53h105l-95 -161h-74z" />
<glyph unicode="&#x219;" horiz-adv-x="374" d="M9 27l30 97q49 -26 73.5 -34t52.5 -8q48 0 48 34q0 16 -11.5 23.5t-61.5 24.5q-56 20 -77.5 43.5t-21.5 66.5q0 66 43.5 104.5t117.5 38.5q69 0 144 -38l-43 -86q-54 33 -100 33q-48 0 -48 -33q0 -16 11.5 -23t70.5 -24q53 -16 75 -41t22 -71q0 -69 -43 -108t-120 -39 q-83 0 -162 40zM100 -53h100l-92 -154h-72z" />
<glyph unicode="&#x21a;" horiz-adv-x="411" d="M115 0l67 544h-137l15 123h397l-15 -123h-127l-67 -544h-133zM124 -53h105l-95 -161h-74z" />
<glyph unicode="&#x21b;" horiz-adv-x="257" d="M36 0l39 310h-52l12 94h51l17 137h123l-17 -137h55l-12 -94h-55l-38 -310h-123zM44 -53h100l-92 -154h-72z" />
<glyph unicode="&#x226;" horiz-adv-x="620" d="M-15 0l336 667h129l142 -667h-138l-22 109h-246l-54 -109h-147zM408 232l-33 166q-9 40 -9 73q0 15 2 34l-9 1q-9 -46 -44 -120l-74 -154h167zM393 863q28 0 48.5 -20.5t20.5 -49.5t-20.5 -49.5t-49.5 -20.5t-49.5 20.5t-20.5 50.5q0 28 21 48.5t50 20.5z" />
<glyph unicode="&#x227;" horiz-adv-x="535" d="M377 404h121l-49 -404h-125l11 57q-36 -38 -67.5 -54t-71.5 -16q-73 0 -118.5 52t-45.5 136q0 104 57.5 173t145.5 69q44 0 73 -15.5t62 -55.5zM272 319q-45 0 -76 -36.5t-31 -89.5q0 -44 23 -70.5t62 -26.5q45 0 75 36t30 91q0 44 -22.5 70t-60.5 26zM310 620 q28 0 48.5 -20.5t20.5 -49.5t-20.5 -49.5t-49.5 -20.5t-49.5 20.5t-20.5 50.5q0 28 21 48.5t50 20.5z" />
<glyph unicode="&#x259;" horiz-adv-x="538" d="M378 237l1 24q0 44 -26 71.5t-66 27.5q-69 0 -111 -64l-120 9q35 65 97.5 102t139.5 37q96 0 154 -53.5t58 -141.5q0 -110 -77 -185.5t-189 -75.5q-93 0 -150 56.5t-57 149.5q0 5 4 43h342zM367 169h-212q2 -45 27.5 -71.5t66.5 -26.5q42 0 74.5 27t43.5 71z" />
<glyph unicode="&#x2bb;" d="M338 477h-100l92 153h72z" />
<glyph unicode="&#x2bc;" horiz-adv-x="235" d="M253 680l-117 -276h-68l59 276h126z" />
<glyph unicode="&#x2c6;" d="M137 534l177 111l121 -133l-73 -45l-66 73l-109 -73z" />
<glyph unicode="&#x2c7;" d="M460 578l-177 -111l-121 133l73 45l66 -73l109 73z" />
<glyph unicode="&#x2c9;" d="M140 584h320l-9 -80h-321z" />
<glyph unicode="&#x2d8;" d="M149 623h83q0 -46 11 -63.5t40 -17.5q30 0 49 18t35 63h84q-44 -153 -173 -153q-59 0 -94 36t-35 98v19z" />
<glyph unicode="&#x2d9;" d="M290 620q28 0 48.5 -20.5t20.5 -49.5t-20.5 -49.5t-49.5 -20.5t-49.5 20.5t-20.5 50.5q0 28 21 48.5t50 20.5z" />
<glyph unicode="&#x2da;" d="M293 657q39 0 67 -28.5t28 -67.5q0 -40 -28 -68.5t-68 -28.5t-68.5 28t-28.5 69q0 40 28.5 68t69.5 28zM292 599q-16 0 -27.5 -11t-11.5 -27q0 -17 11.5 -28t27.5 -11t27 11.5t11 27.5t-11 27t-27 11z" />
<glyph unicode="&#x2db;" d="M253 0h58q-72 -44 -72 -81q0 -14 12.5 -23.5t31.5 -9.5q22 0 51 13l-23 -67q-24 -17 -59 -17q-36 0 -61 22t-25 53q0 61 87 110z" />
<glyph unicode="&#x2dc;" d="M178 491h-67q15 58 45 89t71 31q28 0 71 -24q35 -20 55 -20q17 0 26.5 8t19.5 30h67q-32 -120 -122 -120q-32 0 -68 20q-43 22 -58 22q-16 0 -25 -8t-15 -28z" />
<glyph unicode="&#x2dd;" d="M347 592l-129 -125l-59 31l102 145zM514 592l-130 -125l-58 31l101 145z" />
<glyph unicode="&#x37e;" horiz-adv-x="267" d="M-7 -164l68 284h129l-129 -284h-68zM160 370q31 0 53 -22.5t22 -53.5q0 -32 -22 -54.5t-54 -22.5t-54.5 22.5t-22.5 54.5q0 31 23 53.5t55 22.5z" />
<glyph unicode="&#x384;" d="M240 512l10 210h121l-42 -210h-89z" />
<glyph unicode="&#x385;" d="M151 663q25 0 41.5 -16.5t16.5 -41.5q0 -29 -22 -51.5t-51 -22.5q-25 0 -41.5 16.5t-16.5 42.5q0 28 22 50.5t51 22.5zM455 663q25 0 41.5 -16.5t16.5 -41.5q0 -29 -22.5 -51.5t-51.5 -22.5q-25 0 -41.5 16.5t-16.5 42.5q0 29 22.5 51t51.5 22zM241 512l10 210h120 l-42 -210h-88z" />
<glyph unicode="&#x386;" horiz-adv-x="670" d="M461 141h-272l-78 -141h-138l365 667h109l193 -667h-139zM434 246l-65 240l-126 -240h191zM86 498l12 224h120l-43 -224h-89z" />
<glyph unicode="&#x388;" horiz-adv-x="639" d="M61 498l12 224h120l-43 -224h-89zM631 554h-240l-18 -148h230l-14 -113h-230l-22 -180h239l-13 -113h-370l82 667h369z" />
<glyph unicode="&#x389;" horiz-adv-x="840" d="M61 498l12 224h120l-43 -224h-89zM373 406h282l32 261h130l-82 -667h-130l36 293h-282l-36 -293h-130l82 667h130z" />
<glyph unicode="&#x38a;" horiz-adv-x="428" d="M61 498l12 224h120l-43 -224h-89zM405 667l-82 -667h-130l82 667h130z" />
<glyph unicode="&#x38c;" horiz-adv-x="921" d="M61 498l12 224h120l-43 -224h-89zM579 682q137 0 226 -86.5t89 -219.5q0 -159 -120 -275t-286 -116q-136 0 -224 86.5t-88 220.5q0 157 120 273.5t283 116.5zM563 563q-100 0 -176 -77.5t-76 -178.5q0 -89 55.5 -146t140.5 -57q100 0 176 78t76 181q0 86 -56 143t-140 57 z" />
<glyph unicode="&#x38e;" horiz-adv-x="751" d="M61 498l12 224h120l-43 -224h-89zM402 306l-185 361h153l116 -232l170 232h155l-279 -361l-37 -306h-130z" />
<glyph unicode="&#x38f;" horiz-adv-x="906" d="M61 498l12 224h120l-43 -224h-89zM127 0l14 113h162l3 21q-132 59 -132 201q0 130 90 228q110 119 304 119q148 0 232.5 -72.5t84.5 -197.5q0 -117 -72 -198q-42 -49 -118 -80l-3 -21h163l-14 -113h-292l20 163q73 20 124 74q55 58 55 149q0 84 -51.5 130.5t-144.5 46.5 q-138 0 -205 -100q-41 -63 -41 -138q0 -57 36 -101t97 -61l-20 -163h-292z" />
<glyph unicode="&#x390;" horiz-adv-x="243" d="M31 0l53 433h124l-53 -433h-124zM22 663q26 0 42 -16.5t16 -41.5q0 -29 -22 -51.5t-51 -22.5q-25 0 -41.5 16.5t-16.5 42.5q0 28 22.5 50.5t50.5 22.5zM326 663q25 0 41.5 -16.5t16.5 -41.5q0 -29 -22.5 -51.5t-51.5 -22.5q-25 0 -41.5 16.5t-16.5 42.5q0 29 22.5 51 t51.5 22zM112 512l10 210h120l-42 -210h-88z" />
<glyph unicode="&#x391;" horiz-adv-x="670" d="M461 141h-272l-78 -141h-138l365 667h109l193 -667h-139zM434 246l-65 240l-126 -240h191z" />
<glyph unicode="&#x392;" horiz-adv-x="570" d="M49 0l82 667h165q112 0 159 -40q44 -38 44 -112q0 -59 -28 -104q-19 -31 -63 -55q56 -12 82 -42q34 -39 34 -102q0 -79 -53 -138q-67 -74 -197 -74h-225zM227 389h37q70 0 95 42q17 26 17 57q0 74 -89 74h-39zM192 105h56q83 0 114 34q28 30 28 70q0 41 -30 62 q-28 19 -97 19h-48z" />
<glyph unicode="&#x393;" horiz-adv-x="478" d="M49 0l82 667h385l-14 -113h-255l-68 -554h-130z" />
<glyph unicode="&#x394;" horiz-adv-x="650" d="M-27 0l350 667h110l187 -667h-647zM165 113h291l-101 373z" />
<glyph unicode="&#x395;" horiz-adv-x="495" d="M486 554h-239l-18 -148h230l-14 -113h-230l-22 -180h239l-14 -113h-369l82 667h369z" />
<glyph unicode="&#x396;" horiz-adv-x="584" d="M222 113h308l-14 -113h-523l394 554h-275l13 113h491z" />
<glyph unicode="&#x397;" horiz-adv-x="695" d="M229 406h282l32 261h130l-82 -667h-130l36 293h-282l-36 -293h-130l82 667h130z" />
<glyph unicode="&#x398;" horiz-adv-x="811" d="M278 294l12 101h272l-13 -101h-271zM462 682q140 0 230.5 -87t90.5 -220q0 -159 -122 -274.5t-289 -115.5q-139 0 -228.5 86.5t-89.5 220.5q0 103 55.5 193t150 143.5t202.5 53.5zM446 563q-102 0 -179.5 -77t-77.5 -178q0 -89 57 -146.5t145 -57.5q102 0 179.5 77.5 t77.5 180.5q0 86 -57.5 143.5t-144.5 57.5z" />
<glyph unicode="&#x399;" horiz-adv-x="283" d="M261 667l-82 -667h-130l82 667h130z" />
<glyph unicode="&#x39a;" horiz-adv-x="622" d="M49 0l82 667h130l-39 -313l282 313h153l-307 -325l246 -342h-163l-215 318l-39 -318h-130z" />
<glyph unicode="&#x39b;" horiz-adv-x="611" d="M-30 0l336 667h110l170 -667h-140l-108 486l-230 -486h-138z" />
<glyph unicode="&#x39c;" horiz-adv-x="868" d="M13 0l204 667h96l124 -424l237 424h97l27 -667h-131l-9 411l-231 -411h-43l-123 411l-117 -411h-131z" />
<glyph unicode="&#x39d;" horiz-adv-x="779" d="M49 0l82 667h100l341 -449l55 449h130l-82 -667h-100l-341 451l-55 -451h-130z" />
<glyph unicode="&#x39e;" horiz-adv-x="599" d="M83 554l14 113h513l-14 -113h-513zM66 293l14 113h483l-14 -113h-483zM15 0l14 113h513l-14 -113h-513z" />
<glyph unicode="&#x39f;" horiz-adv-x="799" d="M457 682q137 0 226 -86.5t89 -219.5q0 -159 -120 -275t-286 -116q-136 0 -224 86.5t-88 220.5q0 157 120 273.5t283 116.5zM441 563q-100 0 -176 -77.5t-76 -178.5q0 -89 55.5 -146t140.5 -57q100 0 176 78t76 181q0 86 -56 143t-140 57z" />
<glyph unicode="&#x3a0;" horiz-adv-x="702" d="M49 0l82 667h549l-82 -667h-130l68 554h-289l-68 -554h-130z" />
<glyph unicode="&#x3a1;" horiz-adv-x="535" d="M209 247l-30 -247h-130l82 667h194q65 0 103.5 -11.5t66.5 -39.5q50 -52 50 -131q0 -84 -50 -152q-66 -86 -201 -86h-85zM223 360h53q65 0 99.5 28.5t34.5 81.5q0 45 -27.5 64.5t-90.5 19.5h-45z" />
<glyph unicode="&#x3a3;" horiz-adv-x="540" d="M-7 0l246 361l-151 306h459l-14 -113h-260l108 -193l-177 -248h284l-14 -113h-481z" />
<glyph unicode="&#x3a4;" horiz-adv-x="443" d="M258 0h-130l68 554h-149l14 113h429l-14 -113h-150z" />
<glyph unicode="&#x3a5;" horiz-adv-x="583" d="M234 306l-185 361h154l115 -232l170 232h155l-279 -361l-37 -306h-130z" />
<glyph unicode="&#x3a6;" horiz-adv-x="926" d="M369 -55l12 96q-120 7 -186 39q-141 64 -141 217q0 80 41 150.5t113 112.5q92 54 244 63l12 97h117l-12 -97q122 -7 188 -39q141 -64 141 -217q0 -80 -41 -150.5t-113 -112.5q-92 -54 -246 -63l-12 -96h-117zM555 504l-42 -344q102 7 161 41q90 54 90 151q0 94 -98 132 q-37 14 -111 20zM396 160l42 344q-102 -7 -160 -41q-90 -54 -90 -151q0 -94 98 -132q36 -14 110 -20z" />
<glyph unicode="&#x3a7;" horiz-adv-x="625" d="M258 353l-160 314h156l92 -207l148 207h156l-243 -314l184 -353h-153l-120 244l-185 -244h-154z" />
<glyph unicode="&#x3a8;" horiz-adv-x="830" d="M324 0l18 145q-134 10 -189 42q-88 52 -88 164q0 29 4 54l32 262h130l-30 -245q-3 -24 -3 -47q0 -71 59 -95q34 -13 99 -16l50 403h126l-49 -403q99 2 142 37t52 121l30 245h130l-32 -262q-15 -130 -95 -191.5t-242 -68.5l-18 -145h-126z" />
<glyph unicode="&#x3a9;" horiz-adv-x="783" d="M4 0l14 113h162l3 21q-132 59 -132 201q0 130 90 228q110 119 305 119q147 0 232 -72.5t85 -197.5q0 -115 -72 -198q-42 -49 -119 -80l-3 -21h163l-14 -113h-292l20 163q72 19 125 74q55 58 55 149q0 84 -52 130.5t-145 46.5q-137 0 -205 -100q-41 -63 -41 -138 q0 -57 36 -101t97 -61l-20 -163h-292z" />
<glyph unicode="&#x3aa;" horiz-adv-x="283" d="M260 667l-82 -667h-130l82 667h130zM116 877q28 0 46 -18t18 -45q0 -32 -24.5 -56.5t-56.5 -24.5q-28 0 -46 18t-18 46q0 32 24.5 56t56.5 24zM326 877q28 0 46 -18t18 -45q0 -32 -24.5 -56.5t-56.5 -24.5q-28 0 -46 18t-18 46q0 32 24.5 56t56.5 24z" />
<glyph unicode="&#x3ab;" horiz-adv-x="583" d="M234 306l-185 361h154l115 -232l170 232h155l-279 -361l-37 -306h-130zM266 877q28 0 46 -18t18 -45q0 -32 -24.5 -56.5t-56.5 -24.5q-28 0 -46 18t-18 46q0 32 24.5 56t56.5 24zM477 877q28 0 46 -18t18 -45q0 -32 -24.5 -56.5t-56.5 -24.5q-28 0 -46 18t-18 46 q0 32 24.5 56t56.5 24z" />
<glyph unicode="&#x3ac;" horiz-adv-x="569" d="M414 433h121l-53 -433h-121l7 56q-64 -70 -151 -70q-83 0 -134.5 55.5t-51.5 143.5q0 107 71.5 184.5t171.5 77.5q82 0 133 -70zM294 338q-55 0 -96 -41t-41 -95q0 -46 30.5 -76.5t76.5 -30.5q55 0 96 41t41 95q0 47 -30.5 77t-76.5 30zM274 512l10 210h121l-42 -210h-89 z" />
<glyph unicode="&#x3ad;" horiz-adv-x="445" d="M411 110l-13 -103q-80 -21 -170 -21q-205 0 -205 122q0 41 22.5 73t61.5 47q-49 28 -49 79q0 58 47 97q52 44 167 44q80 0 166 -19l-13 -104q-68 18 -136 18q-105 0 -105 -44q0 -34 89 -34h89l-11 -90h-91q-106 0 -106 -44q0 -39 102 -39q59 0 155 18zM247 512l10 210 h121l-42 -210h-89z" />
<glyph unicode="&#x3ae;" horiz-adv-x="534" d="M30 0l53 433h122l-7 -55q34 36 65.5 50t78.5 14q65 0 103.5 -33.5t38.5 -90.5q0 -21 -3 -45l-62 -504h-122l57 462q4 32 4 42q0 68 -70 68q-94 0 -109 -115l-28 -226h-121zM269 512l10 210h121l-42 -210h-89z" />
<glyph unicode="&#x3af;" horiz-adv-x="243" d="M32 0l53 433h124l-53 -433h-124zM112 512l10 210h121l-42 -210h-89z" />
<glyph unicode="&#x3b0;" horiz-adv-x="520" d="M81 433h122l-30 -239q0 -6 -1 -15.5t-1.5 -16t-0.5 -9.5q0 -65 73 -65q51 0 74 31q16 22 22 75l29 239h121l-30 -246q-12 -100 -57 -145q-59 -59 -172 -59q-89 0 -136 37t-47 107q0 16 4 60zM161 663q25 0 41.5 -16.5t16.5 -41.5q0 -29 -22 -51.5t-51 -22.5 q-25 0 -41.5 16.5t-16.5 42.5q0 28 22 50.5t51 22.5zM465 663q25 0 41.5 -16.5t16.5 -41.5q0 -29 -22.5 -51.5t-51.5 -22.5q-25 0 -41.5 16.5t-16.5 42.5q0 29 22.5 51t51.5 22zM251 512l10 210h120l-42 -210h-88z" />
<glyph unicode="&#x3b1;" horiz-adv-x="569" d="M414 433h121l-53 -433h-121l7 56q-64 -70 -151 -70q-83 0 -134.5 55.5t-51.5 143.5q0 107 71.5 184.5t171.5 77.5q82 0 133 -70zM294 338q-55 0 -96 -41t-41 -95q0 -46 30.5 -76.5t76.5 -30.5q55 0 96 41t41 95q0 47 -30.5 77t-76.5 30z" />
<glyph unicode="&#x3b2;" horiz-adv-x="564" d="M3 -231l84 685q18 146 64 203q66 84 192 84q89 0 137 -44t48 -125q0 -61 -28.5 -109.5t-80.5 -74.5q48 -16 69 -42q37 -43 37 -113q0 -103 -69 -174.5t-167 -71.5q-77 0 -132 47l-33 -265h-121zM212 485l-43 -355q38 -37 92 -37q59 0 99 39t40 97q0 66 -56 91 q-25 11 -72 10l12 100q59 2 91.5 32.5t32.5 84.5q0 41 -21.5 64.5t-59.5 23.5q-60 0 -90 -51q-17 -32 -25 -99z" />
<glyph unicode="&#x3b3;" horiz-adv-x="473" d="M119 -231l17 142q8 66 8 109q0 161 -119 413h135q61 -152 67 -276q22 68 61 142l70 134h133l-120 -197q-54 -90 -77.5 -157t-36.5 -168l-17 -142h-121z" />
<glyph unicode="&#x3b4;" horiz-adv-x="562" d="M264 425l-42 44q-45 47 -45 104q0 75 54 115q31 24 74.5 32.5t132.5 8.5h49l-12 -105h-82q-50 0 -71 -11t-21 -38q0 -28 40 -65l89 -81q55 -50 75.5 -90t20.5 -93q0 -92 -57 -165q-35 -45 -92 -70t-125 -25q-101 0 -159.5 53t-58.5 144q0 66 28 120.5t77 84.5 q51 31 125 37zM356 319l-13 13q-27 4 -46 4q-59 0 -98 -39t-39 -99q0 -48 28 -75.5t77 -27.5q58 0 96.5 38.5t38.5 96.5q0 46 -44 89z" />
<glyph unicode="&#x3b5;" horiz-adv-x="445" d="M411 110l-13 -103q-80 -21 -170 -21q-205 0 -205 122q0 41 22.5 73t61.5 47q-49 28 -49 79q0 58 47 97q52 44 167 44q80 0 166 -19l-13 -104q-68 18 -136 18q-105 0 -105 -44q0 -34 89 -34h89l-11 -90h-91q-106 0 -106 -44q0 -39 102 -39q59 0 155 18z" />
<glyph unicode="&#x3b6;" horiz-adv-x="388" d="M95 624l13 105h354q-146 -221 -221 -346q-83 -135 -83 -212q0 -35 21 -53t74 -28q60 -11 82 -29q28 -25 28 -71q0 -52 -32 -95t-116 -101l-58 73q53 33 70 51.5t17 42.5q0 18 -15 26q-14 7 -54 12q-79 11 -113.5 44.5t-34.5 97.5q0 82 52.5 180.5t203.5 302.5h-188z" />
<glyph unicode="&#x3b7;" horiz-adv-x="534" d="M30 0l53 433h122l-7 -55q34 36 65.5 50t78.5 14q65 0 103.5 -33.5t38.5 -90.5q0 -21 -3 -45l-62 -504h-122l57 462q4 32 4 42q0 68 -70 68q-94 0 -109 -115l-28 -226h-121z" />
<glyph unicode="&#x3b8;" horiz-adv-x="560" d="M338 746q49 0 82 -18t65 -61q65 -90 65 -229q0 -170 -78 -308q-40 -69 -96.5 -107t-118.5 -38q-112 0 -173 126q-37 80 -37 181q0 121 39.5 226t106.5 166.5t145 61.5zM412 312h-240v-21q0 -101 25 -148q23 -47 66 -47q48 0 95 72q31 48 54 144zM185 419h240 q0 107 -18 153q-25 63 -74 63q-45 0 -87 -61t-61 -155z" />
<glyph unicode="&#x3b9;" horiz-adv-x="243" d="M32 0l53 433h124l-53 -433h-124z" />
<glyph unicode="&#x3ba;" horiz-adv-x="481" d="M30 0l53 433h122l-24 -195l176 195h132l-197 -208l163 -225h-140l-139 197l-25 -197h-121z" />
<glyph unicode="&#x3bb;" horiz-adv-x="461" d="M-31 0l217 426l-88 303h128l214 -729h-130l-80 275l-125 -275h-136z" />
<glyph unicode="&#x3bc;" horiz-adv-x="527" d="M3 -231l82 664h121l-27 -218q-2 -26 -2 -37q0 -42 17.5 -61t55.5 -19q44 0 67 27t30 90l27 218h121l-53 -433h-106l7 57q-20 -36 -42 -49t-63 -13q-60 0 -82 35l-32 -261h-121z" />
<glyph unicode="&#x3bd;" horiz-adv-x="502" d="M163 433l84 -245l143 245h136l-277 -442h-55l-167 442h136z" />
<glyph unicode="&#x3be;" horiz-adv-x="415" d="M98 624l13 105h358l-31 -22q-108 -73 -153 -119q-54 -56 -54 -101q0 -23 18 -42t49 -27q30 -8 99 -11l-59 -94q-28 5 -47 5q-58 0 -94 -37t-36 -96q0 -41 22 -61t79 -30q63 -11 84 -30q30 -24 30 -73q0 -58 -43 -110q-29 -35 -105 -87l-58 73q53 33 70.5 51.5t17.5 42.5 q0 20 -13 27t-59 14q-85 12 -120 48.5t-35 111.5q0 149 140 220q-35 16 -49 34t-14 49q0 98 112 159h-122z" />
<glyph unicode="&#x3bf;" horiz-adv-x="565" d="M309 447q101 0 161 -54.5t60 -146.5q0 -111 -80 -185.5t-199 -74.5q-100 0 -159.5 54.5t-59.5 146.5q0 111 79.5 185.5t197.5 74.5zM296 338q-55 0 -96.5 -41t-41.5 -94q0 -47 31 -77.5t78 -30.5q55 0 96 41t41 95q0 46 -31 76.5t-77 30.5z" />
<glyph unicode="&#x3c0;" horiz-adv-x="568" d="M66 0l41 328h-73l13 105h524l-12 -105h-73l-40 -328h-123l41 328h-135l-41 -328h-122z" />
<glyph unicode="&#x3c1;" horiz-adv-x="575" d="M126 -231h-121l52 423q11 94 51 156q67 103 216 103q103 0 159 -52.5t56 -149.5q0 -107 -72 -185t-171 -78q-87 0 -136 64zM307 341q-56 0 -94 -39.5t-38 -97.5q0 -48 29 -78t76 -30q53 0 93 41t40 96q0 49 -29 78.5t-77 29.5z" />
<glyph unicode="&#x3c2;" horiz-adv-x="423" d="M414 414l-15 -122q-53 46 -109 46t-92 -42t-36 -108q0 -43 21 -63t79 -30q65 -13 84 -30q30 -25 30 -74q0 -56 -43 -110q-29 -34 -104 -87l-59 73q53 33 70.5 51.5t17.5 42.5q0 19 -12.5 26t-59.5 15q-85 13 -120 48.5t-35 109.5q0 107 56 190q65 97 189 97q73 0 138 -33 z" />
<glyph unicode="&#x3c3;" horiz-adv-x="572" d="M603 433l-13 -105h-84l4 -9q19 -39 19 -77q0 -110 -79 -183t-198 -73q-98 0 -158 54t-60 143q0 100 64 175q77 89 212 89q28 0 100 -7q65 -7 108 -7h85zM374 328q-34 9 -70 9q-62 0 -101.5 -40t-39.5 -102q0 -47 27.5 -73.5t75.5 -26.5q63 0 101 40t38 107q0 40 -31 86z " />
<glyph unicode="&#x3c4;" horiz-adv-x="380" d="M100 0l40 328h-120l13 105h364l-13 -105h-120l-40 -328h-124z" />
<glyph unicode="&#x3c5;" horiz-adv-x="520" d="M81 433h122l-30 -239q0 -6 -1 -15.5t-1.5 -16t-0.5 -9.5q0 -65 73 -65q51 0 74 31q16 22 22 75l29 239h121l-30 -246q-12 -100 -57 -145q-59 -59 -172 -59q-89 0 -136 37t-47 107q0 16 4 60z" />
<glyph unicode="&#x3c6;" horiz-adv-x="703" d="M235 -231l27 220q-110 9 -169 59t-59 134q0 159 167 225l40 -78q-9 -8 -14 -10q-27 -20 -36 -29t-18 -26q-16 -28 -16 -62q0 -47 30.5 -76t86.5 -34l42 342q38 11 82 11q128 0 198 -51.5t70 -146.5q0 -112 -77 -181.5t-209 -76.5l-27 -220h-118zM423 341l-30 -249 q70 5 110.5 42.5t40.5 98.5q0 48 -32.5 77t-88.5 31z" />
<glyph unicode="&#x3c7;" horiz-adv-x="473" d="M160 124l-123 309h133l76 -201l107 201h131l-196 -309l141 -355h-133l-89 245l-132 -245h-137z" />
<glyph unicode="&#x3c8;" horiz-adv-x="727" d="M248 -231l28 224h-16q-111 2 -160 39t-49 121q0 35 6 75l25 205h124l-27 -216q-3 -27 -3 -48q0 -38 21 -54t73 -16h19l41 334h118l-41 -334h19q62 0 87 24q24 23 33 94l26 216h124l-25 -205q-12 -128 -71.5 -181t-189.5 -54h-16l-27 -224h-119z" />
<glyph unicode="&#x3c9;" horiz-adv-x="725" d="M317 304h109l-10 -80q-4 -32 -4 -55q0 -28 7 -45q5 -12 18.5 -20.5t26.5 -8.5q44 0 73 48t29 121q0 58 -21 105q-7 16 -41 64h120q35 -45 50 -85t15 -90q0 -118 -63 -195t-159 -77q-94 0 -126 72q-49 -72 -143 -72q-77 0 -121 50t-44 136q0 87 41 164q16 29 30 47t47 50 h120q-37 -39 -47.5 -51.5t-22.5 -35.5q-41 -73 -41 -152q0 -44 18 -71.5t48 -27.5q35 0 54.5 30t27.5 99z" />
<glyph unicode="&#x3ca;" horiz-adv-x="243" d="M32 0l53 433h124l-53 -433h-124zM71 658q27 0 45 -18t18 -45q0 -32 -24.5 -56.5t-56.5 -24.5q-27 0 -45 18t-18 46q0 32 24.5 56t56.5 24zM278 658q28 0 46 -18t18 -45q0 -32 -24.5 -56.5t-56.5 -24.5q-28 0 -46 18t-18 46q0 32 24.5 56t56.5 24z" />
<glyph unicode="&#x3cb;" horiz-adv-x="520" d="M81 433h122l-30 -239q0 -6 -1 -15.5t-1.5 -16t-0.5 -9.5q0 -65 73 -65q51 0 74 31q16 22 22 75l29 239h121l-30 -246q-12 -100 -57 -145q-59 -59 -172 -59q-89 0 -136 37t-47 107q0 16 4 60zM209 658q27 0 45 -18t18 -45q0 -32 -24.5 -56.5t-56.5 -24.5q-27 0 -45 18 t-18 46q0 32 24.5 56t56.5 24zM417 658q27 0 45 -18t18 -45q0 -32 -24.5 -56.5t-56.5 -24.5q-27 0 -45 18t-18 46q0 32 24.5 56t56.5 24z" />
<glyph unicode="&#x3cc;" horiz-adv-x="565" d="M309 447q101 0 161 -54.5t60 -146.5q0 -111 -80 -185.5t-199 -74.5q-100 0 -159.5 54.5t-59.5 146.5q0 111 79.5 185.5t197.5 74.5zM296 338q-55 0 -96.5 -41t-41.5 -94q0 -47 31 -77.5t78 -30.5q55 0 96 41t41 95q0 46 -31 76.5t-77 30.5zM272 512l10 210h121l-42 -210 h-89z" />
<glyph unicode="&#x3cd;" horiz-adv-x="520" d="M81 433h122l-30 -239q0 -6 -1 -15.5t-1.5 -16t-0.5 -9.5q0 -65 73 -65q51 0 74 31q16 22 22 75l29 239h121l-30 -246q-12 -100 -57 -145q-59 -59 -172 -59q-89 0 -136 37t-47 107q0 16 4 60zM251 512l10 210h121l-42 -210h-89z" />
<glyph unicode="&#x3ce;" horiz-adv-x="725" d="M317 304h109l-10 -80q-4 -32 -4 -55q0 -28 7 -45q5 -12 18.5 -20.5t26.5 -8.5q44 0 73 48t29 121q0 58 -21 105q-7 16 -41 64h120q35 -45 50 -85t15 -90q0 -118 -63 -195t-159 -77q-94 0 -126 72q-49 -72 -143 -72q-77 0 -121 50t-44 136q0 87 41 164q16 29 30 47t47 50 h120q-37 -39 -47.5 -51.5t-22.5 -35.5q-41 -73 -41 -152q0 -44 18 -71.5t48 -27.5q35 0 54.5 30t27.5 99zM353 512l10 210h121l-42 -210h-89z" />
<glyph unicode="&#x3d1;" horiz-adv-x="546" d="M377 328h-73q-72 0 -111 8.5t-64 28.5q-46 37 -46 124q0 109 66.5 180t169.5 71q98 0 145.5 -70t47.5 -216v-21h59l-13 -105h-59q-19 -113 -48 -177q-76 -165 -221 -165q-91 0 -140 63.5t-49 181.5q0 39 4 71l2 15h122l-2 -15q-5 -35 -5 -76q0 -131 80 -131 q103 0 135 233zM388 433v28q0 91 -20.5 132.5t-65.5 41.5t-73.5 -35t-28.5 -91q0 -44 22 -60t83 -16h83z" />
<glyph unicode="&#x3d5;" horiz-adv-x="703" d="M244 -165l19 153q-112 7 -171.5 57.5t-59.5 138.5q0 111 77 180.5t209 78.5l19 149h115l-18 -149q111 -8 170.5 -58.5t59.5 -138.5q0 -112 -76.5 -181t-209.5 -77l-19 -153h-115zM421 340l-30 -249q70 5 110.5 43t40.5 99q0 48 -32.5 76.5t-88.5 30.5zM275 91l31 249 q-67 -2 -109 -41.5t-42 -100.5q0 -48 31 -75.5t89 -31.5z" />
<glyph unicode="&#x400;" horiz-adv-x="469" d="M49 0l82 667h345l-15 -123h-212l-18 -148h204l-15 -123h-204l-18 -150h212l-16 -123h-345zM209 822l99 53l80 -125l-66 -33z" />
<glyph unicode="&#x401;" horiz-adv-x="495" d="M486 554h-239l-18 -148h230l-14 -113h-230l-22 -180h239l-14 -113h-369l82 667h369zM237 877q27 0 45 -18t18 -45q0 -32 -24.5 -56.5t-56.5 -24.5q-27 0 -45 18t-18 46q0 32 24.5 56t56.5 24zM447 877q28 0 46 -18t18 -45q0 -32 -24.5 -56.5t-56.5 -24.5q-28 0 -46 18 t-18 46q0 32 24.5 56t56.5 24z" />
<glyph unicode="&#x402;" horiz-adv-x="638" d="M91 0l68 554h-104l14 113h390l-14 -113h-154l-26 -217q51 42 91 59t87 17q67 0 103 -35.5t36 -101.5q0 -18 -4 -54l-30 -243q-8 -64 -23.5 -95.5t-69.5 -91.5h-117q46 72 63 110t23 81l26 212q3 21 3 35q0 68 -73 68q-67 0 -129 -77l-28 -221h-132z" />
<glyph unicode="&#x403;" horiz-adv-x="478" d="M49 0l82 667h385l-14 -113h-255l-68 -554h-130zM486 842l-181 -114l-48 49l154 133z" />
<glyph unicode="&#x404;" horiz-adv-x="664" d="M499 285h-310l2 -9q7 -49 14 -68t28 -41q55 -63 155 -63q118 0 229 80l-16 -136q-108 -63 -248 -63q-136 0 -218.5 80.5t-82.5 213.5q0 172 112.5 287.5t280.5 115.5q108 0 205 -54l-15 -129q-96 64 -192 64q-101 0 -172 -63q-24 -21 -34.5 -37t-28.5 -58q0 -1 -1 -3 t-2 -5t-2 -5h309z" />
<glyph unicode="&#x405;" horiz-adv-x="477" d="M11 50l69 112q78 -42 135 -42q37 0 60 20t23 52q0 23 -14.5 39.5t-64.5 51.5q-70 51 -87 67q-53 49 -53 124q0 88 61 147t153 59q100 0 177 -58l-60 -119q-64 44 -119 44q-31 0 -50 -16.5t-19 -43.5q0 -23 14 -38t66 -48q80 -51 110 -92t30 -101q0 -94 -67.5 -157.5 t-165.5 -63.5q-48 0 -88.5 13t-109.5 50z" />
<glyph unicode="&#x406;" horiz-adv-x="283" d="M49 0l82 667h130l-82 -667h-130z" />
<glyph unicode="&#x407;" horiz-adv-x="283" d="M260 667l-82 -667h-130l82 667h130zM116 877q28 0 46 -18t18 -45q0 -32 -24.5 -56.5t-56.5 -24.5q-28 0 -46 18t-18 46q0 32 24.5 56t56.5 24zM326 877q28 0 46 -18t18 -45q0 -32 -24.5 -56.5t-56.5 -24.5q-28 0 -46 18t-18 46q0 32 24.5 56t56.5 24z" />
<glyph unicode="&#x408;" horiz-adv-x="402" d="M381 667l-55 -445q-13 -100 -45 -147q-28 -42 -74 -66t-96 -24q-40 0 -69.5 13t-70.5 50l86 99q15 -25 27.5 -34t31.5 -9q35 0 55.5 29t27.5 90l54 444h128z" />
<glyph unicode="&#x409;" horiz-adv-x="925" d="M410 0l68 554h-177q-43 -251 -76 -348q-34 -107 -88.5 -157t-135.5 -50q-19 0 -37 1l14 114q14 -2 23 -2q41 0 68.5 38.5t51.5 130.5q39 157 74 386h422l-31 -256h117q194 0 194 -168q0 -108 -67 -177q-66 -66 -195 -66h-225zM548 104h79q86 0 116 40q25 34 25 78 q0 48 -26.5 68t-89.5 20h-78z" />
<glyph unicode="&#x40a;" horiz-adv-x="980" d="M49 0l82 667h130l-31 -256h288l31 256h126l-32 -256h117q194 0 194 -168q0 -108 -67 -177q-66 -66 -194 -66h-226l38 307h-288l-38 -307h-130zM606 104h78q86 0 116 40q25 34 25 78q0 48 -26 68t-90 20h-78z" />
<glyph unicode="&#x40b;" horiz-adv-x="693" d="M105 0l68 554h-125l14 113h439l-14 -113h-181l-27 -217q57 42 101.5 59t97.5 17q79 0 124 -43q35 -34 35 -98q0 -24 -3 -50l-27 -222h-126l24 195q3 18 3 33q0 70 -90 70q-80 0 -153 -77l-27 -221h-133z" />
<glyph unicode="&#x40c;" horiz-adv-x="622" d="M49 0l82 667h130l-39 -313l282 313h153l-307 -325l246 -342h-163l-215 318l-39 -318h-130zM558 842l-181 -114l-48 49l154 133z" />
<glyph unicode="&#x40d;" horiz-adv-x="698" d="M49 0l82 667h125l-55 -449l377 449h98l-82 -667h-125l55 444l-377 -444h-98zM294 822l99 53l80 -125l-66 -33z" />
<glyph unicode="&#x40e;" horiz-adv-x="576" d="M49 0l176 252l-170 415h152l103 -292l176 292h152l-451 -667h-138zM208 872h84q7 -34 24 -48.5t49 -14.5q59 0 88 63h84q-16 -65 -65 -102.5t-117 -37.5t-107.5 38t-39.5 102z" />
<glyph unicode="&#x40f;" horiz-adv-x="697" d="M49 0l82 667h130l-68 -554h280l68 554h130l-81 -667h-212l-16 -128h-117l16 128h-212z" />
<glyph unicode="&#x410;" horiz-adv-x="670" d="M461 141h-272l-78 -141h-138l365 667h109l193 -667h-139zM434 246l-65 240l-126 -240h191z" />
<glyph unicode="&#x411;" horiz-adv-x="570" d="M49 0l82 667h414l-14 -113h-288l-19 -152h117q196 0 196 -165q0 -105 -67 -172q-65 -65 -195 -65h-226zM188 104h78q48 0 74.5 8.5t42.5 30.5q25 31 25 73q0 46 -26.5 65.5t-91.5 19.5h-78z" />
<glyph unicode="&#x412;" horiz-adv-x="570" d="M49 0l82 667h165q112 0 159 -40q44 -38 44 -112q0 -59 -28 -104q-19 -31 -63 -55q56 -12 82 -42q34 -39 34 -102q0 -79 -53 -138q-67 -74 -197 -74h-225zM227 389h37q70 0 95 42q17 26 17 57q0 74 -89 74h-39zM192 105h56q83 0 114 34q28 30 28 70q0 41 -30 62 q-28 19 -97 19h-48z" />
<glyph unicode="&#x413;" horiz-adv-x="478" d="M49 0l82 667h385l-14 -113h-255l-68 -554h-130z" />
<glyph unicode="&#x414;" horiz-adv-x="674" d="M-60 -128l30 241h33q67 0 102 70q48 96 109 484h430l-68 -554h60l-30 -241h-117l16 128h-432l-16 -128h-117zM178 113h268l54 441h-180q-19 -134 -55 -281q-17 -65 -33 -94.5t-54 -65.5z" />
<glyph unicode="&#x415;" horiz-adv-x="495" d="M486 554h-239l-18 -148h230l-14 -113h-230l-22 -180h239l-14 -113h-369l82 667h369z" />
<glyph unicode="&#x416;" horiz-adv-x="928" d="M373 0l35 289h-30l-249 -289h-159l304 342l-201 325h149l162 -273h37l33 273h128l-33 -273h37l229 273h149l-281 -325l220 -342h-159l-178 289h-30l-36 -289h-127z" />
<glyph unicode="&#x417;" horiz-adv-x="561" d="M167 294l12 101h49q82 0 120 12q67 23 67 79q0 36 -37.5 56.5t-104.5 20.5q-48 0 -84.5 -9t-103.5 -37l16 131q94 34 203 34q117 0 182.5 -43t65.5 -119q0 -77 -61 -128q-28 -24 -81 -42q61 -21 88 -54t27 -86q0 -82 -58 -143q-77 -83 -246 -83q-132 0 -214 38l17 136 q81 -55 194 -55q82 0 127 28t45 80q0 43 -41.5 63t-133.5 20h-48z" />
<glyph unicode="&#x418;" horiz-adv-x="698" d="M49 0l82 667h125l-55 -449l377 449h98l-82 -667h-125l55 444l-377 -444h-98z" />
<glyph unicode="&#x419;" horiz-adv-x="698" d="M49 0l82 667h125l-55 -449l377 449h98l-82 -667h-125l55 444l-377 -444h-98zM264 872h84q7 -34 24 -48.5t49 -14.5q59 0 88 63h84q-16 -65 -65 -102.5t-117 -37.5t-107.5 38t-39.5 102z" />
<glyph unicode="&#x41a;" horiz-adv-x="622" d="M49 0l82 667h130l-39 -313l282 313h153l-307 -325l246 -342h-163l-215 318l-39 -318h-130z" />
<glyph unicode="&#x41b;" horiz-adv-x="644" d="M195 667h427l-82 -667h-130l68 554h-177q-43 -248 -76 -348q-34 -107 -88.5 -157t-135.5 -50q-19 0 -37 1l14 114q12 -2 23 -2q41 0 68.5 38.5t51.5 130.5q39 153 74 386z" />
<glyph unicode="&#x41c;" horiz-adv-x="868" d="M13 0l204 667h96l124 -424l237 424h97l27 -667h-131l-9 411l-231 -411h-43l-123 411l-117 -411h-131z" />
<glyph unicode="&#x41d;" horiz-adv-x="695" d="M229 406h282l32 261h130l-82 -667h-130l36 293h-282l-36 -293h-130l82 667h130z" />
<glyph unicode="&#x41e;" horiz-adv-x="799" d="M457 682q137 0 226 -86.5t89 -219.5q0 -159 -120 -275t-286 -116q-136 0 -224 86.5t-88 220.5q0 157 120 273.5t283 116.5zM441 563q-100 0 -176 -77.5t-76 -178.5q0 -89 55.5 -146t140.5 -57q100 0 176 78t76 181q0 86 -56 143t-140 57z" />
<glyph unicode="&#x41f;" horiz-adv-x="702" d="M49 0l82 667h549l-82 -667h-130l68 554h-289l-68 -554h-130z" />
<glyph unicode="&#x420;" horiz-adv-x="535" d="M209 247l-30 -247h-130l82 667h194q65 0 103.5 -11.5t66.5 -39.5q50 -52 50 -131q0 -84 -50 -152q-66 -86 -201 -86h-85zM223 360h53q65 0 99.5 28.5t34.5 81.5q0 45 -27.5 64.5t-90.5 19.5h-45z" />
<glyph unicode="&#x421;" horiz-adv-x="608" d="M615 638l-20 -159q-40 40 -77 56.5t-84 16.5q-101 0 -174.5 -74t-73.5 -176q0 -82 55 -135.5t139 -53.5q88 0 179 73l-19 -159q-95 -42 -182 -42q-129 0 -216.5 86.5t-87.5 214.5q0 160 119 277t282 117q80 0 160 -42z" />
<glyph unicode="&#x422;" horiz-adv-x="443" d="M258 0h-130l68 554h-149l14 113h429l-14 -113h-150z" />
<glyph unicode="&#x423;" horiz-adv-x="576" d="M49 0l176 252l-170 415h152l103 -292l176 292h152l-451 -667h-138z" />
<glyph unicode="&#x424;" horiz-adv-x="926" d="M369 -55l12 96q-120 7 -186 39q-141 64 -141 217q0 80 41 150.5t113 112.5q92 54 244 63l12 97h117l-12 -97q122 -7 188 -39q141 -64 141 -217q0 -80 -41 -150.5t-113 -112.5q-92 -54 -246 -63l-12 -96h-117zM555 504l-42 -344q102 7 161 41q90 54 90 151q0 94 -98 132 q-37 14 -111 20zM396 160l42 344q-102 -7 -160 -41q-90 -54 -90 -151q0 -94 98 -132q36 -14 110 -20z" />
<glyph unicode="&#x425;" horiz-adv-x="625" d="M258 353l-160 314h156l92 -207l148 207h156l-243 -314l184 -353h-153l-120 244l-185 -244h-154z" />
<glyph unicode="&#x426;" horiz-adv-x="701" d="M49 0l82 667h130l-68 -554h280l68 554h130l-68 -554h61l-30 -241h-116l15 128h-484z" />
<glyph unicode="&#x427;" horiz-adv-x="633" d="M398 0l26 211q-87 -13 -128 -13q-137 0 -195 64q-39 43 -39 127q0 31 5 71l25 207h130l-24 -195q-5 -38 -5 -58q0 -103 132 -103q55 0 113 17l42 339h130l-82 -667h-130z" />
<glyph unicode="&#x428;" horiz-adv-x="975" d="M49 0l82 667h130l-68 -554h216l68 554h130l-68 -554h215l69 554h130l-82 -667h-822z" />
<glyph unicode="&#x429;" horiz-adv-x="982" d="M49 0l82 667h130l-68 -554h216l68 554h130l-68 -554h216l68 554h130l-68 -554h60l-30 -241h-116l15 128h-765z" />
<glyph unicode="&#x42a;" horiz-adv-x="669" d="M153 0l68 554h-178l14 113h304l-32 -256h117q194 0 194 -168q0 -108 -67 -177q-66 -66 -194 -66h-226zM292 104h78q86 0 116 40q25 34 25 78q0 48 -26.5 68t-88.5 20h-79z" />
<glyph unicode="&#x42b;" horiz-adv-x="832" d="M49 0l82 667h126l-32 -256h117q194 0 194 -168q0 -108 -67 -177q-66 -66 -194 -66h-226zM188 104h78q86 0 116 40q25 34 25 78q0 48 -26.5 68t-89.5 20h-78zM593 0l82 667h134l-82 -667h-134z" />
<glyph unicode="&#x42c;" horiz-adv-x="564" d="M49 0l82 667h126l-32 -256h117q194 0 194 -168q0 -108 -67 -177q-66 -66 -194 -66h-226zM188 104h78q86 0 116 40q25 34 25 78q0 48 -26.5 68t-89.5 20h-78z" />
<glyph unicode="&#x42d;" horiz-adv-x="664" d="M179 285l13 107h310q-3 9 -3 13q-8 43 -14 59t-25 36q-57 63 -156 63q-98 0 -208 -64l16 129q109 54 219 54q139 0 222.5 -81.5t83.5 -218.5q0 -169 -111.5 -283t-275.5 -114q-137 0 -231 63l17 136q92 -80 209 -80q101 0 171 63q27 23 39 42.5t30 66.5l4 9h-310z" />
<glyph unicode="&#x42e;" horiz-adv-x="1062" d="M49 0l82 667h130l-34 -274h126q42 133 144 211t233 78q134 0 219.5 -85.5t85.5 -219.5q0 -159 -117 -275.5t-277 -116.5q-90 0 -162.5 42.5t-109.5 116.5q-27 54 -31 133h-125l-34 -277h-130zM715 563q-97 0 -170 -77.5t-73 -180.5q0 -88 52 -144.5t132 -56.5 q98 0 171 77t73 181q0 86 -52.5 143.5t-132.5 57.5z" />
<glyph unicode="&#x42f;" horiz-adv-x="590" d="M387 265h-20l-222 -265h-142l239 278q-75 4 -110 35q-47 41 -47 118q0 109 73 176q63 60 189 60h220l-81 -667h-132zM399 362l24 197h-72q-72 0 -105 -36q-29 -34 -29 -78q0 -83 106 -83h76z" />
<glyph unicode="&#x430;" horiz-adv-x="569" d="M414 433h121l-53 -433h-121l7 56q-64 -70 -151 -70q-83 0 -134.5 55.5t-51.5 143.5q0 107 71.5 184.5t171.5 77.5q82 0 133 -70zM294 338q-55 0 -96 -41t-41 -95q0 -46 30.5 -76.5t76.5 -30.5q55 0 96 41t41 95q0 47 -30.5 77t-76.5 30z" />
<glyph unicode="&#x431;" horiz-adv-x="580" d="M527 751l1 -104q-27 -17 -60 -23t-117 -9q-82 -6 -112.5 -50.5t-49.5 -184.5q65 66 152 66q92 0 147 -53.5t55 -144.5q0 -113 -79 -187t-200 -74q-114 0 -168 68q-43 53 -43 167q0 151 44 298q43 143 137 176q25 9 50.5 13t115.5 12q91 7 127 30zM309 337 q-60 0 -98.5 -39t-38.5 -100q0 -46 30 -74t78 -28q57 0 97 40t40 98q0 46 -30 74.5t-78 28.5z" />
<glyph unicode="&#x432;" horiz-adv-x="510" d="M30 0l53 433h236q90 0 121 -25q32 -26 32 -72q0 -74 -73 -106q67 -22 67 -89q0 -64 -51 -104q-47 -37 -142 -37h-243zM183 257h85q81 0 81 52q0 37 -64 37h-91zM162 88h97q88 0 88 50q0 41 -79 41h-95z" />
<glyph unicode="&#x433;" horiz-adv-x="377" d="M30 0l53 433h306l-12 -105h-185l-41 -328h-121z" />
<glyph unicode="&#x434;" horiz-adv-x="539" d="M381 0h-302l-15 -119h-114l28 224h15q54 0 91 75q32 66 61 253h356l-41 -328h48l-27 -224h-114zM333 105l28 223h-120q-2 -12 -3 -13q-4 -22 -11 -55q-13 -60 -31 -95t-49 -60h186z" />
<glyph unicode="&#x435;" horiz-adv-x="518" d="M479 197h-324q-1 -8 -1 -21q0 -45 24.5 -70t68.5 -25q64 0 110 58l110 -18q-74 -135 -229 -135q-97 0 -152 52t-55 143q0 116 72.5 191t184.5 75q93 0 144.5 -50.5t51.5 -142.5q0 -26 -5 -57zM169 274h204q-9 86 -92 86q-85 0 -112 -86z" />
<glyph unicode="&#x436;" horiz-adv-x="684" d="M256 0l22 180h-19l-163 -180h-137l207 225l-135 208h131l106 -172h20l21 172h117l-21 -172h20l148 172h131l-186 -208l152 -225h-137l-119 180h-19l-22 -180h-117z" />
<glyph unicode="&#x437;" horiz-adv-x="445" d="M82 175l11 90h88q98 0 98 40q0 38 -95 38q-69 0 -140 -18l13 104q83 19 171 19q182 0 182 -114q0 -71 -71 -106q58 -24 58 -90q0 -59 -45 -99q-56 -53 -195 -53q-89 0 -164 21l13 103q92 -18 151 -18q53 0 82.5 12t29.5 34q0 37 -96 37h-91z" />
<glyph unicode="&#x438;" horiz-adv-x="515" d="M30 0l53 433h119l-31 -254l205 254h106l-53 -433h-119l30 249l-204 -249h-106z" />
<glyph unicode="&#x439;" horiz-adv-x="515" d="M30 0l53 433h119l-31 -254l205 254h106l-53 -433h-119l30 249l-204 -249h-106zM145 650h84q7 -34 24 -48.5t48 -14.5q60 0 89 63h83q-16 -65 -65 -103t-117 -38q-67 0 -106.5 38.5t-39.5 102.5z" />
<glyph unicode="&#x43a;" horiz-adv-x="481" d="M30 0l53 433h122l-24 -195l176 195h132l-197 -208l163 -225h-140l-139 197l-25 -197h-121z" />
<glyph unicode="&#x43b;" horiz-adv-x="504" d="M296 0l40 328h-119q-26 -141 -40 -187q-43 -142 -179 -142q-10 0 -33 1l13 104q21 0 34.5 4t26.5 17.5t21.5 33.5t18 60t18 88t19.5 126h354l-53 -433h-121z" />
<glyph unicode="&#x43c;" horiz-adv-x="649" d="M0 0l129 433h113l73 -284l143 284h113l23 -433h-119l-6 257l-134 -257h-79l-66 257l-71 -257h-119z" />
<glyph unicode="&#x43d;" horiz-adv-x="524" d="M30 0l53 433h122l-20 -156h166l19 156h121l-53 -433h-121l21 175h-165l-22 -175h-121z" />
<glyph unicode="&#x43e;" horiz-adv-x="565" d="M309 447q101 0 161 -54.5t60 -146.5q0 -111 -80 -185.5t-199 -74.5q-100 0 -159.5 54.5t-59.5 146.5q0 111 79.5 185.5t197.5 74.5zM296 338q-55 0 -96.5 -41t-41.5 -94q0 -47 31 -77.5t78 -30.5q55 0 96 41t41 95q0 46 -31 76.5t-77 30.5z" />
<glyph unicode="&#x43f;" horiz-adv-x="519" d="M30 0l53 433h403l-53 -433h-122l41 328h-160l-41 -328h-121z" />
<glyph unicode="&#x440;" horiz-adv-x="569" d="M123 -231h-121l82 664h121l-7 -56q64 70 151 70q83 0 135 -55t52 -143q0 -108 -72 -185.5t-172 -77.5q-80 0 -133 70zM302 338q-54 0 -95.5 -41t-41.5 -95q0 -46 31 -76.5t77 -30.5q54 0 95.5 41t41.5 94q0 47 -30.5 77.5t-77.5 30.5z" />
<glyph unicode="&#x441;" horiz-adv-x="417" d="M407 421l-15 -120q-44 37 -94 37q-58 0 -99.5 -40.5t-41.5 -96.5q0 -47 31 -76.5t80 -29.5q54 0 103 37l-15 -119q-58 -27 -115 -27q-91 0 -150.5 56.5t-59.5 143.5q0 106 79.5 183.5t189.5 77.5q58 0 107 -26z" />
<glyph unicode="&#x442;" horiz-adv-x="380" d="M100 0l40 328h-120l13 105h364l-13 -105h-120l-40 -328h-124z" />
<glyph unicode="&#x443;" horiz-adv-x="535" d="M186 65l-159 368h141l99 -246l154 246h138l-431 -664h-137z" />
<glyph unicode="&#x444;" horiz-adv-x="791" d="M281 -231l30 247q-54 -31 -107 -31q-80 0 -125 51.5t-45 142.5t49 168q65 100 177 100q31 0 51 -6t49 -25l22 180h118l-22 -180q35 19 56 25t52 6q78 0 123.5 -52t45.5 -142q0 -91 -49 -168q-64 -100 -178 -100q-52 0 -100 31l-30 -247h-117zM325 132l21 168 q-34 38 -75 38q-49 0 -81.5 -41t-32.5 -103q0 -46 22.5 -73t61.5 -27q41 0 84 38zM463 300l-20 -168q20 -22 35.5 -30t39.5 -8q49 0 81.5 41t32.5 103q0 47 -22.5 73.5t-62.5 26.5q-41 0 -84 -38z" />
<glyph unicode="&#x445;" horiz-adv-x="562" d="M208 235l-142 198h153l75 -112l105 112h154l-194 -198l174 -235h-155l-105 151l-144 -151h-156z" />
<glyph unicode="&#x446;" horiz-adv-x="525" d="M30 0l53 433h122l-41 -328h160l41 328h121l-40 -328h47l-27 -224h-114l15 119h-337z" />
<glyph unicode="&#x447;" horiz-adv-x="485" d="M278 0l13 109q-41 -10 -81 -10q-89 0 -128.5 35t-39.5 114q0 33 4 61l15 124h122l-17 -133q-3 -22 -3 -36q0 -59 73 -59q36 0 69 13l26 215h121l-53 -433h-121z" />
<glyph unicode="&#x448;" horiz-adv-x="752" d="M30 0l53 433h124l-40 -328h133l41 328h120l-41 -328h134l41 328h123l-53 -433h-635z" />
<glyph unicode="&#x449;" horiz-adv-x="758" d="M30 0l53 433h124l-40 -328h133l41 328h120l-41 -328h134l41 328h123l-40 -328h48l-28 -224h-114l15 119h-569z" />
<glyph unicode="&#x44a;" horiz-adv-x="515" d="M73 0l41 328h-104l13 105h225l-17 -135h83q94 0 130 -26q44 -32 44 -98q0 -82 -52.5 -128t-146.5 -46h-216zM205 84h74q98 0 98 75q0 29 -19.5 41.5t-62.5 12.5h-74z" />
<glyph unicode="&#x44b;" horiz-adv-x="694" d="M30 0l53 433h122l-17 -135h83q93 0 129 -26q44 -32 44 -97q0 -83 -52 -129t-146 -46h-216zM162 84h73q98 0 98 75q0 29 -19 41.5t-62 12.5h-75zM481 0l53 433h127l-53 -433h-127z" />
<glyph unicode="&#x44c;" horiz-adv-x="472" d="M30 0l53 433h122l-17 -135h83q93 0 129 -26q44 -32 44 -97q0 -83 -52 -129t-146 -46h-216zM162 84h73q98 0 98 75q0 29 -19 41.5t-62 12.5h-75z" />
<glyph unicode="&#x44d;" horiz-adv-x="489" d="M110 177l10 82h208q-11 34 -24 49q-33 38 -102 38q-41 0 -69.5 -7t-79.5 -30l13 109q94 29 171 29q100 0 157.5 -53t57.5 -145q0 -104 -65 -179q-74 -85 -221 -85q-86 0 -158 29l13 106q47 -22 74.5 -28.5t67.5 -6.5q79 0 126 45q16 17 30 47h-209z" />
<glyph unicode="&#x44e;" horiz-adv-x="765" d="M36 0l53 433h122l-21 -165h76q16 41 29.5 62.5t34.5 41.5q77 72 188 72q95 0 152.5 -54.5t57.5 -143.5q0 -109 -77 -183.5t-190 -74.5q-91 0 -145 46t-64 133h-74l-21 -167h-121zM504 335q-58 0 -96 -39t-38 -99q0 -46 28 -73t76 -27q58 0 96 39t38 98q0 46 -28.5 73.5 t-75.5 27.5z" />
<glyph unicode="&#x44f;" horiz-adv-x="488" d="M277 0l18 145l-8 1l-149 -146h-142l182 164q-136 7 -136 109q0 70 49 116q47 44 154 44h209l-53 -433h-124zM305 224l15 127h-63q-53 0 -74 -21q-19 -19 -19 -49q0 -31 17.5 -44t58.5 -13h65z" />
<glyph unicode="&#x450;" horiz-adv-x="483" d="M316 121l106 -42q-53 -92 -183 -92q-95 0 -151.5 55.5t-56.5 148.5q0 99 63.5 162.5t161.5 63.5q90 0 141.5 -54.5t51.5 -150.5q0 -20 -2 -37h-296q5 -35 18 -52q25 -30 73 -30q36 0 74 28zM162 258h176q-7 68 -74 68q-36 0 -59 -15.5t-43 -52.5zM162 591l107 52l76 -143 l-71 -33z" />
<glyph unicode="&#x451;" horiz-adv-x="518" d="M479 197h-324q-1 -8 -1 -21q0 -45 24.5 -70t68.5 -25q64 0 110 58l110 -18q-74 -135 -229 -135q-97 0 -152 52t-55 143q0 116 72.5 191t184.5 75q93 0 144.5 -50.5t51.5 -142.5q0 -26 -5 -57zM169 274h204q-9 86 -92 86q-85 0 -112 -86zM211 658q27 0 45 -18t18 -45 q0 -32 -24.5 -56.5t-56.5 -24.5q-27 0 -45 18t-18 46q0 32 24.5 56t56.5 24zM418 658q28 0 46 -18t18 -45q0 -32 -24.5 -56.5t-56.5 -24.5q-28 0 -46 18t-18 46q0 32 24.5 56t56.5 24z" />
<glyph unicode="&#x452;" horiz-adv-x="516" d="M25 0l66 534h-54l9 74h54l15 121h126l-14 -121h140l-9 -74h-140l-20 -158q38 38 69.5 53t73.5 15q59 0 92.5 -33.5t33.5 -92.5q0 -20 -3 -43l-36 -290q-7 -61 -22.5 -98t-68.5 -118h-113q69 137 80 220l33 263q1 9 1 26q0 55 -61 55q-85 0 -97 -108l-28 -225h-127z" />
<glyph unicode="&#x453;" horiz-adv-x="377" d="M30 0l53 433h306l-12 -105h-185l-41 -328h-121zM405 644l-166 -135l-53 40l138 151z" />
<glyph unicode="&#x454;" horiz-adv-x="489" d="M366 177h-208q8 -36 23 -52q36 -40 109 -40q41 0 69.5 6.5t81.5 28.5l-13 -106q-79 -29 -166 -29q-111 0 -169.5 50.5t-58.5 147.5q0 116 76.5 190t195.5 74q77 0 164 -29l-13 -109q-47 23 -73.5 30t-67.5 7q-53 0 -87.5 -20.5t-59.5 -66.5h207z" />
<glyph unicode="&#x455;" horiz-adv-x="405" d="M9 30l32 105q52 -28 78 -37t56 -9q51 0 51 37q0 17 -12.5 25t-65.5 26q-60 21 -82.5 46.5t-22.5 72.5q0 72 46 113.5t125 41.5q72 0 153 -41l-46 -93q-57 36 -106 36q-51 0 -51 -36q0 -17 12.5 -24.5t74.5 -25.5q57 -18 80 -45t23 -76q0 -74 -46 -116.5t-127 -42.5 q-89 0 -172 43z" />
<glyph unicode="&#x456;" horiz-adv-x="240" d="M206 435l-53 -435h-121l53 435h121zM175 679q28 0 46.5 -19t18.5 -48q0 -33 -24 -57t-57 -24q-26 0 -44.5 19.5t-18.5 47.5q0 32 24 56.5t55 24.5z" />
<glyph unicode="&#x457;" horiz-adv-x="234" d="M203 434l-54 -434h-121l53 434h122zM66 658q27 0 45 -18t18 -45q0 -32 -24.5 -56.5t-56.5 -24.5q-27 0 -45 18t-18 46q0 32 24.5 56t56.5 24zM273 658q28 0 46 -18t18 -45q0 -32 -24.5 -56.5t-56.5 -24.5q-28 0 -46 18t-18 46q0 32 24.5 56t56.5 24z" />
<glyph unicode="&#x458;" horiz-adv-x="240" d="M206 435l-81 -663h-121l81 663h121zM175 685q29 0 47.5 -19.5t18.5 -49.5q0 -33 -24 -57.5t-58 -24.5q-28 0 -46.5 20t-18.5 50q0 32 24.5 56.5t56.5 24.5z" />
<glyph unicode="&#x459;" horiz-adv-x="728" d="M287 0l40 328h-110q-25 -139 -40 -187q-44 -142 -179 -142q-10 0 -33 1l13 104q25 0 40.5 7t29 24t24 57t20.5 93.5t24 147.5h345l-17 -135h83q94 0 130 -26q44 -32 44 -97q0 -82 -52.5 -128.5t-146.5 -46.5h-215zM418 84h74q51 0 74.5 18t23.5 57q0 29 -19.5 41.5 t-62.5 12.5h-74z" />
<glyph unicode="&#x45a;" horiz-adv-x="758" d="M30 0l53 433h122l-17 -135h165l17 135h121l-17 -135h83q94 0 130 -26q44 -32 44 -98q0 -82 -52.5 -128t-146.5 -46h-215l24 196h-166l-24 -196h-121zM448 84h74q98 0 98 75q0 29 -19 41.5t-62 12.5h-75z" />
<glyph unicode="&#x45b;" horiz-adv-x="516" d="M25 0l66 534h-54l9 74h54l15 121h126l-14 -121h133l-10 -74h-132l-20 -158q38 38 69.5 53t73.5 15q59 0 92.5 -33.5t33.5 -92.5q0 -20 -3 -43l-34 -275h-124l31 252q1 9 1 26q0 55 -61 55q-85 0 -97 -108l-28 -225h-127z" />
<glyph unicode="&#x45c;" horiz-adv-x="481" d="M30 0l53 433h122l-24 -195l176 195h132l-197 -208l163 -225h-140l-139 197l-25 -197h-121zM456 644l-167 -135l-52 40l137 151z" />
<glyph unicode="&#x45d;" horiz-adv-x="515" d="M30 0l53 433h119l-31 -254l205 254h106l-53 -433h-119l30 249l-204 -249h-106zM167 591l107 52l76 -143l-71 -33z" />
<glyph unicode="&#x45e;" horiz-adv-x="535" d="M186 65l-159 368h141l99 -246l154 246h138l-431 -664h-137zM157 650h84q8 -34 24.5 -48.5t47.5 -14.5q60 0 89 63h83q-16 -65 -65 -103t-117 -38q-67 0 -106.5 38t-39.5 103z" />
<glyph unicode="&#x45f;" horiz-adv-x="519" d="M30 0l53 433h122l-41 -328h160l41 328h121l-53 -433h-145l-14 -119h-114l14 119h-144z" />
<glyph unicode="&#x490;" horiz-adv-x="478" d="M49 0l82 667h268l9 68h117l-23 -181h-255l-68 -554h-130z" />
<glyph unicode="&#x491;" horiz-adv-x="377" d="M30 0l53 433h195l8 68h112l-21 -173h-185l-41 -328h-121z" />
<glyph unicode="&#x492;" horiz-adv-x="483" d="M48 0l35 279h-62l13 108h62l34 280h390l-14 -113h-255l-21 -167h152l-13 -108h-152l-34 -279h-135z" />
<glyph unicode="&#x493;" horiz-adv-x="369" d="M30 0l17 138h-47l12 96h47l25 199h298l-13 -106h-177l-12 -93h110l-12 -96h-109l-17 -138h-122z" />
<glyph unicode="&#x496;" horiz-adv-x="928" d="M830 113h84l-29 -241h-117l15 128h-39l-178 289h-30l-36 -289h-127l35 289h-30l-249 -289h-159l304 342l-201 325h149l162 -273h37l33 273h128l-33 -273h37l229 273h149l-281 -325z" />
<glyph unicode="&#x497;" horiz-adv-x="684" d="M599 105h84l-28 -224h-114l15 119h-23l-119 180h-19l-22 -180h-117l22 180h-19l-163 -180h-137l207 225l-135 208h131l106 -172h20l21 172h117l-21 -172h20l148 172h131l-186 -208z" />
<glyph unicode="&#x49a;" horiz-adv-x="622" d="M515 113h90l-30 -241h-117l16 128h-41l-215 319l-39 -319h-130l82 667h130l-39 -313l282 313h153l-307 -325z" />
<glyph unicode="&#x49b;" horiz-adv-x="481" d="M379 105h88l-27 -224h-114l14 119h-25l-139 197l-25 -197h-121l53 433h122l-24 -195l176 195h132l-197 -208z" />
<glyph unicode="&#x49c;" horiz-adv-x="649" d="M47 0l82 667h130l-34 -279h47l19 159h62l-19 -157l208 277h153l-256 -325l195 -342h-163l-151 283l-19 -161h-62l20 161h-47l-35 -283h-130z" />
<glyph unicode="&#x49d;" horiz-adv-x="519" d="M30 0l53 433h122l-20 -155h40l11 91h52l-11 -90l121 154h132l-165 -205l131 -228h-141l-91 176l-13 -106h-51l12 106h-39l-22 -176h-121z" />
<glyph unicode="&#x4a2;" horiz-adv-x="695" d="M605 113h53l-30 -241h-117l16 128h-66l36 293h-282l-36 -293h-130l82 667h130l-32 -261h282l32 261h130z" />
<glyph unicode="&#x4a3;" horiz-adv-x="524" d="M451 105h42l-27 -224h-114l14 119h-49l21 175h-165l-22 -175h-121l53 433h122l-20 -156h166l19 156h121z" />
<glyph unicode="&#x4ae;" horiz-adv-x="583" d="M234 306l-185 361h154l115 -232l170 232h155l-279 -361l-37 -306h-130z" />
<glyph unicode="&#x4af;" horiz-adv-x="503" d="M168 23l-146 410h139l84 -302l150 302h136l-233 -410l-31 -254h-130z" />
<glyph unicode="&#x4b0;" horiz-adv-x="598" d="M202 0l18 151h-111l14 109h111l6 49l-190 358h155l119 -230l174 230h157l-285 -358l-6 -49h116l-13 -109h-117l-18 -151h-130z" />
<glyph unicode="&#x4b1;" horiz-adv-x="539" d="M165 -98h-116l12 98h116l4 35l-150 397h141l88 -289l160 289h139l-249 -398l-4 -34h113l-12 -98h-113l-17 -133h-128z" />
<glyph unicode="&#x4b2;" horiz-adv-x="625" d="M532 113h90l-30 -241h-117l16 128h-53l-120 244l-185 -244h-154l279 353l-160 314h156l92 -207l148 207h156l-243 -314z" />
<glyph unicode="&#x4b3;" horiz-adv-x="562" d="M455 105h82l-27 -224h-114l14 119h-32l-105 151l-144 -151h-156l235 236l-142 197h153l75 -112l105 112h154l-194 -197z" />
<glyph unicode="&#x4b6;" horiz-adv-x="633" d="M473 0h-74l26 211q-91 -13 -128 -13q-138 0 -195 65q-39 42 -39 126q0 31 5 71l25 207h130l-24 -195q-5 -38 -5 -58q0 -103 132 -103q56 0 113 17l42 339h130l-68 -554h61l-29 -241h-117z" />
<glyph unicode="&#x4b7;" horiz-adv-x="485" d="M339 0h-61l13 110q-41 -10 -81 -10q-89 0 -128.5 35t-39.5 113q0 33 4 61l15 124h122l-17 -133q-3 -22 -3 -35q0 -59 73 -59q34 0 69 12l26 215h121l-40 -328h53l-27 -224h-114z" />
<glyph unicode="&#x4b8;" horiz-adv-x="633" d="M250 75l15 124q-86 6 -142 43q-61 42 -61 147q0 31 5 71l25 207h130l-24 -195q-5 -38 -5 -58q0 -44 20 -67t66 -32l23 188h62l-24 -192q49 3 98 17l42 339h130l-82 -667h-130l26 211q-57 -9 -97 -12l-16 -124h-61z" />
<glyph unicode="&#x4b9;" horiz-adv-x="485" d="M183 28l9 72q-82 5 -116 38.5t-34 109.5q0 33 4 61l15 124h122l-17 -134q-3 -21 -3 -35q0 -43 42 -56l16 124h51l-15 -126q27 3 48 12l26 215h121l-53 -433h-121l13 109q-29 -6 -47 -8l-9 -73h-52z" />
<glyph unicode="&#x4bb;" horiz-adv-x="523" d="M121 729h120l-41 -339q57 56 131 56q65 0 103.5 -34.5t38.5 -92.5q0 -23 -3 -48l-34 -271h-120l29 240q2 20 2 31q0 37 -15.5 53.5t-49.5 16.5q-46 0 -71 -29t-32 -91l-27 -221h-121z" />
<glyph unicode="&#x4c0;" horiz-adv-x="283" d="M49 0l82 667h130l-82 -667h-130z" />
<glyph unicode="&#x4cf;" horiz-adv-x="283" d="M49 0l82 667h130l-82 -667h-130z" />
<glyph unicode="&#x4d8;" horiz-adv-x="798" d="M61 363h577q-2 89 -56.5 145t-139.5 56q-134 0 -217 -128l-107 64q52 83 144.5 133t195.5 50q134 0 223 -87.5t89 -220.5q0 -159 -119.5 -276t-282.5 -117q-136 0 -226 86t-90 217q0 27 9 78zM613 262h-421q13 -56 34 -85q25 -35 67.5 -55.5t89.5 -20.5t95.5 20.5 t80.5 54.5q29 29 54 86z" />
<glyph unicode="&#x4d9;" horiz-adv-x="538" d="M378 237l1 24q0 44 -26 71.5t-66 27.5q-69 0 -111 -64l-120 9q35 65 97.5 102t139.5 37q96 0 154 -53.5t58 -141.5q0 -110 -77 -185.5t-189 -75.5q-93 0 -150 56.5t-57 149.5q0 5 4 43h342zM367 169h-212q2 -45 27.5 -71.5t66.5 -26.5q42 0 74.5 27t43.5 71z" />
<glyph unicode="&#x4e2;" horiz-adv-x="698" d="M49 0l82 667h125l-55 -449l377 449h98l-82 -667h-125l55 444l-377 -444h-98zM251 829h337l-10 -80h-337z" />
<glyph unicode="&#x4e3;" horiz-adv-x="515" d="M30 0l53 433h119l-31 -254l205 254h106l-53 -433h-119l30 249l-204 -249h-106zM139 584h320l-9 -80h-321z" />
<glyph unicode="&#x4e8;" horiz-adv-x="798" d="M461 683q133 0 221.5 -88t88.5 -219q0 -159 -119.5 -276.5t-282.5 -117.5q-139 0 -227 86t-88 221q0 162 120 278t287 116zM200 382h437q-5 81 -60 131.5t-136 50.5q-82 0 -147.5 -49.5t-93.5 -132.5zM624 281h-437q10 -81 64 -130.5t133 -49.5q80 0 145 49t95 131z" />
<glyph unicode="&#x4e9;" horiz-adv-x="562" d="M308 444q99 0 159.5 -55.5t60.5 -146.5q0 -107 -80 -180.5t-198 -73.5q-96 0 -157 56t-61 144q0 106 80.5 181t195.5 75zM160 254h249q-2 26 -13 46q-14 23 -41.5 37t-58.5 14q-96 0 -136 -97zM400 179h-248q3 -25 13 -46q28 -52 97 -52q34 0 66.5 15.5t50.5 41.5 q5 7 21 41z" />
<glyph unicode="&#x4ee;" horiz-adv-x="576" d="M49 0l176 252l-170 415h152l103 -292l176 292h152l-451 -667h-138zM186 829h337l-10 -80h-337z" />
<glyph unicode="&#x4ef;" horiz-adv-x="535" d="M186 65l-159 368h141l99 -246l154 246h138l-431 -664h-137zM152 584h320l-9 -80h-321z" />
<glyph unicode="&#x1e1e;" horiz-adv-x="426" d="M49 0l82 667h315l-15 -123h-182l-18 -148h182l-15 -123h-182l-33 -273h-134zM304 863q28 0 48.5 -20.5t20.5 -49.5t-20.5 -49.5t-49.5 -20.5t-49.5 20.5t-20.5 50.5q0 28 21 48.5t50 20.5z" />
<glyph unicode="&#x1e80;" horiz-adv-x="878" d="M54 667h134l47 -340q6 -43 6 -64q0 -18 -3 -48l8 -2q10 51 31 99l153 355h121l48 -343q5 -34 5 -68q0 -14 -3 -45l9 -1q8 46 35 109l148 348h139l-287 -667h-123l-51 356q-6 42 -6 73q0 13 3 40l-8 2q-8 -45 -28 -94l-163 -377h-122zM383 822l99 53l80 -125l-66 -33z" />
<glyph unicode="&#x1e81;" horiz-adv-x="735" d="M13 404h121l41 -157q14 -53 14 -88q0 -14 -2 -25l8 -2q13 49 44 104l96 168h98l41 -157q12 -46 12 -90v-24l8 -1q7 36 47 110l93 162h126l-232 -404h-98l-42 162q-16 61 -16 99l1 22l-8 1q-13 -53 -45 -107l-102 -177h-98zM258 591l107 52l76 -143l-71 -33z" />
<glyph unicode="&#x1e82;" horiz-adv-x="878" d="M54 667h134l47 -340q6 -43 6 -64q0 -18 -3 -48l8 -2q10 51 31 99l153 355h121l48 -343q5 -34 5 -68q0 -14 -3 -45l9 -1q8 46 35 109l148 348h139l-287 -667h-123l-51 356q-6 42 -6 73q0 13 3 40l-8 2q-8 -45 -28 -94l-163 -377h-122zM620 792l-160 -75l-52 50l139 108z " />
<glyph unicode="&#x1e83;" horiz-adv-x="735" d="M13 404h121l41 -157q14 -53 14 -88q0 -14 -2 -25l8 -2q13 49 44 104l96 168h98l41 -157q12 -46 12 -90v-24l8 -1q7 36 47 110l93 162h126l-232 -404h-98l-42 162q-16 61 -16 99l1 22l-8 1q-13 -53 -45 -107l-102 -177h-98zM557 569l-150 -102l-64 44l124 132z" />
<glyph unicode="&#x1e84;" horiz-adv-x="878" d="M54 667h134l47 -340q6 -43 6 -64q0 -18 -3 -48l8 -2q10 51 31 99l153 355h121l48 -343q5 -34 5 -68q0 -14 -3 -45l9 -1q8 46 35 109l148 348h139l-287 -667h-123l-51 356q-6 42 -6 73q0 13 3 40l-8 2q-8 -45 -28 -94l-163 -377h-122zM406 863q28 0 48.5 -20.5t20.5 -49.5 t-20.5 -49.5t-49.5 -20.5t-49.5 20.5t-20.5 50.5q0 28 21 48.5t50 20.5zM599 863q28 0 48.5 -20.5t20.5 -49.5t-20.5 -49.5t-49.5 -20.5t-49.5 20.5t-20.5 50.5q0 28 21 48.5t50 20.5z" />
<glyph unicode="&#x1e85;" horiz-adv-x="735" d="M13 404h121l41 -157q14 -53 14 -88q0 -14 -2 -25l8 -2q13 49 44 104l96 168h98l41 -157q12 -46 12 -90v-24l8 -1q7 36 47 110l93 162h126l-232 -404h-98l-42 162q-16 61 -16 99l1 22l-8 1q-13 -53 -45 -107l-102 -177h-98zM293 613q27 0 46.5 -19.5t19.5 -46.5 q0 -28 -19.5 -47.5t-47.5 -19.5q-27 0 -46.5 19.5t-19.5 47.5t19.5 47t47.5 19zM481 613q26 0 45.5 -19.5t19.5 -46.5q0 -28 -19.5 -47.5t-46.5 -19.5q-28 0 -47.5 19.5t-19.5 47.5t19.5 47t48.5 19z" />
<glyph unicode="&#x1ea0;" horiz-adv-x="620" d="M-15 0l336 667h129l142 -667h-138l-22 109h-246l-54 -109h-147zM408 232l-33 166q-9 40 -9 73q0 15 2 34l-9 1q-9 -46 -44 -120l-74 -154h167zM299 -25q31 0 53 -22.5t22 -53.5q0 -32 -22 -54.5t-54 -22.5t-54.5 22.5t-22.5 54.5q0 31 23 53.5t55 22.5z" />
<glyph unicode="&#x1ea1;" horiz-adv-x="535" d="M377 404h121l-49 -404h-125l11 57q-36 -38 -67.5 -54t-71.5 -16q-73 0 -118.5 52t-45.5 136q0 104 57.5 173t145.5 69q44 0 73 -15.5t62 -55.5zM272 319q-45 0 -76 -36.5t-31 -89.5q0 -44 23 -70.5t62 -26.5q45 0 75 36t30 91q0 44 -22.5 70t-60.5 26zM225 -47 q31 0 53 -22.5t22 -53.5q0 -32 -22 -54.5t-54 -22.5t-54.5 22.5t-22.5 54.5q0 31 23 53.5t55 22.5z" />
<glyph unicode="&#x1ea2;" horiz-adv-x="620" d="M-15 0l336 667h129l142 -667h-138l-22 109h-246l-54 -109h-147zM408 232l-33 166q-9 40 -9 73q0 15 2 34l-9 1q-9 -46 -44 -120l-74 -154h167zM423 773h-53l16 73q30 6 38 6q33 5 45 13.5t12 27.5q0 26 -41 26q-18 0 -38 -11q-10 -4 -24 -10l-8 45l7 3l3 1q52 18 92 18 q39 0 62 -18.5t23 -49.5q0 -38 -28.5 -62t-74.5 -24h-23z" />
<glyph unicode="&#x1ea3;" horiz-adv-x="535" d="M377 404h121l-49 -404h-125l11 57q-36 -38 -67.5 -54t-71.5 -16q-73 0 -118.5 52t-45.5 136q0 104 57.5 173t145.5 69q44 0 73 -15.5t62 -55.5zM272 319q-45 0 -76 -36.5t-31 -89.5q0 -44 23 -70.5t62 -26.5q45 0 75 36t30 91q0 44 -22.5 70t-60.5 26zM294 501h-54l16 73 q36 6 38 6q33 5 45 13.5t12 27.5q0 26 -40 26q-17 0 -39 -11q-3 0 -23 -10l-8 45l7 3l3 1q51 18 91 18q39 0 62 -18.5t23 -49.5q0 -38 -28.5 -62t-74.5 -24h-22z" />
<glyph unicode="&#x1ea4;" horiz-adv-x="620" d="M467 839l128 99l72 -82l-142 -68l23 -19l-61 -52l-81 66l-124 -66l-42 61l185 99zM-15 0l336 667h129l142 -667h-138l-22 109h-246l-54 -109h-147zM408 232l-33 166q-9 40 -9 73q0 15 2 34l-9 1q-9 -46 -44 -120l-74 -154h167z" />
<glyph unicode="&#x1ea5;" horiz-adv-x="535" d="M390 592l102 109l90 -74l-136 -97l16 -18l-73 -45l-65 73l-109 -73l-50 67l176 111zM377 404h121l-49 -404h-125l11 57q-36 -38 -67.5 -54t-71.5 -16q-73 0 -118.5 52t-45.5 136q0 104 58 173t145 69q43 0 72 -15t63 -56zM272 319q-45 0 -76 -36.5t-31 -89.5 q0 -44 23 -70.5t62 -26.5q45 0 75 36t30 91q0 44 -22.5 70t-60.5 26z" />
<glyph unicode="&#x1ea6;" horiz-adv-x="620" d="M268 793l-102 95l99 53l71 -112l89 48l123 -108l-61 -52l-81 66l-124 -66l-42 61zM-15 0l336 667h129l142 -667h-138l-22 109h-246l-54 -109h-147zM408 232l-33 166q-9 40 -9 73q0 15 2 34l-9 1q-9 -46 -44 -120l-74 -154h167z" />
<glyph unicode="&#x1ea7;" horiz-adv-x="535" d="M194 552l-99 111l107 52l63 -118l76 48l121 -133l-73 -45l-65 73l-109 -73l-50 67zM377 404h121l-49 -404h-125l11 57q-36 -38 -67.5 -54t-71.5 -16q-73 0 -118.5 52t-45.5 136q0 104 58 173t145 69q43 0 72 -15t63 -56zM272 319q-45 0 -76 -36.5t-31 -89.5 q0 -44 23 -70.5t62 -26.5q45 0 75 36t30 91q0 44 -22.5 70t-60.5 26z" />
<glyph unicode="&#x1ea8;" horiz-adv-x="620" d="M495 814l10 48q8 1 18 2.5t15 2.5t6 1q33 5 45 13t12 27q0 27 -41 27q-18 0 -39 -11q-14 -6 -23 -10l-8 45l7 3l3 1q51 18 92 18q39 0 62 -18t23 -49q0 -39 -28.5 -63t-74.5 -24h-23l-8 -38h-19l24 -21l-61 -52l-81 66l-124 -66l-42 62l185 98zM-15 0l336 667h129 l142 -667h-138l-22 109h-246l-54 -109h-147zM408 232l-33 166q-9 40 -9 73q0 15 2 34l-9 1q-9 -46 -44 -120l-74 -154h167z" />
<glyph unicode="&#x1ea9;" horiz-adv-x="535" d="M418 560l10 47q36 6 38 6q33 5 45 13t12 27q0 27 -40 27q-17 0 -39 -11q-7 -3 -15 -6l-8 -4l-8 45q6 2 7 2l3 2q49 18 91 18q39 0 62 -18.5t23 -49.5q0 -38 -28.5 -62.5t-74.5 -24.5h-22l-8 -38h-23l19 -21l-73 -46l-65 73l-109 -73l-50 67l176 112zM377 404h121 l-49 -404h-125l11 57q-36 -38 -67.5 -54t-71.5 -16q-73 0 -118.5 52t-45.5 136q0 104 58 173t145 69q43 0 72 -15t63 -56zM272 319q-45 0 -76 -36.5t-31 -89.5q0 -44 23 -70.5t62 -26.5q45 0 75 36t30 91q0 44 -22.5 70t-60.5 26z" />
<glyph unicode="&#x1eaa;" horiz-adv-x="620" d="M-15 0l336 667h129l142 -667h-138l-22 109h-246l-54 -109h-147zM408 232l-33 166q-9 40 -9 73q0 15 2 34l-9 1q-9 -46 -44 -120l-74 -154h167zM240 778l185 99l123 -108l-61 -52l-81 66l-124 -66zM305 898h-67q31 120 122 120q30 0 71 -24q36 -20 55 -20q18 0 27.5 8 t20.5 30h67q-32 -120 -124 -120q-30 0 -69 20q-44 22 -61 22q-16 0 -25 -7.5t-17 -28.5z" />
<glyph unicode="&#x1eab;" horiz-adv-x="535" d="M377 404h121l-49 -404h-125l11 57q-36 -38 -67.5 -54t-71.5 -16q-73 0 -118.5 52t-45.5 136q0 104 57.5 173t145.5 69q44 0 73 -15.5t62 -55.5zM272 319q-45 0 -76 -36.5t-31 -89.5q0 -44 23 -70.5t62 -26.5q45 0 75 36t30 91q0 44 -22.5 70t-60.5 26zM165 534l176 111 l121 -133l-73 -45l-65 73l-109 -73zM243 668h-67q15 58 45 89t71 31q28 0 71 -24q33 -20 55 -20q16 0 25.5 8t19.5 30h68q-31 -120 -122 -120q-30 0 -68 19q-33 17 -40 20t-18 3q-17 0 -25.5 -8t-14.5 -28z" />
<glyph unicode="&#x1eac;" horiz-adv-x="620" d="M-15 0l336 667h129l142 -667h-138l-22 109h-246l-54 -109h-147zM408 232l-33 166q-9 40 -9 73q0 15 2 34l-9 1q-9 -46 -44 -120l-74 -154h167zM240 778l185 99l123 -108l-61 -52l-81 66l-124 -66zM293 -25q31 0 53 -22.5t22 -53.5q0 -32 -22 -54.5t-54 -22.5t-54.5 22.5 t-22.5 54.5q0 31 23 53.5t55 22.5z" />
<glyph unicode="&#x1ead;" horiz-adv-x="535" d="M377 404h121l-49 -404h-125l11 57q-36 -38 -67.5 -54t-71.5 -16q-73 0 -118.5 52t-45.5 136q0 104 57.5 173t145.5 69q44 0 73 -15.5t62 -55.5zM272 319q-45 0 -76 -36.5t-31 -89.5q0 -44 23 -70.5t62 -26.5q45 0 75 36t30 91q0 44 -22.5 70t-60.5 26zM165 534l176 111 l121 -133l-73 -45l-65 73l-109 -73zM228 -46q31 0 53 -22.5t22 -53.5q0 -32 -22 -54.5t-54 -22.5t-54.5 22.5t-22.5 54.5q0 31 23 53.5t55 22.5z" />
<glyph unicode="&#x1eae;" horiz-adv-x="620" d="M-15 0l336 667h129l142 -667h-138l-22 109h-246l-54 -109h-147zM408 232l-33 166q-9 40 -9 73q0 15 2 34l-9 1q-9 -46 -44 -120l-74 -154h167zM256 860h81q-1 -3 -1 -7q-3 -61 55 -61q33 0 53 15t38 53h82q-45 -140 -176 -140q-61 0 -97 33.5t-36 90.5q0 10 1 16z M560 911l-159 -76l-53 51l139 108z" />
<glyph unicode="&#x1eaf;" horiz-adv-x="535" d="M377 404h121l-49 -404h-125l11 57q-36 -38 -67.5 -54t-71.5 -16q-73 0 -118.5 52t-45.5 136q0 104 57.5 173t145.5 69q44 0 73 -15.5t62 -55.5zM272 319q-45 0 -76 -36.5t-31 -89.5q0 -44 23 -70.5t62 -26.5q45 0 75 36t30 91q0 44 -22.5 70t-60.5 26zM179 623h83 q0 -46 11 -63.5t40 -17.5q30 0 49 18t35 63h83q-43 -153 -172 -153q-59 0 -94 36t-35 98v19zM490 694l-151 -103l-63 44l124 133z" />
<glyph unicode="&#x1eb0;" horiz-adv-x="620" d="M-15 0l336 667h129l142 -667h-138l-22 109h-246l-54 -109h-147zM408 232l-33 166q-9 40 -9 73q0 15 2 34l-9 1q-9 -46 -44 -120l-74 -154h167zM256 860h81q-1 -3 -1 -7q-3 -61 55 -61q33 0 53 15t38 53h82q-45 -140 -176 -140q-61 0 -97 33.5t-36 90.5q0 10 1 16z M281 938l100 52l79 -124l-66 -34z" />
<glyph unicode="&#x1eb1;" horiz-adv-x="535" d="M377 404h121l-49 -404h-125l11 57q-36 -38 -67.5 -54t-71.5 -16q-73 0 -118.5 52t-45.5 136q0 104 57.5 173t145.5 69q44 0 73 -15.5t62 -55.5zM272 319q-45 0 -76 -36.5t-31 -89.5q0 -44 23 -70.5t62 -26.5q45 0 75 36t30 91q0 44 -22.5 70t-60.5 26zM179 623h83 q0 -46 11 -63.5t40 -17.5q30 0 49 18t35 63h83q-43 -153 -172 -153q-59 0 -94 36t-35 98v19zM196 717l107 53l76 -143l-71 -34z" />
<glyph unicode="&#x1eb2;" horiz-adv-x="620" d="M-15 0l336 667h129l142 -667h-138l-22 109h-246l-54 -109h-147zM408 232l-33 166q-9 40 -9 73q0 15 2 34l-9 1q-9 -46 -44 -120l-74 -154h167zM256 860h81q-1 -3 -1 -7q-3 -61 55 -61q33 0 53 15t38 53h82q-45 -140 -176 -140q-61 0 -97 33.5t-36 90.5q0 10 1 16z M432 847h-54l16 73q36 6 38 6q33 5 45 13.5t12 27.5q0 26 -40 26q-17 0 -39 -11q-3 0 -23 -10l-8 45l7 3l3 1q48 18 91 18q39 0 62 -18.5t23 -49.5q0 -39 -28.5 -63t-74.5 -24q-12 0 -22 1z" />
<glyph unicode="&#x1eb3;" horiz-adv-x="535" d="M377 404h121l-49 -404h-125l11 57q-36 -38 -67.5 -54t-71.5 -16q-73 0 -118.5 52t-45.5 136q0 104 57.5 173t145.5 69q44 0 73 -15.5t62 -55.5zM272 319q-45 0 -76 -36.5t-31 -89.5q0 -44 23 -70.5t62 -26.5q45 0 75 36t30 91q0 44 -22.5 70t-60.5 26zM179 623h83 q0 -46 11 -63.5t40 -17.5q30 0 49 18t35 63h83q-43 -153 -172 -153q-59 0 -94 36t-35 98v19zM346 599h-54l16 73l38 6q34 5 45.5 13.5t11.5 27.5q0 26 -41 26q-16 0 -38 -11q-6 0 -23 -10l-8 45l6 3l4 1q51 18 91 18q39 0 62 -18.5t23 -49.5q0 -38 -28.5 -62t-74.5 -24h-22z " />
<glyph unicode="&#x1eb4;" horiz-adv-x="620" d="M-15 0l336 667h129l142 -667h-138l-22 109h-246l-54 -109h-147zM408 232l-33 166q-9 40 -9 73q0 15 2 34l-9 1q-9 -46 -44 -120l-74 -154h167zM256 860h81q-1 -3 -1 -7q-3 -61 55 -61q33 0 53 15t38 53h82q-45 -140 -176 -140q-61 0 -97 33.5t-36 90.5q0 10 1 16z M300 893h-67q31 120 123 120q29 0 70 -24q36 -20 55 -20q18 0 28 8t20 30h68q-31 -120 -124 -120q-32 0 -69 20q-45 22 -62 22q-16 0 -24.5 -7.5t-17.5 -28.5z" />
<glyph unicode="&#x1eb5;" horiz-adv-x="535" d="M377 404h121l-49 -404h-125l11 57q-36 -38 -67.5 -54t-71.5 -16q-73 0 -118.5 52t-45.5 136q0 104 57.5 173t145.5 69q44 0 73 -15.5t62 -55.5zM272 319q-45 0 -76 -36.5t-31 -89.5q0 -44 23 -70.5t62 -26.5q45 0 75 36t30 91q0 44 -22.5 70t-60.5 26zM179 623h83 q0 -46 11 -63.5t40 -17.5q30 0 49 18t35 63h83q-43 -153 -172 -153q-59 0 -94 36t-35 98v19zM232 656h-67q14 58 44.5 89t71.5 31q28 0 70 -24q35 -20 56 -20q16 0 25.5 8t19.5 30h68q-32 -120 -122 -120q-32 0 -68 20q-43 22 -59 22q-29 0 -39 -36z" />
<glyph unicode="&#x1eb6;" horiz-adv-x="620" d="M-15 0l336 667h129l142 -667h-138l-22 109h-246l-54 -109h-147zM408 232l-33 166q-9 40 -9 73q0 15 2 34l-9 1q-9 -46 -44 -120l-74 -154h167zM256 860h81q-1 -3 -1 -7q-3 -61 55 -61q33 0 53 15t38 53h82q-45 -140 -176 -140q-61 0 -97 33.5t-36 90.5q0 10 1 16z M315 -25q31 0 53 -22.5t22 -53.5q0 -32 -22 -54.5t-54 -22.5t-54.5 22.5t-22.5 54.5q0 31 23 53.5t55 22.5z" />
<glyph unicode="&#x1eb7;" horiz-adv-x="535" d="M377 404h121l-49 -404h-125l11 57q-36 -38 -67.5 -54t-71.5 -16q-73 0 -118.5 52t-45.5 136q0 104 57.5 173t145.5 69q44 0 73 -15.5t62 -55.5zM272 319q-45 0 -76 -36.5t-31 -89.5q0 -44 23 -70.5t62 -26.5q45 0 75 36t30 91q0 44 -22.5 70t-60.5 26zM179 623h83 q0 -46 11 -63.5t40 -17.5q30 0 49 18t35 63h83q-43 -153 -172 -153q-59 0 -94 36t-35 98v19zM272 -25q31 0 53 -22.5t22 -53.5q0 -32 -22 -54.5t-54 -22.5t-54.5 22.5t-22.5 54.5q0 31 23 53.5t55 22.5z" />
<glyph unicode="&#x1eb8;" horiz-adv-x="469" d="M49 0l82 667h345l-15 -123h-212l-18 -148h204l-15 -123h-204l-18 -150h212l-16 -123h-345zM215 -25q31 0 53 -22.5t22 -53.5q0 -32 -22 -54.5t-54 -22.5t-54.5 22.5t-22.5 54.5q0 31 23 53.5t55 22.5z" />
<glyph unicode="&#x1eb9;" horiz-adv-x="483" d="M316 121l106 -42q-53 -92 -183 -92q-95 0 -151.5 55.5t-56.5 148.5q0 99 63.5 162.5t161.5 63.5q90 0 141.5 -54.5t51.5 -150.5q0 -20 -2 -37h-296q5 -35 18 -52q25 -30 73 -30q36 0 74 28zM162 258h176q-7 68 -74 68q-36 0 -59 -15.5t-43 -52.5zM218 -40q31 0 53 -22.5 t22 -53.5q0 -32 -22 -54.5t-54 -22.5t-54.5 22.5t-22.5 54.5q0 31 23 53.5t55 22.5z" />
<glyph unicode="&#x1eba;" horiz-adv-x="469" d="M49 0l82 667h345l-15 -123h-212l-18 -148h204l-15 -123h-204l-18 -150h212l-16 -123h-345zM329 773h-53l15 73q8 1 18 2.5t15 2.5t6 1q33 5 45 13.5t12 27.5q0 26 -41 26q-16 0 -38 -11q-10 -4 -24 -10l-8 45l7 3l3 1q51 18 92 18q39 0 62 -18.5t23 -49.5q0 -38 -29 -62 t-75 -24h-22z" />
<glyph unicode="&#x1ebb;" horiz-adv-x="483" d="M316 121l106 -42q-53 -92 -183 -92q-95 0 -151.5 55.5t-56.5 148.5q0 99 63.5 162.5t161.5 63.5q90 0 141.5 -54.5t51.5 -150.5q0 -20 -2 -37h-296q5 -35 18 -52q25 -30 73 -30q36 0 74 28zM162 258h176q-7 68 -74 68q-36 0 -59 -15.5t-43 -52.5zM296 527h-54l16 73 q30 6 38 6q33 5 45 13.5t12 27.5q0 26 -41 26q-16 0 -38 -11l-4 -2t-7.5 -3t-11.5 -5l-9 45l7 3l4 1q51 18 91 18q39 0 62 -18.5t23 -49.5q0 -38 -28.5 -62t-74.5 -24h-22z" />
<glyph unicode="&#x1ebc;" horiz-adv-x="469" d="M49 0l82 667h345l-15 -123h-212l-18 -148h204l-15 -123h-204l-18 -150h212l-16 -123h-345zM188 734h-67q31 120 123 120q29 0 70 -24q36 -20 55 -20q18 0 28 8t20 30h68q-31 -120 -124 -120q-31 0 -70 20q-44 22 -61 22q-16 0 -24.5 -7.5t-17.5 -28.5z" />
<glyph unicode="&#x1ebd;" horiz-adv-x="483" d="M316 121l106 -42q-53 -92 -183 -92q-95 0 -151.5 55.5t-56.5 148.5q0 99 63.5 162.5t161.5 63.5q90 0 141.5 -54.5t51.5 -150.5q0 -20 -2 -37h-296q5 -35 18 -52q25 -30 73 -30q36 0 74 28zM162 258h176q-7 68 -74 68q-36 0 -59 -15.5t-43 -52.5zM170 491h-67 q15 58 45 89t71 31q28 0 71 -24q35 -20 55 -20q17 0 26.5 8t19.5 30h67q-32 -120 -122 -120q-32 0 -68 20q-43 22 -58 22q-16 0 -25 -8t-15 -28z" />
<glyph unicode="&#x1ebe;" horiz-adv-x="469" d="M391 836l119 93l73 -83l-132 -63l17 -14l-61 -52l-80 66l-124 -66l-42 61l184 99zM49 0l82 667h345l-15 -123h-212l-18 -148h204l-15 -123h-204l-18 -150h212l-16 -123h-345z" />
<glyph unicode="&#x1ebf;" horiz-adv-x="483" d="M351 595l97 103l90 -74l-131 -90l20 -22l-73 -45l-66 73l-109 -73l-50 67l177 111zM316 121l106 -42q-53 -92 -183 -92q-95 0 -151.5 55.5t-56.5 148.5q0 99 63 162.5t161 63.5q91 0 142.5 -54.5t51.5 -150.5q0 -20 -2 -37h-296q5 -35 18 -52q25 -30 73 -30q36 0 74 28z M162 258h176q-7 68 -74 68q-36 0 -59 -15.5t-43 -52.5z" />
<glyph unicode="&#x1ec0;" horiz-adv-x="469" d="M188 792l-103 96l100 53l71 -112l89 48l123 -108l-61 -52l-80 66l-124 -66l-42 61zM49 0l82 667h345l-15 -123h-212l-18 -148h204l-15 -123h-204l-18 -150h212l-16 -123h-345z" />
<glyph unicode="&#x1ec1;" horiz-adv-x="483" d="M152 548l-96 106l108 53l60 -113l82 51l121 -133l-73 -45l-66 73l-109 -73l-50 67zM316 121l106 -42q-53 -92 -183 -92q-95 0 -151.5 55.5t-56.5 148.5q0 99 63 162.5t161 63.5q91 0 142.5 -54.5t51.5 -150.5q0 -20 -2 -37h-296q5 -35 18 -52q25 -30 73 -30q36 0 74 28z M162 258h176q-7 68 -74 68q-36 0 -59 -15.5t-43 -52.5z" />
<glyph unicode="&#x1ec2;" horiz-adv-x="469" d="M416 815l10 48q8 1 18 2.5t15 2.5t6 1q33 5 45 13t12 27q0 27 -41 27q-18 0 -39 -11q-14 -6 -23 -10l-8 45l7 3l3 1q51 18 92 18q39 0 62 -18t23 -49q0 -39 -28.5 -63t-74.5 -24h-23l-8 -38h-20l24 -21l-61 -52l-80 66l-124 -66l-42 61l184 99zM49 0l82 667h345l-15 -123 h-212l-18 -148h204l-15 -123h-204l-18 -150h212l-16 -123h-345z" />
<glyph unicode="&#x1ec3;" horiz-adv-x="483" d="M382 561l11 52q7 1 16.5 2.5t14.5 2.5t7 1q33 5 45 13t12 27q0 26 -41 26q-16 0 -38 -10q-4 -2 -24 -10l-8 45l7 2l3 1q50 18 92 18q39 0 62 -18t23 -49q0 -39 -28.5 -63t-74.5 -24h-23l-8 -38h-28l25 -27l-73 -45l-66 73l-109 -73l-50 67l177 112zM316 121l106 -42 q-53 -92 -183 -92q-95 0 -151.5 55.5t-56.5 148.5q0 99 63 162.5t161 63.5q91 0 142.5 -54.5t51.5 -150.5q0 -20 -2 -37h-296q5 -35 18 -52q25 -30 73 -30q36 0 74 28zM162 258h176q-7 68 -74 68q-36 0 -59 -15.5t-43 -52.5z" />
<glyph unicode="&#x1ec4;" horiz-adv-x="469" d="M49 0l82 667h345l-15 -123h-212l-18 -148h204l-15 -123h-204l-18 -150h212l-16 -123h-345zM161 778l184 99l123 -108l-61 -52l-80 66l-124 -66zM235 903h-67q31 120 123 120q29 0 70 -24q35 -21 55 -21q18 0 28 8t20 31h68q-16 -64 -48.5 -92.5t-87.5 -28.5q-18 0 -27 3 t-30 17q-35 23 -64 23q-14 0 -22.5 -7.5t-17.5 -28.5z" />
<glyph unicode="&#x1ec5;" horiz-adv-x="483" d="M316 121l106 -42q-53 -92 -183 -92q-95 0 -151.5 55.5t-56.5 148.5q0 99 63.5 162.5t161.5 63.5q90 0 141.5 -54.5t51.5 -150.5q0 -20 -2 -37h-296q5 -35 18 -52q25 -30 73 -30q36 0 74 28zM162 258h176q-7 68 -74 68q-36 0 -59 -15.5t-43 -52.5zM129 534l177 111 l121 -133l-73 -45l-66 73l-109 -73zM204 658h-67q14 57 45 88.5t72 31.5q28 0 70 -24q35 -20 55 -20q17 0 26.5 8t19.5 30h68q-32 -120 -122 -120q-30 0 -69 20q-41 22 -58 22q-29 0 -40 -36z" />
<glyph unicode="&#x1ec6;" horiz-adv-x="469" d="M49 0l82 667h345l-15 -123h-212l-18 -148h204l-15 -123h-204l-18 -150h212l-16 -123h-345zM161 778l184 99l123 -108l-61 -52l-80 66l-124 -66zM240 -25q31 0 53 -22.5t22 -53.5q0 -32 -22 -54.5t-54 -22.5t-54.5 22.5t-22.5 54.5q0 31 23 53.5t55 22.5z" />
<glyph unicode="&#x1ec7;" horiz-adv-x="483" d="M316 121l106 -42q-53 -92 -183 -92q-95 0 -151.5 55.5t-56.5 148.5q0 99 63.5 162.5t161.5 63.5q90 0 141.5 -54.5t51.5 -150.5q0 -20 -2 -37h-296q5 -35 18 -52q25 -30 73 -30q36 0 74 28zM162 258h176q-7 68 -74 68q-36 0 -59 -15.5t-43 -52.5zM129 534l177 111 l121 -133l-73 -45l-66 73l-109 -73zM229 -36q31 0 53 -22.5t22 -53.5q0 -32 -22 -54.5t-54 -22.5t-54.5 22.5t-22.5 54.5q0 31 23 53.5t55 22.5z" />
<glyph unicode="&#x1ec8;" horiz-adv-x="287" d="M49 0l82 667h134l-82 -667h-134zM233 773h-53l16 73q33 6 38 6q33 5 45 13.5t12 27.5q0 26 -41 26q-16 0 -38 -11q-20 -8 -24 -10l-8 45l7 3l3 1q52 18 92 18q39 0 62 -18.5t23 -49.5q0 -38 -28.5 -62t-74.5 -24h-23z" />
<glyph unicode="&#x1ec9;" horiz-adv-x="239" d="M202 404l-49 -404h-123l50 404h122zM172 527h-54l16 73q30 6 38 6q33 4 45 13t12 28q0 26 -41 26q-16 0 -38 -11q-4 -1 -16 -7l-7 -3l-8 45l6 3l4 1q51 18 91 18q39 0 62 -18.5t23 -49.5q0 -38 -28.5 -62t-74.5 -24h-22z" />
<glyph unicode="&#x1eca;" horiz-adv-x="287" d="M49 0l82 667h134l-82 -667h-134zM108 -42q31 0 53 -22.5t22 -53.5q0 -32 -22 -54.5t-54 -22.5t-54.5 22.5t-22.5 54.5q0 31 23 53.5t55 22.5z" />
<glyph unicode="&#x1ecb;" horiz-adv-x="226" d="M202 404l-50 -404h-122l49 404h123zM161 630q29 0 50.5 -21.5t21.5 -51.5q0 -31 -21.5 -52.5t-51.5 -21.5q-31 0 -52.5 21.5t-21.5 52.5t21.5 52t53.5 21zM85 -38q31 0 53 -22.5t22 -53.5q0 -32 -22 -54.5t-54 -22.5t-54.5 22.5t-22.5 54.5q0 31 23 53.5t55 22.5z" />
<glyph unicode="&#x1ecc;" horiz-adv-x="760" d="M410 680q145 0 234 -88.5t89 -231.5q0 -153 -97 -261q-101 -112 -258 -112q-147 0 -238 93q-86 89 -86 234q0 157 101.5 261.5t254.5 104.5zM413 547q-92 0 -154 -67t-62 -167q0 -87 51 -140t134 -53q96 0 153 74q55 71 55 162q0 86 -49 138.5t-128 52.5zM380 -53 q31 0 53 -22.5t22 -53.5q0 -32 -22 -54.5t-54 -22.5t-54.5 22.5t-22.5 54.5q0 31 23 53.5t55 22.5z" />
<glyph unicode="&#x1ecd;" horiz-adv-x="513" d="M260 417q95 0 155.5 -58t60.5 -150q0 -95 -64.5 -158.5t-160.5 -63.5q-98 0 -159 57t-61 149q0 95 66 159.5t163 64.5zM259 308q-41 0 -68.5 -32.5t-27.5 -81.5q0 -44 23 -71t61 -27q43 0 70 32.5t27 83.5q0 44 -23 70t-62 26zM242 -44q31 0 53 -22.5t22 -53.5 q0 -32 -22 -54.5t-54 -22.5t-54.5 22.5t-22.5 54.5q0 31 23 53.5t55 22.5z" />
<glyph unicode="&#x1ece;" horiz-adv-x="760" d="M410 680q145 0 234 -88.5t89 -231.5q0 -153 -97 -261q-101 -112 -258 -112q-147 0 -238 93q-86 89 -86 234q0 157 101.5 261.5t254.5 104.5zM413 547q-92 0 -154 -67t-62 -167q0 -87 51 -140t134 -53q96 0 153 74q55 71 55 162q0 86 -49 138.5t-128 52.5zM433 773h-53 l16 73q33 6 38 6q33 5 45 13.5t12 27.5q0 26 -41 26q-16 0 -38 -11q-18 -7 -23 -10l-9 45l7 3l4 1q51 18 91 18q39 0 62 -18.5t23 -49.5q0 -38 -28.5 -62t-74.5 -24h-22z" />
<glyph unicode="&#x1ecf;" horiz-adv-x="513" d="M260 417q95 0 155.5 -58t60.5 -150q0 -95 -64.5 -158.5t-160.5 -63.5q-98 0 -159 57t-61 149q0 95 66 159.5t163 64.5zM259 308q-41 0 -68.5 -32.5t-27.5 -81.5q0 -44 23 -71t61 -27q43 0 70 32.5t27 83.5q0 44 -23 70t-62 26zM301 505h-54l16 73q11 2 24 4.5t14 2.5 q33 4 45 12.5t12 27.5q0 26 -40 26q-17 0 -39 -10q-3 -2 -16 -7l-7 -3l-8 45l7 2l3 1q50 18 91 18q39 0 62 -18.5t23 -49.5q0 -38 -28.5 -62t-74.5 -24h-22z" />
<glyph unicode="&#x1ed0;" horiz-adv-x="760" d="M532 835l130 100l73 -82l-145 -69l17 -15l-60 -52l-81 66l-124 -66l-42 61l184 99zM411 680q144 0 233 -88.5t89 -231.5q0 -153 -97 -261q-101 -112 -259 -112q-142 0 -232.5 89t-90.5 229q0 164 100.5 269.5t256.5 105.5zM413 547q-92 0 -153.5 -67t-61.5 -167 q0 -87 51 -140t134 -53q95 0 152 74q55 71 55 162q0 86 -49 138.5t-128 52.5z" />
<glyph unicode="&#x1ed1;" horiz-adv-x="513" d="M366 595l103 110l89 -75l-138 -94l22 -24l-73 -45l-66 73l-109 -73l-50 67l177 111zM261 417q95 0 155 -58.5t60 -149.5q0 -95 -64.5 -158.5t-160.5 -63.5t-158 56.5t-62 144.5q0 98 65.5 163.5t164.5 65.5zM259 308q-41 0 -68.5 -32.5t-27.5 -81.5q0 -44 23 -71t61 -27 q43 0 70 32.5t27 83.5q0 44 -23 70t-62 26z" />
<glyph unicode="&#x1ed2;" horiz-adv-x="760" d="M323 790l-103 97l99 52l72 -112l93 50l123 -108l-60 -52l-81 66l-124 -66l-42 61zM411 680q144 0 233 -88.5t89 -231.5q0 -153 -97 -261q-101 -112 -259 -112q-142 0 -232.5 89t-90.5 229q0 164 100.5 269.5t256.5 105.5zM413 547q-92 0 -153.5 -67t-61.5 -167 q0 -87 51 -140t134 -53q95 0 152 74q55 71 55 162q0 86 -49 138.5t-128 52.5z" />
<glyph unicode="&#x1ed3;" horiz-adv-x="513" d="M167 548l-100 111l108 52l62 -118l84 52l121 -133l-73 -45l-66 73l-109 -73l-50 67zM261 417q95 0 155 -58.5t60 -149.5q0 -95 -64.5 -158.5t-160.5 -63.5t-158 56.5t-62 144.5q0 98 65.5 163.5t164.5 65.5zM259 308q-41 0 -68.5 -32.5t-27.5 -81.5q0 -44 23 -71t61 -27 q43 0 70 32.5t27 83.5q0 44 -23 70t-62 26z" />
<glyph unicode="&#x1ed4;" horiz-adv-x="760" d="M559 811l12 54q33 6 38 6q33 5 45 13t12 27q0 27 -41 27q-16 0 -38 -11q-18 -7 -23 -10l-9 45l7 3l4 1q51 18 91 18q39 0 62 -18t23 -49q0 -39 -28.5 -63t-74.5 -24h-22l-9 -38h-27l26 -23l-60 -52l-81 66l-124 -66l-42 61l184 99zM411 680q144 0 233 -88.5t89 -231.5 q0 -153 -97 -261q-101 -112 -259 -112q-142 0 -232.5 89t-90.5 229q0 164 100.5 269.5t256.5 105.5zM413 547q-92 0 -153.5 -67t-61.5 -167q0 -87 51 -140t134 -53q95 0 152 74q55 71 55 162q0 86 -49 138.5t-128 52.5z" />
<glyph unicode="&#x1ed5;" horiz-adv-x="513" d="M403 555l11 52q36 6 38 6q33 5 45 13t12 27q0 27 -41 27q-16 0 -38 -11q-3 -1 -24 -10l-8 45l7 2l3 2q49 18 92 18q39 0 62 -18.5t23 -49.5q0 -38 -28.5 -62.5t-74.5 -24.5h-23l-8 -38h-29l20 -21l-73 -46l-66 73l-109 -73l-50 67l177 112zM261 417q95 0 155 -58.5 t60 -149.5q0 -95 -64.5 -158.5t-160.5 -63.5t-158 56.5t-62 144.5q0 98 65.5 163.5t164.5 65.5zM259 308q-41 0 -68.5 -32.5t-27.5 -81.5q0 -44 23 -71t61 -27q43 0 70 32.5t27 83.5q0 44 -23 70t-62 26z" />
<glyph unicode="&#x1ed6;" horiz-adv-x="760" d="M410 680q145 0 234 -88.5t89 -231.5q0 -153 -97 -261q-101 -112 -258 -112q-147 0 -238 93q-86 89 -86 234q0 157 101.5 261.5t254.5 104.5zM413 547q-92 0 -154 -67t-62 -167q0 -87 51 -140t134 -53q96 0 153 74q55 71 55 162q0 86 -49 138.5t-128 52.5zM300 778l184 99 l123 -108l-60 -52l-81 66l-124 -66zM383 895h-67q31 121 122 121q30 0 71 -24q36 -20 55 -20q18 0 28 8t20 30h68q-33 -121 -125 -121q-30 0 -69 20q-44 22 -61 22q-16 0 -24.5 -7.5t-17.5 -28.5z" />
<glyph unicode="&#x1ed7;" horiz-adv-x="513" d="M260 417q95 0 155.5 -58t60.5 -150q0 -95 -64.5 -158.5t-160.5 -63.5q-98 0 -159 57t-61 149q0 95 66 159.5t163 64.5zM259 308q-41 0 -68.5 -32.5t-27.5 -81.5q0 -44 23 -71t61 -27q43 0 70 32.5t27 83.5q0 44 -23 70t-62 26zM144 534l177 111l121 -133l-73 -45l-66 73 l-109 -73zM221 671h-67q15 58 45 89t71 31q28 0 71 -24q35 -20 55 -20q16 0 25.5 8t19.5 30h68q-32 -120 -122 -120q-32 0 -68 20q-43 22 -58 22q-17 0 -25.5 -8t-14.5 -28z" />
<glyph unicode="&#x1ed8;" horiz-adv-x="760" d="M410 680q145 0 234 -88.5t89 -231.5q0 -153 -97 -261q-101 -112 -258 -112q-147 0 -238 93q-86 89 -86 234q0 157 101.5 261.5t254.5 104.5zM413 547q-92 0 -154 -67t-62 -167q0 -87 51 -140t134 -53q96 0 153 74q55 71 55 162q0 86 -49 138.5t-128 52.5zM300 778l184 99 l123 -108l-60 -52l-81 66l-124 -66zM368 -41q31 0 53 -22.5t22 -53.5q0 -32 -22 -54.5t-54 -22.5t-54.5 22.5t-22.5 54.5q0 31 23 53.5t55 22.5z" />
<glyph unicode="&#x1ed9;" horiz-adv-x="513" d="M260 417q95 0 155.5 -58t60.5 -150q0 -95 -64.5 -158.5t-160.5 -63.5q-98 0 -159 57t-61 149q0 95 66 159.5t163 64.5zM259 308q-41 0 -68.5 -32.5t-27.5 -81.5q0 -44 23 -71t61 -27q43 0 70 32.5t27 83.5q0 44 -23 70t-62 26zM144 534l177 111l121 -133l-73 -45l-66 73 l-109 -73zM240 -45q31 0 53 -22.5t22 -53.5q0 -32 -22 -54.5t-54 -22.5t-54.5 22.5t-22.5 54.5q0 31 23 53.5t55 22.5z" />
<glyph unicode="&#x1eda;" horiz-adv-x="760" d="M667 566l38 93h105l-100 -170q23 -63 23 -130q0 -152 -97 -260q-101 -112 -259 -112q-144 0 -233.5 89.5t-89.5 232.5q0 160 101 265.5t255 105.5q79 0 146.5 -30t110.5 -84zM413 547q-92 0 -154 -67t-62 -167q0 -87 51 -140t134 -53q96 0 153 74q55 71 55 162 q0 86 -49 138.5t-128 52.5zM600 792l-160 -75l-52 50l139 108z" />
<glyph unicode="&#x1edb;" horiz-adv-x="513" d="M429 345l34 85h100l-93 -167q6 -29 6 -53q0 -95 -64.5 -159t-160.5 -64q-97 0 -158.5 57t-61.5 146q0 97 66 162t164 65q110 0 168 -72zM259 308q-41 0 -68.5 -32.5t-27.5 -81.5q0 -44 23 -71t61 -27q43 0 70 32.5t27 83.5q0 44 -23 70t-62 26zM449 569l-150 -102l-64 44 l124 132z" />
<glyph unicode="&#x1edc;" horiz-adv-x="760" d="M667 566l38 93h105l-100 -170q23 -63 23 -130q0 -152 -97 -260q-101 -112 -259 -112q-144 0 -233.5 89.5t-89.5 232.5q0 160 101 265.5t255 105.5q79 0 146.5 -30t110.5 -84zM413 547q-92 0 -154 -67t-62 -167q0 -87 51 -140t134 -53q96 0 153 74q55 71 55 162 q0 86 -49 138.5t-128 52.5zM298 822l99 53l80 -125l-66 -33z" />
<glyph unicode="&#x1edd;" horiz-adv-x="513" d="M429 345l34 85h100l-93 -167q6 -29 6 -53q0 -95 -64.5 -159t-160.5 -64q-97 0 -158.5 57t-61.5 146q0 97 66 162t164 65q110 0 168 -72zM259 308q-41 0 -68.5 -32.5t-27.5 -81.5q0 -44 23 -71t61 -27q43 0 70 32.5t27 83.5q0 44 -23 70t-62 26zM174 591l107 52l76 -143 l-71 -33z" />
<glyph unicode="&#x1ede;" horiz-adv-x="760" d="M667 566l38 93h105l-100 -170q23 -63 23 -130q0 -152 -97 -260q-101 -112 -259 -112q-144 0 -233.5 89.5t-89.5 232.5q0 160 101 265.5t255 105.5q79 0 146.5 -30t110.5 -84zM413 547q-92 0 -154 -67t-62 -167q0 -87 51 -140t134 -53q96 0 153 74q55 71 55 162 q0 86 -49 138.5t-128 52.5zM444 773h-54l16 73q12 2 38 6q34 5 45.5 13.5t11.5 27.5q0 26 -41 26q-18 0 -38 -11q-15 -6 -23 -10l-9 45l7 3l4 1q51 18 91 18q39 0 62 -18.5t23 -49.5q0 -38 -28.5 -62t-74.5 -24h-22z" />
<glyph unicode="&#x1edf;" horiz-adv-x="513" d="M429 345l34 85h100l-93 -167q6 -29 6 -53q0 -95 -64.5 -159t-160.5 -64q-97 0 -158.5 57t-61.5 146q0 97 66 162t164 65q110 0 168 -72zM259 308q-41 0 -68.5 -32.5t-27.5 -81.5q0 -44 23 -71t61 -27q43 0 70 32.5t27 83.5q0 44 -23 70t-62 26zM298 527h-53l15 73 q30 6 39 6q33 5 45 13.5t12 27.5q0 26 -41 26q-17 0 -39 -11q-1 0 -16 -7l-7 -3l-8 45l7 3l3 1q51 18 92 18q39 0 62 -18.5t23 -49.5q0 -38 -29 -62t-75 -24h-22z" />
<glyph unicode="&#x1ee0;" horiz-adv-x="760" d="M667 566l38 93h105l-100 -170q23 -63 23 -130q0 -152 -97 -260q-101 -112 -259 -112q-144 0 -233.5 89.5t-89.5 232.5q0 160 101 265.5t255 105.5q79 0 146.5 -30t110.5 -84zM413 547q-92 0 -154 -67t-62 -167q0 -87 51 -140t134 -53q96 0 153 74q55 71 55 162 q0 86 -49 138.5t-128 52.5zM333 734h-67q31 120 122 120q30 0 71 -24q36 -20 55 -20q18 0 28 8t20 30h68q-32 -120 -125 -120q-30 0 -69 20q-44 22 -61 22q-16 0 -24.5 -7.5t-17.5 -28.5z" />
<glyph unicode="&#x1ee1;" horiz-adv-x="513" d="M429 345l34 85h100l-93 -167q6 -29 6 -53q0 -95 -64.5 -159t-160.5 -64q-97 0 -158.5 57t-61.5 146q0 97 66 162t164 65q110 0 168 -72zM259 308q-41 0 -68.5 -32.5t-27.5 -81.5q0 -44 23 -71t61 -27q43 0 70 32.5t27 83.5q0 44 -23 70t-62 26zM185 491h-67q15 58 45 89 t71 31q29 0 71 -24q35 -20 55 -20q17 0 26.5 8t19.5 30h67q-32 -120 -121 -120q-33 0 -69 20q-43 22 -58 22q-16 0 -25 -8t-15 -28z" />
<glyph unicode="&#x1ee2;" horiz-adv-x="760" d="M667 566l38 93h105l-100 -170q23 -63 23 -130q0 -152 -97 -260q-101 -112 -259 -112q-144 0 -233.5 89.5t-89.5 232.5q0 160 101 265.5t255 105.5q79 0 146.5 -30t110.5 -84zM413 547q-92 0 -154 -67t-62 -167q0 -87 51 -140t134 -53q96 0 153 74q55 71 55 162 q0 86 -49 138.5t-128 52.5zM370 -49q31 0 53 -22.5t22 -53.5q0 -32 -22 -54.5t-54 -22.5t-54.5 22.5t-22.5 54.5q0 31 23 53.5t55 22.5z" />
<glyph unicode="&#x1ee3;" horiz-adv-x="513" d="M429 345l34 85h100l-93 -167q6 -29 6 -53q0 -95 -64.5 -159t-160.5 -64q-97 0 -158.5 57t-61.5 146q0 97 66 162t164 65q110 0 168 -72zM259 308q-41 0 -68.5 -32.5t-27.5 -81.5q0 -44 23 -71t61 -27q43 0 70 32.5t27 83.5q0 44 -23 70t-62 26zM239 -45q31 0 53 -22.5 t22 -53.5q0 -32 -22 -54.5t-54 -22.5t-54.5 22.5t-22.5 54.5q0 31 23 53.5t55 22.5z" />
<glyph unicode="&#x1ee4;" horiz-adv-x="664" d="M131 667h133l-45 -368q-7 -59 -7 -79q0 -100 112 -100q86 0 115 69q15 40 24 113l45 365h133l-48 -392q-18 -146 -59 -199q-66 -89 -219 -89q-112 0 -179 52q-60 48 -60 144q0 38 8 106zM310 -50q31 0 53 -22.5t22 -53.5q0 -32 -22 -54.5t-54 -22.5t-54.5 22.5 t-22.5 54.5q0 31 23 53.5t55 22.5z" />
<glyph unicode="&#x1ee5;" horiz-adv-x="505" d="M80 404h122l-26 -215q-3 -18 -3 -32q0 -30 18 -46.5t51 -16.5q37 0 54 22.5t25 79.5l25 208h123l-26 -211q-12 -101 -43 -141q-49 -65 -163 -65q-90 0 -138 41t-48 117q0 17 4 59zM227 -51q31 0 53 -22.5t22 -53.5q0 -32 -22 -54.5t-54 -22.5t-54.5 22.5t-22.5 54.5 q0 31 23 53.5t55 22.5z" />
<glyph unicode="&#x1ee6;" horiz-adv-x="664" d="M131 667h133l-45 -368q-7 -59 -7 -79q0 -100 112 -100q86 0 115 69q15 40 24 113l45 365h133l-48 -392q-18 -146 -59 -199q-66 -89 -219 -89q-112 0 -179 52q-60 48 -60 144q0 38 8 106zM420 773h-53l15 73q30 5 39 6q33 5 45 13.5t12 27.5q0 26 -41 26q-18 0 -39 -11 l-23 -10l-8 45l7 3l3 1q51 18 91 18t63 -18.5t23 -49.5q0 -38 -29 -62t-75 -24h-22z" />
<glyph unicode="&#x1ee7;" horiz-adv-x="505" d="M80 404h122l-26 -215q-3 -18 -3 -32q0 -30 18 -46.5t51 -16.5q37 0 54 22.5t25 79.5l25 208h123l-26 -211q-12 -101 -43 -141q-49 -65 -163 -65q-90 0 -138 41t-48 117q0 17 4 59zM312 527h-53l16 73q28 6 38 6q33 5 45 13.5t12 27.5q0 26 -41 26q-17 0 -38 -11 q-3 -1 -17 -7l-7 -3l-8 45l7 3l3 1q51 18 92 18q39 0 62 -18.5t23 -49.5q0 -38 -29 -62t-75 -24h-22z" />
<glyph unicode="&#x1ee8;" horiz-adv-x="690" d="M131 667h133l-45 -368q-7 -59 -7 -79q0 -100 112 -100q86 0 115 69q15 40 24 113l45 365h133l-48 -392q-18 -146 -59 -199q-66 -89 -219 -89q-112 0 -179 52q-60 48 -60 144q0 38 8 106zM724 686h105l-102 -173h-74zM565 792l-159 -75l-52 50l139 108z" />
<glyph unicode="&#x1ee9;" horiz-adv-x="527" d="M80 404h122l-26 -215q-3 -18 -3 -32q0 -30 18 -46.5t51 -16.5q37 0 54 22.5t25 79.5l25 208h123l-26 -211q-12 -101 -43 -141q-49 -65 -163 -65q-90 0 -138 41t-48 117q0 17 4 59zM551 478h99l-96 -174h-72zM455 569l-150 -102l-64 44l125 132z" />
<glyph unicode="&#x1eea;" horiz-adv-x="690" d="M131 667h133l-45 -368q-7 -59 -7 -79q0 -100 112 -100q86 0 115 69q15 40 24 113l45 365h133l-48 -392q-18 -146 -59 -199q-66 -89 -219 -89q-112 0 -179 52q-60 48 -60 144q0 38 8 106zM724 686h105l-102 -173h-74zM264 822l99 53l79 -125l-66 -33z" />
<glyph unicode="&#x1eeb;" horiz-adv-x="527" d="M80 404h122l-26 -215q-3 -18 -3 -32q0 -30 18 -46.5t51 -16.5q37 0 54 22.5t25 79.5l25 208h123l-26 -211q-12 -101 -43 -141q-49 -65 -163 -65q-90 0 -138 41t-48 117q0 17 4 59zM551 478h99l-96 -174h-72zM180 591l108 52l76 -143l-72 -33z" />
<glyph unicode="&#x1eec;" horiz-adv-x="690" d="M131 667h133l-45 -368q-7 -59 -7 -79q0 -100 112 -100q86 0 115 69q15 40 24 113l45 365h133l-48 -392q-18 -146 -59 -199q-66 -89 -219 -89q-112 0 -179 52q-60 48 -60 144q0 38 8 106zM724 686h105l-102 -173h-74zM422 773h-54l16 73q12 2 38 6q34 5 45.5 13.5 t11.5 27.5q0 26 -41 26q-18 0 -38 -11q-15 -6 -23 -10l-9 45l7 3l4 1q51 18 91 18q39 0 62 -18.5t23 -49.5q0 -38 -28.5 -62t-74.5 -24h-22z" />
<glyph unicode="&#x1eed;" horiz-adv-x="527" d="M80 404h122l-26 -215q-3 -18 -3 -32q0 -30 18 -46.5t51 -16.5q37 0 54 22.5t25 79.5l25 208h123l-26 -211q-12 -101 -43 -141q-49 -65 -163 -65q-90 0 -138 41t-48 117q0 17 4 59zM551 478h99l-96 -174h-72zM321 527h-53l15 73q30 6 39 6q33 5 45 13.5t12 27.5 q0 26 -41 26q-17 0 -38 -11q-3 -1 -17 -7l-7 -3l-8 45l7 3l3 1q51 18 92 18q39 0 62 -18.5t23 -49.5q0 -38 -29 -62t-75 -24h-22z" />
<glyph unicode="&#x1eee;" horiz-adv-x="690" d="M131 667h133l-45 -368q-7 -59 -7 -79q0 -100 112 -100q86 0 115 69q15 40 24 113l45 365h133l-48 -392q-18 -146 -59 -199q-66 -89 -219 -89q-112 0 -179 52q-60 48 -60 144q0 38 8 106zM724 686h105l-102 -173h-74zM298 734h-67q32 120 123 120q30 0 70 -24 q36 -20 56 -20q17 0 27 8t21 30h67q-31 -120 -124 -120q-30 0 -69 20q-44 22 -61 22q-16 0 -25 -7.5t-18 -28.5z" />
<glyph unicode="&#x1eef;" horiz-adv-x="527" d="M80 404h122l-26 -215q-3 -18 -3 -32q0 -30 18 -46.5t51 -16.5q37 0 54 22.5t25 79.5l25 208h123l-26 -211q-12 -101 -43 -141q-49 -65 -163 -65q-90 0 -138 41t-48 117q0 17 4 59zM551 478h99l-96 -174h-72zM192 491h-67q15 58 45 89t71 31q28 0 71 -24q35 -20 55 -20 q16 0 25.5 8t19.5 30h68q-32 -120 -122 -120q-32 0 -68 20q-44 22 -58 22q-16 0 -25 -8t-15 -28z" />
<glyph unicode="&#x1ef0;" horiz-adv-x="690" d="M131 667h133l-45 -368q-7 -59 -7 -79q0 -100 112 -100q86 0 115 69q15 40 24 113l45 365h133l-48 -392q-18 -146 -59 -199q-66 -89 -219 -89q-112 0 -179 52q-60 48 -60 144q0 38 8 106zM724 686h105l-102 -173h-74zM301 -51q31 0 53 -22.5t22 -53.5q0 -32 -22 -54.5 t-54 -22.5t-54.5 22.5t-22.5 54.5q0 31 23 53.5t55 22.5z" />
<glyph unicode="&#x1ef1;" horiz-adv-x="527" d="M80 404h122l-26 -215q-3 -18 -3 -32q0 -30 18 -46.5t51 -16.5q37 0 54 22.5t25 79.5l25 208h123l-26 -211q-12 -101 -43 -141q-49 -65 -163 -65q-90 0 -138 41t-48 117q0 17 4 59zM551 478h99l-96 -174h-72zM229 -54q31 0 53 -22.5t22 -53.5q0 -32 -22 -54.5t-54 -22.5 t-54.5 22.5t-22.5 54.5q0 31 23 53.5t55 22.5z" />
<glyph unicode="&#x1ef2;" horiz-adv-x="560" d="M189 0l36 293l-178 374h152l100 -229l153 229h162l-256 -374l-36 -293h-133zM218 822l99 53l80 -125l-66 -33z" />
<glyph unicode="&#x1ef3;" horiz-adv-x="440" d="M13 404h131l73 -253l118 253h130l-290 -588h-129l96 198zM117 591l107 52l76 -143l-71 -33z" />
<glyph unicode="&#x1ef4;" horiz-adv-x="560" d="M189 0l36 293l-178 374h152l100 -229l153 229h162l-256 -374l-36 -293h-133zM261 -44q31 0 53 -22.5t22 -53.5q0 -32 -22 -54.5t-54 -22.5t-54.5 22.5t-22.5 54.5q0 31 23 53.5t55 22.5z" />
<glyph unicode="&#x1ef5;" horiz-adv-x="440" d="M13 404h131l73 -253l118 253h130l-290 -588h-129l96 198zM343 -25q31 0 53 -22.5t22 -53.5q0 -32 -22 -54.5t-54 -22.5t-54.5 22.5t-22.5 54.5q0 31 23 53.5t55 22.5z" />
<glyph unicode="&#x1ef6;" horiz-adv-x="560" d="M189 0l36 293l-178 374h152l100 -229l153 229h162l-256 -374l-36 -293h-133zM356 773h-53l15 73q8 1 18 2.5t15 2.5t6 1q33 5 45 13.5t12 27.5q0 26 -41 26q-16 0 -38 -11q-10 -4 -24 -10l-8 45l7 3l3 1q51 18 92 18q39 0 62 -18.5t23 -49.5q0 -38 -29 -62t-75 -24h-22z " />
<glyph unicode="&#x1ef7;" horiz-adv-x="440" d="M13 404h131l73 -253l118 253h130l-290 -588h-129l96 198zM272 527h-53l16 73q33 6 38 6q33 5 45 13.5t12 27.5q0 26 -41 26q-16 0 -38 -11l-23 -10l-9 45l7 3l4 1q49 18 91 18q39 0 62 -18.5t23 -49.5q0 -38 -28.5 -62t-74.5 -24h-22z" />
<glyph unicode="&#x1ef8;" horiz-adv-x="560" d="M189 0l36 293l-178 374h152l100 -229l153 229h162l-256 -374l-36 -293h-133zM233 734h-67q32 120 123 120q30 0 70 -24q36 -20 55 -20q18 0 28 8t20 30h68q-32 -120 -124 -120q-32 0 -69 20q-45 22 -62 22q-16 0 -24.5 -7.5t-17.5 -28.5z" />
<glyph unicode="&#x1ef9;" horiz-adv-x="440" d="M13 404h131l73 -253l118 253h130l-290 -588h-129l96 198zM149 491h-67q15 58 45 89t71 31q28 0 70 -24q35 -20 56 -20q16 0 25.5 8t19.5 30h68q-32 -120 -122 -120q-32 0 -68 20q-44 22 -59 22q-30 0 -39 -36z" />
<glyph unicode="&#x2011;" horiz-adv-x="215" d="M-9 156l13 102h215l-13 -102h-215z" />
<glyph unicode="&#x2012;" horiz-adv-x="567" d="M29 156l13 102h491l-12 -102h-492z" />
<glyph unicode="&#x2013;" horiz-adv-x="567" d="M29 156l13 102h491l-12 -102h-492z" />
<glyph unicode="&#x2014;" horiz-adv-x="645" d="M-9 156l13 102h644l-12 -102h-645z" />
<glyph unicode="&#x2015;" horiz-adv-x="645" d="M-9 156l13 102h644l-12 -102h-645z" />
<glyph unicode="&#x2017;" d="M12 -46h500v-80h-500v80zM12 -163h500v-80h-500v80z" />
<glyph unicode="&#x2018;" horiz-adv-x="242" d="M58 404l118 276h67l-59 -276h-126z" />
<glyph unicode="&#x2019;" horiz-adv-x="235" d="M253 680l-117 -276h-68l59 276h126z" />
<glyph unicode="&#x201a;" horiz-adv-x="235" d="M175 120l-117 -275h-68l59 275h126z" />
<glyph unicode="&#x201b;" d="M302 477l-64 153h72l92 -153h-100z" />
<glyph unicode="&#x201c;" horiz-adv-x="435" d="M252 404l117 276h68l-59 -276h-126zM58 404l118 276h67l-59 -276h-126z" />
<glyph unicode="&#x201d;" horiz-adv-x="429" d="M253 680l-117 -276h-68l59 276h126zM447 680l-118 -276h-67l59 276h126z" />
<glyph unicode="&#x201e;" horiz-adv-x="429" d="M175 120l-117 -275h-68l59 275h126zM369 120l-118 -275h-67l59 275h126z" />
<glyph unicode="&#x2020;" horiz-adv-x="567" d="M400 729l-21 -167h149l-13 -102h-148l-76 -620h-107l77 620h-153l13 102h152l21 167h106z" />
<glyph unicode="&#x2021;" horiz-adv-x="567" d="M400 729l-20 -167h148l-13 -102h-148l-31 -250h149l-13 -102h-148l-33 -268h-106l33 268h-153l13 102h152l31 250h-153l13 102h152l21 167h106z" />
<glyph unicode="&#x2022;" horiz-adv-x="667" d="M348 479q55 0 95 -41t40 -98q0 -58 -40 -99t-97 -41t-97.5 41t-40.5 98q0 59 41 99.5t99 40.5z" />
<glyph unicode="&#x2026;" horiz-adv-x="800" d="M114 140q31 0 53 -22.5t22 -53.5q0 -32 -22 -54.5t-54 -22.5t-54.5 22.5t-22.5 54.5q0 31 23 53.5t55 22.5zM381 140q31 0 53 -22.5t22 -53.5q0 -32 -22 -54.5t-54 -22.5t-54.5 22.5t-22.5 54.5q0 31 23 53.5t55 22.5zM647 140q31 0 53 -22.5t22 -53.5q0 -32 -22 -54.5 t-54 -22.5t-54.5 22.5t-22.5 54.5q0 31 23 53.5t55 22.5z" />
<glyph unicode="&#x2030;" horiz-adv-x="1129" d="M205 673q54 0 85 -38.5t31 -105.5q0 -92 -40 -147.5t-106 -55.5q-57 0 -87.5 38t-30.5 109q0 88 41.5 144t106.5 56zM201 613q-31 0 -52.5 -40.5t-21.5 -99.5q0 -87 50 -87q33 0 53.5 39.5t20.5 101.5q0 40 -13.5 63t-36.5 23zM257 11l246 663l53 -18l-245 -663zM640 340 q54 0 85 -38.5t31 -105.5q0 -91 -40 -146.5t-106 -55.5q-57 0 -87.5 38t-30.5 108q0 88 41.5 144t106.5 56zM636 280q-31 0 -52.5 -40.5t-21.5 -99.5q0 -86 50 -86q33 0 53.5 39.5t20.5 101.5q0 40 -13.5 62.5t-36.5 22.5zM981 340q54 0 85 -38.5t31 -105.5 q0 -91 -40 -146.5t-106 -55.5q-57 0 -88 38t-31 108q0 88 42 144t107 56zM977 280q-32 0 -53.5 -40.5t-21.5 -99.5q0 -86 51 -86q32 0 53 39.5t21 101.5q0 39 -13.5 62t-36.5 23z" />
<glyph unicode="&#x2039;" horiz-adv-x="275" d="M250 348l-121 -145l84 -135l-68 -44l-114 183l158 194z" />
<glyph unicode="&#x203a;" horiz-adv-x="275" d="M20 65l121 146l-83 135l67 43l114 -182l-158 -195z" />
<glyph unicode="&#x203e;" d="M12 893h500v-117h-500v117z" />
<glyph unicode="&#x2044;" horiz-adv-x="165" d="M-60 11l249 665l62 -20l-248 -665z" />
<glyph unicode="&#x20a3;" horiz-adv-x="567" d="M60 0l82 667h307l-15 -123h-182l-18 -148h182l-15 -123h-182l-33 -273h-126zM340 0l31 248h89l-3 -29q32 37 71 37q9 0 19 -1l-10 -87q-22 5 -35 5q-29 0 -41.5 -13t-16.5 -48l-14 -112h-90z" />
<glyph unicode="&#x20a4;" horiz-adv-x="567" d="M38 206l9 69h140q-3 21 -21 58h-112l8 69h68q-23 49 -23 86q0 83 68 137.5t171 54.5q167 0 230 -142l-109 -60q-22 49 -48 67.5t-71 18.5q-48 0 -76 -23.5t-28 -64.5q0 -25 18 -60q1 -2 2 -4.5t2.5 -5.5t2.5 -4h188l-8 -69h-154q12 -33 13 -58h134l-9 -69h-138 q-22 -44 -74 -80q36 -4 82 -12q40 -8 66 -8q56 0 108 29l31 -118q-66 -30 -126 -30q-44 0 -123 17q-90 19 -126 19q-46 0 -116 -22l14 112q106 30 142 93h-135z" />
<glyph unicode="&#x20a7;" horiz-adv-x="898" d="M49 0l82 667h147q113 0 164 -29q37 -20 58.5 -65.5t21.5 -104.5q0 -134 -94 -186q-59 -32 -164 -32h-59l-31 -250h-125zM219 365h40q61 0 88 18q40 27 40 85q0 43 -25 62q-18 14 -80 14h-41zM482 0l23 180h-32l8 68h32l8 66h89l-8 -66h34l-8 -68h-34l-22 -180h-90z M644 18l23 70q36 -19 50.5 -23.5t32.5 -4.5q22 0 22 12q0 6 -6.5 9.5t-35.5 12.5q-37 12 -51.5 27.5t-14.5 43.5q0 41 29 65.5t78 24.5q44 0 97 -25l-33 -63q-37 22 -65 22q-22 0 -22 -12q0 -6 6.5 -9t40.5 -12q35 -10 50 -26.5t15 -45.5q0 -43 -29 -67.5t-79 -24.5 q-52 0 -108 26z" />
<glyph unicode="&#x20ab;" horiz-adv-x="534" d="M580 643l-10 -80h-54l-69 -563h-123l8 61q-32 -41 -63 -57.5t-75 -16.5q-75 0 -120 51.5t-45 138.5q0 103 57.5 171.5t144.5 68.5q44 0 76 -16.5t60 -55.5l27 218h-112l10 80h112l10 86h123l-11 -86h54zM266 317q-44 0 -74 -36.5t-30 -88.5q0 -44 23 -71t60 -27 q44 0 74.5 37t30.5 90q0 44 -22.5 70t-61.5 26zM23 -46h434l-13 -117h-434z" />
<glyph unicode="&#x20ac;" horiz-adv-x="567" d="M6 296h40q-1 6 -1 15q0 21 3 43h-55l30 77h40q37 118 126.5 183.5t212.5 65.5q68 0 149 -31l-49 -124q-51 22 -99 22q-60 0 -108.5 -30.5t-77.5 -85.5h249l-31 -77h-243q-4 -24 -4 -43q0 -6 1 -15h224l-30 -77h-176q22 -47 64 -73.5t96 -26.5q35 0 63 9t72 34v-140 q-60 -35 -147 -35q-110 0 -192 63.5t-107 168.5h-80z" />
<glyph unicode="&#x2101;" horiz-adv-x="961" d="M31 267l212 400h84l90 -400h-92l-14 64h-148l-33 -64h-99zM294 410l-19 94q-5 26 -5 56q-9 -30 -26 -64l-43 -86h93zM394 11l249 665l62 -20l-248 -665zM633 32l47 72q47 -27 85 -27q21 0 34.5 11t13.5 28q0 13 -8.5 22.5t-39.5 29.5q-56 38 -72 59t-16 56q0 53 39 89 t97 36q62 0 114 -37l-40 -76q-40 28 -75 28q-17 0 -28 -9t-11 -23q0 -13 8.5 -21t39.5 -27q51 -31 69.5 -56t18.5 -61q0 -56 -43 -95t-105 -39q-31 0 -56 8t-72 32z" />
<glyph unicode="&#x2105;" horiz-adv-x="889" d="M367 395l-23 -126q-52 -15 -94 -15q-87 0 -137.5 53t-50.5 145q0 104 60.5 168t157.5 64q58 0 120 -25l-21 -112q-46 20 -86 20q-46 0 -72.5 -29.5t-26.5 -79.5q0 -41 22.5 -63t63.5 -22q39 0 87 22zM653 417q95 0 155.5 -58t60.5 -150q0 -95 -64.5 -158.5t-160.5 -63.5 q-98 0 -159 57t-61 149q0 95 66 159.5t163 64.5zM652 308q-41 0 -68.5 -32.5t-27.5 -81.5q0 -44 23 -71t61 -27q43 0 70 32.5t27 83.5q0 44 -23 70t-62 26zM259 11l248 665l62 -20l-248 -665z" />
<glyph unicode="&#x2113;" d="M274 266l-13 -69q-15 -75 -15 -112q0 -30 15 -30q19 0 41 48q9 20 22 20q18 0 18 -21q0 -44 -35 -80t-77 -36q-40 0 -59 33.5t-19 105.5q0 3 2 55l-6 -6q-3 -5 -8 -8q-10 -12 -19 -12q-8 0 -13.5 8t-5.5 18q0 13 14 27q33 36 46 53q34 182 80 292q53 125 129 125 q35 0 56.5 -25.5t21.5 -68.5q0 -86 -68 -191q-24 -37 -107 -126zM289 358q47 53 74 111t27 104q0 40 -18 40q-17 0 -31 -39q-28 -84 -52 -216z" />
<glyph unicode="&#x2116;" horiz-adv-x="1109" d="M49 0l82 669h106l331 -474l57 472h124l-82 -672h-106l-332 462l-56 -457h-124zM975 476q66 0 106.5 -36.5t40.5 -95.5q0 -73 -53 -123t-131 -50q-66 0 -106.5 36.5t-40.5 95.5q0 73 53 123t131 50zM966 398q-37 0 -61 -24.5t-24 -61.5q0 -28 18.5 -45.5t47.5 -17.5 q36 0 60.5 24.5t24.5 61.5q0 28 -18.5 45.5t-47.5 17.5zM758 44l10 87h329l-10 -87h-329z" />
<glyph unicode="&#x2117;" horiz-adv-x="733" d="M357 273l-19 -140h-96l50 400h107q80 0 116 -26.5t36 -85.5q0 -71 -49 -115q-22 -19 -47.5 -26.5t-70.5 -7.5q-16 0 -27 1zM378 452l-12 -97h19q67 0 67 56q0 23 -11.5 32t-40.5 9h-22zM385 682q140 0 240.5 -103t100.5 -246q0 -144 -101.5 -246t-244.5 -102t-245 102 t-102 246q0 146 102 247.5t250 101.5zM384 619q-118 0 -200 -83t-82 -203q0 -118 81.5 -202t196.5 -84q114 0 195 84t81 202q0 117 -80.5 201.5t-191.5 84.5z" />
<glyph unicode="&#x2122;" horiz-adv-x="748" d="M86 287l37 299h-82l10 81h252l-10 -81h-77l-36 -299h-94zM273 287l124 380h84l42 -196q0 -2 1 -9.5t3 -17.5q3 8 5 10l4 9l103 204h87l12 -380h-95l-5 196l-99 -196h-64l-43 201l-65 -201h-94z" />
<glyph unicode="&#x2126;" horiz-adv-x="667" d="M40 0v117h137q-58 36 -86 74q-51 67 -51 175q0 137 86.5 227t218.5 90t218.5 -89.5t86.5 -226.5q0 -88 -31.5 -146t-104.5 -104h136v-117h-270v104q56 32 84 71q50 69 50 177q0 82 -36 138q-52 76 -133 76q-69 0 -119 -58q-50 -59 -50 -156q0 -89 32.5 -148.5 t102.5 -99.5v-104h-271z" />
<glyph unicode="&#x212e;" horiz-adv-x="597" d="M531 250h-373l-1 -105q16 -52 40 -72q38 -35 107 -35q120 0 168 104h44q-46 -148 -213 -148q-109 0 -170.5 69t-61.5 191q0 123 63 195.5t170 72.5q72 0 126.5 -34t79.5 -94q18 -47 21 -144zM458 285v93q-8 24 -23 41q-50 59 -131 59q-54 0 -86.5 -22.5t-57.5 -77.5v-93 h298z" />
<glyph unicode="&#x2202;" d="M68 552l16 113q188 -21 288 -107q127 -109 127 -289q0 -126 -67 -202t-179 -76q-97 0 -164.5 67t-67.5 162q0 90 59.5 151t147.5 61q73 0 121 -45q-28 70 -102.5 113.5t-178.5 51.5zM256 323q-44 0 -72.5 -30t-28.5 -76q0 -47 29 -78t72 -31q44 0 73 31t29 77t-29 76.5 t-73 30.5z" />
<glyph unicode="&#x2205;" horiz-adv-x="618" d="M451 667l48 -25l-48 -88q113 -80 113 -204q0 -102 -72 -172.5t-176 -70.5q-46 0 -79 16l-63 -123l-48 25l61 122q-108 80 -108 202q0 102 71 172.5t173 70.5q39 0 81 -14zM428 502l-165 -330q32 -8 58 -8q77 0 132 54.5t55 130.5q0 47 -21.5 89t-58.5 64zM212 198 l166 329q-28 8 -54 8q-78 0 -133.5 -54.5t-55.5 -130.5q0 -90 77 -152z" />
<glyph unicode="&#x2206;" horiz-adv-x="667" d="M28 0l244 667h141l249 -667h-634zM214 118h259l-130 391z" />
<glyph unicode="&#x220f;" horiz-adv-x="733" d="M52 750h653v-117h-82v-606h82v-117h-293v117h79v606h-225v-606h78v-117h-292v117h83v606h-83v117z" />
<glyph unicode="&#x2211;" horiz-adv-x="667" d="M632 750v-247h-116l-14 130h-322l249 -286l-249 -320h331l8 133h123v-250h-609v130l244 307l-244 273v130h599z" />
<glyph unicode="&#x2212;" horiz-adv-x="567" d="M54 294v93h487v-93h-487z" />
<glyph unicode="&#x2218;" d="M265 480q56 0 95.5 -41t39.5 -99t-40 -99t-97 -41t-97.5 41t-40.5 99t40.5 99t99.5 41zM264 432q-39 0 -65.5 -27t-26.5 -65t26.5 -65t64.5 -27q37 0 63.5 27t26.5 65t-26 65t-63 27z" />
<glyph unicode="&#x2219;" horiz-adv-x="267" d="M132 283q31 0 53 -22.5t22 -53.5q0 -32 -22 -54.5t-54 -22.5t-54.5 22.5t-22.5 54.5q0 31 23 53.5t55 22.5z" />
<glyph unicode="&#x221a;" horiz-adv-x="667" d="M679 827v-117h-178l-165 -710h-173l-57 270h-94v117h202l18 -85q13 -75 13 -145h11q2 45 15 135.5t28 154.5l88 380h292z" />
<glyph unicode="&#x221e;" horiz-adv-x="667" d="M349 255q-73 -79 -157 -79q-71 0 -117 46t-46 117t45.5 117t116.5 46q80 0 152 -78q69 78 155 78q72 0 118 -45.5t46 -116.5q0 -72 -45.5 -118t-116.5 -46q-81 0 -151 79zM410 339q35 -46 68 -46q21 0 35.5 13.5t14.5 32.5t-14.5 32.5t-35.5 13.5q-34 0 -68 -46zM282 339 q-35 46 -69 46q-21 0 -35.5 -13.5t-14.5 -32.5t14.5 -32.5t35.5 -13.5q35 0 69 46z" />
<glyph unicode="&#x222b;" d="M58 -240l24 116q32 -10 56 -10q57 0 57 71v18v44v476q0 125 11 167q14 50 58.5 79t108.5 29q37 0 92 -10l-24 -116q-32 10 -56 10q-57 0 -57 -71v-62v-67v-409q0 -102 -4 -136.5t-20 -60.5q-44 -78 -152 -78q-38 0 -94 10z" />
<glyph unicode="&#x223c;" d="M90 233l-71 47q32 78 65.5 108.5t86.5 30.5q35 0 103 -26q66 -23 87 -23q24 0 39 10.5t32 40.5l74 -43q-23 -47 -38 -68.5t-36 -36.5q-40 -28 -85 -28q-26 0 -103 27q-61 22 -81 22q-25 0 -44 -17q-11 -9 -29 -44z" />
<glyph unicode="&#x2243;" horiz-adv-x="667" d="M134 358l-81 51q14 24 16 28q37 64 72.5 89t89.5 25q43 0 131 -33q54 -20 70 -24.5t36 -4.5q29 0 46.5 12.5t39.5 46.5l84 -47q-41 -68 -67 -90q-51 -46 -122 -46q-34 0 -128 34q-75 27 -97 27q-34 0 -58 -22q-10 -10 -32 -46zM80 300h534v-117h-534v117z" />
<glyph unicode="&#x2248;" d="M90 340l-71 47q33 79 65.5 109t86.5 30q33 0 103 -26q64 -24 86 -24q25 0 40 10.5t32 41.5l74 -43q-23 -47 -38 -69t-36 -37q-40 -28 -85 -28q-28 0 -103 28q-61 22 -81 22q-25 0 -39.5 -12t-33.5 -49zM90 137l-71 46q32 79 65.5 109.5t86.5 30.5q31 0 103 -26 q65 -24 87 -24q24 0 39 11t32 40l74 -42q-23 -47 -38 -69t-36 -37q-40 -28 -85 -28q-28 0 -103 28q-61 22 -81 22q-25 0 -39.5 -12t-33.5 -49z" />
<glyph unicode="&#x2260;" d="M273 470l55 108l82 -43l-34 -65h102v-117h-155l-33 -66h188v-117h-241l-49 -96l-82 42l28 54h-89v117h141l35 66h-176v117h228z" />
<glyph unicode="&#x2264;" d="M478 670v-122l-296 -141l295 -140l1 -122l-433 208v109zM478 117v-117h-433v117h433z" />
<glyph unicode="&#x2265;" d="M45 145v122l296 141l-295 140l-1 122l433 -208v-109zM45 0v117h433v-117h-433z" />
<glyph unicode="&#xe000;" horiz-adv-x="405" d="M0 405h405v-405h-405v405z" />
<glyph unicode="&#xf6be;" horiz-adv-x="239" d="M202 404l-72 -591h-123l72 591h123z" />
</font>
</defs>
</svg>
