<?xml version="1.0" standalone="no"?>
<!DOCTYPE svg PUBLIC "-//W3C//DTD SVG 1.1//EN" "http://www.w3.org/Graphics/SVG/1.1/DTD/svg11.dtd" >
<svg xmlns="http://www.w3.org/2000/svg">
<metadata></metadata>
<defs>
<font id="louis_vuittonlight_oblique" horiz-adv-x="500" >
<font-face units-per-em="1000" ascent="729" descent="-271" />
<missing-glyph horiz-adv-x="250" />
<glyph unicode="ff" horiz-adv-x="447" d="M133 364l-44 -364h-40l45 364h-46l4 36h46l27 219q10 72 39 100q26 24 64 24q21 0 43 -7l-5 -38q-19 8 -35 8q-31 0 -46 -22.5t-22 -78.5l-25 -205h71l-4 -36h-72zM333 364l-44 -364h-40l45 364h-46l4 36h46l27 219q10 72 39 100q26 24 64 24q21 0 43 -7l-5 -38 q-19 8 -35 8q-31 0 -46 -22.5t-22 -78.5l-25 -205h71l-4 -36h-72z" />
<glyph unicode="fi" horiz-adv-x="390" d="M133 364l-44 -364h-40l45 364h-46l4 36h46l27 219q10 72 39 100q26 24 64 24q21 0 43 -7l-5 -38q-19 8 -35 8q-31 0 -46 -22.5t-22 -78.5l-25 -205h71l-4 -36h-72zM340 590q11 0 18 -7.5t7 -19.5q0 -14 -9 -24t-22 -10q-11 0 -18 8t-7 20q0 14 9 23.5t22 9.5zM339 400 l-50 -400h-39l49 400h40z" />
<glyph unicode="fl" horiz-adv-x="390" d="M133 364l-44 -364h-40l45 364h-46l4 36h46l27 219q10 72 39 100q26 24 64 24q21 0 43 -7l-5 -38q-19 8 -35 8q-31 0 -46 -22.5t-22 -78.5l-25 -205h71l-4 -36h-72zM378 729l-90 -729h-39l90 729h39z" />
<glyph unicode="ffi" horiz-adv-x="590" d="M133 364l-44 -364h-40l45 364h-46l4 36h46l27 219q10 72 39 100q26 24 64 24q21 0 43 -7l-5 -38q-19 8 -35 8q-31 0 -46 -22.5t-22 -78.5l-25 -205h71l-4 -36h-72zM333 364l-44 -364h-40l45 364h-46l4 36h46l27 219q10 72 39 100q26 24 64 24q21 0 43 -7l-5 -38 q-19 8 -35 8q-31 0 -46 -22.5t-22 -78.5l-25 -205h71l-4 -36h-72zM540 590q25 0 25 -27q0 -14 -9 -24t-22 -10q-25 0 -25 28q0 14 9 23.5t22 9.5zM538 400l-49 -400h-40l49 400h40z" />
<glyph unicode="ffl" horiz-adv-x="590" d="M133 364l-44 -364h-40l45 364h-46l4 36h46l27 219q10 72 39 100q26 24 64 24q21 0 43 -7l-5 -38q-19 8 -35 8q-31 0 -46 -22.5t-22 -78.5l-25 -205h71l-4 -36h-72zM333 364l-44 -364h-40l45 364h-46l4 36h46l27 219q10 72 39 100q26 24 64 24q21 0 43 -7l-5 -38 q-19 8 -35 8q-31 0 -46 -22.5t-22 -78.5l-25 -205h71l-4 -36h-72zM578 729l-89 -729h-40l90 729h39z" />
<glyph unicode=" "  horiz-adv-x="250" />
<glyph unicode="&#x09;" horiz-adv-x="250" />
<glyph unicode="&#xa0;" horiz-adv-x="250" />
<glyph unicode="!" horiz-adv-x="248" d="M197 667l-67 -543h-39l67 543h39zM100 56q13 0 21.5 -9t8.5 -22t-9.5 -22.5t-22.5 -9.5t-21.5 9t-8.5 22q0 14 9 23t23 9z" />
<glyph unicode="&#x22;" horiz-adv-x="359" d="M139 438l21 229h44l-36 -229h-29zM243 438l20 229h45l-36 -229h-29z" />
<glyph unicode="#" horiz-adv-x="547" d="M539 460l-4 -39h-118l-30 -162h115l-4 -39h-118l-41 -223l-41 6l40 217h-142l-41 -223l-41 6l40 217h-119l5 39h121l30 162h-119l5 39h122l38 210l41 -6l-37 -204h140l39 210l41 -6l-38 -204h116zM374 420h-141l-29 -160h141z" />
<glyph unicode="$" horiz-adv-x="547" d="M218 -114l13 103q-56 8 -97.5 48t-57.5 100l38 14q14 -53 45 -85t77 -39l38 316q-128 73 -128 176q0 69 47 113.5t123 47.5l10 87h34l-11 -89q48 -7 79.5 -34.5t53.5 -80.5l-35 -25q-29 88 -103 101l-33 -271q34 -19 56 -35q86 -62 86 -156q0 -80 -53.5 -134t-135.5 -57 l-12 -100h-34zM280 388l31 253q-56 -5 -89 -38t-33 -84q0 -76 91 -131zM305 324l-36 -299q63 4 102 46.5t39 108.5q0 82 -105 144z" />
<glyph unicode="%" horiz-adv-x="683" d="M206 674q52 0 85.5 -42t33.5 -107q0 -74 -41.5 -126.5t-99.5 -52.5q-53 0 -85.5 41t-32.5 108q0 75 40.5 127t99.5 52zM203 641q-43 0 -73.5 -43.5t-30.5 -105.5q0 -50 25 -82t63 -32q42 0 70 38q35 50 35 112q0 50 -25 81.5t-64 31.5zM81 12l521 664l25 -20l-520 -665z M524 321q52 0 85.5 -42t33.5 -107q0 -74 -41.5 -126.5t-99.5 -52.5q-53 0 -85.5 41t-32.5 108q0 75 40.5 127t99.5 52zM521 288q-43 0 -73.5 -43.5t-30.5 -105.5q0 -50 25 -82t63 -32q43 0 74 44.5t31 105.5q0 50 -24.5 81.5t-64.5 31.5z" />
<glyph unicode="&#x26;" horiz-adv-x="570" d="M442 120l64 -120h-46l-50 93q-23 -18 -38 -29.5t-24 -18t-14 -10.5q-63 -45 -121 -45q-69 0 -117.5 48t-48.5 116q0 45 20 76t83 84q30 26 97 79l-7 14q-26 50 -34 73t-8 51q0 56 37.5 94.5t92.5 38.5q47 0 78 -31.5t31 -79.5q0 -28 -13 -51t-45 -52q-4 -3 -79 -65 l123 -231l113 89l25 -30zM280 421q68 51 92 79t24 56q0 31 -20.5 51t-51.5 20q-37 0 -61 -27.5t-24 -69.5q0 -21 7 -39.5t34 -69.5zM390 129l-124 228q-88 -71 -113 -94q-39 -35 -52.5 -57.5t-13.5 -54.5q0 -51 36 -88t86 -37q37 0 67.5 17.5t113.5 85.5z" />
<glyph unicode="'" horiz-adv-x="255" d="M139 438l21 229h44l-36 -229h-29z" />
<glyph unicode="(" horiz-adv-x="264" d="M148 -152l-43 -15q-21 120 -21 273q0 328 131 631l38 -21q-126 -298 -126 -606q0 -148 21 -262z" />
<glyph unicode=")" horiz-adv-x="264" d="M131 721l42 16q22 -123 22 -276q0 -328 -132 -628l-38 21q127 296 127 605q0 148 -21 262z" />
<glyph unicode="*" horiz-adv-x="547" d="M301 596l13 133l42 -5l-20 -132l131 28l8 -41l-132 -22l68 -116l-37 -21l-62 119l-89 -100l-31 29l94 96l-123 53l18 39z" />
<glyph unicode="+" horiz-adv-x="547" d="M50 321v39h217v210h39v-210h217v-39h-217v-211h-39v211h-217z" />
<glyph unicode="," horiz-adv-x="208" d="M122 77l-118 -186l-25 13l107 193z" />
<glyph unicode="-" horiz-adv-x="166" d="M165 225l-4 -36h-166l4 36h166z" />
<glyph unicode="." horiz-adv-x="208" d="M83 56q27 0 27 -28q0 -14 -11 -24.5t-25 -10.5q-11 0 -18.5 7.5t-7.5 19.5q0 14 10.5 25t24.5 11z" />
<glyph unicode="/" horiz-adv-x="365" d="M-4 -152l369 889l35 -15l-369 -888z" />
<glyph unicode="0" horiz-adv-x="547" d="M311 680q96 0 157.5 -86.5t61.5 -220.5q0 -154 -82 -270t-192 -116q-89 0 -151.5 89t-62.5 217q0 157 80 272t189 115zM312 640q-89 0 -158 -104.5t-69 -237.5q0 -111 52 -191t124 -80q40 0 83.5 30t73.5 77q69 109 69 238q0 115 -50 191.5t-125 76.5z" />
<glyph unicode="1" horiz-adv-x="547" d="M347 667l-82 -667h-43l78 628h-91l24 39h114z" />
<glyph unicode="2" horiz-adv-x="547" d="M39 0l290 296q63 65 86.5 106.5t23.5 90.5q0 64 -40 105.5t-102 41.5q-68 0 -110 -46.5t-52 -132.5h-39q5 66 30 114t71.5 76.5t101.5 28.5q79 0 131 -52t52 -131q0 -59 -29.5 -110t-113.5 -137l-208 -211h325l-4 -39h-413z" />
<glyph unicode="3" horiz-adv-x="547" d="M72 171h39q1 -57 17 -83q36 -61 115 -61q69 0 115.5 49.5t46.5 123.5q0 77 -58 113q-26 15 -75 22l4 36q10 -1 26 -1q54 0 89 39t35 99q0 58 -35 95t-91 37q-98 0 -124 -110h-40q11 48 29 77q21 34 57 53.5t80 19.5q74 0 121 -49t47 -125q0 -63 -34 -105.5t-93 -53.5 q30 -12 53 -29q52 -43 52 -125q0 -87 -58.5 -146.5t-143.5 -59.5q-78 0 -126.5 45.5t-48.5 118.5q0 11 1 20z" />
<glyph unicode="4" horiz-adv-x="547" d="M493 165l-5 -39h-90l-16 -126h-42l15 126h-325l436 557l-63 -518h90zM360 165l46 380l-296 -380h250z" />
<glyph unicode="5" horiz-adv-x="547" d="M507 667l-5 -39h-214l-71 -189q33 8 64 8q89 0 145.5 -59t56.5 -153q0 -105 -71.5 -176.5t-176.5 -71.5q-82 0 -133 43.5t-63 124.5l38 14q11 -54 26 -79q18 -29 54 -46t79 -17q86 0 144.5 59t58.5 146q0 80 -46.5 128t-124.5 48q-47 0 -114 -26l106 285h247z" />
<glyph unicode="6" horiz-adv-x="547" d="M357 688l31 -25l-195 -234q63 27 112 27q87 0 143 -60.5t56 -153.5q0 -110 -66 -182.5t-166 -72.5q-95 0 -155.5 62t-60.5 159q0 64 24.5 118t90.5 135zM295 416q-83 0 -139.5 -58t-56.5 -143q0 -82 49.5 -135t126.5 -53q78 0 132 60.5t54 146.5q0 79 -47 130.5 t-119 51.5z" />
<glyph unicode="7" horiz-adv-x="547" d="M78 5l402 623h-379l4 39h448l-440 -687z" />
<glyph unicode="8" horiz-adv-x="547" d="M356 343q41 -22 61 -43q42 -45 42 -115q0 -84 -57.5 -141t-142.5 -57q-80 0 -133.5 50t-53.5 125q0 85 68 144q31 25 83 44q-95 57 -95 150q0 74 55.5 127t133.5 53q74 0 122.5 -47.5t48.5 -119.5q0 -64 -44 -116q-28 -32 -88 -54zM315 640q-58 0 -101 -42.5t-43 -100.5 q0 -54 38.5 -93.5t90.5 -39.5q60 0 102.5 42.5t42.5 102.5q0 55 -37.5 93t-92.5 38zM279 327q-68 0 -116 -47t-48 -114q0 -61 40.5 -100t103.5 -39q66 0 111.5 45.5t45.5 111.5q0 63 -38 103t-99 40z" />
<glyph unicode="9" horiz-adv-x="547" d="M218 -21l-31 25l195 234q-63 -27 -112 -27q-87 0 -143 60.5t-56 153.5q0 110 66 182.5t166 72.5q95 0 155.5 -62t60.5 -159q0 -64 -24.5 -118t-90.5 -135zM300 640q-78 0 -132 -60.5t-54 -146.5q0 -79 47 -130.5t119 -51.5q83 0 139.5 58t56.5 143q0 82 -49.5 135 t-126.5 53z" />
<glyph unicode=":" horiz-adv-x="208" d="M81 56q13 0 21.5 -9t8.5 -22t-9.5 -22.5t-22.5 -9.5t-21.5 9t-8.5 22q0 14 9.5 23t22.5 9zM125 413q13 0 21.5 -9t8.5 -22t-9.5 -22.5t-22.5 -9.5t-21.5 9t-8.5 22t9.5 22.5t22.5 9.5z" />
<glyph unicode=";" horiz-adv-x="208" d="M125 413q13 0 21.5 -9t8.5 -22t-9.5 -22.5t-22.5 -9.5t-21.5 9t-8.5 22t9.5 22.5t22.5 9.5zM122 77l-118 -186l-25 13l107 193z" />
<glyph unicode="&#x3c;" d="M478 548v-44l-386 -169l386 -170v-44l-433 194v40z" />
<glyph unicode="=" horiz-adv-x="547" d="M51 377v39h473v-39h-473zM51 265v39h473v-39h-473z" />
<glyph unicode="&#x3e;" d="M46 121v44l386 170l-386 169v44l433 -193v-40z" />
<glyph unicode="?" horiz-adv-x="436" d="M208 56q13 0 21.5 -9t8.5 -22t-9.5 -22.5t-22.5 -9.5t-21.5 9t-8.5 22q0 14 9 23t23 9zM329 251h37q-3 -57 -40 -92.5t-94 -35.5t-94.5 36.5t-37.5 91.5q0 65 49 101q31 24 109 48q68 21 95 55q26 32 26 74q0 51 -35 83t-90 32q-74 0 -103 -56q-15 -28 -16 -88h-36 q1 51 7.5 77t24.5 48q45 52 122 52q72 0 117.5 -42t45.5 -109q0 -56 -36 -98q-32 -36 -108 -61q-77 -24 -103 -45q-33 -27 -33 -74q0 -40 27 -65.5t69 -25.5q43 0 69 25t28 69z" />
<glyph unicode="@" horiz-adv-x="768" d="M578 504l-27 -224l-8 -52q-1 -15 10.5 -25.5t28.5 -10.5q46 0 80.5 56t34.5 130q0 114 -80 188.5t-203 74.5q-131 0 -221 -89t-90 -219q0 -85 40.5 -156.5t111.5 -111.5q72 -40 171 -40q113 0 222 54l14 -32q-113 -56 -234 -56q-112 0 -194 47q-78 44 -122.5 123 t-44.5 173q0 145 100.5 243.5t247.5 98.5q135 0 226 -84.5t91 -209.5q0 -92 -47 -158t-112 -66q-26 0 -46 17.5t-20 40.5q0 7 1 12q-35 -41 -63.5 -56.5t-68.5 -15.5q-68 0 -112.5 46.5t-44.5 117.5q0 82 50.5 137t126.5 55q45 0 75.5 -17.5t59.5 -60.5l9 70h38zM400 476 q-60 0 -101 -44t-41 -109q0 -56 34.5 -93.5t86.5 -37.5q58 0 101 48t43 112q0 54 -34.5 89t-88.5 35z" />
<glyph unicode="A" horiz-adv-x="589" d="M-3 0l366 697l179 -697h-44l-57 226h-279l-119 -226h-46zM431 265l-83 319l-165 -319h248z" />
<glyph unicode="B" horiz-adv-x="540" d="M153 667h114q55 0 84.5 -7t52.5 -26q52 -44 52 -123q0 -111 -111 -161q61 -17 86 -41q52 -47 52 -128q0 -78 -52 -130q-28 -28 -65.5 -39.5t-103.5 -11.5h-191zM191 628l-33 -265h79q52 0 81 8.5t52 31.5q42 40 42 106q0 61 -36 92q-18 16 -41.5 21.5t-70.5 5.5h-73z M153 324l-34 -285h153q77 0 113 27q54 39 54 114t-48 111q-44 33 -146 33h-92z" />
<glyph unicode="C" horiz-adv-x="670" d="M658 581l-7 -56q-84 115 -230 115q-125 0 -207 -82q-45 -44 -71.5 -111.5t-26.5 -137.5q0 -126 76 -204t198 -78q115 0 210 81l-7 -58q-99 -63 -205 -63q-139 0 -227.5 90.5t-88.5 231.5q0 77 27 148.5t75 121.5q95 101 247 101q110 0 184 -52q21 -14 53 -47z" />
<glyph unicode="D" horiz-adv-x="635" d="M153 667h133q76 0 122 -13t82 -44q47 -41 73.5 -106.5t26.5 -139.5q0 -80 -31.5 -154.5t-86.5 -126.5q-50 -47 -108 -65t-155 -18h-138zM191 628l-72 -589h93q88 0 142.5 18.5t97.5 63.5q44 46 69 110.5t25 133.5q0 66 -22 122.5t-62 91.5q-30 27 -70 38t-107 11h-94z " />
<glyph unicode="E" horiz-adv-x="457" d="M460 667l-5 -39h-264l-30 -243h264l-5 -39h-264l-37 -307h264l-5 -39h-307l82 667h307z" />
<glyph unicode="F" horiz-adv-x="418" d="M427 667l-5 -39h-231l-30 -243h231l-4 -39h-232l-42 -346h-43l82 667h274z" />
<glyph unicode="G" horiz-adv-x="785" d="M458 321h279q-16 -123 -77 -202q-48 -63 -118 -97.5t-149 -34.5q-69 0 -134 27t-108 73q-80 86 -80 220q0 74 27 145.5t75 124.5q94 103 244 103q203 0 295 -176l-35 -22q-31 61 -73 96q-78 62 -187 62q-131 0 -216.5 -95.5t-85.5 -241.5q0 -122 76.5 -199t197.5 -77 q74 0 139.5 32.5t105.5 90.5q36 53 56 132h-237z" />
<glyph unicode="H" horiz-adv-x="661" d="M617 667l-82 -667h-43l43 348h-379l-42 -348h-43l82 667h43l-35 -280h379l34 280h43z" />
<glyph unicode="I" horiz-adv-x="240" d="M196 667l-82 -667h-43l82 667h43z" />
<glyph unicode="J" horiz-adv-x="332" d="M287 667l-65 -532q-10 -79 -37 -111q-32 -37 -86 -37q-73 0 -114 77l33 23q17 -33 35 -46.5t45 -13.5q36 0 55.5 26.5t26.5 86.5l65 527h42z" />
<glyph unicode="K" horiz-adv-x="521" d="M71 0l82 667h43l-37 -300l331 300h63l-358 -319l290 -348h-56l-275 332l-40 -332h-43z" />
<glyph unicode="L" horiz-adv-x="381" d="M196 667l-77 -628h221l-5 -39h-264l82 667h43z" />
<glyph unicode="M" horiz-adv-x="898" d="M-6 0l325 684l117 -590l278 595l134 -689h-46l-104 559l-277 -588l-118 588l-261 -559h-48z" />
<glyph unicode="N" horiz-adv-x="751" d="M71 0l85 691l437 -604l71 580h43l-85 -690l-437 604l-71 -581h-43z" />
<glyph unicode="O" horiz-adv-x="786" d="M420 680q144 0 232 -89t88 -235q0 -139 -82 -244q-98 -125 -264 -125q-142 0 -232.5 89t-90.5 228q0 161 99.5 268.5t249.5 107.5zM420 640q-132 0 -218.5 -93.5t-86.5 -235.5q0 -126 78 -205t202 -79q129 0 215 94t86 235q0 138 -81 212q-80 72 -195 72z" />
<glyph unicode="P" horiz-adv-x="452" d="M153 667h103q100 0 147 -44q45 -45 45 -115q0 -52 -24 -96t-65 -66q-44 -26 -146 -26h-60l-39 -320h-43zM191 628l-33 -269h63q83 0 118 21q65 40 65 125q0 59 -36.5 91t-103.5 32h-73z" />
<glyph unicode="Q" horiz-adv-x="784" d="M715 -27h-55l-71 76q-95 -63 -197 -63q-139 0 -229.5 91.5t-90.5 231.5q0 79 30.5 154.5t83.5 128.5q90 88 233 88q142 0 231 -90t89 -233q0 -164 -118 -282zM466 182h53l75 -79q47 43 74 109.5t27 141.5q0 113 -58 186q-80 100 -222 100q-129 0 -214 -94.5t-85 -237.5 q0 -125 77 -203.5t198 -78.5q87 0 172 51z" />
<glyph unicode="R" horiz-adv-x="461" d="M214 320l201 -320h-52l-194 320h-16l-39 -320h-43l82 667h83q79 0 126 -33q60 -43 60 -124q0 -44 -19.5 -85.5t-51.5 -65.5q-25 -18 -54 -26t-83 -13zM191 628l-33 -269h37q68 0 106 16q35 16 56 52t21 79q0 59 -37 90.5t-106 31.5h-44z" />
<glyph unicode="S" horiz-adv-x="492" d="M457 563l-35 -24q-20 54 -50 78t-77 24q-56 0 -93 -35t-37 -88q0 -43 24 -72.5t90 -70.5q79 -50 105 -78q44 -52 44 -119q0 -81 -55 -136t-137 -55q-84 0 -138 59q-30 34 -47 91l38 14q16 -51 38 -76q42 -48 110 -48q64 0 105.5 44t41.5 111q0 46 -26 79t-96 76 q-81 49 -111 88t-30 93q0 72 49 117.5t126 45.5q58 0 96 -28t65 -90z" />
<glyph unicode="T" horiz-adv-x="410" d="M277 628l-77 -628h-43l77 628h-173l5 39h386l-5 -39h-170z" />
<glyph unicode="U" horiz-adv-x="648" d="M606 667l-52 -426q-11 -96 -41 -145q-67 -109 -200 -109q-110 0 -179 67q-43 44 -43 121q0 20 4 48l54 444h43l-55 -445q-3 -25 -3 -50q0 -55 30 -86q54 -59 149 -59q57 0 101.5 26.5t68.5 74.5q20 40 28 112l53 427h42z" />
<glyph unicode="V" horiz-adv-x="515" d="M79 667h46l104 -569l273 569h48l-337 -694z" />
<glyph unicode="W" horiz-adv-x="896" d="M79 667h44l106 -555l277 588l119 -588l257 555h49l-322 -685l-119 583l-278 -589z" />
<glyph unicode="X" horiz-adv-x="482" d="M7 0l229 343l-124 324h47l106 -280l183 280h52l-218 -324l133 -343h-49l-112 302l-194 -302h-53z" />
<glyph unicode="Y" horiz-adv-x="511" d="M199 0l38 302l-164 365h48l143 -324l227 324h56l-269 -374l-36 -293h-43z" />
<glyph unicode="Z" horiz-adv-x="563" d="M11 0l495 628h-371l5 39h448l-494 -628h368l-5 -39h-446z" />
<glyph unicode="[" horiz-adv-x="278" d="M46 -160l109 889h152l-5 -35h-110l-101 -819h111l-5 -35h-151z" />
<glyph unicode="\" horiz-adv-x="365" d="M276 -159l-39 -7l-151 895l38 8z" />
<glyph unicode="]" horiz-adv-x="278" d="M246 729l-109 -889h-151l4 35h111l101 819h-111l4 35h151z" />
<glyph unicode="^" d="M97 381h-49l185 287h58l185 -287h-50l-165 253z" />
<glyph unicode="_" d="M12 -76h500v-41h-500v41z" />
<glyph unicode="`" d="M213 577l39 28l71 -129l-24 -16z" />
<glyph unicode="a" horiz-adv-x="518" d="M466 400l-49 -400h-39l8 71q-40 -46 -74 -63.5t-81 -17.5q-82 0 -134 54.5t-52 139.5q0 97 60 161.5t150 64.5q53 0 89.5 -20.5t72.5 -70.5l10 81h39zM259 373q-74 0 -123.5 -53.5t-49.5 -132.5q0 -69 42 -114.5t106 -45.5q70 0 122.5 58t52.5 136q0 67 -42 109.5 t-108 42.5z" />
<glyph unicode="b" horiz-adv-x="519" d="M174 729l-49 -399q36 43 72 61.5t85 18.5q82 0 133.5 -54t51.5 -140t-53 -153q-60 -73 -155 -73q-53 0 -91.5 22t-72.5 72l-11 -84h-39l90 729h39zM276 373q-72 0 -122 -54.5t-50 -133.5q0 -68 43 -113t109 -45q70 0 120 55t50 131q0 70 -42 115t-108 45z" />
<glyph unicode="c" horiz-adv-x="425" d="M400 356l-5 -43q-37 36 -66.5 49.5t-70.5 13.5q-75 0 -124 -54.5t-49 -138.5q0 -73 43 -116t116 -43q35 0 61.5 11.5t60.5 41.5l-6 -50q-52 -40 -120 -40q-87 0 -141.5 54.5t-54.5 142.5q0 98 61 163.5t152 65.5q79 0 143 -57z" />
<glyph unicode="d" horiz-adv-x="518" d="M507 729l-90 -729h-39l8 66q-42 -44 -75 -60t-79 -16q-82 0 -134.5 54.5t-52.5 138.5q0 96 59.5 161.5t146.5 65.5q54 0 93 -23t72 -74l51 416h40zM254 373q-71 0 -119.5 -54t-48.5 -133q0 -68 43.5 -114t107.5 -46q69 0 119 57t50 135q0 68 -42.5 111.5t-109.5 43.5z " />
<glyph unicode="e" horiz-adv-x="469" d="M83 207v-28q0 -68 42 -111.5t109 -43.5q39 0 67.5 15t58.5 51l27 -19q-36 -46 -71 -65t-85 -19q-84 0 -135.5 53t-51.5 139q0 104 56 171t142 67q55 0 97 -28.5t62 -78.5q13 -35 16 -103h-334zM89 243h289q-5 47 -22 75q-40 62 -114 62q-70 0 -116 -55q-24 -31 -37 -82z " />
<glyph unicode="f" horiz-adv-x="247" d="M133 364l-44 -364h-40l45 364h-46l4 36h46l27 219q10 72 39 100q26 24 64 24q21 0 43 -7l-5 -38q-19 8 -35 8q-31 0 -46 -22.5t-22 -78.5l-25 -205h71l-4 -36h-72z" />
<glyph unicode="g" horiz-adv-x="517" d="M465 400l-50 -409q-15 -121 -55 -170q-53 -64 -154 -64q-96 0 -144 57q-18 21 -25 45.5t-9 67.5h37q4 -59 26 -88q37 -45 115 -45q84 0 125 52q32 41 43 131l10 87q-42 -42 -75 -58t-77 -16q-80 0 -133.5 55.5t-53.5 138.5q0 99 66 168q53 58 143 58q57 0 93.5 -21.5 t67.5 -74.5l11 86h39zM259 373q-73 0 -123 -53.5t-50 -132.5q0 -67 40 -112q20 -22 50.5 -35.5t59.5 -13.5q70 0 120 55t50 132q0 72 -40.5 116t-106.5 44z" />
<glyph unicode="h" horiz-adv-x="431" d="M174 729l-48 -387q33 38 60 53t64 15q55 0 84.5 -30t29.5 -85q0 -14 -4 -47l-30 -248h-40l30 242q3 18 5 54q1 36 -19 56.5t-57 20.5q-62 0 -102 -45q-26 -27 -35 -100l-28 -228h-39l90 729h39z" />
<glyph unicode="i" horiz-adv-x="186" d="M135 590q11 0 18 -7.5t7 -19.5q0 -14 -9 -24t-22 -10q-11 0 -18 8t-7 20q0 14 9 23.5t22 9.5zM134 400l-50 -400h-39l49 400h40z" />
<glyph unicode="j" horiz-adv-x="186" d="M138 590q24 0 24 -26q0 -14 -9 -24t-21 -10q-11 0 -18 8t-7 20q0 14 9 23t22 9zM134 400l-78 -633h-39l78 633h39z" />
<glyph unicode="k" horiz-adv-x="408" d="M45 0l90 729h39l-62 -500l210 171h64l-234 -184l228 -216h-58l-213 202l-25 -202h-39z" />
<glyph unicode="l" horiz-adv-x="186" d="M174 729l-90 -729h-39l90 729h39z" />
<glyph unicode="m" horiz-adv-x="643" d="M133 400l-7 -58q54 68 121 68q74 0 101 -79q32 43 60.5 61t63.5 18q47 0 76 -29t29 -78q0 -15 -3 -39l-32 -264h-40l32 260q4 25 4 48q0 28 -19.5 46.5t-48.5 18.5q-25 0 -51.5 -14t-44.5 -36q-23 -27 -30 -84l-30 -239h-39l29 239q6 38 6 62q0 34 -18 53t-50 19 q-49 0 -90 -39q-31 -32 -39 -103l-29 -231h-39l49 400h39z" />
<glyph unicode="n" horiz-adv-x="431" d="M133 400l-7 -61q32 39 60.5 55t65.5 16q52 0 82 -29.5t30 -79.5q0 -17 -6 -69l-28 -232h-40l29 231q4 40 6 65q1 35 -19.5 56t-57.5 21q-57 0 -97 -42q-17 -18 -25.5 -39t-12.5 -61l-29 -231h-39l49 400h39z" />
<glyph unicode="o" horiz-adv-x="520" d="M265 413q91 0 147 -58t56 -152q0 -91 -62 -153.5t-152 -62.5q-89 0 -149 58t-60 145q0 93 64 158t156 65zM265 376q-73 0 -126 -54t-53 -129q0 -71 48.5 -120t118.5 -49q74 0 124 52t50 130q0 76 -45 123t-117 47z" />
<glyph unicode="p" horiz-adv-x="516" d="M134 400l-8 -68q38 43 74 60.5t83 17.5q78 0 130 -55t52 -138q0 -95 -60 -161t-146 -66q-103 0 -164 94l-39 -317h-39l78 633h39zM274 373q-71 0 -120.5 -55t-49.5 -134q0 -68 42.5 -112.5t108.5 -44.5q71 0 120.5 53t49.5 130q0 73 -42 118t-109 45z" />
<glyph unicode="q" horiz-adv-x="520" d="M468 400l-78 -633h-39l37 301q-42 -43 -77.5 -60.5t-80.5 -17.5q-79 0 -132 56t-53 140q0 94 61.5 159t150.5 65q54 0 89.5 -21t71.5 -74l11 85h39zM256 373q-73 0 -121.5 -55t-48.5 -137q0 -67 41.5 -110.5t105.5 -43.5q72 0 123.5 56.5t51.5 135.5q0 68 -42.5 111 t-109.5 43z" />
<glyph unicode="r" horiz-adv-x="284" d="M133 400l-7 -59q36 41 59.5 55.5t53.5 14.5q24 0 55 -15l-21 -34q-27 12 -43 12q-33 0 -63 -27q-45 -39 -56 -133l-27 -214h-39l49 400h39z" />
<glyph unicode="s" horiz-adv-x="340" d="M304 363l-24 -23q-38 36 -82 36q-36 0 -59.5 -22t-23.5 -56q0 -25 14.5 -40t59.5 -35q55 -25 75.5 -50t20.5 -66q0 -53 -36.5 -86.5t-93.5 -33.5q-90 0 -128 91l32 14q29 -68 96 -68q40 0 64.5 24t24.5 63q0 28 -15 44t-58 35q-53 23 -75 48t-22 62q0 48 35 80.5t87 32.5 q62 0 108 -50z" />
<glyph unicode="t" horiz-adv-x="193" d="M129 364l-44 -364h-40l45 364h-46l4 36h46l19 150h39l-18 -150h68l-5 -36h-68z" />
<glyph unicode="u" horiz-adv-x="435" d="M383 400l-29 -238q-10 -83 -39 -119q-44 -53 -120 -53q-62 0 -97 35t-35 97q0 19 4 48l28 230h39l-29 -236q-4 -31 -4 -48q0 -41 26 -65t70 -24q63 0 92 45q18 27 25 84l30 244h39z" />
<glyph unicode="v" horiz-adv-x="383" d="M28 400h41l93 -333l183 333h46l-242 -438z" />
<glyph unicode="w" horiz-adv-x="649" d="M28 400h43l87 -333l183 338l95 -338l175 333h46l-234 -436l-94 339l-184 -339z" />
<glyph unicode="x" horiz-adv-x="389" d="M-8 0l177 204l-116 196h47l98 -166l139 166h53l-172 -200l118 -200h-48l-98 168l-144 -168h-54z" />
<glyph unicode="y" horiz-adv-x="372" d="M-13 -223l146 258l-105 365h43l88 -318l174 318h47l-346 -623h-47z" />
<glyph unicode="z" horiz-adv-x="428" d="M-1 0l343 364h-266l5 36h342l-341 -364h286l-5 -36h-364z" />
<glyph unicode="{" horiz-adv-x="240" d="M167 -131l-4 -33h-8h-13q-38 0 -59.5 23.5t-21.5 64.5q0 24 3 49l26 209q1 8 1 25q0 26 -11 41t-37 23l3 27q41 14 53 36t22 102l23 187q6 46 22 70q27 40 86 40h14h7l-4 -33h-15q-25 0 -35 -5q-27 -14 -33 -70l-24 -190q-10 -79 -20.5 -104t-42.5 -46q20 -17 27 -33 t7 -44q0 -9 -2 -25l-26 -212q-2 -24 -2 -38q0 -35 12 -49.5t41 -14.5h11z" />
<glyph unicode="|" d="M240 667h43v-834h-43v834z" />
<glyph unicode="}" horiz-adv-x="240" d="M87 700l4 33h7h14q38 0 59.5 -23.5t21.5 -64.5q0 -26 -4 -49l-25 -209q-2 -16 -2 -24q0 -27 11 -42t38 -23l-4 -27q-40 -13 -52 -35t-22 -103l-23 -186q-6 -48 -23 -71q-27 -40 -85 -40h-14h-7l4 33h15q25 0 35 5q27 14 33 71l24 190q11 79 21 103.5t41 46.5 q-19 16 -26 32.5t-7 44.5q0 16 1 24l26 212q3 20 3 38q0 35 -12 49.5t-41 14.5h-11z" />
<glyph unicode="~" horiz-adv-x="667" d="M106 299q29 55 59 78.5t71 23.5q39 0 116 -38q71 -36 104 -36q35 0 58 23q28 28 34 42q5 12 10 12q8 0 26 -18q-57 -102 -129 -102q-25 0 -50.5 8.5t-82.5 37.5q-53 28 -91 28q-30 0 -55 -23t-35 -43q-5 -12 -9 -12q-9 0 -26 19z" />
<glyph unicode="&#xa1;" horiz-adv-x="248" d="M56 -160l67 542h39l-67 -542h-39zM155 513q13 0 21.5 -9t8.5 -22q0 -14 -9.5 -23t-22.5 -9t-21.5 9t-8.5 22t9.5 22.5t22.5 9.5z" />
<glyph unicode="&#xa2;" horiz-adv-x="547" d="M247 27l13 104q-69 14 -109.5 66t-40.5 127q0 95 58 160.5t144 68.5l10 87h34l-11 -88q65 -5 121 -56l-5 -43q-54 59 -120 65l-44 -356q44 0 73 11.5t62 43.5l-6 -50q-54 -40 -119 -40h-14l-13 -100h-33zM264 167l43 351q-66 -2 -112 -59t-46 -137q0 -121 115 -155z" />
<glyph unicode="&#xa3;" horiz-adv-x="547" d="M182 274l1 -29q0 -50 -9 -82.5t-34 -71.5q30 -1 58.5 -10.5t104.5 -43.5q33 -14 64 -14q46 0 84 31q13 13 32 34l27 -24q-41 -44 -71.5 -60.5t-71.5 -16.5q-28 0 -48.5 6.5t-97.5 39.5q-59 27 -96 27q-54 0 -106 -66l-29 25q55 65 112 76q43 65 43 136q0 17 -3 43h-103 l4 33h96q-6 67 -6 105q0 127 58 197q59 72 160 72q87 0 140 -57.5t53 -150.5l-41 -11q1 7 1 16q0 72 -44.5 119t-112.5 47q-79 0 -126.5 -60.5t-47.5 -161.5q0 -40 7 -115h169l-4 -33h-163z" />
<glyph unicode="&#xa4;" horiz-adv-x="667" d="M89 115l90 90q-56 66 -56 147q0 74 53 143l-90 90l24 25l90 -91q70 56 148 56q79 0 147 -55l91 90l24 -24l-90 -90q53 -68 53 -146q0 -75 -54 -144l91 -91l-23 -24l-92 91q-67 -55 -146 -55q-76 0 -146 54l-90 -90zM349 539q-78 0 -132.5 -55t-54.5 -133t54.5 -133 t131.5 -55q78 0 132 55t54 135q0 76 -55 131t-130 55z" />
<glyph unicode="&#xa5;" horiz-adv-x="547" d="M50 249l5 39h197l2 14l-41 90h-145l4 39h123l-105 236h48l143 -325l227 325h56l-169 -236h129l-5 -39h-152l-72 -104h211l-5 -39h-211l-31 -249h-42l30 249h-197z" />
<glyph unicode="&#xa6;" d="M240 667h43v-326h-43v326zM240 153h43v-320h-43v320z" />
<glyph unicode="&#xa7;" horiz-adv-x="547" d="M93 6h40q4 -48 11 -71q20 -64 101 -64q50 0 80 31.5t30 84.5q0 69 -53 103q-16 10 -72 37q-61 28 -88 64t-27 89q0 64 36 106t104 57q-48 27 -69 59t-21 78q0 70 44.5 113.5t116.5 43.5q89 0 124 -62q18 -35 18 -109h-41q-1 67 -15 92q-24 42 -88 42q-55 0 -87.5 -31.5 t-32.5 -84.5q0 -66 55 -98q22 -13 68 -35q62 -31 89 -67t27 -91q0 -61 -35.5 -105.5t-97.5 -61.5q47 -26 66.5 -57t19.5 -79q0 -70 -42 -113t-110 -43q-50 0 -86.5 22.5t-50.5 62.5q-13 37 -14 87zM282 414q-52 0 -88.5 -38t-36.5 -93t34.5 -91t86.5 -36q53 0 88.5 38.5 t35.5 95.5q0 53 -34 88.5t-86 35.5z" />
<glyph unicode="&#xa8;" d="M364 549q12 0 20 -8.5t8 -21.5q0 -16 -10 -27.5t-24 -11.5q-12 0 -20 9t-8 22q0 15 10.5 26.5t23.5 11.5zM212 548q11 0 19 -9t8 -22q0 -15 -10.5 -26t-24.5 -11q-12 0 -20 8.5t-8 21.5q0 15 11 26.5t25 11.5z" />
<glyph unicode="&#xa9;" horiz-adv-x="733" d="M547 480l-6 -53q-25 32 -39 42q-44 35 -110 35q-79 0 -129.5 -51t-50.5 -131q0 -71 46 -115t120 -44q40 0 68 11t69 43l-6 -51q-65 -40 -134 -40q-89 0 -146.5 55t-57.5 140q0 96 62.5 158t159.5 62q92 0 154 -61zM385 677q138 0 238 -101.5t100 -241.5 q0 -142 -100.5 -243t-242.5 -101q-143 0 -243.5 101t-100.5 245q0 142 101.5 241.5t247.5 99.5zM384 636q-139 0 -229 -100q-78 -86 -78 -200q0 -128 88 -216.5t215 -88.5q125 0 213.5 89t88.5 214q0 123 -88.5 212.5t-209.5 89.5z" />
<glyph unicode="&#xaa;" horiz-adv-x="373" d="M378 667l-33 -267h-38l5 39q-41 -45 -98 -45t-94 36.5t-37 92.5q0 64 42.5 107t104.5 43q65 0 104 -53l6 47h38zM233 639q-48 0 -79.5 -32t-31.5 -80q0 -43 27.5 -71t69.5 -28q46 0 79 35t33 82q0 41 -27.5 67.5t-70.5 26.5z" />
<glyph unicode="&#xab;" horiz-adv-x="337" d="M311 354l-123 -152l86 -157l-29 -16l-98 178l137 169zM201 354l-123 -152l86 -157l-29 -16l-98 178l137 169z" />
<glyph unicode="&#xac;" d="M435 0v227h-390v40h433v-267h-43z" />
<glyph unicode="&#xad;" horiz-adv-x="166" d="M165 225l-4 -36h-166l4 36h166z" />
<glyph unicode="&#xae;" horiz-adv-x="733" d="M365 320l127 -187h-50l-122 185l-22 -185h-40l49 400h58q57 0 89.5 -25.5t32.5 -71.5q0 -53 -38 -86q-27 -25 -84 -30zM342 497l-17 -142h16q105 0 105 77q0 65 -83 65h-21zM385 677q138 0 238 -101.5t100 -241.5q0 -142 -100.5 -243t-242.5 -101q-143 0 -243.5 101 t-100.5 245q0 142 101.5 241.5t247.5 99.5zM384 636q-139 0 -229 -100q-78 -86 -78 -200q0 -128 88 -216.5t215 -88.5q125 0 213.5 89t88.5 214q0 123 -88.5 212.5t-209.5 89.5z" />
<glyph unicode="&#xaf;" d="M165 535h246l-5 -38h-246z" />
<glyph unicode="&#xb0;" horiz-adv-x="547" d="M313 667q54 0 93 -39t39 -94t-39 -94.5t-94 -39.5t-94.5 39t-39.5 94q0 56 39.5 95t95.5 39zM313 628q-40 0 -68 -27.5t-28 -66.5t28 -67t67 -28t66.5 27.5t27.5 67.5q0 38 -27.5 66t-65.5 28z" />
<glyph unicode="&#xb1;" horiz-adv-x="547" d="M32 321v39h217v210h39v-210h217v-39h-217v-211h-39v211h-217zM32 20v39h473v-39h-473z" />
<glyph unicode="&#xb2;" horiz-adv-x="353" d="M44 267l187 180q38 37 52.5 61t14.5 51q0 38 -24.5 62t-62.5 24q-87 0 -98 -107h-31q4 64 39.5 100.5t91.5 36.5q51 0 85 -32t34 -81q0 -34 -19 -65.5t-71 -81.5l-124 -118h201l-4 -30h-271z" />
<glyph unicode="&#xb3;" horiz-adv-x="353" d="M68 374h32q1 -36 10 -51q23 -34 71 -34q41 0 69 28t28 69q0 35 -20.5 54t-64.5 25l4 27q7 -1 19 -1q33 0 54 21.5t21 55.5t-21.5 55.5t-56.5 21.5q-31 0 -49 -15.5t-26 -50.5h-32q21 96 109 96q48 0 79 -30t31 -77q0 -70 -72 -95q59 -27 59 -90q0 -53 -37.5 -88.5 t-92.5 -35.5q-50 0 -82 28t-32 72v15z" />
<glyph unicode="&#xb4;" d="M400 573l-128 -113l-21 20l115 125z" />
<glyph unicode="&#xb5;" horiz-adv-x="435" d="M89 38l-33 -271h-39l78 633h39l-29 -236q-3 -22 -3 -48q0 -41 26 -65t69 -24q63 0 92 45q18 27 25 84l29 244h40l-29 -238q-10 -83 -39 -119q-45 -53 -119 -53q-71 0 -107 48z" />
<glyph unicode="&#xb6;" horiz-adv-x="547" d="M223 -102h-39l54 440h-12q-58 0 -93 44t-35 115q0 63 32 106q46 64 162 64h227l-25 -39h-42l-89 -730h-39l89 730h-99z" />
<glyph unicode="&#xb7;" horiz-adv-x="208" d="M106 238q27 0 27 -28q0 -14 -11 -24.5t-25 -10.5q-11 0 -18.5 7.5t-7.5 19.5q0 14 10.5 25t24.5 11z" />
<glyph unicode="&#xb8;" d="M264 -70l-90 -125l-26 16l75 132z" />
<glyph unicode="&#xb9;" horiz-adv-x="353" d="M246 667l-49 -400h-33l45 370h-59l19 30h77z" />
<glyph unicode="&#xba;" horiz-adv-x="373" d="M229 673q64 0 104 -39t40 -101q0 -61 -43.5 -102.5t-107.5 -41.5q-63 0 -105.5 39t-42.5 97q0 62 45.5 105t109.5 43zM228 639q-48 0 -81.5 -32.5t-33.5 -78.5q0 -44 32 -74.5t78 -30.5q48 0 79.5 31.5t31.5 78.5t-29.5 76.5t-76.5 29.5z" />
<glyph unicode="&#xbb;" horiz-adv-x="337" d="M21 59l123 152l-86 157l29 17l98 -178l-137 -169zM131 59l123 152l-86 157l29 17l98 -178l-137 -169z" />
<glyph unicode="&#xbc;" horiz-adv-x="814" d="M246 667l-49 -400h-33l45 370h-59l19 30h77zM147 12l521 664l26 -20l-521 -665zM769 104l-4 -30h-56l-10 -74h-33l9 74h-208l284 343l-39 -313h57zM679 104l25 210l-173 -210h148z" />
<glyph unicode="&#xbd;" horiz-adv-x="814" d="M246 667l-49 -400h-33l45 370h-59l19 30h77zM147 12l521 664l26 -20l-521 -665zM472 0l187 180q38 36 52.5 61t14.5 52q0 37 -24.5 61t-62.5 24q-86 0 -97 -106h-32q5 64 40 100t91 36q51 0 85 -32t34 -80q0 -35 -19.5 -66.5t-70.5 -80.5l-124 -119h201l-4 -30h-271z" />
<glyph unicode="&#xbe;" horiz-adv-x="814" d="M68 374h32q1 -36 10 -51q23 -34 71 -34q41 0 69 28t28 69q0 35 -20.5 54t-64.5 25l4 27q7 -1 19 -1q33 0 54 21.5t21 55.5t-21.5 55.5t-56.5 21.5q-31 0 -49 -15.5t-26 -50.5h-32q21 96 109 96q48 0 79 -30t31 -77q0 -70 -72 -95q59 -27 59 -90q0 -53 -37.5 -88.5 t-92.5 -35.5q-50 0 -82 28t-32 72v15zM147 12l521 664l25 -20l-520 -665zM769 104l-4 -30h-57l-9 -74h-34l10 74h-208l283 343l-38 -313h57zM678 104l26 210l-173 -210h147z" />
<glyph unicode="&#xbf;" horiz-adv-x="436" d="M236 513q13 0 21.5 -9t8.5 -22q0 -14 -9 -23t-23 -9q-13 0 -21.5 9t-8.5 22t9.5 22.5t22.5 9.5zM113 256h-37q2 57 39.5 92.5t94.5 35.5t94.5 -36.5t37.5 -91.5q0 -65 -49 -101q-31 -24 -109 -48q-39 -13 -59.5 -24.5t-35.5 -30.5q-26 -32 -26 -74q0 -51 35 -83t90 -32 q74 0 103 56q15 28 16 88h36q-1 -51 -7.5 -77t-24.5 -48q-45 -52 -122 -52q-72 0 -117.5 42t-45.5 109q0 56 36 98q32 36 108 61q50 16 69 24t34 21q33 27 33 75q0 39 -27 64.5t-69 25.5q-43 0 -69 -25t-28 -69z" />
<glyph unicode="&#xc0;" horiz-adv-x="589" d="M-3 0l366 697l179 -697h-44l-57 226h-279l-119 -226h-46zM431 265l-83 319l-165 -319h248zM280 826l43 29l74 -124l-25 -18z" />
<glyph unicode="&#xc1;" horiz-adv-x="589" d="M-3 0l366 697l179 -697h-44l-57 226h-279l-119 -226h-46zM431 265l-83 319l-165 -319h248zM489 820l-134 -107l-25 20l120 122z" />
<glyph unicode="&#xc2;" horiz-adv-x="589" d="M-3 0l366 697l179 -697h-44l-57 226h-279l-119 -226h-46zM431 265l-83 319l-165 -319h248zM376 801l-111 -88l-24 30l140 112l106 -115l-29 -27z" />
<glyph unicode="&#xc3;" horiz-adv-x="589" d="M-3 0l366 697l179 -697h-44l-57 226h-279l-119 -226h-46zM431 265l-83 319l-165 -319h248zM484 817l39 -10q-33 -68 -93 -68q-32 0 -92 29q-29 15 -44 15q-26 0 -45 -38l-39 10q29 67 85 67q18 0 31 -4.5t55 -24.5q33 -15 51 -15q33 0 52 39z" />
<glyph unicode="&#xc4;" horiz-adv-x="589" d="M-3 0l366 697l179 -697h-44l-57 226h-279l-119 -226h-46zM431 265l-83 319l-165 -319h248zM451 808q13 0 21.5 -9t8.5 -22q0 -16 -11 -28t-25 -12q-13 0 -21.5 9t-8.5 23q0 16 10.5 27.5t25.5 11.5zM292 807q12 0 20 -9t8 -23q0 -15 -10.5 -26.5t-24.5 -11.5 q-13 0 -21.5 8.5t-8.5 21.5q0 16 11 28t26 12z" />
<glyph unicode="&#xc5;" horiz-adv-x="589" d="M-3 0l366 697l179 -697h-44l-57 226h-279l-119 -226h-46zM431 265l-83 319l-165 -319h248zM371 864q30 0 52 -22t22 -53t-22 -53.5t-53 -22.5q-32 0 -54 22t-22 54q0 31 22.5 53t54.5 22zM370 829q-17 0 -29 -11.5t-12 -28.5t12 -29t29 -12t28.5 12t11.5 29t-12 28.5 t-28 11.5z" />
<glyph unicode="&#xc6;" horiz-adv-x="844" d="M-9 0l353 667h300l8 -39h-272l63 -243h271l9 -39h-270l79 -307h269l10 -39h-315l-58 223h-280l-117 -223h-50zM430 262l-82 321l-170 -321h252z" />
<glyph unicode="&#xc7;" horiz-adv-x="670" d="M658 581l-7 -56q-84 115 -230 115q-125 0 -207 -82q-45 -44 -71.5 -111.5t-26.5 -137.5q0 -126 76 -204t198 -78q115 0 210 81l-7 -58q-99 -63 -205 -63q-139 0 -227.5 90.5t-88.5 231.5q0 77 27 148.5t75 121.5q95 101 247 101q110 0 184 -52q21 -14 53 -47zM383 -71 l-89 -126l-28 18l75 132z" />
<glyph unicode="&#xc8;" horiz-adv-x="457" d="M460 667l-5 -39h-264l-30 -243h264l-5 -39h-264l-37 -307h264l-5 -39h-307l82 667h307zM240 826l43 29l74 -124l-25 -18z" />
<glyph unicode="&#xc9;" horiz-adv-x="457" d="M460 667l-5 -39h-264l-30 -243h264l-5 -39h-264l-37 -307h264l-5 -39h-307l82 667h307zM433 820l-134 -107l-25 20l120 122z" />
<glyph unicode="&#xca;" horiz-adv-x="457" d="M460 667l-5 -39h-264l-30 -243h264l-5 -39h-264l-37 -307h264l-5 -39h-307l82 667h307zM322 801l-111 -88l-24 30l140 112l106 -115l-29 -27z" />
<glyph unicode="&#xcb;" horiz-adv-x="457" d="M460 667l-5 -39h-264l-30 -243h264l-5 -39h-264l-37 -307h264l-5 -39h-307l82 667h307zM399 808q13 0 21.5 -9t8.5 -22q0 -16 -11 -28t-25 -12q-13 0 -21.5 9t-8.5 23q0 16 10.5 27.5t25.5 11.5zM240 807q12 0 20 -9t8 -23q0 -15 -10.5 -26.5t-24.5 -11.5 q-13 0 -21.5 8.5t-8.5 21.5q0 16 11 28t26 12z" />
<glyph unicode="&#xcc;" horiz-adv-x="240" d="M196 667l-82 -667h-43l82 667h43zM86 830l41 27l67 -126l-25 -18z" />
<glyph unicode="&#xcd;" horiz-adv-x="240" d="M196 667l-82 -667h-43l82 667h43zM294 822l-121 -109l-26 20l110 122z" />
<glyph unicode="&#xce;" horiz-adv-x="240" d="M196 667l-82 -667h-43l82 667h43zM192 801l-94 -88l-25 28l124 114l89 -117l-28 -25z" />
<glyph unicode="&#xcf;" horiz-adv-x="240" d="M196 667l-82 -667h-43l82 667h43zM245 811q13 0 21.5 -9t8.5 -22q0 -16 -11 -28t-25 -12q-13 0 -21.5 9t-8.5 23q0 16 10.5 27.5t25.5 11.5zM138 810q12 0 20 -9t8 -23q0 -15 -10.5 -26.5t-24.5 -11.5q-13 0 -21.5 8.5t-8.5 21.5q0 16 11 28t26 12z" />
<glyph unicode="&#xd0;" horiz-adv-x="635" d="M152 667h133q77 0 123 -13t82 -44q47 -41 73.5 -106.5t26.5 -140.5q0 -80 -31 -154t-87 -126q-50 -46 -108 -64.5t-156 -18.5h-138l43 348h-70l5 39h70zM190 628l-29 -241h186l-5 -39h-186l-38 -309h93q88 0 143 18.5t98 63.5q44 45 69 109.5t25 134.5q0 66 -22 122.5 t-62 91.5q-31 27 -70.5 38t-106.5 11h-95z" />
<glyph unicode="&#xd1;" horiz-adv-x="751" d="M71 0l85 691l437 -604l71 580h43l-85 -690l-437 604l-71 -581h-43zM566 817l39 -10q-33 -68 -93 -68q-32 0 -92 29q-29 15 -44 15q-26 0 -45 -38l-39 10q29 67 85 67q18 0 31 -4.5t55 -24.5q33 -15 51 -15q33 0 52 39z" />
<glyph unicode="&#xd2;" horiz-adv-x="786" d="M420 680q144 0 232 -89t88 -235q0 -139 -82 -244q-98 -125 -264 -125q-142 0 -232.5 89t-90.5 228q0 161 99.5 268.5t249.5 107.5zM420 640q-132 0 -218.5 -93.5t-86.5 -235.5q0 -126 78 -205t202 -79q129 0 215 94t86 235q0 138 -81 212q-80 72 -195 72zM380 826l43 29 l74 -124l-25 -18z" />
<glyph unicode="&#xd3;" horiz-adv-x="786" d="M420 680q144 0 232 -89t88 -235q0 -139 -82 -244q-98 -125 -264 -125q-142 0 -232.5 89t-90.5 228q0 161 99.5 268.5t249.5 107.5zM420 640q-132 0 -218.5 -93.5t-86.5 -235.5q0 -126 78 -205t202 -79q129 0 215 94t86 235q0 138 -81 212q-80 72 -195 72zM562 820 l-134 -107l-25 20l120 122z" />
<glyph unicode="&#xd4;" horiz-adv-x="786" d="M420 680q144 0 232 -89t88 -235q0 -139 -82 -244q-98 -125 -264 -125q-142 0 -232.5 89t-90.5 228q0 161 99.5 268.5t249.5 107.5zM420 640q-132 0 -218.5 -93.5t-86.5 -235.5q0 -126 78 -205t202 -79q129 0 215 94t86 235q0 138 -81 212q-80 72 -195 72zM465 801 l-111 -88l-24 30l140 112l106 -115l-29 -27z" />
<glyph unicode="&#xd5;" horiz-adv-x="786" d="M420 680q144 0 232 -89t88 -235q0 -139 -82 -244q-98 -125 -264 -125q-142 0 -232.5 89t-90.5 228q0 161 99.5 268.5t249.5 107.5zM420 640q-132 0 -218.5 -93.5t-86.5 -235.5q0 -126 78 -205t202 -79q129 0 215 94t86 235q0 138 -81 212q-80 72 -195 72zM579 817l39 -10 q-33 -68 -93 -68q-32 0 -92 29q-29 15 -44 15q-26 0 -45 -38l-39 10q29 67 85 67q18 0 31 -4.5t55 -24.5q33 -15 51 -15q33 0 52 39z" />
<glyph unicode="&#xd6;" horiz-adv-x="786" d="M420 680q144 0 232 -89t88 -235q0 -139 -82 -244q-98 -125 -264 -125q-142 0 -232.5 89t-90.5 228q0 161 99.5 268.5t249.5 107.5zM420 640q-132 0 -218.5 -93.5t-86.5 -235.5q0 -126 78 -205t202 -79q129 0 215 94t86 235q0 138 -81 212q-80 72 -195 72zM539 808 q13 0 21.5 -9t8.5 -22q0 -16 -11 -28t-25 -12q-13 0 -21.5 9t-8.5 23q0 16 10.5 27.5t25.5 11.5zM380 807q12 0 20 -9t8 -23q0 -15 -10.5 -26.5t-24.5 -11.5q-13 0 -21.5 8.5t-8.5 21.5q0 16 11 28t26 12z" />
<glyph unicode="&#xd7;" horiz-adv-x="547" d="M77 160l183 181l-182 185l26 24l181 -184l183 183l28 -27l-184 -183l184 -187l-26 -24l-183 186l-181 -182z" />
<glyph unicode="&#xd8;" horiz-adv-x="786" d="M161 78l-79 -72l-27 29l79 73q-63 86 -63 196q0 82 31 158t85 127q94 91 234 91q139 0 232 -90l77 72l28 -30l-79 -72q61 -85 61 -201q0 -160 -98.5 -266t-247.5 -106q-140 0 -233 91zM646 533l-452 -428q81 -78 202 -78q129 0 214.5 94.5t85.5 236.5q0 103 -50 175z M167 136l454 427q-80 77 -200 77q-132 0 -219 -93.5t-87 -235.5q0 -100 52 -175z" />
<glyph unicode="&#xd9;" horiz-adv-x="648" d="M606 667l-52 -426q-11 -96 -41 -145q-67 -109 -200 -109q-110 0 -179 67q-43 44 -43 121q0 20 4 48l54 444h43l-55 -445q-3 -25 -3 -50q0 -55 30 -86q54 -59 149 -59q57 0 101.5 26.5t68.5 74.5q20 40 28 112l53 427h42zM311 826l43 29l74 -124l-25 -18z" />
<glyph unicode="&#xda;" horiz-adv-x="648" d="M606 667l-52 -426q-11 -96 -41 -145q-67 -109 -200 -109q-110 0 -179 67q-43 44 -43 121q0 20 4 48l54 444h43l-55 -445q-3 -25 -3 -50q0 -55 30 -86q54 -59 149 -59q57 0 101.5 26.5t68.5 74.5q20 40 28 112l53 427h42zM499 820l-134 -107l-25 20l120 122z" />
<glyph unicode="&#xdb;" horiz-adv-x="648" d="M606 667l-52 -426q-11 -96 -41 -145q-67 -109 -200 -109q-110 0 -179 67q-43 44 -43 121q0 20 4 48l54 444h43l-55 -445q-3 -25 -3 -50q0 -55 30 -86q54 -59 149 -59q57 0 101.5 26.5t68.5 74.5q20 40 28 112l53 427h42zM399 801l-111 -88l-24 30l140 112l106 -115 l-29 -27z" />
<glyph unicode="&#xdc;" horiz-adv-x="648" d="M606 667l-52 -426q-11 -96 -41 -145q-67 -109 -200 -109q-110 0 -179 67q-43 44 -43 121q0 20 4 48l54 444h43l-55 -445q-3 -25 -3 -50q0 -55 30 -86q54 -59 149 -59q57 0 101.5 26.5t68.5 74.5q20 40 28 112l53 427h42zM474 808q13 0 21.5 -9t8.5 -22q0 -16 -11 -28 t-25 -12q-13 0 -21.5 9t-8.5 23q0 16 10.5 27.5t25.5 11.5zM315 807q12 0 20 -9t8 -23q0 -15 -10.5 -26.5t-24.5 -11.5q-13 0 -21.5 8.5t-8.5 21.5q0 16 11 28t26 12z" />
<glyph unicode="&#xdd;" horiz-adv-x="511" d="M199 0l38 302l-164 365h48l143 -324l227 324h56l-269 -374l-36 -293h-43zM433 820l-134 -107l-25 20l120 122z" />
<glyph unicode="&#xde;" horiz-adv-x="459" d="M153 667h43l-13 -104h61q100 0 147 -44q45 -45 45 -115q0 -52 -24 -95.5t-65 -65.5q-46 -26 -146 -26h-61l-26 -217h-43zM178 524l-33 -268h64q83 0 118 21q65 40 65 125q0 59 -36 90.5t-104 31.5h-74z" />
<glyph unicode="&#xdf;" horiz-adv-x="467" d="M45 0l45 364h-47l4 36h47l18 141q7 58 13 81.5t19 44.5q46 74 140 74q71 0 114 -41.5t43 -109.5q0 -48 -18.5 -94t-48.5 -72q-35 -31 -96 -42q68 -17 100 -49q49 -49 49 -131q0 -93 -53.5 -153.5t-135.5 -60.5q-30 0 -73 11l5 36q35 -9 61 -9q69 0 112.5 50t43.5 129 q0 74 -47 116t-130 43l4 36q74 3 116 35q32 23 51 65t19 89q0 53 -32 84t-87 31q-77 0 -109 -71q-13 -29 -21 -95l-66 -538h-40z" />
<glyph unicode="&#xe0;" horiz-adv-x="518" d="M466 400l-49 -400h-39l8 71q-40 -46 -74 -63.5t-81 -17.5q-82 0 -134 54.5t-52 139.5q0 97 60 161.5t150 64.5q53 0 89.5 -20.5t72.5 -70.5l10 81h39zM259 373q-74 0 -123.5 -53.5t-49.5 -132.5q0 -69 42 -114.5t106 -45.5q70 0 122.5 58t52.5 136q0 67 -42 109.5 t-108 42.5zM220 577l39 28l71 -129l-24 -16z" />
<glyph unicode="&#xe1;" horiz-adv-x="518" d="M466 400l-49 -400h-39l8 71q-40 -46 -74 -63.5t-81 -17.5q-82 0 -134 54.5t-52 139.5q0 97 60 161.5t150 64.5q53 0 89.5 -20.5t72.5 -70.5l10 81h39zM259 373q-74 0 -123.5 -53.5t-49.5 -132.5q0 -69 42 -114.5t106 -45.5q70 0 122.5 58t52.5 136q0 67 -42 109.5 t-108 42.5zM400 573l-128 -113l-21 20l115 125z" />
<glyph unicode="&#xe2;" horiz-adv-x="518" d="M466 400l-49 -400h-39l8 71q-40 -46 -74 -63.5t-81 -17.5q-82 0 -134 54.5t-52 139.5q0 97 60 161.5t150 64.5q53 0 89.5 -20.5t72.5 -70.5l10 81h39zM259 373q-74 0 -123.5 -53.5t-49.5 -132.5q0 -69 42 -114.5t106 -45.5q70 0 122.5 58t52.5 136q0 67 -42 109.5 t-108 42.5zM302 557l-104 -97l-23 25l133 123l97 -125l-28 -23z" />
<glyph unicode="&#xe3;" horiz-adv-x="518" d="M466 400l-49 -400h-39l8 71q-40 -46 -74 -63.5t-81 -17.5q-82 0 -134 54.5t-52 139.5q0 97 60 161.5t150 64.5q53 0 89.5 -20.5t72.5 -70.5l10 81h39zM259 373q-74 0 -123.5 -53.5t-49.5 -132.5q0 -69 42 -114.5t106 -45.5q70 0 122.5 58t52.5 136q0 67 -42 109.5 t-108 42.5zM404 554l32 -10q-29 -66 -87 -66q-27 0 -75 29q-25 16 -39 16q-26 0 -42 -38l-33 9q29 65 78 65q16 0 29 -5.5t46 -25.5q24 -14 39 -14q16 0 27 8.5t25 31.5z" />
<glyph unicode="&#xe4;" horiz-adv-x="518" d="M466 400l-49 -400h-39l8 71q-40 -46 -74 -63.5t-81 -17.5q-82 0 -134 54.5t-52 139.5q0 97 60 161.5t150 64.5q53 0 89.5 -20.5t72.5 -70.5l10 81h39zM259 373q-74 0 -123.5 -53.5t-49.5 -132.5q0 -69 42 -114.5t106 -45.5q70 0 122.5 58t52.5 136q0 67 -42 109.5 t-108 42.5zM373 549q12 0 20 -8.5t8 -21.5q0 -16 -10 -27.5t-24 -11.5q-12 0 -20 9t-8 22q0 15 10.5 26.5t23.5 11.5zM221 548q11 0 19 -9t8 -22q0 -15 -10.5 -26t-24.5 -11q-12 0 -20 8.5t-8 21.5q0 15 11 26.5t25 11.5z" />
<glyph unicode="&#xe5;" horiz-adv-x="518" d="M466 400l-49 -400h-39l8 71q-40 -46 -74 -63.5t-81 -17.5q-82 0 -134 54.5t-52 139.5q0 97 60 161.5t150 64.5q53 0 89.5 -20.5t72.5 -70.5l10 81h39zM259 373q-74 0 -123.5 -53.5t-49.5 -132.5q0 -69 42 -114.5t106 -45.5q70 0 122.5 58t52.5 136q0 67 -42 109.5 t-108 42.5zM297 611q30 0 52 -22t22 -53t-22 -53.5t-53 -22.5q-32 0 -54 22t-22 54q0 31 22.5 53t54.5 22zM296 576q-17 0 -29 -11.5t-12 -28.5t12 -29t29 -12t28.5 12t11.5 29q0 16 -12 28t-28 12z" />
<glyph unicode="&#xe6;" horiz-adv-x="749" d="M364 205l-1 -37q0 -67 34 -101q43 -43 111 -43q40 0 70.5 14t62.5 48l27 -20q-66 -79 -160 -79q-119 0 -167 106q-16 -51 -55.5 -78.5t-95.5 -27.5q-68 0 -112 38.5t-44 96.5q0 59 45.5 97.5t115.5 38.5q84 0 132 -61l4 33l6 39q3 15 3 31q0 80 -134 80q-43 0 -103 -10 l5 37q62 10 103 10q73 0 115 -26q31 -19 43 -63q39 51 71.5 70t80.5 19q80 0 127 -57t48 -155h-332zM195 221q-52 0 -86 -28t-34 -71q0 -42 33 -70t83 -28q53 0 89.5 29.5t36.5 73.5q0 40 -34.5 67t-87.5 27zM371 241h286q-9 68 -44 103.5t-92 35.5q-56 0 -95 -36t-55 -103z " />
<glyph unicode="&#xe7;" horiz-adv-x="425" d="M400 356l-5 -43q-37 36 -66.5 49.5t-70.5 13.5q-75 0 -124 -54.5t-49 -138.5q0 -73 43 -116t116 -43q35 0 61.5 11.5t60.5 41.5l-6 -50q-52 -40 -120 -40q-87 0 -141.5 54.5t-54.5 142.5q0 98 61 163.5t152 65.5q79 0 143 -57zM244 -70l-90 -125l-26 16l75 132z" />
<glyph unicode="&#xe8;" horiz-adv-x="469" d="M83 207v-28q0 -68 42 -111.5t109 -43.5q39 0 67.5 15t58.5 51l27 -19q-36 -46 -71 -65t-85 -19q-84 0 -135.5 53t-51.5 139q0 104 56 171t142 67q55 0 97 -28.5t62 -78.5q13 -35 16 -103h-334zM89 243h289q-5 47 -22 75q-40 62 -114 62q-70 0 -116 -55q-24 -31 -37 -82z M193 577l39 28l71 -129l-24 -16z" />
<glyph unicode="&#xe9;" horiz-adv-x="469" d="M83 207v-28q0 -68 42 -111.5t109 -43.5q39 0 67.5 15t58.5 51l27 -19q-36 -46 -71 -65t-85 -19q-84 0 -135.5 53t-51.5 139q0 104 56 171t142 67q55 0 97 -28.5t62 -78.5q13 -35 16 -103h-334zM89 243h289q-5 47 -22 75q-40 62 -114 62q-70 0 -116 -55q-24 -31 -37 -82z M370 573l-128 -113l-21 20l115 125z" />
<glyph unicode="&#xea;" horiz-adv-x="469" d="M83 207v-28q0 -68 42 -111.5t109 -43.5q39 0 67.5 15t58.5 51l27 -19q-36 -46 -71 -65t-85 -19q-84 0 -135.5 53t-51.5 139q0 104 56 171t142 67q55 0 97 -28.5t62 -78.5q13 -35 16 -103h-334zM89 243h289q-5 47 -22 75q-40 62 -114 62q-70 0 -116 -55q-24 -31 -37 -82z M278 557l-104 -97l-23 25l133 123l97 -125l-28 -23z" />
<glyph unicode="&#xeb;" horiz-adv-x="469" d="M83 207v-28q0 -68 42 -111.5t109 -43.5q39 0 67.5 15t58.5 51l27 -19q-36 -46 -71 -65t-85 -19q-84 0 -135.5 53t-51.5 139q0 104 56 171t142 67q55 0 97 -28.5t62 -78.5q13 -35 16 -103h-334zM89 243h289q-5 47 -22 75q-40 62 -114 62q-70 0 -116 -55q-24 -31 -37 -82z M348 549q12 0 20 -8.5t8 -21.5q0 -16 -10 -27.5t-24 -11.5q-12 0 -20 9t-8 22q0 15 10.5 26.5t23.5 11.5zM196 548q11 0 19 -9t8 -22q0 -15 -10.5 -26t-24.5 -11q-12 0 -20 8.5t-8 21.5q0 15 11 26.5t25 11.5z" />
<glyph unicode="&#xec;" horiz-adv-x="186" d="M134 400l-50 -400h-39l49 400h40zM43 577l39 28l65 -129l-24 -16z" />
<glyph unicode="&#xed;" horiz-adv-x="186" d="M134 400l-50 -400h-39l49 400h40zM237 573l-121 -113l-21 20l108 125z" />
<glyph unicode="&#xee;" horiz-adv-x="186" d="M133 400l-49 -400h-39l49 400h39zM135 553l-87 -93l-24 23l116 125l80 -126l-28 -22z" />
<glyph unicode="&#xef;" horiz-adv-x="186" d="M134 400l-50 -400h-39l49 400h40zM183 549q12 0 20 -8.5t8 -21.5q0 -16 -10.5 -27.5t-24.5 -11.5q-12 0 -20 9t-8 22q0 15 10.5 26.5t24.5 11.5zM82 548q11 0 19 -9t8 -22q0 -15 -10.5 -26t-24.5 -11q-12 0 -20 8.5t-8 21.5q0 15 11 26.5t25 11.5z" />
<glyph unicode="&#xf0;" horiz-adv-x="522" d="M127 698l19 30q80 -19 135 -61l95 47l20 -29l-83 -44q72 -65 115 -171t43 -221q0 -110 -43 -175q-28 -40 -74.5 -63.5t-98.5 -23.5q-88 0 -149 58.5t-61 143.5q0 93 64 158.5t155 65.5q96 0 161 -76q-14 81 -55 160.5t-93 125.5l-102 -53l-19 31l88 47q-45 33 -117 50z M266 377q-74 0 -127 -54t-53 -130q0 -71 48.5 -120t119.5 -49q74 0 124 52t50 130q0 76 -45 123.5t-117 47.5z" />
<glyph unicode="&#xf1;" horiz-adv-x="431" d="M133 400l-7 -61q32 39 60.5 55t65.5 16q52 0 82 -29.5t30 -79.5q0 -17 -6 -69l-28 -232h-40l29 231q4 40 6 65q1 35 -19.5 56t-57.5 21q-57 0 -97 -42q-17 -18 -25.5 -39t-12.5 -61l-29 -231h-39l49 400h39zM357 554l32 -10q-29 -66 -87 -66q-27 0 -75 29q-25 16 -39 16 q-26 0 -42 -38l-33 9q29 65 78 65q16 0 29 -5.5t46 -25.5q24 -14 39 -14q16 0 27 8.5t25 31.5z" />
<glyph unicode="&#xf2;" horiz-adv-x="520" d="M265 413q91 0 147 -58t56 -152q0 -91 -62 -153.5t-152 -62.5q-89 0 -149 58t-60 145q0 93 64 158t156 65zM265 376q-73 0 -126 -54t-53 -129q0 -71 48.5 -120t118.5 -49q74 0 124 52t50 130q0 76 -45 123t-117 47zM220 577l39 28l71 -129l-24 -16z" />
<glyph unicode="&#xf3;" horiz-adv-x="520" d="M265 413q91 0 147 -58t56 -152q0 -91 -62 -153.5t-152 -62.5q-89 0 -149 58t-60 145q0 93 64 158t156 65zM265 376q-73 0 -126 -54t-53 -129q0 -71 48.5 -120t118.5 -49q74 0 124 52t50 130q0 76 -45 123t-117 47zM403 573l-128 -113l-21 20l115 125z" />
<glyph unicode="&#xf4;" horiz-adv-x="520" d="M265 413q91 0 147 -58t56 -152q0 -91 -62 -153.5t-152 -62.5q-89 0 -149 58t-60 145q0 93 64 158t156 65zM265 376q-73 0 -126 -54t-53 -129q0 -71 48.5 -120t118.5 -49q74 0 124 52t50 130q0 76 -45 123t-117 47zM304 557l-111 -97l-23 25l140 123l103 -123l-26 -25z " />
<glyph unicode="&#xf5;" horiz-adv-x="520" d="M265 413q91 0 147 -58t56 -152q0 -91 -62 -153.5t-152 -62.5q-89 0 -149 58t-60 145q0 93 64 158t156 65zM265 376q-73 0 -126 -54t-53 -129q0 -71 48.5 -120t118.5 -49q74 0 124 52t50 130q0 76 -45 123t-117 47zM403 554l32 -10q-29 -66 -87 -66q-27 0 -75 29 q-25 16 -39 16q-26 0 -42 -38l-33 9q29 65 78 65q16 0 29 -5.5t46 -25.5q24 -14 39 -14q16 0 27 8.5t25 31.5z" />
<glyph unicode="&#xf6;" horiz-adv-x="520" d="M265 413q91 0 147 -58t56 -152q0 -91 -62 -153.5t-152 -62.5q-89 0 -149 58t-60 145q0 93 64 158t156 65zM265 376q-73 0 -126 -54t-53 -129q0 -71 48.5 -120t118.5 -49q74 0 124 52t50 130q0 76 -45 123t-117 47zM373 549q12 0 20 -8.5t8 -21.5q0 -16 -10 -27.5 t-24 -11.5q-12 0 -20 9t-8 22q0 15 10.5 26.5t23.5 11.5zM221 548q11 0 19 -9t8 -22q0 -15 -10.5 -26t-24.5 -11q-12 0 -20 8.5t-8 21.5q0 15 11 26.5t25 11.5z" />
<glyph unicode="&#xf7;" horiz-adv-x="547" d="M50 321v39h473v-39h-473zM287 267q15 0 24.5 -10t9.5 -25q0 -14 -10.5 -24.5t-24.5 -10.5t-23.5 10t-9.5 25t10 25t24 10zM287 483q15 0 24.5 -10t9.5 -25q0 -14 -10.5 -24.5t-24.5 -10.5t-23.5 10t-9.5 25t10 25t24 10z" />
<glyph unicode="&#xf8;" horiz-adv-x="520" d="M109 41l-62 -60l-22 27l61 59q-40 53 -40 123q0 93 64 158t156 65q90 0 143 -55l64 60l24 -27l-65 -59q36 -58 36 -127q0 -92 -61.5 -155t-151.5 -63q-84 0 -146 54zM401 307l-260 -240q46 -43 113 -43q74 0 123.5 52t49.5 131q0 57 -26 100zM118 92l260 242 q-45 42 -112 42q-74 0 -126.5 -54t-52.5 -130q0 -52 31 -100z" />
<glyph unicode="&#xf9;" horiz-adv-x="435" d="M383 400l-29 -238q-10 -83 -39 -119q-44 -53 -120 -53q-62 0 -97 35t-35 97q0 19 4 48l28 230h39l-29 -236q-4 -31 -4 -48q0 -41 26 -65t70 -24q63 0 92 45q18 27 25 84l30 244h39zM180 577l39 28l71 -129l-24 -16z" />
<glyph unicode="&#xfa;" horiz-adv-x="435" d="M383 400l-29 -238q-10 -83 -39 -119q-44 -53 -120 -53q-62 0 -97 35t-35 97q0 19 4 48l28 230h39l-29 -236q-4 -31 -4 -48q0 -41 26 -65t70 -24q63 0 92 45q18 27 25 84l30 244h39zM360 573l-128 -113l-21 20l115 125z" />
<glyph unicode="&#xfb;" horiz-adv-x="435" d="M383 400l-29 -238q-10 -83 -39 -119q-44 -53 -120 -53q-62 0 -97 35t-35 97q0 19 4 48l28 230h39l-29 -236q-4 -31 -4 -48q0 -41 26 -65t70 -24q63 0 92 45q18 27 25 84l30 244h39zM262 557l-104 -97l-23 25l133 123l97 -125l-28 -23z" />
<glyph unicode="&#xfc;" horiz-adv-x="435" d="M383 400l-29 -238q-10 -83 -39 -119q-44 -53 -120 -53q-62 0 -97 35t-35 97q0 19 4 48l28 230h39l-29 -236q-4 -31 -4 -48q0 -41 26 -65t70 -24q63 0 92 45q18 27 25 84l30 244h39zM333 549q12 0 20 -8.5t8 -21.5q0 -16 -10 -27.5t-24 -11.5q-12 0 -20 9t-8 22 q0 15 10.5 26.5t23.5 11.5zM181 548q11 0 19 -9t8 -22q0 -15 -10.5 -26t-24.5 -11q-12 0 -20 8.5t-8 21.5q0 15 11 26.5t25 11.5z" />
<glyph unicode="&#xfd;" horiz-adv-x="372" d="M-13 -223l146 258l-105 365h43l88 -318l174 318h47l-346 -623h-47zM323 573l-128 -113l-21 20l115 125z" />
<glyph unicode="&#xfe;" horiz-adv-x="516" d="M175 729l-49 -397q38 42 74 60t82 18q79 0 131 -55.5t52 -138.5q0 -95 -60 -160.5t-148 -65.5q-100 0 -162 94l-39 -317h-39l118 962h40zM274 373q-71 0 -120.5 -55t-49.5 -134q0 -68 42.5 -112.5t107.5 -44.5q71 0 120.5 53t49.5 130q0 73 -41.5 118t-108.5 45z" />
<glyph unicode="&#xff;" horiz-adv-x="372" d="M-13 -223l146 258l-105 365h43l88 -318l174 318h47l-346 -623h-47zM300 549q12 0 20 -8.5t8 -21.5q0 -16 -10 -27.5t-24 -11.5q-12 0 -20 9t-8 22q0 15 10.5 26.5t23.5 11.5zM148 548q11 0 19 -9t8 -22q0 -15 -10.5 -26t-24.5 -11q-12 0 -20 8.5t-8 21.5q0 15 11 26.5 t25 11.5z" />
<glyph unicode="&#x100;" horiz-adv-x="589" d="M-3 0l366 697l179 -697h-44l-57 226h-279l-119 -226h-46zM431 265l-83 319l-165 -319h248zM234 794h273l-5 -39h-273z" />
<glyph unicode="&#x101;" horiz-adv-x="518" d="M466 400l-49 -400h-39l8 71q-40 -46 -74 -63.5t-81 -17.5q-82 0 -134 54.5t-52 139.5q0 97 60 161.5t150 64.5q53 0 89.5 -20.5t72.5 -70.5l10 81h39zM259 373q-74 0 -123.5 -53.5t-49.5 -132.5q0 -69 42 -114.5t106 -45.5q70 0 122.5 58t52.5 136q0 67 -42 109.5 t-108 42.5zM176 535h246l-5 -38h-246z" />
<glyph unicode="&#x102;" horiz-adv-x="589" d="M-3 0l366 697l179 -697h-44l-57 226h-279l-119 -226h-46zM431 265l-83 319l-165 -319h248zM252 841h42q2 -43 18.5 -62.5t51.5 -19.5q68 0 94 82h42q-12 -56 -49.5 -89.5t-89.5 -33.5t-80 31.5t-29 91.5z" />
<glyph unicode="&#x103;" horiz-adv-x="518" d="M466 400l-49 -400h-39l8 71q-40 -46 -74 -63.5t-81 -17.5q-82 0 -134 54.5t-52 139.5q0 97 60 161.5t150 64.5q53 0 89.5 -20.5t72.5 -70.5l10 81h39zM259 373q-74 0 -123.5 -53.5t-49.5 -132.5q0 -69 42 -114.5t106 -45.5q70 0 122.5 58t52.5 136q0 67 -42 109.5 t-108 42.5zM190 589h37q3 -47 18.5 -67t49.5 -20q64 0 90 87h37q-11 -57 -46.5 -90t-85.5 -33q-47 0 -73 31.5t-27 91.5z" />
<glyph unicode="&#x104;" horiz-adv-x="589" d="M363 697l179 -697q-101 -55 -101 -103q0 -43 49 -43q27 0 68 23l-16 -41q-35 -17 -63 -17q-35 0 -57 20.5t-22 52.5q0 68 100 108l-59 226h-279l-119 -226h-46zM431 265l-83 319l-165 -319h248z" />
<glyph unicode="&#x105;" horiz-adv-x="518" d="M466 400l-49 -400q-43 -33 -60.5 -56t-17.5 -46q0 -37 43 -37q23 0 59 13l-13 -36q-28 -12 -52 -12q-34 0 -54.5 18.5t-20.5 49.5q0 56 77 106l8 71q-40 -46 -74 -63.5t-81 -17.5q-82 0 -134 54.5t-52 139.5q0 97 60 161.5t150 64.5q53 0 89.5 -20.5t72.5 -70.5l10 81h39 zM259 373q-74 0 -123.5 -53.5t-49.5 -132.5q0 -69 42 -114.5t106 -45.5q70 0 122.5 58t52.5 136q0 67 -42 109.5t-108 42.5z" />
<glyph unicode="&#x106;" horiz-adv-x="670" d="M658 581l-7 -56q-84 115 -230 115q-125 0 -207 -82q-45 -44 -71.5 -111.5t-26.5 -137.5q0 -126 76 -204t198 -78q115 0 210 81l-7 -58q-99 -63 -205 -63q-139 0 -227.5 90.5t-88.5 231.5q0 77 27 148.5t75 121.5q95 101 247 101q110 0 184 -52q21 -14 53 -47zM548 820 l-134 -107l-25 20l120 122z" />
<glyph unicode="&#x107;" horiz-adv-x="425" d="M400 356l-5 -43q-37 36 -66.5 49.5t-70.5 13.5q-75 0 -124 -54.5t-49 -138.5q0 -73 43 -116t116 -43q35 0 61.5 11.5t60.5 41.5l-6 -50q-52 -40 -120 -40q-87 0 -141.5 54.5t-54.5 142.5q0 98 61 163.5t152 65.5q79 0 143 -57zM377 573l-128 -113l-21 20l115 125z" />
<glyph unicode="&#x108;" horiz-adv-x="670" d="M658 581l-7 -56q-84 115 -230 115q-125 0 -207 -82q-45 -44 -71.5 -111.5t-26.5 -137.5q0 -126 76 -204t198 -78q115 0 210 81l-7 -58q-99 -63 -205 -63q-139 0 -227.5 90.5t-88.5 231.5q0 77 27 148.5t75 121.5q95 101 247 101q110 0 184 -52q21 -14 53 -47zM452 801 l-111 -88l-24 30l140 112l106 -115l-29 -27z" />
<glyph unicode="&#x109;" horiz-adv-x="425" d="M400 356l-5 -43q-37 36 -66.5 49.5t-70.5 13.5q-75 0 -124 -54.5t-49 -138.5q0 -73 43 -116t116 -43q35 0 61.5 11.5t60.5 41.5l-6 -50q-52 -40 -120 -40q-87 0 -141.5 54.5t-54.5 142.5q0 98 61 163.5t152 65.5q79 0 143 -57zM277 557l-104 -97l-23 25l133 123l97 -125 l-28 -23z" />
<glyph unicode="&#x10a;" horiz-adv-x="670" d="M658 581l-7 -56q-84 115 -230 115q-125 0 -207 -82q-45 -44 -71.5 -111.5t-26.5 -137.5q0 -126 76 -204t198 -78q115 0 210 81l-7 -58q-99 -63 -205 -63q-139 0 -227.5 90.5t-88.5 231.5q0 77 27 148.5t75 121.5q95 101 247 101q110 0 184 -52q21 -14 53 -47zM449 810 q13 0 21.5 -9.5t8.5 -23.5q0 -16 -11.5 -28t-26.5 -12q-14 0 -22.5 9t-8.5 23q0 17 11.5 29t27.5 12z" />
<glyph unicode="&#x10b;" horiz-adv-x="425" d="M400 356l-5 -43q-37 36 -66.5 49.5t-70.5 13.5q-75 0 -124 -54.5t-49 -138.5q0 -73 43 -116t116 -43q35 0 61.5 11.5t60.5 41.5l-6 -50q-52 -40 -120 -40q-87 0 -141.5 54.5t-54.5 142.5q0 98 61 163.5t152 65.5q79 0 143 -57zM280 551q13 0 21 -9t8 -23q0 -16 -11 -27.5 t-25 -11.5q-13 0 -21.5 9t-8.5 22q0 16 11 28t26 12z" />
<glyph unicode="&#x10c;" horiz-adv-x="670" d="M658 581l-7 -56q-84 115 -230 115q-125 0 -207 -82q-45 -44 -71.5 -111.5t-26.5 -137.5q0 -126 76 -204t198 -78q115 0 210 81l-7 -58q-99 -63 -205 -63q-139 0 -227.5 90.5t-88.5 231.5q0 77 27 148.5t75 121.5q95 101 247 101q110 0 184 -52q21 -14 53 -47zM441 767 l111 88l24 -29l-140 -113l-106 115l29 27z" />
<glyph unicode="&#x10d;" horiz-adv-x="425" d="M400 356l-5 -43q-37 36 -66.5 49.5t-70.5 13.5q-75 0 -124 -54.5t-49 -138.5q0 -73 43 -116t116 -43q35 0 61.5 11.5t60.5 41.5l-6 -50q-52 -40 -120 -40q-87 0 -141.5 54.5t-54.5 142.5q0 98 61 163.5t152 65.5q79 0 143 -57zM273 510l105 98l23 -25l-133 -123l-97 124 l27 24z" />
<glyph unicode="&#x10e;" horiz-adv-x="635" d="M153 667h133q76 0 122 -13t82 -44q47 -41 73.5 -106.5t26.5 -139.5q0 -80 -31.5 -154.5t-86.5 -126.5q-50 -47 -108 -65t-155 -18h-138zM191 628l-72 -589h93q88 0 142.5 18.5t97.5 63.5q44 46 69 110.5t25 133.5q0 66 -22 122.5t-62 91.5q-30 27 -70 38t-107 11h-94z M342 767l111 88l24 -29l-140 -113l-106 115l29 27z" />
<glyph unicode="&#x10f;" horiz-adv-x="589" d="M507 729l-90 -729h-39l8 66q-42 -44 -75 -60t-79 -16q-82 0 -134.5 54.5t-52.5 138.5q0 96 59.5 161.5t146.5 65.5q54 0 93 -23t72 -74l51 416h40zM254 373q-71 0 -119.5 -54t-48.5 -133q0 -68 43.5 -114t107.5 -46q69 0 119 57t50 135q0 68 -42.5 111.5t-109.5 43.5z M615 733l41 -21l-89 -140l-27 13z" />
<glyph unicode="&#x110;" horiz-adv-x="635" d="M152 667h133q77 0 123 -13t82 -44q47 -41 73.5 -106.5t26.5 -140.5q0 -80 -31 -154t-87 -126q-50 -46 -108 -64.5t-156 -18.5h-138l43 348h-70l5 39h70zM190 628l-29 -241h186l-5 -39h-186l-38 -309h93q88 0 143 18.5t98 63.5q44 45 69 109.5t25 134.5q0 66 -22 122.5 t-62 91.5q-31 27 -70.5 38t-106.5 11h-95z" />
<glyph unicode="&#x111;" horiz-adv-x="518" d="M560 620l-5 -35h-66l-72 -585h-39l8 66q-42 -44 -75 -60t-79 -16q-82 0 -134.5 54.5t-52.5 138.5q0 96 59.5 161.5t146.5 65.5q54 0 93 -23t72 -74l33 272h-122l5 35h122l13 109h40l-14 -109h67zM254 373q-71 0 -119.5 -54t-48.5 -133q0 -68 43.5 -114t107.5 -46 q69 0 119 57t50 135q0 68 -42.5 111.5t-109.5 43.5z" />
<glyph unicode="&#x112;" horiz-adv-x="457" d="M460 667l-5 -39h-264l-30 -243h264l-5 -39h-264l-37 -307h264l-5 -39h-307l82 667h307zM182 794h273l-5 -39h-273z" />
<glyph unicode="&#x113;" horiz-adv-x="469" d="M83 207v-28q0 -68 42 -111.5t109 -43.5q39 0 67.5 15t58.5 51l27 -19q-36 -46 -71 -65t-85 -19q-84 0 -135.5 53t-51.5 139q0 104 56 171t142 67q55 0 97 -28.5t62 -78.5q13 -35 16 -103h-334zM89 243h289q-5 47 -22 75q-40 62 -114 62q-70 0 -116 -55q-24 -31 -37 -82z M149 535h246l-5 -38h-246z" />
<glyph unicode="&#x114;" horiz-adv-x="457" d="M460 667l-5 -39h-264l-30 -243h264l-5 -39h-264l-37 -307h264l-5 -39h-307l82 667h307zM202 841h42q2 -43 18.5 -62.5t51.5 -19.5q68 0 94 82h42q-12 -56 -49.5 -89.5t-89.5 -33.5t-80 31.5t-29 91.5z" />
<glyph unicode="&#x115;" horiz-adv-x="469" d="M83 207v-28q0 -68 42 -111.5t109 -43.5q39 0 67.5 15t58.5 51l27 -19q-36 -46 -71 -65t-85 -19q-84 0 -135.5 53t-51.5 139q0 104 56 171t142 67q55 0 97 -28.5t62 -78.5q13 -35 16 -103h-334zM89 243h289q-5 47 -22 75q-40 62 -114 62q-70 0 -116 -55q-24 -31 -37 -82z M161 589h37q3 -47 18.5 -67t49.5 -20q64 0 90 87h37q-11 -57 -46.5 -90t-85.5 -33q-47 0 -73 31.5t-27 91.5z" />
<glyph unicode="&#x116;" horiz-adv-x="457" d="M460 667l-5 -39h-264l-30 -243h264l-5 -39h-264l-37 -307h264l-5 -39h-307l82 667h307zM320 810q13 0 21.5 -9.5t8.5 -23.5q0 -16 -11.5 -28t-26.5 -12q-14 0 -22.5 9t-8.5 23q0 17 11.5 29t27.5 12z" />
<glyph unicode="&#x117;" horiz-adv-x="469" d="M83 207v-28q0 -68 42 -111.5t109 -43.5q39 0 67.5 15t58.5 51l27 -19q-36 -46 -71 -65t-85 -19q-84 0 -135.5 53t-51.5 139q0 104 56 171t142 67q55 0 97 -28.5t62 -78.5q13 -35 16 -103h-334zM89 243h289q-5 47 -22 75q-40 62 -114 62q-70 0 -116 -55q-24 -31 -37 -82z M272 551q13 0 21 -9t8 -23q0 -16 -11 -27.5t-25 -11.5q-13 0 -21.5 9t-8.5 22q0 16 11 28t26 12z" />
<glyph unicode="&#x118;" horiz-adv-x="457" d="M383 39l-5 -39q-102 -55 -102 -103q0 -43 49 -43q28 0 68 23l-15 -41q-37 -17 -63 -17q-35 0 -57.5 20.5t-22.5 52.5q0 67 100 108h-264l82 667h307l-5 -39h-264l-30 -243h264l-5 -39h-264l-37 -307h264z" />
<glyph unicode="&#x119;" horiz-adv-x="469" d="M340 -123l-14 -36q-27 -12 -52 -12q-34 0 -54 18.5t-20 49.5q0 54 59 91q-14 -1 -29 -1q-83 0 -134.5 53t-51.5 139q0 104 56 171t142 67q55 0 97 -28.5t62 -78.5q13 -35 16 -103h-334v-28q0 -68 42 -111.5t109 -43.5q39 0 67.5 15t58.5 51l27 -19q-30 -40 -62 -61 q-87 -57 -87 -110q0 -16 11.5 -26t31.5 -10t59 13zM89 243h289q-5 47 -22 75q-40 62 -114 62q-70 0 -116 -55q-24 -31 -37 -82z" />
<glyph unicode="&#x11a;" horiz-adv-x="457" d="M460 667l-5 -39h-264l-30 -243h264l-5 -39h-264l-37 -307h264l-5 -39h-307l82 667h307zM315 767l111 88l24 -29l-140 -113l-106 115l29 27z" />
<glyph unicode="&#x11b;" horiz-adv-x="469" d="M83 207v-28q0 -68 42 -111.5t109 -43.5q39 0 67.5 15t58.5 51l27 -19q-36 -46 -71 -65t-85 -19q-84 0 -135.5 53t-51.5 139q0 104 56 171t142 67q55 0 97 -28.5t62 -78.5q13 -35 16 -103h-334zM89 243h289q-5 47 -22 75q-40 62 -114 62q-70 0 -116 -55q-24 -31 -37 -82z M266 510l105 98l23 -25l-133 -123l-97 124l27 24z" />
<glyph unicode="&#x11c;" horiz-adv-x="785" d="M458 321h279q-16 -123 -77 -202q-48 -63 -118 -97.5t-149 -34.5q-69 0 -134 27t-108 73q-80 86 -80 220q0 74 27 145.5t75 124.5q94 103 244 103q203 0 295 -176l-35 -22q-31 61 -73 96q-78 62 -187 62q-131 0 -216.5 -95.5t-85.5 -241.5q0 -122 76.5 -199t197.5 -77 q74 0 139.5 32.5t105.5 90.5q36 53 56 132h-237zM456 801l-111 -88l-24 30l140 112l106 -115l-29 -27z" />
<glyph unicode="&#x11d;" horiz-adv-x="517" d="M465 400l-50 -409q-15 -121 -55 -170q-53 -64 -154 -64q-96 0 -144 57q-18 21 -25 45.5t-9 67.5h37q4 -59 26 -88q37 -45 115 -45q84 0 125 52q32 41 43 131l10 87q-42 -42 -75 -58t-77 -16q-80 0 -133.5 55.5t-53.5 138.5q0 99 66 168q53 58 143 58q57 0 93.5 -21.5 t67.5 -74.5l11 86h39zM259 373q-73 0 -123 -53.5t-50 -132.5q0 -67 40 -112q20 -22 50.5 -35.5t59.5 -13.5q70 0 120 55t50 132q0 72 -40.5 116t-106.5 44zM301 557l-104 -97l-23 25l133 123l97 -125l-28 -23z" />
<glyph unicode="&#x11e;" horiz-adv-x="785" d="M458 321h279q-16 -123 -77 -202q-48 -63 -118 -97.5t-149 -34.5q-69 0 -134 27t-108 73q-80 86 -80 220q0 74 27 145.5t75 124.5q94 103 244 103q203 0 295 -176l-35 -22q-31 61 -73 96q-78 62 -187 62q-131 0 -216.5 -95.5t-85.5 -241.5q0 -122 76.5 -199t197.5 -77 q74 0 139.5 32.5t105.5 90.5q36 53 56 132h-237zM333 841h42q2 -43 18.5 -62.5t51.5 -19.5q68 0 94 82h42q-12 -56 -49.5 -89.5t-89.5 -33.5t-80 31.5t-29 91.5z" />
<glyph unicode="&#x11f;" horiz-adv-x="517" d="M465 400l-50 -409q-15 -121 -55 -170q-53 -64 -154 -64q-96 0 -144 57q-18 21 -25 45.5t-9 67.5h37q4 -59 26 -88q37 -45 115 -45q84 0 125 52q32 41 43 131l10 87q-42 -42 -75 -58t-77 -16q-80 0 -133.5 55.5t-53.5 138.5q0 99 66 168q53 58 143 58q57 0 93.5 -21.5 t67.5 -74.5l11 86h39zM259 373q-73 0 -123 -53.5t-50 -132.5q0 -67 40 -112q20 -22 50.5 -35.5t59.5 -13.5q70 0 120 55t50 132q0 72 -40.5 116t-106.5 44zM186 589h37q3 -47 18.5 -67t49.5 -20q64 0 90 87h37q-11 -57 -46.5 -90t-85.5 -33q-47 0 -73 31.5t-27 91.5z" />
<glyph unicode="&#x120;" horiz-adv-x="785" d="M458 321h279q-16 -123 -77 -202q-48 -63 -118 -97.5t-149 -34.5q-69 0 -134 27t-108 73q-80 86 -80 220q0 74 27 145.5t75 124.5q94 103 244 103q203 0 295 -176l-35 -22q-31 61 -73 96q-78 62 -187 62q-131 0 -216.5 -95.5t-85.5 -241.5q0 -122 76.5 -199t197.5 -77 q74 0 139.5 32.5t105.5 90.5q36 53 56 132h-237zM452 810q13 0 21.5 -9.5t8.5 -23.5q0 -16 -11.5 -28t-26.5 -12q-14 0 -22.5 9t-8.5 23q0 17 11.5 29t27.5 12z" />
<glyph unicode="&#x121;" horiz-adv-x="517" d="M465 400l-50 -409q-15 -121 -55 -170q-53 -64 -154 -64q-96 0 -144 57q-18 21 -25 45.5t-9 67.5h37q4 -59 26 -88q37 -45 115 -45q84 0 125 52q32 41 43 131l10 87q-42 -42 -75 -58t-77 -16q-80 0 -133.5 55.5t-53.5 138.5q0 99 66 168q53 58 143 58q57 0 93.5 -21.5 t67.5 -74.5l11 86h39zM259 373q-73 0 -123 -53.5t-50 -132.5q0 -67 40 -112q20 -22 50.5 -35.5t59.5 -13.5q70 0 120 55t50 132q0 72 -40.5 116t-106.5 44zM296 551q13 0 21 -9t8 -23q0 -16 -11 -27.5t-25 -11.5q-13 0 -21.5 9t-8.5 22q0 16 11 28t26 12z" />
<glyph unicode="&#x122;" horiz-adv-x="785" d="M458 321h279q-16 -123 -77 -202q-48 -63 -118 -97.5t-149 -34.5q-69 0 -134 27t-108 73q-80 86 -80 220q0 74 27 145.5t75 124.5q94 103 244 103q203 0 295 -176l-35 -22q-31 61 -73 96q-78 62 -187 62q-131 0 -216.5 -95.5t-85.5 -241.5q0 -122 76.5 -199t197.5 -77 q74 0 139.5 32.5t105.5 90.5q36 53 56 132h-237zM363 -47l45 -21l-95 -140l-27 13z" />
<glyph unicode="&#x123;" horiz-adv-x="517" d="M465 400l-50 -409q-15 -121 -55 -170q-53 -64 -154 -64q-96 0 -144 57q-18 21 -25 45.5t-9 67.5h37q4 -59 26 -88q37 -45 115 -45q84 0 125 52q32 41 43 131l10 87q-42 -42 -75 -58t-77 -16q-80 0 -133.5 55.5t-53.5 138.5q0 99 66 168q53 58 143 58q57 0 93.5 -21.5 t67.5 -74.5l11 86h39zM259 373q-73 0 -123 -53.5t-50 -132.5q0 -67 40 -112q20 -22 50.5 -35.5t59.5 -13.5q70 0 120 55t50 132q0 72 -40.5 116t-106.5 44zM289 460l-41 21l89 134l27 -13z" />
<glyph unicode="&#x124;" horiz-adv-x="661" d="M617 667l-82 -667h-43l43 348h-379l-42 -348h-43l82 667h43l-35 -280h379l34 280h43zM409 801l-111 -88l-24 30l140 112l106 -115l-29 -27z" />
<glyph unicode="&#x125;" horiz-adv-x="431" d="M174 729l-48 -387q33 38 60 53t64 15q55 0 84.5 -30t29.5 -85q0 -14 -4 -47l-30 -248h-40l30 242q3 18 5 54q1 36 -19 56.5t-57 20.5q-62 0 -102 -45q-26 -27 -35 -100l-28 -228h-39l90 729h39zM216 826l-111 -88l-24 30l140 112l106 -115l-29 -27z" />
<glyph unicode="&#x126;" horiz-adv-x="661" d="M674 557l-4 -39h-72l-63 -518h-43l43 348h-379l-43 -348h-42l63 518h-71l5 39h71l14 110h42l-13 -110h379l13 110h43l-14 -110h71zM177 518l-16 -131h379l16 131h-379z" />
<glyph unicode="&#x127;" horiz-adv-x="431" d="M282 620l-4 -35h-122l-30 -243q33 38 60 53t64 15q55 0 84.5 -30t29.5 -86q0 -13 -4 -46l-30 -248h-40l30 242q3 18 5 54q1 36 -19 56.5t-57 20.5q-62 0 -102 -45q-26 -27 -35 -100l-28 -228h-39l72 585h-67l4 35h67l14 109h39l-13 -109h121z" />
<glyph unicode="&#x128;" horiz-adv-x="240" d="M195 667l-81 -667h-43l82 667h42zM311 817l39 -10q-33 -68 -93 -68q-32 0 -92 29q-29 15 -44 15q-26 0 -45 -38l-39 10q29 67 85 67q18 0 31 -4.5t55 -24.5q33 -15 51 -15q33 0 52 39z" />
<glyph unicode="&#x129;" horiz-adv-x="186" d="M134 400l-50 -400h-39l49 400h40zM232 554l32 -10q-29 -66 -87 -66q-27 0 -75 29q-25 16 -39 16q-26 0 -42 -38l-33 9q29 65 78 65q16 0 29 -5.5t46 -25.5q24 -14 39 -14q16 0 27 8.5t25 31.5z" />
<glyph unicode="&#x12a;" horiz-adv-x="240" d="M196 667l-82 -667h-43l82 667h43zM96 794h183l-5 -39h-183z" />
<glyph unicode="&#x12b;" horiz-adv-x="186" d="M134 400l-49 -400h-39l49 400h39zM43 535h166l-5 -38h-166z" />
<glyph unicode="&#x12c;" horiz-adv-x="240" d="M196 667l-82 -667h-43l82 667h43zM71 841h42q2 -43 18.5 -62.5t51.5 -19.5q68 0 94 82h42q-12 -56 -49.5 -89.5t-89.5 -33.5t-80 31.5t-29 91.5z" />
<glyph unicode="&#x12d;" horiz-adv-x="186" d="M134 400l-50 -400h-39l49 400h40zM41 589h37q2 -47 13 -67t36 -20q50 0 69 87h37q-9 -57 -39 -90t-72 -33q-79 0 -81 123z" />
<glyph unicode="&#x12e;" horiz-adv-x="240" d="M195 667l-82 -667q-67 -49 -67 -109q0 -36 36 -36q18 0 56 21l-15 -41q-24 -15 -53 -15t-47 18.5t-18 48.5q0 65 65 113l82 667h43z" />
<glyph unicode="&#x12f;" horiz-adv-x="186" d="M134 400l-49 -400q-61 -60 -61 -105q0 -34 36 -34q21 0 50 12l-13 -37q-22 -10 -45 -10q-32 0 -49 17t-17 49q0 57 59 108l50 400h39zM136 590q11 0 18 -7.5t7 -19.5q0 -14 -9 -24t-22 -10q-11 0 -18 8t-7 20q0 14 9 23.5t22 9.5z" />
<glyph unicode="&#x130;" horiz-adv-x="240" d="M196 667l-82 -667h-43l82 667h43zM191 810q13 0 21.5 -9.5t8.5 -23.5q0 -16 -11.5 -28t-26.5 -12q-14 0 -22.5 9t-8.5 23q0 17 11.5 29t27.5 12z" />
<glyph unicode="&#x131;" horiz-adv-x="186" d="M134 400l-50 -400h-39l49 400h40z" />
<glyph unicode="&#x132;" horiz-adv-x="569" d="M196 667l-82 -667h-43l82 667h43zM524 667l-65 -532q-10 -79 -37 -111q-32 -37 -86 -37q-73 0 -114 77l33 23q17 -33 35 -46.5t45 -13.5q36 0 55.5 26.5t26.5 86.5l65 527h42z" />
<glyph unicode="&#x133;" horiz-adv-x="369" d="M135 590q11 0 18 -7.5t7 -19.5q0 -14 -9 -24t-22 -10q-11 0 -18 8t-7 20q0 14 9 23.5t22 9.5zM134 400l-50 -400h-39l49 400h40zM320 590q24 0 24 -26q0 -14 -9 -24t-21 -10q-11 0 -18 8t-7 20q0 14 9 23t22 9zM316 400l-78 -633h-39l78 633h39z" />
<glyph unicode="&#x134;" horiz-adv-x="332" d="M287 667l-65 -532q-10 -79 -37 -111q-32 -37 -86 -37q-73 0 -114 77l33 23q17 -33 35 -46.5t45 -13.5q36 0 55.5 26.5t26.5 86.5l65 527h42zM282 801l-111 -88l-24 30l140 112l106 -115l-29 -27z" />
<glyph unicode="&#x135;" horiz-adv-x="186" d="M134 400l-78 -633h-39l78 633h39zM131 557l-104 -97l-23 25l133 123l97 -125l-28 -23z" />
<glyph unicode="&#x136;" horiz-adv-x="521" d="M71 0l82 667h43l-37 -300l331 300h63l-358 -319l290 -348h-56l-275 332l-40 -332h-43zM238 -47l45 -21l-95 -140l-27 13z" />
<glyph unicode="&#x137;" horiz-adv-x="408" d="M45 0l90 729h39l-62 -500l210 171h64l-234 -184l228 -216h-58l-213 202l-25 -202h-39zM173 -47l41 -21l-89 -133l-27 13z" />
<glyph unicode="&#x138;" horiz-adv-x="408" d="M45 0l49 400h40l-22 -171l210 171h64l-234 -184l228 -216h-58l-213 202l-25 -202h-39z" />
<glyph unicode="&#x139;" horiz-adv-x="381" d="M196 667l-77 -628h221l-5 -39h-264l82 667h43zM312 820l-134 -107l-25 20l120 122z" />
<glyph unicode="&#x13a;" horiz-adv-x="186" d="M174 729l-90 -729h-39l90 729h39zM272 876l-119 -113l-24 20l109 121z" />
<glyph unicode="&#x13b;" horiz-adv-x="381" d="M196 667l-77 -628h221l-5 -39h-264l82 667h43zM191 -47l45 -21l-95 -140l-27 13z" />
<glyph unicode="&#x13c;" horiz-adv-x="186" d="M174 729l-90 -729h-39l90 729h39zM40 -47l41 -21l-89 -133l-27 13z" />
<glyph unicode="&#x13d;" horiz-adv-x="381" d="M196 667l-77 -628h221l-5 -39h-264l82 667h43zM321 677l45 -21l-95 -144l-27 13z" />
<glyph unicode="&#x13e;" horiz-adv-x="257" d="M174 729l-90 -729h-39l90 729h39zM282 733l41 -21l-89 -140l-27 13z" />
<glyph unicode="&#x13f;" horiz-adv-x="381" d="M196 667l-77 -628h221l-5 -39h-264l82 667h43zM326 388q19 0 32 -13.5t13 -33.5q0 -19 -14.5 -33.5t-33.5 -14.5t-31.5 13t-12.5 33q0 21 13.5 35t33.5 14z" />
<glyph unicode="&#x140;" horiz-adv-x="277" d="M174 729l-90 -729h-39l90 729h39zM246 388q19 0 32 -13.5t13 -33.5q0 -19 -14.5 -33.5t-33.5 -14.5t-31.5 13t-12.5 33q0 21 13.5 35t33.5 14z" />
<glyph unicode="&#x141;" horiz-adv-x="381" d="M195 667l-36 -300l123 83l-6 -47l-123 -84l-35 -280h222l-5 -39h-264l37 301l-78 -53l6 48l78 53l39 318h42z" />
<glyph unicode="&#x142;" horiz-adv-x="193" d="M178 729l-42 -343l73 51l-6 -46l-73 -51l-42 -340h-39l39 319l-73 -51l6 47l73 51l44 363h40z" />
<glyph unicode="&#x143;" horiz-adv-x="751" d="M71 0l85 691l437 -604l71 580h43l-85 -690l-437 604l-71 -581h-43zM555 820l-134 -107l-25 20l120 122z" />
<glyph unicode="&#x144;" horiz-adv-x="431" d="M133 400l-7 -61q32 39 60.5 55t65.5 16q52 0 82 -29.5t30 -79.5q0 -17 -6 -69l-28 -232h-40l29 231q4 40 6 65q1 35 -19.5 56t-57.5 21q-57 0 -97 -42q-17 -18 -25.5 -39t-12.5 -61l-29 -231h-39l49 400h39zM350 573l-128 -113l-21 20l115 125z" />
<glyph unicode="&#x145;" horiz-adv-x="751" d="M71 0l85 691l437 -604l71 580h43l-85 -690l-437 604l-71 -581h-43zM338 -47l45 -21l-95 -140l-27 13z" />
<glyph unicode="&#x146;" horiz-adv-x="431" d="M133 400l-7 -61q32 39 60.5 55t65.5 16q52 0 82 -29.5t30 -79.5q0 -17 -6 -69l-28 -232h-40l29 231q4 40 6 65q1 35 -19.5 56t-57.5 21q-57 0 -97 -42q-17 -18 -25.5 -39t-12.5 -61l-29 -231h-39l49 400h39zM175 -47l41 -21l-89 -133l-27 13z" />
<glyph unicode="&#x147;" horiz-adv-x="751" d="M71 0l85 691l437 -604l71 580h43l-85 -690l-437 604l-71 -581h-43zM442 767l111 88l24 -29l-140 -113l-106 115l29 27z" />
<glyph unicode="&#x148;" horiz-adv-x="431" d="M133 400l-7 -61q32 39 60.5 55t65.5 16q52 0 82 -29.5t30 -79.5q0 -17 -6 -69l-28 -232h-40l29 231q4 40 6 65q1 35 -19.5 56t-57.5 21q-57 0 -97 -42q-17 -18 -25.5 -39t-12.5 -61l-29 -231h-39l49 400h39zM246 510l105 98l23 -25l-133 -123l-97 124l27 24z" />
<glyph unicode="&#x149;" horiz-adv-x="522" d="M240 679l-107 -168l-23 12l96 174zM225 400l-7 -61q31 39 59.5 55t65.5 16q52 0 82 -29.5t30 -79.5q0 -22 -5 -69l-29 -232h-39l28 231q6 52 6 65q0 37 -20 57t-57 20q-56 0 -96 -42q-18 -18 -26 -38.5t-13 -61.5l-28 -231h-40l50 400h39z" />
<glyph unicode="&#x14a;" horiz-adv-x="661" d="M153 667h43l-14 -112q35 46 70 72q69 49 153 49q94 0 147 -59q39 -42 39 -122q0 -33 -5 -80l-40 -327q-13 -111 -53 -156q-58 -69 -149 -69q-29 0 -60 13l5 35q29 -11 51 -11q75 0 112.5 41.5t49.5 136.5l42 342q5 45 5 77q0 67 -40.5 103.5t-114.5 36.5q-112 0 -177 -90 q-24 -33 -37 -72.5t-21 -107.5l-45 -367h-43z" />
<glyph unicode="&#x14b;" horiz-adv-x="431" d="M133 400l-7 -61q32 39 60.5 55t65.5 16q52 0 82 -29.5t30 -79.5q0 -17 -6 -69l-28 -232q-9 -66 -32 -95q-36 -41 -91 -41q-15 0 -36 7l5 36q17 -8 29 -8q38 0 58.5 26t27.5 83l28 223q4 40 6 65q1 35 -19.5 56t-57.5 21q-57 0 -97 -42q-17 -18 -25.5 -39t-12.5 -61 l-29 -231h-39l49 400h39z" />
<glyph unicode="&#x14c;" horiz-adv-x="786" d="M420 680q144 0 232 -89t88 -235q0 -139 -82 -244q-98 -125 -264 -125q-142 0 -232.5 89t-90.5 228q0 161 99.5 268.5t249.5 107.5zM420 640q-132 0 -218.5 -93.5t-86.5 -235.5q0 -126 78 -205t202 -79q129 0 215 94t86 235q0 138 -81 212q-80 72 -195 72zM323 794h273 l-5 -39h-273z" />
<glyph unicode="&#x14d;" horiz-adv-x="520" d="M265 413q91 0 147 -58t56 -152q0 -91 -62 -153.5t-152 -62.5q-89 0 -149 58t-60 145q0 93 64 158t156 65zM265 376q-73 0 -126 -54t-53 -129q0 -71 48.5 -120t118.5 -49q74 0 124 52t50 130q0 76 -45 123t-117 47zM174 535h246l-5 -38h-246z" />
<glyph unicode="&#x14e;" horiz-adv-x="786" d="M420 680q144 0 232 -89t88 -235q0 -139 -82 -244q-98 -125 -264 -125q-142 0 -232.5 89t-90.5 228q0 161 99.5 268.5t249.5 107.5zM420 640q-132 0 -218.5 -93.5t-86.5 -235.5q0 -126 78 -205t202 -79q129 0 215 94t86 235q0 138 -81 212q-80 72 -195 72zM320 841h42 q2 -43 18.5 -62.5t51.5 -19.5q68 0 94 82h42q-12 -56 -49.5 -89.5t-89.5 -33.5t-80 31.5t-29 91.5z" />
<glyph unicode="&#x14f;" horiz-adv-x="520" d="M265 413q91 0 147 -58t56 -152q0 -91 -62 -153.5t-152 -62.5q-89 0 -149 58t-60 145q0 93 64 158t156 65zM265 376q-73 0 -126 -54t-53 -129q0 -71 48.5 -120t118.5 -49q74 0 124 52t50 130q0 76 -45 123t-117 47zM168 589h37q3 -47 18.5 -67t49.5 -20q64 0 90 87h37 q-11 -57 -46.5 -90t-85.5 -33q-47 0 -73 31.5t-27 91.5z" />
<glyph unicode="&#x150;" horiz-adv-x="786" d="M420 680q144 0 232 -89t88 -235q0 -139 -82 -244q-98 -125 -264 -125q-142 0 -232.5 89t-90.5 228q0 161 99.5 268.5t249.5 107.5zM420 640q-132 0 -218.5 -93.5t-86.5 -235.5q0 -126 78 -205t202 -79q129 0 215 94t86 235q0 138 -81 212q-80 72 -195 72zM632 824 l-130 -111l-22 20l120 122zM505 824l-129 -111l-23 20l120 122z" />
<glyph unicode="&#x151;" horiz-adv-x="520" d="M265 413q91 0 147 -58t56 -152q0 -91 -62 -153.5t-152 -62.5q-89 0 -149 58t-60 145q0 93 64 158t156 65zM265 376q-73 0 -126 -54t-53 -129q0 -71 48.5 -120t118.5 -49q74 0 124 52t50 130q0 76 -45 123t-117 47zM345 577l-118 -117l-20 16l105 129zM459 577l-119 -117 l-20 16l105 129z" />
<glyph unicode="&#x152;" horiz-adv-x="1045" d="M1047 667l-5 -39h-262l-30 -245h262l-4 -39h-263l-37 -305h262l-5 -39h-305l17 142q-62 -82 -128 -118.5t-154 -36.5q-139 0 -231 92t-92 230q0 74 28 147t75 123q96 102 246 102q117 0 201 -65q32 -25 52 -53.5t45 -82.5l23 187h305zM420 641q-56 0 -109.5 -21.5 t-92.5 -58.5q-47 -44 -74.5 -114t-27.5 -144q0 -120 78.5 -198t199.5 -78q130 0 217 93t87 232q0 128 -72 205q-39 40 -93.5 62t-112.5 22z" />
<glyph unicode="&#x153;" horiz-adv-x="855" d="M469 205v-32q0 -74 48 -113q42 -36 102 -36q39 0 67.5 14.5t59.5 49.5l28 -16q-64 -85 -157 -85q-64 0 -111 32q-38 26 -64 86q-67 -118 -190 -118q-91 0 -148.5 58.5t-57.5 151.5q0 95 61.5 157.5t155.5 62.5q76 0 133 -45q37 -29 60 -82q25 50 48 73q52 54 128 54 q51 0 92 -26.5t61 -71.5q18 -44 18 -114h-334zM264 380q-78 0 -127.5 -51.5t-49.5 -132.5q0 -76 46 -124t119 -48q76 0 129 55.5t53 135.5q0 77 -52 122q-50 43 -118 43zM476 241h290q-7 56 -27 85q-38 54 -107 54q-75 0 -121 -60q-22 -28 -35 -79z" />
<glyph unicode="&#x154;" horiz-adv-x="461" d="M214 320l201 -320h-52l-194 320h-16l-39 -320h-43l82 667h83q79 0 126 -33q60 -43 60 -124q0 -44 -19.5 -85.5t-51.5 -65.5q-25 -18 -54 -26t-83 -13zM191 628l-33 -269h37q68 0 106 16q35 16 56 52t21 79q0 59 -37 90.5t-106 31.5h-44zM393 820l-134 -107l-25 20 l120 122z" />
<glyph unicode="&#x155;" horiz-adv-x="284" d="M133 400l-7 -59q36 41 59.5 55.5t53.5 14.5q24 0 55 -15l-21 -34q-27 12 -43 12q-33 0 -63 -27q-45 -39 -56 -133l-27 -214h-39l49 400h39zM303 573l-128 -113l-21 20l115 125z" />
<glyph unicode="&#x156;" horiz-adv-x="461" d="M214 320l201 -320h-52l-194 320h-16l-39 -320h-43l82 667h83q79 0 126 -33q60 -43 60 -124q0 -44 -19.5 -85.5t-51.5 -65.5q-25 -18 -54 -26t-83 -13zM191 628l-33 -269h37q68 0 106 16q35 16 56 52t21 79q0 59 -37 90.5t-106 31.5h-44zM211 -47l45 -21l-95 -140l-27 13z " />
<glyph unicode="&#x157;" horiz-adv-x="284" d="M133 400l-7 -59q36 41 59.5 55.5t53.5 14.5q24 0 55 -15l-21 -34q-27 12 -43 12q-33 0 -63 -27q-45 -39 -56 -133l-27 -214h-39l49 400h39zM40 -47l41 -21l-89 -133l-27 13z" />
<glyph unicode="&#x158;" horiz-adv-x="461" d="M214 320l201 -320h-52l-194 320h-16l-39 -320h-43l82 667h83q79 0 126 -33q60 -43 60 -124q0 -44 -19.5 -85.5t-51.5 -65.5q-25 -18 -54 -26t-83 -13zM191 628l-33 -269h37q68 0 106 16q35 16 56 52t21 79q0 59 -37 90.5t-106 31.5h-44zM282 767l111 88l24 -29l-140 -113 l-106 115l29 27z" />
<glyph unicode="&#x159;" horiz-adv-x="284" d="M133 400l-7 -59q36 41 59.5 55.5t53.5 14.5q24 0 55 -15l-21 -34q-27 12 -43 12q-33 0 -63 -27q-45 -39 -56 -133l-27 -214h-39l49 400h39zM196 510l105 98l23 -25l-133 -123l-97 124l27 24z" />
<glyph unicode="&#x15a;" horiz-adv-x="492" d="M457 563l-35 -24q-20 54 -50 78t-77 24q-56 0 -93 -35t-37 -88q0 -43 24 -72.5t90 -70.5q79 -50 105 -78q44 -52 44 -119q0 -81 -55 -136t-137 -55q-84 0 -138 59q-30 34 -47 91l38 14q16 -51 38 -76q42 -48 110 -48q64 0 105.5 44t41.5 111q0 46 -26 79t-96 76 q-81 49 -111 88t-30 93q0 72 49 117.5t126 45.5q58 0 96 -28t65 -90zM423 820l-134 -107l-25 20l120 122z" />
<glyph unicode="&#x15b;" horiz-adv-x="340" d="M304 363l-24 -23q-38 36 -82 36q-36 0 -59.5 -22t-23.5 -56q0 -25 14.5 -40t59.5 -35q55 -25 75.5 -50t20.5 -66q0 -53 -36.5 -86.5t-93.5 -33.5q-90 0 -128 91l32 14q29 -68 96 -68q40 0 64.5 24t24.5 63q0 28 -15 44t-58 35q-53 23 -75 48t-22 62q0 48 35 80.5t87 32.5 q62 0 108 -50zM313 573l-128 -113l-21 20l115 125z" />
<glyph unicode="&#x15c;" horiz-adv-x="492" d="M457 563l-35 -24q-20 54 -50 78t-77 24q-56 0 -93 -35t-37 -88q0 -43 24 -72.5t90 -70.5q79 -50 105 -78q44 -52 44 -119q0 -81 -55 -136t-137 -55q-84 0 -138 59q-30 34 -47 91l38 14q16 -51 38 -76q42 -48 110 -48q64 0 105.5 44t41.5 111q0 46 -26 79t-96 76 q-81 49 -111 88t-30 93q0 72 49 117.5t126 45.5q58 0 96 -28t65 -90zM326 801l-111 -88l-24 30l140 112l106 -115l-29 -27z" />
<glyph unicode="&#x15d;" horiz-adv-x="340" d="M304 363l-24 -23q-38 36 -82 36q-36 0 -59.5 -22t-23.5 -56q0 -25 14.5 -40t59.5 -35q55 -25 75.5 -50t20.5 -66q0 -53 -36.5 -86.5t-93.5 -33.5q-90 0 -128 91l32 14q29 -68 96 -68q40 0 64.5 24t24.5 63q0 28 -15 44t-58 35q-53 23 -75 48t-22 62q0 48 35 80.5t87 32.5 q62 0 108 -50zM218 557l-104 -97l-23 25l133 123l97 -125l-28 -23z" />
<glyph unicode="&#x15e;" horiz-adv-x="492" d="M457 563l-35 -24q-20 54 -50 78t-77 24q-56 0 -93 -35t-37 -88q0 -43 24 -72.5t90 -70.5q79 -50 105 -78q44 -52 44 -119q0 -81 -55 -136t-137 -55q-84 0 -138 59q-30 34 -47 91l38 14q16 -51 38 -76q42 -48 110 -48q64 0 105.5 44t41.5 111q0 46 -26 79t-96 76 q-81 49 -111 88t-30 93q0 72 49 117.5t126 45.5q58 0 96 -28t65 -90zM259 -71l-89 -126l-28 18l75 132z" />
<glyph unicode="&#x15f;" horiz-adv-x="340" d="M304 363l-24 -23q-38 36 -82 36q-36 0 -59.5 -22t-23.5 -56q0 -25 14.5 -40t59.5 -35q55 -25 75.5 -50t20.5 -66q0 -53 -36.5 -86.5t-93.5 -33.5q-90 0 -128 91l32 14q29 -68 96 -68q40 0 64.5 24t24.5 63q0 28 -15 44t-58 35q-53 23 -75 48t-22 62q0 48 35 80.5t87 32.5 q62 0 108 -50zM170 -70l-90 -125l-26 16l75 132z" />
<glyph unicode="&#x160;" horiz-adv-x="492" d="M457 563l-35 -24q-20 54 -50 78t-77 24q-56 0 -93 -35t-37 -88q0 -43 24 -72.5t90 -70.5q79 -50 105 -78q44 -52 44 -119q0 -81 -55 -136t-137 -55q-84 0 -138 59q-30 34 -47 91l38 14q16 -51 38 -76q42 -48 110 -48q64 0 105.5 44t41.5 111q0 46 -26 79t-96 76 q-81 49 -111 88t-30 93q0 72 49 117.5t126 45.5q58 0 96 -28t65 -90zM312 767l111 88l24 -29l-140 -113l-106 115l29 27z" />
<glyph unicode="&#x161;" horiz-adv-x="340" d="M304 363l-24 -23q-38 36 -82 36q-36 0 -59.5 -22t-23.5 -56q0 -25 14.5 -40t59.5 -35q55 -25 75.5 -50t20.5 -66q0 -53 -36.5 -86.5t-93.5 -33.5q-90 0 -128 91l32 14q29 -68 96 -68q40 0 64.5 24t24.5 63q0 28 -15 44t-58 35q-53 23 -75 48t-22 62q0 48 35 80.5t87 32.5 q62 0 108 -50zM200 510l105 98l23 -25l-133 -123l-97 124l27 24z" />
<glyph unicode="&#x162;" horiz-adv-x="410" d="M277 628l-77 -628h-43l77 628h-173l5 39h386l-5 -39h-170zM152 -47l45 -21l-95 -140l-27 13z" />
<glyph unicode="&#x163;" horiz-adv-x="193" d="M129 364l-44 -364h-40l45 364h-46l5 36h46l18 150h39l-18 -150h68l-5 -36h-68zM38 -47l41 -21l-89 -133l-27 13z" />
<glyph unicode="&#x164;" horiz-adv-x="410" d="M277 628l-77 -628h-43l77 628h-173l5 39h386l-5 -39h-170zM268 767l111 88l24 -29l-140 -113l-106 115l29 27z" />
<glyph unicode="&#x165;" horiz-adv-x="251" d="M129 364l-44 -364h-40l45 364h-46l4 36h46l19 150h39l-18 -150h68l-5 -36h-68zM270 673l41 -21l-89 -140l-27 13z" />
<glyph unicode="&#x166;" horiz-adv-x="410" d="M391 471l-4 -39h-134l-53 -432h-43l53 432h-137l5 39h137l19 157h-173l5 39h386l-5 -39h-170l-19 -157h133z" />
<glyph unicode="&#x167;" horiz-adv-x="193" d="M189 295l-5 -35h-68l-32 -260h-39l32 260h-46l4 35h46l9 69h-46l4 36h46l19 150h39l-18 -150h68l-5 -36h-68l-8 -69h68z" />
<glyph unicode="&#x168;" horiz-adv-x="648" d="M606 667l-52 -426q-11 -96 -41 -145q-67 -109 -200 -109q-110 0 -179 67q-43 44 -43 121q0 20 4 48l54 444h43l-55 -445q-3 -25 -3 -50q0 -55 30 -86q54 -59 149 -59q57 0 101.5 26.5t68.5 74.5q20 40 28 112l53 427h42zM505 817l39 -10q-33 -68 -93 -68q-32 0 -92 29 q-29 15 -44 15q-26 0 -45 -38l-39 10q29 67 85 67q18 0 31 -4.5t55 -24.5q33 -15 51 -15q33 0 52 39z" />
<glyph unicode="&#x169;" horiz-adv-x="435" d="M383 400l-29 -238q-10 -83 -39 -119q-44 -53 -120 -53q-62 0 -97 35t-35 97q0 19 4 48l28 230h39l-29 -236q-4 -31 -4 -48q0 -41 26 -65t70 -24q63 0 92 45q18 27 25 84l30 244h39zM360 554l32 -10q-29 -66 -87 -66q-27 0 -75 29q-25 16 -39 16q-26 0 -42 -38l-33 9 q29 65 78 65q16 0 29 -5.5t46 -25.5q24 -14 39 -14q16 0 27 8.5t25 31.5z" />
<glyph unicode="&#x16a;" horiz-adv-x="648" d="M606 667l-52 -426q-11 -96 -41 -145q-67 -109 -200 -109q-110 0 -179 67q-43 44 -43 121q0 20 4 48l54 444h43l-55 -445q-3 -25 -3 -50q0 -55 30 -86q54 -59 149 -59q57 0 101.5 26.5t68.5 74.5q20 40 28 112l53 427h42zM257 794h273l-5 -39h-273z" />
<glyph unicode="&#x16b;" horiz-adv-x="435" d="M383 400l-29 -238q-10 -83 -39 -119q-44 -53 -120 -53q-62 0 -97 35t-35 97q0 19 4 48l28 230h39l-29 -236q-4 -31 -4 -48q0 -41 26 -65t70 -24q63 0 92 45q18 27 25 84l30 244h39zM133 535h246l-5 -38h-246z" />
<glyph unicode="&#x16c;" horiz-adv-x="648" d="M606 667l-52 -426q-11 -96 -41 -145q-67 -109 -200 -109q-110 0 -179 67q-43 44 -43 121q0 20 4 48l54 444h43l-55 -445q-3 -25 -3 -50q0 -55 30 -86q54 -59 149 -59q57 0 101.5 26.5t68.5 74.5q20 40 28 112l53 427h42zM266 841h42q2 -43 18.5 -62.5t51.5 -19.5 q68 0 94 82h42q-12 -56 -49.5 -89.5t-89.5 -33.5t-80 31.5t-29 91.5z" />
<glyph unicode="&#x16d;" horiz-adv-x="435" d="M383 400l-29 -238q-10 -83 -39 -119q-44 -53 -120 -53q-62 0 -97 35t-35 97q0 19 4 48l28 230h39l-29 -236q-4 -31 -4 -48q0 -41 26 -65t70 -24q63 0 92 45q18 27 25 84l30 244h39zM147 589h37q3 -47 18.5 -67t49.5 -20q64 0 90 87h37q-11 -57 -46.5 -90t-85.5 -33 q-47 0 -73 31.5t-27 91.5z" />
<glyph unicode="&#x16e;" horiz-adv-x="648" d="M606 667l-52 -426q-11 -96 -41 -145q-67 -109 -200 -109q-110 0 -179 67q-43 44 -43 121q0 20 4 48l54 444h43l-55 -445q-3 -25 -3 -50q0 -55 30 -86q54 -59 149 -59q57 0 101.5 26.5t68.5 74.5q20 40 28 112l53 427h42zM394 864q30 0 52 -22t22 -53t-22 -53.5t-53 -22.5 q-32 0 -54 22t-22 54q0 31 22.5 53t54.5 22zM393 829q-17 0 -29 -11.5t-12 -28.5t12 -29t29 -12t28.5 12t11.5 29t-11.5 28.5t-28.5 11.5z" />
<glyph unicode="&#x16f;" horiz-adv-x="435" d="M383 400l-29 -238q-10 -83 -39 -119q-44 -53 -120 -53q-62 0 -97 35t-35 97q0 19 4 48l28 230h39l-29 -236q-4 -31 -4 -48q0 -41 26 -65t70 -24q63 0 92 45q18 27 25 84l30 244h39zM257 611q30 0 52 -22t22 -53t-22 -53.5t-53 -22.5q-32 0 -54 22t-22 54q0 31 22.5 53 t54.5 22zM256 576q-17 0 -29 -11.5t-12 -28.5t12 -29t29 -12t28.5 12t11.5 29q0 16 -12 28t-28 12z" />
<glyph unicode="&#x170;" horiz-adv-x="648" d="M606 667l-52 -426q-11 -96 -41 -145q-67 -109 -200 -109q-110 0 -179 67q-43 44 -43 121q0 20 4 48l54 444h43l-55 -445q-3 -25 -3 -50q0 -55 30 -86q54 -59 149 -59q57 0 101.5 26.5t68.5 74.5q20 40 28 112l53 427h42zM569 824l-130 -111l-22 20l120 122zM442 824 l-129 -111l-23 20l120 122z" />
<glyph unicode="&#x171;" horiz-adv-x="435" d="M383 400l-29 -238q-10 -83 -39 -119q-44 -53 -120 -53q-62 0 -97 35t-35 97q0 19 4 48l28 230h39l-29 -236q-4 -31 -4 -48q0 -41 26 -65t70 -24q63 0 92 45q18 27 25 84l30 244h39zM303 577l-118 -117l-20 16l105 129zM417 577l-119 -117l-20 16l105 129z" />
<glyph unicode="&#x172;" horiz-adv-x="648" d="M455 -116l-15 -41q-37 -17 -63 -17q-35 0 -57 20.5t-22 52.5q0 53 69 93q-27 -5 -53 -5q-111 0 -180 67q-43 44 -43 121q0 20 4 48l54 444h43l-55 -445q-3 -25 -3 -50q0 -55 30 -86q54 -59 149 -59q57 0 101.5 26.5t68.5 74.5q20 40 28 112l53 427h42l-52 -426 q-11 -92 -36 -137.5t-91 -93.5q-88 -67 -88 -106q0 -43 49 -43q27 0 67 23z" />
<glyph unicode="&#x173;" horiz-adv-x="435" d="M313 -119l-14 -37q-29 -11 -52 -11q-34 0 -54 18.5t-20 49.5q0 49 58 93q-21 -4 -35 -4q-63 0 -98 35t-35 97q0 19 4 48l28 230h39l-29 -236q-4 -31 -4 -48q0 -41 26 -65t70 -24q63 0 92 45q18 27 25 84l30 244h39l-29 -238q-10 -69 -23 -94.5t-56 -61.5 q-64 -56 -64 -102q0 -16 11.5 -26t31.5 -10q23 0 59 13z" />
<glyph unicode="&#x174;" horiz-adv-x="896" d="M79 667h44l106 -555l277 588l119 -588l257 555h49l-322 -685l-119 583l-278 -589zM517 801l-111 -88l-24 30l140 112l106 -115l-29 -27z" />
<glyph unicode="&#x175;" horiz-adv-x="649" d="M28 400h43l87 -333l183 338l95 -338l175 333h46l-234 -436l-94 339l-184 -339zM356 557l-104 -97l-23 25l133 123l97 -125l-28 -23z" />
<glyph unicode="&#x176;" horiz-adv-x="511" d="M199 0l38 302l-164 365h48l143 -324l227 324h56l-269 -374l-36 -293h-43zM329 801l-111 -88l-24 30l140 112l106 -115l-29 -27z" />
<glyph unicode="&#x177;" horiz-adv-x="372" d="M-13 -223l146 258l-105 365h43l88 -318l174 318h47l-346 -623h-47zM228 557l-104 -97l-23 25l133 123l97 -125l-28 -23z" />
<glyph unicode="&#x178;" horiz-adv-x="511" d="M199 0l38 302l-164 365h48l143 -324l227 324h56l-269 -374l-36 -293h-43zM402 808q13 0 21.5 -9t8.5 -22q0 -16 -11 -28t-25 -12q-13 0 -21.5 9t-8.5 23q0 16 10.5 27.5t25.5 11.5zM243 807q12 0 20 -9t8 -23q0 -15 -10.5 -26.5t-24.5 -11.5q-13 0 -21.5 8.5t-8.5 21.5 q0 16 11 28t26 12z" />
<glyph unicode="&#x179;" horiz-adv-x="563" d="M11 0l495 628h-371l5 39h448l-494 -628h368l-5 -39h-446zM486 820l-134 -107l-25 20l120 122z" />
<glyph unicode="&#x17a;" horiz-adv-x="428" d="M-1 0l343 364h-266l5 36h342l-341 -364h286l-5 -36h-364zM367 573l-128 -113l-21 20l115 125z" />
<glyph unicode="&#x17b;" horiz-adv-x="563" d="M11 0l495 628h-371l5 39h448l-494 -628h368l-5 -39h-446zM382 810q13 0 21.5 -9.5t8.5 -23.5q0 -16 -11.5 -28t-26.5 -12q-14 0 -22.5 9t-8.5 23q0 17 11.5 29t27.5 12z" />
<glyph unicode="&#x17c;" horiz-adv-x="428" d="M-1 0l343 364h-266l5 36h342l-341 -364h286l-5 -36h-364zM266 551q13 0 21 -9t8 -23q0 -16 -11 -27.5t-25 -11.5q-13 0 -21.5 9t-8.5 22q0 16 11 28t26 12z" />
<glyph unicode="&#x17d;" horiz-adv-x="563" d="M11 0l495 628h-371l5 39h448l-494 -628h368l-5 -39h-446zM378 767l111 88l24 -29l-140 -113l-106 115l29 27z" />
<glyph unicode="&#x17e;" horiz-adv-x="428" d="M-1 0l343 364h-266l5 36h342l-341 -364h286l-5 -36h-364zM260 510l105 98l23 -25l-133 -123l-97 124l27 24z" />
<glyph unicode="&#x17f;" horiz-adv-x="247" d="M89 0h-40l45 364h-46l4 36h46l27 219q10 72 39 100q26 24 64 24q21 0 43 -7l-5 -38q-19 8 -35 8q-31 0 -46 -22.5t-22 -78.5z" />
<glyph unicode="&#x18f;" horiz-adv-x="798" d="M715 353v18q0 114 -76 189t-192 75q-82 0 -156.5 -41t-124.5 -115l-37 17q47 80 137.5 130t187.5 50q131 0 218.5 -86t87.5 -215q0 -154 -119 -270t-276 -116q-69 0 -132 30.5t-106 84.5q-63 81 -63 192q0 15 4 57h647zM710 313h-601q-1 -7 -1 -16q0 -113 76 -190 t187 -77q121 0 217.5 81t121.5 202z" />
<glyph unicode="&#x192;" horiz-adv-x="547" d="M314 428h103l-7 -33h-104l-72 -324q-26 -118 -55 -159.5t-85 -41.5q-42 0 -76 21l10 44q32 -25 65 -25q38 0 59 35t44 134l70 316h-61l8 33h60l45 201q13 61 38 86.5t72 25.5q25 0 56 -13l-8 -37q-26 11 -46 11q-35 0 -49.5 -18.5t-28.5 -83.5z" />
<glyph unicode="&#x1a0;" horiz-adv-x="786" d="M663 578l60 120l46 -21l-84 -127q55 -80 55 -190q0 -161 -98 -267t-248 -106q-142 0 -232.5 89t-90.5 228q0 82 31 158t84 127q96 91 235 91q151 0 242 -102zM420 640q-132 0 -218.5 -93.5t-86.5 -235.5q0 -126 78 -205t202 -79q129 0 215 94t86 235q0 138 -81 212 q-80 72 -195 72z" />
<glyph unicode="&#x1a1;" horiz-adv-x="520" d="M441 315l55 108l40 -21l-79 -125q11 -38 11 -71q0 -93 -61.5 -156t-152.5 -63q-89 0 -149 58t-60 145q0 94 64 158.5t157 64.5q58 0 104.5 -26t70.5 -72zM265 376q-73 0 -126 -54t-53 -129q0 -71 48.5 -120t118.5 -49q74 0 124 52t50 130q0 76 -45 123t-117 47z" />
<glyph unicode="&#x1af;" horiz-adv-x="648" d="M606 667l-52 -426q-11 -96 -41 -145q-67 -109 -200 -109q-110 0 -179 67q-43 44 -43 121q0 20 4 48l54 444h43l-55 -445q-3 -25 -3 -50q0 -55 30 -86q54 -59 149 -59q57 0 101.5 26.5t68.5 74.5q20 40 28 112l53 427h42zM691 701l46 -21l-95 -144l-27 13z" />
<glyph unicode="&#x1b0;" horiz-adv-x="435" d="M383 400l-29 -238q-10 -83 -39 -119q-44 -53 -120 -53q-62 0 -97 35t-35 97q0 19 4 48l28 230h39l-29 -236q-4 -31 -4 -48q0 -41 26 -65t70 -24q63 0 92 45q18 27 25 84l30 244h39zM462 433l41 -21l-89 -141l-27 13z" />
<glyph unicode="&#x1cd;" horiz-adv-x="589" d="M-3 0l366 697l179 -697h-44l-57 226h-279l-119 -226h-46zM431 265l-83 319l-165 -319h248zM369 767l111 88l24 -29l-140 -113l-106 115l29 27z" />
<glyph unicode="&#x1ce;" horiz-adv-x="518" d="M466 400l-49 -400h-39l8 71q-40 -46 -74 -63.5t-81 -17.5q-82 0 -134 54.5t-52 139.5q0 97 60 161.5t150 64.5q53 0 89.5 -20.5t72.5 -70.5l10 81h39zM259 373q-74 0 -123.5 -53.5t-49.5 -132.5q0 -69 42 -114.5t106 -45.5q70 0 122.5 58t52.5 136q0 67 -42 109.5 t-108 42.5zM290 510l105 98l23 -25l-133 -123l-97 124l27 24z" />
<glyph unicode="&#x1cf;" horiz-adv-x="240" d="M195 667l-81 -667h-43l82 667h42zM180 767l111 88l24 -29l-140 -113l-106 115l29 27z" />
<glyph unicode="&#x1d0;" horiz-adv-x="186" d="M134 400l-50 -400h-39l49 400h40zM122 510l105 98l23 -25l-133 -123l-97 124l27 24z" />
<glyph unicode="&#x1d2;" horiz-adv-x="520" d="M265 413q91 0 147 -58t56 -152q0 -91 -62 -153.5t-152 -62.5q-89 0 -149 58t-60 145q0 93 64 158t156 65zM265 376q-73 0 -126 -54t-53 -129q0 -71 48.5 -120t118.5 -49q74 0 124 52t50 130q0 76 -45 123t-117 47zM276 510l105 98l23 -25l-133 -123l-97 124l27 24z" />
<glyph unicode="&#x1d3;" horiz-adv-x="648" d="M606 667l-52 -426q-11 -96 -41 -145q-67 -109 -200 -109q-110 0 -179 67q-43 44 -43 121q0 20 4 48l54 444h43l-55 -445q-3 -25 -3 -50q0 -55 30 -86q54 -59 149 -59q57 0 101.5 26.5t68.5 74.5q20 40 28 112l53 427h42zM391 767l111 88l24 -29l-140 -113l-106 115l29 27 z" />
<glyph unicode="&#x1d4;" horiz-adv-x="435" d="M383 400l-29 -238q-10 -83 -39 -119q-44 -53 -120 -53q-62 0 -97 35t-35 97q0 19 4 48l28 230h39l-29 -236q-4 -31 -4 -48q0 -41 26 -65t70 -24q63 0 92 45q18 27 25 84l30 244h39zM250 510l105 98l23 -25l-133 -123l-97 124l27 24z" />
<glyph unicode="&#x1dd;" horiz-adv-x="484" d="M42 207h351q1 10 1 28q0 63 -39 104t-100 41q-59 0 -108 -39q-20 -16 -48 -55l-31 20q76 111 194 111q79 0 127.5 -50.5t48.5 -133.5q0 -100 -67 -172t-161 -72q-76 0 -123 50t-47 132q0 4 2 36zM386 169h-302q3 -46 20 -77q17 -30 47 -48t63 -18q59 0 107 40t65 103z " />
<glyph unicode="&#x1e6;" horiz-adv-x="785" d="M458 321h279q-16 -123 -77 -202q-48 -63 -118 -97.5t-149 -34.5q-69 0 -134 27t-108 73q-80 86 -80 220q0 74 27 145.5t75 124.5q94 103 244 103q203 0 295 -176l-35 -22q-31 61 -73 96q-78 62 -187 62q-131 0 -216.5 -95.5t-85.5 -241.5q0 -122 76.5 -199t197.5 -77 q74 0 139.5 32.5t105.5 90.5q36 53 56 132h-237zM445 767l111 88l24 -29l-140 -113l-106 115l29 27z" />
<glyph unicode="&#x1e7;" horiz-adv-x="517" d="M465 400l-50 -409q-15 -121 -55 -170q-53 -64 -154 -64q-96 0 -144 57q-18 21 -25 45.5t-9 67.5h37q4 -59 26 -88q37 -45 115 -45q84 0 125 52q32 41 43 131l10 87q-42 -42 -75 -58t-77 -16q-80 0 -133.5 55.5t-53.5 138.5q0 99 66 168q53 58 143 58q57 0 93.5 -21.5 t67.5 -74.5l11 86h39zM259 373q-73 0 -123 -53.5t-50 -132.5q0 -67 40 -112q20 -22 50.5 -35.5t59.5 -13.5q70 0 120 55t50 132q0 72 -40.5 116t-106.5 44zM290 510l105 98l23 -25l-133 -123l-97 124l27 24z" />
<glyph unicode="&#x1f4;" horiz-adv-x="785" d="M458 321h279q-16 -123 -77 -202q-48 -63 -118 -97.5t-149 -34.5q-69 0 -134 27t-108 73q-80 86 -80 220q0 74 27 145.5t75 124.5q94 103 244 103q203 0 295 -176l-35 -22q-31 61 -73 96q-78 62 -187 62q-131 0 -216.5 -95.5t-85.5 -241.5q0 -122 76.5 -199t197.5 -77 q74 0 139.5 32.5t105.5 90.5q36 53 56 132h-237zM549 820l-134 -107l-25 20l120 122z" />
<glyph unicode="&#x1f5;" horiz-adv-x="517" d="M465 400l-50 -409q-15 -121 -55 -170q-53 -64 -154 -64q-96 0 -144 57q-18 21 -25 45.5t-9 67.5h37q4 -59 26 -88q37 -45 115 -45q84 0 125 52q32 41 43 131l10 87q-42 -42 -75 -58t-77 -16q-80 0 -133.5 55.5t-53.5 138.5q0 99 66 168q53 58 143 58q57 0 93.5 -21.5 t67.5 -74.5l11 86h39zM259 373q-73 0 -123 -53.5t-50 -132.5q0 -67 40 -112q20 -22 50.5 -35.5t59.5 -13.5q70 0 120 55t50 132q0 72 -40.5 116t-106.5 44zM367 573l-128 -113l-21 20l115 125z" />
<glyph unicode="&#x1fa;" horiz-adv-x="589" d="M-3 0l366 697l179 -697h-44l-57 226h-279l-119 -226h-46zM431 265l-83 319l-165 -319h248zM371 864q30 0 52 -22t22 -53t-22 -53.5t-53 -22.5q-32 0 -54 22t-22 54q0 31 22.5 53t54.5 22zM370 829q-17 0 -29 -11.5t-12 -28.5t12 -29t29 -12t28.5 12t11.5 29t-12 28.5 t-28 11.5zM417 945l-134 -107l-25 20l120 122z" />
<glyph unicode="&#x1fb;" horiz-adv-x="518" d="M466 400l-49 -400h-39l8 71q-40 -46 -74 -63.5t-81 -17.5q-82 0 -134 54.5t-52 139.5q0 97 60 161.5t150 64.5q53 0 89.5 -20.5t72.5 -70.5l10 81h39zM259 373q-74 0 -123.5 -53.5t-49.5 -132.5q0 -69 42 -114.5t106 -45.5q70 0 122.5 58t52.5 136q0 67 -42 109.5 t-108 42.5zM296 611q31 0 52.5 -22t21.5 -53q0 -32 -22 -54t-53 -22t-53 22t-22 54q0 31 22 53t54 22zM296 576q-17 0 -29 -11.5t-12 -28.5t11.5 -29t28.5 -12t28.5 12t11.5 29q0 16 -11.5 28t-27.5 12zM368 722l-128 -113l-21 20l115 125z" />
<glyph unicode="&#x1fc;" horiz-adv-x="844" d="M-9 0l353 667h300l8 -39h-272l63 -243h271l9 -39h-270l79 -307h269l10 -39h-315l-58 223h-280l-117 -223h-50zM430 262l-82 321l-170 -321h252zM556 820l-134 -107l-25 20l120 122z" />
<glyph unicode="&#x1fd;" horiz-adv-x="749" d="M364 205l-1 -37q0 -67 34 -101q43 -43 111 -43q40 0 70.5 14t62.5 48l27 -20q-66 -79 -160 -79q-119 0 -167 106q-16 -51 -55.5 -78.5t-95.5 -27.5q-68 0 -112 38.5t-44 96.5q0 59 45.5 97.5t115.5 38.5q84 0 132 -61l4 33l6 39q3 15 3 31q0 80 -134 80q-43 0 -103 -10 l5 37q62 10 103 10q73 0 115 -26q31 -19 43 -63q39 51 71.5 70t80.5 19q80 0 127 -57t48 -155h-332zM195 221q-52 0 -86 -28t-34 -71q0 -42 33 -70t83 -28q53 0 89.5 29.5t36.5 73.5q0 40 -34.5 67t-87.5 27zM371 241h286q-9 68 -44 103.5t-92 35.5q-56 0 -95 -36t-55 -103z M496 573l-128 -113l-21 20l115 125z" />
<glyph unicode="&#x1fe;" horiz-adv-x="786" d="M161 78l-79 -72l-27 29l79 73q-63 86 -63 196q0 82 31 158t85 127q94 91 234 91q139 0 232 -90l77 72l28 -30l-79 -72q61 -85 61 -201q0 -160 -98.5 -266t-247.5 -106q-140 0 -233 91zM646 533l-452 -428q81 -78 202 -78q129 0 214.5 94.5t85.5 236.5q0 103 -50 175z M167 136l454 427q-80 77 -200 77q-132 0 -219 -93.5t-87 -235.5q0 -100 52 -175zM527 820l-134 -107l-25 20l120 122z" />
<glyph unicode="&#x1ff;" horiz-adv-x="520" d="M109 41l-62 -60l-22 27l61 59q-40 53 -40 123q0 93 64 158t156 65q90 0 143 -55l64 60l24 -27l-65 -59q36 -58 36 -127q0 -92 -61.5 -155t-151.5 -63q-84 0 -146 54zM401 307l-260 -240q46 -43 113 -43q74 0 123.5 52t49.5 131q0 57 -26 100zM118 92l260 242 q-45 42 -112 42q-74 0 -126.5 -54t-52.5 -130q0 -52 31 -100zM388 573l-128 -113l-21 20l115 125z" />
<glyph unicode="&#x218;" horiz-adv-x="492" d="M457 563l-35 -24q-20 54 -50 78t-77 24q-56 0 -93 -35t-37 -88q0 -43 24 -72.5t90 -70.5q79 -50 105 -78q44 -52 44 -119q0 -81 -55 -136t-137 -55q-84 0 -138 59q-30 34 -47 91l38 14q16 -51 38 -76q42 -48 110 -48q64 0 105.5 44t41.5 111q0 46 -26 79t-96 76 q-81 49 -111 88t-30 93q0 72 49 117.5t126 45.5q58 0 96 -28t65 -90zM211 -47l45 -21l-95 -140l-27 13z" />
<glyph unicode="&#x219;" horiz-adv-x="340" d="M304 363l-24 -23q-38 36 -82 36q-36 0 -59.5 -22t-23.5 -56q0 -25 14.5 -40t59.5 -35q55 -25 75.5 -50t20.5 -66q0 -53 -36.5 -86.5t-93.5 -33.5q-90 0 -128 91l32 14q29 -68 96 -68q40 0 64.5 24t24.5 63q0 28 -15 44t-58 35q-53 23 -75 48t-22 62q0 48 35 80.5t87 32.5 q62 0 108 -50zM130 -47l41 -21l-89 -133l-27 13z" />
<glyph unicode="&#x21a;" horiz-adv-x="410" d="M277 628l-77 -628h-43l77 628h-173l5 39h386l-5 -39h-170zM152 -47l45 -21l-95 -140l-27 13z" />
<glyph unicode="&#x21b;" horiz-adv-x="193" d="M129 364l-44 -364h-40l45 364h-46l5 36h46l18 150h39l-18 -150h68l-5 -36h-68zM38 -47l41 -21l-89 -133l-27 13z" />
<glyph unicode="&#x226;" horiz-adv-x="589" d="M-3 0l366 697l179 -697h-44l-57 226h-279l-119 -226h-46zM431 265l-83 319l-165 -319h248zM375 810q13 0 21.5 -9.5t8.5 -23.5q0 -16 -11.5 -28t-26.5 -12q-14 0 -22.5 9t-8.5 23q0 17 11.5 29t27.5 12z" />
<glyph unicode="&#x227;" horiz-adv-x="518" d="M466 400l-49 -400h-39l8 71q-40 -46 -74 -63.5t-81 -17.5q-82 0 -134 54.5t-52 139.5q0 97 60 161.5t150 64.5q53 0 89.5 -20.5t72.5 -70.5l10 81h39zM259 373q-74 0 -123.5 -53.5t-49.5 -132.5q0 -69 42 -114.5t106 -45.5q70 0 122.5 58t52.5 136q0 67 -42 109.5 t-108 42.5zM297 551q13 0 21 -9t8 -23q0 -16 -11 -27.5t-25 -11.5q-13 0 -21.5 9t-8.5 22q0 16 11 28t26 12z" />
<glyph unicode="&#x259;" horiz-adv-x="484" d="M42 207h351q1 10 1 28q0 63 -39 104t-100 41q-59 0 -108 -39q-20 -16 -48 -55l-31 20q76 111 194 111q79 0 127.5 -50.5t48.5 -133.5q0 -100 -67 -172t-161 -72q-76 0 -123 50t-47 132q0 4 2 36zM386 169h-302q3 -46 20 -77q17 -30 47 -48t63 -18q59 0 107 40t65 103z " />
<glyph unicode="&#x2bb;" d="M289 460l-41 21l89 134l27 -13z" />
<glyph unicode="&#x2bc;" horiz-adv-x="257" d="M240 679l-107 -168l-23 12l96 174z" />
<glyph unicode="&#x2c6;" d="M295 557l-104 -97l-23 25l133 123l97 -125l-28 -23z" />
<glyph unicode="&#x2c7;" d="M283 510l105 98l23 -25l-133 -123l-97 124l27 24z" />
<glyph unicode="&#x2c9;" d="M165 535h246l-5 -38h-246z" />
<glyph unicode="&#x2d8;" d="M206 589h37q3 -47 18.5 -67t49.5 -20q64 0 90 87h37q-11 -57 -46.5 -90t-85.5 -33q-47 0 -73 31.5t-27 91.5z" />
<glyph unicode="&#x2d9;" d="M288 551q13 0 21 -9t8 -23q0 -16 -11 -27.5t-25 -11.5q-13 0 -21.5 9t-8.5 22q0 16 11 28t26 12z" />
<glyph unicode="&#x2da;" d="M301 611q30 0 52 -22t22 -53t-22 -53.5t-53 -22.5q-32 0 -54 22t-22 54q0 31 22.5 53t54.5 22zM300 576q-17 0 -29 -11.5t-12 -28.5t12 -29t29 -12t28.5 12t11.5 29q0 16 -12 28t-28 12z" />
<glyph unicode="&#x2db;" d="M320 0h39q-77 -59 -77 -102q0 -37 43 -37q21 0 59 13l-14 -36q-28 -12 -52 -12q-34 0 -54 18.5t-20 49.5q0 55 76 106z" />
<glyph unicode="&#x2dc;" d="M397 554l32 -10q-29 -66 -87 -66q-27 0 -75 29q-25 16 -39 16q-26 0 -42 -38l-33 9q29 65 78 65q16 0 29 -5.5t46 -25.5q24 -14 39 -14q16 0 27 8.5t25 31.5z" />
<glyph unicode="&#x2dd;" d="M342 577l-118 -117l-20 16l105 129zM456 577l-119 -117l-20 16l105 129z" />
<glyph unicode="&#x37e;" horiz-adv-x="208" d="M125 413q13 0 21.5 -9t8.5 -22t-9.5 -22.5t-22.5 -9.5t-21.5 9t-8.5 22t9.5 22.5t22.5 9.5zM122 77l-118 -186l-25 13l107 193z" />
<glyph unicode="&#x384;" d="M267 494l17 203h48l-33 -203h-32z" />
<glyph unicode="&#x385;" d="M207 603q15 0 24.5 -9.5t9.5 -24.5q0 -18 -13 -31t-31 -13q-15 0 -24.5 9.5t-9.5 24.5q0 18 13 31t31 13zM386 603q15 0 25 -9.5t10 -24.5q0 -18 -13.5 -31t-30.5 -13q-16 0 -25.5 9.5t-9.5 24.5q0 18 13.5 31t30.5 13zM267 494l17 203h48l-33 -203h-32z" />
<glyph unicode="&#x386;" horiz-adv-x="584" d="M433 219h-284l-116 -219h-48l365 687l193 -687h-49zM422 259l-87 316l-165 -316h252zM126 494l17 203h48l-33 -203h-32z" />
<glyph unicode="&#x388;" horiz-adv-x="551" d="M61 494l17 203h48l-33 -203h-32zM151 0l81 667h320l-5 -40h-276l-30 -242h270l-5 -40h-270l-37 -305h276l-5 -40h-319z" />
<glyph unicode="&#x389;" horiz-adv-x="759" d="M61 494l17 203h48l-33 -203h-32zM151 0l81 667h44l-35 -283h404l35 283h43l-82 -667h-43l42 344h-404l-42 -344h-43z" />
<glyph unicode="&#x38a;" horiz-adv-x="312" d="M61 494l17 203h48l-33 -203h-32zM151 0l81 667h44l-82 -667h-43z" />
<glyph unicode="&#x38c;" horiz-adv-x="886" d="M61 494l17 203h48l-33 -203h-32zM546 676q127 0 215 -88t88 -214q0 -153 -119 -269t-276 -116q-69 0 -132 30.5t-106 84.5q-63 80 -63 191q0 151 119 266t274 115zM541 635q-137 0 -240 -101.5t-103 -235.5q0 -112 72 -187q79 -81 190 -81q137 0 240.5 102t103.5 238 q0 108 -73 184q-35 37 -86.5 59t-103.5 22z" />
<glyph unicode="&#x38e;" horiz-adv-x="633" d="M61 494l17 203h48l-33 -203h-32zM323 0l35 285l-171 382h50l150 -335l235 335h52l-273 -382l-35 -285h-43z" />
<glyph unicode="&#x38f;" horiz-adv-x="876" d="M61 494l17 203h48l-33 -203h-32zM118 0l5 40h210l3 31q-181 59 -181 242q0 128 84 229q110 134 299 134q137 0 220 -77t83 -204q0 -117 -66 -202.5t-185 -121.5l-4 -31h210l-5 -40h-253l11 94q97 22 170 94q77 79 77 206q0 112 -70.5 176.5t-191.5 64.5q-189 0 -281 -141 q-54 -82 -54 -186q0 -91 68 -152q49 -46 116 -62l-12 -94h-253z" />
<glyph unicode="&#x390;" horiz-adv-x="184" d="M44 0l51 408h40l-51 -408h-40zM49 603q15 0 24.5 -9.5t9.5 -24.5q0 -18 -13 -31t-31 -13q-15 0 -24.5 9.5t-9.5 24.5q0 18 13 31t31 13zM228 603q15 0 25 -9.5t10 -24.5q0 -18 -13.5 -31t-30.5 -13q-16 0 -25.5 9.5t-9.5 24.5q0 18 13.5 31t30.5 13zM109 494l17 203h48 l-33 -203h-32z" />
<glyph unicode="&#x391;" horiz-adv-x="584" d="M433 219h-284l-116 -219h-48l365 687l193 -687h-49zM422 259l-87 316l-165 -316h252z" />
<glyph unicode="&#x392;" horiz-adv-x="533" d="M62 0l82 667h144q93 0 134 -51q31 -38 31 -98q0 -57 -22.5 -95.5t-74.5 -68.5q48 -13 74 -36q46 -41 46 -111q0 -47 -23 -90.5t-63 -72.5q-60 -44 -146 -44h-182zM150 365h85q56 0 86 11t55 41q32 35 32 97q0 59 -33.5 86t-107.5 27h-85zM110 40h112q60 0 90.5 8t59.5 32 q60 47 60 123q0 65 -47 96q-38 26 -136 26h-104z" />
<glyph unicode="&#x393;" horiz-adv-x="456" d="M62 0l82 667h341l-4 -40h-299l-77 -627h-43z" />
<glyph unicode="&#x394;" horiz-adv-x="584" d="M-15 0l365 687l193 -687h-558zM54 40h429l-149 532z" />
<glyph unicode="&#x395;" horiz-adv-x="463" d="M62 0l82 667h319l-5 -40h-276l-29 -242h269l-5 -40h-269l-38 -305h276l-5 -40h-319z" />
<glyph unicode="&#x396;" horiz-adv-x="555" d="M9 0l484 627h-368l5 40h442l-484 -627h396l-5 -40h-470z" />
<glyph unicode="&#x397;" horiz-adv-x="671" d="M62 0l82 667h43l-35 -283h404l35 283h44l-82 -667h-44l43 344h-404l-43 -344h-43z" />
<glyph unicode="&#x398;" horiz-adv-x="798" d="M226 313l5 40h367l-5 -40h-367zM454 676q134 0 220 -84.5t86 -216.5q0 -156 -116 -271t-273 -115q-136 0 -221.5 84.5t-85.5 218.5q0 155 116 269.5t274 114.5zM449 635q-139 0 -239.5 -101t-100.5 -240q0 -117 74.5 -190.5t192.5 -73.5q138 0 238.5 101t100.5 240 q0 116 -74.5 190t-191.5 74z" />
<glyph unicode="&#x399;" horiz-adv-x="223" d="M62 0l82 667h43l-82 -667h-43z" />
<glyph unicode="&#x39a;" horiz-adv-x="539" d="M62 0l82 667h43l-39 -319l352 319h60l-363 -325l301 -342h-64l-288 334l-41 -334h-43z" />
<glyph unicode="&#x39b;" horiz-adv-x="536" d="M-15 0l339 687l171 -687h-49l-136 571l-277 -571h-48z" />
<glyph unicode="&#x39c;" horiz-adv-x="897" d="M55 0l160 690l212 -617l367 617l-9 -690h-44l6 536l-332 -560l-192 560l-124 -536h-44z" />
<glyph unicode="&#x39d;" horiz-adv-x="783" d="M62 0l83 674l487 -586l71 579h44l-84 -684l-488 586l-70 -569h-43z" />
<glyph unicode="&#x39e;" horiz-adv-x="554" d="M102 627l5 40h448l-5 -40h-448zM73 345l5 40h436l-5 -40h-436zM25 0l5 40h448l-5 -40h-448z" />
<glyph unicode="&#x39f;" horiz-adv-x="798" d="M457 676q127 0 215 -88t88 -214q0 -153 -119 -269t-276 -116q-69 0 -132 30.5t-106 84.5q-63 80 -63 191q0 151 119 266t274 115zM452 635q-137 0 -240 -101.5t-103 -235.5q0 -112 72 -187q79 -81 190 -81q137 0 240.5 102t103.5 238q0 108 -73 184q-35 37 -86.5 59 t-103.5 22z" />
<glyph unicode="&#x3a0;" horiz-adv-x="658" d="M62 0l82 667h478l-82 -667h-43l77 627h-392l-77 -627h-43z" />
<glyph unicode="&#x3a1;" horiz-adv-x="445" d="M144 317l-39 -317h-43l82 667h128q98 0 140 -51q34 -42 34 -100q0 -75 -47 -131q-56 -68 -169 -68h-86zM149 357h87q73 0 119 43.5t46 111.5q0 115 -138 115h-81z" />
<glyph unicode="&#x3a3;" horiz-adv-x="535" d="M25 0l261 373l-163 294h406l-5 -40h-329l141 -251l-229 -336h357l-5 -40h-434z" />
<glyph unicode="&#x3a4;" horiz-adv-x="415" d="M156 0l77 627h-171l5 40h388l-5 -40h-173l-77 -627h-44z" />
<glyph unicode="&#x3a5;" horiz-adv-x="514" d="M203 0l35 285l-171 382h51l149 -335l236 335h51l-272 -382l-35 -285h-44z" />
<glyph unicode="&#x3a6;" horiz-adv-x="848" d="M366 -53l13 100q-148 6 -231.5 72.5t-83.5 179.5q0 72 35 136.5t99 108.5q97 68 251 74l12 102h44l-13 -102q124 -4 197 -47q120 -71 120 -205q0 -72 -35 -136.5t-99 -108.5q-97 -68 -253 -74l-12 -100h-44zM487 578l-60 -491q73 4 121.5 17t93.5 41q59 37 92 94t33 122 q0 64 -35 114t-100 77q-52 22 -145 26zM384 87l60 491q-132 -6 -213 -58q-59 -37 -92 -94t-33 -122q0 -64 35 -114t100 -77q52 -22 143 -26z" />
<glyph unicode="&#x3a7;" horiz-adv-x="462" d="M-5 0l224 341l-135 326h49l117 -281l184 281h49l-214 -326l142 -341h-49l-124 296l-194 -296h-49z" />
<glyph unicode="&#x3a8;" horiz-adv-x="733" d="M316 0l22 180q-115 7 -168 36q-84 46 -84 156q0 23 3 47l30 248h44l-28 -229q-5 -40 -5 -66q0 -75 50.5 -110t163.5 -38l54 443h44l-55 -443q134 4 192.5 52t69.5 162l28 229h43l-30 -248q-14 -120 -87.5 -177t-220.5 -62l-22 -180h-44z" />
<glyph unicode="&#x3a9;" horiz-adv-x="788" d="M29 0l5 40h210l3 31q-181 59 -181 242q0 128 84 229q110 134 299 134q137 0 220 -77t83 -204q0 -117 -66 -202.5t-185 -121.5l-4 -31h210l-5 -40h-253l11 94q97 22 170 94q77 79 77 206q0 112 -70.5 176.5t-191.5 64.5q-189 0 -281 -141q-54 -82 -54 -186q0 -91 68 -152 q49 -46 116 -62l-12 -94h-253z" />
<glyph unicode="&#x3aa;" horiz-adv-x="223" d="M62 0l82 667h44l-82 -667h-44zM91 815q15 0 24.5 -9.5t9.5 -24.5q0 -17 -13 -30t-30 -13q-15 0 -24.5 9.5t-9.5 24.5q0 17 13 30t30 13zM277 815q15 0 24.5 -9.5t9.5 -24.5q0 -17 -13 -30t-30 -13q-15 0 -24.5 9.5t-9.5 24.5q0 17 13 30t30 13z" />
<glyph unicode="&#x3ab;" horiz-adv-x="514" d="M203 0l35 285l-171 382h51l149 -335l236 335h51l-272 -382l-35 -285h-44zM236 815q14 0 24 -9.5t10 -24.5q0 -17 -13.5 -30t-30.5 -13q-15 0 -24.5 9.5t-9.5 24.5q0 17 13 30t31 13zM422 815q14 0 24 -9.5t10 -24.5q0 -17 -13.5 -30t-30.5 -13q-15 0 -24.5 9.5t-9.5 24.5 q0 17 13 30t31 13z" />
<glyph unicode="&#x3ac;" horiz-adv-x="515" d="M376 0l9 73q-67 -84 -171 -84q-78 0 -126 51t-48 134q0 104 65 173.5t162 69.5q99 0 150 -80l9 71h40l-50 -408h-40zM266 380q-76 0 -130 -59t-54 -142q0 -68 39 -110.5t101 -42.5q78 0 131 61.5t53 150.5q0 62 -37 99q-43 43 -103 43zM274 494l17 203h48l-33 -203h-32z " />
<glyph unicode="&#x3ad;" horiz-adv-x="418" d="M366 59l-6 -48q-74 -23 -153 -23q-170 0 -170 108q0 41 21.5 71.5t60.5 43.5q-49 20 -49 71q0 62 50 96t142 34q71 0 137 -20l-5 -44q-57 27 -132 27q-71 0 -110.5 -22.5t-39.5 -63.5q0 -32 31 -49q21 -12 76 -12h102l-4 -35h-100q-67 0 -102.5 -24t-35.5 -69 q0 -36 33.5 -55.5t95.5 -19.5q82 0 158 34zM253 494l17 203h48l-33 -203h-32z" />
<glyph unicode="&#x3ae;" horiz-adv-x="433" d="M44 0l50 408h40l-6 -52q28 32 55.5 45.5t66.5 13.5q118 0 118 -112q0 -15 -4 -55l-60 -484h-40l60 486q4 38 4 49q0 79 -84 79q-61 0 -92.5 -42t-43.5 -139l-24 -197h-40zM233 494l17 203h48l-33 -203h-32z" />
<glyph unicode="&#x3af;" horiz-adv-x="184" d="M44 0l50 408h40l-50 -408h-40zM109 494l17 203h48l-33 -203h-32z" />
<glyph unicode="&#x3b0;" horiz-adv-x="429" d="M93 408h40l-30 -243q-4 -38 -4 -52q0 -87 90 -87q62 0 92 41q20 27 28 98l30 243h40l-32 -257q-5 -48 -17 -76t-35 -48q-41 -38 -110 -38q-59 0 -93 30t-34 82q0 21 3 50zM170 603q15 0 24.5 -9.5t9.5 -24.5q0 -18 -13 -31t-31 -13q-15 0 -24.5 9.5t-9.5 24.5q0 18 13 31 t31 13zM349 603q15 0 25 -9.5t10 -24.5q0 -18 -13.5 -31t-30.5 -13q-16 0 -25.5 9.5t-9.5 24.5q0 18 13.5 31t30.5 13zM230 494l17 203h48l-33 -203h-32z" />
<glyph unicode="&#x3b1;" horiz-adv-x="515" d="M376 0l9 73q-67 -84 -171 -84q-78 0 -126 51t-48 134q0 104 65 173.5t162 69.5q99 0 150 -80l9 71h40l-50 -408h-40zM266 380q-76 0 -130 -59t-54 -142q0 -68 39 -110.5t101 -42.5q78 0 131 61.5t53 150.5q0 62 -37 99q-43 43 -103 43z" />
<glyph unicode="&#x3b2;" horiz-adv-x="502" d="M15 -236l86 698q15 128 48 180q54 85 164 85q69 0 108 -37.5t39 -104.5q0 -120 -116 -178q50 -20 73 -49q40 -49 40 -124q0 -95 -60 -168q-63 -79 -181 -79q-79 0 -128 46l-33 -269h-40zM141 465l-47 -386q48 -55 121 -55q88 0 144 57t56 146q0 100 -75 139 q-33 15 -79 15h-15l5 44q39 2 62.5 10t46.5 28q59 48 59 121q0 47 -31.5 76.5t-82.5 29.5q-41 0 -75 -20.5t-53 -57.5q-22 -40 -36 -147z" />
<glyph unicode="&#x3b3;" horiz-adv-x="372" d="M114 -239l19 158q6 42 6 85q0 68 -28 185t-69 219h51q71 -195 80 -337q16 50 55 133l98 204h48l-114 -228q-45 -88 -60.5 -134.5t-26.5 -126.5l-19 -158h-40z" />
<glyph unicode="&#x3b4;" horiz-adv-x="492" d="M294 415l-74 74q-21 21 -34 50t-13 54q0 77 63 107q36 18 113 18h70l-5 -38h-80q-61 0 -90 -19.5t-29 -60.5q0 -37 38 -79l133 -138q63 -64 63 -147q0 -84 -47 -153q-30 -45 -78.5 -69.5t-105.5 -24.5q-83 0 -130.5 48.5t-47.5 132.5q0 105 66 176t163 71q15 0 25 -2z M356 353l-19 19q-32 8 -64 8q-109 0 -161 -90q-30 -54 -30 -115q0 -71 37 -110t104 -39q104 0 154 90q30 55 30 115q0 71 -51 122z" />
<glyph unicode="&#x3b5;" horiz-adv-x="418" d="M366 59l-6 -48q-74 -23 -153 -23q-170 0 -170 108q0 41 21.5 71.5t60.5 43.5q-49 20 -49 71q0 62 50 96t142 34q71 0 137 -20l-5 -44q-57 27 -132 27q-71 0 -110.5 -22.5t-39.5 -63.5q0 -32 31 -49q21 -12 76 -12h102l-4 -35h-100q-67 0 -102.5 -24t-35.5 -69 q0 -36 33.5 -55.5t95.5 -19.5q82 0 158 34z" />
<glyph unicode="&#x3b6;" horiz-adv-x="336" d="M103 691l5 38h297q-189 -285 -234 -360q-55 -89 -75.5 -139t-20.5 -93q0 -47 31 -73q22 -19 79 -24q59 -4 81 -19q32 -21 32 -69q0 -44 -27 -78t-88 -66l-16 30q52 31 71 54t19 55q0 29 -21 43q-17 11 -65 13q-71 5 -104.5 35.5t-33.5 89.5q0 53 25 115t88 163 q90 143 188 285h-231z" />
<glyph unicode="&#x3b7;" horiz-adv-x="433" d="M44 0l50 408h40l-6 -52q28 32 55.5 45.5t66.5 13.5q118 0 118 -112q0 -15 -4 -55l-60 -484h-40l60 486q4 38 4 49q0 79 -84 79q-61 0 -92.5 -42t-43.5 -139l-24 -197h-40z" />
<glyph unicode="&#x3b8;" horiz-adv-x="457" d="M88 376h323q4 37 4 61q0 106 -36 179t-89 73q-62 0 -122.5 -93.5t-79.5 -219.5zM407 338h-324q-3 -40 -3 -57q0 -107 36.5 -180t89.5 -73q62 0 122 92.5t79 217.5zM288 726q84 0 131 -104q36 -78 36 -187q0 -112 -35.5 -215.5t-94.5 -166t-123 -62.5q-70 0 -116.5 83 t-46.5 206q0 172 77 308q35 62 82 100t90 38z" />
<glyph unicode="&#x3b9;" horiz-adv-x="184" d="M44 0l50 408h40l-50 -408h-40z" />
<glyph unicode="&#x3ba;" horiz-adv-x="392" d="M44 0l50 408h40l-24 -200l218 200h48l-218 -198l190 -210h-52l-186 208l-26 -208h-40z" />
<glyph unicode="&#x3bb;" horiz-adv-x="357" d="M-20 0l203 427l-66 302h45l159 -729h-46l-80 370l-168 -370h-47z" />
<glyph unicode="&#x3bc;" horiz-adv-x="430" d="M13 -239l79 647h40l-24 -201q-5 -35 -5 -66q0 -60 20.5 -86.5t66.5 -26.5q56 0 85.5 41t41.5 138l24 201h40l-50 -408h-40l6 48q-20 -32 -45 -44.5t-67 -12.5q-41 0 -62.5 12.5t-34.5 44.5l-35 -287h-40z" />
<glyph unicode="&#x3bd;" horiz-adv-x="390" d="M30 408h47l101 -330l181 330h45l-239 -433z" />
<glyph unicode="&#x3be;" horiz-adv-x="377" d="M104 691l4 38h300q-157 -75 -207.5 -117.5t-50.5 -99.5q0 -32 22 -57t60 -36q31 -8 111 -8l-27 -42q-37 6 -57 6q-73 0 -126 -61.5t-53 -146.5q0 -61 35 -91q23 -19 86 -26t87 -21q34 -22 34 -74q0 -46 -27 -80.5t-88 -66.5l-16 30q52 31 71 54.5t19 55.5q0 31 -19 44 t-74 18q-80 7 -115 41t-35 106q0 83 41 148.5t111 92.5q-46 20 -64 43.5t-18 62.5q0 120 167 187h-171z" />
<glyph unicode="&#x3bf;" horiz-adv-x="517" d="M283 417q82 0 135 -53t53 -134q0 -98 -72 -169.5t-171 -71.5q-81 0 -134 53.5t-53 135.5q0 96 72.5 167.5t169.5 71.5zM275 380q-77 0 -134.5 -59.5t-57.5 -138.5q0 -68 41.5 -112t106.5 -44q82 0 140 59t58 142q0 66 -43.5 109.5t-110.5 43.5z" />
<glyph unicode="&#x3c0;" horiz-adv-x="487" d="M82 0l46 370h-79l5 38h423l-5 -38h-79l-45 -370h-40l45 370h-185l-46 -370h-40z" />
<glyph unicode="&#x3c1;" horiz-adv-x="515" d="M14 -239l51 419q14 107 60 159q66 78 168 78q80 0 128 -50.5t48 -133.5q0 -103 -66.5 -173.5t-163.5 -70.5q-56 0 -89.5 22t-55.5 73l-40 -323h-40zM289 380q-78 0 -129.5 -59t-51.5 -148q0 -65 38.5 -106t100.5 -41q74 0 127 60t53 142q0 68 -38 110t-100 42z" />
<glyph unicode="&#x3c2;" horiz-adv-x="387" d="M374 370l-6 -51q-52 56 -120 56q-74 0 -121 -58.5t-47 -149.5q0 -62 35 -91q23 -19 85 -26q64 -6 88 -21q34 -22 34 -74q0 -46 -26.5 -80t-88.5 -67l-16 30q52 31 71 54.5t19 55.5q0 28 -17 43q-17 14 -76 19q-80 7 -115 41t-35 106q0 93 46 164q57 91 171 91 q70 0 119 -42z" />
<glyph unicode="&#x3c3;" horiz-adv-x="489" d="M521 408l-5 -38h-107q35 -53 35 -128q0 -111 -64 -182t-164 -71q-80 0 -128 49t-48 130q0 105 66.5 177t162.5 72q20 0 84 -5q53 -4 87 -4h81zM352 373q-59 7 -87 7q-78 0 -130.5 -60t-52.5 -149q0 -68 37 -106.5t101 -38.5q81 0 131.5 58t50.5 151q0 79 -50 138z" />
<glyph unicode="&#x3c4;" horiz-adv-x="292" d="M98 0l45 370h-120l5 38h280l-5 -38h-120l-45 -370h-40z" />
<glyph unicode="&#x3c5;" horiz-adv-x="429" d="M93 408h40l-30 -243q-4 -38 -4 -52q0 -87 90 -87q62 0 92 41q20 27 28 98l30 243h40l-32 -257q-5 -48 -17 -76t-35 -48q-41 -38 -110 -38q-59 0 -93 30t-34 82q0 21 3 50z" />
<glyph unicode="&#x3c6;" horiz-adv-x="584" d="M213 -236l28 226q-95 8 -148 56.5t-53 127.5q0 72 38.5 128t111.5 88l12 -34q-120 -58 -120 -178q0 -65 43 -104.5t121 -45.5l47 387h21q102 0 163.5 -50t61.5 -133q0 -101 -71 -168t-187 -74l-28 -226h-40zM328 378l-43 -351q98 8 155 62t57 139q0 67 -43.5 105.5 t-125.5 44.5z" />
<glyph unicode="&#x3c7;" horiz-adv-x="382" d="M152 109l-104 299h46l92 -264l148 264h44l-178 -304l120 -343h-46l-107 307l-176 -307h-44z" />
<glyph unicode="&#x3c8;" horiz-adv-x="611" d="M228 -239l29 239h-23q-90 0 -130.5 32t-40.5 103q0 29 4 56l27 217h40l-25 -203q-5 -37 -5 -62q0 -58 29.5 -82t99.5 -24h29l46 371h40l-46 -371h29q85 0 122 38q32 33 44 130l25 203h40l-27 -217q-13 -106 -61 -148.5t-153 -42.5h-24l-29 -239h-40z" />
<glyph unicode="&#x3c9;" horiz-adv-x="610" d="M288 253h40l-11 -85q-2 -26 -2 -46q0 -91 73 -91q59 0 96 55.5t37 143.5q0 102 -62 178h41q63 -68 63 -174q0 -104 -51 -173t-128 -69q-75 0 -100 69q-42 -69 -116 -69q-61 0 -95.5 43.5t-34.5 120.5q0 72 30.5 139t84.5 113h42q-116 -108 -116 -255q0 -56 25.5 -89 t68.5 -33q88 0 104 137z" />
<glyph unicode="&#x3ca;" horiz-adv-x="184" d="M44 0l50 408h40l-50 -408h-40zM51 565q14 0 23 -9t9 -23q0 -16 -12.5 -28t-28.5 -12q-14 0 -23 9.5t-9 22.5q0 16 12.5 28t28.5 12zM217 565q14 0 23 -9t9 -23q0 -16 -12.5 -28t-28.5 -12q-14 0 -23 9.5t-9 22.5q0 16 12.5 28t28.5 12z" />
<glyph unicode="&#x3cb;" horiz-adv-x="429" d="M93 408h40l-30 -243q-4 -38 -4 -52q0 -87 90 -87q62 0 92 41q20 27 28 98l30 243h40l-32 -257q-5 -48 -17 -76t-35 -48q-41 -38 -110 -38q-59 0 -93 30t-34 82q0 21 3 50zM172 565q14 0 23.5 -9t9.5 -23q0 -16 -12.5 -28t-28.5 -12q-14 0 -23.5 9t-9.5 23q0 16 12.5 28 t28.5 12zM338 565q14 0 23.5 -9t9.5 -23q0 -16 -12.5 -28t-28.5 -12q-14 0 -23.5 9t-9.5 23q0 16 12.5 28t28.5 12z" />
<glyph unicode="&#x3cc;" horiz-adv-x="517" d="M283 417q82 0 135 -53t53 -134q0 -98 -72 -169.5t-171 -71.5q-81 0 -134 53.5t-53 135.5q0 96 72.5 167.5t169.5 71.5zM275 380q-77 0 -134.5 -59.5t-57.5 -138.5q0 -68 41.5 -112t106.5 -44q82 0 140 59t58 142q0 66 -43.5 109.5t-110.5 43.5zM275 494l17 203h48 l-33 -203h-32z" />
<glyph unicode="&#x3cd;" horiz-adv-x="429" d="M93 408h40l-30 -243q-4 -38 -4 -52q0 -87 90 -87q62 0 92 41q20 27 28 98l30 243h40l-32 -257q-5 -48 -17 -76t-35 -48q-41 -38 -110 -38q-59 0 -93 30t-34 82q0 21 3 50zM230 494l17 203h48l-33 -203h-32z" />
<glyph unicode="&#x3ce;" horiz-adv-x="610" d="M288 253h40l-11 -85q-2 -26 -2 -46q0 -91 73 -91q59 0 96 55.5t37 143.5q0 102 -62 178h41q63 -68 63 -174q0 -104 -51 -173t-128 -69q-75 0 -100 69q-42 -69 -116 -69q-61 0 -95.5 43.5t-34.5 120.5q0 72 30.5 139t84.5 113h42q-116 -108 -116 -255q0 -56 25.5 -89 t68.5 -33q88 0 104 137zM321 494l17 203h48l-33 -203h-32z" />
<glyph unicode="&#x3d1;" horiz-adv-x="457" d="M389 413h-119q-102 0 -137 31q-35 30 -35 89q0 82 53.5 142t126.5 60q78 0 115 -68.5t38 -216.5h71l-5 -37h-67q-7 -107 -38 -205q-35 -111 -83 -164t-113 -53q-70 0 -107 64t-37 184q0 53 8 119l6 50h40l-6 -46q-9 -78 -9 -126q0 -85 26 -146q26 -62 85 -62 q104 0 159 212q22 82 28 173zM390 450v13v9q-2 109 -28 163q-29 63 -90 63q-67 0 -104 -63q-27 -46 -27 -96q0 -51 27.5 -70t101.5 -19h120z" />
<glyph unicode="&#x3d5;" horiz-adv-x="584" d="M224 -170l20 160q-95 5 -150.5 54.5t-55.5 129.5q0 101 71 167.5t187 73.5l19 158h35l-19 -158q95 -5 150.5 -54.5t55.5 -128.5q0 -101 -72 -169t-186 -73l-20 -160h-35zM326 378l-43 -351q97 7 154.5 61t57.5 139q0 67 -43.5 106t-125.5 45zM248 27l43 351 q-97 -7 -154 -60.5t-57 -139.5q0 -67 43.5 -106t124.5 -45z" />
<glyph unicode="&#x400;" horiz-adv-x="457" d="M460 667l-5 -39h-264l-30 -243h264l-5 -39h-264l-37 -307h264l-5 -39h-307l82 667h307zM240 826l43 29l74 -124l-25 -18z" />
<glyph unicode="&#x401;" horiz-adv-x="463" d="M62 0l82 667h319l-5 -40h-276l-29 -242h269l-5 -40h-269l-38 -305h276l-5 -40h-319zM231 815q15 0 24.5 -9.5t9.5 -24.5q0 -17 -13 -30t-30 -13q-15 0 -24.5 9.5t-9.5 24.5q0 17 13 30t30 13zM417 815q15 0 24.5 -9.5t9.5 -24.5q0 -17 -13 -30t-30 -13q-15 0 -24.5 9.5 t-9.5 24.5q0 17 13 30t30 13z" />
<glyph unicode="&#x402;" horiz-adv-x="610" d="M118 0l77 627h-125l5 40h340l-5 -40h-172l-35 -283q83 73 180 73q71 0 111 -34.5t40 -96.5q0 -15 -4 -55l-29 -238q-7 -60 -63 -161h-40q54 111 60 164l28 232q4 36 4 49q0 100 -116 100q-99 0 -178 -92l-35 -285h-43z" />
<glyph unicode="&#x403;" horiz-adv-x="456" d="M62 0l82 667h341l-4 -40h-299l-77 -627h-43zM440 816l-145 -103l-32 26l135 108z" />
<glyph unicode="&#x404;" horiz-adv-x="663" d="M491 324h-381q-2 -15 -2 -38q0 -112 72 -184t184 -72q140 0 248 105l-8 -60q-111 -86 -242 -86q-132 0 -215.5 81t-83.5 209q0 169 110.5 283t274.5 114q116 0 200 -67l-8 -60q-73 86 -201 86q-82 0 -154.5 -40t-120.5 -111q-34 -53 -48 -120h380z" />
<glyph unicode="&#x405;" horiz-adv-x="512" d="M42 132l39 18q16 -44 29 -64q38 -56 117 -56q71 0 127 52t56 118q0 54 -54 88q-18 11 -116 63q-65 35 -89.5 64t-24.5 73q0 79 56 133.5t137 54.5q51 0 90.5 -25t59.5 -70l-35 -26q-23 43 -51 61.5t-70 18.5q-58 0 -100 -42t-42 -98q0 -34 22 -58t82 -55q93 -47 124 -69 q56 -41 56 -108q0 -85 -71 -150.5t-164 -65.5q-94 0 -146 70q-20 29 -32 73z" />
<glyph unicode="&#x406;" horiz-adv-x="223" d="M62 0l82 667h43l-82 -667h-43z" />
<glyph unicode="&#x407;" horiz-adv-x="223" d="M188 667l-82 -667h-44l82 667h44zM91 815q15 0 24.5 -9.5t9.5 -24.5q0 -17 -13 -30t-30 -13q-15 0 -24.5 9.5t-9.5 24.5q0 17 13 30t30 13zM277 815q15 0 24.5 -9.5t9.5 -24.5q0 -17 -13 -30t-30 -13q-15 0 -24.5 9.5t-9.5 24.5q0 17 13 30t30 13z" />
<glyph unicode="&#x408;" horiz-adv-x="265" d="M185 667h43l-81 -665q-8 -65 -34 -96q-37 -45 -99 -45q-75 0 -104 72l34 24q23 -55 77 -55q70 0 82 100z" />
<glyph unicode="&#x409;" horiz-adv-x="868" d="M416 0l77 627h-231q-45 -262 -77 -390q-30 -122 -69 -174q-50 -65 -123 -65q-14 0 -27 2l5 42q19 -4 27 -4q70 0 113 111q54 144 110 518h320l-34 -278h113q112 0 156 -41q46 -43 46 -121q0 -102 -61 -165q-31 -34 -74.5 -48t-114.5 -14h-156zM464 40h102q74 0 112 13.5 t63 48.5q36 52 36 116q0 63 -32 97q-33 34 -141 34h-102z" />
<glyph unicode="&#x40a;" horiz-adv-x="961" d="M62 0l82 667h43l-34 -278h404l34 278h44l-35 -278h113q112 0 156 -41q46 -43 46 -121q0 -102 -61 -165q-31 -34 -74.5 -48t-114.5 -14h-156l43 349h-404l-43 -349h-43zM558 40h101q75 0 113 13.5t62 48.5q36 52 36 116q0 63 -32 97q-33 34 -141 34h-102z" />
<glyph unicode="&#x40b;" horiz-adv-x="658" d="M127 0l77 627h-142l5 40h380l-5 -40h-195l-35 -283q92 73 200 73q81 0 125.5 -35.5t44.5 -100.5q0 -27 -4 -50l-28 -231h-43l28 228q3 25 3 47q0 102 -133 102q-114 0 -200 -92l-35 -285h-43z" />
<glyph unicode="&#x40c;" horiz-adv-x="539" d="M62 0l82 667h43l-39 -319l352 319h60l-363 -325l301 -342h-64l-288 334l-41 -334h-43zM482 816l-145 -103l-32 26l135 108z" />
<glyph unicode="&#x40d;" horiz-adv-x="671" d="M144 667h43l-69 -567l517 574l-82 -674h-44l69 557l-518 -574zM320 826l43 29l74 -124l-25 -18z" />
<glyph unicode="&#x40e;" d="M33 0l206 285l-171 382h50l149 -335l236 335h52l-476 -667h-46zM210 835h42q10 -74 73 -74t91 74h42q-14 -55 -50.5 -86.5t-88.5 -31.5q-50 0 -79.5 31.5t-29.5 86.5z" />
<glyph unicode="&#x40f;" horiz-adv-x="655" d="M62 0l82 667h43l-77 -627h381l77 627h43l-82 -667h-212l-15 -128h-44l16 128h-212z" />
<glyph unicode="&#x410;" horiz-adv-x="584" d="M433 219h-284l-116 -219h-48l365 687l193 -687h-49zM422 259l-87 316l-165 -316h252z" />
<glyph unicode="&#x411;" horiz-adv-x="514" d="M62 0l82 667h328l-5 -40h-285l-29 -238h113q111 0 155 -41q46 -43 46 -121q0 -102 -60 -165q-31 -34 -75 -48t-114 -14h-156zM110 40h102q74 0 112 13.5t62 48.5q36 52 36 116q0 63 -32 97q-33 34 -140 34h-102z" />
<glyph unicode="&#x412;" horiz-adv-x="533" d="M62 0l82 667h144q93 0 134 -51q31 -38 31 -98q0 -57 -22.5 -95.5t-74.5 -68.5q48 -13 74 -36q46 -41 46 -111q0 -47 -23 -90.5t-63 -72.5q-60 -44 -146 -44h-182zM150 365h85q56 0 86 11t55 41q32 35 32 97q0 59 -33.5 86t-107.5 27h-85zM110 40h112q60 0 90.5 8t59.5 32 q60 47 60 123q0 65 -47 96q-38 26 -136 26h-104z" />
<glyph unicode="&#x413;" horiz-adv-x="456" d="M62 0l82 667h341l-4 -40h-299l-77 -627h-43z" />
<glyph unicode="&#x414;" horiz-adv-x="594" d="M-68 -128l21 168h26q57 0 105 66q38 52 80 258q34 168 54 303h331l-77 -627h55l-20 -168h-44l16 128h-488l-16 -128h-43zM62 40h367l72 587h-242q-24 -143 -41.5 -231t-34.5 -155.5t-35 -104.5t-37.5 -59t-48.5 -37z" />
<glyph unicode="&#x415;" horiz-adv-x="463" d="M62 0l82 667h319l-5 -40h-276l-29 -242h269l-5 -40h-269l-38 -305h276l-5 -40h-319z" />
<glyph unicode="&#x416;" horiz-adv-x="831" d="M366 0l40 326h-34l-323 -326h-64l345 341l-243 326h59l221 -301h44l36 301h44l-37 -301h43l295 301h59l-322 -326l260 -341h-63l-244 326h-33l-40 -326h-43z" />
<glyph unicode="&#x417;" horiz-adv-x="540" d="M170 334l5 40h59q100 0 147 22q85 38 85 126q0 55 -49 85t-140 30q-89 0 -168 -36l6 48q84 29 172 29q105 0 164.5 -40t59.5 -111q0 -85 -70 -137q-30 -23 -85 -37q127 -35 127 -148q0 -50 -23 -95t-62 -72q-70 -48 -195 -48q-101 0 -180 33l6 51q86 -43 184 -43 q109 0 167 43.5t58 125.5q0 134 -210 134h-58z" />
<glyph unicode="&#x418;" horiz-adv-x="671" d="M144 667h43l-69 -567l517 574l-82 -674h-44l69 557l-518 -574z" />
<glyph unicode="&#x419;" horiz-adv-x="671" d="M144 667h43l-69 -567l517 574l-82 -674h-44l69 557l-518 -574zM286 835h42q10 -74 73 -74t91 74h42q-14 -55 -50.5 -86.5t-88.5 -31.5q-51 0 -80 31.5t-29 86.5z" />
<glyph unicode="&#x41a;" horiz-adv-x="539" d="M62 0l82 667h43l-39 -319l352 319h60l-363 -325l301 -342h-64l-288 334l-41 -334h-43z" />
<glyph unicode="&#x41b;" horiz-adv-x="577" d="M221 667h320l-82 -667h-43l77 627h-231q-48 -278 -77 -390q-30 -122 -69 -174q-50 -65 -123 -65q-14 0 -27 2l5 42q19 -4 27 -4q70 0 113 111q54 145 110 518z" />
<glyph unicode="&#x41c;" horiz-adv-x="897" d="M55 0l160 690l212 -617l367 617l-9 -690h-44l6 536l-332 -560l-192 560l-124 -536h-44z" />
<glyph unicode="&#x41d;" horiz-adv-x="671" d="M62 0l82 667h43l-35 -283h404l35 283h44l-82 -667h-44l43 344h-404l-43 -344h-43z" />
<glyph unicode="&#x41e;" horiz-adv-x="798" d="M457 676q127 0 215 -88t88 -214q0 -153 -119 -269t-276 -116q-69 0 -132 30.5t-106 84.5q-63 80 -63 191q0 151 119 266t274 115zM452 635q-137 0 -240 -101.5t-103 -235.5q0 -112 72 -187q79 -81 190 -81q137 0 240.5 102t103.5 238q0 108 -73 184q-35 37 -86.5 59 t-103.5 22z" />
<glyph unicode="&#x41f;" horiz-adv-x="658" d="M62 0l82 667h478l-82 -667h-43l77 627h-392l-77 -627h-43z" />
<glyph unicode="&#x420;" horiz-adv-x="445" d="M144 317l-39 -317h-43l82 667h128q98 0 140 -51q34 -42 34 -100q0 -75 -47 -131q-56 -68 -169 -68h-86zM149 357h87q73 0 119 43.5t46 111.5q0 115 -138 115h-81z" />
<glyph unicode="&#x421;" horiz-adv-x="677" d="M668 590l-7 -60q-35 43 -70 65q-66 40 -151 40q-139 0 -236 -104.5t-97 -255.5q0 -112 70 -179.5t186 -67.5q98 0 185 52q24 14 64 50l-8 -58q-63 -46 -119 -65t-126 -19q-137 0 -217 77t-80 209q0 168 112.5 285t273.5 117q128 0 220 -86z" />
<glyph unicode="&#x422;" horiz-adv-x="415" d="M156 0l77 627h-171l5 40h388l-5 -40h-173l-77 -627h-44z" />
<glyph unicode="&#x423;" d="M33 0l206 285l-171 382h50l149 -335l236 335h52l-476 -667h-46z" />
<glyph unicode="&#x424;" horiz-adv-x="848" d="M366 -53l13 100q-148 6 -231.5 72.5t-83.5 179.5q0 72 35 136.5t99 108.5q97 68 251 74l12 102h44l-13 -102q124 -4 197 -47q120 -71 120 -205q0 -72 -35 -136.5t-99 -108.5q-97 -68 -253 -74l-12 -100h-44zM487 578l-60 -491q73 4 121.5 17t93.5 41q59 37 92 94t33 122 q0 64 -35 114t-100 77q-52 22 -145 26zM384 87l60 491q-132 -6 -213 -58q-59 -37 -92 -94t-33 -122q0 -64 35 -114t100 -77q52 -22 143 -26z" />
<glyph unicode="&#x425;" horiz-adv-x="462" d="M219 341l-135 326h49l117 -281l184 281h49l-214 -326l142 -341h-49l-124 296l-194 -296h-49z" />
<glyph unicode="&#x426;" horiz-adv-x="655" d="M62 0l82 667h43l-77 -627h381l77 627h43l-77 -627h55l-21 -168h-43l16 128h-479z" />
<glyph unicode="&#x427;" horiz-adv-x="578" d="M416 0l32 258q-107 -21 -165 -21q-214 0 -214 162q0 34 4 65l25 203h43l-22 -184q-6 -40 -6 -75q0 -74 44 -101q46 -29 139 -29q63 0 158 25l44 364h44l-82 -667h-44z" />
<glyph unicode="&#x428;" horiz-adv-x="882" d="M62 0l82 667h43l-77 -627h286l77 627h44l-77 -627h286l77 627h43l-82 -667h-702z" />
<glyph unicode="&#x429;" horiz-adv-x="890" d="M62 0l82 667h43l-77 -627h286l77 627h44l-77 -627h286l77 627h43l-77 -627h55l-21 -168h-43l16 128h-714z" />
<glyph unicode="&#x42a;" horiz-adv-x="633" d="M181 0l77 627h-209l5 40h252l-34 -278h113q112 0 156 -41q46 -43 46 -121q0 -102 -61 -165q-31 -34 -74.5 -48t-114.5 -14h-156zM230 40h101q75 0 113 13.5t62 48.5q36 52 36 116q0 63 -32 97q-33 34 -141 34h-102z" />
<glyph unicode="&#x42b;" horiz-adv-x="699" d="M62 0l82 667h43l-34 -278h113q111 0 155 -41q46 -43 46 -121q0 -102 -60 -165q-31 -34 -75 -48t-114 -14h-156zM110 40h102q74 0 112 13.5t62 48.5q36 52 36 116q0 63 -32 97q-33 34 -140 34h-102zM537 0l82 667h43l-81 -667h-44z" />
<glyph unicode="&#x42c;" horiz-adv-x="514" d="M62 0l82 667h43l-34 -278h113q111 0 155 -41q46 -43 46 -121q0 -102 -60 -165q-31 -34 -75 -48t-114 -14h-156zM110 40h102q74 0 112 13.5t62 48.5q36 52 36 116q0 63 -32 97q-33 34 -140 34h-102z" />
<glyph unicode="&#x42d;" horiz-adv-x="663" d="M196 324l4 40h380q1 8 1 18q0 110 -72.5 181.5t-184.5 71.5q-128 0 -223 -86l8 60q100 67 216 67q133 0 217 -81t84 -209q0 -148 -85 -253q-118 -144 -299 -144q-69 0 -120.5 20t-100.5 66l7 60q82 -105 221 -105q83 0 155.5 40t119.5 111q39 59 53 143h-381z" />
<glyph unicode="&#x42e;" horiz-adv-x="1021" d="M62 0l82 667h43l-38 -313h163q29 140 136.5 231t242.5 91q122 0 207 -87.5t85 -213.5q0 -153 -116 -269.5t-269 -116.5q-122 0 -207 87.5t-85 213.5q0 13 1 24h-163l-39 -314h-43zM684 635q-132 0 -232.5 -102t-100.5 -237q0 -110 69 -184q76 -82 182 -82 q134 0 235 102.5t101 238.5q0 108 -69 183q-35 37 -85 59t-100 22z" />
<glyph unicode="&#x42f;" horiz-adv-x="507" d="M385 315h-24l-289 -315h-53l293 315q-65 0 -96 6t-54 23q-57 39 -57 120q0 89 59 148q56 55 172 55h135l-82 -667h-43zM389 355l34 272h-95q-93 0 -135 -43q-44 -44 -44 -113q0 -116 137 -116h103z" />
<glyph unicode="&#x430;" horiz-adv-x="515" d="M376 0l9 73q-67 -84 -171 -84q-78 0 -126 51t-48 134q0 104 65 173.5t162 69.5q99 0 150 -80l9 71h40l-50 -408h-40zM266 380q-76 0 -130 -59t-54 -142q0 -68 39 -110.5t101 -42.5q78 0 131 61.5t53 150.5q0 62 -37 99q-43 43 -103 43z" />
<glyph unicode="&#x431;" horiz-adv-x="515" d="M471 733l-5 -47q-13 -8 -115 -25q-46 -6 -74 -13.5t-53 -24t-39 -37t-27 -60t-20.5 -85.5t-16.5 -121q59 97 171 97q80 0 128.5 -50t48.5 -134q0 -102 -66.5 -173t-162.5 -71q-84 0 -131 54q-40 44 -40 127q0 58 10.5 149.5t24.5 155.5q17 77 42 119.5t68 64.5 q41 23 131 38q98 18 126 36zM288 380q-78 0 -129.5 -59t-51.5 -148q0 -65 38.5 -106t100.5 -41q74 0 127.5 59.5t53.5 142.5q0 68 -38.5 110t-100.5 42z" />
<glyph unicode="&#x432;" horiz-adv-x="417" d="M44 0l50 408h140q65 0 94.5 -21.5t29.5 -67.5q0 -65 -62 -100q65 -27 65 -92q0 -57 -41 -95q-38 -32 -110 -32h-166zM112 227h99q59 0 84 29q21 26 21 58q0 57 -75 57h-111zM89 37h119q61 0 86 22q25 23 25 61q0 70 -100 70h-112z" />
<glyph unicode="&#x433;" horiz-adv-x="312" d="M44 0l50 408h228l-4 -37h-188l-46 -371h-40z" />
<glyph unicode="&#x434;" horiz-adv-x="446" d="M346 0h-342l-13 -104h-40l17 141h20q28 0 53 24.5t42 67.5q26 67 57 279h252l-46 -371h44l-17 -141h-40zM306 37l41 334h-172q-6 -40 -22 -128q-15 -85 -35 -132t-53 -74h241z" />
<glyph unicode="&#x435;" horiz-adv-x="484" d="M436 199h-351q-1 -11 -1 -29q0 -62 39.5 -103t99.5 -41q59 0 108 39q20 16 48 55l32 -20q-77 -111 -195 -111q-80 0 -128 50.5t-48 133.5q0 100 67 172t161 72q77 0 123.5 -50.5t46.5 -132.5q0 -1 -2 -35zM93 237h302q-4 47 -21 77t-47 48t-63 18q-59 0 -107 -40 t-64 -103z" />
<glyph unicode="&#x436;" horiz-adv-x="529" d="M216 0l24 189h-27l-199 -189h-52l222 210l-150 198h48l136 -182h26l22 182h40l-22 -182h26l181 182h48l-199 -198l171 -210h-53l-152 189h-26l-24 -189h-40z" />
<glyph unicode="&#x437;" horiz-adv-x="398" d="M92 193l4 35h83q59 0 83 14q40 23 40 64q0 69 -122 69q-70 0 -127 -27l6 44q68 20 132 20q153 0 153 -103q0 -72 -70 -98q58 -21 58 -86q0 -58 -42 -95q-46 -42 -148 -42q-74 0 -138 23l6 48q63 -34 141 -34q65 0 102 25.5t37 69.5q0 73 -118 73h-80z" />
<glyph unicode="&#x438;" horiz-adv-x="427" d="M93 408h40l-38 -311l283 318l-51 -415h-40l37 302l-283 -318z" />
<glyph unicode="&#x439;" horiz-adv-x="427" d="M93 408h40l-38 -311l283 318l-51 -415h-40l37 302l-283 -318zM140 593h38q7 -84 69 -84t91 84h38q-13 -56 -49 -89.5t-84 -33.5q-49 0 -76 32.5t-27 90.5z" />
<glyph unicode="&#x43a;" horiz-adv-x="392" d="M44 0l50 408h40l-24 -200l218 200h48l-218 -198l190 -210h-52l-186 208l-26 -208h-40z" />
<glyph unicode="&#x43b;" horiz-adv-x="415" d="M275 0l45 371h-172q-26 -166 -40 -219q-19 -79 -49.5 -116.5t-75.5 -37.5q-12 0 -25 2l5 43q14 -5 24 -5q30 0 51.5 35t38.5 113q18 87 36 222h252l-50 -408h-40z" />
<glyph unicode="&#x43c;" horiz-adv-x="578" d="M22 0l127 420l122 -340l205 340l24 -420h-42l-14 300l-184 -304l-109 304l-87 -300h-42z" />
<glyph unicode="&#x43d;" horiz-adv-x="433" d="M43 0l50 408h40l-21 -168h210l21 168h40l-50 -408h-40l25 203h-210l-25 -203h-40z" />
<glyph unicode="&#x43e;" horiz-adv-x="517" d="M283 417q82 0 135 -53t53 -134q0 -98 -72 -169.5t-171 -71.5q-81 0 -134 53.5t-53 135.5q0 96 72.5 167.5t169.5 71.5zM275 380q-77 0 -134.5 -59.5t-57.5 -138.5q0 -68 41.5 -112t106.5 -44q82 0 140 59t58 142q0 66 -43.5 109.5t-110.5 43.5z" />
<glyph unicode="&#x43f;" horiz-adv-x="425" d="M43 0l50 408h282l-50 -408h-40l46 371h-202l-46 -371h-40z" />
<glyph unicode="&#x440;" horiz-adv-x="515" d="M14 -239l79 647h40l-9 -73q67 82 169 82q79 0 127.5 -51t48.5 -133q0 -103 -65.5 -173.5t-161.5 -70.5q-99 0 -150 82l-38 -310h-40zM288 380q-76 0 -130 -59.5t-54 -142.5q0 -68 38.5 -110t102.5 -42q75 0 129 59.5t54 142.5q0 68 -39 110t-101 42z" />
<glyph unicode="&#x441;" horiz-adv-x="441" d="M414 365l-7 -53q-31 37 -62.5 52.5t-73.5 15.5q-81 0 -135.5 -59.5t-54.5 -147.5q0 -66 41 -106.5t107 -40.5q84 0 158 74l-7 -54q-41 -32 -75.5 -44.5t-78.5 -12.5q-86 0 -136.5 49t-50.5 131q0 106 67.5 177t168.5 71q79 0 139 -52z" />
<glyph unicode="&#x442;" horiz-adv-x="292" d="M98 0l45 370h-120l5 38h280l-5 -38h-120l-45 -370h-40z" />
<glyph unicode="&#x443;" horiz-adv-x="428" d="M172 -7l-142 415h47l123 -362l196 362h46l-353 -647h-45z" />
<glyph unicode="&#x444;" horiz-adv-x="687" d="M266 -239l34 281q-53 -53 -124 -53q-64 0 -100.5 46.5t-36.5 126.5q0 108 54.5 181.5t134.5 73.5q71 0 112 -53l26 210h40l-26 -210q53 53 124 53q64 0 100.5 -46.5t36.5 -126.5q0 -108 -54.5 -181.5t-134.5 -73.5q-71 0 -112 53l-34 -281h-40zM307 97l26 212 q-41 71 -106 71q-62 0 -104.5 -62t-42.5 -153q0 -64 28 -101.5t76 -37.5q65 0 123 71zM373 309l-26 -212q39 -71 106 -71q62 0 104.5 61.5t42.5 152.5q0 65 -28 102.5t-76 37.5q-66 0 -123 -71z" />
<glyph unicode="&#x445;" horiz-adv-x="401" d="M173 214l-128 194h52l106 -163l144 163h52l-172 -194l138 -214h-52l-118 183l-162 -183h-53z" />
<glyph unicode="&#x446;" horiz-adv-x="432" d="M44 0l50 408h40l-45 -371h202l45 371h40l-45 -371h43l-17 -141h-40l13 104h-286z" />
<glyph unicode="&#x447;" horiz-adv-x="391" d="M252 0l17 141q-48 -15 -96 -15q-122 0 -122 119q0 13 2 41l15 122h40l-13 -111q-4 -36 -4 -46q0 -88 92 -88q47 0 91 19l28 226h40l-50 -408h-40z" />
<glyph unicode="&#x448;" horiz-adv-x="606" d="M44 0l50 408h40l-45 -371h171l45 371h40l-45 -371h171l45 371h40l-50 -408h-462z" />
<glyph unicode="&#x449;" horiz-adv-x="612" d="M44 0l50 408h40l-45 -371h171l45 371h40l-45 -371h171l45 371h40l-45 -371h43l-17 -141h-40l13 104h-466z" />
<glyph unicode="&#x44a;" horiz-adv-x="434" d="M85 0l45 371h-112l4 37h153l-20 -160h102q136 0 136 -106q0 -68 -46 -107q-39 -35 -121 -35h-141zM129 37h95q70 0 98 25q29 26 29 78q0 39 -23.5 55t-81.5 16h-96z" />
<glyph unicode="&#x44b;" horiz-adv-x="544" d="M43 0l50 408h40l-20 -160h102q137 0 137 -106q0 -68 -46 -107q-41 -35 -121 -35h-142zM88 37h95q69 0 98 25q29 26 29 78q0 39 -24 55t-82 16h-95zM404 0l50 408h40l-50 -408h-40z" />
<glyph unicode="&#x44c;" horiz-adv-x="394" d="M44 0l50 408h40l-20 -160h102q137 0 137 -106q0 -68 -46 -107q-41 -35 -121 -35h-142zM89 37h95q69 0 98 25q29 26 29 78q0 39 -24 55t-82 16h-95z" />
<glyph unicode="&#x44d;" horiz-adv-x="425" d="M115 189l4 37h218v8q-2 35 -6.5 51.5t-17.5 35.5q-41 59 -124 59q-44 0 -75.5 -13t-74.5 -49l6 53q76 46 149 46q83 0 134 -50t51 -131q0 -105 -68 -176t-169 -71q-75 0 -138 46l7 54q35 -37 63 -50t72 -13q73 0 122.5 43t65.5 120h-219z" />
<glyph unicode="&#x44e;" horiz-adv-x="676" d="M63 0l50 408h40l-23 -185h101q16 85 78.5 139.5t144.5 54.5q78 0 127 -50t49 -130q0 -104 -66 -176t-162 -72q-77 0 -126.5 50t-49.5 129q0 10 1 18h-101l-23 -186h-40zM450 380q-79 0 -130.5 -59t-51.5 -148q0 -67 37.5 -107t100.5 -40q78 0 130 59t52 148 q0 67 -37.5 107t-100.5 40z" />
<glyph unicode="&#x44f;" horiz-adv-x="384" d="M245 0l20 166h-5l-189 -166h-58l193 166q-85 1 -115 20q-44 27 -44 85q0 60 40 98q22 23 48.5 31t80.5 8h119l-50 -408h-40zM270 203l20 168h-80q-70 0 -98 -29q-23 -25 -23 -64q0 -40 23.5 -57.5t76.5 -17.5h81z" />
<glyph unicode="&#x450;" horiz-adv-x="469" d="M83 207v-28q0 -68 42 -111.5t109 -43.5q39 0 67.5 15t58.5 51l27 -19q-36 -46 -71 -65t-85 -19q-84 0 -135.5 53t-51.5 139q0 104 56 171t142 67q55 0 97 -28.5t62 -78.5q13 -35 16 -103h-334zM89 243h289q-5 47 -22 75q-40 62 -114 62q-70 0 -116 -55q-24 -31 -37 -82z M193 577l39 28l71 -129l-24 -16z" />
<glyph unicode="&#x451;" horiz-adv-x="484" d="M436 199h-351q-1 -11 -1 -29q0 -62 39.5 -103t99.5 -41q59 0 108 39q20 16 48 55l32 -20q-77 -111 -195 -111q-80 0 -128 50.5t-48 133.5q0 100 67 172t161 72q77 0 123.5 -50.5t46.5 -132.5q0 -1 -2 -35zM93 237h302q-4 47 -21 77t-47 48t-63 18q-59 0 -107 -40 t-64 -103zM201 565q14 0 23 -9t9 -23q0 -16 -12.5 -28t-28.5 -12q-14 0 -23 9.5t-9 22.5q0 16 12.5 28t28.5 12zM367 565q14 0 23 -9t9 -23q0 -16 -12.5 -28t-28.5 -12q-14 0 -23 9.5t-9 22.5q0 16 12.5 28t28.5 12z" />
<glyph unicode="&#x452;" horiz-adv-x="431" d="M33 0l66 534h-53l4 37h53l20 158h40l-20 -158h130l-5 -37h-129l-24 -190q56 73 136 73q55 0 85 -29t30 -81q0 -25 -3 -50l-33 -267q-13 -99 -61 -226h-34q46 152 55 229l33 264q0 6 1 16t1.5 17t0.5 11q0 79 -85 79q-68 0 -107 -56q-26 -38 -35 -112l-26 -212h-40z" />
<glyph unicode="&#x453;" horiz-adv-x="312" d="M44 0l50 408h228l-4 -37h-188l-46 -371h-40zM320 581l-118 -114l-27 16l106 125z" />
<glyph unicode="&#x454;" horiz-adv-x="425" d="M301 189h-219q0 -56 14 -85q37 -78 134 -78q44 0 75 13t75 50l-6 -54q-75 -46 -149 -46q-83 0 -134 50t-51 132q0 104 68.5 175t168.5 71q74 0 138 -46l-6 -53q-35 36 -63.5 49t-72.5 13q-70 0 -119.5 -41t-66.5 -113h218z" />
<glyph unicode="&#x455;" horiz-adv-x="342" d="M22 97l40 12q19 -83 91 -83q41 0 72 30t31 71q0 27 -14.5 42.5t-54.5 30.5q-59 23 -82.5 45t-23.5 55q0 47 36.5 82t86.5 35q70 0 98 -66l-36 -18q-20 47 -65 47q-31 0 -54.5 -22.5t-23.5 -51.5q0 -20 15.5 -34t55.5 -30q54 -21 73 -37q31 -25 31 -70q0 -61 -43.5 -103.5 t-105.5 -42.5q-52 0 -85 28t-42 80z" />
<glyph unicode="&#x456;" horiz-adv-x="183" d="M133 408l-50 -408h-40l50 408h40zM134 581q14 0 23 -9t9 -23q0 -17 -12 -29.5t-28 -12.5q-14 0 -23 9.5t-9 23.5q0 16 12 28.5t28 12.5z" />
<glyph unicode="&#x457;" horiz-adv-x="183" d="M133 408l-50 -408h-40l50 408h40zM50 565q14 0 23 -9t9 -23q0 -16 -12.5 -28t-28.5 -12q-13 0 -22.5 9.5t-9.5 22.5q0 16 12.5 28t28.5 12zM216 565q14 0 23 -9t9 -23q0 -16 -12.5 -28t-28.5 -12q-13 0 -22.5 9.5t-9.5 22.5q0 16 12.5 28t28.5 12z" />
<glyph unicode="&#x458;" horiz-adv-x="183" d="M133 408l-79 -647h-40l79 647h40zM134 581q14 0 23 -9t9 -23q0 -17 -12 -29.5t-28 -12.5q-14 0 -23 9.5t-9 23.5q0 16 12 28.5t28 12.5z" />
<glyph unicode="&#x459;" horiz-adv-x="597" d="M247 0l45 371h-144q-28 -174 -40 -219q-38 -154 -125 -154q-12 0 -25 2l5 43q15 -4 24 -4q30 0 51.5 35t38.5 113q18 89 36 221h224l-20 -160h102q136 0 136 -106q0 -68 -46 -107q-39 -35 -120 -35h-142zM291 37h95q70 0 98 25q29 26 29 78q0 39 -23.5 55t-81.5 16h-95z " />
<glyph unicode="&#x45a;" horiz-adv-x="644" d="M293 0l26 211h-210l-26 -211h-40l50 408h40l-20 -160h210l20 160h40l-20 -160h102q137 0 137 -106q0 -68 -46 -107q-41 -35 -121 -35h-142zM338 37h95q69 0 98 25q29 26 29 78q0 39 -24 55t-82 16h-95z" />
<glyph unicode="&#x45b;" horiz-adv-x="431" d="M33 0l66 534h-53l4 37h53l20 158h40l-20 -158h153l-4 -37h-153l-24 -190q56 73 136 73q55 0 85 -29t30 -81q0 -25 -3 -50l-32 -257h-40l32 257q0 6 1 16t1.5 17t0.5 11q0 79 -85 79q-68 0 -107 -56q-26 -38 -35 -112l-26 -212h-40z" />
<glyph unicode="&#x45c;" horiz-adv-x="392" d="M44 0l50 408h40l-24 -200l218 200h48l-218 -198l190 -210h-52l-186 208l-26 -208h-40zM353 581l-118 -114l-28 16l107 125z" />
<glyph unicode="&#x45d;" horiz-adv-x="427" d="M93 408h40l-38 -311l283 318l-51 -415h-40l37 302l-283 -318zM173 577l39 28l71 -129l-24 -16z" />
<glyph unicode="&#x45e;" horiz-adv-x="428" d="M172 -7l-142 415h47l123 -362l196 362h46l-353 -647h-45zM140 593h39q7 -84 69 -84t91 84h38q-13 -56 -49 -89.5t-84 -33.5q-49 0 -76.5 32.5t-27.5 90.5z" />
<glyph unicode="&#x45f;" horiz-adv-x="425" d="M43 0l50 408h40l-45 -371h202l46 371h40l-50 -408h-122l-12 -104h-40l12 104h-121z" />
<glyph unicode="&#x490;" horiz-adv-x="456" d="M62 0l82 667h298l8 62h43l-12 -102h-299l-77 -627h-43z" />
<glyph unicode="&#x491;" horiz-adv-x="312" d="M44 0l50 408h188l8 64h40l-12 -101h-188l-46 -371h-40z" />
<glyph unicode="&#x492;" horiz-adv-x="456" d="M62 0l42 345h-61l5 40h61l34 282h342l-5 -40h-298l-30 -242h237l-5 -40h-237l-42 -345h-43z" />
<glyph unicode="&#x493;" horiz-adv-x="288" d="M44 0l25 204h-47l4 37h48l20 167h205l-5 -37h-164l-16 -130h122l-4 -37h-123l-25 -204h-40z" />
<glyph unicode="&#x496;" horiz-adv-x="831" d="M759 40h35l-21 -168h-43l16 128h-20l-244 326h-33l-40 -326h-43l40 326h-34l-323 -326h-64l345 341l-243 326h59l221 -301h44l36 301h44l-37 -301h43l295 301h59l-322 -326z" />
<glyph unicode="&#x497;" horiz-adv-x="529" d="M481 37h30l-17 -141h-40l13 104h-9l-152 189h-26l-24 -189h-40l24 189h-27l-199 -189h-52l222 210l-150 198h48l136 -182h26l22 182h40l-22 -182h26l181 182h48l-199 -198z" />
<glyph unicode="&#x49a;" horiz-adv-x="539" d="M463 40h43l-21 -168h-43l15 128h-23l-288 334l-41 -334h-43l82 667h43l-39 -319l352 319h60l-363 -325z" />
<glyph unicode="&#x49b;" horiz-adv-x="392" d="M315 37h41l-18 -141h-40l13 104h-15l-186 208l-26 -208h-40l50 408h40l-24 -200l218 200h48l-218 -197z" />
<glyph unicode="&#x49c;" horiz-adv-x="539" d="M62 0l82 667h43l-37 -306h64l22 177h39l-21 -174l277 303h60l-301 -326l239 -341h-64l-217 318l-23 -191h-39l23 194h-64l-40 -321h-43z" />
<glyph unicode="&#x49d;" horiz-adv-x="421" d="M44 0l50 408h40l-21 -170h50l13 104h37l-12 -101l164 167h48l-186 -187l158 -221h-52l-138 199l-12 -102h-37l12 104h-49l-25 -201h-40z" />
<glyph unicode="&#x4a2;" horiz-adv-x="671" d="M558 40h41l-21 -168h-43l15 128h-41l43 344h-404l-43 -344h-43l82 667h43l-35 -283h404l35 283h44z" />
<glyph unicode="&#x4a3;" horiz-adv-x="433" d="M338 37h36l-18 -141h-40l13 104h-36l25 203h-210l-25 -203h-40l50 408h40l-21 -168h210l21 168h40z" />
<glyph unicode="&#x4ae;" horiz-adv-x="514" d="M203 0l35 285l-171 382h51l149 -335l236 335h51l-272 -382l-35 -285h-44z" />
<glyph unicode="&#x4af;" horiz-adv-x="428" d="M172 -7l-142 415h47l123 -362l196 362h46l-223 -408l-28 -229h-46z" />
<glyph unicode="&#x4b0;" horiz-adv-x="514" d="M203 0l29 233h-136l5 44h136l1 8l-171 382h51l149 -335l236 335h51l-272 -382l-1 -8h136l-5 -44h-137l-28 -233h-44z" />
<glyph unicode="&#x4b1;" horiz-adv-x="494" d="M188 -44h-136l5 44h137l2 23l-151 381h51l129 -334l216 334h51l-252 -381l-3 -23h136l-5 -44h-136l-24 -188h-43z" />
<glyph unicode="&#x4b2;" horiz-adv-x="462" d="M394 40h42l-21 -168h-43l16 128h-26l-124 296l-194 -296h-49l224 340l-135 327h49l117 -281l184 281h49l-214 -327z" />
<glyph unicode="&#x4b3;" horiz-adv-x="401" d="M341 37h32l-18 -141h-40l13 104h-15l-118 183l-162 -183h-53l193 214l-128 194h52l106 -163l144 163h52l-172 -194z" />
<glyph unicode="&#x4b6;" horiz-adv-x="578" d="M452 0h-36l32 258q-107 -21 -165 -21q-214 0 -214 162q0 34 4 65l25 203h43l-22 -184q-6 -40 -6 -75q0 -74 44 -101q48 -29 139 -29q63 0 158 25l44 364h44l-77 -627h35l-21 -168h-43z" />
<glyph unicode="&#x4b7;" horiz-adv-x="391" d="M280 0h-28l17 142q-47 -16 -96 -16q-122 0 -122 119q0 13 2 41l15 122h40l-13 -111q-4 -36 -4 -46q0 -88 92 -88q48 0 91 19l28 226h40l-46 -371h29l-18 -141h-40z" />
<glyph unicode="&#x4b8;" horiz-adv-x="578" d="M288 238l-17 -136h-39l17 137q-94 7 -137 45.5t-43 114.5q0 35 4 64l25 204h43l-22 -184q-6 -40 -6 -75q0 -62 32.5 -91.5t108.5 -36.5l25 202h39l-25 -204q66 0 161 25l44 364h44l-82 -667h-44l32 258q-108 -20 -160 -20z" />
<glyph unicode="&#x4b9;" horiz-adv-x="391" d="M196 127l-11 -84h-37l10 84q-56 6 -81.5 34t-25.5 84q0 13 2 41l15 122h40l-13 -110q-4 -38 -4 -47q0 -76 72 -86l16 130h37l-16 -131q39 3 74 18l28 226h40l-50 -408h-40l17 142q-37 -13 -73 -15z" />
<glyph unicode="&#x4bb;" horiz-adv-x="430" d="M128 729h40l-48 -385q56 73 134 73q54 0 85.5 -30t31.5 -81q0 -24 -3 -49l-32 -257h-40l32 257q0 6 1 16t1.5 17t0.5 10q0 38 -22.5 59t-63.5 21q-66 0 -106 -56q-26 -38 -35 -112l-26 -212h-40z" />
<glyph unicode="&#x4c0;" horiz-adv-x="223" d="M62 0l82 667h43l-82 -667h-43z" />
<glyph unicode="&#x4cf;" horiz-adv-x="223" d="M62 0l82 667h43l-82 -667h-43z" />
<glyph unicode="&#x4d8;" horiz-adv-x="798" d="M715 353v18q0 114 -76 189t-192 75q-82 0 -156.5 -41t-124.5 -115l-37 17q47 80 137.5 130t187.5 50q131 0 218.5 -86t87.5 -215q0 -154 -119 -270t-276 -116q-69 0 -132 30.5t-106 84.5q-63 81 -63 192q0 15 4 57h647zM710 313h-601q-1 -7 -1 -16q0 -113 76 -190 t187 -77q121 0 217.5 81t121.5 202z" />
<glyph unicode="&#x4d9;" horiz-adv-x="484" d="M42 207h351q1 10 1 28q0 63 -39 104t-100 41q-59 0 -108 -39q-20 -16 -48 -55l-31 20q76 111 194 111q79 0 127.5 -50.5t48.5 -133.5q0 -100 -67 -172t-161 -72q-76 0 -123 50t-47 132q0 4 2 36zM386 169h-302q3 -46 20 -77q17 -30 47 -48t63 -18q59 0 107 40t65 103z " />
<glyph unicode="&#x4e2;" horiz-adv-x="671" d="M144 667h43l-69 -567l517 574l-82 -674h-44l69 557l-518 -574zM271 794h273l-5 -39h-273z" />
<glyph unicode="&#x4e3;" horiz-adv-x="427" d="M93 408h40l-38 -311l283 318l-51 -415h-40l37 302l-283 -318zM120 535h246l-5 -38h-246z" />
<glyph unicode="&#x4e8;" horiz-adv-x="798" d="M457 676q127 0 215 -88t88 -214q0 -153 -119 -269t-276 -116q-69 0 -132 30.5t-106 84.5q-63 80 -63 191q0 151 119 266t274 115zM114 353h601v17q0 111 -76.5 188t-186.5 77q-120 0 -216.5 -80.5t-121.5 -201.5zM710 313h-601q-1 -7 -1 -17q0 -112 76 -189t187 -77 q121 0 217.5 81t121.5 202z" />
<glyph unicode="&#x4e9;" horiz-adv-x="517" d="M283 417q82 0 135 -53t53 -133q0 -99 -72 -170.5t-171 -71.5q-81 0 -134 53.5t-53 135.5q0 96 72.5 167.5t169.5 71.5zM88 228h342q-1 67 -44.5 109.5t-110.5 42.5q-64 0 -115.5 -42t-71.5 -110zM82 187v-8q0 -65 42.5 -109t105.5 -44q51 0 98 26.5t73 71.5q16 25 24 63 h-343z" />
<glyph unicode="&#x4ee;" d="M33 0l206 285l-171 382h50l149 -335l236 335h52l-476 -667h-46zM183 794h273l-5 -39h-273z" />
<glyph unicode="&#x4ef;" horiz-adv-x="428" d="M172 -7l-142 415h47l123 -362l196 362h46l-353 -647h-45zM122 535h246l-5 -38h-246z" />
<glyph unicode="&#x1e1e;" horiz-adv-x="418" d="M427 667l-5 -39h-231l-30 -243h231l-4 -39h-232l-42 -346h-43l82 667h274zM303 810q13 0 21.5 -9.5t8.5 -23.5q0 -16 -11.5 -28t-26.5 -12q-14 0 -22.5 9t-8.5 23q0 17 11.5 29t27.5 12z" />
<glyph unicode="&#x1e80;" horiz-adv-x="896" d="M79 667h44l106 -555l277 588l119 -588l257 555h49l-322 -685l-119 583l-278 -589zM446 826l43 29l74 -124l-25 -18z" />
<glyph unicode="&#x1e81;" horiz-adv-x="649" d="M28 400h43l87 -333l183 338l95 -338l175 333h46l-234 -436l-94 339l-184 -339zM269 577l39 28l71 -129l-24 -16z" />
<glyph unicode="&#x1e82;" horiz-adv-x="896" d="M79 667h44l106 -555l277 588l119 -588l257 555h49l-322 -685l-119 583l-278 -589zM624 820l-134 -107l-25 20l120 122z" />
<glyph unicode="&#x1e83;" horiz-adv-x="649" d="M28 400h43l87 -333l183 338l95 -338l175 333h46l-234 -436l-94 339l-184 -339zM458 573l-128 -113l-21 20l115 125z" />
<glyph unicode="&#x1e84;" horiz-adv-x="896" d="M79 667h44l106 -555l277 588l119 -588l257 555h49l-322 -685l-119 583l-278 -589zM597 808q13 0 21.5 -9t8.5 -22q0 -16 -11 -28t-25 -12q-13 0 -21.5 9t-8.5 23q0 16 10.5 27.5t25.5 11.5zM438 807q12 0 20 -9t8 -23q0 -15 -10.5 -26.5t-24.5 -11.5q-13 0 -21.5 8.5 t-8.5 21.5q0 16 11 28t26 12z" />
<glyph unicode="&#x1e85;" horiz-adv-x="649" d="M28 400h43l87 -333l183 338l95 -338l175 333h46l-234 -436l-94 339l-184 -339zM422 549q12 0 20 -8.5t8 -21.5q0 -16 -10 -27.5t-24 -11.5q-12 0 -20 9t-8 22q0 15 10.5 26.5t23.5 11.5zM270 548q11 0 19 -9t8 -22q0 -15 -10.5 -26t-24.5 -11q-12 0 -20 8.5t-8 21.5 q0 15 11 26.5t25 11.5z" />
<glyph unicode="&#x1ea0;" horiz-adv-x="589" d="M-3 0l366 697l179 -697h-44l-57 226h-279l-119 -226h-46zM431 265l-83 319l-165 -319h248zM301 -51q27 0 27 -28q0 -13 -11.5 -24t-25.5 -11q-11 0 -18.5 7.5t-7.5 19.5q0 14 11 25t25 11z" />
<glyph unicode="&#x1ea1;" horiz-adv-x="518" d="M466 400l-49 -400h-39l8 71q-40 -46 -74 -63.5t-81 -17.5q-82 0 -134 54.5t-52 139.5q0 97 60 161.5t150 64.5q53 0 89.5 -20.5t72.5 -70.5l10 81h39zM259 373q-74 0 -123.5 -53.5t-49.5 -132.5q0 -69 42 -114.5t106 -45.5q70 0 122.5 58t52.5 136q0 67 -42 109.5 t-108 42.5zM265 -51q27 0 27 -28q0 -14 -11 -24.5t-25 -10.5q-11 0 -18.5 7.5t-7.5 19.5q0 14 10.5 25t24.5 11z" />
<glyph unicode="&#x1ea2;" horiz-adv-x="589" d="M-3 0l366 697l179 -697h-44l-57 226h-279l-119 -226h-46zM431 265l-83 319l-165 -319h248zM389 756h-33l12 55q26 4 29 4q38 5 53.5 17t15.5 36q0 34 -49 34q-20 0 -44 -12q-2 -1 -12 -5l-5 25q50 18 88 18q35 0 56 -16t21 -44q0 -33 -25 -53.5t-66 -20.5q-16 0 -32 1z " />
<glyph unicode="&#x1ea3;" horiz-adv-x="518" d="M466 400l-49 -400h-39l8 71q-40 -46 -74 -63.5t-81 -17.5q-82 0 -134 54.5t-52 139.5q0 97 60 161.5t150 64.5q53 0 89.5 -20.5t72.5 -70.5l10 81h39zM259 373q-74 0 -123.5 -53.5t-49.5 -132.5q0 -69 42 -114.5t106 -45.5q70 0 122.5 58t52.5 136q0 67 -42 109.5 t-108 42.5zM297 474h-34l12 55q26 4 30 4q38 5 53 17t15 36q0 34 -49 34q-19 0 -44 -12q-2 -2 -12 -5l-5 25q50 18 88 18q35 0 56 -16t21 -44q0 -33 -25 -53.5t-65 -20.5q-17 0 -33 1z" />
<glyph unicode="&#x1ea4;" horiz-adv-x="589" d="M442 789l105 107l39 -35l-121 -97l22 -24l-29 -27l-82 88l-111 -88l-24 30l140 112zM-3 0l366 697l179 -697h-44l-57 226h-279l-119 -226h-46zM431 265l-83 319l-165 -319h248z" />
<glyph unicode="&#x1ea5;" horiz-adv-x="518" d="M369 529l104 113l34 -32l-119 -106l16 -21l-27 -23l-75 97l-105 -97l-22 25l132 123zM466 400l-49 -400h-39l8 71q-40 -46 -74 -63.5t-81 -17.5q-82 0 -134 54.5t-52 139.5q0 97 60 161.5t150 64.5q53 0 89.5 -20.5t72.5 -70.5l10 81h39zM259 373q-74 0 -123.5 -53.5 t-49.5 -132.5q0 -69 42 -114.5t106 -45.5q70 0 122.5 58t52.5 136q0 67 -42 109.5t-108 42.5z" />
<glyph unicode="&#x1ea6;" horiz-adv-x="589" d="M265 762l-83 101l43 29l66 -110l90 73l106 -115l-29 -27l-82 88l-111 -88l-24 30zM-3 0l366 697l179 -697h-44l-57 226h-279l-119 -226h-46zM431 265l-83 319l-165 -319h248z" />
<glyph unicode="&#x1ea7;" horiz-adv-x="518" d="M198 507l-78 106l39 27l62 -112l86 80l97 -125l-27 -23l-75 97l-105 -97l-22 25zM466 400l-49 -400h-39l8 71q-40 -46 -74 -63.5t-81 -17.5q-82 0 -134 54.5t-52 139.5q0 97 60 161.5t150 64.5q53 0 89.5 -20.5t72.5 -70.5l10 81h39zM259 373q-74 0 -123.5 -53.5 t-49.5 -132.5q0 -69 42 -114.5t106 -45.5q70 0 122.5 58t52.5 136q0 67 -42 109.5t-108 42.5z" />
<glyph unicode="&#x1ea8;" horiz-adv-x="589" d="M455 774l9 41q26 4 30 4q37 5 52.5 17t15.5 35q0 35 -49 35q-19 0 -44 -12l-12 -5l-5 25q50 18 88 18q35 0 56 -16t21 -44q0 -33 -25 -53.5t-65 -20.5q-16 0 -33 1l-8 -39h-17l18 -20l-29 -26l-82 87l-111 -87l-24 29l140 112zM-3 0l366 697l179 -697h-44l-57 226h-279 l-119 -226h-46zM431 265l-83 319l-165 -319h248z" />
<glyph unicode="&#x1ea9;" horiz-adv-x="518" d="M375 521l8 38q23 4 29 5q38 4 53.5 16t15.5 35q0 34 -49 34q-19 0 -44 -11q-2 -1 -12 -5l-5 26q50 17 88 17q35 0 56 -16t21 -44q0 -33 -25 -53.5t-65 -20.5q-18 0 -33 1l-9 -39h-16l16 -21l-27 -23l-75 97l-105 -97l-22 24l132 124zM466 400l-49 -400h-39l8 71 q-40 -46 -74 -63.5t-81 -17.5q-82 0 -134 54.5t-52 139.5q0 97 60 161.5t150 64.5q53 0 89.5 -20.5t72.5 -70.5l10 81h39zM259 373q-74 0 -123.5 -53.5t-49.5 -132.5q0 -69 42 -114.5t106 -45.5q70 0 122.5 58t52.5 136q0 67 -42 109.5t-108 42.5z" />
<glyph unicode="&#x1eaa;" horiz-adv-x="589" d="M-3 0l366 697l179 -697h-44l-57 226h-279l-119 -226h-46zM431 265l-83 319l-165 -319h248zM376 801l-111 -88l-24 30l140 112l106 -115l-29 -27zM512 938l39 -11q-33 -68 -93 -68q-32 0 -92 29q-29 15 -44 15q-26 0 -45 -37l-39 10q29 66 85 66q18 0 31 -4.5t55 -24.5 q33 -15 51 -15q34 0 52 40z" />
<glyph unicode="&#x1eab;" horiz-adv-x="518" d="M466 400l-49 -400h-39l8 71q-40 -46 -74 -63.5t-81 -17.5q-82 0 -134 54.5t-52 139.5q0 97 60 161.5t150 64.5q53 0 89.5 -20.5t72.5 -70.5l10 81h39zM259 373q-74 0 -123.5 -53.5t-49.5 -132.5q0 -69 42 -114.5t106 -45.5q70 0 122.5 58t52.5 136q0 67 -42 109.5 t-108 42.5zM302 557l-105 -97l-22 25l132 123l97 -125l-27 -23zM427 687l33 -10q-30 -65 -88 -65q-25 0 -75 29q-25 15 -39 15q-26 0 -42 -38l-33 9q30 65 78 65q16 0 29 -5t46 -25q24 -14 39 -14q16 0 27 8.5t25 30.5z" />
<glyph unicode="&#x1eac;" horiz-adv-x="589" d="M-3 0l366 697l179 -697h-44l-57 226h-279l-119 -226h-46zM431 265l-83 319l-165 -319h248zM376 801l-111 -88l-24 30l140 112l106 -115l-29 -27zM268 -51q27 0 27 -28q0 -14 -11 -24.5t-25 -10.5q-11 0 -18.5 7.5t-7.5 19.5q0 14 10.5 25t24.5 11z" />
<glyph unicode="&#x1ead;" horiz-adv-x="518" d="M466 400l-49 -400h-39l8 71q-40 -46 -74 -63.5t-81 -17.5q-82 0 -134 54.5t-52 139.5q0 97 60 161.5t150 64.5q53 0 89.5 -20.5t72.5 -70.5l10 81h39zM259 373q-74 0 -123.5 -53.5t-49.5 -132.5q0 -69 42 -114.5t106 -45.5q70 0 122.5 58t52.5 136q0 67 -42 109.5 t-108 42.5zM302 557l-105 -97l-22 25l132 123l97 -125l-27 -23zM232 -51q27 0 27 -28q0 -14 -11 -24.5t-25 -10.5q-11 0 -18.5 7.5t-7.5 19.5q0 14 10.5 25t24.5 11z" />
<glyph unicode="&#x1eae;" horiz-adv-x="589" d="M-3 0l366 697l179 -697h-44l-57 226h-279l-119 -226h-46zM431 265l-83 319l-165 -319h248zM252 841h42q3 -43 19.5 -62.5t51.5 -19.5q67 0 94 82h41q-11 -56 -49 -89.5t-90 -33.5t-79.5 31.5t-29.5 91.5zM509 900l-133 -107l-26 20l121 122z" />
<glyph unicode="&#x1eaf;" horiz-adv-x="518" d="M466 400l-49 -400h-39l8 71q-40 -46 -74 -63.5t-81 -17.5q-82 0 -134 54.5t-52 139.5q0 97 60 161.5t150 64.5q53 0 89.5 -20.5t72.5 -70.5l10 81h39zM259 373q-74 0 -123.5 -53.5t-49.5 -132.5q0 -69 42 -114.5t106 -45.5q70 0 122.5 58t52.5 136q0 67 -42 109.5 t-108 42.5zM190 589h37q2 -46 18 -66.5t49 -20.5q65 0 90 87h38q-11 -57 -46.5 -90t-85.5 -33q-98 0 -100 123zM429 661l-128 -113l-21 20l114 125z" />
<glyph unicode="&#x1eb0;" horiz-adv-x="589" d="M-3 0l366 697l179 -697h-44l-57 226h-279l-119 -226h-46zM431 265l-83 319l-165 -319h248zM252 841h42q3 -43 19.5 -62.5t51.5 -19.5q67 0 94 82h41q-11 -56 -49 -89.5t-90 -33.5t-79.5 31.5t-29.5 91.5zM278 912l43 29l74 -123l-25 -18z" />
<glyph unicode="&#x1eb1;" horiz-adv-x="518" d="M466 400l-49 -400h-39l8 71q-40 -46 -74 -63.5t-81 -17.5q-82 0 -134 54.5t-52 139.5q0 97 60 161.5t150 64.5q53 0 89.5 -20.5t72.5 -70.5l10 81h39zM259 373q-74 0 -123.5 -53.5t-49.5 -132.5q0 -69 42 -114.5t106 -45.5q70 0 122.5 58t52.5 136q0 67 -42 109.5 t-108 42.5zM190 589h37q2 -46 18 -66.5t49 -20.5q65 0 90 87h38q-11 -57 -46.5 -90t-85.5 -33q-98 0 -100 123zM209 672l39 27l72 -128l-25 -16z" />
<glyph unicode="&#x1eb2;" horiz-adv-x="589" d="M-3 0l366 697l179 -697h-44l-57 226h-279l-119 -226h-46zM431 265l-83 319l-165 -319h248zM252 841h42q3 -43 19.5 -62.5t51.5 -19.5q67 0 94 82h41q-11 -56 -49 -89.5t-90 -33.5t-79.5 31.5t-29.5 91.5zM387 817h-34l12 55q26 4 30 4q38 5 53 17t15 36q0 34 -49 34 q-19 0 -44 -12q-2 -1 -12 -5l-5 25q50 18 88 18q35 0 56 -16t21 -44q0 -33 -25 -53.5t-65 -20.5q-17 0 -33 1z" />
<glyph unicode="&#x1eb3;" horiz-adv-x="518" d="M466 400l-49 -400h-39l8 71q-40 -46 -74 -63.5t-81 -17.5q-82 0 -134 54.5t-52 139.5q0 97 60 161.5t150 64.5q53 0 89.5 -20.5t72.5 -70.5l10 81h39zM259 373q-74 0 -123.5 -53.5t-49.5 -132.5q0 -69 42 -114.5t106 -45.5q70 0 122.5 58t52.5 136q0 67 -42 109.5 t-108 42.5zM190 589h37q2 -46 18 -66.5t49 -20.5q65 0 90 87h38q-11 -57 -46.5 -90t-85.5 -33q-98 0 -100 123zM318 567h-33l11 55q28 4 30 4q38 5 53 17t15 36q0 34 -49 34q-19 0 -43 -12q-4 -2 -13 -5l-4 25q50 18 87 18q35 0 56 -16t21 -44q0 -33 -25 -53.5t-65 -20.5 q-17 0 -33 1z" />
<glyph unicode="&#x1eb4;" horiz-adv-x="589" d="M-3 0l366 697l179 -697h-44l-57 226h-279l-119 -226h-46zM431 265l-83 319l-165 -319h248zM252 841h42q3 -43 19.5 -62.5t51.5 -19.5q67 0 94 82h41q-11 -56 -49 -89.5t-90 -33.5t-79.5 31.5t-29.5 91.5zM495 950l39 -11q-33 -68 -93 -68q-32 0 -92 29q-29 15 -44 15 q-26 0 -45 -38l-39 10q29 67 85 67q18 0 31 -4.5t55 -24.5q33 -15 51 -15q34 0 52 40z" />
<glyph unicode="&#x1eb5;" horiz-adv-x="518" d="M466 400l-49 -400h-39l8 71q-40 -46 -74 -63.5t-81 -17.5q-82 0 -134 54.5t-52 139.5q0 97 60 161.5t150 64.5q53 0 89.5 -20.5t72.5 -70.5l10 81h39zM259 373q-74 0 -123.5 -53.5t-49.5 -132.5q0 -69 42 -114.5t106 -45.5q70 0 122.5 58t52.5 136q0 67 -42 109.5 t-108 42.5zM190 589h37q2 -46 18 -66.5t49 -20.5q65 0 90 87h38q-11 -57 -46.5 -90t-85.5 -33q-98 0 -100 123zM414 687l33 -10q-30 -66 -88 -66q-25 0 -75 29q-25 15 -39 15q-26 0 -42 -37l-33 9q31 64 78 64q16 0 29 -5t46 -25q24 -14 39 -14q29 0 52 40z" />
<glyph unicode="&#x1eb6;" horiz-adv-x="589" d="M-3 0l366 697l179 -697h-44l-57 226h-279l-119 -226h-46zM431 265l-83 319l-165 -319h248zM252 841h42q3 -43 19.5 -62.5t51.5 -19.5q67 0 94 82h41q-11 -56 -49 -89.5t-90 -33.5t-79.5 31.5t-29.5 91.5zM283 -51q27 0 27 -28q0 -14 -11 -24.5t-25 -10.5q-11 0 -18.5 7.5 t-7.5 19.5q0 14 10.5 25t24.5 11z" />
<glyph unicode="&#x1eb7;" horiz-adv-x="518" d="M466 400l-49 -400h-39l8 71q-40 -46 -74 -63.5t-81 -17.5q-82 0 -134 54.5t-52 139.5q0 97 60 161.5t150 64.5q53 0 89.5 -20.5t72.5 -70.5l10 81h39zM259 373q-74 0 -123.5 -53.5t-49.5 -132.5q0 -69 42 -114.5t106 -45.5q70 0 122.5 58t52.5 136q0 67 -42 109.5 t-108 42.5zM190 589h37q2 -46 18 -66.5t49 -20.5q65 0 90 87h38q-11 -57 -46.5 -90t-85.5 -33q-98 0 -100 123zM237 -51q27 0 27 -28q0 -14 -11 -24.5t-25 -10.5q-11 0 -18.5 7.5t-7.5 19.5q0 14 10.5 25t24.5 11z" />
<glyph unicode="&#x1eb8;" horiz-adv-x="457" d="M460 667l-5 -39h-264l-30 -243h264l-5 -39h-264l-37 -307h264l-5 -39h-307l82 667h307zM235 -51q27 0 27 -28q0 -14 -11 -24.5t-25 -10.5q-11 0 -18.5 7.5t-7.5 19.5q0 14 10.5 25t24.5 11z" />
<glyph unicode="&#x1eb9;" horiz-adv-x="469" d="M83 207v-28q0 -68 42 -111.5t109 -43.5q39 0 67.5 15t58.5 51l27 -19q-36 -46 -71 -65t-85 -19q-84 0 -135.5 53t-51.5 139q0 104 56 171t142 67q55 0 97 -28.5t62 -78.5q13 -35 16 -103h-334zM89 243h289q-5 47 -22 75q-40 62 -114 62q-70 0 -116 -55q-24 -31 -37 -82z M219 -51q27 0 27 -28q0 -14 -11 -24.5t-25 -10.5q-11 0 -18.5 7.5t-7.5 19.5q0 14 10.5 25t24.5 11z" />
<glyph unicode="&#x1eba;" horiz-adv-x="457" d="M460 667l-5 -39h-264l-30 -243h264l-5 -39h-264l-37 -307h264l-5 -39h-307l82 667h307zM318 756h-34l12 55q26 4 30 4q38 5 53 17t15 36q0 34 -49 34q-19 0 -44 -12q-1 -2 -12 -5l-5 25q50 18 88 18q35 0 56 -16t21 -44q0 -33 -25 -53.5t-65 -20.5q-17 0 -33 1z" />
<glyph unicode="&#x1ebb;" horiz-adv-x="469" d="M83 207v-28q0 -68 42 -111.5t109 -43.5q39 0 67.5 15t58.5 51l27 -19q-36 -46 -71 -65t-85 -19q-84 0 -135.5 53t-51.5 139q0 104 56 171t142 67q55 0 97 -28.5t62 -78.5q13 -35 16 -103h-334zM89 243h289q-5 47 -22 75q-40 62 -114 62q-70 0 -116 -55q-24 -31 -37 -82z M272 474h-33l12 55q26 4 29 4q38 5 53.5 17t15.5 36q0 34 -49 34q-20 0 -44 -12q-4 -2 -13 -5l-4 25q50 18 87 18q36 0 57 -16t21 -44q0 -33 -25 -53.5t-66 -20.5q-16 0 -33 1z" />
<glyph unicode="&#x1ebc;" horiz-adv-x="457" d="M460 667l-5 -39h-264l-30 -243h264l-5 -39h-264l-37 -307h264l-5 -39h-307l82 667h307zM415 817l39 -10q-33 -68 -93 -68q-32 0 -92 29q-29 15 -44 15q-26 0 -45 -38l-39 10q29 67 85 67q18 0 30.5 -4t55.5 -25q33 -15 50 -15q34 0 53 39z" />
<glyph unicode="&#x1ebd;" horiz-adv-x="469" d="M83 207v-28q0 -68 42 -111.5t109 -43.5q39 0 67.5 15t58.5 51l27 -19q-36 -46 -71 -65t-85 -19q-84 0 -135.5 53t-51.5 139q0 104 56 171t142 67q55 0 97 -28.5t62 -78.5q13 -35 16 -103h-334zM89 243h289q-5 47 -22 75q-40 62 -114 62q-70 0 -116 -55q-24 -31 -37 -82z M382 554l32 -10q-29 -66 -87 -66q-27 0 -75 29q-26 16 -39 16q-27 0 -43 -38l-32 9q29 65 77 65q17 0 30 -5.5t46 -25.5q24 -14 39 -14q16 0 27 8.5t25 31.5z" />
<glyph unicode="&#x1ebe;" horiz-adv-x="457" d="M387 790l109 111l39 -35l-126 -101l24 -25l-29 -27l-82 88l-111 -88l-24 30l140 112zM460 667l-5 -39h-264l-30 -243h264l-5 -39h-264l-37 -307h264l-5 -39h-307l82 667h307z" />
<glyph unicode="&#x1ebf;" horiz-adv-x="469" d="M347 527l103 112l35 -31l-119 -105l15 -20l-28 -23l-75 97l-104 -97l-23 25l133 123zM83 207v-28q0 -68 42 -111.5t109 -43.5q39 0 67.5 15t58.5 51l27 -19q-36 -46 -71 -65t-85 -19q-84 0 -135.5 53t-51.5 139q0 104 56 171t142 67q55 0 97 -28.5t62 -78.5 q13 -35 16 -103h-334zM89 243h289q-5 47 -22 75q-40 62 -114 62q-70 0 -116 -55q-24 -31 -37 -82z" />
<glyph unicode="&#x1ec0;" horiz-adv-x="457" d="M208 759l-83 102l42 29l66 -110l94 75l106 -115l-29 -27l-82 88l-111 -88l-24 30zM460 667l-5 -39h-264l-30 -243h264l-5 -39h-264l-37 -307h264l-5 -39h-307l82 667h307z" />
<glyph unicode="&#x1ec1;" horiz-adv-x="469" d="M175 507l-79 106l39 28l63 -113l86 80l97 -125l-28 -23l-75 97l-104 -97l-23 25zM83 207v-28q0 -68 42 -111.5t109 -43.5q39 0 67.5 15t58.5 51l27 -19q-36 -46 -71 -65t-85 -19q-84 0 -135.5 53t-51.5 139q0 104 56 171t142 67q55 0 97 -28.5t62 -78.5q13 -35 16 -103 h-334zM89 243h289q-5 47 -22 75q-40 62 -114 62q-70 0 -116 -55q-24 -31 -37 -82z" />
<glyph unicode="&#x1ec2;" horiz-adv-x="457" d="M402 774l9 39q26 4 29 4q38 5 53.5 17t15.5 35q0 35 -49 35q-20 0 -44 -12q-4 -2 -13 -5l-4 25q50 18 87 18q36 0 57 -16t21 -44q0 -33 -25 -53.5t-65 -20.5q-17 0 -34 1l-8 -39h-15l16 -18l-29 -26l-82 87l-111 -87l-24 29l140 112zM460 667l-5 -39h-264l-30 -243h264 l-5 -39h-264l-37 -307h264l-5 -39h-307l82 667h307z" />
<glyph unicode="&#x1ec3;" horiz-adv-x="469" d="M349 524l7 35q22 3 30 5q37 4 52.5 16t15.5 36q0 34 -49 34q-19 0 -44 -11l-2 -1l-5 -2.5l-5 -2.5l-5 26q47 18 88 18q35 0 56 -16t21 -44q0 -34 -24.5 -54.5t-65.5 -20.5q-17 0 -33 1l-8 -39h-14l17 -21l-28 -23l-75 97l-104 -97l-23 24l133 124zM83 207v-28 q0 -68 42 -111.5t109 -43.5q39 0 67.5 15t58.5 51l27 -19q-36 -46 -71 -65t-85 -19q-84 0 -135.5 53t-51.5 139q0 104 56 171t142 67q55 0 97 -28.5t62 -78.5q13 -35 16 -103h-334zM89 243h289q-5 47 -22 75q-40 62 -114 62q-70 0 -116 -55q-24 -31 -37 -82z" />
<glyph unicode="&#x1ec4;" horiz-adv-x="457" d="M460 667l-5 -39h-264l-30 -243h264l-5 -39h-264l-37 -307h264l-5 -39h-307l82 667h307zM322 801l-111 -88l-24 30l140 112l106 -115l-29 -27zM455 947l38 -10q-33 -68 -93 -68q-32 0 -92 29q-28 15 -43 15q-27 0 -46 -38l-39 10q29 67 86 67q17 0 30 -4.5t55 -24.5 q33 -15 51 -15q33 0 53 39z" />
<glyph unicode="&#x1ec5;" horiz-adv-x="469" d="M83 207v-28q0 -68 42 -111.5t109 -43.5q39 0 67.5 15t58.5 51l27 -19q-36 -46 -71 -65t-85 -19q-84 0 -135.5 53t-51.5 139q0 104 56 171t142 67q55 0 97 -28.5t62 -78.5q13 -35 16 -103h-334zM89 243h289q-5 47 -22 75q-40 62 -114 62q-70 0 -116 -55q-24 -31 -37 -82z M278 557l-104 -97l-23 25l133 123l97 -125l-28 -23zM405 690l33 -10q-29 -66 -87 -66q-26 0 -76 29q-25 16 -39 16q-26 0 -42 -38l-32 9q29 65 77 65q16 0 29 -5.5t47 -25.5q22 -14 39 -14q28 0 51 40z" />
<glyph unicode="&#x1ec6;" horiz-adv-x="457" d="M460 667l-5 -39h-264l-30 -243h264l-5 -39h-264l-37 -307h264l-5 -39h-307l82 667h307zM322 801l-111 -88l-24 30l140 112l106 -115l-29 -27zM235 -51q27 0 27 -28q0 -14 -11 -24.5t-25 -10.5q-11 0 -18.5 7.5t-7.5 19.5q0 14 10.5 25t24.5 11z" />
<glyph unicode="&#x1ec7;" horiz-adv-x="469" d="M83 207v-28q0 -68 42 -111.5t109 -43.5q39 0 67.5 15t58.5 51l27 -19q-36 -46 -71 -65t-85 -19q-84 0 -135.5 53t-51.5 139q0 104 56 171t142 67q55 0 97 -28.5t62 -78.5q13 -35 16 -103h-334zM89 243h289q-5 47 -22 75q-40 62 -114 62q-70 0 -116 -55q-24 -31 -37 -82z M278 557l-104 -97l-23 25l133 123l97 -125l-28 -23zM241 -51q27 0 27 -28q0 -14 -11 -24.5t-25 -10.5q-11 0 -18.5 7.5t-7.5 19.5q0 14 10.5 25t24.5 11z" />
<glyph unicode="&#x1ec8;" horiz-adv-x="240" d="M196 667l-82 -667h-43l82 667h43zM207 756h-34l12 55q26 4 30 4q38 5 53 17t15 36q0 34 -49 34q-19 0 -44 -12q-2 -2 -12 -5l-5 25q50 18 88 18q35 0 56 -16t21 -44q0 -33 -25 -53.5t-65 -20.5q-17 0 -33 1z" />
<glyph unicode="&#x1ec9;" horiz-adv-x="186" d="M134 400l-50 -400h-39l49 400h40zM143 474h-34l12 55q26 4 30 4q38 5 53 17t15 36q0 34 -49 34q-20 0 -44 -12l-12 -5l-5 25q50 18 88 18q35 0 56 -16t21 -44q0 -33 -25 -53.5t-66 -20.5q-16 0 -32 1z" />
<glyph unicode="&#x1eca;" horiz-adv-x="240" d="M196 667l-82 -667h-43l82 667h43zM93 -51q27 0 27 -28q0 -14 -11 -24.5t-25 -10.5q-11 0 -18.5 7.5t-7.5 19.5q0 14 10.5 25t24.5 11z" />
<glyph unicode="&#x1ecb;" horiz-adv-x="186" d="M136 590q11 0 18 -7.5t7 -19.5q0 -14 -9 -24t-22 -10q-11 0 -18 8t-7 20q0 14 9 23.5t22 9.5zM134 400l-49 -400h-39l49 400h39zM57 -51q27 0 27 -28q0 -14 -11 -24.5t-25 -10.5q-11 0 -18.5 7.5t-7.5 19.5q0 14 10.5 25t24.5 11z" />
<glyph unicode="&#x1ecc;" horiz-adv-x="786" d="M420 680q144 0 232 -89t88 -235q0 -139 -82 -244q-98 -125 -264 -125q-142 0 -232.5 89t-90.5 228q0 161 99.5 268.5t249.5 107.5zM420 640q-132 0 -218.5 -93.5t-86.5 -235.5q0 -126 78 -205t202 -79q129 0 215 94t86 235q0 138 -81 212q-80 72 -195 72zM388 -51 q27 0 27 -28q0 -14 -11 -24.5t-25 -10.5q-11 0 -18.5 7.5t-7.5 19.5q0 14 10.5 25t24.5 11z" />
<glyph unicode="&#x1ecd;" horiz-adv-x="520" d="M265 413q91 0 147 -58t56 -152q0 -91 -62 -153.5t-152 -62.5q-89 0 -149 58t-60 145q0 93 64 158t156 65zM265 376q-73 0 -126 -54t-53 -129q0 -71 48.5 -120t118.5 -49q74 0 124 52t50 130q0 76 -45 123t-117 47zM251 -51q27 0 27 -28q0 -14 -11 -24.5t-25 -10.5 q-11 0 -18.5 7.5t-7.5 19.5q0 14 10.5 25t24.5 11z" />
<glyph unicode="&#x1ece;" horiz-adv-x="786" d="M420 680q144 0 232 -89t88 -235q0 -139 -82 -244q-98 -125 -264 -125q-142 0 -232.5 89t-90.5 228q0 161 99.5 268.5t249.5 107.5zM420 640q-132 0 -218.5 -93.5t-86.5 -235.5q0 -126 78 -205t202 -79q129 0 215 94t86 235q0 138 -81 212q-80 72 -195 72zM430 756h-33 l12 55q26 4 29 4q38 5 53.5 17t15.5 36q0 34 -49 34q-20 0 -44 -12q-4 -2 -13 -5l-4 25q50 18 87 18q36 0 57 -16t21 -44q0 -33 -25 -53.5t-66 -20.5q-16 0 -33 1z" />
<glyph unicode="&#x1ecf;" horiz-adv-x="520" d="M265 413q91 0 147 -58t56 -152q0 -91 -62 -153.5t-152 -62.5q-89 0 -149 58t-60 145q0 93 64 158t156 65zM265 376q-73 0 -126 -54t-53 -129q0 -71 48.5 -120t118.5 -49q74 0 124 52t50 130q0 76 -45 123t-117 47zM297 474h-33l12 55q26 4 29 4q38 5 53.5 17t15.5 36 q0 34 -49 34q-20 0 -44 -12q-4 -2 -13 -5l-4 25q50 18 87 18q36 0 57 -16t21 -44q0 -33 -25 -53.5t-66 -20.5q-16 0 -33 1z" />
<glyph unicode="&#x1ed0;" horiz-adv-x="786" d="M535 784l106 107l38 -35l-121 -97l18 -19l-29 -27l-82 88l-111 -88l-24 30l140 112zM421 680q140 0 229.5 -88.5t89.5 -227.5q0 -165 -97.5 -271t-249.5 -106q-141 0 -231.5 89t-90.5 228q0 82 30.5 157.5t85.5 127.5q94 91 234 91zM420 640q-132 0 -218.5 -93.5 t-86.5 -235.5q0 -126 78 -205t202 -79q129 0 215 94t86 235q0 138 -81 212q-80 72 -195 72z" />
<glyph unicode="&#x1ed1;" horiz-adv-x="520" d="M369 538l103 111l34 -31l-117 -104l24 -29l-26 -25l-83 98l-111 -98l-23 25l140 123zM266 413q89 0 145.5 -57.5t56.5 -148.5q0 -94 -61 -157t-153 -63q-89 0 -149 58t-60 145q0 94 64 158.5t157 64.5zM265 376q-73 0 -126 -54t-53 -129q0 -71 48.5 -120t118.5 -49 q74 0 124 52t50 130q0 76 -45 123t-117 47z" />
<glyph unicode="&#x1ed2;" horiz-adv-x="786" d="M352 761l-84 102l43 30l67 -112l92 74l106 -115l-29 -27l-82 88l-111 -88l-24 30zM421 680q140 0 229.5 -88.5t89.5 -227.5q0 -165 -97.5 -271t-249.5 -106q-141 0 -231.5 89t-90.5 228q0 82 30.5 157.5t85.5 127.5q94 91 234 91zM420 640q-132 0 -218.5 -93.5 t-86.5 -235.5q0 -126 78 -205t202 -79q129 0 215 94t86 235q0 138 -81 212q-80 72 -195 72z" />
<glyph unicode="&#x1ed3;" horiz-adv-x="520" d="M193 505l-80 108l39 28l64 -115l94 82l103 -123l-26 -25l-83 97l-111 -97l-23 25zM266 413q89 0 145.5 -57.5t56.5 -148.5q0 -94 -61 -157t-153 -63q-89 0 -149 58t-60 145q0 94 64 158.5t157 64.5zM265 376q-73 0 -126 -54t-53 -129q0 -71 48.5 -120t118.5 -49 q74 0 124 52t50 130q0 76 -45 123t-117 47z" />
<glyph unicode="&#x1ed4;" horiz-adv-x="786" d="M541 778l8 39q26 4 30 4q37 5 52.5 17t15.5 35q0 35 -49 35q-19 0 -44 -12q-2 -2 -12 -5l-5 25q50 18 88 18q35 0 56 -16t21 -44q0 -33 -25 -53.5t-65 -20.5q-16 0 -33 1l-8 -39h-15l20 -22l-29 -26l-82 87l-111 -87l-24 29l140 112zM421 680q140 0 229.5 -88.5 t89.5 -227.5q0 -165 -97.5 -271t-249.5 -106q-141 0 -231.5 89t-90.5 228q0 82 30.5 157.5t85.5 127.5q94 91 234 91zM420 640q-132 0 -218.5 -93.5t-86.5 -235.5q0 -126 78 -205t202 -79q129 0 215 94t86 235q0 138 -81 212q-80 72 -195 72z" />
<glyph unicode="&#x1ed5;" horiz-adv-x="520" d="M378 527l6 29q28 4 30 4q37 5 52.5 17t15.5 35q0 35 -49 35q-19 0 -43 -12l-13 -6l-5 26q51 18 88 18q35 0 56 -16t21 -44q0 -34 -24.5 -54.5t-64.5 -20.5q-18 0 -34 1l-8 -38h-6l13 -16l-26 -25l-83 98l-111 -98l-23 25l140 123zM266 413q89 0 145.5 -57.5t56.5 -148.5 q0 -94 -61 -157t-153 -63q-89 0 -149 58t-60 145q0 94 64 158.5t157 64.5zM265 376q-73 0 -126 -54t-53 -129q0 -71 48.5 -120t118.5 -49q74 0 124 52t50 130q0 76 -45 123t-117 47z" />
<glyph unicode="&#x1ed6;" horiz-adv-x="786" d="M420 680q144 0 232 -89t88 -235q0 -139 -82 -244q-98 -125 -264 -125q-142 0 -232.5 89t-90.5 228q0 161 99.5 268.5t249.5 107.5zM420 640q-132 0 -218.5 -93.5t-86.5 -235.5q0 -126 78 -205t202 -79q129 0 215 94t86 235q0 138 -81 212q-80 72 -195 72zM465 801 l-111 -88l-24 30l140 112l106 -115l-29 -27zM598 939l38 -10q-33 -68 -93 -68q-32 0 -92 29q-28 15 -43 15q-27 0 -46 -38l-39 10q29 67 86 67q17 0 30 -4.5t55 -24.5q33 -15 51 -15q33 0 53 39z" />
<glyph unicode="&#x1ed7;" horiz-adv-x="520" d="M265 413q91 0 147 -58t56 -152q0 -91 -62 -153.5t-152 -62.5q-89 0 -149 58t-60 145q0 93 64 158t156 65zM265 376q-73 0 -126 -54t-53 -129q0 -71 48.5 -120t118.5 -49q74 0 124 52t50 130q0 76 -45 123t-117 47zM304 557l-111 -97l-23 25l140 123l103 -123l-26 -25z M429 691l33 -10q-31 -66 -88 -66q-25 0 -75 29q-25 16 -39 16q-26 0 -42 -38l-33 9q30 65 78 65q16 0 29 -5.5t46 -25.5q24 -14 39 -14q16 0 27 8.5t25 31.5z" />
<glyph unicode="&#x1ed8;" horiz-adv-x="786" d="M420 680q144 0 232 -89t88 -235q0 -139 -82 -244q-98 -125 -264 -125q-142 0 -232.5 89t-90.5 228q0 161 99.5 268.5t249.5 107.5zM420 640q-132 0 -218.5 -93.5t-86.5 -235.5q0 -126 78 -205t202 -79q129 0 215 94t86 235q0 138 -81 212q-80 72 -195 72zM465 801 l-111 -88l-24 30l140 112l106 -115l-29 -27zM399 -51q27 0 27 -28q0 -14 -11 -24.5t-25 -10.5q-11 0 -18.5 7.5t-7.5 19.5q0 14 10.5 25t24.5 11z" />
<glyph unicode="&#x1ed9;" horiz-adv-x="520" d="M265 413q91 0 147 -58t56 -152q0 -91 -62 -153.5t-152 -62.5q-89 0 -149 58t-60 145q0 93 64 158t156 65zM265 376q-73 0 -126 -54t-53 -129q0 -71 48.5 -120t118.5 -49q74 0 124 52t50 130q0 76 -45 123t-117 47zM304 557l-111 -97l-23 25l140 123l103 -123l-26 -25z M266 -51q27 0 27 -28q0 -14 -11 -24.5t-25 -10.5q-11 0 -18.5 7.5t-7.5 19.5q0 14 10.5 25t24.5 11z" />
<glyph unicode="&#x1eda;" horiz-adv-x="786" d="M663 578l60 120l46 -21l-84 -127q55 -80 55 -190q0 -161 -98 -267t-248 -106q-142 0 -232.5 89t-90.5 228q0 82 31 158t84 127q96 91 235 91q151 0 242 -102zM420 640q-132 0 -218.5 -93.5t-86.5 -235.5q0 -126 78 -205t202 -79q129 0 215 94t86 235q0 138 -81 212 q-80 72 -195 72zM575 820l-133 -107l-26 20l121 122z" />
<glyph unicode="&#x1edb;" horiz-adv-x="520" d="M441 315l55 108l40 -21l-79 -125q11 -38 11 -71q0 -93 -61.5 -156t-152.5 -63q-89 0 -149 58t-60 145q0 94 64 158.5t157 64.5q58 0 104.5 -26t70.5 -72zM265 376q-73 0 -126 -54t-53 -129q0 -71 48.5 -120t118.5 -49q74 0 124 52t50 130q0 76 -45 123t-117 47zM410 573 l-128 -113l-21 20l114 125z" />
<glyph unicode="&#x1edc;" horiz-adv-x="786" d="M663 578l60 120l46 -21l-84 -127q55 -80 55 -190q0 -161 -98 -267t-248 -106q-142 0 -232.5 89t-90.5 228q0 82 31 158t84 127q96 91 235 91q151 0 242 -102zM420 640q-132 0 -218.5 -93.5t-86.5 -235.5q0 -126 78 -205t202 -79q129 0 215 94t86 235q0 138 -81 212 q-80 72 -195 72zM383 826l42 29l75 -124l-25 -18z" />
<glyph unicode="&#x1edd;" horiz-adv-x="520" d="M441 315l55 108l40 -21l-79 -125q11 -38 11 -71q0 -93 -61.5 -156t-152.5 -63q-89 0 -149 58t-60 145q0 94 64 158.5t157 64.5q58 0 104.5 -26t70.5 -72zM265 376q-73 0 -126 -54t-53 -129q0 -71 48.5 -120t118.5 -49q74 0 124 52t50 130q0 76 -45 123t-117 47zM223 577 l39 28l71 -129l-24 -16z" />
<glyph unicode="&#x1ede;" horiz-adv-x="786" d="M663 578l60 120l46 -21l-84 -127q55 -80 55 -190q0 -161 -98 -267t-248 -106q-142 0 -232.5 89t-90.5 228q0 82 31 158t84 127q96 91 235 91q151 0 242 -102zM420 640q-132 0 -218.5 -93.5t-86.5 -235.5q0 -126 78 -205t202 -79q129 0 215 94t86 235q0 138 -81 212 q-80 72 -195 72zM430 756h-33l12 55q26 4 29 4q38 5 53.5 17t15.5 36q0 34 -49 34q-20 0 -44 -12q-4 -2 -13 -5l-4 25q50 18 87 18q36 0 57 -16t21 -44q0 -33 -25 -53.5t-66 -20.5q-16 0 -33 1z" />
<glyph unicode="&#x1edf;" horiz-adv-x="520" d="M441 315l55 108l40 -21l-79 -125q11 -38 11 -71q0 -93 -61.5 -156t-152.5 -63q-89 0 -149 58t-60 145q0 94 64 158.5t157 64.5q58 0 104.5 -26t70.5 -72zM265 376q-73 0 -126 -54t-53 -129q0 -71 48.5 -120t118.5 -49q74 0 124 52t50 130q0 76 -45 123t-117 47zM297 474 h-33l12 55q26 4 29 4q38 5 53.5 17t15.5 36q0 34 -49 34q-20 0 -44 -12q-4 -2 -13 -5l-4 25q50 18 87 18q36 0 57 -16t21 -44q0 -33 -25 -53.5t-66 -20.5q-16 0 -33 1z" />
<glyph unicode="&#x1ee0;" horiz-adv-x="786" d="M663 578l60 120l46 -21l-84 -127q55 -80 55 -190q0 -161 -98 -267t-248 -106q-142 0 -232.5 89t-90.5 228q0 82 31 158t84 127q96 91 235 91q151 0 242 -102zM420 640q-132 0 -218.5 -93.5t-86.5 -235.5q0 -126 78 -205t202 -79q129 0 215 94t86 235q0 138 -81 212 q-80 72 -195 72zM579 817l39 -10q-33 -68 -93 -68q-32 0 -92 29q-29 15 -44 15q-27 0 -45 -38l-39 10q29 67 85 67q17 0 30 -4.5t56 -24.5q31 -15 50 -15q33 0 53 39z" />
<glyph unicode="&#x1ee1;" horiz-adv-x="520" d="M441 315l55 108l40 -21l-79 -125q11 -38 11 -71q0 -93 -61.5 -156t-152.5 -63q-89 0 -149 58t-60 145q0 94 64 158.5t157 64.5q58 0 104.5 -26t70.5 -72zM265 376q-73 0 -126 -54t-53 -129q0 -71 48.5 -120t118.5 -49q74 0 124 52t50 130q0 76 -45 123t-117 47zM407 554 l32 -10q-29 -66 -87 -66q-27 0 -75 29q-26 16 -39 16q-26 0 -42 -38l-33 9q29 65 78 65q16 0 29 -5.5t46 -25.5q24 -14 39 -14q16 0 27 8.5t25 31.5z" />
<glyph unicode="&#x1ee2;" horiz-adv-x="786" d="M663 578l60 120l46 -21l-84 -127q55 -80 55 -190q0 -161 -98 -267t-248 -106q-142 0 -232.5 89t-90.5 228q0 82 31 158t84 127q96 91 235 91q151 0 242 -102zM420 640q-132 0 -218.5 -93.5t-86.5 -235.5q0 -126 78 -205t202 -79q129 0 215 94t86 235q0 138 -81 212 q-80 72 -195 72zM378 -51q27 0 27 -28q0 -13 -11.5 -24t-25.5 -11q-11 0 -18.5 7.5t-7.5 19.5q0 14 11 25t25 11z" />
<glyph unicode="&#x1ee3;" horiz-adv-x="520" d="M441 315l55 108l40 -21l-79 -125q11 -38 11 -71q0 -93 -61.5 -156t-152.5 -63q-89 0 -149 58t-60 145q0 94 64 158.5t157 64.5q58 0 104.5 -26t70.5 -72zM265 376q-73 0 -126 -54t-53 -129q0 -71 48.5 -120t118.5 -49q74 0 124 52t50 130q0 76 -45 123t-117 47zM251 -51 q27 0 27 -28q0 -14 -11 -24.5t-25 -10.5q-11 0 -18.5 7.5t-7.5 19.5q0 14 10.5 25t24.5 11z" />
<glyph unicode="&#x1ee4;" horiz-adv-x="648" d="M606 667l-52 -426q-11 -96 -41 -145q-67 -109 -200 -109q-110 0 -179 67q-43 44 -43 121q0 20 4 48l54 444h43l-55 -445q-3 -25 -3 -50q0 -55 30 -86q54 -59 149 -59q57 0 101.5 26.5t68.5 74.5q20 40 28 112l53 427h42zM312 -51q27 0 27 -28q0 -14 -11 -24.5t-25 -10.5 q-11 0 -18.5 7.5t-7.5 19.5q0 14 10.5 25t24.5 11z" />
<glyph unicode="&#x1ee5;" horiz-adv-x="435" d="M383 400l-29 -238q-10 -83 -39 -119q-44 -53 -120 -53q-62 0 -97 35t-35 97q0 19 4 48l28 230h39l-29 -236q-4 -31 -4 -48q0 -41 26 -65t70 -24q63 0 92 45q18 27 25 84l30 244h39zM192 -51q27 0 27 -28q0 -14 -11 -24.5t-25 -10.5q-11 0 -18.5 7.5t-7.5 19.5 q0 14 10.5 25t24.5 11z" />
<glyph unicode="&#x1ee6;" horiz-adv-x="648" d="M606 667l-52 -426q-11 -96 -41 -145q-67 -109 -200 -109q-110 0 -179 67q-43 44 -43 121q0 20 4 48l54 444h43l-55 -445q-3 -25 -3 -50q0 -55 30 -86q54 -59 149 -59q57 0 101.5 26.5t68.5 74.5q20 40 28 112l53 427h42zM397 756h-34l12 55q26 4 30 4q38 5 53 17t15 36 q0 34 -49 34q-19 0 -44 -12q-2 -2 -12 -5l-5 25q50 18 88 18q35 0 56 -16t21 -44q0 -33 -25 -53.5t-65 -20.5q-17 0 -33 1z" />
<glyph unicode="&#x1ee7;" horiz-adv-x="435" d="M383 400l-29 -238q-10 -83 -39 -119q-44 -53 -120 -53q-62 0 -97 35t-35 97q0 19 4 48l28 230h39l-29 -236q-4 -31 -4 -48q0 -41 26 -65t70 -24q63 0 92 45q18 27 25 84l30 244h39zM255 474h-33l12 55q26 4 29 4q38 5 53.5 17t15.5 36q0 34 -49 34q-20 0 -44 -12 q-2 -1 -12 -5l-5 25q50 18 88 18q35 0 56 -16t21 -44q0 -33 -25 -53.5t-66 -20.5q-16 0 -32 1z" />
<glyph unicode="&#x1ee8;" horiz-adv-x="648" d="M606 667l-52 -426q-11 -96 -41 -145q-67 -109 -200 -109q-110 0 -179 67q-43 44 -43 121q0 20 4 48l54 444h43l-55 -445q-3 -25 -3 -50q0 -55 30 -86q54 -59 149 -59q57 0 101.5 26.5t68.5 74.5q20 40 28 112l53 427h42zM691 701l46 -21l-95 -144l-27 13zM507 820 l-134 -107l-25 20l120 122z" />
<glyph unicode="&#x1ee9;" horiz-adv-x="435" d="M383 400l-29 -238q-10 -83 -39 -119q-44 -53 -120 -53q-62 0 -97 35t-35 97q0 19 4 48l28 230h39l-29 -236q-4 -31 -4 -48q0 -41 26 -65t70 -24q63 0 92 45q18 27 25 84l30 244h39zM462 433l41 -21l-89 -141l-27 13zM368 573l-128 -113l-21 20l114 125z" />
<glyph unicode="&#x1eea;" horiz-adv-x="648" d="M606 667l-52 -426q-11 -96 -41 -145q-67 -109 -200 -109q-110 0 -179 67q-43 44 -43 121q0 20 4 48l54 444h43l-55 -445q-3 -25 -3 -50q0 -55 30 -86q54 -59 149 -59q57 0 101.5 26.5t68.5 74.5q20 40 28 112l53 427h42zM691 701l46 -21l-95 -144l-27 13zM314 826l43 29 l74 -124l-25 -18z" />
<glyph unicode="&#x1eeb;" horiz-adv-x="435" d="M383 400l-29 -238q-10 -83 -39 -119q-44 -53 -120 -53q-62 0 -97 35t-35 97q0 19 4 48l28 230h39l-29 -236q-4 -31 -4 -48q0 -41 26 -65t70 -24q63 0 92 45q18 27 25 84l30 244h39zM462 433l41 -21l-89 -141l-27 13zM181 577l39 28l72 -129l-25 -16z" />
<glyph unicode="&#x1eec;" horiz-adv-x="648" d="M606 667l-52 -426q-11 -96 -41 -145q-67 -109 -200 -109q-110 0 -179 67q-43 44 -43 121q0 20 4 48l54 444h43l-55 -445q-3 -25 -3 -50q0 -55 30 -86q54 -59 149 -59q57 0 101.5 26.5t68.5 74.5q20 40 28 112l53 427h42zM691 701l46 -21l-95 -144l-27 13zM371 756h-33 l12 55q26 4 29 4q38 5 53.5 17t15.5 36q0 34 -49 34q-20 0 -44 -12q-4 -2 -13 -5l-4 25q50 18 87 18q36 0 57 -16t21 -44q0 -33 -25 -53.5t-66 -20.5q-16 0 -33 1z" />
<glyph unicode="&#x1eed;" horiz-adv-x="435" d="M383 400l-29 -238q-10 -83 -39 -119q-44 -53 -120 -53q-62 0 -97 35t-35 97q0 19 4 48l28 230h39l-29 -236q-4 -31 -4 -48q0 -41 26 -65t70 -24q63 0 92 45q18 27 25 84l30 244h39zM462 433l41 -21l-89 -141l-27 13zM255 474h-33l12 55q26 4 29 4q38 5 53.5 17t15.5 36 q0 34 -49 34q-20 0 -44 -12q-2 -1 -12 -5l-5 25q50 18 88 18q35 0 56 -16t21 -44q0 -33 -25 -53.5t-66 -20.5q-16 0 -32 1z" />
<glyph unicode="&#x1eee;" horiz-adv-x="648" d="M606 667l-52 -426q-11 -96 -41 -145q-67 -109 -200 -109q-110 0 -179 67q-43 44 -43 121q0 20 4 48l54 444h43l-55 -445q-3 -25 -3 -50q0 -55 30 -86q54 -59 149 -59q57 0 101.5 26.5t68.5 74.5q20 40 28 112l53 427h42zM691 701l46 -21l-95 -144l-27 13zM510 817l39 -10 q-33 -68 -93 -68q-32 0 -92 29q-29 15 -44 15q-27 0 -45 -38l-39 10q29 67 85 67q18 0 30.5 -4t55.5 -25q33 -15 50 -15q34 0 53 39z" />
<glyph unicode="&#x1eef;" horiz-adv-x="435" d="M383 400l-29 -238q-10 -83 -39 -119q-44 -53 -120 -53q-62 0 -97 35t-35 97q0 19 4 48l28 230h39l-29 -236q-4 -31 -4 -48q0 -41 26 -65t70 -24q63 0 92 45q18 27 25 84l30 244h39zM462 433l41 -21l-89 -141l-27 13zM365 554l32 -10q-29 -66 -87 -66q-27 0 -75 29 q-25 16 -39 16q-26 0 -42 -38l-33 9q29 65 78 65q16 0 29 -5.5t46 -25.5q24 -14 39 -14q16 0 27 8.5t25 31.5z" />
<glyph unicode="&#x1ef0;" horiz-adv-x="648" d="M606 667l-52 -426q-11 -96 -41 -145q-67 -109 -200 -109q-110 0 -179 67q-43 44 -43 121q0 20 4 48l54 444h43l-55 -445q-3 -25 -3 -50q0 -55 30 -86q54 -59 149 -59q57 0 101.5 26.5t68.5 74.5q20 40 28 112l53 427h42zM691 701l46 -21l-95 -144l-27 13zM307 -60 q27 0 27 -28q0 -13 -11.5 -24t-25.5 -11q-11 0 -18.5 7.5t-7.5 19.5q0 14 11 25t25 11z" />
<glyph unicode="&#x1ef1;" horiz-adv-x="435" d="M383 400l-29 -238q-10 -83 -39 -119q-44 -53 -120 -53q-62 0 -97 35t-35 97q0 19 4 48l28 230h39l-29 -236q-4 -31 -4 -48q0 -41 26 -65t70 -24q63 0 92 45q18 27 25 84l30 244h39zM462 433l41 -21l-89 -141l-27 13zM193 -54q27 0 27 -28q0 -14 -11 -24.5t-25 -10.5 q-11 0 -18.5 7.5t-7.5 19.5q0 14 10.5 25t24.5 11z" />
<glyph unicode="&#x1ef2;" horiz-adv-x="511" d="M199 0l38 302l-164 365h48l143 -324l227 324h56l-269 -374l-36 -293h-43zM232 826l43 29l74 -124l-25 -18z" />
<glyph unicode="&#x1ef3;" horiz-adv-x="372" d="M-13 -223l146 258l-105 365h43l88 -318l174 318h47l-346 -623h-47zM126 577l39 28l71 -129l-24 -16z" />
<glyph unicode="&#x1ef4;" horiz-adv-x="511" d="M199 0l38 302l-164 365h48l143 -324l227 324h56l-269 -374l-36 -293h-43zM213 -51q27 0 27 -28q0 -14 -11 -24.5t-25 -10.5q-11 0 -18.5 7.5t-7.5 19.5q0 14 10.5 25t24.5 11z" />
<glyph unicode="&#x1ef5;" horiz-adv-x="372" d="M-13 -223l146 258l-105 365h43l88 -318l174 318h47l-346 -623h-47zM192 -51q27 0 27 -28q0 -14 -11 -24.5t-25 -10.5q-11 0 -18.5 7.5t-7.5 19.5q0 14 10.5 25t24.5 11z" />
<glyph unicode="&#x1ef6;" horiz-adv-x="511" d="M199 0l38 302l-164 365h48l143 -324l227 324h56l-269 -374l-36 -293h-43zM293 756h-33l12 55q26 4 29 4q38 5 53.5 17t15.5 36q0 34 -49 34q-20 0 -44 -12q-2 -1 -12 -5l-5 25q50 18 88 18q35 0 56 -16t21 -44q0 -33 -25 -53.5t-66 -20.5q-16 0 -32 1z" />
<glyph unicode="&#x1ef7;" horiz-adv-x="372" d="M-13 -223l146 258l-105 365h43l88 -318l174 318h47l-346 -623h-47zM224 474h-34l12 55q26 4 30 4q38 5 53 17t15 36q0 34 -49 34q-20 0 -44 -12l-12 -5l-5 25q50 18 88 18q35 0 56 -16t21 -44q0 -33 -25 -53.5t-66 -20.5q-16 0 -32 1z" />
<glyph unicode="&#x1ef8;" horiz-adv-x="511" d="M199 0l38 302l-164 365h48l143 -324l227 324h56l-269 -374l-36 -293h-43zM442 817l39 -10q-33 -68 -93 -68q-32 0 -92 29q-29 15 -44 15q-27 0 -45 -38l-39 10q29 67 85 67q18 0 30.5 -4t55.5 -25q33 -15 50 -15q34 0 53 39z" />
<glyph unicode="&#x1ef9;" horiz-adv-x="372" d="M-13 -223l146 258l-105 365h43l88 -318l174 318h47l-346 -623h-47zM333 554l33 -10q-30 -66 -88 -66q-27 0 -75 29q-25 16 -39 16q-26 0 -42 -38l-33 9q29 65 78 65q16 0 29 -5.5t46 -25.5q24 -14 39 -14q16 0 27 8.5t25 31.5z" />
<glyph unicode="&#x2011;" horiz-adv-x="166" d="M165 225l-4 -36h-166l4 36h166z" />
<glyph unicode="&#x2012;" horiz-adv-x="547" d="M415 225l-4 -36h-285l4 36h285z" />
<glyph unicode="&#x2013;" horiz-adv-x="547" d="M415 225l-4 -36h-285l4 36h285z" />
<glyph unicode="&#x2014;" horiz-adv-x="497" d="M496 225l-4 -36h-497l4 36h497z" />
<glyph unicode="&#x2015;" horiz-adv-x="497" d="M496 225l-4 -36h-497l4 36h497z" />
<glyph unicode="&#x2017;" d="M12 -63h500v-30h-500v30zM12 -178h500v-31h-500v31z" />
<glyph unicode="&#x2018;" horiz-adv-x="257" d="M110 529l107 168l23 -13l-96 -173z" />
<glyph unicode="&#x2019;" horiz-adv-x="244" d="M240 679l-107 -168l-23 12l96 174z" />
<glyph unicode="&#x201a;" horiz-adv-x="208" d="M117 77l-107 -168l-23 13l96 173z" />
<glyph unicode="&#x201b;" d="M323 460l-75 142l27 13l89 -134z" />
<glyph unicode="&#x201c;" horiz-adv-x="377" d="M110 529l107 168l23 -13l-96 -173zM230 529l107 168l23 -13l-97 -173z" />
<glyph unicode="&#x201d;" horiz-adv-x="377" d="M360 679l-108 -168l-22 12l96 174zM240 679l-107 -168l-23 12l96 174z" />
<glyph unicode="&#x201e;" horiz-adv-x="377" d="M165 69l-107 -168l-23 12l96 174zM285 69l-108 -168l-22 12l96 174z" />
<glyph unicode="&#x2020;" horiz-adv-x="547" d="M355 729l-23 -187h169l-5 -39h-169l-82 -663h-40l81 663h-167l5 39h167l23 187h41z" />
<glyph unicode="&#x2021;" horiz-adv-x="547" d="M354 729l-22 -176h170l-5 -39h-169l-47 -382h169l-5 -39h-169l-31 -253h-41l31 253h-167l5 39h167l47 382h-167l5 39h167l21 176h41z" />
<glyph unicode="&#x2022;" horiz-adv-x="667" d="M348 480q56 0 95.5 -41t39.5 -99t-40 -99t-97 -41t-97.5 41t-40.5 99t41 99t99 41z" />
<glyph unicode="&#x2026;" horiz-adv-x="566" d="M71 56q13 0 21.5 -9t8.5 -22t-9.5 -22.5t-22.5 -9.5t-21.5 9t-8.5 22q0 14 9.5 23t22.5 9zM260 56q13 0 21.5 -9t8.5 -22t-9.5 -22.5t-22.5 -9.5t-21.5 9t-8.5 22q0 14 9 23t23 9zM448 56q13 0 21.5 -9t8.5 -22t-9.5 -22.5t-22.5 -9.5t-21.5 9t-8.5 22q0 14 9 23t23 9z " />
<glyph unicode="&#x2030;" horiz-adv-x="1005" d="M206 674q52 0 85.5 -42t33.5 -107q0 -74 -41.5 -126.5t-99.5 -52.5q-53 0 -85.5 41t-32.5 108q0 75 40.5 127t99.5 52zM203 641q-43 0 -73.5 -43.5t-30.5 -105.5q0 -50 25 -82t63 -32q42 0 70 38q35 50 35 112q0 50 -25 81.5t-64 31.5zM81 12l521 664l25 -20l-520 -665z M524 321q52 0 85.5 -42t33.5 -107q0 -74 -41.5 -126.5t-99.5 -52.5q-53 0 -85.5 41t-32.5 108q0 75 40.5 127t99.5 52zM521 288q-43 0 -73.5 -43.5t-30.5 -105.5q0 -50 25 -82t63 -32q43 0 74 44.5t31 105.5q0 50 -24.5 81.5t-64.5 31.5zM846 321q52 0 85.5 -42t33.5 -107 q0 -74 -41.5 -126.5t-99.5 -52.5q-53 0 -85.5 41t-32.5 108q0 75 40.5 127t99.5 52zM843 288q-43 0 -73.5 -43.5t-30.5 -105.5q0 -50 25 -82t63 -32q43 0 74 44.5t31 105.5q0 50 -24.5 81.5t-64.5 31.5z" />
<glyph unicode="&#x2039;" horiz-adv-x="227" d="M201 354l-123 -152l86 -157l-29 -16l-98 178l137 169z" />
<glyph unicode="&#x203a;" horiz-adv-x="227" d="M21 59l123 152l-86 157l29 17l98 -178l-137 -169z" />
<glyph unicode="&#x203e;" d="M12 847h500v-39h-500v39z" />
<glyph unicode="&#x2044;" horiz-adv-x="108" d="M-207 12l521 664l26 -20l-521 -665z" />
<glyph unicode="&#x20a3;" horiz-adv-x="547" d="M456 667l-5 -39h-231l-30 -243h231l-4 -39h-232l-42 -346h-43l82 667h274zM387 245l-3 -22l9 8q23 20 53 20q17 0 43 -12l-20 -31q-20 8 -30 8q-26 0 -43.5 -22.5t-22.5 -62.5l-16 -131h-38l30 245h38z" />
<glyph unicode="&#x20a4;" horiz-adv-x="547" d="M31 208l4 33h109q0 6 -0.5 16.5t-1.5 17.5l-3 33h-96l4 33h89q-3 49 -3 73q0 125 58 195q59 72 160 72q87 0 140 -57t53 -151l-41 -11q1 7 1 16q0 72 -44.5 119t-112.5 47q-81 0 -127.5 -60.5t-46.5 -164.5q0 -27 4 -78h176l-4 -33h-169q3 -42 3 -67h158l-4 -33h-156 q-7 -64 -41 -116q30 -1 59 -11t104 -44q33 -14 64 -14q46 0 84 31q6 5 32 34l27 -24q-41 -44 -72 -60.5t-71 -16.5q-28 0 -48.5 6.5t-97.5 39.5q-59 27 -96 27q-54 0 -106 -66l-29 25q54 65 112 76q37 56 41 113h-112z" />
<glyph unicode="&#x20a7;" horiz-adv-x="676" d="M153 667h103q100 0 147 -44q45 -45 45 -115q0 -52 -24 -96t-65 -66q-44 -26 -146 -26h-60l-39 -320h-43zM191 628l-33 -269h63q83 0 118 21q65 40 65 125q0 59 -36.5 91t-103.5 32h-73zM396 0h-38l26 211h-29l4 34h29l11 87h37l-10 -87h42l-4 -34h-43zM659 217l-24 -22 q-26 23 -52 23q-19 0 -31 -10.5t-12 -26.5q0 -13 8 -20.5t35 -18.5q36 -16 49.5 -31.5t13.5 -41.5q0 -34 -24.5 -55.5t-62.5 -21.5q-33 0 -53 14.5t-36 48.5l33 13q10 -23 22.5 -32t34.5 -9t34.5 11.5t12.5 30.5q0 14 -8.5 22.5t-33.5 19.5q-64 25 -64 69q0 31 24 52t59 21 q43 0 75 -36z" />
<glyph unicode="&#x20ab;" horiz-adv-x="518" d="M560 620l-5 -35h-66l-72 -585h-40l9 66q-42 -44 -75 -60t-79 -16q-82 0 -134.5 54.5t-52.5 138.5q0 96 59.5 161.5t146.5 65.5q54 0 92.5 -23t72.5 -74l33 272h-122l5 35h122l13 109h39l-13 -109h67zM254 373q-71 0 -119.5 -54t-48.5 -133q0 -68 43.5 -114t107.5 -46 q69 0 119 57t50 135q0 68 -42.5 111.5t-109.5 43.5zM9 -76h425l-4 -41h-425z" />
<glyph unicode="&#x20ac;" horiz-adv-x="547" d="M415 266h-265q1 -50 10 -86q18 -76 61 -116t105 -40q79 0 160 60l-6 -44q-73 -50 -161 -50q-101 0 -158.5 73t-58.5 203h-66l15 33h53q3 46 10 76h-65l16 33h57q36 135 111 206.5t181 71.5q110 0 159 -72l-20 -38q-30 42 -61.5 58.5t-80.5 16.5q-90 0 -153 -62.5 t-91 -180.5h312l-15 -33h-303q-9 -55 -10 -76h278z" />
<glyph unicode="&#x2101;" horiz-adv-x="878" d="M35 267l237 424l117 -424h-35l-36 133h-171l-75 -133h-37zM310 430l-49 176l-97 -176h146zM232 12l520 664l26 -20l-520 -665zM829 334l-27 -18q-13 34 -31.5 48t-48.5 14q-34 0 -56 -19.5t-22 -49.5q0 -25 14.5 -41.5t55.5 -40.5q57 -32 76.5 -56.5t19.5 -62.5 q0 -49 -35.5 -82.5t-88.5 -33.5q-92 0 -121 94l31 11q23 -75 90 -75q39 0 64.5 25t25.5 63q0 26 -16 44.5t-60 44.5q-52 30 -71 53.5t-19 56.5q0 43 31.5 71t81.5 28q39 0 63.5 -17t42.5 -57z" />
<glyph unicode="&#x2105;" horiz-adv-x="945" d="M433 623l-5 -43q-37 36 -66.5 49.5t-70.5 13.5q-75 0 -124 -54.5t-49 -138.5q0 -73 43 -116t116 -43q35 0 61.5 11.5t60.5 41.5l-6 -50q-52 -40 -120 -40q-87 0 -141.5 54.5t-54.5 142.5q0 98 61 163.5t152 65.5q79 0 143 -57zM690 413q91 0 147 -58t56 -152 q0 -91 -62 -153.5t-152 -62.5q-89 0 -149 58t-60 145q0 93 64 158t156 65zM690 376q-73 0 -126 -54t-53 -129q0 -71 48.5 -120t118.5 -49q74 0 124 52t50 130q0 76 -45 123t-117 47zM200 16l521 664l25 -20l-520 -664z" />
<glyph unicode="&#x2113;" d="M254 270q-34 -170 -34 -220q0 -25 21 -25q28 0 55 59q7 16 17 16t10 -11q0 -16 -19 -46q-36 -57 -79 -57q-28 0 -44.5 20.5t-16.5 55.5q0 34 16 151q-48 -45 -59 -45q-3 0 -6.5 3.5t-3.5 6.5q0 8 24 27q33 30 52 52q42 217 88 320t101 103q25 0 39.5 -20t14.5 -54 q0 -84 -57 -185q-38 -67 -119 -151zM264 320q137 151 137 285q0 47 -27 47q-30 0 -53.5 -71t-56.5 -261z" />
<glyph unicode="&#x2116;" horiz-adv-x="1097" d="M62 0l83 674l487 -586l71 579h44l-84 -684l-488 586l-70 -569h-43zM976 443q57 0 93.5 -35t36.5 -90q0 -70 -48.5 -118.5t-117.5 -48.5q-58 0 -94.5 35t-36.5 90q0 70 48.5 118.5t118.5 48.5zM971 402q-51 0 -84 -34.5t-33 -87.5q0 -39 24.5 -63.5t63.5 -24.5 q52 0 85.5 34.5t33.5 87.5q0 40 -24.5 64t-65.5 24zM780 57l5 40h296l-5 -40h-296z" />
<glyph unicode="&#x2117;" horiz-adv-x="733" d="M350 318l-23 -185h-40l49 400h59q57 0 89.5 -25.5t32.5 -71.5q0 -59 -47 -93q-36 -25 -101 -25h-19zM372 497l-18 -142h17q105 0 105 77q0 65 -83 65h-21zM385 677q138 0 238 -101.5t100 -241.5q0 -142 -100.5 -243t-242.5 -101q-143 0 -243.5 101t-100.5 245 q0 142 101.5 241.5t247.5 99.5zM384 636q-139 0 -229 -100q-78 -86 -78 -200q0 -128 88 -216.5t215 -88.5q125 0 213.5 89t88.5 214q0 123 -88.5 212.5t-209.5 89.5z" />
<glyph unicode="&#x2122;" horiz-adv-x="771" d="M212 632l-42 -345h-39l42 345h-104l4 35h245l-4 -35h-102zM262 287l204 402l74 -324l163 327l90 -405h-41l-63 294l-162 -323l-75 324l-147 -295h-43z" />
<glyph unicode="&#x2126;" horiz-adv-x="667" d="M40 0v39h201q-201 114 -201 322q0 137 88 230t217 93t217 -93t88 -230q0 -208 -201 -322h201v-39h-256v36q212 122 212 322q0 120 -75.5 203.5t-184.5 83.5q-111 0 -186.5 -82.5t-75.5 -204.5q0 -201 213 -322v-36h-257z" />
<glyph unicode="&#x212e;" horiz-adv-x="597" d="M531 250h-373l-1 -105q16 -52 40 -72q38 -35 107 -35q120 0 168 104h44q-46 -148 -213 -148q-109 0 -170.5 69t-61.5 191q0 123 63 195.5t170 72.5q72 0 126.5 -34t79.5 -94q18 -47 21 -144zM458 285v93q-8 24 -23 41q-50 59 -131 59q-54 0 -86.5 -22.5t-57.5 -77.5v-93 h298z" />
<glyph unicode="&#x2202;" d="M109 633l6 40q145 -21 230 -105q61 -59 95.5 -148.5t34.5 -186.5q0 -91 -38 -149q-29 -45 -75.5 -70.5t-97.5 -25.5q-88 0 -151 66.5t-63 158.5q0 93 61.5 158t149.5 65q101 0 159 -88q-35 122 -114.5 195.5t-196.5 89.5zM270 401q-74 0 -125 -55t-51 -136q0 -77 50 -132 t120 -55q71 0 119 55.5t48 138.5q0 80 -45.5 132t-115.5 52z" />
<glyph unicode="&#x2205;" horiz-adv-x="618" d="M451 667l48 -25l-48 -88q113 -80 113 -204q0 -102 -72 -172.5t-176 -70.5q-46 0 -79 16l-63 -123l-48 25l61 122q-108 80 -108 202q0 102 71 172.5t173 70.5q39 0 81 -14zM428 502l-165 -330q32 -8 58 -8q77 0 132 54.5t55 130.5q0 47 -21.5 89t-58.5 64zM212 198 l166 329q-28 8 -54 8q-78 0 -133.5 -54.5t-55.5 -130.5q0 -90 77 -152z" />
<glyph unicode="&#x2206;" horiz-adv-x="667" d="M45 0l277 667h46l277 -667h-600zM107 40h475l-237 574z" />
<glyph unicode="&#x220f;" horiz-adv-x="681" d="M47 750h611v-40h-77v-760h77v-40h-204v40h84v760h-371v-760h83v-40h-203v40h77v760h-77v40z" />
<glyph unicode="&#x2211;" horiz-adv-x="667" d="M599 750v-217h-40l-3 176h-464l254 -357l-254 -402h473l2 175h41v-215h-564v46l251 396l-251 354v44h555z" />
<glyph unicode="&#x2212;" horiz-adv-x="547" d="M50 321v39h473v-39h-473z" />
<glyph unicode="&#x2218;" d="M265 480q56 0 95.5 -41t39.5 -99t-40 -99t-97 -41t-97.5 41t-40.5 99t40.5 99t99.5 41zM264 433q-39 0 -65.5 -27t-26.5 -66q0 -38 27 -65.5t64 -27.5t63.5 27.5t26.5 65.5t-26 65.5t-63 27.5z" />
<glyph unicode="&#x2219;" horiz-adv-x="208" d="M106 238q27 0 27 -28q0 -14 -11 -24.5t-25 -10.5q-11 0 -18.5 7.5t-7.5 19.5q0 14 10.5 25t24.5 11z" />
<glyph unicode="&#x221a;" horiz-adv-x="667" d="M679 828v-40h-206l-241 -788h-47l-96 314h-77v40h112l47 -150q23 -83 36 -134h3l6 23q32 115 37 130q11 41 66 216l118 389h242z" />
<glyph unicode="&#x221e;" horiz-adv-x="667" d="M346 310q-78 -118 -169 -118q-65 0 -105.5 41.5t-40.5 108.5q0 64 41 105.5t105 41.5q91 0 167 -118q42 64 81.5 91t89.5 27q64 0 104 -41.5t40 -107.5q0 -65 -40 -106.5t-104 -41.5q-50 0 -89.5 27.5t-79.5 90.5zM367 341q38 -60 71.5 -85.5t73.5 -25.5q46 0 75 31 t29 79q0 49 -29.5 80t-75.5 31q-40 0 -72 -24.5t-72 -85.5zM323 340q-38 60 -71.5 85.5t-73.5 25.5q-46 0 -75 -31t-29 -79q0 -49 29.5 -80t75.5 -31q40 0 72 24.5t72 85.5z" />
<glyph unicode="&#x222b;" d="M132 -239l12 39q21 -10 40 -10q43 0 52 39q4 16 4 75v686q0 80 8 104q18 56 89 56q25 0 54 -11l-12 -38q-21 10 -40 10q-43 0 -52 -39q-4 -15 -4 -90v-671q0 -94 -13 -116q-24 -44 -91 -44q-23 0 -47 10z" />
<glyph unicode="&#x223c;" d="M51 274l-28 18q52 103 130 103q40 0 116 -40q72 -37 102 -37q31 0 53.5 17.5t47.5 60.5l29 -17q-54 -102 -134 -102q-22 0 -46 9t-92 43q-49 25 -79 25q-54 0 -99 -80z" />
<glyph unicode="&#x2243;" d="M51 199l-28 19q53 102 130 102q39 0 116 -40q71 -36 102 -36t53.5 17.5t47.5 60.5l29 -17q-54 -102 -134 -102q-22 0 -47 9.5t-91 41.5q-49 25 -79 25q-53 0 -99 -80zM478 128v-40h-433v40h433z" />
<glyph unicode="&#x2248;" d="M51 348l-28 18q54 103 130 103q40 0 116 -40q69 -37 102 -37q31 0 53.5 17.5t47.5 61.5l29 -18q-54 -102 -134 -102q-22 0 -46 9t-92 43q-49 25 -79 25q-54 0 -99 -80zM51 199l-28 19q53 102 130 102q39 0 116 -40q71 -36 102 -36t53.5 17.5t47.5 60.5l29 -17 q-54 -102 -134 -102q-22 0 -47 9.5t-91 41.5q-49 25 -79 25q-53 0 -99 -80z" />
<glyph unicode="&#x2260;" d="M289 426l55 115l34 -9l-50 -106h151v-38h-170l-49 -106h219v-38h-237l-58 -124l-34 9l53 115h-158v38h177l49 106h-226v38h244z" />
<glyph unicode="&#x2264;" d="M478 579v-43l-386 -167l386 -168v-42l-433 190v39zM478 128v-40h-433v40h433z" />
<glyph unicode="&#x2265;" d="M45 159v42l386 168l-386 167v43l433 -191v-40zM45 88v40h433v-40h-433z" />
<glyph unicode="&#xe000;" horiz-adv-x="400" d="M0 400h400v-400h-400v400z" />
<glyph unicode="&#xf6be;" horiz-adv-x="186" d="M134 400l-78 -633h-39l78 633h39z" />
</font>
</defs>
</svg>
