<?xml version="1.0" standalone="no"?>
<!DOCTYPE svg PUBLIC "-//W3C//DTD SVG 1.1//EN" "http://www.w3.org/Graphics/SVG/1.1/DTD/svg11.dtd" >
<svg xmlns="http://www.w3.org/2000/svg">
<metadata></metadata>
<defs>
<font id="louis_vuittonlight" horiz-adv-x="500" >
<font-face units-per-em="1000" ascent="729" descent="-271" />
<missing-glyph horiz-adv-x="250" />
<glyph unicode="ff" horiz-adv-x="425" d="M111 371v-371h-40v371h-45v37h45v194q0 67 20 96q31 43 87 43q18 0 36 -6v-37q-19 5 -32 5q-38 0 -54.5 -25t-16.5 -84v-186h96v-37h-96zM324 371v-371h-40v371h-45v37h45v194q0 67 20 96q31 43 87 43q18 0 36 -6v-37q-20 5 -32 5q-38 0 -54.5 -25t-16.5 -84v-186h103 v-37h-103z" />
<glyph unicode="fi" horiz-adv-x="395" d="M111 371v-371h-40v371h-45v37h45v194q0 67 20 96q31 43 87 43q18 0 36 -6v-37q-19 5 -32 5q-38 0 -54.5 -25t-16.5 -84v-186h103v-37h-103zM324 408v-408h-40v408h40zM304 580q15 0 25.5 -10.5t10.5 -25.5q0 -16 -10.5 -26.5t-25.5 -10.5t-25.5 10.5t-10.5 26.5 q0 15 10.5 25.5t25.5 10.5z" />
<glyph unicode="fl" horiz-adv-x="395" d="M111 371v-371h-40v371h-45v37h45v194q0 67 20 96q31 43 87 43q18 0 36 -6v-37q-19 5 -32 5q-38 0 -54.5 -25t-16.5 -84v-186h103v-37h-103zM324 729v-729h-40v729h40z" />
<glyph unicode="ffi" horiz-adv-x="608" d="M111 371v-371h-40v371h-45v37h45v194q0 67 20 96q31 43 87 43q18 0 36 -6v-37q-19 5 -32 5q-38 0 -54.5 -25t-16.5 -84v-186h96v-37h-96zM324 371v-371h-40v371h-45v37h45v194q0 67 20 96q31 43 87 43q18 0 36 -6v-37q-19 5 -32 5q-38 0 -54.5 -25t-16.5 -84v-186h103 v-37h-103zM536 408v-408h-40v408h40zM516 580q15 0 25.5 -10.5t10.5 -25.5q0 -16 -10.5 -26.5t-25.5 -10.5t-25.5 10.5t-10.5 26.5q0 15 10.5 25.5t25.5 10.5z" />
<glyph unicode="ffl" horiz-adv-x="608" d="M111 371v-371h-40v371h-45v37h45v194q0 67 20 96q31 43 87 43q18 0 36 -6v-37q-19 5 -32 5q-38 0 -54.5 -25t-16.5 -84v-186h96v-37h-96zM324 371v-371h-40v371h-45v37h45v194q0 67 20 96q31 43 87 43q18 0 36 -6v-37q-20 5 -32 5q-38 0 -54.5 -25t-16.5 -84v-186h103 v-37h-103zM536 729v-729h-40v729h40z" />
<glyph unicode=" "  horiz-adv-x="250" />
<glyph unicode="&#x09;" horiz-adv-x="250" />
<glyph unicode="&#xa0;" horiz-adv-x="250" />
<glyph unicode="!" horiz-adv-x="259" d="M130 66q15 0 25.5 -10.5t10.5 -25.5q0 -16 -10.5 -26.5t-25.5 -10.5q-16 0 -26.5 10.5t-10.5 26.5q0 15 11 25.5t26 10.5zM108 119v548h43v-548h-43z" />
<glyph unicode="&#x22;" horiz-adv-x="360" d="M112 438l-7 229h46l-8 -229h-31zM216 438l-7 229h45l-7 -229h-31z" />
<glyph unicode="#" horiz-adv-x="600" d="M555 460v-40h-119l-20 -160h114v-40h-119l-28 -223l-42 6l27 217h-162l-28 -223l-42 6l27 217h-118v40h123l20 160h-118v40h123l25 210l43 -6l-25 -204h160l26 210l43 -6l-25 -204h115zM391 420h-160l-20 -160h161z" />
<glyph unicode="$" horiz-adv-x="547" d="M307 765v-94q43 -6 79.5 -31t55.5 -62l-32 -26q-42 69 -103 78v-264q77 -37 105 -58q63 -45 63 -122q0 -70 -47.5 -123.5t-120.5 -67.5v-102h-39v99q-142 3 -195 142l37 17q50 -119 158 -119v306l-16 8q-51 25 -76 42q-64 47 -64 121q0 68 43 113t113 50v93h39zM307 319 v-283q54 13 89 55t35 94q0 43 -27 72t-97 62zM268 384v248q-48 -4 -80 -39.5t-32 -85.5q0 -40 22.5 -64.5t89.5 -58.5z" />
<glyph unicode="%" horiz-adv-x="605" d="M167 673q58 0 96.5 -37.5t38.5 -93.5t-39 -93.5t-97 -37.5q-57 0 -95 38t-38 95q0 54 39 91.5t95 37.5zM167 637q-38 0 -66 -27.5t-28 -65.5q0 -40 27.5 -68t67.5 -28q39 0 66.5 27.5t27.5 67.5q0 39 -27.5 66.5t-67.5 27.5zM484 682l29 -15l-396 -682l-28 16zM436 256 q58 0 96.5 -37.5t38.5 -93.5t-39 -93.5t-97 -37.5q-57 0 -95 38t-38 95q0 54 39 91.5t95 37.5zM436 219q-39 0 -67 -27.5t-28 -65.5q0 -40 27.5 -68t67.5 -28t67.5 27.5t27.5 67.5q0 39 -27.5 66.5t-67.5 27.5z" />
<glyph unicode="&#x26;" horiz-adv-x="629" d="M323 390l163 -220q38 36 78 89l39 -18q-52 -67 -92 -106l101 -136h-56l-79 106q-76 -64 -132 -91t-109 -27q-72 0 -122.5 50.5t-50.5 122.5q0 67 46.5 123.5t152.5 118.5q-39 58 -53 89t-14 58q0 54 38 92t92 38q51 0 86 -36t35 -88q0 -63 -60 -116q-18 -16 -63 -49z M453 140l-167 228l-14 -9q-6 -4 -49 -31q-116 -74 -116 -164q0 -58 38 -97.5t93 -39.5q84 0 215 113zM298 424q4 3 14 10q56 42 73.5 65.5t17.5 57.5t-23.5 57.5t-57.5 23.5q-35 0 -59.5 -27t-24.5 -65q0 -31 30 -76q26 -39 30 -46z" />
<glyph unicode="'" horiz-adv-x="245" d="M104 438l-7 229h46l-8 -229h-31z" />
<glyph unicode="(" horiz-adv-x="269" d="M157 743l33 -23q-62 -215 -62 -435q0 -221 62 -436l-33 -23q-31 75 -50.5 204t-19.5 255q0 125 19.5 254t50.5 204z" />
<glyph unicode=")" horiz-adv-x="269" d="M113 -174l-33 23q62 216 62 436q0 219 -62 435l33 23q31 -75 50.5 -204t19.5 -254q0 -126 -19.5 -254.5t-50.5 -204.5z" />
<glyph unicode="*" horiz-adv-x="547" d="M255 596l-3 133h43l-3 -133l125 44l14 -41l-128 -38l81 -106l-35 -25l-76 110l-75 -110l-35 25l81 106l-128 38l13 41z" />
<glyph unicode="+" horiz-adv-x="547" d="M31 320v40h222v219h40v-219h222v-40h-222v-219h-40v219h-222z" />
<glyph unicode="," horiz-adv-x="203" d="M98 65l40 -12l-74 -200l-26 10z" />
<glyph unicode="-" horiz-adv-x="168" d="M0 227h168v-40h-168v40z" />
<glyph unicode="." horiz-adv-x="203" d="M102 66q15 0 25.5 -10.5t10.5 -25.5q0 -16 -10.5 -26.5t-25.5 -10.5q-16 0 -26.5 10.5t-10.5 26.5q0 15 11 25.5t26 10.5z" />
<glyph unicode="/" horiz-adv-x="544" d="M514 743l31 -16l-506 -901l-32 16z" />
<glyph unicode="0" horiz-adv-x="547" d="M276 675q99 0 169 -99t70 -239q0 -143 -71 -244.5t-171 -101.5t-171 100.5t-71 243.5q0 140 72 240t173 100zM273 634q-82 0 -140 -88.5t-58 -213.5q0 -128 57.5 -214t142.5 -86q80 0 138.5 89t58.5 211q0 126 -58 214t-141 88z" />
<glyph unicode="1" horiz-adv-x="547" d="M272 627h-104l19 40h128v-667h-43v627z" />
<glyph unicode="2" horiz-adv-x="547" d="M155 40h316v-40h-410l255 282q64 70 89 114.5t25 88.5q0 62 -46 105.5t-111 43.5q-41 0 -77.5 -19.5t-55.5 -51.5q-18 -30 -21 -85h-44q3 71 27 108q26 40 74 64.5t99 24.5q83 0 141 -56.5t58 -136.5q0 -70 -58 -148q-25 -32 -87 -99z" />
<glyph unicode="3" horiz-adv-x="547" d="M262 326v40q50 4 82 25q59 40 59 111q0 57 -37 94.5t-93 37.5q-34 0 -63 -14t-45 -38t-23 -74h-41q7 56 25 89q20 36 59 57t86 21q74 0 125 -50t51 -123q0 -104 -101 -154q53 -21 81.5 -63.5t28.5 -99.5q0 -82 -56.5 -138t-139.5 -56q-51 0 -95 23.5t-67 63.5 q-21 37 -22 86h42q6 -47 22 -71q17 -26 51.5 -43.5t68.5 -17.5q62 0 107 45.5t45 107.5q0 40 -19.5 73.5t-53.5 50.5q-29 14 -77 17z" />
<glyph unicode="4" horiz-adv-x="547" d="M412 167h94v-40h-94v-127h-43v127h-359l402 562v-522zM369 167v392l-279 -392h279z" />
<glyph unicode="5" horiz-adv-x="547" d="M469 627h-223l-55 -180q25 6 49 6q97 0 162.5 -66t65.5 -163q0 -99 -68.5 -166t-170.5 -67q-129 0 -199 110l39 16q59 -85 161 -85q82 0 138 55.5t56 136.5q0 80 -55.5 134t-138.5 54q-49 0 -101 -28l87 283h253v-40z" />
<glyph unicode="6" horiz-adv-x="547" d="M300 675l34 -25l-147 -210q48 18 89 18q96 0 164.5 -68.5t68.5 -164.5q0 -97 -69.5 -165.5t-167.5 -68.5q-99 0 -167.5 68t-68.5 167q0 74 43 136zM273 417q-80 0 -136.5 -56t-56.5 -136t57 -136.5t137 -56.5q79 0 135.5 56.5t56.5 133.5q0 82 -56 138.5t-137 56.5z" />
<glyph unicode="7" horiz-adv-x="547" d="M466 627h-405v40h483l-476 -674l-33 25z" />
<glyph unicode="8" horiz-adv-x="547" d="M188 347q-92 53 -92 153q0 74 51 124.5t127 50.5t127.5 -50t51.5 -124q0 -47 -26 -88.5t-70 -65.5q109 -52 109 -167q0 -80 -56 -134.5t-138 -54.5q-81 0 -136.5 53.5t-55.5 132.5q0 113 108 170zM274 634q-55 0 -94.5 -39t-39.5 -94q0 -57 39 -96.5t95 -39.5t95 39.5 t39 95.5t-39 95t-95 39zM272 327q-61 0 -105 -43t-44 -103q0 -62 43.5 -105.5t105.5 -43.5t105.5 43t43.5 104t-43.5 104.5t-105.5 43.5z" />
<glyph unicode="9" horiz-adv-x="547" d="M247 -8l-34 26l147 209q-48 -17 -89 -17q-96 0 -164.5 68.5t-68.5 163.5q0 97 69.5 165t167.5 68q99 0 167.5 -68t68.5 -166q0 -74 -43 -136zM274 634q-79 0 -136 -56t-57 -134q0 -81 56.5 -137.5t137.5 -56.5q80 0 136.5 56.5t56.5 135.5t-57 135.5t-137 56.5z" />
<glyph unicode=":" horiz-adv-x="203" d="M102 66q15 0 25.5 -10.5t10.5 -25.5q0 -16 -10.5 -26.5t-25.5 -10.5q-16 0 -26.5 10.5t-10.5 26.5q0 15 11 25.5t26 10.5zM102 417q15 0 25.5 -10.5t10.5 -25.5q0 -16 -10.5 -26.5t-25.5 -10.5q-16 0 -26.5 10.5t-10.5 26.5q0 15 11 25.5t26 10.5z" />
<glyph unicode=";" horiz-adv-x="203" d="M98 65l40 -12l-74 -200l-26 10zM106 417q15 0 25.5 -10.5t10.5 -25.5q0 -16 -10.5 -26.5t-25.5 -10.5q-16 0 -26.5 10.5t-10.5 26.5q0 15 11 25.5t26 10.5z" />
<glyph unicode="&#x3c;" d="M466 548v-44l-386 -169l386 -170v-44l-433 194v40z" />
<glyph unicode="=" horiz-adv-x="547" d="M31 373v40h484v-40h-484zM31 267v40h484v-40h-484z" />
<glyph unicode="&#x3e;" d="M34 121v44l386 170l-386 169v44l433 -193v-40z" />
<glyph unicode="?" horiz-adv-x="465" d="M328 257h41v-10q0 -60 -38 -98t-99 -38q-60 0 -99.5 39t-39.5 98q0 101 126 135q51 14 65.5 19.5t27.5 17.5q36 30 36 89q0 53 -34 88.5t-85 35.5q-49 0 -82 -33.5t-33 -82.5q0 -22 6 -48h-41q-6 32 -6 55q0 64 45.5 106.5t113.5 42.5q70 0 114.5 -45t44.5 -116 q0 -43 -18 -79t-48 -55q-17 -11 -30.5 -15.5t-77.5 -21.5q-81 -21 -81 -94q0 -41 27.5 -69t68.5 -28q28 0 51.5 14.5t33.5 38.5q9 20 11 54zM231 66q15 0 25.5 -10.5t10.5 -25.5q0 -16 -10.5 -26.5t-25.5 -10.5q-16 0 -26.5 10.5t-10.5 26.5q0 15 11 25.5t26 10.5z" />
<glyph unicode="@" horiz-adv-x="768" d="M565 504l-27 -224l-8 -52q0 -15 10.5 -25t26.5 -10q46 0 80 55t34 129q0 115 -79.5 189t-202.5 74q-130 0 -219.5 -88.5t-89.5 -218.5q0 -84 40.5 -155.5t110.5 -111.5q72 -40 171 -40q110 0 221 55l14 -34q-113 -56 -234 -56q-112 0 -194 47q-78 44 -122.5 123 t-44.5 173q0 145 100.5 243.5t247.5 98.5q135 0 226 -84.5t91 -209.5q0 -92 -47 -158t-112 -66q-27 0 -46.5 17.5t-19.5 41.5v10q-33 -40 -62 -55.5t-69 -15.5q-68 0 -112.5 46.5t-44.5 117.5q0 82 50.5 137t126.5 55q45 0 75.5 -17.5t59.5 -60.5l9 70h40zM386 475 q-60 0 -100.5 -43.5t-40.5 -108.5q0 -56 34 -93t86 -37q58 0 100.5 47.5t42.5 111.5q0 54 -34.5 88.5t-87.5 34.5z" />
<glyph unicode="A" horiz-adv-x="584" d="M434 219h-284l-89 -219h-48l280 687l278 -687h-49zM418 259l-125 316l-127 -316h252z" />
<glyph unicode="B" horiz-adv-x="533" d="M90 0v667h144q92 0 139 -51q45 -50 45 -124q0 -48 -17.5 -79.5t-60.5 -58.5q49 -13 78 -36q61 -48 61 -133q0 -86 -67 -141q-54 -44 -141 -44h-181zM133 365h85q46 0 68 5.5t43 22.5q44 34 44 100q0 71 -44 106q-38 28 -111 28h-85v-262zM133 40h112q59 0 88.5 8t55.5 32 q46 41 46 105q0 40 -20 73.5t-53 47.5q-44 19 -125 19h-104v-285z" />
<glyph unicode="C" horiz-adv-x="677" d="M623 590v-60q-38 43 -78 65q-71 40 -147 40q-121 0 -210.5 -91t-89.5 -214q0 -135 104 -223q91 -77 196 -77q87 0 167 51q24 14 58 49v-58q-104 -83 -222 -83q-142 0 -245 101.5t-103 241.5t102.5 242t243.5 102q122 0 224 -86z" />
<glyph unicode="D" horiz-adv-x="617" d="M90 0v667h132q151 0 244 -92q98 -98 98 -241q0 -145 -98 -241q-93 -93 -244 -93h-132zM133 40h88q127 0 208 77q90 84 90 217q0 129 -83.5 211t-214.5 82h-88v-587z" />
<glyph unicode="E" horiz-adv-x="463" d="M409 627h-276v-242h270v-40h-270v-305h276v-40h-319v667h319v-40z" />
<glyph unicode="F" horiz-adv-x="406" d="M359 627h-226v-242h220v-40h-220v-345h-43v667h269v-40z" />
<glyph unicode="G" horiz-adv-x="771" d="M437 320h281q0 -64 -8 -102.5t-29 -74.5q-40 -69 -118 -111.5t-165 -42.5q-142 0 -243.5 101t-101.5 241q0 142 102.5 243.5t245.5 101.5q119 0 209 -72q32 -25 80 -84l-35 -27q-37 50 -64 71q-80 71 -192 71q-123 0 -212.5 -90.5t-89.5 -214.5q0 -123 89 -211.5 t211 -88.5q73 0 141.5 36t102.5 92q27 44 30 122h-234v40z" />
<glyph unicode="H" horiz-adv-x="671" d="M133 384h405v283h43v-667h-43v344h-405v-344h-43v667h43v-283z" />
<glyph unicode="I" horiz-adv-x="223" d="M133 667v-667h-43v667h43z" />
<glyph unicode="J" horiz-adv-x="265" d="M175 667v-665q0 -63 -22 -96q-31 -45 -93 -45q-76 0 -113 72l32 24q29 -55 83 -55q70 0 70 100v665h43z" />
<glyph unicode="K" horiz-adv-x="539" d="M133 357l313 310h59l-326 -322l347 -345h-64l-313 317l-16 -16v-301h-43v667h43v-310z" />
<glyph unicode="L" horiz-adv-x="315" d="M133 667v-627h169v-40h-212v667h43z" />
<glyph unicode="M" horiz-adv-x="897" d="M83 0l75 690l288 -617l291 617l76 -690h-44l-60 536l-263 -560l-261 560l-58 -536h-44z" />
<glyph unicode="N" horiz-adv-x="783" d="M90 0v674l560 -586v579h43v-684l-560 586v-569h-43z" />
<glyph unicode="O" horiz-adv-x="798" d="M398 676q142 0 244 -101.5t102 -241.5q0 -142 -102.5 -243t-245.5 -101q-141 0 -242 103t-101 246q0 136 103 237t242 101zM398 635q-122 0 -211 -88.5t-89 -209.5q0 -137 97 -226q89 -81 201 -81q125 0 214 89t89 214q0 124 -88.5 213t-212.5 89z" />
<glyph unicode="P" horiz-adv-x="445" d="M133 317v-317h-43v667h128q98 0 146 -51q48 -50 48 -124q0 -82 -51.5 -128.5t-141.5 -46.5h-86zM133 357h87q67 0 107 37t40 98q0 62 -36 98q-37 37 -117 37h-81v-270z" />
<glyph unicode="Q" horiz-adv-x="798" d="M734 0h-57l-60 68q-103 -79 -221 -79q-141 0 -242 101t-101 242q0 142 101.5 243t244.5 101q142 0 243.5 -100.5t101.5 -242.5q0 -66 -22.5 -121.5t-74.5 -118.5zM481 273l135 -148q46 54 64.5 100t18.5 104q0 127 -87.5 216.5t-211.5 89.5t-213 -89.5t-89 -214.5 q0 -124 88.5 -212.5t212.5 -88.5q96 0 188 69l-166 174h60z" />
<glyph unicode="R" horiz-adv-x="467" d="M202 315l218 -315h-53l-214 315h-20v-315h-43v667h94q93 0 141 -34q67 -47 67 -143q0 -107 -84 -153q-33 -18 -106 -22zM133 355h64q72 0 111.5 35.5t39.5 100.5q0 39 -16 70t-43 46q-36 20 -101 20h-55v-272z" />
<glyph unicode="S" horiz-adv-x="512" d="M425 581l-32 -26q-29 44 -58.5 62t-72.5 18q-53 0 -89 -36.5t-36 -89.5q0 -40 25 -67t93 -60q97 -46 133 -69q70 -47 70 -128t-61 -138.5t-147 -57.5q-140 0 -197 143l37 18q21 -43 37 -64q45 -56 123 -56q67 0 115 45.5t48 109.5t-65 103q-32 18 -124 63q-76 37 -104 71 t-28 88q0 72 48.5 119t122.5 47q107 0 162 -95z" />
<glyph unicode="T" horiz-adv-x="415" d="M227 627v-627h-43v627h-171v40h388v-40h-174z" />
<glyph unicode="U" horiz-adv-x="633" d="M133 667v-417q0 -62 5 -91.5t19 -51.5q22 -34 66.5 -55.5t93.5 -21.5q48 0 92.5 21.5t66.5 55.5q14 22 19 51.5t5 91.5v417h43v-429q0 -66 -7 -98t-28 -60q-30 -42 -81.5 -66.5t-109.5 -24.5q-59 0 -110.5 24.5t-81.5 66.5q-21 28 -28 60t-7 98v429h43z" />
<glyph unicode="V" horiz-adv-x="508" d="M61 667l195 -563l192 563h46l-238 -694l-243 694h48z" />
<glyph unicode="W" horiz-adv-x="982" d="M62 667l181 -564l242 600l226 -600l208 564h49l-257 -692l-226 605l-248 -605l-224 692h49z" />
<glyph unicode="X" horiz-adv-x="462" d="M205 341l-175 326h49l151 -281l150 281h50l-175 -326l184 -341h-49l-160 296l-158 -296h-49z" />
<glyph unicode="Y" horiz-adv-x="514" d="M231 285l-218 382h50l190 -335l195 335h51l-225 -382v-285h-43v285z" />
<glyph unicode="Z" horiz-adv-x="555" d="M111 40h396v-40h-470l407 627h-368v40h443z" />
<glyph unicode="[" horiz-adv-x="277" d="M130 689v-810h107v-39h-150v889h150v-40h-107z" />
<glyph unicode="\" horiz-adv-x="544" d="M30 743l507 -901l-32 -16l-506 901z" />
<glyph unicode="]" horiz-adv-x="277" d="M147 -120v810h-107v39h150v-889h-150v40h107z" />
<glyph unicode="^" d="M85 381h-49l185 287h58l185 -287h-50l-165 253z" />
<glyph unicode="_" d="M0 -76h500v-41h-500v41z" />
<glyph unicode="`" d="M144 581l42 27l92 -125l-30 -16z" />
<glyph unicode="a" horiz-adv-x="515" d="M404 408h40v-408h-40v73q-55 -84 -159 -84q-87 0 -143.5 61.5t-56.5 155.5q0 93 55.5 152t143.5 59q99 0 160 -80v71zM246 380q-68 0 -114 -49.5t-46 -122.5q0 -79 45.5 -130.5t114.5 -51.5q71 0 116 51t45 131q0 84 -51 129q-49 43 -110 43z" />
<glyph unicode="b" horiz-adv-x="515" d="M111 729v-392q60 80 160 80q88 0 143.5 -59t55.5 -152q0 -94 -56.5 -155.5t-143.5 -61.5q-104 0 -159 84v-73h-40v729h40zM270 380q-73 0 -124 -56q-38 -41 -38 -116q0 -79 45 -130.5t115 -51.5q68 0 114.5 51t46.5 126q0 77 -45 127t-114 50z" />
<glyph unicode="c" horiz-adv-x="441" d="M398 365v-53q-67 68 -143 68q-71 0 -120 -51.5t-49 -126.5q0 -73 49 -124.5t120 -51.5q83 0 148 74v-54q-69 -57 -148 -57q-89 0 -149.5 61t-60.5 150q0 93 60.5 155t150.5 62q76 0 142 -52z" />
<glyph unicode="d" horiz-adv-x="515" d="M404 729h40v-729h-40v73q-55 -84 -159 -84q-87 0 -143.5 61.5t-56.5 155.5q0 93 55.5 152t143.5 59q99 0 160 -80v392zM246 380q-68 0 -114 -49.5t-46 -122.5q0 -79 45.5 -130.5t114.5 -51.5q71 0 116 51t45 131q0 84 -51 129q-49 43 -110 43z" />
<glyph unicode="e" horiz-adv-x="484" d="M439 199h-350q1 -56 22 -92q20 -37 57.5 -59t79.5 -22q59 0 103 39q19 18 41 55l34 -20q-62 -111 -181 -111q-87 0 -143.5 60.5t-56.5 152.5q0 93 56.5 154t142.5 61t140 -60t55 -158zM92 237h301q-11 64 -52.5 103.5t-97.5 39.5q-57 0 -99.5 -40.5t-51.5 -102.5z" />
<glyph unicode="f" horiz-adv-x="213" d="M111 371v-371h-40v371h-45v37h45v194q0 67 20 96q31 43 87 43q18 0 36 -6v-37q-19 5 -32 5q-38 0 -54.5 -25t-16.5 -84v-186h103v-37h-103z" />
<glyph unicode="g" horiz-adv-x="521" d="M450 408v-400q0 -62 -9.5 -99.5t-34.5 -68.5q-58 -74 -161 -74q-57 0 -103 23.5t-71 65.5q-20 32 -26 86h41q5 -45 24 -73q44 -65 136 -65q79 0 121.5 53t42.5 152v62q-68 -80 -162 -80q-83 0 -141 62t-58 152q0 91 59 152t146 61q49 0 84.5 -18.5t71.5 -61.5v71h40z M250 380q-67 0 -113.5 -51t-46.5 -124q0 -77 44.5 -127.5t113.5 -50.5q76 0 127 59q38 46 38 120q0 81 -50 127q-50 47 -113 47z" />
<glyph unicode="h" horiz-adv-x="441" d="M71 729h40v-385q46 73 125 73q36 0 66.5 -15.5t46.5 -41.5q20 -33 20 -103v-257h-40v257q0 58 -15 83q-22 40 -83 40q-67 0 -98 -56q-22 -36 -22 -112v-212h-40v729z" />
<glyph unicode="i" horiz-adv-x="183" d="M111 408v-408h-40v408h40zM91 580q15 0 25.5 -10.5t10.5 -25.5q0 -16 -10.5 -26.5t-25.5 -10.5t-25.5 10.5t-10.5 26.5q0 15 10.5 25.5t25.5 10.5z" />
<glyph unicode="j" horiz-adv-x="183" d="M111 408v-647h-40v647h40zM91 580q15 0 25.5 -10.5t10.5 -25.5q0 -16 -10.5 -26.5t-25.5 -10.5t-25.5 10.5t-10.5 26.5q0 15 10.5 25.5t25.5 10.5z" />
<glyph unicode="k" horiz-adv-x="396" d="M111 729v-494l167 173h52l-171 -177l229 -231h-55l-201 202l-21 -21v-181h-40v729h40z" />
<glyph unicode="l" horiz-adv-x="183" d="M111 729v-729h-40v729h40z" />
<glyph unicode="m" horiz-adv-x="648" d="M71 408h40v-51q37 60 105 60q78 0 114 -74q39 74 120 74q66 0 101 -45q25 -32 25 -105v-267h-40v272q0 54 -18 78q-24 30 -70 30q-50 0 -76.5 -34.5t-26.5 -99.5v-246h-40v262q0 49 -15 74q-24 44 -75 44q-27 0 -51 -14.5t-36 -38.5q-17 -36 -17 -91v-236h-40v408z" />
<glyph unicode="n" horiz-adv-x="440" d="M71 408h40v-64q46 73 124 73q36 0 66.5 -15.5t46.5 -41.5q20 -33 20 -103v-257h-40v257q0 58 -15 83q-22 40 -83 40q-66 0 -97 -56q-22 -36 -22 -112v-212h-40v408z" />
<glyph unicode="o" horiz-adv-x="517" d="M259 417q90 0 151.5 -62t61.5 -152q0 -91 -62 -152.5t-153 -61.5q-89 0 -150.5 63t-61.5 155q0 86 63 148t151 62zM257 380q-71 0 -121 -51t-50 -123q0 -76 49 -128t121 -52q74 0 124.5 51t50.5 126t-50 126t-124 51z" />
<glyph unicode="p" horiz-adv-x="515" d="M111 -239h-40v647h40v-73q56 82 159 82q87 0 143.5 -61t56.5 -155t-55.5 -153t-142.5 -59q-100 0 -161 82v-310zM269 380q-71 0 -116 -50.5t-45 -130.5q0 -85 51 -129q49 -44 110 -44q68 0 114 49.5t46 122.5q0 79 -45 130.5t-115 51.5z" />
<glyph unicode="q" horiz-adv-x="515" d="M404 -239v310q-62 -82 -161 -82q-87 0 -142.5 59t-55.5 153t56.5 155t143.5 61q104 0 159 -82v73h40v-647h-40zM247 380q-68 0 -114.5 -50.5t-46.5 -125.5q0 -76 45.5 -127t113.5 -51q73 0 124 56q38 41 38 117q0 80 -45 130.5t-115 50.5z" />
<glyph unicode="r" horiz-adv-x="260" d="M71 408h40v-53q32 62 90 62q20 0 44 -10l-22 -35q-15 9 -28 9q-36 0 -62 -34q-13 -17 -17.5 -42t-4.5 -86v-219h-40v408z" />
<glyph unicode="s" horiz-adv-x="342" d="M287 351l-34 -18q-26 47 -70 47q-29 0 -50 -19.5t-21 -46.5q0 -24 17 -39.5t63 -32.5q57 -21 79 -37q40 -31 40 -87t-37.5 -92.5t-95.5 -36.5q-51 0 -87.5 28t-52.5 80l39 12q28 -83 101 -83q39 0 65.5 26t26.5 65q0 31 -17 49t-62 34q-67 24 -93.5 49t-26.5 63 q0 44 32 74.5t78 30.5q71 0 106 -66z" />
<glyph unicode="t" horiz-adv-x="194" d="M115 371v-371h-40v371h-45v37h45v146h40v-146h72v-37h-72z" />
<glyph unicode="u" horiz-adv-x="436" d="M111 408v-243q0 -63 13 -90q11 -22 37 -35.5t57 -13.5q30 0 56 13.5t37 35.5q13 27 13 90v243h40v-257q0 -77 -30 -112q-42 -50 -116 -50q-75 0 -117 50q-30 35 -30 112v257h40z" />
<glyph unicode="v" horiz-adv-x="390" d="M55 408l141 -330l141 330h45l-186 -433l-188 433h47z" />
<glyph unicode="w" horiz-adv-x="672" d="M54 408l138 -328l142 353l141 -353l142 328h47l-189 -433l-141 354l-141 -354l-185 433h46z" />
<glyph unicode="x" horiz-adv-x="401" d="M174 214l-151 194h52l126 -163l124 163h52l-148 -194l164 -214h-52l-140 183l-140 -183h-53z" />
<glyph unicode="y" horiz-adv-x="428" d="M201 -7l-193 415h47l167 -362l152 362h46l-274 -647h-45z" />
<glyph unicode="z" horiz-adv-x="453" d="M104 37h329v-37h-415l333 371h-280v37h364z" />
<glyph unicode="{" horiz-adv-x="240" d="M211 -127v-37h-9h-14q-57 0 -81 44q-13 26 -13 80v222q0 39 -13 58.5t-45 29.5v30q23 6 37 19q13 13 17 35t4 82v173q0 53 13 80q23 44 81 44h14h9v-36q-7 -1 -15 -1q-26 -1 -34 -6q-25 -16 -25 -79v-176q0 -76 -7.5 -102t-36.5 -48q25 -20 34.5 -42t9.5 -60v-225 q0 -74 35 -83q7 -2 39 -2z" />
<glyph unicode="|" d="M228 667h43v-834h-43v834z" />
<glyph unicode="}" horiz-adv-x="240" d="M29 697v36h9h14q58 0 81 -44q13 -27 13 -80v-222q0 -39 13 -58.5t45 -28.5v-30q-26 -8 -37 -20q-13 -13 -17 -35t-4 -82v-173q0 -54 -13 -80q-24 -44 -81 -44h-14h-9v37q35 0 43 3q31 11 31 82v177q0 75 7.5 101t36.5 49q-25 19 -34.5 41t-9.5 60v225q0 63 -25 79 q-8 5 -34 6q-8 0 -15 1z" />
<glyph unicode="~" horiz-adv-x="667" d="M94 299q29 55 59 78.5t71 23.5q39 0 116 -38q71 -36 104 -36q35 0 58 23q28 28 34 42q5 12 10 12q8 0 26 -18q-57 -102 -129 -102q-25 0 -50.5 8.5t-82.5 37.5q-53 28 -91 28q-30 0 -55 -23t-35 -43q-5 -12 -9 -12q-9 0 -26 19z" />
<glyph unicode="&#xa1;" horiz-adv-x="259" d="M130 514q15 0 25.5 -10.5t10.5 -26.5q0 -15 -11 -25.5t-25 -10.5q-16 0 -26.5 10.5t-10.5 26.5q0 15 10.5 25.5t26.5 10.5zM151 387v-547h-43v547h43z" />
<glyph unicode="&#xa2;" horiz-adv-x="547" d="M318 655v-102q73 -3 129 -52v-52q-57 60 -129 67v-352q36 2 72.5 21.5t61.5 50.5v-53q-27 -24 -64 -39.5t-70 -17.5v-113h-39v114q-83 11 -134 69t-51 141q0 86 51 145t134 70v103h39zM279 165v349q-65 -11 -104.5 -59.5t-39.5 -116.5q0 -66 41.5 -116t102.5 -57z" />
<glyph unicode="&#xa3;" horiz-adv-x="547" d="M276 251h120v-40h-113q3 -20 3 -28q0 -60 -50 -113q42 -14 64 -22q51 -18 72 -18q55 0 95 70l36 -22q-54 -91 -126 -91q-32 0 -109 28q-62 21 -82 21q-43 0 -94 -46l-24 32q22 26 56 42t63 15q56 53 56 107q0 3 -2 25h-110v40h99q-31 60 -72 123q-48 72 -48 130 q0 72 51.5 121t126.5 49q74 0 122 -50t48 -127h-42q-3 45 -17 72q-16 30 -47 47t-68 17q-54 0 -92 -38.5t-38 -93.5q0 -28 10 -50t57 -98q44 -73 55 -102z" />
<glyph unicode="&#xa4;" horiz-adv-x="667" d="M73 116l90 89q-55 67 -55 146q0 77 52 143l-90 90l26 26l90 -90q69 56 147 56q79 0 146 -55l91 89l26 -26l-90 -90q53 -68 53 -144q0 -74 -54 -143l91 -91l-25 -26l-92 91q-66 -54 -145 -54q-75 0 -145 52l-90 -90zM334 537q-77 0 -131 -54.5t-54 -131.5t54.5 -131 t130.5 -54q77 0 130.5 54.5t53.5 132.5q0 75 -54.5 129.5t-129.5 54.5z" />
<glyph unicode="&#xa5;" horiz-adv-x="547" d="M354 391l-61 -103h206v-40h-208v-248h-43v248h-200v40h198l-59 103h-139v40h116l-134 236h51l189 -335l195 335h52l-139 -236h121v-40h-145z" />
<glyph unicode="&#xa6;" d="M228 667h43v-326h-43v326zM228 153h43v-320h-43v320z" />
<glyph unicode="&#xa7;" horiz-adv-x="547" d="M115 3h44q0 -62 16 -89q25 -44 98 -44q55 0 86.5 30t31.5 81q0 65 -55 97q-23 13 -101 40q-135 48 -135 166q0 112 108 162q-50 26 -71 58t-21 82q0 70 45 111.5t121 41.5q103 0 139 -71q15 -29 20 -101h-45q0 132 -115 132q-55 0 -87.5 -31.5t-32.5 -84.5q0 -52 41 -84 q24 -19 95 -40q70 -22 100 -49q50 -44 50 -124q0 -106 -108 -161q97 -43 97 -146q0 -70 -43 -109.5t-120 -39.5q-106 0 -140 67q-15 28 -18 106zM273 414q-52 0 -90 -37.5t-38 -89.5q0 -54 37.5 -92t91.5 -38q53 0 90.5 38t37.5 91t-38 90.5t-91 37.5z" />
<glyph unicode="&#xa8;" d="M168 566q15 0 25.5 -10.5t10.5 -25.5q0 -16 -10.5 -26.5t-25.5 -10.5q-16 0 -26.5 10.5t-10.5 26.5q0 15 11 25.5t26 10.5zM334 566q15 0 25.5 -10.5t10.5 -25.5q0 -16 -10.5 -26.5t-25.5 -10.5q-16 0 -26.5 10.5t-10.5 26.5q0 15 11 25.5t26 10.5z" />
<glyph unicode="&#xa9;" horiz-adv-x="740" d="M514 474v-53q-58 68 -130 68q-64 0 -111.5 -48.5t-47.5 -113.5q0 -63 47.5 -110.5t111.5 -47.5q73 0 130 66v-52q-63 -49 -129 -49q-80 0 -139 58t-59 137q0 80 58.5 138t138.5 58q70 0 130 -51zM376 677q138 0 238 -101.5t100 -241.5q0 -142 -100.5 -243t-242.5 -101 q-143 0 -243.5 101t-100.5 245q0 142 101.5 241.5t247.5 99.5zM375 629q-135 0 -224 -98q-76 -84 -76 -195q0 -125 86 -211.5t210 -86.5q122 0 208.5 86.5t86.5 209.5q0 120 -86.5 207.5t-204.5 87.5z" />
<glyph unicode="&#xaa;" horiz-adv-x="337" d="M264 661h26v-268h-26v48q-37 -55 -104 -55q-56 0 -93.5 40.5t-37.5 101.5t36.5 100t93.5 39q65 0 105 -52v46zM161 643q-45 0 -75 -32.5t-30 -80.5q0 -52 29.5 -86t75.5 -34t75.5 34t29.5 86q0 55 -33 84q-32 29 -72 29z" />
<glyph unicode="&#xab;" horiz-adv-x="347" d="M187 207l107 -126l-26 -24l-129 150l129 149l26 -24zM81 207l106 -126l-25 -24l-129 150l129 149l25 -24z" />
<glyph unicode="&#xac;" d="M423 0v227h-390v40h433v-267h-43z" />
<glyph unicode="&#xad;" horiz-adv-x="168" d="M0 227h168v-40h-168v40z" />
<glyph unicode="&#xae;" horiz-adv-x="740" d="M373 315l121 -175h-46l-118 174v-174h-37v380h58q122 0 122 -104q0 -47 -31 -76q-22 -21 -69 -25zM330 349h28q77 0 77 68t-82 68h-23v-136zM376 677q138 0 238 -101.5t100 -241.5q0 -142 -100.5 -243t-242.5 -101q-143 0 -243.5 101t-100.5 245q0 142 101.5 241.5 t247.5 99.5zM375 629q-135 0 -224 -98q-76 -84 -76 -195q0 -125 86 -211.5t210 -86.5q122 0 208.5 86.5t86.5 209.5q0 120 -86.5 207.5t-204.5 87.5z" />
<glyph unicode="&#xaf;" d="M125 544h249v-38h-249v38z" />
<glyph unicode="&#xb0;" horiz-adv-x="547" d="M275 667q54 0 93 -39t39 -94t-39 -94.5t-94 -39.5t-94.5 39t-39.5 94q0 56 39.5 95t95.5 39zM275 627q-40 0 -67.5 -27t-27.5 -66t27.5 -66.5t66.5 -27.5q38 0 65.5 27.5t27.5 66.5q0 38 -27 65.5t-65 27.5z" />
<glyph unicode="&#xb1;" horiz-adv-x="547" d="M31 320v40h222v219h40v-219h222v-40h-222v-219h-40v219h-222zM31 0v40h484v-40h-484z" />
<glyph unicode="&#xb2;" horiz-adv-x="387" d="M127 297h195v-30h-270l167 172q40 42 55.5 67.5t15.5 50.5q0 35 -28 60t-68 25q-56 0 -81 -41q-12 -17 -13 -52h-34q1 46 18 69q16 24 47.5 39t64.5 15q53 0 90.5 -34t37.5 -83q0 -34 -17.5 -62t-74.5 -87z" />
<glyph unicode="&#xb3;" horiz-adv-x="387" d="M186 459v30q41 2 65 22.5t24 54.5q0 32 -22 53.5t-56 21.5q-71 0 -80 -75h-33q12 106 111 106q48 0 81 -30.5t33 -75.5q0 -61 -58 -91q29 -12 46.5 -38t17.5 -58q0 -50 -36.5 -84t-90.5 -34q-33 0 -61.5 14.5t-43.5 38.5q-14 22 -15 56h33q4 -31 14 -43q11 -15 32 -25 t41 -10q38 0 65.5 26t27.5 61q0 75 -95 80z" />
<glyph unicode="&#xb4;" d="M357 581l-105 -114l-29 16l91 125z" />
<glyph unicode="&#xb5;" horiz-adv-x="436" d="M111 -239h-40v647h40v-243q0 -63 13 -90q11 -22 37 -35.5t57 -13.5q30 0 56 13.5t37 35.5q13 27 13 90v243h40v-257q0 -77 -30 -112q-42 -50 -115 -50q-62 0 -108 43v-271z" />
<glyph unicode="&#xb6;" horiz-adv-x="547" d="M265 -102h-40v440q-60 0 -100 24q-31 20 -49.5 57t-18.5 81q0 76 47 123q42 44 135 44h243l-18 -37h-44v-732h-40v732h-115v-732z" />
<glyph unicode="&#xb7;" horiz-adv-x="206" d="M104 243q15 0 25.5 -10.5t10.5 -25.5q0 -16 -10.5 -26.5t-25.5 -10.5q-16 0 -26.5 10.5t-10.5 26.5q0 15 11 25.5t26 10.5z" />
<glyph unicode="&#xb8;" d="M311 -68l-96 -123l-31 16l82 128z" />
<glyph unicode="&#xb9;" horiz-adv-x="387" d="M189 637h-68l16 30h86v-400h-34v370z" />
<glyph unicode="&#xba;" horiz-adv-x="339" d="M169 667q59 0 99.5 -40.5t40.5 -99.5t-40.5 -99.5t-100.5 -40.5q-58 0 -98.5 41.5t-40.5 100.5q0 57 41 97.5t99 40.5zM168 643q-46 0 -79 -33.5t-33 -80.5q0 -49 32 -83.5t79 -34.5q49 0 82 33.5t33 82.5t-33 82.5t-81 33.5z" />
<glyph unicode="&#xbb;" horiz-adv-x="347" d="M160 207l-107 125l25 24l129 -149l-129 -150l-25 24zM266 207l-107 125l25 24l130 -149l-130 -150l-25 24z" />
<glyph unicode="&#xbc;" horiz-adv-x="904" d="M189 637h-68l16 30h86v-400h-34v370zM636 682l28 -15l-395 -682l-29 16zM802 105h59v-30h-59v-75h-34v75h-229l263 345v-315zM768 105v218l-166 -218h166z" />
<glyph unicode="&#xbd;" horiz-adv-x="904" d="M189 637h-68l16 30h86v-400h-34v370zM636 682l28 -15l-395 -682l-29 16zM644 30h195v-30h-270l167 172q41 42 56 67t15 50q0 35 -28 60t-68 25q-25 0 -47.5 -11t-33.5 -29q-12 -18 -13 -52h-34q1 46 18 69q16 24 47.5 39t64.5 15q53 0 90.5 -34t37.5 -83q0 -34 -17.5 -63 t-74.5 -86z" />
<glyph unicode="&#xbe;" horiz-adv-x="904" d="M186 459v30q41 2 65 22.5t24 54.5q0 32 -22 53.5t-56 21.5q-71 0 -80 -75h-33q12 106 111 106q48 0 81 -30.5t33 -75.5q0 -61 -58 -91q29 -12 46.5 -38t17.5 -58q0 -50 -36.5 -84t-90.5 -34q-33 0 -61.5 14.5t-43.5 38.5q-14 22 -15 56h33q4 -31 14 -43q11 -15 32 -25 t41 -10q38 0 65.5 26t27.5 61q0 75 -95 80zM635 682l29 -15l-395 -682l-29 16zM801 105h60v-30h-60v-75h-34v75h-229l263 345v-315zM767 105v218l-166 -218h166z" />
<glyph unicode="&#xbf;" horiz-adv-x="465" d="M135 250h-40q0 32 4 48q12 45 48 71.5t85 26.5q59 0 98.5 -39t39.5 -98q0 -102 -125 -136q-51 -14 -65.5 -19.5t-27.5 -17.5q-36 -30 -36 -89q0 -53 33.5 -88.5t84.5 -35.5q49 0 82 33.5t33 83.5q0 21 -6 47h41q7 -38 7 -55q0 -63 -45.5 -105.5t-113.5 -42.5 q-70 0 -114.5 45t-44.5 115q0 43 18 79.5t48 55.5q25 15 107 37q81 21 81 94q0 41 -27.5 69t-68.5 28q-27 0 -50.5 -14.5t-33.5 -38.5q-8 -16 -12 -54zM233 513q15 0 25.5 -10.5t10.5 -26.5q0 -15 -11 -25.5t-25 -10.5q-15 0 -26 10.5t-11 26.5q0 15 10.5 25.5t26.5 10.5z " />
<glyph unicode="&#xc0;" horiz-adv-x="584" d="M434 219h-284l-89 -219h-48l280 687l278 -687h-49zM418 259l-125 316l-127 -316h252zM167 816l46 31l122 -108l-35 -26z" />
<glyph unicode="&#xc1;" horiz-adv-x="584" d="M434 219h-284l-89 -219h-48l280 687l278 -687h-49zM418 259l-125 316l-127 -316h252zM421 816l-133 -103l-35 26l122 108z" />
<glyph unicode="&#xc2;" horiz-adv-x="584" d="M434 219h-284l-89 -219h-48l280 687l278 -687h-49zM418 259l-125 316l-127 -316h252zM167 742l125 105l124 -105l-36 -28l-88 75l-89 -75z" />
<glyph unicode="&#xc3;" horiz-adv-x="584" d="M434 219h-284l-89 -219h-48l280 687l278 -687h-49zM418 259l-125 316l-127 -316h252zM194 734l-29 22q15 33 31 46.5t40 13.5q20 0 62 -17q40 -18 57 -18q14 0 22.5 8t18.5 30l28 -22q-20 -60 -71 -60q-20 0 -59 16q-44 19 -61 19q-14 0 -22.5 -8t-16.5 -30z" />
<glyph unicode="&#xc4;" horiz-adv-x="584" d="M434 219h-284l-89 -219h-48l280 687l278 -687h-49zM418 259l-125 316l-127 -316h252zM200 815q16 0 27 -11t11 -27t-11 -27.5t-27 -11.5t-27.5 11t-11.5 28q0 16 11.5 27t27.5 11zM386 815q16 0 27 -11t11 -27t-11 -27.5t-27 -11.5t-27.5 11t-11.5 28q0 16 11.5 27 t27.5 11z" />
<glyph unicode="&#xc5;" horiz-adv-x="584" d="M434 219h-284l-89 -219h-48l280 687l278 -687h-49zM418 259l-125 316l-127 -316h252zM292 867q33 0 56.5 -23.5t23.5 -56.5t-23.5 -56.5t-56.5 -23.5t-56.5 23.5t-23.5 57.5q0 32 23.5 55.5t56.5 23.5zM292 828q-17 0 -29 -12t-12 -28q0 -18 12 -30t29 -12t29 12t12 29 t-12 29t-29 12z" />
<glyph unicode="&#xc6;" horiz-adv-x="851" d="M433 219h-286l-86 -219h-48l269 667h290l16 -40h-275l99 -242h268l16 -40h-267l123 -305h276l16 -40h-323zM416 259l-127 314l-125 -314h252z" />
<glyph unicode="&#xc7;" horiz-adv-x="677" d="M623 590v-60q-38 43 -78 65q-71 40 -147 40q-121 0 -210.5 -91t-89.5 -214q0 -135 104 -223q91 -77 196 -77q87 0 167 51q24 14 58 49v-58q-104 -83 -222 -83q-142 0 -245 101.5t-103 241.5t102.5 242t243.5 102q122 0 224 -86zM420 -72l-102 -126l-36 18l88 133z" />
<glyph unicode="&#xc8;" horiz-adv-x="463" d="M409 627h-276v-242h270v-40h-270v-305h276v-40h-319v667h319v-40zM150 816l46 31l122 -108l-35 -26z" />
<glyph unicode="&#xc9;" horiz-adv-x="463" d="M409 627h-276v-242h270v-40h-270v-305h276v-40h-319v667h319v-40zM367 816l-133 -103l-35 26l122 108z" />
<glyph unicode="&#xca;" horiz-adv-x="463" d="M409 627h-276v-242h270v-40h-270v-305h276v-40h-319v667h319v-40zM126 742l125 105l124 -105l-36 -28l-88 75l-89 -75z" />
<glyph unicode="&#xcb;" horiz-adv-x="463" d="M409 627h-276v-242h270v-40h-270v-305h276v-40h-319v667h319v-40zM159 815q16 0 27 -11t11 -27t-11 -27.5t-27 -11.5q-17 0 -28 11t-11 28q0 16 11.5 27t27.5 11zM345 815q16 0 27 -11t11 -27t-11 -27.5t-27 -11.5q-17 0 -28 11t-11 28q0 16 11.5 27t27.5 11z" />
<glyph unicode="&#xcc;" horiz-adv-x="223" d="M134 667v-667h-43v667h43zM-3 816l45 31l109 -108l-35 -26z" />
<glyph unicode="&#xcd;" horiz-adv-x="223" d="M133 667v-667h-43v667h43zM226 816l-119 -103l-35 26l110 108z" />
<glyph unicode="&#xce;" horiz-adv-x="223" d="M133 667v-667h-43v667h43zM-3 742l115 105l114 -105l-34 -28l-80 75l-81 -75z" />
<glyph unicode="&#xcf;" horiz-adv-x="223" d="M133 667v-667h-43v667h43zM49 815q16 0 27 -11t11 -27t-11 -27.5t-27 -11.5q-17 0 -28 11t-11 28q0 16 11.5 27t27.5 11zM175 815q16 0 27 -11t11 -27t-11 -27.5t-27 -11.5q-17 0 -28 11t-11 28q0 16 11.5 27t27.5 11z" />
<glyph unicode="&#xd0;" horiz-adv-x="617" d="M90 0v343h-67v40h67v284h132q151 0 244 -92q98 -98 98 -242t-98 -240q-93 -93 -244 -93h-132zM133 40h88q131 0 214.5 82t83.5 211t-83.5 211.5t-214.5 82.5h-88v-244h167v-40h-167v-303z" />
<glyph unicode="&#xd1;" horiz-adv-x="783" d="M90 0v674l560 -586v579h43v-684l-560 586v-569h-43zM291 734l-29 22q15 33 31 46.5t40 13.5q20 0 62 -17q40 -18 57 -18q14 0 22.5 8t18.5 30l28 -22q-20 -60 -71 -60q-20 0 -59 16q-44 19 -61 19q-14 0 -22.5 -8t-16.5 -30z" />
<glyph unicode="&#xd2;" horiz-adv-x="798" d="M398 676q142 0 244 -101.5t102 -241.5q0 -142 -102.5 -243t-245.5 -101q-141 0 -242 103t-101 246q0 136 103 237t242 101zM398 635q-122 0 -211 -88.5t-89 -209.5q0 -137 97 -226q89 -81 201 -81q125 0 214 89t89 214q0 124 -88.5 213t-212.5 89zM292 816l46 31 l122 -108l-35 -26z" />
<glyph unicode="&#xd3;" horiz-adv-x="798" d="M398 676q142 0 244 -101.5t102 -241.5q0 -142 -102.5 -243t-245.5 -101q-141 0 -242 103t-101 246q0 136 103 237t242 101zM398 635q-122 0 -211 -88.5t-89 -209.5q0 -137 97 -226q89 -81 201 -81q125 0 214 89t89 214q0 124 -88.5 213t-212.5 89zM521 816l-133 -103 l-35 26l122 108z" />
<glyph unicode="&#xd4;" horiz-adv-x="798" d="M398 676q142 0 244 -101.5t102 -241.5q0 -142 -102.5 -243t-245.5 -101q-141 0 -242 103t-101 246q0 136 103 237t242 101zM398 635q-122 0 -211 -88.5t-89 -209.5q0 -137 97 -226q89 -81 201 -81q125 0 214 89t89 214q0 124 -88.5 213t-212.5 89zM274 742l125 105 l124 -105l-36 -28l-88 75l-89 -75z" />
<glyph unicode="&#xd5;" horiz-adv-x="798" d="M398 676q142 0 244 -101.5t102 -241.5q0 -142 -102.5 -243t-245.5 -101q-141 0 -242 103t-101 246q0 136 103 237t242 101zM398 635q-122 0 -211 -88.5t-89 -209.5q0 -137 97 -226q89 -81 201 -81q125 0 214 89t89 214q0 124 -88.5 213t-212.5 89zM305 734l-29 22 q15 33 31 46.5t40 13.5q20 0 62 -17q40 -18 57 -18q14 0 22.5 8t18.5 30l28 -22q-20 -60 -71 -60q-20 0 -59 16q-44 19 -61 19q-14 0 -22.5 -8t-16.5 -30z" />
<glyph unicode="&#xd6;" horiz-adv-x="798" d="M398 676q142 0 244 -101.5t102 -241.5q0 -142 -102.5 -243t-245.5 -101q-141 0 -242 103t-101 246q0 136 103 237t242 101zM398 635q-122 0 -211 -88.5t-89 -209.5q0 -137 97 -226q89 -81 201 -81q125 0 214 89t89 214q0 124 -88.5 213t-212.5 89zM306 815q16 0 27 -11 t11 -27t-11 -27.5t-27 -11.5t-27.5 11t-11.5 28q0 16 11.5 27t27.5 11zM492 815q16 0 27 -11t11 -27t-11 -27.5t-27 -11.5t-27.5 11t-11.5 28q0 16 11.5 27t27.5 11z" />
<glyph unicode="&#xd7;" horiz-adv-x="547" d="M77 509l27 28l169 -170l170 170l27 -28l-169 -169l169 -169l-27 -27l-170 169l-169 -169l-27 27l169 169z" />
<glyph unicode="&#xd8;" horiz-adv-x="798" d="M60 23l79 83q-86 100 -86 228q0 139 102.5 240.5t242.5 101.5q123 0 225 -84l81 81l27 -26l-80 -81q93 -102 93 -234q0 -140 -102 -241.5t-243 -101.5q-127 0 -233 91l-81 -84zM171 135l421 428q-87 72 -194 72q-122 0 -211 -89.5t-89 -212.5q0 -112 73 -198zM619 538 l-422 -430q90 -78 202 -78q122 0 211 89.5t89 212.5q0 117 -80 206z" />
<glyph unicode="&#xd9;" horiz-adv-x="633" d="M133 667v-417q0 -62 5 -91.5t19 -51.5q22 -34 66.5 -55.5t93.5 -21.5q48 0 92.5 21.5t66.5 55.5q14 22 19 51.5t5 91.5v417h43v-429q0 -66 -7 -98t-28 -60q-30 -42 -81.5 -66.5t-109.5 -24.5q-59 0 -110.5 24.5t-81.5 66.5q-21 28 -28 60t-7 98v429h43zM205 816l46 31 l122 -108l-35 -26z" />
<glyph unicode="&#xda;" horiz-adv-x="633" d="M133 667v-417q0 -62 5 -91.5t19 -51.5q22 -34 66.5 -55.5t93.5 -21.5q48 0 92.5 21.5t66.5 55.5q14 22 19 51.5t5 91.5v417h43v-429q0 -66 -7 -98t-28 -60q-30 -42 -81.5 -66.5t-109.5 -24.5q-59 0 -110.5 24.5t-81.5 66.5q-21 28 -28 60t-7 98v429h43zM435 816 l-133 -103l-35 26l122 108z" />
<glyph unicode="&#xdb;" horiz-adv-x="633" d="M133 667v-417q0 -62 5 -91.5t19 -51.5q22 -34 66.5 -55.5t93.5 -21.5q48 0 92.5 21.5t66.5 55.5q14 22 19 51.5t5 91.5v417h43v-429q0 -66 -7 -98t-28 -60q-30 -42 -81.5 -66.5t-109.5 -24.5q-59 0 -110.5 24.5t-81.5 66.5q-21 28 -28 60t-7 98v429h43zM192 742l125 105 l124 -105l-36 -28l-88 75l-89 -75z" />
<glyph unicode="&#xdc;" horiz-adv-x="633" d="M133 667v-417q0 -62 5 -91.5t19 -51.5q22 -34 66.5 -55.5t93.5 -21.5q48 0 92.5 21.5t66.5 55.5q14 22 19 51.5t5 91.5v417h43v-429q0 -66 -7 -98t-28 -60q-30 -42 -81.5 -66.5t-109.5 -24.5q-59 0 -110.5 24.5t-81.5 66.5q-21 28 -28 60t-7 98v429h43zM224 815 q16 0 27 -11t11 -27t-11 -27.5t-27 -11.5t-27.5 11t-11.5 28q0 16 11.5 27t27.5 11zM410 815q16 0 27 -11t11 -27t-11 -27.5t-27 -11.5t-27.5 11t-11.5 28q0 16 11.5 27t27.5 11z" />
<glyph unicode="&#xdd;" horiz-adv-x="514" d="M231 285l-218 382h50l190 -335l195 335h51l-225 -382v-285h-43v285zM375 816l-133 -103l-35 26l122 108z" />
<glyph unicode="&#xde;" horiz-adv-x="445" d="M133 217v-217h-43v667h43v-100h85q98 0 146 -51q48 -50 48 -124q0 -82 -51.5 -128.5t-141.5 -46.5h-86zM133 257h87q67 0 107 37t40 98q0 62 -36 98q-37 37 -117 37h-81v-270z" />
<glyph unicode="&#xdf;" horiz-adv-x="492" d="M71 0v371h-43v37h43v177q0 76 38 114q40 42 107 42q62 0 102.5 -40t40.5 -102q0 -87 -78 -123q56 -20 85 -47q36 -31 58 -82t22 -103q0 -59 -28 -111.5t-78 -88.5q-54 -38 -133 -49v41q90 13 144 70t54 140q0 52 -24 98.5t-65 72.5q-41 27 -109 38v35q46 4 67 20 q20 13 32 38t12 52q0 46 -29 75t-75 29q-60 0 -84 -39q-19 -28 -19 -94v-571h-40z" />
<glyph unicode="&#xe0;" horiz-adv-x="515" d="M404 408h40v-408h-40v73q-55 -84 -159 -84q-87 0 -143.5 61.5t-56.5 155.5q0 93 55.5 152t143.5 59q99 0 160 -80v71zM246 380q-68 0 -114 -49.5t-46 -122.5q0 -79 45.5 -130.5t114.5 -51.5q71 0 116 51t45 131q0 84 -51 129q-49 43 -110 43zM178 581l42 27l92 -125 l-30 -16z" />
<glyph unicode="&#xe1;" horiz-adv-x="515" d="M404 408h40v-408h-40v73q-55 -84 -159 -84q-87 0 -143.5 61.5t-56.5 155.5q0 93 55.5 152t143.5 59q99 0 160 -80v71zM246 380q-68 0 -114 -49.5t-46 -122.5q0 -79 45.5 -130.5t114.5 -51.5q71 0 116 51t45 131q0 84 -51 129q-49 43 -110 43zM350 581l-105 -114l-29 16 l91 125z" />
<glyph unicode="&#xe2;" horiz-adv-x="515" d="M404 408h40v-408h-40v73q-55 -84 -159 -84q-87 0 -143.5 61.5t-56.5 155.5q0 93 55.5 152t143.5 59q99 0 160 -80v71zM246 380q-68 0 -114 -49.5t-46 -122.5q0 -79 45.5 -130.5t114.5 -51.5q71 0 116 51t45 131q0 84 -51 129q-49 43 -110 43zM136 492l122 114l121 -114 l-32 -25l-89 87l-89 -87z" />
<glyph unicode="&#xe3;" horiz-adv-x="515" d="M404 408h40v-408h-40v73q-55 -84 -159 -84q-87 0 -143.5 61.5t-56.5 155.5q0 93 55.5 152t143.5 59q99 0 160 -80v71zM246 380q-68 0 -114 -49.5t-46 -122.5q0 -79 45.5 -130.5t114.5 -51.5q71 0 116 51t45 131q0 84 -51 129q-49 43 -110 43zM161 490l-26 19q25 58 69 58 q24 0 87 -29q16 -8 28 -8q24 0 42 38l25 -19q-18 -58 -70 -58q-17 0 -54 16q-48 22 -63 22q-24 0 -38 -39z" />
<glyph unicode="&#xe4;" horiz-adv-x="515" d="M404 408h40v-408h-40v73q-55 -84 -159 -84q-87 0 -143.5 61.5t-56.5 155.5q0 93 55.5 152t143.5 59q99 0 160 -80v71zM246 380q-68 0 -114 -49.5t-46 -122.5q0 -79 45.5 -130.5t114.5 -51.5q71 0 116 51t45 131q0 84 -51 129q-49 43 -110 43zM174 566q15 0 25.5 -10.5 t10.5 -25.5q0 -16 -10.5 -26.5t-25.5 -10.5q-16 0 -26.5 10.5t-10.5 26.5q0 15 11 25.5t26 10.5zM340 566q15 0 25.5 -10.5t10.5 -25.5q0 -16 -10.5 -26.5t-25.5 -10.5q-16 0 -26.5 10.5t-10.5 26.5q0 15 11 25.5t26 10.5z" />
<glyph unicode="&#xe5;" horiz-adv-x="515" d="M404 408h40v-408h-40v73q-55 -84 -159 -84q-87 0 -143.5 61.5t-56.5 155.5q0 93 55.5 152t143.5 59q99 0 160 -80v71zM246 380q-68 0 -114 -49.5t-46 -122.5q0 -79 45.5 -130.5t114.5 -51.5q71 0 116 51t45 131q0 84 -51 129q-49 43 -110 43zM257 620q32 0 54.5 -22 t22.5 -54t-22 -54.5t-54 -22.5t-54.5 22.5t-22.5 54.5q0 31 22.5 53.5t53.5 22.5zM257 584q-17 0 -29 -12t-12 -28q0 -18 12 -30t30 -12q17 0 29 12t12 29t-12 29t-30 12z" />
<glyph unicode="&#xe6;" horiz-adv-x="793" d="M749 198h-351q1 -51 20 -88q20 -38 56.5 -61t79.5 -23q59 0 105 39q20 19 42 54l34 -24q-72 -106 -181 -106q-56 0 -100.5 27t-67.5 75q-16 -49 -60.5 -75.5t-109.5 -26.5q-74 0 -122.5 36t-48.5 91q0 58 49.5 93.5t130.5 35.5q77 0 128 -42q0 86 -36.5 131.5 t-105.5 45.5q-57 0 -138 -38v41q71 34 142 34q119 0 163 -114q20 40 41 60q54 54 134 54q54 0 100.5 -28.5t69.5 -77.5q22 -45 26 -113zM401 236h302q-6 40 -24 71q-20 33 -55 53t-73 20q-58 0 -98.5 -39.5t-51.5 -104.5zM221 208q-61 0 -98 -25t-37 -66q0 -46 39 -69 q37 -22 90 -22q62 0 99 25.5t37 68.5q0 40 -35.5 64t-94.5 24z" />
<glyph unicode="&#xe7;" horiz-adv-x="441" d="M398 365v-53q-67 68 -143 68q-71 0 -120 -51.5t-49 -126.5q0 -73 49 -124.5t120 -51.5q83 0 148 74v-54q-69 -57 -148 -57q-89 0 -149.5 61t-60.5 150q0 93 60.5 155t150.5 62q76 0 142 -52zM274 -68l-96 -123l-31 16l82 128z" />
<glyph unicode="&#xe8;" horiz-adv-x="484" d="M439 199h-350q1 -56 22 -92q20 -37 57.5 -59t79.5 -22q59 0 103 39q19 18 41 55l34 -20q-62 -111 -181 -111q-87 0 -143.5 60.5t-56.5 152.5q0 93 56.5 154t142.5 61t140 -60t55 -158zM92 237h301q-11 64 -52.5 103.5t-97.5 39.5q-57 0 -99.5 -40.5t-51.5 -102.5z M164 581l42 27l92 -125l-30 -16z" />
<glyph unicode="&#xe9;" horiz-adv-x="484" d="M439 199h-350q1 -56 22 -92q20 -37 57.5 -59t79.5 -22q59 0 103 39q19 18 41 55l34 -20q-62 -111 -181 -111q-87 0 -143.5 60.5t-56.5 152.5q0 93 56.5 154t142.5 61t140 -60t55 -158zM92 237h301q-11 64 -52.5 103.5t-97.5 39.5q-57 0 -99.5 -40.5t-51.5 -102.5z M340 581l-105 -114l-29 16l91 125z" />
<glyph unicode="&#xea;" horiz-adv-x="484" d="M439 199h-350q1 -56 22 -92q20 -37 57.5 -59t79.5 -22q59 0 103 39q19 18 41 55l34 -20q-62 -111 -181 -111q-87 0 -143.5 60.5t-56.5 152.5q0 93 56.5 154t142.5 61t140 -60t55 -158zM92 237h301q-11 64 -52.5 103.5t-97.5 39.5q-57 0 -99.5 -40.5t-51.5 -102.5z M125 492l122 114l121 -114l-32 -25l-89 87l-89 -87z" />
<glyph unicode="&#xeb;" horiz-adv-x="484" d="M439 199h-350q1 -56 22 -92q20 -37 57.5 -59t79.5 -22q59 0 103 39q19 18 41 55l34 -20q-62 -111 -181 -111q-87 0 -143.5 60.5t-56.5 152.5q0 93 56.5 154t142.5 61t140 -60t55 -158zM92 237h301q-11 64 -52.5 103.5t-97.5 39.5q-57 0 -99.5 -40.5t-51.5 -102.5z M163 566q15 0 25.5 -10.5t10.5 -25.5q0 -16 -10.5 -26.5t-25.5 -10.5q-16 0 -26.5 10.5t-10.5 26.5q0 15 11 25.5t26 10.5zM329 566q15 0 25.5 -10.5t10.5 -25.5q0 -16 -10.5 -26.5t-25.5 -10.5q-16 0 -26.5 10.5t-10.5 26.5q0 15 11 25.5t26 10.5z" />
<glyph unicode="&#xec;" horiz-adv-x="183" d="M112 408v-408h-40v408h40zM-15 581l42 27l92 -125l-30 -16z" />
<glyph unicode="&#xed;" horiz-adv-x="183" d="M112 408v-408h-40v408h40zM199 581l-105 -114l-29 16l91 125z" />
<glyph unicode="&#xee;" horiz-adv-x="183" d="M111 408v-408h-40v408h40zM-12 492l103 114l103 -114l-32 -25l-71 83l-71 -83z" />
<glyph unicode="&#xef;" horiz-adv-x="183" d="M111 408v-408h-40v408h40zM34 566q15 0 25.5 -10.5t10.5 -25.5q0 -16 -10.5 -26.5t-25.5 -10.5q-16 0 -26.5 10.5t-10.5 26.5q0 15 11 25.5t26 10.5zM149 566q15 0 25.5 -10.5t10.5 -25.5q0 -16 -10.5 -26.5t-25.5 -10.5q-16 0 -26.5 10.5t-10.5 26.5q0 15 11 25.5 t26 10.5z" />
<glyph unicode="&#xf0;" horiz-adv-x="517" d="M75 704l18 28q89 -23 155 -67l107 55l19 -31l-91 -49q88 -73 139 -186.5t51 -236.5q0 -101 -59 -164.5t-153 -63.5q-91 0 -153.5 61.5t-62.5 151.5q0 89 62 151.5t151 62.5q85 0 153 -64q-25 90 -63.5 151t-103.5 117l-106 -59l-18 32l89 50q-45 31 -134 61zM257 379 q-71 0 -121 -51t-50 -123q0 -76 49 -127.5t121 -51.5q74 0 124.5 51t50.5 126q0 74 -50.5 125t-123.5 51z" />
<glyph unicode="&#xf1;" horiz-adv-x="440" d="M71 408h40v-64q46 73 124 73q36 0 66.5 -15.5t46.5 -41.5q20 -33 20 -103v-257h-40v257q0 58 -15 83q-22 40 -83 40q-66 0 -97 -56q-22 -36 -22 -112v-212h-40v408zM120 490l-26 19q25 58 69 58q24 0 87 -29q16 -8 28 -8q24 0 42 38l25 -19q-18 -58 -70 -58q-17 0 -54 16 q-48 22 -63 22q-24 0 -38 -39z" />
<glyph unicode="&#xf2;" horiz-adv-x="517" d="M259 417q90 0 151.5 -62t61.5 -152q0 -91 -62 -152.5t-153 -61.5q-89 0 -150.5 63t-61.5 155q0 86 63 148t151 62zM257 380q-71 0 -121 -51t-50 -123q0 -76 49 -128t121 -52q74 0 124.5 51t50.5 126t-50 126t-124 51zM174 581l42 27l92 -125l-30 -16z" />
<glyph unicode="&#xf3;" horiz-adv-x="517" d="M259 417q90 0 151.5 -62t61.5 -152q0 -91 -62 -152.5t-153 -61.5q-89 0 -150.5 63t-61.5 155q0 86 63 148t151 62zM257 380q-71 0 -121 -51t-50 -123q0 -76 49 -128t121 -52q74 0 124.5 51t50.5 126t-50 126t-124 51zM357 581l-105 -114l-29 16l91 125z" />
<glyph unicode="&#xf4;" horiz-adv-x="517" d="M259 417q90 0 151.5 -62t61.5 -152q0 -91 -62 -152.5t-153 -61.5q-89 0 -150.5 63t-61.5 155q0 86 63 148t151 62zM257 380q-71 0 -121 -51t-50 -123q0 -76 49 -128t121 -52q74 0 124.5 51t50.5 126t-50 126t-124 51zM137 492l122 114l121 -114l-32 -25l-89 87l-89 -87z " />
<glyph unicode="&#xf5;" horiz-adv-x="517" d="M259 417q90 0 151.5 -62t61.5 -152q0 -91 -62 -152.5t-153 -61.5q-89 0 -150.5 63t-61.5 155q0 86 63 148t151 62zM257 380q-71 0 -121 -51t-50 -123q0 -76 49 -128t121 -52q74 0 124.5 51t50.5 126t-50 126t-124 51zM166 490l-26 19q25 58 69 58q24 0 87 -29 q16 -8 28 -8q24 0 42 38l25 -19q-18 -58 -70 -58q-17 0 -54 16q-48 22 -63 22q-24 0 -38 -39z" />
<glyph unicode="&#xf6;" horiz-adv-x="517" d="M259 417q90 0 151.5 -62t61.5 -152q0 -91 -62 -152.5t-153 -61.5q-89 0 -150.5 63t-61.5 155q0 86 63 148t151 62zM257 380q-71 0 -121 -51t-50 -123q0 -76 49 -128t121 -52q74 0 124.5 51t50.5 126t-50 126t-124 51zM176 566q15 0 25.5 -10.5t10.5 -25.5 q0 -16 -10.5 -26.5t-25.5 -10.5q-16 0 -26.5 10.5t-10.5 26.5q0 15 11 25.5t26 10.5zM342 566q15 0 25.5 -10.5t10.5 -25.5q0 -16 -10.5 -26.5t-25.5 -10.5q-16 0 -26.5 10.5t-10.5 26.5q0 15 11 25.5t26 10.5z" />
<glyph unicode="&#xf7;" horiz-adv-x="547" d="M31 320v40h484v-40h-484zM273 267q15 0 25.5 -10.5t10.5 -25.5q0 -16 -10.5 -26.5t-25.5 -10.5q-16 0 -26.5 10.5t-10.5 26.5q0 15 11 25.5t26 10.5zM273 480q15 0 25.5 -10.5t10.5 -25.5q0 -16 -10.5 -26.5t-25.5 -10.5q-16 0 -26.5 10.5t-10.5 26.5q0 15 11 25.5 t26 10.5z" />
<glyph unicode="&#xf8;" horiz-adv-x="517" d="M41 13l52 54q-48 59 -48 137q0 88 62.5 150.5t150.5 62.5q76 0 136 -48l54 54l25 -24l-54 -54q53 -60 53 -143q0 -89 -61.5 -151t-150.5 -62q-79 0 -143 54l-54 -55zM122 94l243 248q-50 38 -108 38q-71 0 -121 -51.5t-50 -124.5q0 -63 36 -110zM390 319l-245 -250 q50 -43 113 -43q73 0 123 51t50 126q0 65 -41 116z" />
<glyph unicode="&#xf9;" horiz-adv-x="436" d="M111 408v-243q0 -63 13 -90q11 -22 37 -35.5t57 -13.5q30 0 56 13.5t37 35.5q13 27 13 90v243h40v-257q0 -77 -30 -112q-42 -50 -116 -50q-75 0 -117 50q-30 35 -30 112v257h40zM131 581l42 27l92 -125l-30 -16z" />
<glyph unicode="&#xfa;" horiz-adv-x="436" d="M111 408v-243q0 -63 13 -90q11 -22 37 -35.5t57 -13.5q30 0 56 13.5t37 35.5q13 27 13 90v243h40v-257q0 -77 -30 -112q-42 -50 -116 -50q-75 0 -117 50q-30 35 -30 112v257h40zM315 581l-105 -114l-29 16l91 125z" />
<glyph unicode="&#xfb;" horiz-adv-x="436" d="M111 408v-243q0 -63 13 -90q11 -22 37 -35.5t57 -13.5q30 0 56 13.5t37 35.5q13 27 13 90v243h40v-257q0 -77 -30 -112q-42 -50 -116 -50q-75 0 -117 50q-30 35 -30 112v257h40zM96 492l122 114l121 -114l-32 -25l-89 87l-89 -87z" />
<glyph unicode="&#xfc;" horiz-adv-x="436" d="M111 408v-243q0 -63 13 -90q11 -22 37 -35.5t57 -13.5q30 0 56 13.5t37 35.5q13 27 13 90v243h40v-257q0 -77 -30 -112q-42 -50 -116 -50q-75 0 -117 50q-30 35 -30 112v257h40zM135 566q15 0 25.5 -10.5t10.5 -25.5q0 -16 -10.5 -26.5t-25.5 -10.5q-16 0 -26.5 10.5 t-10.5 26.5q0 15 11 25.5t26 10.5zM301 566q15 0 25.5 -10.5t10.5 -25.5q0 -16 -10.5 -26.5t-25.5 -10.5q-16 0 -26.5 10.5t-10.5 26.5q0 15 11 25.5t26 10.5z" />
<glyph unicode="&#xfd;" horiz-adv-x="428" d="M201 -7l-193 415h47l167 -362l152 362h46l-274 -647h-45zM311 581l-105 -114l-29 16l91 125z" />
<glyph unicode="&#xfe;" horiz-adv-x="515" d="M111 -239h-40v968h40v-394q56 82 159 82q87 0 143.5 -61t56.5 -155t-55.5 -153t-142.5 -59q-100 0 -161 82v-310zM269 380q-71 0 -116 -50.5t-45 -130.5q0 -85 51 -129q49 -44 110 -44q68 0 114 49.5t46 122.5q0 79 -45 130.5t-115 51.5z" />
<glyph unicode="&#xff;" horiz-adv-x="428" d="M201 -7l-193 415h47l167 -362l152 362h46l-274 -647h-45zM132 566q15 0 25.5 -10.5t10.5 -25.5q0 -16 -10.5 -26.5t-25.5 -10.5q-16 0 -26.5 10.5t-10.5 26.5q0 15 11 25.5t26 10.5zM298 566q15 0 25.5 -10.5t10.5 -25.5q0 -16 -10.5 -26.5t-25.5 -10.5q-16 0 -26.5 10.5 t-10.5 26.5q0 15 11 25.5t26 10.5z" />
<glyph unicode="&#x100;" horiz-adv-x="584" d="M434 219h-284l-89 -219h-48l280 687l278 -687h-49zM418 259l-125 316l-127 -316h252zM155 797h273v-43h-273v43z" />
<glyph unicode="&#x101;" horiz-adv-x="515" d="M404 408h40v-408h-40v73q-55 -84 -159 -84q-87 0 -143.5 61.5t-56.5 155.5q0 93 55.5 152t143.5 59q99 0 160 -80v71zM246 380q-68 0 -114 -49.5t-46 -122.5q0 -79 45.5 -130.5t114.5 -51.5q71 0 116 51t45 131q0 84 -51 129q-49 43 -110 43zM131 544h249v-38h-249v38z " />
<glyph unicode="&#x102;" horiz-adv-x="584" d="M434 219h-284l-89 -219h-48l280 687l278 -687h-49zM418 259l-125 316l-127 -316h252zM168 835h42q19 -74 82 -74t82 74h42q-7 -55 -40 -86.5t-84 -31.5t-84 31.5t-40 86.5z" />
<glyph unicode="&#x103;" horiz-adv-x="515" d="M404 408h40v-408h-40v73q-55 -84 -159 -84q-87 0 -143.5 61.5t-56.5 155.5q0 93 55.5 152t143.5 59q99 0 160 -80v71zM246 380q-68 0 -114 -49.5t-46 -122.5q0 -79 45.5 -130.5t114.5 -51.5q71 0 116 51t45 131q0 84 -51 129q-49 43 -110 43zM139 593h38q19 -84 80 -84 q62 0 81 84h38q-7 -56 -39 -89.5t-80 -33.5t-80 33.5t-38 89.5z" />
<glyph unicode="&#x104;" horiz-adv-x="584" d="M293 687l278 -687q-82 -49 -82 -101q0 -50 51 -50q26 0 59 18l-10 -41q-31 -13 -59 -13q-40 0 -63.5 21.5t-23.5 59.5q0 33 16.5 55.5t62.5 50.5l-88 219h-284l-89 -219h-48zM418 259l-125 316l-127 -316h252z" />
<glyph unicode="&#x105;" horiz-adv-x="515" d="M444 408v-408q-71 -43 -71 -91q0 -22 12 -34.5t32 -12.5q21 0 54 17l-9 -40q-28 -13 -55 -13q-35 0 -57 21t-22 54q0 60 76 99v73q-55 -84 -159 -84q-87 0 -143.5 61.5t-56.5 155.5q0 93 55.5 152t143.5 59q99 0 160 -80v71h40zM246 380q-68 0 -114 -49.5t-46 -122.5 q0 -79 45.5 -130.5t114.5 -51.5q71 0 116 51t45 131q0 84 -51 129q-49 43 -110 43z" />
<glyph unicode="&#x106;" horiz-adv-x="677" d="M623 590v-60q-38 43 -78 65q-71 40 -147 40q-121 0 -210.5 -91t-89.5 -214q0 -135 104 -223q91 -77 196 -77q87 0 167 51q24 14 58 49v-58q-104 -83 -222 -83q-142 0 -245 101.5t-103 241.5t102.5 242t243.5 102q122 0 224 -86zM513 816l-133 -103l-35 26l122 108z" />
<glyph unicode="&#x107;" horiz-adv-x="441" d="M398 365v-53q-67 68 -143 68q-71 0 -120 -51.5t-49 -126.5q0 -73 49 -124.5t120 -51.5q83 0 148 74v-54q-69 -57 -148 -57q-89 0 -149.5 61t-60.5 150q0 93 60.5 155t150.5 62q76 0 142 -52zM350 581l-105 -114l-29 16l91 125z" />
<glyph unicode="&#x108;" horiz-adv-x="677" d="M623 590v-60q-38 43 -78 65q-71 40 -147 40q-121 0 -210.5 -91t-89.5 -214q0 -135 104 -223q91 -77 196 -77q87 0 167 51q24 14 58 49v-58q-104 -83 -222 -83q-142 0 -245 101.5t-103 241.5t102.5 242t243.5 102q122 0 224 -86zM273 742l125 105l124 -105l-36 -28l-88 75 l-89 -75z" />
<glyph unicode="&#x109;" horiz-adv-x="441" d="M398 365v-53q-67 68 -143 68q-71 0 -120 -51.5t-49 -126.5q0 -73 49 -124.5t120 -51.5q83 0 148 74v-54q-69 -57 -148 -57q-89 0 -149.5 61t-60.5 150q0 93 60.5 155t150.5 62q76 0 142 -52zM127 492l122 114l121 -114l-32 -25l-89 87l-89 -87z" />
<glyph unicode="&#x10a;" horiz-adv-x="677" d="M623 590v-60q-38 43 -78 65q-71 40 -147 40q-121 0 -210.5 -91t-89.5 -214q0 -135 104 -223q91 -77 196 -77q87 0 167 51q24 14 58 49v-58q-104 -83 -222 -83q-142 0 -245 101.5t-103 241.5t102.5 242t243.5 102q122 0 224 -86zM397 818q17 0 28.5 -12t11.5 -28 t-11.5 -28t-28.5 -12t-29 12t-12 29q0 16 12 27.5t29 11.5z" />
<glyph unicode="&#x10b;" horiz-adv-x="441" d="M398 365v-53q-67 68 -143 68q-71 0 -120 -51.5t-49 -126.5q0 -73 49 -124.5t120 -51.5q83 0 148 74v-54q-69 -57 -148 -57q-89 0 -149.5 61t-60.5 150q0 93 60.5 155t150.5 62q76 0 142 -52zM253 569q16 0 27.5 -11t11.5 -27t-11 -27t-27 -11t-27.5 11t-11.5 27t11 27 t27 11z" />
<glyph unicode="&#x10c;" horiz-adv-x="677" d="M623 590v-60q-38 43 -78 65q-71 40 -147 40q-121 0 -210.5 -91t-89.5 -214q0 -135 104 -223q91 -77 196 -77q87 0 167 51q24 14 58 49v-58q-104 -83 -222 -83q-142 0 -245 101.5t-103 241.5t102.5 242t243.5 102q122 0 224 -86zM522 819l-124 -105l-125 105l36 28l89 -74 l89 74z" />
<glyph unicode="&#x10d;" horiz-adv-x="441" d="M398 365v-53q-67 68 -143 68q-71 0 -120 -51.5t-49 -126.5q0 -73 49 -124.5t120 -51.5q83 0 148 74v-54q-69 -57 -148 -57q-89 0 -149.5 61t-60.5 150q0 93 60.5 155t150.5 62q76 0 142 -52zM134 581l33 25l89 -87l89 87l32 -25l-121 -114z" />
<glyph unicode="&#x10e;" horiz-adv-x="617" d="M90 0v667h132q151 0 244 -92q98 -98 98 -241q0 -145 -98 -241q-93 -93 -244 -93h-132zM133 40h88q127 0 208 77q90 84 90 217q0 129 -83.5 211t-214.5 82h-88v-587zM391 819l-124 -105l-125 105l36 28l89 -74l89 74z" />
<glyph unicode="&#x10f;" horiz-adv-x="584" d="M404 729h40v-729h-40v73q-55 -84 -159 -84q-87 0 -143.5 61.5t-56.5 155.5q0 93 55.5 152t143.5 59q99 0 160 -80v392zM246 380q-68 0 -114 -49.5t-46 -122.5q0 -79 45.5 -130.5t114.5 -51.5q71 0 116 51t45 131q0 84 -51 129q-49 43 -110 43zM539 733l45 -13l-58 -144 l-32 11z" />
<glyph unicode="&#x110;" horiz-adv-x="617" d="M90 0v343h-67v40h67v284h132q151 0 244 -92q98 -98 98 -242t-98 -240q-93 -93 -244 -93h-132zM133 40h88q131 0 214.5 82t83.5 211t-83.5 211.5t-214.5 82.5h-88v-244h167v-40h-167v-303z" />
<glyph unicode="&#x111;" horiz-adv-x="515" d="M510 623v-37h-66v-586h-40v73q-57 -84 -160 -84q-86 0 -142.5 61.5t-56.5 155.5q0 93 55.5 152t142.5 59q100 0 161 -80v249h-122v37h122v106h40v-106h66zM246 380q-68 0 -114 -49.5t-46 -122.5q0 -79 45 -130.5t115 -51.5q71 0 116 51t45 131q0 84 -51 129 q-49 43 -110 43z" />
<glyph unicode="&#x112;" horiz-adv-x="463" d="M409 627h-276v-242h270v-40h-270v-305h276v-40h-319v667h319v-40zM113 797h273v-43h-273v43z" />
<glyph unicode="&#x113;" horiz-adv-x="484" d="M439 199h-350q1 -56 22 -92q20 -37 57.5 -59t79.5 -22q59 0 103 39q19 18 41 55l34 -20q-62 -111 -181 -111q-87 0 -143.5 60.5t-56.5 152.5q0 93 56.5 154t142.5 61t140 -60t55 -158zM92 237h301q-11 64 -52.5 103.5t-97.5 39.5q-57 0 -99.5 -40.5t-51.5 -102.5z M122 544h249v-38h-249v38z" />
<glyph unicode="&#x114;" horiz-adv-x="463" d="M409 627h-276v-242h270v-40h-270v-305h276v-40h-319v667h319v-40zM127 835h42q19 -74 82 -74t82 74h42q-7 -55 -40 -86.5t-84 -31.5t-84 31.5t-40 86.5z" />
<glyph unicode="&#x115;" horiz-adv-x="484" d="M439 199h-350q1 -56 22 -92q20 -37 57.5 -59t79.5 -22q59 0 103 39q19 18 41 55l34 -20q-62 -111 -181 -111q-87 0 -143.5 60.5t-56.5 152.5q0 93 56.5 154t142.5 61t140 -60t55 -158zM92 237h301q-11 64 -52.5 103.5t-97.5 39.5q-57 0 -99.5 -40.5t-51.5 -102.5z M128 593h38q19 -84 80 -84q62 0 81 84h38q-7 -56 -39 -89.5t-80 -33.5t-80 33.5t-38 89.5z" />
<glyph unicode="&#x116;" horiz-adv-x="463" d="M409 627h-276v-242h270v-40h-270v-305h276v-40h-319v667h319v-40zM251 818q17 0 28.5 -12t11.5 -28t-11.5 -28t-28.5 -12t-29 12t-12 29q0 16 12 27.5t29 11.5z" />
<glyph unicode="&#x117;" horiz-adv-x="484" d="M439 199h-350q1 -56 22 -92q20 -37 57.5 -59t79.5 -22q59 0 103 39q19 18 41 55l34 -20q-62 -111 -181 -111q-87 0 -143.5 60.5t-56.5 152.5q0 93 56.5 154t142.5 61t140 -60t55 -158zM92 237h301q-11 64 -52.5 103.5t-97.5 39.5q-57 0 -99.5 -40.5t-51.5 -102.5z M246 569q16 0 27.5 -11t11.5 -27t-11 -27t-27 -11t-27.5 11t-11.5 27t11 27t27 11z" />
<glyph unicode="&#x118;" horiz-adv-x="463" d="M409 40v-40q-45 -28 -63.5 -51t-18.5 -50q0 -50 52 -50q25 0 58 18l-10 -41q-33 -13 -58 -13q-41 0 -64.5 21.5t-23.5 59.5q0 33 19 58t63 48h-273v667h319v-40h-276v-242h270v-40h-270v-305h276z" />
<glyph unicode="&#x119;" horiz-adv-x="484" d="M379 -114l-9 -40q-26 -13 -56 -13q-34 0 -56.5 21t-22.5 53q0 53 56 87q-21 -5 -44 -5q-88 0 -145 60t-57 153t56.5 154t142.5 61t140 -60t55 -158h-350q1 -56 22 -92q20 -37 57.5 -59t79.5 -22q59 0 103 39q19 18 41 55l34 -20q-14 -26 -28.5 -42t-44.5 -41 q-42 -33 -57.5 -54.5t-15.5 -47.5q0 -21 12 -33.5t32 -12.5q22 0 55 17zM92 237h301q-11 64 -52.5 103.5t-97.5 39.5q-57 0 -99.5 -40.5t-51.5 -102.5z" />
<glyph unicode="&#x11a;" horiz-adv-x="463" d="M409 627h-276v-242h270v-40h-270v-305h276v-40h-319v667h319v-40zM375 819l-124 -105l-125 105l36 28l89 -74l89 74z" />
<glyph unicode="&#x11b;" horiz-adv-x="484" d="M439 199h-350q1 -56 22 -92q20 -37 57.5 -59t79.5 -22q59 0 103 39q19 18 41 55l34 -20q-62 -111 -181 -111q-87 0 -143.5 60.5t-56.5 152.5q0 93 56.5 154t142.5 61t140 -60t55 -158zM92 237h301q-11 64 -52.5 103.5t-97.5 39.5q-57 0 -99.5 -40.5t-51.5 -102.5z M125 581l33 25l89 -87l89 87l32 -25l-121 -114z" />
<glyph unicode="&#x11c;" horiz-adv-x="771" d="M437 320h281q0 -64 -8 -102.5t-29 -74.5q-40 -69 -118 -111.5t-165 -42.5q-142 0 -243.5 101t-101.5 241q0 142 102.5 243.5t245.5 101.5q119 0 209 -72q32 -25 80 -84l-35 -27q-37 50 -64 71q-80 71 -192 71q-123 0 -212.5 -90.5t-89.5 -214.5q0 -123 89 -211.5 t211 -88.5q73 0 141.5 36t102.5 92q27 44 30 122h-234v40zM279 742l125 105l124 -105l-36 -28l-88 75l-89 -75z" />
<glyph unicode="&#x11d;" horiz-adv-x="521" d="M450 408v-400q0 -62 -9.5 -99.5t-34.5 -68.5q-58 -74 -161 -74q-57 0 -103 23.5t-71 65.5q-20 32 -26 86h41q5 -45 24 -73q44 -65 136 -65q79 0 121.5 53t42.5 152v62q-68 -80 -162 -80q-83 0 -141 62t-58 152q0 91 59 152t146 61q49 0 84.5 -18.5t71.5 -61.5v71h40z M250 380q-67 0 -113.5 -51t-46.5 -124q0 -77 44.5 -127.5t113.5 -50.5q76 0 127 59q38 46 38 120q0 81 -50 127q-50 47 -113 47zM139 492l122 114l121 -114l-32 -25l-89 87l-89 -87z" />
<glyph unicode="&#x11e;" horiz-adv-x="771" d="M437 320h281q0 -64 -8 -102.5t-29 -74.5q-40 -69 -118 -111.5t-165 -42.5q-142 0 -243.5 101t-101.5 241q0 142 102.5 243.5t245.5 101.5q119 0 209 -72q32 -25 80 -84l-35 -27q-37 50 -64 71q-80 71 -192 71q-123 0 -212.5 -90.5t-89.5 -214.5q0 -123 89 -211.5 t211 -88.5q73 0 141.5 36t102.5 92q27 44 30 122h-234v40zM278 835h42q19 -74 82 -74t82 74h42q-7 -55 -40 -86.5t-84 -31.5t-84 31.5t-40 86.5z" />
<glyph unicode="&#x11f;" horiz-adv-x="521" d="M450 408v-400q0 -62 -9.5 -99.5t-34.5 -68.5q-58 -74 -161 -74q-57 0 -103 23.5t-71 65.5q-20 32 -26 86h41q5 -45 24 -73q44 -65 136 -65q79 0 121.5 53t42.5 152v62q-68 -80 -162 -80q-83 0 -141 62t-58 152q0 91 59 152t146 61q49 0 84.5 -18.5t71.5 -61.5v71h40z M250 380q-67 0 -113.5 -51t-46.5 -124q0 -77 44.5 -127.5t113.5 -50.5q76 0 127 59q38 46 38 120q0 81 -50 127q-50 47 -113 47zM142 593h38q19 -84 80 -84q62 0 81 84h38q-7 -56 -39 -89.5t-80 -33.5t-80 33.5t-38 89.5z" />
<glyph unicode="&#x120;" horiz-adv-x="771" d="M437 320h281q0 -64 -8 -102.5t-29 -74.5q-40 -69 -118 -111.5t-165 -42.5q-142 0 -243.5 101t-101.5 241q0 142 102.5 243.5t245.5 101.5q119 0 209 -72q32 -25 80 -84l-35 -27q-37 50 -64 71q-80 71 -192 71q-123 0 -212.5 -90.5t-89.5 -214.5q0 -123 89 -211.5 t211 -88.5q73 0 141.5 36t102.5 92q27 44 30 122h-234v40zM402 818q16 0 28 -12t12 -28t-12 -28t-28 -12q-17 0 -29 12t-12 29q0 16 12 27.5t29 11.5z" />
<glyph unicode="&#x121;" horiz-adv-x="521" d="M450 408v-400q0 -62 -9.5 -99.5t-34.5 -68.5q-58 -74 -161 -74q-57 0 -103 23.5t-71 65.5q-20 32 -26 86h41q5 -45 24 -73q44 -65 136 -65q79 0 121.5 53t42.5 152v62q-68 -80 -162 -80q-83 0 -141 62t-58 152q0 91 59 152t146 61q49 0 84.5 -18.5t71.5 -61.5v71h40z M250 380q-67 0 -113.5 -51t-46.5 -124q0 -77 44.5 -127.5t113.5 -50.5q76 0 127 59q38 46 38 120q0 81 -50 127q-50 47 -113 47zM260 569q16 0 27.5 -11t11.5 -27t-11 -27t-27 -11t-27.5 11t-11.5 27t11 27t27 11z" />
<glyph unicode="&#x122;" horiz-adv-x="771" d="M437 320h281q0 -64 -8 -102.5t-29 -74.5q-40 -69 -118 -111.5t-165 -42.5q-142 0 -243.5 101t-101.5 241q0 142 102.5 243.5t245.5 101.5q119 0 209 -72q32 -25 80 -84l-35 -27q-37 50 -64 71q-80 71 -192 71q-123 0 -212.5 -90.5t-89.5 -214.5q0 -123 89 -211.5 t211 -88.5q73 0 141.5 36t102.5 92q27 44 30 122h-234v40zM369 -47l49 -13l-61 -145l-31 10z" />
<glyph unicode="&#x123;" horiz-adv-x="521" d="M450 408v-400q0 -62 -9.5 -99.5t-34.5 -68.5q-58 -74 -161 -74q-57 0 -103 23.5t-71 65.5q-20 32 -26 86h41q5 -45 24 -73q44 -65 136 -65q79 0 121.5 53t42.5 152v62q-68 -80 -162 -80q-83 0 -141 62t-58 152q0 91 59 152t146 61q49 0 84.5 -18.5t71.5 -61.5v71h40z M250 380q-67 0 -113.5 -51t-46.5 -124q0 -77 44.5 -127.5t113.5 -50.5q76 0 127 59q38 46 38 120q0 81 -50 127q-50 47 -113 47zM275 467l-46 13l59 136l31 -10z" />
<glyph unicode="&#x124;" horiz-adv-x="671" d="M133 384h405v283h43v-667h-43v344h-405v-344h-43v667h43v-283zM211 742l125 105l124 -105l-36 -28l-88 75l-89 -75z" />
<glyph unicode="&#x125;" horiz-adv-x="441" d="M71 729h40v-385q46 73 125 73q36 0 66.5 -15.5t46.5 -41.5q20 -33 20 -103v-257h-40v257q0 58 -15 83q-22 40 -83 40q-67 0 -98 -56q-22 -36 -22 -112v-212h-40v729zM-11 763l125 105l124 -105l-36 -28l-88 75l-89 -75z" />
<glyph unicode="&#x126;" horiz-adv-x="671" d="M537 667h43v-113h67v-40h-67v-514h-43v344h-404v-344h-43v514h-67v40h67v113h43v-113h404v113zM537 514h-404v-130h404v130z" />
<glyph unicode="&#x127;" horiz-adv-x="441" d="M233 623v-37h-121v-242q46 73 124 73q36 0 67 -15.5t47 -41.5q20 -33 20 -103v-257h-40v257q0 58 -15 83q-22 40 -84 40q-66 0 -97 -56q-22 -36 -22 -112v-212h-40v586h-67v37h67v106h40v-106h121z" />
<glyph unicode="&#x128;" horiz-adv-x="223" d="M133 667v-667h-43v667h43zM11 734l-29 22q15 33 31 46.5t40 13.5q20 0 62 -17q40 -18 57 -18q14 0 22.5 8t18.5 30l28 -22q-20 -60 -71 -60q-20 0 -59 16q-44 19 -61 19q-14 0 -22.5 -8t-16.5 -30z" />
<glyph unicode="&#x129;" horiz-adv-x="183" d="M112 408v-408h-40v408h40zM-8 490l-26 19q25 58 69 58q24 0 87 -29q16 -8 28 -8q24 0 42 38l25 -19q-18 -58 -70 -58q-17 0 -54 16q-48 22 -63 22q-24 0 -38 -39z" />
<glyph unicode="&#x12a;" horiz-adv-x="223" d="M133 667v-667h-43v667h43zM12 797h200v-43h-200v43z" />
<glyph unicode="&#x12b;" horiz-adv-x="183" d="M111 408v-408h-40v408h40zM3 544h176v-38h-176v38z" />
<glyph unicode="&#x12c;" horiz-adv-x="223" d="M133 667v-667h-43v667h43zM-12 835h42q19 -74 82 -74t82 74h42q-7 -55 -40 -86.5t-84 -31.5t-84 31.5t-40 86.5z" />
<glyph unicode="&#x12d;" horiz-adv-x="183" d="M111 408v-408h-40v408h40zM-7 593h38q15 -84 60 -84q46 0 61 84h38q-5 -56 -32 -89.5t-67 -33.5t-66.5 33.5t-31.5 89.5z" />
<glyph unicode="&#x12e;" horiz-adv-x="223" d="M133 667v-667q-52 -42 -52 -98q0 -52 44 -52q18 0 43 15l-10 -41q-21 -11 -43 -11q-36 0 -58 23t-22 61q0 61 55 103v667h43z" />
<glyph unicode="&#x12f;" horiz-adv-x="183" d="M111 408v-408q-25 -27 -34 -45.5t-9 -43.5q0 -49 40 -49q20 0 44 14l-10 -40q-21 -10 -43 -10q-35 0 -55 21t-20 59q0 54 47 94v408h40zM91 580q15 0 25.5 -10.5t10.5 -25.5q0 -16 -10.5 -26.5t-25.5 -10.5t-25.5 10.5t-10.5 26.5q0 15 10.5 25.5t25.5 10.5z" />
<glyph unicode="&#x130;" horiz-adv-x="223" d="M133 667v-667h-43v667h43zM112 818q16 0 28 -12t12 -28t-12 -28t-28 -12q-17 0 -29 12t-12 29q0 16 12 27.5t29 11.5z" />
<glyph unicode="&#x131;" horiz-adv-x="183" d="M111 408v-408h-40v408h40z" />
<glyph unicode="&#x132;" horiz-adv-x="485" d="M133 667v-667h-43v667h43zM395 667v-665q0 -63 -22 -96q-31 -45 -93 -45q-76 0 -113 72l32 24q29 -55 83 -55q70 0 70 100v665h43z" />
<glyph unicode="&#x133;" horiz-adv-x="362" d="M111 408v-408h-40v408h40zM91 580q15 0 25.5 -10.5t10.5 -25.5q0 -16 -10.5 -26.5t-25.5 -10.5t-25.5 10.5t-10.5 26.5q0 15 10.5 25.5t25.5 10.5zM291 408v-647h-40v647h40zM271 580q15 0 25.5 -10.5t10.5 -25.5q0 -16 -10.5 -26.5t-25.5 -10.5t-25.5 10.5t-10.5 26.5 q0 15 10.5 25.5t25.5 10.5z" />
<glyph unicode="&#x134;" horiz-adv-x="265" d="M175 667v-665q0 -63 -22 -96q-31 -45 -93 -45q-76 0 -113 72l32 24q29 -55 83 -55q70 0 70 100v665h43zM25 742l125 105l124 -105l-36 -28l-88 75l-89 -75z" />
<glyph unicode="&#x135;" horiz-adv-x="183" d="M112 408v-647h-40v647h40zM-30 492l122 114l121 -114l-32 -25l-89 87l-89 -87z" />
<glyph unicode="&#x136;" horiz-adv-x="539" d="M133 357l313 310h59l-326 -322l347 -345h-64l-313 317l-16 -16v-301h-43v667h43v-310zM265 -47l49 -13l-61 -145l-31 10z" />
<glyph unicode="&#x137;" horiz-adv-x="396" d="M111 729v-494l167 173h52l-171 -177l229 -231h-55l-201 202l-21 -21v-181h-40v729h40zM199 -47l45 -13l-58 -136l-32 10z" />
<glyph unicode="&#x138;" horiz-adv-x="396" d="M111 408v-173l167 173h52l-171 -177l229 -231h-55l-201 202l-21 -21v-181h-40v408h40z" />
<glyph unicode="&#x139;" horiz-adv-x="315" d="M133 667v-627h169v-40h-212v667h43zM253 816l-133 -103l-35 26l122 108z" />
<glyph unicode="&#x13a;" horiz-adv-x="183" d="M111 729v-729h-40v729h40zM206 865l-119 -102l-27 23l108 111z" />
<glyph unicode="&#x13b;" horiz-adv-x="315" d="M133 667v-627h169v-40h-212v667h43zM180 -47l49 -13l-61 -145l-31 10z" />
<glyph unicode="&#x13c;" horiz-adv-x="183" d="M111 729v-729h-40v729h40zM71 -47l45 -13l-58 -136l-32 10z" />
<glyph unicode="&#x13d;" horiz-adv-x="315" d="M133 667v-627h169v-40h-212v667h43zM231 674l49 -14l-61 -151l-31 9z" />
<glyph unicode="&#x13e;" horiz-adv-x="252" d="M111 729v-729h-40v729h40zM206 733l45 -13l-58 -144l-32 11z" />
<glyph unicode="&#x13f;" horiz-adv-x="315" d="M133 667v-627h169v-40h-212v667h43zM270 388q20 0 33.5 -14t13.5 -33q0 -20 -13.5 -34t-33.5 -14t-34 14t-14 34q0 19 14 33t34 14z" />
<glyph unicode="&#x140;" horiz-adv-x="277" d="M111 729v-729h-40v729h40zM230 388q20 0 33.5 -14t13.5 -33q0 -20 -13.5 -34t-33.5 -14t-34 14t-14 34q0 19 14 33t34 14z" />
<glyph unicode="&#x141;" horiz-adv-x="315" d="M133 370l113 83v-47l-113 -84v-282h169v-40h-212v300l-68 -52v48l68 52v319h43v-297z" />
<glyph unicode="&#x142;" horiz-adv-x="196" d="M118 387l66 51v-46l-66 -51v-341h-40v320l-66 -51v47l66 51v362h40v-342z" />
<glyph unicode="&#x143;" horiz-adv-x="783" d="M90 0v674l560 -586v579h43v-684l-560 586v-569h-43zM513 816l-133 -103l-35 26l122 108z" />
<glyph unicode="&#x144;" horiz-adv-x="440" d="M71 408h40v-64q46 73 124 73q36 0 66.5 -15.5t46.5 -41.5q20 -33 20 -103v-257h-40v257q0 58 -15 83q-22 40 -83 40q-66 0 -97 -56q-22 -36 -22 -112v-212h-40v408zM314 581l-105 -114l-29 16l91 125z" />
<glyph unicode="&#x145;" horiz-adv-x="783" d="M90 0v674l560 -586v579h43v-684l-560 586v-569h-43zM372 -47l49 -13l-61 -145l-31 10z" />
<glyph unicode="&#x146;" horiz-adv-x="440" d="M71 408h40v-64q46 73 124 73q36 0 66.5 -15.5t46.5 -41.5q20 -33 20 -103v-257h-40v257q0 58 -15 83q-22 40 -83 40q-66 0 -97 -56q-22 -36 -22 -112v-212h-40v408zM203 -47l45 -13l-58 -136l-32 10z" />
<glyph unicode="&#x147;" horiz-adv-x="783" d="M90 0v674l560 -586v579h43v-684l-560 586v-569h-43zM516 819l-124 -105l-125 105l36 28l89 -74l89 74z" />
<glyph unicode="&#x148;" horiz-adv-x="440" d="M71 408h40v-64q46 73 124 73q36 0 66.5 -15.5t46.5 -41.5q20 -33 20 -103v-257h-40v257q0 58 -15 83q-22 40 -83 40q-66 0 -97 -56q-22 -36 -22 -112v-212h-40v408zM95 581l33 25l89 -87l89 87l32 -25l-121 -114z" />
<glyph unicode="&#x149;" d="M123 705l40 -12l-74 -200l-26 9zM131 408h40v-64q25 39 54.5 56t70.5 17q36 0 66.5 -15.5t46.5 -41.5q20 -33 20 -103v-257h-40v257q0 58 -15 83q-24 40 -84 40q-66 0 -97 -56q-22 -36 -22 -112v-212h-40v408z" />
<glyph unicode="&#x14a;" horiz-adv-x="671" d="M90 667h43v-109q45 62 98.5 90.5t125.5 28.5q62 0 114 -25t77 -68q33 -55 33 -169v-327q0 -110 -33 -158q-50 -69 -144 -69q-27 0 -59 9v37q36 -7 55 -7q74 0 106 41.5t32 136.5v342q0 103 -28 146q-21 32 -64 51t-95 19q-120 0 -179 -90q-22 -34 -30.5 -73t-8.5 -106 v-367h-43v667z" />
<glyph unicode="&#x14b;" horiz-adv-x="440" d="M71 408h40v-64q25 39 54.5 56t70.5 17q35 0 65.5 -15.5t46.5 -41.5q20 -33 20 -103v-257q0 -66 -20 -97q-31 -42 -87 -42q-17 0 -35 6v37q20 -5 31 -5q38 0 54.5 25t16.5 84v249q0 58 -15 83q-22 40 -83 40q-66 0 -97 -56q-22 -36 -22 -112v-212h-40v408z" />
<glyph unicode="&#x14c;" horiz-adv-x="798" d="M398 676q142 0 244 -101.5t102 -241.5q0 -142 -102.5 -243t-245.5 -101q-141 0 -242 103t-101 246q0 136 103 237t242 101zM398 635q-122 0 -211 -88.5t-89 -209.5q0 -137 97 -226q89 -81 201 -81q125 0 214 89t89 214q0 124 -88.5 213t-212.5 89zM262 797h273v-43h-273 v43z" />
<glyph unicode="&#x14d;" horiz-adv-x="517" d="M259 417q90 0 151.5 -62t61.5 -152q0 -91 -62 -152.5t-153 -61.5q-89 0 -150.5 63t-61.5 155q0 86 63 148t151 62zM257 380q-71 0 -121 -51t-50 -123q0 -76 49 -128t121 -52q74 0 124.5 51t50.5 126t-50 126t-124 51zM134 544h249v-38h-249v38z" />
<glyph unicode="&#x14e;" horiz-adv-x="798" d="M398 676q142 0 244 -101.5t102 -241.5q0 -142 -102.5 -243t-245.5 -101q-141 0 -242 103t-101 246q0 136 103 237t242 101zM398 635q-122 0 -211 -88.5t-89 -209.5q0 -137 97 -226q89 -81 201 -81q125 0 214 89t89 214q0 124 -88.5 213t-212.5 89zM275 835h42 q19 -74 82 -74t82 74h42q-7 -55 -40 -86.5t-84 -31.5t-84 31.5t-40 86.5z" />
<glyph unicode="&#x14f;" horiz-adv-x="517" d="M259 417q90 0 151.5 -62t61.5 -152q0 -91 -62 -152.5t-153 -61.5q-89 0 -150.5 63t-61.5 155q0 86 63 148t151 62zM257 380q-71 0 -121 -51t-50 -123q0 -76 49 -128t121 -52q74 0 124.5 51t50.5 126t-50 126t-124 51zM140 593h38q19 -84 80 -84q62 0 81 84h38 q-7 -56 -39 -89.5t-80 -33.5t-80 33.5t-38 89.5z" />
<glyph unicode="&#x150;" horiz-adv-x="798" d="M398 676q142 0 244 -101.5t102 -241.5q0 -142 -102.5 -243t-245.5 -101q-141 0 -242 103t-101 246q0 136 103 237t242 101zM398 635q-122 0 -211 -88.5t-89 -209.5q0 -137 97 -226q89 -81 201 -81q125 0 214 89t89 214q0 124 -88.5 213t-212.5 89zM598 816l-133 -103 l-32 26l122 108zM458 816l-133 -103l-32 26l122 108z" />
<glyph unicode="&#x151;" horiz-adv-x="517" d="M259 417q90 0 151.5 -62t61.5 -152q0 -91 -62 -152.5t-153 -61.5q-89 0 -150.5 63t-61.5 155q0 86 63 148t151 62zM257 380q-71 0 -121 -51t-50 -123q0 -76 49 -128t121 -52q74 0 124.5 51t50.5 126t-50 126t-124 51zM419 581l-102 -114l-27 16l91 125zM303 581 l-103 -114l-27 16l91 125z" />
<glyph unicode="&#x152;" horiz-adv-x="1071" d="M1018 627h-276v-242h269v-40h-269v-305h276v-40h-319v172q-44 -85 -124 -134t-174 -49q-142 0 -245 102t-103 242q0 141 102 242t245 101q95 0 175 -48.5t124 -133.5v173h319v-40zM400 635q-121 0 -211.5 -89.5t-90.5 -209.5q0 -136 100 -227q88 -79 198 -79 q125 0 213.5 89t88.5 214t-87.5 213.5t-210.5 88.5z" />
<glyph unicode="&#x153;" horiz-adv-x="868" d="M824 201h-350q1 -53 19 -88q20 -40 58.5 -63.5t82.5 -23.5q91 0 142 95l33 -20q-59 -112 -179 -112q-126 0 -179 121q-64 -121 -193 -121q-88 0 -150.5 62.5t-62.5 150.5q0 89 62.5 152t152.5 63q131 0 191 -120q23 57 69 88.5t108 31.5q88 0 141.5 -58.5t54.5 -157.5z M477 239h303q-12 67 -51.5 104t-99.5 37q-61 0 -99.5 -36.5t-52.5 -104.5zM258 380q-71 0 -121.5 -51.5t-50.5 -124.5q0 -74 49.5 -126t120.5 -52q73 0 124.5 50.5t51.5 122.5q0 76 -50.5 128.5t-123.5 52.5z" />
<glyph unicode="&#x154;" horiz-adv-x="467" d="M202 315l218 -315h-53l-214 315h-20v-315h-43v667h94q93 0 141 -34q67 -47 67 -143q0 -107 -84 -153q-33 -18 -106 -22zM133 355h64q72 0 111.5 35.5t39.5 100.5q0 39 -16 70t-43 46q-36 20 -101 20h-55v-272zM332 816l-133 -103l-35 26l122 108z" />
<glyph unicode="&#x155;" horiz-adv-x="260" d="M71 408h40v-53q32 62 90 62q20 0 44 -10l-22 -35q-15 9 -28 9q-36 0 -62 -34q-13 -17 -17.5 -42t-4.5 -86v-219h-40v408zM245 581l-105 -114l-29 16l91 125z" />
<glyph unicode="&#x156;" horiz-adv-x="467" d="M202 315l218 -315h-53l-214 315h-20v-315h-43v667h94q93 0 141 -34q67 -47 67 -143q0 -107 -84 -153q-33 -18 -106 -22zM133 355h64q72 0 111.5 35.5t39.5 100.5q0 39 -16 70t-43 46q-36 20 -101 20h-55v-272zM219 -47l49 -13l-61 -145l-31 10z" />
<glyph unicode="&#x157;" horiz-adv-x="260" d="M72 408h40v-53q32 62 90 62q20 0 44 -10l-22 -35q-15 9 -28 9q-36 0 -62 -34q-13 -17 -17.5 -42t-4.5 -86v-219h-40v408zM75 -47l45 -13l-58 -136l-32 10z" />
<glyph unicode="&#x158;" horiz-adv-x="467" d="M202 315l218 -315h-53l-214 315h-20v-315h-43v667h94q93 0 141 -34q67 -47 67 -143q0 -107 -84 -153q-33 -18 -106 -22zM133 355h64q72 0 111.5 35.5t39.5 100.5q0 39 -16 70t-43 46q-36 20 -101 20h-55v-272zM344 819l-124 -105l-125 105l36 28l89 -74l89 74z" />
<glyph unicode="&#x159;" horiz-adv-x="260" d="M71 408h40v-53q32 62 90 62q20 0 44 -10l-22 -35q-15 9 -28 9q-36 0 -62 -34q-13 -17 -17.5 -42t-4.5 -86v-219h-40v408zM33 581l33 25l82 -87l82 87l33 -25l-115 -114z" />
<glyph unicode="&#x15a;" horiz-adv-x="512" d="M425 581l-32 -26q-29 44 -58.5 62t-72.5 18q-53 0 -89 -36.5t-36 -89.5q0 -40 25 -67t93 -60q97 -46 133 -69q70 -47 70 -128t-61 -138.5t-147 -57.5q-140 0 -197 143l37 18q21 -43 37 -64q45 -56 123 -56q67 0 115 45.5t48 109.5t-65 103q-32 18 -124 63q-76 37 -104 71 t-28 88q0 72 48.5 119t122.5 47q107 0 162 -95zM378 816l-133 -103l-35 26l122 108z" />
<glyph unicode="&#x15b;" horiz-adv-x="342" d="M287 351l-34 -18q-26 47 -70 47q-29 0 -50 -19.5t-21 -46.5q0 -24 17 -39.5t63 -32.5q57 -21 79 -37q40 -31 40 -87t-37.5 -92.5t-95.5 -36.5q-51 0 -87.5 28t-52.5 80l39 12q28 -83 101 -83q39 0 65.5 26t26.5 65q0 31 -17 49t-62 34q-67 24 -93.5 49t-26.5 63 q0 44 32 74.5t78 30.5q71 0 106 -66zM277 581l-105 -114l-29 16l91 125z" />
<glyph unicode="&#x15c;" horiz-adv-x="512" d="M425 581l-32 -26q-29 44 -58.5 62t-72.5 18q-53 0 -89 -36.5t-36 -89.5q0 -40 25 -67t93 -60q97 -46 133 -69q70 -47 70 -128t-61 -138.5t-147 -57.5q-140 0 -197 143l37 18q21 -43 37 -64q45 -56 123 -56q67 0 115 45.5t48 109.5t-65 103q-32 18 -124 63q-76 37 -104 71 t-28 88q0 72 48.5 119t122.5 47q107 0 162 -95zM141 742l125 105l124 -105l-36 -28l-88 75l-89 -75z" />
<glyph unicode="&#x15d;" horiz-adv-x="342" d="M287 351l-34 -18q-26 47 -70 47q-29 0 -50 -19.5t-21 -46.5q0 -24 17 -39.5t63 -32.5q57 -21 79 -37q40 -31 40 -87t-37.5 -92.5t-95.5 -36.5q-51 0 -87.5 28t-52.5 80l39 12q28 -83 101 -83q39 0 65.5 26t26.5 65q0 31 -17 49t-62 34q-67 24 -93.5 49t-26.5 63 q0 44 32 74.5t78 30.5q71 0 106 -66zM60 492l122 114l121 -114l-32 -25l-89 87l-89 -87z" />
<glyph unicode="&#x15e;" horiz-adv-x="512" d="M425 581l-32 -26q-29 44 -58.5 62t-72.5 18q-53 0 -89 -36.5t-36 -89.5q0 -40 25 -67t93 -60q97 -46 133 -69q70 -47 70 -128t-61 -138.5t-147 -57.5q-140 0 -197 143l37 18q21 -43 37 -64q45 -56 123 -56q67 0 115 45.5t48 109.5t-65 103q-32 18 -124 63q-76 37 -104 71 t-28 88q0 72 48.5 119t122.5 47q107 0 162 -95zM291 -72l-102 -126l-36 18l88 133z" />
<glyph unicode="&#x15f;" horiz-adv-x="342" d="M287 351l-34 -18q-26 47 -70 47q-29 0 -50 -19.5t-21 -46.5q0 -24 17 -39.5t63 -32.5q57 -21 79 -37q40 -31 40 -87t-37.5 -92.5t-95.5 -36.5q-51 0 -87.5 28t-52.5 80l39 12q28 -83 101 -83q39 0 65.5 26t26.5 65q0 31 -17 49t-62 34q-67 24 -93.5 49t-26.5 63 q0 44 32 74.5t78 30.5q71 0 106 -66zM211 -68l-96 -123l-31 16l82 128z" />
<glyph unicode="&#x160;" horiz-adv-x="512" d="M425 581l-32 -26q-29 44 -58.5 62t-72.5 18q-53 0 -89 -36.5t-36 -89.5q0 -40 25 -67t93 -60q97 -46 133 -69q70 -47 70 -128t-61 -138.5t-147 -57.5q-140 0 -197 143l37 18q21 -43 37 -64q45 -56 123 -56q67 0 115 45.5t48 109.5t-65 103q-32 18 -124 63q-76 37 -104 71 t-28 88q0 72 48.5 119t122.5 47q107 0 162 -95zM389 819l-124 -105l-125 105l36 28l89 -74l89 74z" />
<glyph unicode="&#x161;" horiz-adv-x="342" d="M287 351l-34 -18q-26 47 -70 47q-29 0 -50 -19.5t-21 -46.5q0 -24 17 -39.5t63 -32.5q57 -21 79 -37q40 -31 40 -87t-37.5 -92.5t-95.5 -36.5q-51 0 -87.5 28t-52.5 80l39 12q28 -83 101 -83q39 0 65.5 26t26.5 65q0 31 -17 49t-62 34q-67 24 -93.5 49t-26.5 63 q0 44 32 74.5t78 30.5q71 0 106 -66zM60 581l33 25l89 -87l89 87l32 -25l-121 -114z" />
<glyph unicode="&#x162;" horiz-adv-x="415" d="M227 627v-627h-43v627h-171v40h388v-40h-174zM182 -47l49 -13l-61 -145l-31 10z" />
<glyph unicode="&#x163;" horiz-adv-x="194" d="M114 371v-371h-40v371h-45v37h45v146h40v-146h72v-37h-72zM74 -47l45 -13l-58 -136l-32 10z" />
<glyph unicode="&#x164;" horiz-adv-x="415" d="M227 627v-627h-43v627h-171v40h388v-40h-174zM331 819l-124 -105l-125 105l36 28l89 -74l89 74z" />
<glyph unicode="&#x165;" horiz-adv-x="255" d="M115 371v-371h-40v371h-45v37h45v146h40v-146h72v-37h-72zM210 673l45 -13l-58 -144l-32 11z" />
<glyph unicode="&#x166;" horiz-adv-x="415" d="M367 471v-37h-140v-434h-43v434h-137v37h137v156h-171v40h388v-40h-174v-156h140z" />
<glyph unicode="&#x167;" horiz-adv-x="194" d="M187 298v-37h-72v-261h-40v261h-45v37h45v73h-45v37h45v146h40v-146h72v-37h-72v-73h72z" />
<glyph unicode="&#x168;" horiz-adv-x="633" d="M133 667v-417q0 -62 5 -91.5t19 -51.5q22 -34 66.5 -55.5t93.5 -21.5q48 0 92.5 21.5t66.5 55.5q14 22 19 51.5t5 91.5v417h43v-429q0 -66 -7 -98t-28 -60q-30 -42 -81.5 -66.5t-109.5 -24.5q-59 0 -110.5 24.5t-81.5 66.5q-21 28 -28 60t-7 98v429h43zM216 734l-29 22 q15 33 31 46.5t40 13.5q20 0 62 -17q40 -18 57 -18q14 0 22.5 8t18.5 30l28 -22q-20 -60 -71 -60q-20 0 -59 16q-44 19 -61 19q-14 0 -22.5 -8t-16.5 -30z" />
<glyph unicode="&#x169;" horiz-adv-x="436" d="M111 408v-243q0 -63 13 -90q11 -22 37 -35.5t57 -13.5q30 0 56 13.5t37 35.5q13 27 13 90v243h40v-257q0 -77 -30 -112q-42 -50 -116 -50q-75 0 -117 50q-30 35 -30 112v257h40zM118 490l-26 19q25 58 69 58q24 0 87 -29q16 -8 28 -8q24 0 42 38l25 -19q-18 -58 -70 -58 q-17 0 -54 16q-48 22 -63 22q-24 0 -38 -39z" />
<glyph unicode="&#x16a;" horiz-adv-x="633" d="M133 667v-417q0 -62 5 -91.5t19 -51.5q22 -34 66.5 -55.5t93.5 -21.5q48 0 92.5 21.5t66.5 55.5q14 22 19 51.5t5 91.5v417h43v-429q0 -66 -7 -98t-28 -60q-30 -42 -81.5 -66.5t-109.5 -24.5q-59 0 -110.5 24.5t-81.5 66.5q-21 28 -28 60t-7 98v429h43zM180 797h273v-43 h-273v43z" />
<glyph unicode="&#x16b;" horiz-adv-x="436" d="M111 408v-243q0 -63 13 -90q11 -22 37 -35.5t57 -13.5q30 0 56 13.5t37 35.5q13 27 13 90v243h40v-257q0 -77 -30 -112q-42 -50 -116 -50q-75 0 -117 50q-30 35 -30 112v257h40zM93 544h249v-38h-249v38z" />
<glyph unicode="&#x16c;" horiz-adv-x="633" d="M133 667v-417q0 -62 5 -91.5t19 -51.5q22 -34 66.5 -55.5t93.5 -21.5q48 0 92.5 21.5t66.5 55.5q14 22 19 51.5t5 91.5v417h43v-429q0 -66 -7 -98t-28 -60q-30 -42 -81.5 -66.5t-109.5 -24.5q-59 0 -110.5 24.5t-81.5 66.5q-21 28 -28 60t-7 98v429h43zM193 835h42 q19 -74 82 -74t82 74h42q-7 -55 -40 -86.5t-84 -31.5t-84 31.5t-40 86.5z" />
<glyph unicode="&#x16d;" horiz-adv-x="436" d="M111 408v-243q0 -63 13 -90q11 -22 37 -35.5t57 -13.5q30 0 56 13.5t37 35.5q13 27 13 90v243h40v-257q0 -77 -30 -112q-42 -50 -116 -50q-75 0 -117 50q-30 35 -30 112v257h40zM99 593h38q19 -84 80 -84q62 0 81 84h38q-7 -56 -39 -89.5t-80 -33.5t-80 33.5t-38 89.5z " />
<glyph unicode="&#x16e;" horiz-adv-x="633" d="M133 667v-417q0 -62 5 -91.5t19 -51.5q22 -34 66.5 -55.5t93.5 -21.5q48 0 92.5 21.5t66.5 55.5q14 22 19 51.5t5 91.5v417h43v-429q0 -66 -7 -98t-28 -60q-30 -42 -81.5 -66.5t-109.5 -24.5q-59 0 -110.5 24.5t-81.5 66.5q-21 28 -28 60t-7 98v429h43zM317 867 q33 0 56.5 -23.5t23.5 -56.5t-23.5 -56.5t-56.5 -23.5t-56.5 23.5t-23.5 57.5q0 32 23.5 55.5t56.5 23.5zM317 828q-17 0 -29 -12t-12 -28q0 -18 12 -30t29 -12t29 12t12 29t-12 29t-29 12z" />
<glyph unicode="&#x16f;" horiz-adv-x="436" d="M111 408v-243q0 -63 13 -90q11 -22 37 -35.5t57 -13.5q30 0 56 13.5t37 35.5q13 27 13 90v243h40v-257q0 -77 -30 -112q-42 -50 -116 -50q-75 0 -117 50q-30 35 -30 112v257h40zM217 620q32 0 54.5 -22t22.5 -54t-22 -54.5t-54 -22.5t-54.5 22.5t-22.5 54.5 q0 31 22.5 53.5t53.5 22.5zM217 584q-17 0 -29 -12t-12 -28q0 -18 12 -30t30 -12q17 0 29 12t12 29t-12 29t-30 12z" />
<glyph unicode="&#x170;" horiz-adv-x="633" d="M133 667v-417q0 -62 5 -91.5t19 -51.5q22 -34 66.5 -55.5t93.5 -21.5q48 0 92.5 21.5t66.5 55.5q14 22 19 51.5t5 91.5v417h43v-429q0 -66 -7 -98t-28 -60q-30 -42 -81.5 -66.5t-109.5 -24.5q-59 0 -110.5 24.5t-81.5 66.5q-21 28 -28 60t-7 98v429h43zM513 816 l-133 -103l-32 26l122 108zM373 816l-133 -103l-32 26l122 108z" />
<glyph unicode="&#x171;" horiz-adv-x="436" d="M111 408v-243q0 -63 13 -90q11 -22 37 -35.5t57 -13.5q30 0 56 13.5t37 35.5q13 27 13 90v243h40v-257q0 -77 -30 -112q-42 -50 -116 -50q-75 0 -117 50q-30 35 -30 112v257h40zM377 581l-102 -114l-27 16l91 125zM261 581l-103 -114l-27 16l91 125z" />
<glyph unicode="&#x172;" horiz-adv-x="633" d="M483 -119l-10 -42q-31 -13 -59 -13q-41 0 -64.5 21.5t-23.5 59.5q0 54 56 90q-36 -8 -65 -8q-59 0 -110.5 24.5t-81.5 66.5q-21 28 -28 60t-7 98v429h43v-417q0 -62 5 -91.5t19 -51.5q22 -34 66.5 -55.5t93.5 -21.5q48 0 92.5 21.5t66.5 55.5q14 22 19 51.5t5 91.5v417 h43v-429q0 -89 -17 -128.5t-73 -83.5q-81 -64 -81 -115q0 -49 52 -49q26 0 59 19z" />
<glyph unicode="&#x173;" horiz-adv-x="436" d="M354 -111l-9 -40q-28 -13 -56 -13q-34 0 -56.5 21t-22.5 53q0 39 25 64q7 7 26 21q-19 -6 -41 -6q-78 0 -119 50q-30 35 -30 112v257h40v-243q0 -63 13 -90q11 -22 37 -35.5t57 -13.5q30 0 56 13.5t37 35.5q13 27 13 90v243h40v-257q0 -58 -10.5 -81.5t-58.5 -73.5 q-40 -42 -40 -78q0 -21 12 -33.5t32 -12.5q22 0 55 17z" />
<glyph unicode="&#x174;" horiz-adv-x="982" d="M62 667l181 -564l242 600l226 -600l208 564h49l-257 -692l-226 605l-248 -605l-224 692h49zM359 742l125 105l124 -105l-36 -28l-88 75l-89 -75z" />
<glyph unicode="&#x175;" horiz-adv-x="672" d="M54 408l138 -328l142 353l141 -353l142 328h47l-189 -433l-141 354l-141 -354l-185 433h46zM214 492l122 114l121 -114l-32 -25l-89 87l-89 -87z" />
<glyph unicode="&#x176;" horiz-adv-x="514" d="M231 285l-218 382h50l190 -335l195 335h51l-225 -382v-285h-43v285zM132 742l125 105l124 -105l-36 -28l-88 75l-89 -75z" />
<glyph unicode="&#x177;" horiz-adv-x="428" d="M201 -7l-193 415h47l167 -362l152 362h46l-274 -647h-45zM92 492l122 114l121 -114l-32 -25l-89 87l-89 -87z" />
<glyph unicode="&#x178;" horiz-adv-x="514" d="M231 285l-218 382h50l190 -335l195 335h51l-225 -382v-285h-43v285zM164 815q16 0 27 -11t11 -27t-11 -27.5t-27 -11.5t-27.5 11t-11.5 28q0 16 11.5 27t27.5 11zM350 815q16 0 27 -11t11 -27t-11 -27.5t-27 -11.5t-27.5 11t-11.5 28q0 16 11.5 27t27.5 11z" />
<glyph unicode="&#x179;" horiz-adv-x="555" d="M111 40h396v-40h-470l407 627h-368v40h443zM413 816l-133 -103l-35 26l122 108z" />
<glyph unicode="&#x17a;" horiz-adv-x="453" d="M104 37h329v-37h-415l333 371h-280v37h364zM347 581l-105 -114l-29 16l91 125z" />
<glyph unicode="&#x17b;" horiz-adv-x="555" d="M111 40h396v-40h-470l407 627h-368v40h443zM298 818q16 0 28 -12t12 -28t-12 -28t-28 -12q-17 0 -29 12t-12 29q0 16 12 27.5t29 11.5z" />
<glyph unicode="&#x17c;" horiz-adv-x="453" d="M104 37h329v-37h-415l333 371h-280v37h364zM252 569q16 0 27.5 -11t11.5 -27t-11 -27t-27 -11t-27.5 11t-11.5 27t11 27t27 11z" />
<glyph unicode="&#x17d;" horiz-adv-x="555" d="M111 40h396v-40h-470l407 627h-368v40h443zM422 819l-124 -105l-125 105l36 28l89 -74l89 74z" />
<glyph unicode="&#x17e;" horiz-adv-x="453" d="M104 37h329v-37h-415l333 371h-280v37h364zM131 581l33 25l89 -87l89 87l32 -25l-121 -114z" />
<glyph unicode="&#x17f;" horiz-adv-x="213" d="M111 0h-40v371h-45v37h45v194q0 67 20 96q31 43 87 43q18 0 36 -6v-37q-19 5 -32 5q-38 0 -54.5 -25t-16.5 -84v-594z" />
<glyph unicode="&#x18f;" horiz-adv-x="798" d="M53 353h646q-11 123 -96 202.5t-206 79.5q-82 0 -151.5 -41t-110.5 -115l-39 17q38 80 122 130t180 50q144 0 245.5 -100.5t101.5 -242.5q0 -141 -102 -242.5t-244 -101.5q-90 0 -171 46.5t-127 123.5q-48 83 -48 194zM699 313h-600q6 -72 38 -129q40 -70 111.5 -112 t150.5 -42q118 0 204 81t96 202z" />
<glyph unicode="&#x192;" horiz-adv-x="547" d="M294 429h103l-8 -38h-102l-65 -348q-15 -84 -32 -115q-28 -52 -90 -52q-28 0 -70 15l8 37q40 -14 60 -14q34 0 50 21.5t27 80.5l72 375h-62l9 38h60l37 200q10 49 26 73q26 38 83 38q25 0 55 -13l-7 -37q-26 11 -48 11q-40 0 -56 -30q-8 -19 -18 -71z" />
<glyph unicode="&#x1a0;" horiz-adv-x="798" d="M643 574l34 121l49 -13l-56 -138q74 -93 74 -212q0 -140 -102 -241.5t-243 -101.5q-142 0 -244 101.5t-102 242.5q0 140 102 241.5t243 101.5t245 -102zM398 635q-122 0 -211 -88.5t-89 -209.5q0 -137 97 -226q89 -81 201 -81q125 0 214 89t89 214q0 124 -88.5 213 t-212.5 89z" />
<glyph unicode="&#x1a1;" horiz-adv-x="517" d="M433 328l31 101l46 -13l-53 -130q15 -41 15 -82q0 -91 -61.5 -153t-151.5 -62q-89 0 -151.5 62.5t-62.5 151.5t62.5 151.5t151.5 62.5q52 0 98 -23.5t76 -65.5zM257 380q-71 0 -121 -51t-50 -123q0 -76 49 -128t121 -52q74 0 124.5 51t50.5 126t-50 126t-124 51z" />
<glyph unicode="&#x1af;" horiz-adv-x="633" d="M133 667v-417q0 -62 5 -91.5t19 -51.5q22 -34 66.5 -55.5t93.5 -21.5q48 0 92.5 21.5t66.5 55.5q14 22 19 51.5t5 91.5v417h43v-429q0 -66 -7 -98t-28 -60q-30 -42 -81.5 -66.5t-109.5 -24.5q-59 0 -110.5 24.5t-81.5 66.5q-21 28 -28 60t-7 98v429h43zM649 701l49 -14 l-60 -151l-31 9z" />
<glyph unicode="&#x1b0;" horiz-adv-x="436" d="M111 408v-243q0 -63 13 -90q11 -22 37 -35.5t57 -13.5q30 0 56 13.5t37 35.5q13 27 13 90v243h40v-257q0 -77 -30 -112q-42 -50 -116 -50q-75 0 -117 50q-30 35 -30 112v257h40zM452 430l46 -13l-59 -143l-32 11z" />
<glyph unicode="&#x1cd;" horiz-adv-x="584" d="M434 219h-284l-89 -219h-48l280 687l278 -687h-49zM418 259l-125 316l-127 -316h252zM416 819l-124 -105l-125 105l36 28l89 -74l89 74z" />
<glyph unicode="&#x1ce;" horiz-adv-x="515" d="M404 408h40v-408h-40v73q-55 -84 -159 -84q-87 0 -143.5 61.5t-56.5 155.5q0 93 55.5 152t143.5 59q99 0 160 -80v71zM246 380q-68 0 -114 -49.5t-46 -122.5q0 -79 45.5 -130.5t114.5 -51.5q71 0 116 51t45 131q0 84 -51 129q-49 43 -110 43zM136 581l33 25l89 -87l89 87 l32 -25l-121 -114z" />
<glyph unicode="&#x1cf;" horiz-adv-x="223" d="M133 667v-667h-43v667h43zM236 819l-124 -105l-125 105l36 28l89 -74l89 74z" />
<glyph unicode="&#x1d0;" horiz-adv-x="183" d="M112 408v-408h-40v408h40zM-30 581l33 25l89 -87l89 87l32 -25l-121 -114z" />
<glyph unicode="&#x1d2;" horiz-adv-x="517" d="M259 417q90 0 151.5 -62t61.5 -152q0 -91 -62 -152.5t-153 -61.5q-89 0 -150.5 63t-61.5 155q0 86 63 148t151 62zM257 380q-71 0 -121 -51t-50 -123q0 -76 49 -128t121 -52q74 0 124.5 51t50.5 126t-50 126t-124 51zM134 581l33 25l89 -87l89 87l32 -25l-121 -114z" />
<glyph unicode="&#x1d3;" horiz-adv-x="633" d="M133 667v-417q0 -62 5 -91.5t19 -51.5q22 -34 66.5 -55.5t93.5 -21.5q48 0 92.5 21.5t66.5 55.5q14 22 19 51.5t5 91.5v417h43v-429q0 -66 -7 -98t-28 -60q-30 -42 -81.5 -66.5t-109.5 -24.5q-59 0 -110.5 24.5t-81.5 66.5q-21 28 -28 60t-7 98v429h43zM441 819 l-124 -105l-125 105l36 28l89 -74l89 74z" />
<glyph unicode="&#x1d4;" horiz-adv-x="436" d="M111 408v-243q0 -63 13 -90q11 -22 37 -35.5t57 -13.5q30 0 56 13.5t37 35.5q13 27 13 90v243h40v-257q0 -77 -30 -112q-42 -50 -116 -50q-75 0 -117 50q-30 35 -30 112v257h40zM96 581l33 25l89 -87l89 87l32 -25l-121 -114z" />
<glyph unicode="&#x1dd;" horiz-adv-x="484" d="M45 207h351q-3 57 -23 92q-20 37 -57.5 59t-78.5 22q-59 0 -103 -39q-20 -17 -42 -55l-34 20q63 111 181 111q87 0 143.5 -60.5t56.5 -152.5q0 -93 -56.5 -154t-142.5 -61t-139.5 60t-55.5 158zM393 169h-302q12 -65 53 -104t97 -39q57 0 100 40.5t52 102.5z" />
<glyph unicode="&#x1e6;" horiz-adv-x="771" d="M437 320h281q0 -64 -8 -102.5t-29 -74.5q-40 -69 -118 -111.5t-165 -42.5q-142 0 -243.5 101t-101.5 241q0 142 102.5 243.5t245.5 101.5q119 0 209 -72q32 -25 80 -84l-35 -27q-37 50 -64 71q-80 71 -192 71q-123 0 -212.5 -90.5t-89.5 -214.5q0 -123 89 -211.5 t211 -88.5q73 0 141.5 36t102.5 92q27 44 30 122h-234v40zM526 819l-124 -105l-125 105l36 28l89 -74l89 74z" />
<glyph unicode="&#x1e7;" horiz-adv-x="521" d="M450 408v-400q0 -62 -9.5 -99.5t-34.5 -68.5q-58 -74 -161 -74q-57 0 -103 23.5t-71 65.5q-20 32 -26 86h41q5 -45 24 -73q44 -65 136 -65q79 0 121.5 53t42.5 152v62q-68 -80 -162 -80q-83 0 -141 62t-58 152q0 91 59 152t146 61q49 0 84.5 -18.5t71.5 -61.5v71h40z M250 380q-67 0 -113.5 -51t-46.5 -124q0 -77 44.5 -127.5t113.5 -50.5q76 0 127 59q38 46 38 120q0 81 -50 127q-50 47 -113 47zM139 581l33 25l89 -87l89 87l32 -25l-121 -114z" />
<glyph unicode="&#x1f4;" horiz-adv-x="771" d="M437 320h281q0 -64 -8 -102.5t-29 -74.5q-40 -69 -118 -111.5t-165 -42.5q-142 0 -243.5 101t-101.5 241q0 142 102.5 243.5t245.5 101.5q119 0 209 -72q32 -25 80 -84l-35 -27q-37 50 -64 71q-80 71 -192 71q-123 0 -212.5 -90.5t-89.5 -214.5q0 -123 89 -211.5 t211 -88.5q73 0 141.5 36t102.5 92q27 44 30 122h-234v40zM514 816l-133 -103l-35 26l122 108z" />
<glyph unicode="&#x1f5;" horiz-adv-x="521" d="M450 408v-400q0 -62 -9.5 -99.5t-34.5 -68.5q-58 -74 -161 -74q-57 0 -103 23.5t-71 65.5q-20 32 -26 86h41q5 -45 24 -73q44 -65 136 -65q79 0 121.5 53t42.5 152v62q-68 -80 -162 -80q-83 0 -141 62t-58 152q0 91 59 152t146 61q49 0 84.5 -18.5t71.5 -61.5v71h40z M250 380q-67 0 -113.5 -51t-46.5 -124q0 -77 44.5 -127.5t113.5 -50.5q76 0 127 59q38 46 38 120q0 81 -50 127q-50 47 -113 47zM322 581l-105 -114l-29 16l91 125z" />
<glyph unicode="&#x1fa;" horiz-adv-x="584" d="M434 219h-284l-89 -219h-48l280 687l278 -687h-49zM418 259l-125 316l-127 -316h252zM290 859q33 0 56.5 -23.5t23.5 -56.5t-23.5 -56.5t-56.5 -23.5t-56.5 23.5t-23.5 57.5q0 32 23.5 55.5t56.5 23.5zM290 820q-17 0 -29 -12t-12 -28q0 -18 12 -30t29 -12t29 12t12 29 t-12 29t-29 12zM340 935l-132 -102l-35 26l121 108z" />
<glyph unicode="&#x1fb;" horiz-adv-x="515" d="M404 408h40v-408h-40v73q-55 -84 -159 -84q-87 0 -143.5 61.5t-56.5 155.5q0 93 55.5 152t143.5 59q99 0 160 -80v71zM246 380q-68 0 -114 -49.5t-46 -122.5q0 -79 45.5 -130.5t114.5 -51.5q71 0 116 51t45 131q0 84 -51 129q-49 43 -110 43zM257 620q32 0 54.5 -22 t22.5 -54t-22 -54.5t-54 -22.5t-54.5 22.5t-22.5 54.5q0 31 22.5 53.5t53.5 22.5zM257 584q-17 0 -29 -12t-12 -28q0 -18 12 -30t30 -12q17 0 29 12t12 29t-12 29t-30 12zM303 727l-105 -114l-29 16l91 125z" />
<glyph unicode="&#x1fc;" horiz-adv-x="851" d="M433 219h-286l-86 -219h-48l269 667h290l16 -40h-275l99 -242h268l16 -40h-267l123 -305h276l16 -40h-323zM416 259l-127 314l-125 -314h252zM513 816l-133 -103l-35 26l122 108z" />
<glyph unicode="&#x1fd;" horiz-adv-x="793" d="M749 198h-351q1 -51 20 -88q20 -38 56.5 -61t79.5 -23q59 0 105 39q20 19 42 54l34 -24q-72 -106 -181 -106q-56 0 -100.5 27t-67.5 75q-16 -49 -60.5 -75.5t-109.5 -26.5q-74 0 -122.5 36t-48.5 91q0 58 49.5 93.5t130.5 35.5q77 0 128 -42q0 86 -36.5 131.5 t-105.5 45.5q-57 0 -138 -38v41q71 34 142 34q119 0 163 -114q20 40 41 60q54 54 134 54q54 0 100.5 -28.5t69.5 -77.5q22 -45 26 -113zM401 236h302q-6 40 -24 71q-20 33 -55 53t-73 20q-58 0 -98.5 -39.5t-51.5 -104.5zM221 208q-61 0 -98 -25t-37 -66q0 -46 39 -69 q37 -22 90 -22q62 0 99 25.5t37 68.5q0 40 -35.5 64t-94.5 24zM466 581l-105 -114l-29 16l91 125z" />
<glyph unicode="&#x1fe;" horiz-adv-x="798" d="M60 23l79 83q-86 100 -86 228q0 139 102.5 240.5t242.5 101.5q123 0 225 -84l81 81l27 -26l-80 -81q93 -102 93 -234q0 -140 -102 -241.5t-243 -101.5q-127 0 -233 91l-81 -84zM171 135l421 428q-87 72 -194 72q-122 0 -211 -89.5t-89 -212.5q0 -112 73 -198zM619 538 l-422 -430q90 -78 202 -78q122 0 211 89.5t89 212.5q0 117 -80 206zM496 816l-133 -103l-35 26l122 108z" />
<glyph unicode="&#x1ff;" horiz-adv-x="517" d="M41 13l52 54q-48 59 -48 137q0 88 62.5 150.5t150.5 62.5q76 0 136 -48l54 54l25 -24l-54 -54q53 -60 53 -143q0 -89 -61.5 -151t-150.5 -62q-79 0 -143 54l-54 -55zM122 94l243 248q-50 38 -108 38q-71 0 -121 -51.5t-50 -124.5q0 -63 36 -110zM390 319l-245 -250 q50 -43 113 -43q73 0 123 51t50 126q0 65 -41 116zM346 581l-105 -114l-29 16l91 125z" />
<glyph unicode="&#x218;" horiz-adv-x="512" d="M425 581l-32 -26q-29 44 -58.5 62t-72.5 18q-53 0 -89 -36.5t-36 -89.5q0 -40 25 -67t93 -60q97 -46 133 -69q70 -47 70 -128t-61 -138.5t-147 -57.5q-140 0 -197 143l37 18q21 -43 37 -64q45 -56 123 -56q67 0 115 45.5t48 109.5t-65 103q-32 18 -124 63q-76 37 -104 71 t-28 88q0 72 48.5 119t122.5 47q107 0 162 -95zM236 -47l49 -13l-61 -145l-31 10z" />
<glyph unicode="&#x219;" horiz-adv-x="342" d="M287 351l-34 -18q-26 47 -70 47q-29 0 -50 -19.5t-21 -46.5q0 -24 17 -39.5t63 -32.5q57 -21 79 -37q40 -31 40 -87t-37.5 -92.5t-95.5 -36.5q-51 0 -87.5 28t-52.5 80l39 12q28 -83 101 -83q39 0 65.5 26t26.5 65q0 31 -17 49t-62 34q-67 24 -93.5 49t-26.5 63 q0 44 32 74.5t78 30.5q71 0 106 -66zM158 -47l45 -13l-58 -136l-32 10z" />
<glyph unicode="&#x21a;" horiz-adv-x="415" d="M227 627v-627h-43v627h-171v40h388v-40h-174zM182 -47l49 -13l-61 -145l-31 10z" />
<glyph unicode="&#x21b;" horiz-adv-x="194" d="M114 371v-371h-40v371h-45v37h45v146h40v-146h72v-37h-72zM74 -47l45 -13l-58 -136l-32 10z" />
<glyph unicode="&#x226;" horiz-adv-x="584" d="M434 219h-284l-89 -219h-48l280 687l278 -687h-49zM418 259l-125 316l-127 -316h252zM292 818q16 0 28 -12t12 -28t-12 -28t-28 -12q-17 0 -29 12t-12 29q0 16 12 27.5t29 11.5z" />
<glyph unicode="&#x227;" horiz-adv-x="515" d="M404 408h40v-408h-40v73q-55 -84 -159 -84q-87 0 -143.5 61.5t-56.5 155.5q0 93 55.5 152t143.5 59q99 0 160 -80v71zM246 380q-68 0 -114 -49.5t-46 -122.5q0 -79 45.5 -130.5t114.5 -51.5q71 0 116 51t45 131q0 84 -51 129q-49 43 -110 43zM257 569q16 0 27.5 -11 t11.5 -27t-11 -27t-27 -11t-27.5 11t-11.5 27t11 27t27 11z" />
<glyph unicode="&#x259;" horiz-adv-x="484" d="M45 207h351q-3 57 -23 92q-20 37 -57.5 59t-78.5 22q-59 0 -103 -39q-20 -17 -42 -55l-34 20q63 111 181 111q87 0 143.5 -60.5t56.5 -152.5q0 -93 -56.5 -154t-142.5 -61t-139.5 60t-55.5 158zM393 169h-302q12 -65 53 -104t97 -39q57 0 100 40.5t52 102.5z" />
<glyph unicode="&#x2bb;" d="M259 467l-46 13l59 136l31 -10z" />
<glyph unicode="&#x2bc;" horiz-adv-x="227" d="M123 705l40 -12l-74 -200l-26 9z" />
<glyph unicode="&#x2c6;" d="M128 492l122 114l121 -114l-32 -25l-89 87l-89 -87z" />
<glyph unicode="&#x2c7;" d="M128 581l33 25l89 -87l89 87l32 -25l-121 -114z" />
<glyph unicode="&#x2c9;" d="M125 544h249v-38h-249v38z" />
<glyph unicode="&#x2d8;" d="M132 593h38q19 -84 80 -84q62 0 81 84h38q-7 -56 -39 -89.5t-80 -33.5t-80 33.5t-38 89.5z" />
<glyph unicode="&#x2d9;" d="M250 569q16 0 27.5 -11t11.5 -27t-11 -27t-27 -11t-27.5 11t-11.5 27t11 27t27 11z" />
<glyph unicode="&#x2da;" d="M249 620q32 0 54.5 -22t22.5 -54t-22 -54.5t-54 -22.5t-54.5 22.5t-22.5 54.5q0 31 22.5 53.5t53.5 22.5zM249 584q-17 0 -29 -12t-12 -28q0 -18 12 -30t30 -12q17 0 29 12t12 29t-12 29t-30 12z" />
<glyph unicode="&#x2db;" d="M388 0h40q-71 -43 -71 -91q0 -22 12 -34.5t32 -12.5q21 0 54 17l-9 -40q-28 -13 -55 -13q-35 0 -57 21t-22 54q0 60 76 99z" />
<glyph unicode="&#x2dc;" d="M150 490l-26 19q25 58 69 58q24 0 87 -29q16 -8 28 -8q24 0 42 38l25 -19q-18 -58 -70 -58q-17 0 -54 16q-48 22 -63 22q-24 0 -38 -39z" />
<glyph unicode="&#x2dd;" d="M405 581l-102 -114l-27 16l91 125zM289 581l-103 -114l-27 16l91 125z" />
<glyph unicode="&#x37e;" horiz-adv-x="203" d="M98 65l40 -12l-74 -200l-26 10zM106 417q15 0 25.5 -10.5t10.5 -25.5q0 -16 -10.5 -26.5t-25.5 -10.5q-16 0 -26.5 10.5t-10.5 26.5q0 15 11 25.5t26 10.5z" />
<glyph unicode="&#x384;" d="M234 494l-8 203h48l-8 -203h-32z" />
<glyph unicode="&#x385;" d="M160 603q16 0 27.5 -11.5t11.5 -27.5t-11.5 -27.5t-27.5 -11.5t-27.5 11.5t-11.5 27.5t11.5 27.5t27.5 11.5zM339 603q17 0 28 -11.5t11 -27.5t-11 -27.5t-28 -11.5t-28 11.5t-11 27.5t11 27.5t28 11.5zM234 494l-8 203h48l-8 -203h-32z" />
<glyph unicode="&#x386;" horiz-adv-x="584" d="M434 219h-284l-89 -219h-48l280 687l278 -687h-49zM418 259l-125 316l-127 -316h252zM93 494l-8 203h48l-8 -203h-32z" />
<glyph unicode="&#x388;" horiz-adv-x="551" d="M28 494l-8 203h48l-8 -203h-32zM178 0v667h320v-40h-277v-242h270v-40h-270v-305h277v-40h-320z" />
<glyph unicode="&#x389;" horiz-adv-x="759" d="M28 494l-8 203h48l-8 -203h-32zM178 0v667h43v-283h405v283h43v-667h-43v344h-405v-344h-43z" />
<glyph unicode="&#x38a;" horiz-adv-x="312" d="M28 494l-8 203h48l-8 -203h-32zM179 0v667h43v-667h-43z" />
<glyph unicode="&#x38c;" horiz-adv-x="886" d="M28 494l-8 203h48l-8 -203h-32zM487 676q142 0 244 -101.5t102 -241.5q0 -142 -102.5 -243t-245.5 -101q-141 0 -242 103t-101 246q0 136 103 237t242 101zM487 635q-122 0 -211 -88.5t-89 -209.5q0 -137 97 -226q89 -81 201 -81q125 0 214 89t89 214q0 124 -88.5 213 t-212.5 89z" />
<glyph unicode="&#x38e;" horiz-adv-x="633" d="M28 494l-8 203h48l-8 -203h-32zM351 0v285l-218 382h50l190 -335l195 335h51l-225 -382v-285h-43z" />
<glyph unicode="&#x38f;" horiz-adv-x="876" d="M28 494l-8 203h48l-8 -203h-32zM146 0v40h209v31q-103 33 -158 105.5t-55 176.5q0 142 96 233q93 90 244 90t244 -90q96 -91 96 -233q0 -104 -55 -176.5t-158 -105.5v-31h209v-40h-252v94q76 18 134 71q41 38 59.5 81t18.5 104q0 130 -80.5 207.5t-215.5 77.5t-215.5 -78 t-80.5 -208q0 -121 89 -193q55 -46 123 -62v-94h-252z" />
<glyph unicode="&#x390;" horiz-adv-x="184" d="M72 0v408h40v-408h-40zM2 603q16 0 27.5 -11.5t11.5 -27.5t-11.5 -27.5t-27.5 -11.5t-27.5 11.5t-11.5 27.5t11.5 27.5t27.5 11.5zM181 603q17 0 28 -11.5t11 -27.5t-11 -27.5t-28 -11.5t-28 11.5t-11 27.5t11 27.5t28 11.5zM76 494l-8 203h48l-8 -203h-32z" />
<glyph unicode="&#x391;" horiz-adv-x="584" d="M434 219h-284l-89 -219h-48l280 687l278 -687h-49zM418 259l-125 316l-127 -316h252z" />
<glyph unicode="&#x392;" horiz-adv-x="533" d="M90 0v667h144q92 0 139 -51q45 -50 45 -124q0 -48 -17.5 -79.5t-60.5 -58.5q49 -13 78 -36q61 -48 61 -133q0 -86 -67 -141q-54 -44 -141 -44h-181zM133 365h85q46 0 68 5.5t43 22.5q44 34 44 100q0 71 -44 106q-38 28 -111 28h-85v-262zM133 40h112q59 0 88.5 8t55.5 32 q46 41 46 105q0 40 -20 73.5t-53 47.5q-44 19 -125 19h-104v-285z" />
<glyph unicode="&#x393;" horiz-adv-x="456" d="M90 0v667h342v-40h-299v-627h-43z" />
<glyph unicode="&#x394;" horiz-adv-x="584" d="M13 0l280 687l278 -687h-558zM78 40h428l-215 532z" />
<glyph unicode="&#x395;" horiz-adv-x="463" d="M90 0v667h319v-40h-276v-242h270v-40h-270v-305h276v-40h-319z" />
<glyph unicode="&#x396;" horiz-adv-x="555" d="M37 0l407 627h-368v40h443l-408 -627h396v-40h-470z" />
<glyph unicode="&#x397;" horiz-adv-x="671" d="M90 0v667h43v-283h405v283h43v-667h-43v344h-405v-344h-43z" />
<glyph unicode="&#x398;" horiz-adv-x="798" d="M215 313v40h367v-40h-367zM399 676q146 0 245.5 -99.5t99.5 -244.5q0 -144 -100 -243.5t-245 -99.5q-148 0 -247 99.5t-99 248.5q0 141 100.5 240t245.5 99zM399 635q-127 0 -214 -86.5t-87 -212.5q0 -131 86 -218.5t215 -87.5q127 0 213.5 87t86.5 215q0 129 -86 216 t-214 87z" />
<glyph unicode="&#x399;" horiz-adv-x="223" d="M90 0v667h43v-667h-43z" />
<glyph unicode="&#x39a;" horiz-adv-x="539" d="M90 0v667h43v-319l313 319h59l-322 -325l343 -342h-64l-329 334v-334h-43z" />
<glyph unicode="&#x39b;" horiz-adv-x="536" d="M13 0l255 687l255 -687h-49l-206 571l-207 -571h-48z" />
<glyph unicode="&#x39c;" horiz-adv-x="897" d="M83 0l75 690l288 -617l291 617l76 -690h-44l-60 536l-263 -560l-261 560l-58 -536h-44z" />
<glyph unicode="&#x39d;" horiz-adv-x="783" d="M90 0v674l560 -586v579h43v-684l-560 586v-569h-43z" />
<glyph unicode="&#x39e;" horiz-adv-x="554" d="M53 627v40h448v-40h-448zM59 345v40h436v-40h-436zM53 0v40h448v-40h-448z" />
<glyph unicode="&#x39f;" horiz-adv-x="798" d="M398 676q142 0 244 -101.5t102 -241.5q0 -142 -102.5 -243t-245.5 -101q-141 0 -242 103t-101 246q0 136 103 237t242 101zM398 635q-122 0 -211 -88.5t-89 -209.5q0 -137 97 -226q89 -81 201 -81q125 0 214 89t89 214q0 124 -88.5 213t-212.5 89z" />
<glyph unicode="&#x3a0;" horiz-adv-x="658" d="M90 0v667h478v-667h-43v627h-392v-627h-43z" />
<glyph unicode="&#x3a1;" horiz-adv-x="445" d="M133 317v-317h-43v667h128q98 0 146 -51q48 -50 48 -124q0 -82 -51.5 -128.5t-141.5 -46.5h-86zM133 357h87q67 0 107 37t40 98q0 62 -36 98q-37 37 -117 37h-81v-270z" />
<glyph unicode="&#x3a3;" horiz-adv-x="507" d="M53 0l215 373l-199 294h378v-40h-301l172 -251l-188 -336h329v-40h-406z" />
<glyph unicode="&#x3a4;" horiz-adv-x="415" d="M184 0v627h-171v40h388v-40h-174v-627h-43z" />
<glyph unicode="&#x3a5;" horiz-adv-x="514" d="M231 0v285l-218 382h50l190 -335l195 335h51l-225 -382v-285h-43z" />
<glyph unicode="&#x3a6;" horiz-adv-x="848" d="M401 -53v100q-120 4 -201 47q-71 38 -109 100.5t-38 138.5q0 82 44.5 147t125.5 101q69 33 178 37v102h43v-102q125 -5 203 -47q71 -39 109 -100.5t38 -137.5q0 -82 -44.5 -147.5t-124.5 -102.5q-72 -32 -181 -36v-100h-43zM444 578v-491q107 6 169 35q67 33 103 87.5 t36 123.5q0 73 -42 131t-117 88q-56 22 -149 26zM401 87v491q-106 -6 -167 -35q-67 -33 -103 -87.5t-36 -122.5q0 -74 42 -132t118 -88q55 -22 146 -26z" />
<glyph unicode="&#x3a7;" horiz-adv-x="462" d="M23 0l182 341l-175 326h49l151 -281l150 281h50l-175 -326l184 -341h-49l-160 296l-158 -296h-49z" />
<glyph unicode="&#x3a8;" horiz-adv-x="733" d="M345 0v180q-76 5 -120 16t-79 35q-80 55 -80 188v248h43v-229q0 -74 14.5 -112.5t50.5 -61.5q58 -37 171 -40v443h43v-443q113 3 171 40q36 23 50.5 61.5t14.5 112.5v229h43v-248q0 -133 -80 -188q-35 -24 -79 -35t-120 -16v-180h-43z" />
<glyph unicode="&#x3a9;" horiz-adv-x="788" d="M57 0v40h210v31q-104 33 -159 106t-55 176q0 141 97 233q91 90 244 90q152 0 243 -90q97 -92 97 -233q0 -103 -55 -176t-159 -106v-31h210v-40h-253v94q74 17 134 71q41 38 59.5 81t18.5 104q0 130 -80.5 207.5t-214.5 77.5q-135 0 -215.5 -78t-80.5 -208q0 -121 89 -193 q53 -44 123 -62v-94h-253z" />
<glyph unicode="&#x3aa;" horiz-adv-x="223" d="M90 0v667h43v-667h-43zM19 815q16 0 27 -11t11 -27t-11 -27.5t-27 -11.5q-17 0 -28 11t-11 28q0 16 11.5 27t27.5 11zM205 815q16 0 27 -11t11 -27t-11 -27.5t-27 -11.5q-17 0 -28 11t-11 28q0 16 11.5 27t27.5 11z" />
<glyph unicode="&#x3ab;" horiz-adv-x="514" d="M231 0v285l-218 382h50l190 -335l195 335h51l-225 -382v-285h-43zM164 815q16 0 27 -11t11 -27t-11 -27.5t-27 -11.5t-27.5 11t-11.5 28q0 16 11.5 27t27.5 11zM350 815q16 0 27 -11t11 -27t-11 -27.5t-27 -11.5t-27.5 11t-11.5 28q0 16 11.5 27t27.5 11z" />
<glyph unicode="&#x3ac;" horiz-adv-x="515" d="M404 0v73q-57 -84 -160 -84q-86 0 -142.5 61.5t-56.5 155.5q0 93 55.5 152t143.5 59q100 0 160 -80v71h40v-408h-40zM247 380q-70 0 -115.5 -49.5t-45.5 -125.5q0 -77 46 -128t116 -51q68 0 113.5 51t45.5 128q0 87 -51 132q-49 43 -109 43zM242 494l-8 203h48l-8 -203 h-32z" />
<glyph unicode="&#x3ad;" horiz-adv-x="418" d="M387 59v-48q-72 -23 -151 -23q-184 0 -184 123q0 77 69 100q-59 22 -59 85q0 116 177 116q71 0 140 -20v-44q-59 27 -135 27q-141 0 -141 -78q0 -38 38 -57q23 -12 77 -12h103v-35h-100q-128 0 -128 -83q0 -41 36 -63t102 -22q85 0 156 34zM221 494l-8 203h48l-8 -203 h-32z" />
<glyph unicode="&#x3ae;" horiz-adv-x="433" d="M72 0v408h40v-52q24 32 50 45.5t65 13.5q72 0 108 -45q26 -35 26 -122v-484h-40v486q0 68 -17 93q-24 35 -79 35q-60 0 -86.5 -42.5t-26.5 -138.5v-197h-40zM200 494l-8 203h48l-8 -203h-32z" />
<glyph unicode="&#x3af;" horiz-adv-x="184" d="M72 0v408h40v-408h-40zM76 494l-8 203h48l-8 -203h-32z" />
<glyph unicode="&#x3b0;" horiz-adv-x="429" d="M71 408h40v-243q0 -78 20 -105q26 -34 83 -34q62 0 87 41q16 25 16 98v243h40v-257q0 -87 -37 -124q-36 -38 -106 -38q-74 0 -111 43q-32 37 -32 119v257zM124 603q16 0 27.5 -11.5t11.5 -27.5t-11.5 -27.5t-27.5 -11.5t-27.5 11.5t-11.5 27.5t11.5 27.5t27.5 11.5z M303 603q17 0 28 -11.5t11 -27.5t-11 -27.5t-28 -11.5t-28 11.5t-11 27.5t11 27.5t28 11.5zM198 494l-8 203h48l-8 -203h-32z" />
<glyph unicode="&#x3b1;" horiz-adv-x="515" d="M404 0v73q-57 -84 -160 -84q-86 0 -142.5 61.5t-56.5 155.5q0 93 55.5 152t143.5 59q100 0 160 -80v71h40v-408h-40zM247 380q-70 0 -115.5 -49.5t-45.5 -125.5q0 -77 46 -128t116 -51q68 0 113.5 51t45.5 128q0 87 -51 132q-49 43 -109 43z" />
<glyph unicode="&#x3b2;" horiz-adv-x="502" d="M72 -236v698q0 131 26 180q43 85 154 85q75 0 120.5 -45.5t45.5 -119.5q0 -104 -96 -155q52 -20 79 -49q57 -62 57 -155q0 -98 -58 -157t-155 -59q-80 0 -133 46v-269h-40zM112 465v-386q55 -55 128 -55q81 0 129 48t48 130q0 55 -25 98.5t-69 65.5q-34 15 -81 15h-15v44 q57 3 88 24q62 41 62 118q0 54 -36 88.5t-92 34.5q-87 0 -119 -79q-18 -43 -18 -146z" />
<glyph unicode="&#x3b3;" horiz-adv-x="372" d="M171 -239v158q0 61 -8 106.5t-31 114.5q-42 130 -112 268h51q97 -203 121 -338q11 56 38 134l73 204h49l-86 -228q-36 -95 -45.5 -140t-9.5 -121v-158h-40z" />
<glyph unicode="&#x3b4;" horiz-adv-x="492" d="M271 415l-84 74q-61 56 -61 121q0 57 38 82.5t124 25.5h70v-38h-80q-59 0 -85 -16t-26 -53q0 -45 50 -90l150 -138q83 -76 83 -179q0 -97 -56 -156t-147 -59t-146.5 58.5t-55.5 155.5q0 95 56 154.5t144 59.5q15 0 26 -2zM340 353l-21 19q-33 8 -65 8q-86 0 -128 -54 q-40 -51 -40 -123q0 -81 43.5 -129t117.5 -48t118 48.5t44 130.5q0 86 -69 148z" />
<glyph unicode="&#x3b5;" horiz-adv-x="418" d="M387 59v-48q-72 -23 -151 -23q-184 0 -184 123q0 77 69 100q-59 22 -59 85q0 116 177 116q71 0 140 -20v-44q-59 27 -135 27q-141 0 -141 -78q0 -38 38 -57q23 -12 77 -12h103v-35h-100q-128 0 -128 -83q0 -41 36 -63t102 -22q85 0 156 34z" />
<glyph unicode="&#x3b6;" horiz-adv-x="336" d="M47 691v38h297q-151 -280 -190 -360t-54 -125t-15 -85q0 -63 42 -95q25 -19 82 -24q58 -4 83 -19q41 -25 41 -83q0 -40 -22.5 -70t-75.5 -60l-20 30q45 29 61 49.5t16 50.5q0 35 -27 52q-18 11 -66 13q-155 10 -155 153q0 49 17.5 104t63.5 146q67 133 152 285h-230z" />
<glyph unicode="&#x3b7;" horiz-adv-x="433" d="M72 0v408h40v-52q24 32 50 45.5t65 13.5q72 0 108 -45q26 -35 26 -122v-484h-40v486q0 68 -17 93q-24 35 -79 35q-60 0 -86.5 -42.5t-26.5 -138.5v-197h-40z" />
<glyph unicode="&#x3b8;" horiz-adv-x="457" d="M67 376h323q-3 114 -43 202q-51 111 -118 111q-63 0 -110.5 -92.5t-51.5 -220.5zM390 338h-323q4 -126 52 -218t110 -92t109.5 92t51.5 218zM226 726q85 0 143 -103q63 -109 63 -267q0 -149 -60 -257t-143 -108q-84 0 -144 108t-60 259q0 150 59.5 259t141.5 109z" />
<glyph unicode="&#x3b9;" horiz-adv-x="184" d="M72 0v408h40v-408h-40z" />
<glyph unicode="&#x3ba;" horiz-adv-x="392" d="M72 0v408h40v-200l194 200h48l-194 -198l216 -210h-52l-212 208v-208h-40z" />
<glyph unicode="&#x3bb;" horiz-adv-x="357" d="M8 0l150 427l-102 302h45l248 -729h-46l-125 370l-123 -370h-47z" />
<glyph unicode="&#x3bc;" horiz-adv-x="430" d="M71 -239v647h40v-201q0 -96 24 -137.5t79 -41.5q58 0 82 41t24 138v201h40v-408h-40v48q-17 -32 -40 -44.5t-64 -12.5q-42 0 -65 12.5t-40 44.5v-287h-40z" />
<glyph unicode="&#x3bd;" horiz-adv-x="390" d="M8 408h47l141 -330l141 330h45l-186 -433z" />
<glyph unicode="&#x3be;" horiz-adv-x="377" d="M47 691v38h319q-152 -71 -201.5 -111t-49.5 -92q0 -37 25.5 -66t68.5 -41q35 -8 112 -8l-22 -42q-37 6 -58 6q-66 0 -110.5 -52t-44.5 -129q0 -81 48 -118q26 -19 89 -26q65 -6 90 -21q44 -28 44 -90q0 -40 -22.5 -70.5t-75.5 -60.5l-20 30q45 29 61 49.5t16 50.5 q0 39 -29 57q-20 10 -72 15q-89 7 -128 49q-42 45 -42 132q0 74 32.5 128.5t91.5 78.5q-52 23 -73.5 50.5t-21.5 72.5q0 75 67 123q26 20 90 47h-184z" />
<glyph unicode="&#x3bf;" horiz-adv-x="517" d="M259 417q90 0 151.5 -62t61.5 -152q0 -91 -62 -152.5t-153 -61.5q-89 0 -150.5 63t-61.5 155q0 86 63 148t151 62zM257 380q-71 0 -121 -51t-50 -123q0 -76 49 -128t121 -52q74 0 124.5 51t50.5 126t-50 126t-124 51z" />
<glyph unicode="&#x3c0;" horiz-adv-x="487" d="M111 0v370h-79v38h423v-38h-79v-370h-40v370h-185v-370h-40z" />
<glyph unicode="&#x3c1;" horiz-adv-x="515" d="M71 -239v419q0 105 40 159q57 78 158 78q88 0 144.5 -60t56.5 -154t-57 -154t-145 -60q-56 0 -92.5 22t-64.5 73v-323h-40zM270 380q-70 0 -114 -49t-44 -126q0 -79 44 -129t115 -50q68 0 113 50.5t45 126.5t-45.5 126.5t-113.5 50.5z" />
<glyph unicode="&#x3c2;" horiz-adv-x="387" d="M357 370v-51q-59 56 -126 56q-68 0 -106.5 -47.5t-38.5 -129.5q0 -84 48 -122q26 -19 89 -26q65 -7 89 -21q45 -26 45 -90q0 -40 -22.5 -70.5t-75.5 -60.5l-20 30q45 29 61 50t16 50q0 39 -29 57q-17 10 -72 15q-89 7 -128 49q-42 47 -42 135q0 102 50 160t138 58 q69 0 124 -42z" />
<glyph unicode="&#x3c3;" horiz-adv-x="489" d="M499 408v-38h-107q53 -68 53 -167q0 -97 -54.5 -155.5t-145.5 -58.5q-88 0 -144 59t-56 152q0 95 56.5 156t144.5 61q20 0 84 -5q55 -4 88 -4h81zM335 373q-59 7 -89 7q-71 0 -115.5 -50t-44.5 -130q0 -79 43.5 -126.5t115.5 -47.5q74 0 116.5 47t42.5 129q0 99 -69 171z " />
<glyph unicode="&#x3c4;" horiz-adv-x="292" d="M126 0v370h-120v38h280v-38h-120v-370h-40z" />
<glyph unicode="&#x3c5;" horiz-adv-x="429" d="M71 408h40v-243q0 -78 20 -105q26 -34 83 -34q62 0 87 41q16 25 16 98v243h40v-257q0 -87 -37 -124q-36 -38 -106 -38q-74 0 -111 43q-32 37 -32 119v257z" />
<glyph unicode="&#x3c6;" horiz-adv-x="584" d="M270 -236v226q-105 9 -165 65.5t-60 146.5q0 129 125 188l16 -34q-100 -51 -100 -154q0 -75 49 -121t135 -53v387h21q112 0 180.5 -58.5t68.5 -153.5q0 -92 -62 -149t-168 -64v-226h-40zM310 378v-351q90 7 139.5 53t49.5 123t-49.5 123t-139.5 52z" />
<glyph unicode="&#x3c7;" horiz-adv-x="382" d="M167 109l-142 299h46l125 -264l116 264h44l-141 -304l162 -343h-46l-145 307l-138 -307h-44z" />
<glyph unicode="&#x3c8;" horiz-adv-x="611" d="M285 -239v239h-23q-106 0 -148.5 42.5t-42.5 148.5v217h40v-203q0 -97 28 -130q32 -38 117 -38h29v371h40v-371h29q85 0 117 38q28 33 28 130v203h40v-217q0 -106 -42.5 -148.5t-148.5 -42.5h-23v-239h-40z" />
<glyph unicode="&#x3c9;" horiz-adv-x="610" d="M285 253h40v-85q0 -137 88 -137q50 0 80.5 43t30.5 114q0 127 -87 220h42q86 -81 86 -215q0 -91 -42 -146t-110 -55q-74 0 -108 69q-34 -69 -108 -69q-68 0 -110 55.5t-42 145.5q0 134 86 215h42q-87 -93 -87 -220q0 -71 30.5 -114t80.5 -43q88 0 88 137v85z" />
<glyph unicode="&#x3ca;" horiz-adv-x="184" d="M72 0v408h40v-408h-40zM10 566q15 0 25.5 -10.5t10.5 -25.5q0 -16 -10.5 -26.5t-25.5 -10.5q-16 0 -26.5 10.5t-10.5 26.5q0 15 11 25.5t26 10.5zM176 566q15 0 25.5 -10.5t10.5 -25.5q0 -16 -10.5 -26.5t-25.5 -10.5q-16 0 -26.5 10.5t-10.5 26.5q0 15 11 25.5t26 10.5z " />
<glyph unicode="&#x3cb;" horiz-adv-x="429" d="M71 408h40v-243q0 -78 20 -105q26 -34 83 -34q62 0 87 41q16 25 16 98v243h40v-257q0 -87 -37 -124q-36 -38 -106 -38q-74 0 -111 43q-32 37 -32 119v257zM132 566q15 0 25.5 -10.5t10.5 -25.5q0 -16 -10.5 -26.5t-25.5 -10.5q-16 0 -26.5 10.5t-10.5 26.5q0 15 11 25.5 t26 10.5zM298 566q15 0 25.5 -10.5t10.5 -25.5q0 -16 -10.5 -26.5t-25.5 -10.5q-16 0 -26.5 10.5t-10.5 26.5q0 15 11 25.5t26 10.5z" />
<glyph unicode="&#x3cc;" horiz-adv-x="517" d="M259 417q90 0 151.5 -62t61.5 -152q0 -91 -62 -152.5t-153 -61.5q-89 0 -150.5 63t-61.5 155q0 86 63 148t151 62zM257 380q-71 0 -121 -51t-50 -123q0 -76 49 -128t121 -52q74 0 124.5 51t50.5 126t-50 126t-124 51zM243 494l-8 203h48l-8 -203h-32z" />
<glyph unicode="&#x3cd;" horiz-adv-x="429" d="M71 408h40v-243q0 -78 20 -105q26 -34 83 -34q62 0 87 41q16 25 16 98v243h40v-257q0 -87 -37 -124q-36 -38 -106 -38q-74 0 -111 43q-32 37 -32 119v257zM198 494l-8 203h48l-8 -203h-32z" />
<glyph unicode="&#x3ce;" horiz-adv-x="610" d="M285 253h40v-85q0 -137 88 -137q50 0 80.5 43t30.5 114q0 127 -87 220h42q86 -81 86 -215q0 -91 -42 -146t-110 -55q-74 0 -108 69q-34 -69 -108 -69q-68 0 -110 55.5t-42 145.5q0 134 86 215h42q-87 -93 -87 -220q0 -71 30.5 -114t80.5 -43q88 0 88 137v85zM289 494 l-8 203h48l-8 -203h-32z" />
<glyph unicode="&#x3d1;" horiz-adv-x="428" d="M336 413h-104q-102 0 -140 31q-47 36 -47 112q0 77 42.5 128t106.5 51q150 0 180 -285h70v-37h-67q2 -42 2 -53q0 -144 -38 -249q-41 -120 -131 -120q-79 0 -122.5 96.5t-43.5 270.5v50h40v-46q0 -124 18 -197q33 -137 109 -137q35 0 59.5 28.5t42.5 91.5q25 87 25 211 q0 16 -2 54zM228 450h105q-14 127 -48 187.5t-91 60.5q-47 0 -76.5 -38.5t-29.5 -100.5q0 -65 38 -90q27 -19 102 -19z" />
<glyph unicode="&#x3d5;" horiz-adv-x="584" d="M275 -170v160q-104 5 -167 63.5t-63 149.5t62 148.5t168 63.5v158h35v-158q106 -6 168 -63.5t62 -148.5t-63 -149.5t-167 -63.5v-160h-35zM310 378v-351q90 7 139.5 53t49.5 123t-49.5 123t-139.5 52zM275 27v351q-90 -6 -139.5 -52t-49.5 -123t49.5 -123t139.5 -53z" />
<glyph unicode="&#x400;" horiz-adv-x="463" d="M409 627h-276v-242h270v-40h-270v-305h276v-40h-319v667h319v-40zM150 816l46 31l122 -108l-35 -26z" />
<glyph unicode="&#x401;" horiz-adv-x="463" d="M90 0v667h319v-40h-276v-242h270v-40h-270v-305h276v-40h-319zM160 815q16 0 27 -11t11 -27t-11 -27.5t-27 -11.5t-27.5 11t-11.5 28q0 16 11.5 27t27.5 11zM346 815q16 0 27 -11t11 -27t-11 -27.5t-27 -11.5t-27.5 11t-11.5 28q0 16 11.5 27t27.5 11z" />
<glyph unicode="&#x402;" horiz-adv-x="602" d="M138 0v627h-125v40h340v-40h-172v-283q73 73 171 73q103 0 146 -68q24 -38 24 -118v-232q0 -51 -9 -82t-40 -85h-40q28 54 37 87t9 77v232q0 78 -26 109q-34 40 -106 40q-100 0 -166 -92v-285h-43z" />
<glyph unicode="&#x403;" horiz-adv-x="456" d="M90 0v667h342v-40h-299v-627h-43zM368 816l-133 -103l-35 26l122 108z" />
<glyph unicode="&#x404;" horiz-adv-x="663" d="M479 324h-381q4 -98 46 -162q41 -64 104.5 -98t140.5 -34q139 0 234 105v-60q-100 -86 -232 -86q-146 0 -242 98q-96 96 -96 245q0 150 96 246q96 98 243 98q118 0 209 -67v-60q-85 86 -212 86q-118 0 -199 -76t-91 -195h380v-40z" />
<glyph unicode="&#x405;" horiz-adv-x="512" d="M53 132l37 18q21 -43 37 -64q45 -56 123 -56q67 0 115 45.5t48 109.5t-65 103q-32 18 -124 63q-76 37 -104 71t-28 88q0 72 48.5 119t122.5 47q107 0 162 -95l-32 -26q-29 44 -58.5 62t-72.5 18q-53 0 -89 -36.5t-36 -89.5q0 -40 25 -67t93 -60q97 -46 133 -69 q70 -47 70 -128t-61 -138.5t-147 -57.5q-140 0 -197 143z" />
<glyph unicode="&#x406;" horiz-adv-x="223" d="M90 0v667h43v-667h-43z" />
<glyph unicode="&#x407;" horiz-adv-x="223" d="M133 667v-667h-43v667h43zM19 815q16 0 27 -11t11 -27t-11 -27.5t-27 -11.5q-17 0 -28 11t-11 28q0 16 11.5 27t27.5 11zM205 815q16 0 27 -11t11 -27t-11 -27.5t-27 -11.5q-17 0 -28 11t-11 28q0 16 11.5 27t27.5 11z" />
<glyph unicode="&#x408;" horiz-adv-x="265" d="M132 667h43v-665q0 -63 -22 -96q-31 -45 -93 -45q-76 0 -113 72l32 24q29 -55 83 -55q70 0 70 100v665z" />
<glyph unicode="&#x409;" horiz-adv-x="868" d="M444 0v627h-231q-13 -269 -29 -390q-16 -124 -48 -174q-41 -65 -115 -65q-14 0 -27 2v42q20 -4 27 -4q70 0 99 111q37 139 47 518h320v-278h113q112 0 160 -41q63 -52 63 -153q0 -111 -74 -163q-48 -32 -149 -32h-156zM487 40h102q64 0 98 9.5t55 33.5q37 42 37 112 q0 77 -46 120q-35 34 -144 34h-102v-309z" />
<glyph unicode="&#x40a;" horiz-adv-x="961" d="M90 0v667h43v-278h405v278h43v-278h113q112 0 160 -41q63 -52 63 -153q0 -111 -74 -163q-48 -32 -149 -32h-156v349h-405v-349h-43zM581 40h102q64 0 98 9.5t55 33.5q37 42 37 112q0 77 -46 120q-35 34 -144 34h-102v-309z" />
<glyph unicode="&#x40b;" horiz-adv-x="658" d="M155 0v627h-142v40h380v-40h-195v-283q82 73 191 73q113 0 162 -68q27 -38 27 -118v-231h-43v228q0 78 -30 109q-37 40 -119 40q-112 0 -188 -92v-285h-43z" />
<glyph unicode="&#x40c;" horiz-adv-x="539" d="M90 0v667h43v-319l313 319h59l-322 -325l343 -342h-64l-329 334v-334h-43zM410 816l-133 -103l-35 26l122 108z" />
<glyph unicode="&#x40d;" horiz-adv-x="671" d="M90 667h43v-567l448 574v-674h-43v557l-448 -574v684zM252 816l46 31l122 -108l-35 -26z" />
<glyph unicode="&#x40e;" d="M60 0l171 285l-218 382h51l190 -335l195 335h51l-393 -667h-47zM135 835h42q19 -74 82 -74t82 74h42q-7 -55 -40 -86.5t-84 -31.5t-84 31.5t-40 86.5z" />
<glyph unicode="&#x40f;" horiz-adv-x="655" d="M90 0v667h43v-627h381v627h43v-667h-212v-128h-43v128h-212z" />
<glyph unicode="&#x410;" horiz-adv-x="584" d="M434 219h-284l-89 -219h-48l280 687l278 -687h-49zM418 259l-125 316l-127 -316h252z" />
<glyph unicode="&#x411;" horiz-adv-x="514" d="M90 0v667h328v-40h-285v-238h113q113 0 161 -41q63 -52 63 -153q0 -111 -74 -163q-48 -32 -150 -32h-156zM133 40h102q65 0 99 9.5t55 33.5q37 42 37 112q0 77 -46 120q-37 34 -145 34h-102v-309z" />
<glyph unicode="&#x412;" horiz-adv-x="533" d="M90 0v667h144q92 0 139 -51q45 -50 45 -124q0 -48 -17.5 -79.5t-60.5 -58.5q49 -13 78 -36q61 -48 61 -133q0 -86 -67 -141q-54 -44 -141 -44h-181zM133 365h85q46 0 68 5.5t43 22.5q44 34 44 100q0 71 -44 106q-38 28 -111 28h-85v-262zM133 40h112q59 0 88.5 8t55.5 32 q46 41 46 105q0 40 -20 73.5t-53 47.5q-44 19 -125 19h-104v-285z" />
<glyph unicode="&#x413;" horiz-adv-x="456" d="M90 0v667h342v-40h-299v-627h-43z" />
<glyph unicode="&#x414;" horiz-adv-x="594" d="M-24 -128v168h27q55 0 96 66q32 51 49 258q12 168 16 303h332v-627h55v-168h-43v128h-489v-128h-43zM85 40h368v587h-243q-7 -143 -13.5 -231.5t-15 -155.5t-22 -104t-30.5 -59t-44 -37z" />
<glyph unicode="&#x415;" horiz-adv-x="463" d="M90 0v667h319v-40h-276v-242h270v-40h-270v-305h276v-40h-319z" />
<glyph unicode="&#x416;" horiz-adv-x="831" d="M394 0v326h-34l-283 -326h-64l303 341l-282 326h59l258 -301h43v301h43v-301h43l258 301h59l-282 -326l303 -341h-64l-283 326h-34v-326h-43z" />
<glyph unicode="&#x417;" horiz-adv-x="540" d="M157 334v40h59q100 0 145 22q70 33 70 110q0 62 -53 96.5t-149 34.5q-90 0 -166 -36v48q81 29 169 29q113 0 178 -46t65 -125q0 -72 -54 -117q-28 -23 -80 -37q147 -41 147 -172q0 -93 -65.5 -142t-189.5 -49q-98 0 -185 33v51q92 -43 189 -43q101 0 153.5 37.5 t52.5 109.5q0 156 -228 156h-58z" />
<glyph unicode="&#x418;" horiz-adv-x="671" d="M90 667h43v-567l448 574v-674h-43v557l-448 -574v684z" />
<glyph unicode="&#x419;" horiz-adv-x="671" d="M90 667h43v-567l448 574v-674h-43v557l-448 -574v684zM211 835h42q19 -74 82 -74t82 74h42q-7 -55 -40 -86.5t-84 -31.5t-84 31.5t-40 86.5z" />
<glyph unicode="&#x41a;" horiz-adv-x="539" d="M90 0v667h43v-319l313 319h59l-322 -325l343 -342h-64l-329 334v-334h-43z" />
<glyph unicode="&#x41b;" horiz-adv-x="577" d="M167 667h320v-667h-43v627h-231q-13 -269 -29 -390q-16 -124 -48 -174q-41 -65 -115 -65q-14 0 -27 2v42q20 -4 27 -4q70 0 99 111q37 139 47 518z" />
<glyph unicode="&#x41c;" horiz-adv-x="897" d="M83 0l75 690l288 -617l291 617l76 -690h-44l-60 536l-263 -560l-261 560l-58 -536h-44z" />
<glyph unicode="&#x41d;" horiz-adv-x="671" d="M90 0v667h43v-283h405v283h43v-667h-43v344h-405v-344h-43z" />
<glyph unicode="&#x41e;" horiz-adv-x="798" d="M398 676q142 0 244 -101.5t102 -241.5q0 -142 -102.5 -243t-245.5 -101q-141 0 -242 103t-101 246q0 136 103 237t242 101zM398 635q-122 0 -211 -88.5t-89 -209.5q0 -137 97 -226q89 -81 201 -81q125 0 214 89t89 214q0 124 -88.5 213t-212.5 89z" />
<glyph unicode="&#x41f;" horiz-adv-x="658" d="M90 0v667h478v-667h-43v627h-392v-627h-43z" />
<glyph unicode="&#x420;" horiz-adv-x="445" d="M133 317v-317h-43v667h128q98 0 146 -51q48 -50 48 -124q0 -82 -51.5 -128.5t-141.5 -46.5h-86zM133 357h87q67 0 107 37t40 98q0 62 -36 98q-37 37 -117 37h-81v-270z" />
<glyph unicode="&#x421;" horiz-adv-x="677" d="M623 590v-60q-93 105 -234 105q-127 0 -209 -88.5t-82 -225.5q0 -142 92 -222q79 -71 196 -71q99 0 179 52q25 15 58 50v-58q-58 -46 -111.5 -65t-124.5 -19q-149 0 -241.5 92.5t-92.5 241.5q0 154 95.5 254t243.5 100q68 0 122.5 -20t108.5 -66z" />
<glyph unicode="&#x422;" horiz-adv-x="415" d="M184 0v627h-171v40h388v-40h-174v-627h-43z" />
<glyph unicode="&#x423;" d="M60 0l171 285l-218 382h51l190 -335l195 335h51l-393 -667h-47z" />
<glyph unicode="&#x424;" horiz-adv-x="848" d="M401 -53v100q-120 4 -201 47q-71 38 -109 100.5t-38 138.5q0 82 44.5 147t125.5 101q69 33 178 37v102h43v-102q125 -5 203 -47q71 -39 109 -100.5t38 -137.5q0 -82 -44.5 -147.5t-124.5 -102.5q-72 -32 -181 -36v-100h-43zM444 578v-491q107 6 169 35q67 33 103 87.5 t36 123.5q0 73 -42 131t-117 88q-56 22 -149 26zM401 87v491q-106 -6 -167 -35q-67 -33 -103 -87.5t-36 -122.5q0 -74 42 -132t118 -88q55 -22 146 -26z" />
<glyph unicode="&#x425;" horiz-adv-x="462" d="M205 341l-175 326h49l151 -281l150 281h50l-175 -326l184 -341h-49l-160 296l-158 -296h-49z" />
<glyph unicode="&#x426;" horiz-adv-x="655" d="M90 0v667h43v-627h381v627h43v-627h55v-168h-43v128h-479z" />
<glyph unicode="&#x427;" horiz-adv-x="578" d="M445 0v258q-106 -21 -163 -21q-137 0 -194 63q-44 50 -44 164v203h43v-184q0 -69 9 -104.5t32 -57.5q45 -43 162 -43q64 0 155 25v364h43v-667h-43z" />
<glyph unicode="&#x428;" horiz-adv-x="882" d="M90 0v667h43v-627h286v627h43v-627h287v627h43v-667h-702z" />
<glyph unicode="&#x429;" horiz-adv-x="890" d="M90 0v667h43v-627h286v627h43v-627h287v627h43v-627h55v-168h-43v128h-714z" />
<glyph unicode="&#x42a;" horiz-adv-x="633" d="M209 0v627h-209v40h252v-278h113q112 0 160 -41q63 -52 63 -153q0 -111 -74 -163q-48 -32 -149 -32h-156zM252 40h102q64 0 98 9.5t55 33.5q37 42 37 112q0 77 -46 120q-35 34 -144 34h-102v-309z" />
<glyph unicode="&#x42b;" horiz-adv-x="699" d="M90 0v667h43v-278h113q112 0 160 -41q63 -52 63 -153q0 -111 -74 -163q-48 -32 -149 -32h-156zM133 40h102q64 0 98 9.5t55 33.5q37 42 37 112q0 77 -46 120q-35 34 -144 34h-102v-309zM566 0v667h43v-667h-43z" />
<glyph unicode="&#x42c;" horiz-adv-x="514" d="M90 0v667h43v-278h113q112 0 160 -41q63 -52 63 -153q0 -111 -74 -163q-48 -32 -149 -32h-156zM133 40h102q64 0 98 9.5t55 33.5q37 42 37 112q0 77 -46 120q-35 34 -144 34h-102v-309z" />
<glyph unicode="&#x42d;" horiz-adv-x="663" d="M184 324v40h380q-10 119 -91 195t-199 76q-127 0 -212 -86v60q93 67 209 67q147 0 243 -98q96 -96 96 -246q0 -149 -96 -245q-96 -98 -242 -98q-130 0 -232 86v60q95 -105 234 -105q83 0 150.5 40t105.5 111q32 60 35 143h-381z" />
<glyph unicode="&#x42e;" horiz-adv-x="1021" d="M90 0v667h43v-313h163q11 137 107.5 229.5t227.5 92.5q138 0 237 -101.5t99 -241.5q0 -141 -99.5 -242.5t-236.5 -101.5q-132 0 -229 94t-106 231h-163v-314h-43zM631 635q-118 0 -204.5 -88.5t-86.5 -209.5q0 -137 94 -226q86 -81 195 -81q121 0 207 89t86 214 q0 124 -86 213t-205 89z" />
<glyph unicode="&#x42f;" horiz-adv-x="507" d="M374 315h-23l-251 -315h-53l254 315q-65 0 -96.5 6t-56.5 23q-73 48 -73 146q0 96 67 143q48 34 141 34h134v-667h-43v315zM374 355v272h-95q-65 0 -101 -20q-27 -15 -43 -46t-16 -70q0 -65 39.5 -100.5t111.5 -35.5h104z" />
<glyph unicode="&#x430;" horiz-adv-x="515" d="M404 0v73q-57 -84 -160 -84q-86 0 -142.5 61.5t-56.5 155.5q0 93 55.5 152t143.5 59q100 0 160 -80v71h40v-408h-40zM247 380q-70 0 -115.5 -49.5t-45.5 -125.5q0 -77 46 -128t116 -51q68 0 113.5 51t45.5 128q0 87 -51 132q-49 43 -109 43z" />
<glyph unicode="&#x431;" horiz-adv-x="515" d="M410 733v-47q-11 -8 -111 -25q-45 -6 -72.5 -13.5t-50.5 -24t-34.5 -37t-19.5 -60t-10 -85.5t-2 -121q48 97 158 97q89 0 145.5 -59.5t56.5 -154.5q0 -94 -56.5 -154t-144.5 -60q-59 0 -105 28t-68 78q-27 61 -27 243q0 133 14 199t49 100q23 22 56 34.5t100 25.5 q96 18 122 36zM270 380q-70 0 -113.5 -49t-43.5 -126q0 -79 44 -129t115 -50q67 0 112 50.5t45 126.5t-45.5 126.5t-113.5 50.5z" />
<glyph unicode="&#x432;" horiz-adv-x="417" d="M72 0v408h140q136 0 136 -105q0 -29 -11.5 -48t-39.5 -36q77 -31 77 -107q0 -112 -136 -112h-166zM112 227h100q94 0 94 76q0 68 -83 68h-111v-144zM112 37h119q55 0 78.5 17t23.5 56q0 80 -109 80h-112v-153z" />
<glyph unicode="&#x433;" horiz-adv-x="312" d="M72 0v408h228v-37h-188v-371h-40z" />
<glyph unicode="&#x434;" horiz-adv-x="446" d="M374 0h-342v-104h-40v141h19q28 0 51 25t33 67q18 68 23 279h252v-371h44v-141h-40v104zM330 37v334h-172q-2 -34 -2 -40l-4 -88q-4 -85 -19 -132t-44 -74h241z" />
<glyph unicode="&#x435;" horiz-adv-x="484" d="M439 199h-350q1 -56 22 -92q20 -37 57.5 -59t79.5 -22q59 0 103 39q19 18 41 55l34 -20q-62 -111 -181 -111q-87 0 -143.5 60.5t-56.5 152.5q0 93 56.5 154t142.5 61t140 -60t55 -158zM92 237h301q-11 64 -52.5 103.5t-97.5 39.5q-57 0 -99.5 -40.5t-51.5 -102.5z" />
<glyph unicode="&#x436;" horiz-adv-x="529" d="M244 0v189h-27l-175 -189h-52l196 210l-174 198h48l158 -182h26v182h40v-182h26l158 182h48l-174 -198l196 -210h-52l-175 189h-27v-189h-40z" />
<glyph unicode="&#x437;" horiz-adv-x="398" d="M97 193v35h83q58 0 82 14q33 20 33 56q0 77 -132 77q-70 0 -124 -27v44q66 20 130 20q167 0 167 -116q0 -63 -59 -85q69 -25 69 -101q0 -122 -174 -122q-71 0 -141 23v48q66 -34 145 -34q61 0 95 22t34 63q0 83 -128 83h-80z" />
<glyph unicode="&#x438;" horiz-adv-x="427" d="M71 408h40v-311l244 318v-415h-40v302l-244 -318v424z" />
<glyph unicode="&#x439;" horiz-adv-x="427" d="M71 408h40v-311l244 318v-415h-40v302l-244 -318v424zM95 593h38q19 -84 80 -84q62 0 81 84h38q-7 -56 -39 -89.5t-80 -33.5t-80 33.5t-38 89.5z" />
<glyph unicode="&#x43a;" horiz-adv-x="392" d="M72 0v408h40v-200l194 200h48l-194 -198l216 -210h-52l-212 208v-208h-40z" />
<glyph unicode="&#x43b;" horiz-adv-x="415" d="M303 0v371h-172q-7 -174 -13 -219q-10 -80 -35.5 -117t-70.5 -37q-13 0 -26 2v43q15 -5 24 -5q31 0 47.5 35t24.5 113q7 70 9 222h252v-408h-40z" />
<glyph unicode="&#x43c;" horiz-adv-x="578" d="M50 0l75 420l164 -340l163 340l76 -420h-42l-51 300l-146 -304l-147 304l-50 -300h-42z" />
<glyph unicode="&#x43d;" horiz-adv-x="433" d="M71 0v408h40v-168h210v168h40v-408h-40v203h-210v-203h-40z" />
<glyph unicode="&#x43e;" horiz-adv-x="517" d="M259 417q90 0 151.5 -62t61.5 -152q0 -91 -62 -152.5t-153 -61.5q-89 0 -150.5 63t-61.5 155q0 86 63 148t151 62zM257 380q-71 0 -121 -51t-50 -123q0 -76 49 -128t121 -52q74 0 124.5 51t50.5 126t-50 126t-124 51z" />
<glyph unicode="&#x43f;" horiz-adv-x="425" d="M71 0v408h282v-408h-40v371h-202v-371h-40z" />
<glyph unicode="&#x440;" horiz-adv-x="515" d="M71 -239v647h40v-73q55 82 159 82q87 0 143.5 -61t56.5 -155t-55.5 -153t-143.5 -59q-99 0 -160 82v-310h-40zM269 380q-69 0 -115 -50.5t-46 -124.5q0 -78 45.5 -128.5t115.5 -50.5q68 0 114 50.5t46 126.5t-46 126.5t-114 50.5z" />
<glyph unicode="&#x441;" horiz-adv-x="441" d="M398 365v-53q-36 37 -69.5 52.5t-75.5 15.5q-74 0 -120.5 -49.5t-46.5 -128.5q0 -78 47 -127t122 -49q85 0 148 74v-54q-67 -57 -147 -57q-94 0 -152.5 58.5t-58.5 153.5q0 96 58 156t150 60q79 0 145 -52z" />
<glyph unicode="&#x442;" horiz-adv-x="292" d="M126 0v370h-120v38h280v-38h-120v-370h-40z" />
<glyph unicode="&#x443;" horiz-adv-x="428" d="M201 -7l-193 415h47l167 -362l152 362h46l-274 -647h-45z" />
<glyph unicode="&#x444;" horiz-adv-x="687" d="M324 -239v281q-47 -53 -118 -53q-72 0 -116.5 59t-44.5 155t44.5 155t116.5 59q71 0 118 -53v210h40v-210q47 53 118 53q72 0 116.5 -59t44.5 -155t-44.5 -155t-116.5 -59q-71 0 -118 53v-281h-40zM324 97v212q-48 71 -114 71q-56 0 -90 -48.5t-34 -128.5t34 -128.5 t90 -48.5q66 0 114 71zM364 309v-212q48 -71 114 -71q56 0 90 48.5t34 128.5t-34 128.5t-90 48.5q-66 0 -114 -71z" />
<glyph unicode="&#x445;" horiz-adv-x="401" d="M174 214l-151 194h52l126 -163l124 163h52l-148 -194l164 -214h-52l-140 183l-140 -183h-53z" />
<glyph unicode="&#x446;" horiz-adv-x="432" d="M72 0v408h40v-371h202v371h40v-371h44v-141h-40v104h-286z" />
<glyph unicode="&#x447;" horiz-adv-x="391" d="M279 0v141q-48 -15 -94 -15q-139 0 -139 160v122h40v-111q0 -72 24 -103t80 -31q48 0 89 19v226h40v-408h-40z" />
<glyph unicode="&#x448;" horiz-adv-x="606" d="M72 0v408h40v-371h171v371h40v-371h171v371h40v-408h-462z" />
<glyph unicode="&#x449;" horiz-adv-x="612" d="M72 0v408h40v-371h171v371h40v-371h171v371h40v-371h44v-141h-40v104h-466z" />
<glyph unicode="&#x44a;" horiz-adv-x="434" d="M112 0v371h-112v37h152v-160h102q150 0 150 -124t-150 -124h-142zM152 37h95q64 0 90 20t26 67q0 48 -26 67.5t-90 19.5h-95v-174z" />
<glyph unicode="&#x44b;" horiz-adv-x="544" d="M71 0v408h40v-160h102q150 0 150 -124t-150 -124h-142zM111 37h95q64 0 90 20t26 67q0 48 -26 67.5t-90 19.5h-95v-174zM432 0v408h40v-408h-40z" />
<glyph unicode="&#x44c;" horiz-adv-x="394" d="M72 0v408h40v-160h102q150 0 150 -124t-150 -124h-142zM112 37h95q64 0 90 20t26 67q0 48 -26 67.5t-90 19.5h-95v-174z" />
<glyph unicode="&#x44d;" horiz-adv-x="425" d="M120 189v37h218q-7 73 -51.5 113.5t-115.5 40.5q-44 0 -74 -13t-69 -49v53q70 46 144 46q92 0 150.5 -60t58.5 -154t-58.5 -154t-150.5 -60q-75 0 -144 46v54q41 -37 70.5 -50t72.5 -13q73 0 117 43t51 120h-219z" />
<glyph unicode="&#x44e;" horiz-adv-x="676" d="M91 0v408h40v-185h101q5 85 61 139.5t138 54.5q87 0 143.5 -60t56.5 -154q0 -93 -56.5 -153.5t-143.5 -60.5q-83 0 -139 55.5t-60 141.5h-101v-186h-40zM432 380q-71 0 -115 -48.5t-44 -125.5q0 -82 43.5 -131t115.5 -49q70 0 114 49t44 128t-43.5 128t-114.5 49z" />
<glyph unicode="&#x44f;" horiz-adv-x="384" d="M272 0v166h-5l-169 -166h-58l173 166q-86 1 -117 20q-56 31 -56 101q0 68 49 100q19 13 39.5 17t64.5 4h119v-408h-40zM272 203v168h-80q-58 0 -84.5 -19t-26.5 -61q0 -47 33 -72q25 -16 77 -16h81z" />
<glyph unicode="&#x450;" horiz-adv-x="484" d="M439 199h-350q1 -56 22 -92q20 -37 57.5 -59t79.5 -22q59 0 103 39q19 18 41 55l34 -20q-62 -111 -181 -111q-87 0 -143.5 60.5t-56.5 152.5q0 93 56.5 154t142.5 61t140 -60t55 -158zM92 237h301q-11 64 -52.5 103.5t-97.5 39.5q-57 0 -99.5 -40.5t-51.5 -102.5z M164 581l42 27l92 -125l-30 -16z" />
<glyph unicode="&#x451;" horiz-adv-x="484" d="M439 199h-350q1 -56 22 -92q20 -37 57.5 -59t79.5 -22q59 0 103 39q19 18 41 55l34 -20q-62 -111 -181 -111q-87 0 -143.5 60.5t-56.5 152.5q0 93 56.5 154t142.5 61t140 -60t55 -158zM92 237h301q-11 64 -52.5 103.5t-97.5 39.5q-57 0 -99.5 -40.5t-51.5 -102.5z M160 566q15 0 25.5 -10.5t10.5 -25.5q0 -16 -10.5 -26.5t-25.5 -10.5q-16 0 -26.5 10.5t-10.5 26.5q0 15 11 25.5t26 10.5zM326 566q15 0 25.5 -10.5t10.5 -25.5q0 -16 -10.5 -26.5t-25.5 -10.5q-16 0 -26.5 10.5t-10.5 26.5q0 15 11 25.5t26 10.5z" />
<glyph unicode="&#x452;" horiz-adv-x="431" d="M61 0v534h-53v37h53v158h40v-158h137v-37h-137v-190q26 39 55 56t72 17q72 0 106 -49q25 -33 25 -111v-261q0 -62 -6.5 -107t-28.5 -125h-35q30 139 30 235v258q0 58 -15 84q-23 39 -82 39q-67 0 -99 -56q-22 -36 -22 -112v-212h-40z" />
<glyph unicode="&#x453;" horiz-adv-x="312" d="M72 0v408h228v-37h-188v-371h-40zM277 581l-105 -114l-29 16l91 125z" />
<glyph unicode="&#x454;" horiz-adv-x="425" d="M306 189h-219q7 -77 51 -120t117 -43q43 0 72.5 13t70.5 50v-54q-69 -46 -144 -46q-92 0 -150.5 60t-58.5 154t58.5 154t150.5 60q74 0 144 -46v-53q-39 36 -69 49t-74 13q-71 0 -115.5 -40.5t-51.5 -113.5h218v-37z" />
<glyph unicode="&#x455;" horiz-adv-x="342" d="M38 97l39 12q28 -83 101 -83q39 0 65.5 26t26.5 65q0 31 -17 49t-62 34q-67 24 -93.5 49t-26.5 63q0 44 32 74.5t78 30.5q71 0 106 -66l-34 -18q-26 47 -70 47q-29 0 -50 -19.5t-21 -46.5q0 -24 17 -39.5t63 -32.5q57 -21 79 -37q40 -31 40 -87t-37.5 -92.5t-95.5 -36.5 q-51 0 -87.5 28t-52.5 80z" />
<glyph unicode="&#x456;" horiz-adv-x="183" d="M111 408v-408h-40v408h40zM91 580q15 0 25.5 -10.5t10.5 -25.5q0 -16 -10.5 -26.5t-25.5 -10.5t-25.5 10.5t-10.5 26.5q0 15 10.5 25.5t25.5 10.5z" />
<glyph unicode="&#x457;" horiz-adv-x="183" d="M111 408v-408h-40v408h40zM9 566q15 0 25.5 -10.5t10.5 -25.5q0 -16 -10.5 -26.5t-25.5 -10.5q-16 0 -26.5 10.5t-10.5 26.5q0 15 11 25.5t26 10.5zM175 566q15 0 25.5 -10.5t10.5 -25.5q0 -16 -10.5 -26.5t-25.5 -10.5q-16 0 -26.5 10.5t-10.5 26.5q0 15 11 25.5 t26 10.5z" />
<glyph unicode="&#x458;" horiz-adv-x="183" d="M111 408v-647h-40v647h40zM91 580q15 0 25.5 -10.5t10.5 -25.5q0 -16 -10.5 -26.5t-25.5 -10.5t-25.5 10.5t-10.5 26.5q0 15 10.5 25.5t25.5 10.5z" />
<glyph unicode="&#x459;" horiz-adv-x="597" d="M275 0v371h-144q-7 -172 -13 -219q-19 -154 -106 -154q-13 0 -26 2v43q16 -4 24 -4q31 0 47.5 35t24.5 113q6 67 9 221h224v-160h102q150 0 150 -124t-150 -124h-142zM315 37h95q64 0 90 20t26 67q0 48 -26 67.5t-90 19.5h-95v-174z" />
<glyph unicode="&#x45a;" horiz-adv-x="644" d="M71 0v408h40v-160h210v160h40v-160h102q150 0 150 -124t-150 -124h-142v211h-210v-211h-40zM361 37h95q64 0 90 20t26 67q0 48 -26 67.5t-90 19.5h-95v-174z" />
<glyph unicode="&#x45b;" horiz-adv-x="431" d="M61 0v534h-53v37h53v158h40v-158h158v-37h-158v-190q26 39 55 56t72 17q72 0 106 -49q25 -33 25 -111v-257h-40v257q0 58 -15 84q-23 39 -82 39q-67 0 -99 -56q-22 -36 -22 -112v-212h-40z" />
<glyph unicode="&#x45c;" horiz-adv-x="392" d="M72 0v408h40v-200l194 200h48l-194 -198l216 -210h-52l-212 208v-208h-40zM310 581l-105 -114l-29 16l91 125z" />
<glyph unicode="&#x45d;" horiz-adv-x="427" d="M71 408h40v-311l244 318v-415h-40v302l-244 -318v424zM146 581l42 27l92 -125l-30 -16z" />
<glyph unicode="&#x45e;" horiz-adv-x="428" d="M201 -7l-193 415h47l167 -362l152 362h46l-274 -647h-45zM96 593h38q19 -84 80 -84q62 0 81 84h38q-7 -56 -39 -89.5t-80 -33.5t-80 33.5t-38 89.5z" />
<glyph unicode="&#x45f;" horiz-adv-x="425" d="M71 0v408h40v-371h203v371h40v-408h-122v-104h-40v104h-121z" />
<glyph unicode="&#x490;" horiz-adv-x="456" d="M90 0v667h299v62h43v-102h-299v-627h-43z" />
<glyph unicode="&#x491;" horiz-adv-x="312" d="M72 0v408h188v64h40v-101h-188v-371h-40z" />
<glyph unicode="&#x492;" horiz-adv-x="456" d="M90 0v345h-61v40h61v282h342v-40h-299v-242h237v-40h-237v-345h-43z" />
<glyph unicode="&#x493;" horiz-adv-x="288" d="M72 0v204h-47v37h47v167h205v-37h-165v-130h123v-37h-123v-204h-40z" />
<glyph unicode="&#x496;" horiz-adv-x="831" d="M782 40h35v-168h-43v128h-20l-283 326h-34v-326h-43v326h-34l-283 -326h-64l303 341l-282 326h59l258 -301h43v301h43v-301h43l258 301h59l-282 -326z" />
<glyph unicode="&#x497;" horiz-adv-x="529" d="M505 37h30v-141h-40v104h-8l-176 189h-27v-189h-40v189h-27l-175 -189h-52l196 210l-174 198h48l158 -182h26v182h40v-182h26l159 182h48l-175 -198z" />
<glyph unicode="&#x49a;" horiz-adv-x="539" d="M486 40h43v-168h-43v128h-23l-330 334v-334h-43v667h43v-319l314 319h59l-323 -325z" />
<glyph unicode="&#x49b;" horiz-adv-x="392" d="M338 37h41v-141h-40v104h-15l-212 208v-208h-40v408h40v-200l194 200h48l-194 -197z" />
<glyph unicode="&#x49c;" horiz-adv-x="539" d="M90 0v667h43v-306h65v177h39v-174l240 303h59l-260 -326l280 -341h-63l-256 318v-191h-39v194h-65v-321h-43z" />
<glyph unicode="&#x49d;" horiz-adv-x="421" d="M72 0v408h40v-170h50v104h37v-101l144 167h48l-164 -187l186 -221h-52l-162 199v-102h-37v104h-50v-201h-40z" />
<glyph unicode="&#x4a2;" horiz-adv-x="671" d="M581 40h41v-168h-43v128h-41v344h-405v-344h-43v667h43v-283h405v283h43v-627z" />
<glyph unicode="&#x4a3;" horiz-adv-x="433" d="M361 37h36v-141h-40v104h-36v203h-210v-203h-40v408h40v-168h210v168h40v-371z" />
<glyph unicode="&#x4ae;" horiz-adv-x="514" d="M231 0v285l-218 382h50l190 -335l195 335h51l-225 -382v-285h-43z" />
<glyph unicode="&#x4af;" horiz-adv-x="428" d="M201 -7l-193 415h47l167 -362l151 362h47l-173 -408v-229h-46v222z" />
<glyph unicode="&#x4b0;" horiz-adv-x="514" d="M231 0v233h-136v44h136v8l-218 382h51l189 -335l196 335h51l-226 -382v-8h137v-44h-137v-233h-43z" />
<glyph unicode="&#x4b1;" horiz-adv-x="494" d="M222 -44h-136v44h136v23l-198 381h51l169 -334l176 334h51l-206 -381v-23h137v-44h-137v-188h-43v188z" />
<glyph unicode="&#x4b2;" horiz-adv-x="462" d="M418 40h41v-168h-43v128h-26l-159 296l-159 -296h-49l183 340l-175 327h49l151 -281l149 281h50l-174 -327z" />
<glyph unicode="&#x4b3;" horiz-adv-x="401" d="M364 37h32v-141h-40v104h-15l-141 183l-139 -183h-53l166 214l-152 194h53l125 -163l124 163h53l-149 -194z" />
<glyph unicode="&#x4b6;" horiz-adv-x="578" d="M469 0h-24v258q-106 -21 -163 -21q-137 0 -194 63q-44 50 -44 164v203h43v-184q0 -69 9 -104.5t32 -57.5q45 -43 162 -43q62 0 155 25v364h43v-627h24v-168h-43v128z" />
<glyph unicode="&#x4b7;" horiz-adv-x="391" d="M306 0h-27v142q-45 -16 -94 -16q-139 0 -139 160v122h40v-111q0 -72 24 -103t80 -31q48 0 89 19v226h40v-371h27v-141h-40v104z" />
<glyph unicode="&#x4b8;" horiz-adv-x="578" d="M286 238v-136h-39v137q-112 9 -157.5 59t-45.5 165v204h43v-184q0 -80 13 -118.5t47 -57.5q35 -21 100 -27v202h39v-204q68 0 159 25v364h43v-667h-43v258q-108 -20 -159 -20z" />
<glyph unicode="&#x4b9;" horiz-adv-x="391" d="M207 127v-84h-37v84q-66 7 -95 44.5t-29 114.5v122h40v-110q0 -67 18.5 -96.5t65.5 -36.5v130h37v-131q43 4 72 18v226h40v-408h-40v142q-35 -13 -72 -15z" />
<glyph unicode="&#x4bb;" horiz-adv-x="430" d="M66 729h40v-385q46 73 125 73q35 0 66 -15.5t47 -41.5q20 -33 20 -103v-257h-40v257q0 58 -15 83q-22 40 -83 40q-67 0 -98 -56q-22 -36 -22 -112v-212h-40v729z" />
<glyph unicode="&#x4c0;" horiz-adv-x="223" d="M90 0v667h43v-667h-43z" />
<glyph unicode="&#x4cf;" horiz-adv-x="223" d="M90 0v667h43v-667h-43z" />
<glyph unicode="&#x4d8;" horiz-adv-x="798" d="M53 353h646q-11 123 -96 202.5t-206 79.5q-82 0 -151.5 -41t-110.5 -115l-39 17q38 80 122 130t180 50q144 0 245.5 -100.5t101.5 -242.5q0 -141 -102 -242.5t-244 -101.5q-90 0 -171 46.5t-127 123.5q-48 83 -48 194zM699 313h-600q6 -72 38 -129q40 -70 111.5 -112 t150.5 -42q118 0 204 81t96 202z" />
<glyph unicode="&#x4d9;" horiz-adv-x="484" d="M45 207h351q-3 57 -23 92q-20 37 -57.5 59t-78.5 22q-59 0 -103 -39q-20 -17 -42 -55l-34 20q63 111 181 111q87 0 143.5 -60.5t56.5 -152.5q0 -93 -56.5 -154t-142.5 -61t-139.5 60t-55.5 158zM393 169h-302q12 -65 53 -104t97 -39q57 0 100 40.5t52 102.5z" />
<glyph unicode="&#x4e2;" horiz-adv-x="671" d="M90 667h43v-567l448 574v-674h-43v557l-448 -574v684zM199 797h273v-43h-273v43z" />
<glyph unicode="&#x4e3;" horiz-adv-x="427" d="M71 408h40v-311l244 318v-415h-40v302l-244 -318v424zM88 544h249v-38h-249v38z" />
<glyph unicode="&#x4e8;" horiz-adv-x="798" d="M398 676q142 0 244 -101.5t102 -241.5q0 -142 -102.5 -243t-245.5 -101q-141 0 -242 103t-101 246q0 136 103 237t242 101zM98 353h601q-10 120 -96 201t-204 81t-204 -80.5t-97 -201.5zM699 313h-601q7 -75 39 -129q40 -70 111 -112t151 -42q118 0 204 81t96 202z" />
<glyph unicode="&#x4e9;" horiz-adv-x="517" d="M259 417q90 0 151.5 -62t61.5 -152q0 -91 -62 -152.5t-153 -61.5q-89 0 -150.5 63.5t-61.5 154.5q0 86 63 148t151 62zM88 228h341q-8 67 -56.5 109.5t-115.5 42.5q-65 0 -112 -42t-57 -110zM430 187h-343q7 -71 54.5 -116t115.5 -45q50 0 93 27t64 71q12 25 16 63z" />
<glyph unicode="&#x4ee;" d="M60 0l171 285l-218 382h51l190 -335l195 335h51l-393 -667h-47zM120 797h273v-43h-273v43z" />
<glyph unicode="&#x4ef;" horiz-adv-x="428" d="M201 -7l-193 415h47l167 -362l152 362h46l-274 -647h-45zM89 544h249v-38h-249v38z" />
<glyph unicode="&#x1e1e;" horiz-adv-x="406" d="M359 627h-226v-242h220v-40h-220v-345h-43v667h269v-40zM227 818q17 0 28.5 -12t11.5 -28t-11.5 -28t-28.5 -12t-29 12t-12 29q0 16 12 27.5t29 11.5z" />
<glyph unicode="&#x1e80;" horiz-adv-x="982" d="M62 667l181 -564l242 600l226 -600l208 564h49l-257 -692l-226 605l-248 -605l-224 692h49zM391 816l46 31l122 -108l-35 -26z" />
<glyph unicode="&#x1e81;" horiz-adv-x="672" d="M54 408l138 -328l142 353l141 -353l142 328h47l-189 -433l-141 354l-141 -354l-185 433h46zM244 581l42 27l92 -125l-30 -16z" />
<glyph unicode="&#x1e82;" horiz-adv-x="982" d="M62 667l181 -564l242 600l226 -600l208 564h49l-257 -692l-226 605l-248 -605l-224 692h49zM601 816l-133 -103l-35 26l122 108z" />
<glyph unicode="&#x1e83;" horiz-adv-x="672" d="M54 408l138 -328l142 353l141 -353l142 328h47l-189 -433l-141 354l-141 -354l-185 433h46zM427 581l-105 -114l-29 16l91 125z" />
<glyph unicode="&#x1e84;" horiz-adv-x="982" d="M62 667l181 -564l242 600l226 -600l208 564h49l-257 -692l-226 605l-248 -605l-224 692h49zM392 815q16 0 27 -11t11 -27t-11 -27.5t-27 -11.5t-27.5 11t-11.5 28q0 16 11.5 27t27.5 11zM578 815q16 0 27 -11t11 -27t-11 -27.5t-27 -11.5t-27.5 11t-11.5 28q0 16 11.5 27 t27.5 11z" />
<glyph unicode="&#x1e85;" horiz-adv-x="672" d="M54 408l138 -328l142 353l141 -353l142 328h47l-189 -433l-141 354l-141 -354l-185 433h46zM254 566q15 0 25.5 -10.5t10.5 -25.5q0 -16 -10.5 -26.5t-25.5 -10.5q-16 0 -26.5 10.5t-10.5 26.5q0 15 11 25.5t26 10.5zM420 566q15 0 25.5 -10.5t10.5 -25.5 q0 -16 -10.5 -26.5t-25.5 -10.5q-16 0 -26.5 10.5t-10.5 26.5q0 15 11 25.5t26 10.5z" />
<glyph unicode="&#x1ea0;" horiz-adv-x="584" d="M434 219h-284l-89 -219h-48l280 687l278 -687h-49zM418 259l-125 316l-127 -316h252zM280 -75q15 0 25.5 -10.5t10.5 -25.5q0 -16 -10.5 -26.5t-25.5 -10.5q-16 0 -26.5 10.5t-10.5 26.5q0 15 11 25.5t26 10.5z" />
<glyph unicode="&#x1ea1;" horiz-adv-x="515" d="M404 408h40v-408h-40v73q-55 -84 -159 -84q-87 0 -143.5 61.5t-56.5 155.5q0 93 55.5 152t143.5 59q99 0 160 -80v71zM246 380q-68 0 -114 -49.5t-46 -122.5q0 -79 45.5 -130.5t114.5 -51.5q71 0 116 51t45 131q0 84 -51 129q-49 43 -110 43zM246 -75q15 0 25.5 -10.5 t10.5 -25.5q0 -16 -10.5 -26.5t-25.5 -10.5q-16 0 -26.5 10.5t-10.5 26.5q0 15 11 25.5t26 10.5z" />
<glyph unicode="&#x1ea2;" horiz-adv-x="584" d="M434 219h-284l-89 -219h-48l280 687l278 -687h-49zM418 259l-125 316l-127 -316h252zM313 756h-33v55q26 4 28 4q33 5 45.5 14t12.5 28q0 21 -15 33t-41 12q-20 0 -42 -12q-1 -1 -11 -5l-10 25q47 18 83 18q41 0 66.5 -20.5t25.5 -53.5q0 -28 -20 -44t-56 -16 q-17 0 -33 1v-39z" />
<glyph unicode="&#x1ea3;" horiz-adv-x="515" d="M404 408h40v-408h-40v73q-55 -84 -159 -84q-87 0 -143.5 61.5t-56.5 155.5q0 93 55.5 152t143.5 59q99 0 160 -80v71zM246 380q-68 0 -114 -49.5t-46 -122.5q0 -79 45.5 -130.5t114.5 -51.5q71 0 116 51t45 131q0 84 -51 129q-49 43 -110 43zM260 492h-33v55q21 3 28 5 q33 4 45.5 12.5t12.5 28.5q0 21 -15 33t-41 12q-20 0 -42 -12q-1 -1 -11 -5l-10 26q47 17 83 17q41 0 66.5 -20.5t25.5 -53.5q0 -28 -20 -44t-56 -16q-17 0 -33 1v-39z" />
<glyph unicode="&#x1ea4;" horiz-adv-x="584" d="M363 787l111 99l47 -31l-124 -96l19 -17l-36 -28l-88 75l-89 -75l-36 28l125 105zM434 219h-284l-89 -219h-48l280 687l278 -687h-49zM418 259l-125 316l-127 -316h252z" />
<glyph unicode="&#x1ea5;" horiz-adv-x="515" d="M333 535l79 108l43 -27l-96 -105l20 -19l-32 -25l-89 87l-89 -87l-33 25l122 114zM404 408h40v-408h-40v73q-55 -84 -159 -84q-87 0 -143.5 61.5t-56.5 155.5q0 93 55.5 152t143.5 59q99 0 160 -80v71zM246 380q-68 0 -114 -49.5t-46 -122.5q0 -79 45.5 -130.5 t114.5 -51.5q71 0 116 51t45 131q0 84 -51 129q-49 43 -110 43z" />
<glyph unicode="&#x1ea6;" horiz-adv-x="584" d="M191 762l-124 95l46 32l111 -99l68 57l124 -105l-36 -28l-88 75l-89 -75l-36 28zM434 219h-284l-89 -219h-48l280 687l278 -687h-49zM418 259l-125 316l-127 -316h252z" />
<glyph unicode="&#x1ea7;" horiz-adv-x="515" d="M157 512l-96 105l42 27l80 -108l75 70l121 -114l-32 -25l-89 87l-89 -87l-33 25zM404 408h40v-408h-40v73q-55 -84 -159 -84q-87 0 -143.5 61.5t-56.5 155.5q0 93 55.5 152t143.5 59q99 0 160 -80v71zM246 380q-68 0 -114 -49.5t-46 -122.5q0 -79 45.5 -130.5 t114.5 -51.5q71 0 116 51t45 131q0 84 -51 129q-49 43 -110 43z" />
<glyph unicode="&#x1ea8;" horiz-adv-x="584" d="M377 776v41q26 4 28 4q33 5 45.5 14t12.5 28q0 21 -15 33t-41 12q-20 0 -42 -12q-1 -1 -11 -5l-10 25q47 18 83 18q41 0 66.5 -20.5t25.5 -53.5q0 -28 -20 -44t-55 -16q-17 0 -34 1v-39h-17l24 -20l-36 -28l-88 75l-89 -75l-36 28l125 105zM434 219h-284l-89 -219h-48 l280 687l278 -687h-49zM418 259l-125 316l-127 -316h252z" />
<glyph unicode="&#x1ea9;" horiz-adv-x="515" d="M338 531v38q21 3 28 5q33 5 45.5 13.5t12.5 27.5q0 21 -15 33t-41 12q-20 0 -42 -12l-2 -1q-2 -1 -4.5 -2t-4.5 -2l-10 26q48 17 83 17q41 0 66.5 -20.5t25.5 -53.5q0 -28 -20 -44t-55 -16q-18 0 -34 1v-39h-15l23 -22l-32 -25l-90 87l-89 -87l-32 25l121 114zM404 408 h40v-408h-40v73q-55 -84 -159 -84q-87 0 -143.5 61.5t-56.5 155.5q0 93 55.5 152t143.5 59q99 0 160 -80v71zM246 380q-68 0 -114 -49.5t-46 -122.5q0 -79 45.5 -130.5t114.5 -51.5q71 0 116 51t45 131q0 84 -51 129q-49 43 -110 43z" />
<glyph unicode="&#x1eaa;" horiz-adv-x="584" d="M434 219h-284l-89 -219h-48l280 687l278 -687h-49zM418 259l-125 316l-127 -316h252zM167 742l125 105l124 -105l-36 -28l-88 75l-89 -75zM191 858l-29 22q15 33 31 46.5t40 13.5q22 0 62 -18q42 -18 58 -18q14 0 22.5 8t17.5 30l29 -22q-20 -60 -71 -60q-23 0 -60 16 q-44 20 -61 20q-25 0 -39 -38z" />
<glyph unicode="&#x1eab;" horiz-adv-x="515" d="M404 408h40v-408h-40v73q-55 -84 -159 -84q-87 0 -143.5 61.5t-56.5 155.5q0 93 55.5 152t143.5 59q99 0 160 -80v71zM246 380q-68 0 -114 -49.5t-46 -122.5q0 -79 45.5 -130.5t114.5 -51.5q71 0 116 51t45 131q0 84 -51 129q-49 43 -110 43zM136 492l122 114l121 -114 l-32 -25l-89 87l-89 -87zM158 621l-26 20q26 57 69 57q24 0 87 -29q18 -7 28 -7q24 0 42 38l25 -20q-18 -57 -70 -57q-17 0 -54 16q-47 21 -63 21q-25 0 -38 -39z" />
<glyph unicode="&#x1eac;" horiz-adv-x="584" d="M434 219h-284l-89 -219h-48l280 687l278 -687h-49zM418 259l-125 316l-127 -316h252zM167 742l125 105l124 -105l-36 -28l-88 75l-89 -75zM299 -75q15 0 25.5 -10.5t10.5 -25.5q0 -16 -10.5 -26.5t-25.5 -10.5q-16 0 -26.5 10.5t-10.5 26.5q0 15 11 25.5t26 10.5z" />
<glyph unicode="&#x1ead;" horiz-adv-x="515" d="M404 408h40v-408h-40v73q-55 -84 -159 -84q-87 0 -143.5 61.5t-56.5 155.5q0 93 55.5 152t143.5 59q99 0 160 -80v71zM246 380q-68 0 -114 -49.5t-46 -122.5q0 -79 45.5 -130.5t114.5 -51.5q71 0 116 51t45 131q0 84 -51 129q-49 43 -110 43zM136 492l122 114l121 -114 l-32 -25l-89 87l-89 -87zM246 -75q15 0 25.5 -10.5t10.5 -25.5q0 -16 -10.5 -26.5t-25.5 -10.5q-16 0 -26.5 10.5t-10.5 26.5q0 15 11 25.5t26 10.5z" />
<glyph unicode="&#x1eae;" horiz-adv-x="584" d="M434 219h-284l-89 -219h-48l280 687l278 -687h-49zM418 259l-125 316l-127 -316h252zM168 835h42q19 -74 82 -74t82 74h42q-7 -55 -40 -86.5t-84 -31.5t-84.5 31.5t-39.5 86.5zM420 912l-133 -102l-34 25l121 109z" />
<glyph unicode="&#x1eaf;" horiz-adv-x="515" d="M404 408h40v-408h-40v73q-55 -84 -159 -84q-87 0 -143.5 61.5t-56.5 155.5q0 93 55.5 152t143.5 59q99 0 160 -80v71zM246 380q-68 0 -114 -49.5t-46 -122.5q0 -79 45.5 -130.5t114.5 -51.5q71 0 116 51t45 131q0 84 -51 129q-49 43 -110 43zM139 593h39q17 -84 80 -84 q61 0 80 84h38q-6 -56 -38 -89.5t-80 -33.5t-80 33.5t-39 89.5zM364 647l-104 -115l-30 17l92 125z" />
<glyph unicode="&#x1eb0;" horiz-adv-x="584" d="M434 219h-284l-89 -219h-48l280 687l278 -687h-49zM418 259l-125 316l-127 -316h252zM168 835h42q19 -74 82 -74t82 74h42q-7 -55 -40 -86.5t-84 -31.5t-84 31.5t-40 86.5zM163 891l47 31l121 -108l-35 -26z" />
<glyph unicode="&#x1eb1;" horiz-adv-x="515" d="M404 408h40v-408h-40v73q-55 -84 -159 -84q-87 0 -143.5 61.5t-56.5 155.5q0 93 55.5 152t143.5 59q99 0 160 -80v71zM246 380q-68 0 -114 -49.5t-46 -122.5q0 -79 45.5 -130.5t114.5 -51.5q71 0 116 51t45 131q0 84 -51 129q-49 43 -110 43zM139 593h39q17 -84 80 -84 q61 0 80 84h38q-6 -56 -38 -89.5t-80 -33.5t-80 33.5t-39 89.5zM152 659l42 26l91 -125l-29 -16z" />
<glyph unicode="&#x1eb2;" horiz-adv-x="584" d="M434 219h-284l-89 -219h-48l280 687l278 -687h-49zM418 259l-125 316l-127 -316h252zM168 835h42q19 -74 82 -74t82 74h42q-7 -55 -40 -86.5t-84 -31.5t-84 31.5t-40 86.5zM288 800h-33v55q26 4 28 4q33 5 45.5 14t12.5 28q0 21 -15 33t-41 12q-20 0 -42 -12 q-1 -1 -11 -5l-10 25q47 18 83 18q41 0 66.5 -20.5t25.5 -53.5q0 -28 -20 -44t-56 -16q-17 0 -33 1v-39z" />
<glyph unicode="&#x1eb3;" horiz-adv-x="515" d="M404 408h40v-408h-40v73q-55 -84 -159 -84q-87 0 -143.5 61.5t-56.5 155.5q0 93 55.5 152t143.5 59q99 0 160 -80v71zM246 380q-68 0 -114 -49.5t-46 -122.5q0 -79 45.5 -130.5t114.5 -51.5q71 0 116 51t45 131q0 84 -51 129q-49 43 -110 43zM139 593h39q17 -84 80 -84 q61 0 80 84h38q-6 -56 -38 -89.5t-80 -33.5t-80 33.5t-39 89.5zM266 560h-33v55q26 4 28 4q33 5 45.5 14t12.5 28q0 21 -15 33t-41 12q-20 0 -42 -12q-1 -1 -11 -5l-10 25q47 18 83 18q41 0 66.5 -20.5t25.5 -53.5q0 -28 -20 -44t-56 -16q-17 0 -33 1v-39z" />
<glyph unicode="&#x1eb4;" horiz-adv-x="584" d="M434 219h-284l-89 -219h-48l280 687l278 -687h-49zM418 259l-125 316l-127 -316h252zM168 835h42q19 -74 82 -74t82 74h42q-7 -55 -40 -86.5t-84 -31.5t-84 31.5t-40 86.5zM191 857l-29 22q15 33 31 46.5t40 13.5q22 0 62 -18q42 -18 58 -18q14 0 22.5 8t17.5 30l29 -22 q-20 -60 -71 -60q-23 0 -60 16q-44 20 -61 20q-25 0 -39 -38z" />
<glyph unicode="&#x1eb5;" horiz-adv-x="515" d="M404 408h40v-408h-40v73q-55 -84 -159 -84q-87 0 -143.5 61.5t-56.5 155.5q0 93 55.5 152t143.5 59q99 0 160 -80v71zM246 380q-68 0 -114 -49.5t-46 -122.5q0 -79 45.5 -130.5t114.5 -51.5q71 0 116 51t45 131q0 84 -51 129q-49 43 -110 43zM139 593h39q17 -84 80 -84 q61 0 80 84h38q-6 -56 -38 -89.5t-80 -33.5t-80 33.5t-39 89.5zM158 621l-26 19q26 57 69 57q24 0 87 -29q18 -7 28 -7q24 0 42 38l25 -20q-18 -57 -70 -57q-17 0 -54 16q-47 21 -63 21q-24 0 -38 -38z" />
<glyph unicode="&#x1eb6;" horiz-adv-x="584" d="M434 219h-284l-89 -219h-48l280 687l278 -687h-49zM418 259l-125 316l-127 -316h252zM168 835h42q19 -74 82 -74t82 74h42q-7 -55 -40 -86.5t-84 -31.5t-84 31.5t-40 86.5zM304 -75q15 0 25.5 -10.5t10.5 -25.5q0 -16 -10.5 -26.5t-25.5 -10.5q-16 0 -26.5 10.5 t-10.5 26.5q0 15 11 25.5t26 10.5z" />
<glyph unicode="&#x1eb7;" horiz-adv-x="515" d="M404 408h40v-408h-40v73q-55 -84 -159 -84q-87 0 -143.5 61.5t-56.5 155.5q0 93 55.5 152t143.5 59q99 0 160 -80v71zM246 380q-68 0 -114 -49.5t-46 -122.5q0 -79 45.5 -130.5t114.5 -51.5q71 0 116 51t45 131q0 84 -51 129q-49 43 -110 43zM139 593h39q17 -84 80 -84 q61 0 80 84h38q-6 -56 -38 -89.5t-80 -33.5t-80 33.5t-39 89.5zM246 -75q15 0 25.5 -10.5t10.5 -25.5q0 -16 -10.5 -26.5t-25.5 -10.5q-16 0 -26.5 10.5t-10.5 26.5q0 15 11 25.5t26 10.5z" />
<glyph unicode="&#x1eb8;" horiz-adv-x="463" d="M409 627h-276v-242h270v-40h-270v-305h276v-40h-319v667h319v-40zM220 -75q15 0 25.5 -10.5t10.5 -25.5q0 -16 -10.5 -26.5t-25.5 -10.5q-16 0 -26.5 10.5t-10.5 26.5q0 15 11 25.5t26 10.5z" />
<glyph unicode="&#x1eb9;" horiz-adv-x="484" d="M439 199h-350q1 -56 22 -92q20 -37 57.5 -59t79.5 -22q59 0 103 39q19 18 41 55l34 -20q-62 -111 -181 -111q-87 0 -143.5 60.5t-56.5 152.5q0 93 56.5 154t142.5 61t140 -60t55 -158zM92 237h301q-11 64 -52.5 103.5t-97.5 39.5q-57 0 -99.5 -40.5t-51.5 -102.5z M231 -75q15 0 25.5 -10.5t10.5 -25.5q0 -16 -10.5 -26.5t-25.5 -10.5q-16 0 -26.5 10.5t-10.5 26.5q0 15 11 25.5t26 10.5z" />
<glyph unicode="&#x1eba;" horiz-adv-x="463" d="M409 627h-276v-242h270v-40h-270v-305h276v-40h-319v667h319v-40zM266 751h-33v55q26 4 28 4q33 5 45.5 14t12.5 28q0 21 -15 33t-41 12q-20 0 -42 -12q-1 -1 -11 -5l-10 25q47 18 83 18q41 0 66.5 -20.5t25.5 -53.5q0 -28 -20 -44t-56 -16q-17 0 -33 1v-39z" />
<glyph unicode="&#x1ebb;" horiz-adv-x="484" d="M439 199h-350q1 -56 22 -92q20 -37 57.5 -59t79.5 -22q59 0 103 39q19 18 41 55l34 -20q-62 -111 -181 -111q-87 0 -143.5 60.5t-56.5 152.5q0 93 56.5 154t142.5 61t140 -60t55 -158zM92 237h301q-11 64 -52.5 103.5t-97.5 39.5q-57 0 -99.5 -40.5t-51.5 -102.5z M246 494h-33v55q21 3 28 5q33 4 45.5 13t12.5 28q0 21 -15 33t-41 12q-20 0 -42 -11l-2 -1q-2 -1 -4.5 -2.5t-4.5 -2.5l-10 26q47 18 83 18q40 0 66 -21t26 -54q0 -28 -20 -44t-56 -16q-16 0 -33 1v-39z" />
<glyph unicode="&#x1ebc;" horiz-adv-x="463" d="M409 627h-276v-242h270v-40h-270v-305h276v-40h-319v667h319v-40zM130 734l-28 22q14 33 30.5 46.5t40.5 13.5q20 0 61 -17q42 -18 58 -18q14 0 22.5 8t17.5 30l29 -22q-20 -60 -71 -60q-22 0 -59 16q-44 19 -61 19q-14 0 -22.5 -8t-17.5 -30z" />
<glyph unicode="&#x1ebd;" horiz-adv-x="484" d="M439 199h-350q1 -56 22 -92q20 -37 57.5 -59t79.5 -22q59 0 103 39q19 18 41 55l34 -20q-62 -111 -181 -111q-87 0 -143.5 60.5t-56.5 152.5q0 93 56.5 154t142.5 61t140 -60t55 -158zM92 237h301q-11 64 -52.5 103.5t-97.5 39.5q-57 0 -99.5 -40.5t-51.5 -102.5z M143 490l-26 19q25 58 69 58q16 0 29 -4.5t57 -24.5q16 -8 29 -8q23 0 41 38l26 -19q-20 -58 -70 -58q-18 0 -55 16q-48 22 -63 22q-24 0 -37 -39z" />
<glyph unicode="&#x1ebe;" horiz-adv-x="463" d="M307 800l110 99l46 -32l-123 -95l36 -30l-36 -28l-89 75l-89 -75l-36 28l125 105zM409 627h-276v-242h270v-40h-270v-305h276v-40h-319v667h319v-40z" />
<glyph unicode="&#x1ebf;" horiz-adv-x="484" d="M313 545l81 111l42 -27l-98 -108l30 -29l-32 -25l-89 87l-89 -87l-33 25l122 114zM439 199h-350q1 -56 22 -92q20 -37 57.5 -59t79.5 -22q59 0 103 39q19 18 41 55l34 -20q-62 -111 -181 -111q-87 0 -143.5 60.5t-56.5 152.5q0 93 56.5 154t142.5 61t140 -60t55 -158z M92 237h301q-11 64 -52.5 103.5t-97.5 39.5q-57 0 -99.5 -40.5t-51.5 -102.5z" />
<glyph unicode="&#x1ec0;" horiz-adv-x="463" d="M145 758l-123 95l46 32l111 -99l72 61l125 -105l-36 -28l-89 75l-89 -75l-36 28zM409 627h-276v-242h270v-40h-270v-305h276v-40h-319v667h319v-40z" />
<glyph unicode="&#x1ec1;" horiz-adv-x="484" d="M150 516l-94 104l42 27l78 -107l71 66l121 -114l-32 -25l-89 87l-89 -87l-33 25zM439 199h-350q1 -56 22 -92q20 -37 57.5 -59t79.5 -22q59 0 103 39q19 18 41 55l34 -20q-62 -111 -181 -111q-87 0 -143.5 60.5t-56.5 152.5q0 93 56.5 154t142.5 61t140 -60t55 -158z M92 237h301q-11 64 -52.5 103.5t-97.5 39.5q-57 0 -99.5 -40.5t-51.5 -102.5z" />
<glyph unicode="&#x1ec2;" horiz-adv-x="463" d="M333 779v39q26 4 28 4q33 5 45.5 14t12.5 28q0 21 -15 33t-41 12q-20 0 -42 -12q-1 -1 -11 -5l-10 25q47 18 83 18q41 0 66.5 -20.5t25.5 -53.5q0 -28 -20 -44t-55 -16q-17 0 -34 1v-39h-14l24 -21l-36 -28l-88 75l-89 -75l-36 28l125 105zM409 627h-276v-242h270v-40 h-270v-305h276v-40h-319v667h319v-40z" />
<glyph unicode="&#x1ec3;" horiz-adv-x="484" d="M332 526v38q21 3 28 5q33 4 45.5 13t12.5 28q0 21 -15 33t-41 12q-20 0 -42 -12q-1 -1 -11 -5l-10 26q47 17 83 17q41 0 66.5 -20.5t25.5 -53.5q0 -28 -20 -44t-55 -16q-18 0 -34 1v-39h-15l18 -17l-32 -25l-89 87l-89 -87l-33 25l122 114zM439 199h-350q1 -56 22 -92 q20 -37 57.5 -59t79.5 -22q59 0 103 39q19 18 41 55l34 -20q-62 -111 -181 -111q-87 0 -143.5 60.5t-56.5 152.5q0 93 56.5 154t142.5 61t140 -60t55 -158zM92 237h301q-11 64 -52.5 103.5t-97.5 39.5q-57 0 -99.5 -40.5t-51.5 -102.5z" />
<glyph unicode="&#x1ec4;" horiz-adv-x="463" d="M409 627h-276v-242h270v-40h-270v-305h276v-40h-319v667h319v-40zM126 742l125 105l125 -105l-36 -28l-89 75l-89 -75zM156 858l-28 22q14 33 30.5 46.5t40.5 13.5q20 0 61 -17q42 -18 58 -18q14 0 22.5 8t17.5 30l29 -22q-20 -60 -71 -60q-22 0 -59 16q-44 19 -61 19 q-14 0 -22.5 -8t-17.5 -30z" />
<glyph unicode="&#x1ec5;" horiz-adv-x="484" d="M439 199h-350q1 -56 22 -92q20 -37 57.5 -59t79.5 -22q59 0 103 39q19 18 41 55l34 -20q-62 -111 -181 -111q-87 0 -143.5 60.5t-56.5 152.5q0 93 56.5 154t142.5 61t140 -60t55 -158zM92 237h301q-11 64 -52.5 103.5t-97.5 39.5q-57 0 -99.5 -40.5t-51.5 -102.5z M125 492l122 114l121 -114l-32 -25l-89 87l-89 -87zM154 605l-26 19q26 57 69 57q16 0 29 -4.5t57 -24.5q18 -7 29 -7q23 0 41 38l26 -20q-20 -57 -70 -57q-18 0 -54 16q-48 21 -64 21q-24 0 -37 -38z" />
<glyph unicode="&#x1ec6;" horiz-adv-x="463" d="M409 627h-276v-242h270v-40h-270v-305h276v-40h-319v667h319v-40zM126 742l125 105l125 -105l-36 -28l-89 75l-89 -75zM235 -75q15 0 25.5 -10.5t10.5 -25.5q0 -16 -10.5 -26.5t-25.5 -10.5q-16 0 -26.5 10.5t-10.5 26.5q0 15 11 25.5t26 10.5z" />
<glyph unicode="&#x1ec7;" horiz-adv-x="484" d="M439 199h-350q1 -56 22 -92q20 -37 57.5 -59t79.5 -22q59 0 103 39q19 18 41 55l34 -20q-62 -111 -181 -111q-87 0 -143.5 60.5t-56.5 152.5q0 93 56.5 154t142.5 61t140 -60t55 -158zM92 237h301q-11 64 -52.5 103.5t-97.5 39.5q-57 0 -99.5 -40.5t-51.5 -102.5z M125 492l122 114l121 -114l-32 -25l-89 87l-89 -87zM231 -75q15 0 25.5 -10.5t10.5 -25.5q0 -16 -10.5 -26.5t-25.5 -10.5q-16 0 -26.5 10.5t-10.5 26.5q0 15 11 25.5t26 10.5z" />
<glyph unicode="&#x1ec8;" horiz-adv-x="223" d="M133 667v-667h-43v667h43zM129 756h-33v55q26 4 28 4q33 5 45.5 14t12.5 28q0 21 -15 33t-41 12q-20 0 -42 -12q-1 -1 -11 -5l-10 25q46 18 83 18q41 0 66.5 -20.5t25.5 -53.5q0 -28 -20 -44t-56 -16q-17 0 -33 1v-39z" />
<glyph unicode="&#x1ec9;" horiz-adv-x="183" d="M112 408v-408h-40v408h40zM108 479h-33v55q21 3 28 5q33 5 45.5 13.5t12.5 27.5q0 21 -15 33t-41 12q-20 0 -42 -12q-1 -1 -11 -5l-10 26q47 17 83 17q41 0 66.5 -20.5t25.5 -53.5q0 -28 -20 -44t-56 -16q-18 0 -33 1v-39z" />
<glyph unicode="&#x1eca;" horiz-adv-x="223" d="M133 667v-667h-43v667h43zM115 -75q15 0 25.5 -10.5t10.5 -25.5q0 -16 -10.5 -26.5t-25.5 -10.5q-16 0 -26.5 10.5t-10.5 26.5q0 15 11 25.5t26 10.5z" />
<glyph unicode="&#x1ecb;" horiz-adv-x="183" d="M111 408v-408h-40v408h40zM91 580q15 0 25.5 -10.5t10.5 -25.5q0 -16 -10.5 -26.5t-25.5 -10.5t-25.5 10.5t-10.5 26.5q0 15 10.5 25.5t25.5 10.5zM92 -75q15 0 25.5 -10.5t10.5 -25.5q0 -16 -10.5 -26.5t-25.5 -10.5q-16 0 -26.5 10.5t-10.5 26.5q0 15 11 25.5t26 10.5z " />
<glyph unicode="&#x1ecc;" horiz-adv-x="798" d="M398 676q142 0 244 -101.5t102 -241.5q0 -142 -102.5 -243t-245.5 -101q-141 0 -242 103t-101 246q0 136 103 237t242 101zM396 635q-62 0 -120.5 -27t-101.5 -76q-76 -83 -76 -204q0 -120 89.5 -209t210.5 -89q124 0 212.5 89t88.5 213q0 125 -89 214t-214 89zM387 -75 q15 0 25.5 -10.5t10.5 -25.5q0 -16 -10.5 -26.5t-25.5 -10.5q-16 0 -26.5 10.5t-10.5 26.5q0 15 11 25.5t26 10.5z" />
<glyph unicode="&#x1ecd;" horiz-adv-x="517" d="M259 417q90 0 151.5 -62t61.5 -152q0 -91 -62 -152.5t-153 -61.5q-89 0 -150.5 63t-61.5 155q0 86 63 148t151 62zM256 380q-72 0 -121 -52t-49 -128q0 -72 50 -123t121 -51q74 0 124 51t50 126t-50.5 126t-124.5 51zM247 -75q15 0 25.5 -10.5t10.5 -25.5 q0 -16 -10.5 -26.5t-25.5 -10.5q-16 0 -26.5 10.5t-10.5 26.5q0 15 11 25.5t26 10.5z" />
<glyph unicode="&#x1ece;" horiz-adv-x="798" d="M398 676q142 0 244 -101.5t102 -241.5q0 -142 -102.5 -243t-245.5 -101q-141 0 -242 103t-101 246q0 136 103 237t242 101zM396 635q-62 0 -120.5 -27t-101.5 -76q-76 -83 -76 -204q0 -120 89.5 -209t210.5 -89q124 0 212.5 89t88.5 213q0 125 -89 214t-214 89zM395 756 h-33v55q26 4 28 4q33 5 45.5 14t12.5 28q0 21 -15 33t-41 12q-20 0 -42 -12q-1 -1 -11 -5l-10 25q47 18 83 18q41 0 66.5 -20.5t25.5 -53.5q0 -28 -20 -44t-56 -16q-17 0 -33 1v-39z" />
<glyph unicode="&#x1ecf;" horiz-adv-x="517" d="M259 417q90 0 151.5 -62t61.5 -152q0 -91 -62 -152.5t-153 -61.5q-89 0 -150.5 63t-61.5 155q0 86 63 148t151 62zM256 380q-72 0 -121 -52t-49 -128q0 -72 50 -123t121 -51q74 0 124 51t50 126t-50.5 126t-124.5 51zM265 479h-33v55q21 3 28 5q33 4 45.5 13t12.5 28 q0 21 -15 33t-41 12q-20 0 -42 -11l-2 -1q-2 -1 -4.5 -2.5t-4.5 -2.5l-10 26q47 18 83 18q40 0 66 -21t26 -54q0 -28 -20 -44t-56 -16q-16 0 -33 1v-39z" />
<glyph unicode="&#x1ed0;" horiz-adv-x="798" d="M456 799l111 98l46 -31l-123 -95l33 -29l-36 -28l-88 75l-89 -75l-36 28l125 105zM396 676q143 0 245.5 -100.5t102.5 -242.5q0 -141 -102 -242.5t-244 -101.5q-139 0 -242 101t-103 237q0 155 114 258q46 42 107.5 66.5t121.5 24.5zM398 635q-122 0 -211 -88.5 t-89 -209.5q0 -137 97 -226q89 -81 201 -81q125 0 214 89t89 214q0 124 -88.5 213t-212.5 89z" />
<glyph unicode="&#x1ed1;" horiz-adv-x="517" d="M333 536l80 109l42 -27l-96 -106l21 -20l-32 -25l-89 87l-89 -87l-33 25l122 114zM257 417q91 0 153 -61.5t62 -152.5q0 -90 -62 -152t-151 -62q-88 0 -151 62t-63 149q0 91 61.5 154t150.5 63zM257 380q-71 0 -121 -51t-50 -123q0 -76 49 -128t121 -52q74 0 124.5 51 t50.5 126t-50 126t-124 51z" />
<glyph unicode="&#x1ed2;" horiz-adv-x="798" d="M296 761l-122 94l46 31l109 -97l70 58l124 -105l-36 -28l-88 75l-89 -75l-36 28zM396 676q143 0 245.5 -100.5t102.5 -242.5q0 -141 -102 -242.5t-244 -101.5q-139 0 -242 101t-103 237q0 155 114 258q46 42 107.5 66.5t121.5 24.5zM398 635q-122 0 -211 -88.5 t-89 -209.5q0 -137 97 -226q89 -81 201 -81q125 0 214 89t89 214q0 124 -88.5 213t-212.5 89z" />
<glyph unicode="&#x1ed3;" horiz-adv-x="517" d="M157 511l-93 102l42 27l77 -105l76 71l121 -114l-32 -25l-89 87l-89 -87l-33 25zM257 417q91 0 153 -61.5t62 -152.5q0 -90 -62 -152t-151 -62q-88 0 -151 62t-63 149q0 91 61.5 154t150.5 63zM257 380q-71 0 -121 -51t-50 -123q0 -76 49 -128t121 -52q74 0 124.5 51 t50.5 126t-50 126t-124 51z" />
<glyph unicode="&#x1ed4;" horiz-adv-x="798" d="M483 777v40q26 4 28 4q33 5 45.5 14t12.5 28q0 21 -15 33t-41 12q-20 0 -42 -12q-1 -1 -11 -5l-10 25q47 18 83 18q41 0 66.5 -20.5t25.5 -53.5q0 -28 -20 -44t-55 -16q-17 0 -34 1v-39h-16l24 -20l-36 -28l-89 75l-89 -75l-35 28l124 105zM396 676q143 0 245.5 -100.5 t102.5 -242.5q0 -141 -102 -242.5t-244 -101.5q-139 0 -242 101t-103 237q0 155 114 258q46 42 107.5 66.5t121.5 24.5zM398 635q-122 0 -211 -88.5t-89 -209.5q0 -137 97 -226q89 -81 201 -81q125 0 214 89t89 214q0 124 -88.5 213t-212.5 89z" />
<glyph unicode="&#x1ed5;" horiz-adv-x="517" d="M340 530v34q26 4 28 4q33 5 45.5 14t12.5 28q0 21 -15 33t-41 12q-20 0 -42 -12q-1 -1 -11 -5l-10 25q47 18 83 18q41 0 66.5 -20.5t25.5 -53.5q0 -28 -20 -44t-55 -16q-17 0 -34 1v-39h-11l18 -17l-32 -25l-89 87l-89 -87l-33 25l122 114zM257 417q91 0 153 -61.5 t62 -152.5q0 -90 -62 -152t-151 -62q-88 0 -151 62t-63 149q0 91 61.5 154t150.5 63zM257 380q-71 0 -121 -51t-50 -123q0 -76 49 -128t121 -52q74 0 124.5 51t50.5 126t-50 126t-124 51z" />
<glyph unicode="&#x1ed6;" horiz-adv-x="798" d="M398 676q142 0 244 -101.5t102 -241.5q0 -142 -102.5 -243t-245.5 -101q-141 0 -242 103t-101 246q0 136 103 237t242 101zM398 635q-122 0 -211 -88.5t-89 -209.5q0 -137 97 -226q89 -81 201 -81q125 0 214 89t89 214q0 124 -88.5 213t-212.5 89zM274 742l125 105 l124 -105l-36 -28l-88 75l-89 -75zM298 856l-28 22q14 33 30.5 46.5t40.5 13.5q20 0 61 -17q42 -18 58 -18q14 0 22.5 8t17.5 30l29 -22q-20 -60 -71 -60q-22 0 -59 16q-44 19 -61 19q-14 0 -22.5 -8t-17.5 -30z" />
<glyph unicode="&#x1ed7;" horiz-adv-x="517" d="M259 417q90 0 151.5 -62t61.5 -152q0 -91 -62 -152.5t-153 -61.5q-89 0 -150.5 63t-61.5 155q0 86 63 148t151 62zM257 380q-71 0 -121 -51t-50 -123q0 -76 49 -128t121 -52q74 0 124.5 51t50.5 126t-50 126t-124 51zM137 492l122 114l121 -114l-32 -25l-89 87l-89 -87z M159 620l-26 19q25 57 69 57q24 0 87 -29q18 -7 28 -7q24 0 42 38l25 -20q-18 -57 -70 -57q-17 0 -54 16q-47 21 -63 21q-24 0 -38 -38z" />
<glyph unicode="&#x1ed8;" horiz-adv-x="798" d="M398 676q142 0 244 -101.5t102 -241.5q0 -142 -102.5 -243t-245.5 -101q-141 0 -242 103t-101 246q0 136 103 237t242 101zM398 635q-122 0 -211 -88.5t-89 -209.5q0 -137 97 -226q89 -81 201 -81q125 0 214 89t89 214q0 124 -88.5 213t-212.5 89zM274 742l125 105 l124 -105l-36 -28l-88 75l-89 -75zM387 -75q15 0 25.5 -10.5t10.5 -25.5q0 -16 -10.5 -26.5t-25.5 -10.5q-16 0 -26.5 10.5t-10.5 26.5q0 15 11 25.5t26 10.5z" />
<glyph unicode="&#x1ed9;" horiz-adv-x="517" d="M259 417q90 0 151.5 -62t61.5 -152q0 -91 -62 -152.5t-153 -61.5q-89 0 -150.5 63t-61.5 155q0 86 63 148t151 62zM257 380q-71 0 -121 -51t-50 -123q0 -76 49 -128t121 -52q74 0 124.5 51t50.5 126t-50 126t-124 51zM137 492l122 114l121 -114l-32 -25l-89 87l-89 -87z M247 -75q15 0 25.5 -10.5t10.5 -25.5q0 -16 -10.5 -26.5t-25.5 -10.5q-16 0 -26.5 10.5t-10.5 26.5q0 15 11 25.5t26 10.5z" />
<glyph unicode="&#x1eda;" horiz-adv-x="798" d="M643 574l34 121l49 -13l-56 -138q74 -93 74 -212q0 -140 -102 -241.5t-243 -101.5q-142 0 -244 101.5t-102 242.5q0 140 102 241.5t243 101.5t245 -102zM398 635q-122 0 -211 -88.5t-89 -209.5q0 -137 97 -226q89 -81 201 -81q125 0 214 89t89 214q0 124 -88.5 213 t-212.5 89zM527 816l-133 -103l-35 26l122 108z" />
<glyph unicode="&#x1edb;" horiz-adv-x="517" d="M433 328l31 101l46 -13l-53 -130q15 -41 15 -82q0 -91 -61.5 -153t-151.5 -62q-89 0 -151.5 62.5t-62.5 151.5t62.5 151.5t151.5 62.5q52 0 98 -23.5t76 -65.5zM257 380q-71 0 -121 -51t-50 -123q0 -76 49 -128t121 -52q74 0 124.5 51t50.5 126t-50 126t-124 51zM365 581 l-104 -114l-30 16l92 125z" />
<glyph unicode="&#x1edc;" horiz-adv-x="798" d="M643 574l34 121l49 -13l-56 -138q74 -93 74 -212q0 -140 -102 -241.5t-243 -101.5q-142 0 -244 101.5t-102 242.5q0 140 102 241.5t243 101.5t245 -102zM398 635q-122 0 -211 -88.5t-89 -209.5q0 -137 97 -226q89 -81 201 -81q125 0 214 89t89 214q0 124 -88.5 213 t-212.5 89zM270 816l46 31l122 -108l-35 -26z" />
<glyph unicode="&#x1edd;" horiz-adv-x="517" d="M433 328l31 101l46 -13l-53 -130q15 -41 15 -82q0 -91 -61.5 -153t-151.5 -62q-89 0 -151.5 62.5t-62.5 151.5t62.5 151.5t151.5 62.5q52 0 98 -23.5t76 -65.5zM257 380q-71 0 -121 -51t-50 -123q0 -76 49 -128t121 -52q74 0 124.5 51t50.5 126t-50 126t-124 51zM153 581 l42 27l91 -125l-29 -16z" />
<glyph unicode="&#x1ede;" horiz-adv-x="798" d="M643 574l34 121l49 -13l-56 -138q74 -93 74 -212q0 -140 -102 -241.5t-243 -101.5q-142 0 -244 101.5t-102 242.5q0 140 102 241.5t243 101.5t245 -102zM398 635q-122 0 -211 -88.5t-89 -209.5q0 -137 97 -226q89 -81 201 -81q125 0 214 89t89 214q0 124 -88.5 213 t-212.5 89zM395 756h-33v55q26 4 28 4q33 5 45.5 14t12.5 28q0 21 -15 33t-41 12q-20 0 -42 -12q-1 -1 -11 -5l-10 25q47 18 83 18q41 0 66.5 -20.5t25.5 -53.5q0 -28 -20 -44t-56 -16q-17 0 -33 1v-39z" />
<glyph unicode="&#x1edf;" horiz-adv-x="517" d="M433 328l31 101l46 -13l-53 -130q15 -41 15 -82q0 -91 -61.5 -153t-151.5 -62q-89 0 -151.5 62.5t-62.5 151.5t62.5 151.5t151.5 62.5q52 0 98 -23.5t76 -65.5zM257 380q-71 0 -121 -51t-50 -123q0 -76 49 -128t121 -52q74 0 124.5 51t50.5 126t-50 126t-124 51zM267 489 h-33v55q21 3 28 5q33 4 45.5 12.5t12.5 28.5t-15 32t-41 12q-20 0 -42 -11q-1 -1 -11 -5l-10 26q45 17 83 17q41 0 66.5 -20.5t25.5 -53.5q0 -28 -20 -44t-56 -16q-18 0 -33 1v-39z" />
<glyph unicode="&#x1ee0;" horiz-adv-x="798" d="M643 574l34 121l49 -13l-56 -138q74 -93 74 -212q0 -140 -102 -241.5t-243 -101.5q-142 0 -244 101.5t-102 242.5q0 140 102 241.5t243 101.5t245 -102zM398 635q-122 0 -211 -88.5t-89 -209.5q0 -137 97 -226q89 -81 201 -81q125 0 214 89t89 214q0 124 -88.5 213 t-212.5 89zM298 734l-29 22q15 33 31 46.5t40 13.5q20 0 62 -17q40 -18 57 -18q14 0 22.5 8t18.5 30l28 -22q-20 -60 -71 -60q-20 0 -59 16q-44 19 -61 19q-14 0 -22.5 -8t-16.5 -30z" />
<glyph unicode="&#x1ee1;" horiz-adv-x="517" d="M433 328l31 101l46 -13l-53 -130q15 -41 15 -82q0 -91 -61.5 -153t-151.5 -62q-89 0 -151.5 62.5t-62.5 151.5t62.5 151.5t151.5 62.5q52 0 98 -23.5t76 -65.5zM257 380q-71 0 -121 -51t-50 -123q0 -76 49 -128t121 -52q74 0 124.5 51t50.5 126t-50 126t-124 51zM159 490 l-26 19q25 58 69 58q24 0 87 -29q16 -8 28 -8q24 0 42 38l25 -19q-18 -58 -70 -58q-17 0 -54 16q-48 22 -63 22q-24 0 -38 -39z" />
<glyph unicode="&#x1ee2;" horiz-adv-x="798" d="M643 574l34 121l49 -13l-56 -138q74 -93 74 -212q0 -140 -102 -241.5t-243 -101.5q-142 0 -244 101.5t-102 242.5q0 140 102 241.5t243 101.5t245 -102zM398 635q-122 0 -211 -88.5t-89 -209.5q0 -137 97 -226q89 -81 201 -81q125 0 214 89t89 214q0 124 -88.5 213 t-212.5 89zM387 -75q15 0 25.5 -10.5t10.5 -25.5q0 -16 -10.5 -26.5t-25.5 -10.5q-16 0 -26.5 10.5t-10.5 26.5q0 15 11 25.5t26 10.5z" />
<glyph unicode="&#x1ee3;" horiz-adv-x="517" d="M433 328l31 101l46 -13l-53 -130q15 -41 15 -82q0 -91 -61.5 -153t-151.5 -62q-89 0 -151.5 62.5t-62.5 151.5t62.5 151.5t151.5 62.5q52 0 98 -23.5t76 -65.5zM257 380q-71 0 -121 -51t-50 -123q0 -76 49 -128t121 -52q74 0 124.5 51t50.5 126t-50 126t-124 51zM247 -75 q15 0 25.5 -10.5t10.5 -25.5q0 -16 -10.5 -26.5t-25.5 -10.5q-16 0 -26.5 10.5t-10.5 26.5q0 15 11 25.5t26 10.5z" />
<glyph unicode="&#x1ee4;" horiz-adv-x="633" d="M133 667v-417q0 -62 5 -91.5t19 -51.5q22 -34 66.5 -55.5t93.5 -21.5q48 0 92.5 21.5t66.5 55.5q14 22 19 51.5t5 91.5v417h43v-429q0 -66 -7 -98t-28 -60q-30 -42 -81.5 -66.5t-109.5 -24.5q-59 0 -110.5 24.5t-81.5 66.5q-21 28 -28 60t-7 98v429h43zM305 -75 q15 0 25.5 -10.5t10.5 -25.5q0 -16 -10.5 -26.5t-25.5 -10.5q-16 0 -26.5 10.5t-10.5 26.5q0 15 11 25.5t26 10.5z" />
<glyph unicode="&#x1ee5;" horiz-adv-x="436" d="M111 408v-243q0 -63 13 -90q11 -22 37 -35.5t57 -13.5q30 0 56 13.5t37 35.5q13 27 13 90v243h40v-257q0 -77 -30 -112q-42 -50 -116 -50q-75 0 -117 50q-30 35 -30 112v257h40zM206 -75q15 0 25.5 -10.5t10.5 -25.5q0 -16 -10.5 -26.5t-25.5 -10.5q-16 0 -26.5 10.5 t-10.5 26.5q0 15 11 25.5t26 10.5z" />
<glyph unicode="&#x1ee6;" horiz-adv-x="633" d="M133 667v-417q0 -62 5 -91.5t19 -51.5q22 -34 66.5 -55.5t93.5 -21.5q48 0 92.5 21.5t66.5 55.5q14 22 19 51.5t5 91.5v417h43v-429q0 -66 -7 -98t-28 -60q-30 -42 -81.5 -66.5t-109.5 -24.5q-59 0 -110.5 24.5t-81.5 66.5q-21 28 -28 60t-7 98v429h43zM319 756h-33v55 q26 4 28 4q33 5 45.5 14t12.5 28q0 21 -15 33t-41 12q-20 0 -42 -12q-1 -1 -11 -5l-10 25q47 18 83 18q41 0 66.5 -20.5t25.5 -53.5q0 -28 -20 -44t-56 -16q-17 0 -33 1v-39z" />
<glyph unicode="&#x1ee7;" horiz-adv-x="436" d="M111 408v-243q0 -63 13 -90q11 -22 37 -35.5t57 -13.5q30 0 56 13.5t37 35.5q13 27 13 90v243h40v-257q0 -77 -30 -112q-42 -50 -116 -50q-75 0 -117 50q-30 35 -30 112v257h40zM247 497h-33v55q21 3 28 5q33 4 45.5 13t12.5 28q0 21 -15 33t-41 12q-20 0 -42 -11l-2 -1 q-2 -1 -4.5 -2.5t-4.5 -2.5l-10 26q46 18 83 18q40 0 66 -21t26 -54q0 -28 -20 -44t-56 -16q-17 0 -33 1v-39z" />
<glyph unicode="&#x1ee8;" horiz-adv-x="633" d="M133 667v-417q0 -62 5 -91.5t19 -51.5q22 -34 66.5 -55.5t93.5 -21.5q48 0 92.5 21.5t66.5 55.5q14 22 19 51.5t5 91.5v417h43v-429q0 -66 -7 -98t-28 -60q-30 -42 -81.5 -66.5t-109.5 -24.5q-59 0 -110.5 24.5t-81.5 66.5q-21 28 -28 60t-7 98v429h43zM649 701l49 -14 l-60 -151l-31 9zM445 816l-133 -103l-35 26l122 108z" />
<glyph unicode="&#x1ee9;" horiz-adv-x="436" d="M111 408v-243q0 -63 13 -90q11 -22 37 -35.5t57 -13.5q30 0 56 13.5t37 35.5q13 27 13 90v243h40v-257q0 -77 -30 -112q-42 -50 -116 -50q-75 0 -117 50q-30 35 -30 112v257h40zM452 430l46 -13l-59 -143l-32 11zM324 581l-104 -114l-30 16l92 125z" />
<glyph unicode="&#x1eea;" horiz-adv-x="633" d="M133 667v-417q0 -62 5 -91.5t19 -51.5q22 -34 66.5 -55.5t93.5 -21.5q48 0 92.5 21.5t66.5 55.5q14 22 19 51.5t5 91.5v417h43v-429q0 -66 -7 -98t-28 -60q-30 -42 -81.5 -66.5t-109.5 -24.5q-59 0 -110.5 24.5t-81.5 66.5q-21 28 -28 60t-7 98v429h43zM649 701l49 -14 l-60 -151l-31 9zM188 816l46 31l122 -108l-35 -26z" />
<glyph unicode="&#x1eeb;" horiz-adv-x="436" d="M111 408v-243q0 -63 13 -90q11 -22 37 -35.5t57 -13.5q30 0 56 13.5t37 35.5q13 27 13 90v243h40v-257q0 -77 -30 -112q-42 -50 -116 -50q-75 0 -117 50q-30 35 -30 112v257h40zM452 430l46 -13l-59 -143l-32 11zM112 581l42 27l91 -125l-29 -16z" />
<glyph unicode="&#x1eec;" horiz-adv-x="633" d="M133 667v-417q0 -62 5 -91.5t19 -51.5q22 -34 66.5 -55.5t93.5 -21.5q48 0 92.5 21.5t66.5 55.5q14 22 19 51.5t5 91.5v417h43v-429q0 -66 -7 -98t-28 -60q-30 -42 -81.5 -66.5t-109.5 -24.5q-59 0 -110.5 24.5t-81.5 66.5q-21 28 -28 60t-7 98v429h43zM649 701l49 -14 l-60 -151l-31 9zM313 756h-33v55q26 4 28 4q33 5 45.5 14t12.5 28q0 21 -15 33t-41 12q-20 0 -42 -12q-1 -1 -11 -5l-10 25q47 18 83 18q41 0 66.5 -20.5t25.5 -53.5q0 -28 -20 -44t-56 -16q-17 0 -33 1v-39z" />
<glyph unicode="&#x1eed;" horiz-adv-x="436" d="M111 408v-243q0 -63 13 -90q11 -22 37 -35.5t57 -13.5q30 0 56 13.5t37 35.5q13 27 13 90v243h40v-257q0 -77 -30 -112q-42 -50 -116 -50q-75 0 -117 50q-30 35 -30 112v257h40zM452 430l46 -13l-59 -143l-32 11zM235 495h-33v55q21 3 28 5q33 5 45.5 13.5t12.5 27.5 q0 21 -15 33t-41 12q-19 0 -42 -12q-1 -1 -11 -5l-10 26q47 17 83 17q41 0 66.5 -20.5t25.5 -53.5q0 -28 -20 -44t-56 -16q-17 0 -33 1v-39z" />
<glyph unicode="&#x1eee;" horiz-adv-x="633" d="M133 667v-417q0 -62 5 -91.5t19 -51.5q22 -34 66.5 -55.5t93.5 -21.5q48 0 92.5 21.5t66.5 55.5q14 22 19 51.5t5 91.5v417h43v-429q0 -66 -7 -98t-28 -60q-30 -42 -81.5 -66.5t-109.5 -24.5q-59 0 -110.5 24.5t-81.5 66.5q-21 28 -28 60t-7 98v429h43zM649 701l49 -14 l-60 -151l-31 9zM216 734l-29 22q15 33 31 46.5t40 13.5q20 0 62 -17q40 -18 57 -18q14 0 22.5 8t18.5 30l28 -22q-20 -60 -71 -60q-20 0 -59 16q-44 19 -61 19q-14 0 -22.5 -8t-16.5 -30z" />
<glyph unicode="&#x1eef;" horiz-adv-x="436" d="M111 408v-243q0 -63 13 -90q11 -22 37 -35.5t57 -13.5q30 0 56 13.5t37 35.5q13 27 13 90v243h40v-257q0 -77 -30 -112q-42 -50 -116 -50q-75 0 -117 50q-30 35 -30 112v257h40zM452 430l46 -13l-59 -143l-32 11zM118 490l-26 19q25 58 69 58q24 0 87 -29q16 -8 28 -8 q24 0 42 38l25 -19q-18 -58 -70 -58q-17 0 -54 16q-48 22 -63 22q-24 0 -38 -39z" />
<glyph unicode="&#x1ef0;" horiz-adv-x="633" d="M133 667v-417q0 -62 5 -91.5t19 -51.5q22 -34 66.5 -55.5t93.5 -21.5q48 0 92.5 21.5t66.5 55.5q14 22 19 51.5t5 91.5v417h43v-429q0 -66 -7 -98t-28 -60q-30 -42 -81.5 -66.5t-109.5 -24.5q-59 0 -110.5 24.5t-81.5 66.5q-21 28 -28 60t-7 98v429h43zM649 701l49 -14 l-60 -151l-31 9zM305 -75q15 0 25.5 -10.5t10.5 -25.5q0 -16 -10.5 -26.5t-25.5 -10.5q-16 0 -26.5 10.5t-10.5 26.5q0 15 11 25.5t26 10.5z" />
<glyph unicode="&#x1ef1;" horiz-adv-x="436" d="M111 408v-243q0 -63 13 -90q11 -22 37 -35.5t57 -13.5q30 0 56 13.5t37 35.5q13 27 13 90v243h40v-257q0 -77 -30 -112q-42 -50 -116 -50q-75 0 -117 50q-30 35 -30 112v257h40zM452 430l46 -13l-59 -143l-32 11zM206 -75q15 0 25.5 -10.5t10.5 -25.5q0 -16 -10.5 -26.5 t-25.5 -10.5q-16 0 -26.5 10.5t-10.5 26.5q0 15 11 25.5t26 10.5z" />
<glyph unicode="&#x1ef2;" horiz-adv-x="514" d="M231 285l-218 382h50l190 -335l195 335h51l-225 -382v-285h-43v285zM124 816l46 31l122 -108l-35 -26z" />
<glyph unicode="&#x1ef3;" horiz-adv-x="428" d="M201 -7l-193 415h47l167 -362l152 362h46l-274 -647h-45zM121 581l42 27l92 -125l-30 -16z" />
<glyph unicode="&#x1ef4;" horiz-adv-x="514" d="M231 285l-218 382h50l190 -335l195 335h51l-225 -382v-285h-43v285zM255 -75q15 0 25.5 -10.5t10.5 -25.5q0 -16 -10.5 -26.5t-25.5 -10.5q-16 0 -26.5 10.5t-10.5 26.5q0 15 11 25.5t26 10.5z" />
<glyph unicode="&#x1ef5;" horiz-adv-x="428" d="M201 -7l-193 415h47l167 -362l152 362h46l-274 -647h-45zM276 -143q15 0 25.5 -10.5t10.5 -25.5q0 -16 -10.5 -26.5t-25.5 -10.5q-16 0 -26.5 10.5t-10.5 26.5q0 15 11 25.5t26 10.5z" />
<glyph unicode="&#x1ef6;" horiz-adv-x="514" d="M231 285l-218 382h50l190 -335l195 335h51l-225 -382v-285h-43v285zM269 753h-33v55q26 4 28 4q33 5 45.5 14t12.5 28q0 21 -15 33t-41 12q-20 0 -42 -12q-1 -1 -11 -5l-10 25q47 18 83 18q41 0 66.5 -20.5t25.5 -53.5q0 -28 -20 -44t-56 -16q-17 0 -33 1v-39z" />
<glyph unicode="&#x1ef7;" horiz-adv-x="428" d="M201 -7l-193 415h47l167 -362l152 362h46l-274 -647h-45zM234 496h-33v55q21 3 28 5q33 4 45.5 13t12.5 28q0 21 -15 33t-41 12q-20 0 -42 -11l-2 -1q-2 -1 -4.5 -2.5t-4.5 -2.5l-10 26q46 18 83 18q40 0 66 -21t26 -54q0 -28 -20 -44t-56 -16q-17 0 -33 1v-39z" />
<glyph unicode="&#x1ef8;" horiz-adv-x="514" d="M231 285l-218 382h50l190 -335l195 335h51l-225 -382v-285h-43v285zM156 734l-29 22q14 33 30.5 46.5t40.5 13.5q20 0 61 -17q42 -18 58 -18q14 0 22.5 8t17.5 30l29 -22q-20 -60 -71 -60q-22 0 -59 16q-44 19 -61 19q-14 0 -22.5 -8t-16.5 -30z" />
<glyph unicode="&#x1ef9;" horiz-adv-x="428" d="M201 -7l-193 415h47l167 -362l152 362h46l-274 -647h-45zM115 490l-27 19q25 58 70 58q23 0 86 -29q16 -8 29 -8q23 0 41 38l26 -19q-20 -58 -70 -58q-18 0 -55 16q-48 22 -63 22q-24 0 -37 -39z" />
<glyph unicode="&#x2011;" horiz-adv-x="168" d="M0 227h168v-40h-168v40z" />
<glyph unicode="&#x2012;" horiz-adv-x="547" d="M125 227h297v-40h-297v40z" />
<glyph unicode="&#x2013;" horiz-adv-x="547" d="M125 227h297v-40h-297v40z" />
<glyph unicode="&#x2014;" horiz-adv-x="505" d="M0 227h505v-40h-505v40z" />
<glyph unicode="&#x2015;" horiz-adv-x="505" d="M0 227h505v-40h-505v40z" />
<glyph unicode="&#x2017;" d="M0 -63h500v-30h-500v30zM0 -178h500v-31h-500v31z" />
<glyph unicode="&#x2018;" horiz-adv-x="227" d="M103 493l-40 12l74 200l26 -10z" />
<glyph unicode="&#x2019;" horiz-adv-x="227" d="M123 705l40 -12l-74 -200l-26 9z" />
<glyph unicode="&#x201a;" horiz-adv-x="227" d="M123 65l40 -12l-74 -200l-26 10z" />
<glyph unicode="&#x201b;" d="M258 467l-45 139l32 10l58 -136z" />
<glyph unicode="&#x201c;" horiz-adv-x="343" d="M219 493l-40 12l74 200l26 -10zM103 493l-40 12l74 200l26 -10z" />
<glyph unicode="&#x201d;" horiz-adv-x="343" d="M123 705l40 -12l-74 -200l-26 9zM239 705l40 -12l-74 -200l-26 9z" />
<glyph unicode="&#x201e;" horiz-adv-x="343" d="M123 65l40 -12l-74 -200l-26 10zM239 65l40 -12l-74 -200l-26 10z" />
<glyph unicode="&#x2020;" horiz-adv-x="547" d="M252 729h43v-176h159v-40h-159v-673h-43v673h-159v40h159v176z" />
<glyph unicode="&#x2021;" horiz-adv-x="547" d="M252 729h43v-176h159v-40h-159v-378h159v-40h-159v-255h-43v255h-159v40h159v378h-159v40h159v176z" />
<glyph unicode="&#x2022;" horiz-adv-x="667" d="M336 480q56 0 95.5 -41t39.5 -99t-40 -99t-97 -41t-97.5 41t-40.5 99t41 99t99 41z" />
<glyph unicode="&#x2026;" horiz-adv-x="641" d="M107 66q15 0 25.5 -10.5t10.5 -25.5q0 -16 -10.5 -26.5t-25.5 -10.5q-16 0 -26.5 10.5t-10.5 26.5q0 15 11 25.5t26 10.5zM320 66q15 0 25.5 -10.5t10.5 -25.5q0 -16 -10.5 -26.5t-25.5 -10.5q-16 0 -26.5 10.5t-10.5 26.5q0 15 11 25.5t26 10.5zM534 66q15 0 25.5 -10.5 t10.5 -25.5q0 -16 -10.5 -26.5t-25.5 -10.5q-16 0 -26.5 10.5t-10.5 26.5q0 15 11 25.5t26 10.5z" />
<glyph unicode="&#x2030;" horiz-adv-x="931" d="M167 673q58 0 96.5 -37.5t38.5 -93.5t-39 -93.5t-97 -37.5q-57 0 -95 38t-38 95q0 54 39 91.5t95 37.5zM167 637q-38 0 -66 -27.5t-28 -65.5q0 -40 27.5 -68t67.5 -28q39 0 66.5 27.5t27.5 67.5q0 39 -27.5 66.5t-67.5 27.5zM484 682l29 -15l-396 -682l-28 16zM436 256 q58 0 96.5 -37.5t38.5 -93.5t-39 -93.5t-97 -37.5q-57 0 -95 38t-38 95q0 54 39 91.5t95 37.5zM436 219q-39 0 -67 -27.5t-28 -65.5q0 -40 27.5 -68t67.5 -28t67.5 27.5t27.5 67.5q0 39 -27.5 66.5t-67.5 27.5zM763 256q58 0 96.5 -37.5t38.5 -93.5t-39 -93.5t-97 -37.5 q-57 0 -95 38t-38 95q0 54 39 91.5t95 37.5zM764 219q-39 0 -67 -27.5t-28 -65.5q0 -40 27.5 -68t67.5 -28t67.5 27.5t27.5 67.5q0 39 -27.5 66.5t-67.5 27.5z" />
<glyph unicode="&#x2039;" horiz-adv-x="241" d="M81 207l106 -126l-25 -24l-129 150l129 149l25 -24z" />
<glyph unicode="&#x203a;" horiz-adv-x="241" d="M160 207l-107 125l25 24l129 -149l-129 -150l-25 24z" />
<glyph unicode="&#x203e;" d="M0 847h500v-39h-500v39z" />
<glyph unicode="&#x2044;" horiz-adv-x="130" d="M248 682l29 -15l-395 -682l-29 16z" />
<glyph unicode="&#x20a3;" horiz-adv-x="547" d="M402 627h-226v-242h220v-40h-220v-345h-43v667h269v-40zM330 286h37v-31q21 41 64 41q15 0 33 -6l-18 -34q-12 6 -21 6q-25 0 -43 -23q-15 -19 -15 -85v-154h-37v286z" />
<glyph unicode="&#x20a4;" horiz-adv-x="547" d="M242 171h-111v40h110q-4 29 -30 77h-80v40h57l-30 46q-28 43 -38 70.5t-10 59.5q0 72 51.5 121t126.5 49q74 0 122 -50t48 -127h-42q-3 45 -17 72q-16 30 -47 47t-68 17q-54 0 -92 -38.5t-38 -93.5q0 -39 39 -102q7 -11 43 -71h160v-40h-137q20 -37 26 -77h111v-40h-110 q-6 -57 -50 -101q2 -1 9 -3.5t11 -3.5q2 -1 9.5 -3.5t17 -5.5t17.5 -6q51 -18 72 -18q55 0 95 70l36 -22q-54 -91 -126 -91q-32 0 -109 28q-62 21 -82 21q-43 0 -94 -46l-24 32q22 26 56 42t63 15q48 44 55 92z" />
<glyph unicode="&#x20a7;" horiz-adv-x="738" d="M133 317v-317h-43v667h128q98 0 146 -51q48 -50 48 -124q0 -82 -51.5 -128.5t-141.5 -46.5h-86zM133 357h87q67 0 107 37t40 98q0 62 -36 98q-37 37 -117 37h-81v-270zM459 253v-253h-37v253h-35v33h35v102h37v-102h53v-33h-53zM705 245l-31 -13q-18 30 -47 30 q-19 0 -32 -12t-13 -29q0 -16 11.5 -26t44.5 -22q48 -18 65.5 -36.5t17.5 -52.5q0 -41 -27 -67t-70 -26q-78 0 -102 77l31 10q21 -55 71 -55q26 0 42.5 16.5t16.5 42.5q0 21 -12 33.5t-43 23.5q-46 16 -65 34t-19 45q0 32 24 54.5t58 22.5q53 0 79 -50z" />
<glyph unicode="&#x20ab;" horiz-adv-x="515" d="M510 623v-37h-66v-586h-40v73q-57 -84 -160 -84q-86 0 -142.5 61.5t-56.5 155.5q0 93 55.5 152t142.5 59q100 0 161 -80v249h-122v37h122v106h40v-106h66zM246 380q-68 0 -114 -49.5t-46 -122.5q0 -79 45 -130.5t115 -51.5q71 0 116 51t45 131q0 84 -51 129 q-49 43 -110 43zM63 -76h392v-41h-392v41z" />
<glyph unicode="&#x20ac;" horiz-adv-x="547" d="M398 266h-265q16 -113 71 -177.5t135 -64.5q79 0 152 60v-44q-68 -50 -155 -50q-101 0 -169.5 75.5t-81.5 200.5h-66l11 33h52v30q0 32 2 46h-65l11 33h57q19 135 85.5 206.5t172.5 71.5q110 0 168 -72l-15 -38q-36 42 -69.5 58.5t-82.5 16.5q-90 0 -145 -62.5 t-69 -180.5h313l-11 -33h-304q-1 -17 -1 -39q0 -23 1 -37h278z" />
<glyph unicode="&#x2101;" horiz-adv-x="885" d="M285 396h-175l-55 -129h-38l182 417l180 -417h-38zM272 427l-74 174l-74 -174h148zM670 682l28 -15l-395 -682l-28 16zM826 345l-25 -20q-20 28 -37.5 38.5t-44.5 10.5q-32 0 -54 -20.5t-22 -50.5q0 -23 15 -37.5t58 -33.5q65 -30 84 -42q46 -28 46 -78t-39.5 -84.5 t-95.5 -34.5q-90 0 -128 90l29 13q20 -40 42.5 -56t56.5 -16q41 0 70.5 26t29.5 62q0 25 -16.5 40.5t-65.5 38.5q-53 23 -79 39q-42 25 -42 74q0 44 31.5 72.5t79.5 28.5q72 0 107 -60z" />
<glyph unicode="&#x2105;" horiz-adv-x="957" d="M398 632v-53q-67 68 -143 68q-71 0 -120 -51.5t-49 -126.5q0 -73 49 -124.5t120 -51.5q83 0 148 74v-54q-69 -57 -148 -57q-89 0 -149.5 61t-60.5 150q0 93 60.5 155t150.5 62q76 0 142 -52zM700 417q90 0 151.5 -62t61.5 -152q0 -91 -62 -152.5t-153 -61.5 q-89 0 -150.5 63t-61.5 155q0 86 63 148t151 62zM698 380q-71 0 -121 -51t-50 -123q0 -76 49 -128t121 -52q74 0 124.5 51t50.5 126t-50 126t-124 51zM586 682l31 -15l-275 -682l-31 16z" />
<glyph unicode="&#x2113;" d="M242 270q-34 -170 -34 -220q0 -25 21 -25q28 0 55 59q7 16 17 16t10 -11q0 -16 -19 -46q-36 -57 -79 -57q-28 0 -44.5 20.5t-16.5 55.5q0 34 16 151q-48 -45 -59 -45q-3 0 -6.5 3.5t-3.5 6.5q0 8 24 27q33 30 52 52q42 217 88 320t101 103q25 0 39.5 -20t14.5 -54 q0 -84 -57 -185q-38 -67 -119 -151zM252 320q137 151 137 285q0 47 -27 47q-30 0 -53.5 -71t-56.5 -261z" />
<glyph unicode="&#x2116;" horiz-adv-x="1097" d="M90 0v674l560 -586v579h43v-684l-560 586v-569h-43zM950 443q63 0 105 -41.5t42 -104.5t-42 -104.5t-105 -41.5q-64 0 -106 41.5t-42 106.5q0 61 42.5 102.5t105.5 41.5zM950 402q-46 0 -74.5 -29t-28.5 -74q0 -48 28 -77.5t73 -29.5q46 0 75 29t29 76q0 46 -28.5 75.5 t-73.5 29.5zM801 57v40h296v-40h-296z" />
<glyph unicode="&#x2117;" horiz-adv-x="740" d="M344 298v-192h-43v427h85q61 0 91 -34q30 -35 30 -83q0 -55 -32.5 -86.5t-89.5 -31.5h-41zM344 338h42q34 0 55 21t21 56q0 78 -81 78h-37v-155zM376 677q138 0 238 -101.5t100 -241.5q0 -142 -100.5 -243t-242.5 -101q-143 0 -243.5 101t-100.5 245q0 142 101.5 241.5 t247.5 99.5zM375 629q-135 0 -224 -98q-76 -84 -76 -195q0 -125 86 -211.5t210 -86.5q122 0 208.5 86.5t86.5 209.5q0 120 -86.5 207.5t-204.5 87.5z" />
<glyph unicode="&#x2122;" horiz-adv-x="721" d="M132 632v-345h-37v345h-94v35h227v-35h-96zM267 287l45 411l162 -348l164 347l45 -410h-37l-31 277l-141 -299l-140 299l-30 -277h-37z" />
<glyph unicode="&#x2126;" horiz-adv-x="667" d="M28 0v39h201q-201 114 -201 322q0 137 88 230t217 93t217 -93t88 -230q0 -208 -201 -322h201v-39h-256v36q212 122 212 322q0 120 -75.5 203.5t-184.5 83.5q-111 0 -186.5 -82.5t-75.5 -204.5q0 -201 213 -322v-36h-257z" />
<glyph unicode="&#x212e;" horiz-adv-x="597" d="M531 250h-373l-1 -105q16 -52 40 -72q38 -35 107 -35q120 0 168 104h44q-46 -148 -213 -148q-109 0 -170.5 69t-61.5 191q0 123 63 195.5t170 72.5q72 0 126.5 -34t79.5 -94q18 -47 21 -144zM458 285v93q-8 24 -23 41q-50 59 -131 59q-54 0 -86.5 -22.5t-57.5 -77.5v-93 h298z" />
<glyph unicode="&#x2202;" d="M97 633l6 40q145 -21 230 -105q61 -59 95.5 -148.5t34.5 -186.5q0 -91 -38 -149q-29 -45 -75.5 -70.5t-97.5 -25.5q-88 0 -151 66.5t-63 158.5q0 93 61.5 158t149.5 65q101 0 159 -88q-35 122 -114.5 195.5t-196.5 89.5zM258 401q-74 0 -125 -55t-51 -136q0 -77 50 -132 t120 -55q71 0 119 55.5t48 138.5q0 80 -45.5 132t-115.5 52z" />
<glyph unicode="&#x2205;" horiz-adv-x="618" d="M439 667l48 -25l-48 -88q113 -80 113 -204q0 -102 -72 -172.5t-176 -70.5q-46 0 -79 16l-63 -123l-48 25l61 122q-108 80 -108 202q0 102 71 172.5t173 70.5q39 0 81 -14zM416 502l-165 -330q32 -8 58 -8q77 0 132 54.5t55 130.5q0 47 -21.5 89t-58.5 64zM200 198 l166 329q-28 8 -54 8q-78 0 -133.5 -54.5t-55.5 -130.5q0 -90 77 -152z" />
<glyph unicode="&#x2206;" horiz-adv-x="667" d="M33 0l277 667h46l277 -667h-600zM95 40h475l-237 574z" />
<glyph unicode="&#x220f;" horiz-adv-x="681" d="M35 750h611v-40h-77v-753h77v-40h-204v40h84v753h-371v-753h83v-40h-203v40h77v753h-77v40z" />
<glyph unicode="&#x2211;" horiz-adv-x="667" d="M587 750v-217h-40l-3 176h-464l254 -358l-254 -394h473l2 174h41v-214h-564v46l251 388l-251 355v44h555z" />
<glyph unicode="&#x2212;" horiz-adv-x="547" d="M31 320v40h484v-40h-484z" />
<glyph unicode="&#x2218;" d="M253 480q56 0 95.5 -41t39.5 -99t-40 -99t-97 -41t-97.5 41t-40.5 99t40.5 99t99.5 41zM252 433q-39 0 -65.5 -27t-26.5 -66q0 -38 27 -65.5t64 -27.5t63.5 27.5t26.5 65.5t-26 65.5t-63 27.5z" />
<glyph unicode="&#x2219;" horiz-adv-x="206" d="M104 243q15 0 25.5 -10.5t10.5 -25.5q0 -16 -10.5 -26.5t-25.5 -10.5q-16 0 -26.5 10.5t-10.5 26.5q0 15 11 25.5t26 10.5z" />
<glyph unicode="&#x221a;" horiz-adv-x="667" d="M667 828v-40h-206l-241 -788h-47l-96 314h-77v40h112l47 -150q23 -83 36 -134h3l6 23q32 115 37 130q11 41 66 216l118 389h242z" />
<glyph unicode="&#x221e;" horiz-adv-x="667" d="M334 310q-78 -118 -169 -118q-65 0 -105.5 41.5t-40.5 108.5q0 64 41 105.5t105 41.5q91 0 167 -118q42 64 81.5 91t89.5 27q64 0 104 -41.5t40 -107.5q0 -65 -40 -106.5t-104 -41.5q-50 0 -89.5 27.5t-79.5 90.5zM355 341q38 -60 71.5 -85.5t73.5 -25.5q46 0 75 31 t29 79q0 49 -29.5 80t-75.5 31q-40 0 -72 -24.5t-72 -85.5zM311 340q-38 60 -71.5 85.5t-73.5 25.5q-46 0 -75 -31t-29 -79q0 -49 29.5 -80t75.5 -31q40 0 72 24.5t72 85.5z" />
<glyph unicode="&#x222b;" d="M120 -239l12 38q21 -10 40 -10q43 0 52 39q4 17 4 75v686q0 81 8 105q18 56 89 56q21 0 54 -11l-12 -39q-23 11 -40 11q-43 0 -52 -39q-4 -15 -4 -90v-672q0 -94 -13 -115q-24 -45 -91 -45q-24 0 -47 11z" />
<glyph unicode="&#x223c;" d="M39 274l-28 18q52 103 130 103q40 0 116 -40q72 -37 102 -37q31 0 53.5 17.5t47.5 60.5l29 -17q-54 -102 -134 -102q-22 0 -46 9t-92 43q-49 25 -79 25q-54 0 -99 -80z" />
<glyph unicode="&#x2243;" d="M40 348l-29 18q54 103 130 103q40 0 116 -40q69 -37 102 -37q31 0 53.5 17.5t47.5 61.5l29 -18q-54 -102 -133 -102q-23 0 -47 9t-92 43q-49 25 -79 25q-54 0 -98 -80zM492 307v-40h-484v40h484z" />
<glyph unicode="&#x2248;" d="M39 348l-28 18q54 103 130 103q40 0 116 -40q69 -37 102 -37q31 0 53.5 17.5t47.5 61.5l29 -18q-54 -102 -134 -102q-22 0 -46 9t-92 43q-49 25 -79 25q-54 0 -99 -80zM39 199l-28 19q53 102 130 102q39 0 116 -40q71 -36 102 -36t53.5 17.5t47.5 60.5l29 -17 q-54 -102 -134 -102q-22 0 -47 9.5t-91 41.5q-49 25 -79 25q-53 0 -99 -80z" />
<glyph unicode="&#x2260;" horiz-adv-x="547" d="M291 413l64 135l34 -10l-59 -125h185v-40h-204l-31 -66h235v-40h-254l-66 -140l-34 9l62 131h-192v40h210l32 66h-242v40h260z" />
<glyph unicode="&#x2264;" d="M466 579v-43l-386 -167l386 -168v-42l-433 190v39zM466 128v-40h-433v40h433z" />
<glyph unicode="&#x2265;" d="M33 159v42l386 168l-386 167v43l433 -191v-40zM33 88v40h433v-40h-433z" />
<glyph unicode="&#xe000;" horiz-adv-x="410" d="M0 410h410v-410h-410v410z" />
<glyph unicode="&#xf6be;" horiz-adv-x="183" d="M111 408v-647h-40v647h40z" />
</font>
</defs>
</svg>
