<?xml version="1.0" standalone="no"?>
<!DOCTYPE svg PUBLIC "-//W3C//DTD SVG 1.1//EN" "http://www.w3.org/Graphics/SVG/1.1/DTD/svg11.dtd" >
<svg xmlns="http://www.w3.org/2000/svg">
<metadata></metadata>
<defs>
<font id="louis_vuittonbold" horiz-adv-x="500" >
<font-face units-per-em="1000" ascent="733" descent="-267" />
<missing-glyph horiz-adv-x="250" />
<glyph unicode="ff" horiz-adv-x="658" d="M228 320v-320h-160v320h-57v133h57v69q0 55 11 89t40 65q62 67 151 67q34 0 71 -17v-139q-36 16 -56 16q-16 0 -31 -8.5t-20 -21.5q-6 -13 -6 -63v-57h66v-133h-66zM540 320v-320h-160v320h-57v133h57v69q0 55 11 89t40 65q62 67 151 67q34 0 71 -17v-139q-35 16 -56 16 q-16 0 -31 -8.5t-20 -21.5q-6 -13 -6 -63v-57h113v-133h-113z" />
<glyph unicode="fi" horiz-adv-x="595" d="M228 320v-320h-160v320h-57v133h57v69q0 55 11 89t40 65q62 67 151 67q34 0 71 -17v-139q-35 16 -56 16q-16 0 -31 -8.5t-20 -21.5q-6 -13 -6 -63v-57h113v-133h-113zM540 453v-453h-160v453h160zM460 717q38 0 64 -26.5t26 -63.5t-26 -63.5t-64 -26.5t-64 26.5t-26 64.5 q0 37 26.5 63t63.5 26z" />
<glyph unicode="fl" horiz-adv-x="595" d="M228 320v-320h-160v320h-57v133h57v69q0 55 11 89t40 65q62 67 151 67q34 0 71 -17v-139q-35 16 -56 16q-16 0 -31 -8.5t-20 -21.5q-6 -13 -6 -63v-57h113v-133h-113zM540 733v-733h-160v733h160z" />
<glyph unicode="ffi" horiz-adv-x="907" d="M228 320v-320h-160v320h-57v133h57v69q0 55 11 89t40 65q62 67 151 67q34 0 71 -17v-139q-36 16 -56 16q-16 0 -31 -8.5t-20 -21.5q-6 -13 -6 -63v-57h66v-133h-66zM540 320v-320h-160v320h-57v133h57v69q0 55 11 89t40 65q62 67 151 67q34 0 71 -17v-139q-35 16 -56 16 q-16 0 -31 -8.5t-20 -21.5q-6 -13 -6 -63v-57h113v-133h-113zM852 453v-453h-160v453h160zM772 717q38 0 64 -26.5t26 -63.5t-26 -63.5t-64 -26.5t-64 26.5t-26 64.5q0 37 26.5 63t63.5 26z" />
<glyph unicode="ffl" horiz-adv-x="907" d="M228 320v-320h-160v320h-57v133h57v69q0 55 11 89t40 65q62 67 151 67q34 0 71 -17v-139q-36 16 -56 16q-16 0 -31 -8.5t-20 -21.5q-6 -13 -6 -63v-57h66v-133h-66zM540 320v-320h-160v320h-57v133h57v69q0 55 11 89t40 65q62 67 151 67q34 0 71 -17v-139q-35 16 -56 16 q-16 0 -31 -8.5t-20 -21.5q-6 -13 -6 -63v-57h113v-133h-113zM852 733v-733h-160v733h160z" />
<glyph unicode=" "  horiz-adv-x="250" />
<glyph unicode="&#x09;" horiz-adv-x="250" />
<glyph unicode="&#xa0;" horiz-adv-x="250" />
<glyph unicode="!" horiz-adv-x="340" d="M170 188q43 0 73.5 -30t30.5 -73t-30 -73.5t-73 -30.5q-44 0 -74 30.5t-30 74.5q0 42 30.5 72t72.5 30zM87 227v440h167v-440h-167z" />
<glyph unicode="&#x22;" horiz-adv-x="410" d="M159 399h-94l-24 268h142zM345 399h-94l-24 268h142z" />
<glyph unicode="#" horiz-adv-x="600" d="M560 298v-115h-106l-24 -183h-132l24 183h-85l-25 -183h-130l24 183h-91v115h106l11 84h-91v115h105l23 170h130l-23 -170h86l22 170h132l-22 -170h90v-115h-105l-11 -84h92zM348 382h-86l-11 -84h86z" />
<glyph unicode="$" horiz-adv-x="600" d="M357 772v-107q97 -8 161 -51l-66 -128q-57 43 -112 43q-32 0 -53.5 -14.5t-21.5 -36.5q0 -19 19 -35q14 -12 26 -17t68 -24q87 -29 126 -73t39 -114q0 -56 -23 -102t-64 -71q-38 -23 -99 -40v-111h-82v105q-52 0 -120.5 25t-97.5 56l72 134q83 -74 161 -74 q35 0 58.5 18.5t23.5 45.5q0 21 -18 37q-14 11 -25 15t-65 21q-90 28 -129.5 71t-39.5 113q0 53 23 99.5t63 74.5q35 26 94 33v107h82z" />
<glyph unicode="%" horiz-adv-x="895" d="M220 674q79 0 128.5 -45.5t49.5 -116.5q0 -78 -59 -127q-46 -38 -126 -38q-82 0 -131 45t-49 121q0 73 51 117t136 44zM215 586q-31 0 -53 -22t-22 -52q0 -32 22 -54t54 -22q31 0 53 22t22 53t-22 53t-54 22zM597 667h87l-387 -667h-87zM684 319q79 0 128.5 -45.5 t49.5 -116.5q0 -78 -59 -127q-46 -38 -126 -38q-82 0 -131 45.5t-49 121.5q0 72 51 116t136 44zM679 231q-31 0 -53 -22t-22 -52q0 -31 22 -53.5t54 -22.5q31 0 53 22t22 53t-22 53t-54 22z" />
<glyph unicode="&#x26;" horiz-adv-x="756" d="M429 343l84 -88q54 49 87 95l98 -95q-32 -41 -91 -97l149 -158h-216l-58 61q-121 -80 -229 -80q-94 0 -153.5 53.5t-59.5 138.5q0 88 65 142q24 20 94 52q-38 47 -50 73.5t-12 62.5q0 79 59.5 131t148.5 52t148.5 -52t59.5 -130q0 -53 -28 -89.5t-96 -71.5zM387 166 l-105 113q-63 -41 -63 -79q0 -28 22 -46t55 -18q45 0 91 30zM354 424q62 38 62 83q0 26 -17 43.5t-42 17.5q-24 0 -40 -16t-16 -40q0 -32 53 -88z" />
<glyph unicode="'" horiz-adv-x="224" d="M159 399h-94l-24 268h142z" />
<glyph unicode="(" horiz-adv-x="338" d="M195 761l97 -55q-102 -175 -102 -414q0 -119 28 -233t74 -185l-97 -55q-55 80 -82 167q-46 154 -46 312q0 130 34 252.5t94 210.5z" />
<glyph unicode=")" horiz-adv-x="338" d="M144 -181l-97 55q102 175 102 414q0 119 -28 233t-74 185l97 55q55 -80 82 -167q46 -154 46 -312q0 -130 -34 -252.5t-94 -210.5z" />
<glyph unicode="*" horiz-adv-x="600" d="M260 733h79l-16 -121l111 52l24 -75l-119 -22l83 -89l-64 -47l-58 107l-59 -107l-64 47l84 88l-120 23l24 75l110 -52z" />
<glyph unicode="+" horiz-adv-x="600" d="M63 390h180v180h113v-180h180v-113h-180v-180h-113v180h-180v113z" />
<glyph unicode="," horiz-adv-x="303" d="M106 169h150l-162 -293h-103z" />
<glyph unicode="-" horiz-adv-x="253" d="M0 303h253v-133h-253v133z" />
<glyph unicode="." horiz-adv-x="303" d="M151 188q43 0 73.5 -30t30.5 -73t-30 -73.5t-73 -30.5q-44 0 -74 30.5t-30 74.5q0 42 30.5 72t72.5 30z" />
<glyph unicode="/" horiz-adv-x="495" d="M363 733h127l-365 -886h-126z" />
<glyph unicode="0" horiz-adv-x="600" d="M300 692q124 0 206 -103q76 -95 76 -255t-76 -256q-81 -103 -206 -103q-127 0 -207 103q-76 98 -76 261q0 156 76 250q83 103 207 103zM300 537q-49 0 -80 -57t-31 -146q0 -92 31 -149.5t80 -57.5t79.5 57t30.5 148t-30.5 148t-79.5 57z" />
<glyph unicode="1" horiz-adv-x="600" d="M234 520h-95v147h268v-667h-173v520z" />
<glyph unicode="2" horiz-adv-x="600" d="M343 147h218v-147h-535l169 177q84 89 139 170q40 60 40 115q0 36 -22.5 61t-54.5 25q-31 0 -51 -23t-20 -59l2 -28h-190q0 68 34 133q31 60 89 92t135 32q113 0 185.5 -67.5t72.5 -172.5q0 -111 -99 -204z" />
<glyph unicode="3" horiz-adv-x="600" d="M267 292v118l20 -1q33 0 53.5 20.5t20.5 54.5q0 29 -19 47.5t-49 18.5q-32 0 -50.5 -20t-20.5 -56h-161q8 65 34 109q30 52 85.5 80.5t126.5 28.5q97 0 156 -52.5t59 -139.5q0 -93 -71 -139q41 -14 62 -40q47 -55 47 -131q0 -97 -73 -158.5t-188 -61.5q-161 0 -238 130 q-34 57 -35 113h177q3 -44 28 -68.5t67 -24.5q39 0 64.5 24.5t25.5 62.5q0 37 -26.5 63.5t-64.5 26.5q-13 0 -30 -5z" />
<glyph unicode="4" horiz-adv-x="600" d="M494 270h81v-133h-81v-137h-160v137h-323v112l257 418h226v-397zM334 270v257l-157 -257h157z" />
<glyph unicode="5" horiz-adv-x="600" d="M495 520h-230l-12 -74q32 4 53 4q103 0 170.5 -66.5t67.5 -167.5q0 -56 -24 -105t-67 -81q-69 -52 -189 -52q-119 0 -218 61l26 162q92 -78 182 -78q47 0 79 28.5t32 71.5q0 49 -41.5 80.5t-106.5 31.5q-63 0 -127 -27l58 359h347v-147z" />
<glyph unicode="6" horiz-adv-x="600" d="M266 667h197l-189 -227q51 21 93 21q92 0 153.5 -67t61.5 -167q0 -113 -79 -183.5t-207 -70.5q-137 0 -210 76q-69 72 -69 169q0 56 27 124t74 129zM296 330q-46 0 -78 -32t-32 -78t32 -78t78 -32q44 0 76.5 32t32.5 77q0 47 -31.5 79t-77.5 32z" />
<glyph unicode="7" horiz-adv-x="600" d="M348 520h-278v147h547l-382 -667h-191z" />
<glyph unicode="8" horiz-adv-x="600" d="M177 351q-105 44 -105 148q0 79 64 135q57 51 164 51q102 0 164.5 -51.5t62.5 -135.5q0 -71 -47 -110q-21 -17 -62 -37q52 -19 79 -44q57 -51 57 -127q0 -85 -72.5 -141t-181.5 -56q-121 0 -198 69q-57 51 -57 128q0 80 59 131q24 21 73 40zM299 569q-30 0 -51.5 -21.5 t-21.5 -51.5q0 -31 21.5 -52.5t52.5 -21.5q30 0 51.5 21.5t21.5 52.5q0 30 -21.5 51.5t-52.5 21.5zM299 281q-32 0 -55.5 -23.5t-23.5 -55.5q0 -34 23 -57.5t57 -23.5q32 0 55.5 23.5t23.5 56.5t-23 56.5t-57 23.5z" />
<glyph unicode="9" horiz-adv-x="600" d="M333 0h-197l190 227q-52 -21 -93 -21q-92 0 -154 67t-62 167q0 113 79 183.5t207 70.5q137 0 210 -76q69 -72 69 -169q0 -57 -26.5 -124.5t-73.5 -129.5zM304 558q-45 0 -77.5 -32t-32.5 -77q0 -46 32 -78.5t78 -32.5t78 32t32 78t-32 78t-78 32z" />
<glyph unicode=":" horiz-adv-x="303" d="M151 188q43 0 73.5 -30t30.5 -73t-30 -73.5t-73 -30.5q-44 0 -74 30.5t-30 74.5q0 42 30.5 72t72.5 30zM151 487q43 0 73.5 -30t30.5 -73t-30 -73.5t-73 -30.5q-44 0 -74 30.5t-30 74.5q0 42 30.5 72t72.5 30z" />
<glyph unicode=";" horiz-adv-x="303" d="M106 169h150l-162 -293h-103zM175 487q43 0 73.5 -30t30.5 -73t-30 -73.5t-73 -30.5q-44 0 -74 30.5t-30 74.5q0 42 30.5 72t72.5 30z" />
<glyph unicode="&#x3c;" d="M466 658v-189l-233 -131l232 -132l1 -187l-433 241v158z" />
<glyph unicode="=" horiz-adv-x="600" d="M63 479h473v-113h-473v113zM63 302h473v-113h-473v113z" />
<glyph unicode="&#x3e;" d="M33 19v189l233 131l-232 132l-1 187l433 -241v-158z" />
<glyph unicode="?" horiz-adv-x="547" d="M184 224v172q21 -5 36 -5q49 0 82.5 25.5t33.5 63.5q0 28 -19 47t-47 19t-43.5 -18t-17.5 -50h-176q2 92 69 150t171 58q98 0 166 -61t68 -149q0 -42 -19 -80.5t-52 -63.5t-89 -45v-63h-163zM269 188q43 0 73.5 -30t30.5 -73t-30 -73.5t-73 -30.5q-44 0 -74 30.5 t-30 74.5q0 42 30.5 72t72.5 30z" />
<glyph unicode="@" horiz-adv-x="688" d="M531 502l-27 -220q-2 -26 -2 -44q0 -10 2 -13.5t9 -3.5q37 0 67.5 48.5t30.5 107.5q0 98 -72 163.5t-180 65.5q-116 0 -194.5 -79t-78.5 -195q0 -74 34.5 -137.5t95.5 -98.5q62 -35 150 -35q56 0 99.5 11.5t104.5 42.5l6 3l32 -81l-5 -2q-112 -59 -236 -59 q-117 0 -201 48q-81 47 -128 129t-47 179q0 150 106 252.5t261 102.5q143 0 241 -89t98 -219q0 -98 -57 -169.5t-136 -71.5q-49 0 -76 43q-45 -44 -105 -44q-70 0 -115.5 52t-45.5 131q0 82 51 136t128 54q45 0 92 -29l6 21h92zM345 416q-36 0 -59 -28t-23 -71q0 -38 18 -62 t47 -24q38 0 66.5 32.5t28.5 75.5q0 33 -22 55t-56 22z" />
<glyph unicode="A" horiz-adv-x="710" d="M475 116h-239l-46 -116h-183l256 667h189l251 -667h-185zM428 248l-71 213l-73 -213h144z" />
<glyph unicode="B" horiz-adv-x="618" d="M70 0v667h257q92 0 140 -44.5t48 -129.5q0 -50 -17 -82.5t-56 -55.5q64 -12 93 -41q43 -45 43 -125q0 -88 -61.5 -138.5t-168.5 -50.5h-278zM243 404h32q81 0 81 65q0 66 -81 66h-32v-131zM243 135h38q64 0 93 16.5t29 53.5q0 41 -33 58q-24 12 -92 12h-35v-140z" />
<glyph unicode="C" horiz-adv-x="590" d="M550 647v-207q-61 73 -150 73q-78 0 -128.5 -52t-50.5 -132q0 -86 59 -135q53 -44 120 -44q84 0 150 70v-205q-61 -21 -90 -27t-65 -6q-74 0 -145 31t-122 85q-88 93 -88 230q0 148 102.5 250.5t250.5 102.5q71 0 157 -34z" />
<glyph unicode="D" horiz-adv-x="695" d="M70 0v667h256q132 0 230 -99.5t98 -233.5q0 -135 -98 -234.5t-230 -99.5h-256zM243 147h40q92 0 142 56q48 53 48 131q0 77 -48 130q-50 56 -142 56h-40v-373z" />
<glyph unicode="E" horiz-adv-x="489" d="M449 520h-206v-111h195v-147h-195v-115h206v-147h-379v667h379v-147z" />
<glyph unicode="F" horiz-adv-x="485" d="M452 520h-209v-111h190v-147h-190v-262h-173v667h382v-147z" />
<glyph unicode="G" horiz-adv-x="778" d="M394 370h344q-3 -134 -35 -205q-41 -91 -120.5 -140t-186.5 -49q-158 0 -257 98.5t-99 255.5q0 160 100.5 259t261.5 99q106 0 179.5 -46t120.5 -142l-165 -68q-44 106 -143 106q-74 0 -123.5 -59.5t-49.5 -149.5q0 -99 60 -162q43 -48 118 -48t113 49q18 24 24 67h-142 v135z" />
<glyph unicode="H" horiz-adv-x="737" d="M243 409h251v258h173v-667h-173v274h-251v-274h-173v667h173v-258z" />
<glyph unicode="I" horiz-adv-x="313" d="M243 667v-667h-173v667h173z" />
<glyph unicode="J" horiz-adv-x="468" d="M399 667v-461q0 -56 -11 -89t-40 -65q-65 -70 -166 -70q-109 0 -174 99l113 115q4 -29 19 -47t37 -18q38 0 46 42q3 18 3 73v421h173z" />
<glyph unicode="K" horiz-adv-x="700" d="M243 392l211 275h214l-264 -316l289 -351h-225l-225 289v-289h-173v667h173v-275z" />
<glyph unicode="L" horiz-adv-x="470" d="M243 667v-520h208v-147h-381v667h173z" />
<glyph unicode="M" horiz-adv-x="915" d="M40 0l113 667h171l135 -356l143 356h173l100 -667h-173l-49 384l-161 -384h-69l-154 384l-57 -384h-172z" />
<glyph unicode="N" horiz-adv-x="805" d="M70 0v667h173l319 -408v408h173v-667h-173l-319 408v-408h-173z" />
<glyph unicode="O" horiz-adv-x="818" d="M409 687q167 0 273 -112q96 -101 96 -243q0 -80 -32.5 -151t-92.5 -121q-101 -84 -247 -84q-158 0 -262 103t-104 259q0 75 33 145t92 120q98 84 244 84zM409 519q-77 0 -132.5 -54.5t-55.5 -130.5q0 -80 54.5 -135t133.5 -55q78 0 133 55t55 133q0 77 -55 132t-133 55z " />
<glyph unicode="P" horiz-adv-x="599" d="M243 222v-222h-173v667h275q59 0 97 -12.5t70 -43.5q65 -62 65 -165q0 -102 -54 -162q-55 -62 -172 -62h-108zM243 361h57q49 0 72.5 20t23.5 63q0 84 -95 84h-58v-167z" />
<glyph unicode="Q" horiz-adv-x="818" d="M804 -19l-159 -24l-54 63q-75 -43 -173 -43q-192 0 -294 125q-84 104 -84 231q0 73 30 141.5t84 118.5q101 93 254 93q161 0 265.5 -100t104.5 -254q0 -67 -20 -121.5t-67 -114.5zM519 280l46 -49q32 47 32 100q0 76 -55.5 131.5t-132.5 55.5q-79 0 -133.5 -55 t-54.5 -135q0 -78 53.5 -130.5t133.5 -52.5q25 0 54 8l-106 107z" />
<glyph unicode="R" horiz-adv-x="627" d="M414 273l210 -273h-216l-165 256v-256h-173v667h269q108 0 164 -59q57 -60 57 -147q0 -95 -61 -148q-32 -28 -85 -40zM243 368h32q50 0 74 18q33 24 33 65t-33 65q-24 18 -74 18h-32v-166z" />
<glyph unicode="S" horiz-adv-x="571" d="M505 629l-69 -135q-57 45 -114 45q-32 0 -53 -16.5t-21 -41.5q0 -20 16 -33q14 -12 30 -18.5t74 -23.5q87 -26 125.5 -69.5t38.5 -117.5q0 -114 -68 -173q-74 -63 -193 -63q-122 0 -231 75l74 140q78 -68 153 -68q38 0 61 18t23 47q0 27 -21.5 43t-82.5 34 q-97 29 -127 54q-53 44 -53 132q0 100 63 162.5t164 62.5q108 0 211 -54z" />
<glyph unicode="T" horiz-adv-x="471" d="M321 520v-520h-173v520h-141v147h458v-147h-144z" />
<glyph unicode="U" horiz-adv-x="721" d="M243 667v-361q0 -58 3 -78t16 -41q30 -51 97 -51q33 0 60 14.5t41 39.5q11 19 14.5 41t3.5 75v361h173v-385q0 -73 -14.5 -118.5t-50.5 -86.5q-83 -94 -230 -94q-76 0 -139.5 26.5t-98.5 73.5q-48 63 -48 199v385h173z" />
<glyph unicode="V" horiz-adv-x="699" d="M189 667l160 -406l162 406h188l-284 -667h-135l-280 667h189z" />
<glyph unicode="W" horiz-adv-x="1014" d="M181 667l116 -431l141 431h138l131 -431l126 431h181l-213 -667h-177l-121 386l-128 -386h-176l-199 667h181z" />
<glyph unicode="X" horiz-adv-x="711" d="M261 356l-214 311h214l99 -173l103 173h213l-217 -311l252 -356h-210l-142 217l-150 -217h-209z" />
<glyph unicode="Y" horiz-adv-x="640" d="M229 320l-241 347h207l126 -182l121 182h210l-250 -347v-320h-173v320z" />
<glyph unicode="Z" horiz-adv-x="631" d="M304 147h280v-147h-571l315 520h-262v147h552z" />
<glyph unicode="[" horiz-adv-x="337" d="M207 640v-699h90v-94h-217v886h217v-93h-90z" />
<glyph unicode="\" horiz-adv-x="495" d="M133 733l364 -886h-127l-364 886h127z" />
<glyph unicode="]" horiz-adv-x="337" d="M130 -60v699h-90v94h217v-886h-217v93h90z" />
<glyph unicode="^" d="M171 337h-165l139 335h209l140 -335h-165l-79 207z" />
<glyph unicode="_" d="M0 -49h500v-110h-500v110z" />
<glyph unicode="`" d="M96 656l102 73l126 -154l-74 -55z" />
<glyph unicode="a" horiz-adv-x="620" d="M406 453h160v-453h-160v50q-51 -65 -140 -65q-97 0 -163 70t-66 173q0 102 65.5 171t162.5 69q83 0 141 -59v44zM307 330q-42 0 -72.5 -30t-30.5 -72q0 -44 30 -74.5t74 -30.5q43 0 73 30.5t30 73.5t-30.5 73t-73.5 30z" />
<glyph unicode="b" horiz-adv-x="620" d="M215 733v-324q58 59 141 59q97 0 162.5 -69t65.5 -171q0 -103 -66 -173t-163 -70q-89 0 -140 65v-50h-160v733h160zM314 330q-43 0 -73.5 -30t-30.5 -73t30 -73.5t74 -30.5q42 0 72.5 30.5t30.5 71.5q0 44 -30 74.5t-73 30.5z" />
<glyph unicode="c" horiz-adv-x="433" d="M397 442v-136q-43 29 -83 29q-48 0 -79 -31t-31 -79q0 -47 31.5 -78t78.5 -31q44 0 83 30v-136q-56 -25 -112 -25q-104 0 -176 69t-72 169q0 105 72 174.5t180 69.5q58 0 108 -25z" />
<glyph unicode="d" horiz-adv-x="620" d="M406 733h160v-733h-160v50q-51 -65 -140 -65q-97 0 -163 70t-66 173q0 102 65.5 171t162.5 69q83 0 141 -59v324zM307 330q-42 0 -72.5 -30t-30.5 -72q0 -44 30 -74.5t74 -30.5q43 0 73 30.5t30 73.5t-30.5 73t-73.5 30z" />
<glyph unicode="e" horiz-adv-x="572" d="M536 197h-337q1 -102 97 -102q29 0 46.5 9.5t32.5 33.5h154q-15 -51 -40 -80q-65 -76 -193 -76q-118 0 -188.5 65.5t-70.5 175.5q0 112 68 177.5t184 65.5t181.5 -67.5t65.5 -185.5v-16zM203 290h184q-8 34 -33 53.5t-61 19.5q-37 0 -60.5 -19t-29.5 -54z" />
<glyph unicode="f" horiz-adv-x="346" d="M228 320v-320h-160v320h-57v133h57v69q0 55 11 89t40 65q62 67 151 67q34 0 71 -17v-139q-35 16 -56 16q-16 0 -31 -8.5t-20 -21.5q-6 -13 -6 -63v-57h113v-133h-113z" />
<glyph unicode="g" horiz-adv-x="617" d="M562 453v-422q0 -72 -13 -112t-48 -75q-73 -73 -202 -73q-134 0 -208 80q-39 40 -49 94h180q16 -46 76 -46q49 0 76.5 29t27.5 80v42q-36 -33 -67.5 -46t-75.5 -13q-97 0 -159.5 64t-62.5 165q0 106 66 176t164 70q82 0 135 -60v47h160zM307 331q-42 0 -72.5 -30 t-30.5 -72q0 -43 30 -73.5t73 -30.5t73 30t30 73t-30 73t-73 30z" />
<glyph unicode="h" horiz-adv-x="587" d="M55 733h160v-337q32 37 64 52t81 15q84 0 131 -50q24 -24 33 -51t9 -74v-288h-160v229q0 53 -10 72q-17 35 -64 35q-40 0 -67 -30q-17 -23 -17 -63v-243h-160v733z" />
<glyph unicode="i" horiz-adv-x="269" d="M215 453v-453h-160v453h160zM135 717q37 0 63.5 -26.5t26.5 -63.5t-26.5 -63.5t-63.5 -26.5q-38 0 -64 26.5t-26 64.5q0 37 26.5 63t63.5 26z" />
<glyph unicode="j" horiz-adv-x="269" d="M215 453v-680h-160v680h160zM135 717q37 0 63.5 -26.5t26.5 -63.5t-26.5 -63.5t-63.5 -26.5q-38 0 -64 26.5t-26 64.5q0 37 26.5 63t63.5 26z" />
<glyph unicode="k" horiz-adv-x="617" d="M215 733v-443l168 163h219l-227 -209l241 -244h-225l-176 184v-184h-160v733h160z" />
<glyph unicode="l" horiz-adv-x="269" d="M215 733v-733h-160v733h160z" />
<glyph unicode="m" horiz-adv-x="877" d="M55 453h160v-56q35 34 68.5 48.5t78.5 14.5q101 0 153 -84q55 85 154 85q40 0 74.5 -16.5t53.5 -44.5q25 -37 25 -106v-294h-160v224q0 52 -9 72q-16 40 -58 40q-20 0 -38.5 -11.5t-27.5 -30.5q-11 -23 -11 -70v-224h-160v224q0 53 -7 72t-24.5 31t-37.5 12 q-19 0 -37 -11t-26 -27q-11 -22 -11 -77v-224h-160v453z" />
<glyph unicode="n" horiz-adv-x="587" d="M55 453h160v-57q32 37 64 52t81 15q84 0 131 -50q24 -24 33 -51t9 -74v-288h-160v229q0 53 -10 72q-17 35 -64 35q-40 0 -67 -30q-17 -23 -17 -63v-243h-160v453z" />
<glyph unicode="o" horiz-adv-x="619" d="M309 470q120 0 196.5 -68t76.5 -175q0 -108 -76.5 -176t-198.5 -68q-119 0 -194.5 69t-75.5 179q0 105 82 176q73 63 190 63zM309 332q-42 0 -72.5 -30.5t-30.5 -72.5q0 -44 30.5 -74.5t73.5 -30.5t73 30.5t30 73.5q0 44 -30.5 74t-73.5 30z" />
<glyph unicode="p" horiz-adv-x="620" d="M215 -227h-160v680h160v-50q51 65 140 65q97 0 163 -70t66 -173q0 -101 -65.5 -170.5t-162.5 -69.5q-83 0 -141 59v-271zM313 330q-43 0 -73 -30t-30 -73t30.5 -73.5t73.5 -30.5q42 0 72.5 30.5t30.5 71.5q0 44 -30 74.5t-74 30.5z" />
<glyph unicode="q" horiz-adv-x="620" d="M406 -227v271q-58 -59 -141 -59q-97 0 -162.5 69.5t-65.5 170.5q0 103 66 173t163 70q89 0 140 -65v50h160v-680h-160zM307 330q-42 0 -72.5 -30t-30.5 -72q0 -44 30 -74.5t74 -30.5q43 0 73 30.5t30 73.5t-30.5 73t-73.5 30z" />
<glyph unicode="r" horiz-adv-x="411" d="M55 453h160v-74q28 43 62.5 61.5t86.5 18.5q16 0 31 -1v-153q-32 16 -68 16q-112 0 -112 -127v-194h-160v453z" />
<glyph unicode="s" horiz-adv-x="450" d="M410 440l-54 -104q-44 22 -87 22q-21 0 -35 -9t-14 -23q0 -15 13.5 -22t58.5 -17q132 -26 132 -134q0 -77 -59 -123.5t-157 -46.5q-93 0 -181 52l58 113q69 -46 128 -46q22 0 36 10t14 26t-13.5 24t-54.5 17q-72 15 -102.5 44t-30.5 82q0 76 54 120t148 44q77 0 146 -29z " />
<glyph unicode="t" horiz-adv-x="330" d="M234 320v-320h-160v320h-53v133h53v136h160v-136h91v-133h-91z" />
<glyph unicode="u" horiz-adv-x="592" d="M215 453v-257q0 -83 82 -83q81 0 81 83v257h160v-288q0 -90 -61.5 -137t-179.5 -47t-180 47t-62 137v288h160z" />
<glyph unicode="v" horiz-adv-x="577" d="M180 453l108 -232l110 232h179l-236 -453h-107l-234 453h180z" />
<glyph unicode="w" horiz-adv-x="907" d="M179 453l108 -239l114 239h100l114 -246l114 246h178l-237 -453h-108l-113 248l-108 -248h-108l-233 453h179z" />
<glyph unicode="x" horiz-adv-x="656" d="M226 246l-184 207h209l78 -93l80 93h208l-188 -207l227 -246h-212l-116 135l-116 -135h-212z" />
<glyph unicode="y" horiz-adv-x="608" d="M219 61l-219 392h186l121 -232l118 232h183l-364 -680h-179z" />
<glyph unicode="z" horiz-adv-x="521" d="M288 133h191v-133h-459l214 320h-185v133h451z" />
<glyph unicode="{" horiz-adv-x="383" d="M263 552v-136q0 -51 -12 -76t-48 -50q34 -22 47 -49t13 -77v-136q0 -47 10 -58.5t51 -11.5h19v-113q-32 0 -33 -1l-32 -1h-11q-71 0 -101.5 33.5t-30.5 110.5v167q0 41 -12.5 61t-42.5 26v108q55 11 55 76v168q0 78 30.5 111t103.5 33q4 0 41 -2q18 0 33 -1v-113 q-8 1 -18 1q-42 0 -52 -11.5t-10 -58.5z" />
<glyph unicode="|" d="M155 667h191v-834h-191v834z" />
<glyph unicode="}" horiz-adv-x="383" d="M119 28v136q0 51 12 76t48 50q-34 22 -47 49t-13 77v136q0 47 -10 58.5t-51 11.5h-18v113q31 0 33 1l32 1h10q71 0 101.5 -33.5t30.5 -110.5v-167q0 -41 12.5 -61t43.5 -26v-108q-56 -11 -56 -76v-168q0 -78 -30.5 -111t-103.5 -33q-4 0 -40 2q-18 0 -33 1v113 q8 -1 18 -1q41 0 51 11.5t10 58.5z" />
<glyph unicode="~" horiz-adv-x="667" d="M161 247l-71 46q6 14 8 17l12 28q42 94 131 94q32 0 104 -26q64 -24 87 -24q24 0 39 10.5t33 41.5l73 -43q-23 -46 -38 -67.5t-36 -36.5q-40 -28 -85 -28q-25 0 -102 27q-64 23 -82 23q-25 0 -45 -17q-11 -10 -28 -45z" />
<glyph unicode="&#xa1;" horiz-adv-x="340" d="M170 534q43 0 73.5 -30t30.5 -73t-30 -73.5t-73 -30.5q-44 0 -74 30.5t-30 74.5q0 42 30.5 72t72.5 30zM87 287h167v-440h-167v440z" />
<glyph unicode="&#xa2;" horiz-adv-x="600" d="M427 657v-88q22 -5 52 -15v-144q-39 34 -80 34q-46 0 -77 -31.5t-31 -78.5q0 -46 31 -77t76 -31q46 0 81 34v-144q-33 -11 -52 -14v-93h-81v87q-95 6 -159 74.5t-64 164.5q0 67 32 122.5t89 86.5q41 23 102 31v82h81z" />
<glyph unicode="&#xa3;" horiz-adv-x="600" d="M30 256v85h73q-26 44 -26 105q0 90 59 157q70 76 205 76q124 0 181.5 -60.5t57.5 -190.5h-175q5 20 5 31q2 33 -23 58.5t-59 25.5q-37 0 -60 -26.5t-23 -68.5q0 -48 22 -93q1 -2 3 -7t3 -7h150v-85h-125q4 -28 4 -55q0 -26 -8 -54q112 -33 141 -33q42 0 44 43h108 q-5 -82 -48.5 -126.5t-117.5 -44.5q-35 0 -119 25q-74 22 -111 22q-45 0 -57 -33h-114q13 69 54.5 112.5t96.5 44.5q9 18 9 33q0 33 -18 66h-132z" />
<glyph unicode="&#xa4;" horiz-adv-x="667" d="M20 137l103 103q-44 63 -44 138q0 72 44 137l-104 104l71 71l104 -104q67 44 140 44q71 0 137 -43l103 102l70 -70l-102 -102q45 -71 45 -140t-43 -136l103 -103l-70 -71l-103 103q-65 -45 -142 -45q-69 0 -139 44l-103 -102zM335 514q-58 0 -98 -39.5t-40 -97.5 q0 -56 40 -96t96 -40t96 40t40 97q0 56 -39.5 96t-94.5 40z" />
<glyph unicode="&#xa5;" horiz-adv-x="600" d="M54 329v105h91l-141 233h197l101 -192l96 192h199l-147 -233h97v-105h-162l-6 -9v-52h168v-105h-168v-163h-165v163h-160v105h160v52l-6 9h-154z" />
<glyph unicode="&#xa6;" d="M155 667h191v-362h-191v362zM155 153h191v-320h-191v320z" />
<glyph unicode="&#xa7;" horiz-adv-x="600" d="M501 553h-139l-1 7q-5 67 -59 67q-23 0 -39.5 -15t-16.5 -37q0 -23 19 -38t81 -41q56 -22 82 -37t46 -36q47 -45 47 -116q0 -52 -23 -89t-79 -76q41 -27 58.5 -56t17.5 -71q0 -76 -56 -125.5t-141 -49.5q-70 0 -120.5 33.5t-68.5 92.5q-8 25 -10 70h142q1 -30 5 -41 q15 -39 57 -39q26 0 43.5 17.5t17.5 42.5q0 32 -26 50q-18 14 -75 33q-55 18 -81 31.5t-47 34.5q-49 49 -49 127q0 63 31 106q19 27 66 52q-40 29 -56 57.5t-16 70.5q0 72 52 117t135 45q60 0 108.5 -22.5t69.5 -59.5q22 -37 25 -105zM303 368q-31 0 -52 -21t-21 -52 q0 -29 21.5 -50.5t51.5 -21.5t51 21.5t21 51.5q0 29 -21 50.5t-51 21.5z" />
<glyph unicode="&#xa8;" d="M136 696q36 0 61.5 -25t25.5 -61t-25.5 -61.5t-60.5 -25.5q-37 0 -62 25.5t-25 62.5q0 35 25.5 60t60.5 25zM363 696q36 0 61.5 -25t25.5 -61t-25.5 -61.5t-60.5 -25.5q-37 0 -62 25.5t-25 62.5q0 35 25.5 60t60.5 25z" />
<glyph unicode="&#xa9;" horiz-adv-x="760" d="M501 520v-143q-18 21 -21 24q-32 30 -77 30q-44 0 -71.5 -28t-27.5 -72q0 -42 28 -69.5t71 -27.5q40 0 74 27q5 4 24 22v-139q-64 -21 -103 -21q-92 0 -156 60.5t-64 147.5q0 88 64 149.5t156 61.5q45 0 103 -22zM385 682q140 0 240.5 -103t100.5 -246 q0 -144 -101.5 -246t-244.5 -102t-245 102t-102 246q0 146 102 247.5t250 101.5zM384 619q-118 0 -200 -83t-82 -203q0 -118 81.5 -202t196.5 -84q114 0 195 84t81 202q0 117 -80.5 201.5t-191.5 84.5z" />
<glyph unicode="&#xaa;" horiz-adv-x="363" d="M236 658h94v-265h-94v29q-31 -38 -82 -38q-57 0 -95.5 41t-38.5 101q0 59 38.5 100t94.5 41q49 0 83 -35v26zM177 586q-25 0 -42.5 -17.5t-17.5 -42.5q0 -26 17.5 -43.5t43.5 -17.5q25 0 42.5 18t17.5 43t-18 42.5t-43 17.5zM31 343h303v-60h-303v60z" />
<glyph unicode="&#xab;" horiz-adv-x="531" d="M377 228l114 -154l-91 -64l-152 218l152 217l88 -61zM157 228l114 -154l-91 -64l-152 218l152 217l88 -61z" />
<glyph unicode="&#xac;" d="M281 0v132h-248v166h433v-298h-185z" />
<glyph unicode="&#xad;" horiz-adv-x="253" d="M0 303h253v-133h-253v133z" />
<glyph unicode="&#xae;" horiz-adv-x="760" d="M437 294l132 -161h-152l-92 134v-134h-121v400h174q69 0 106 -36q37 -37 37 -90q0 -87 -84 -113zM325 360h13q59 0 59 42q0 41 -59 41h-13v-83zM385 682q140 0 240.5 -103t100.5 -246q0 -144 -101.5 -246t-244.5 -102t-245 102t-102 246q0 146 102 247.5t250 101.5z M384 619q-118 0 -200 -83t-82 -203q0 -118 81.5 -202t196.5 -84q114 0 195 84t81 202q0 117 -80.5 201.5t-191.5 84.5z" />
<glyph unicode="&#xaf;" d="M75 638h350v-98h-350v98z" />
<glyph unicode="&#xb0;" horiz-adv-x="600" d="M300 677q56 0 95 -39t39 -94t-39 -94.5t-94 -39.5q-56 0 -95 39.5t-39 95.5q0 54 39.5 93t93.5 39zM300 608q-26 0 -45 -18.5t-19 -44.5q0 -27 18.5 -46t45.5 -19t45.5 19t18.5 45q0 27 -18.5 45.5t-45.5 18.5z" />
<glyph unicode="&#xb1;" horiz-adv-x="600" d="M63 433h180v180h113v-180h180v-113h-180v-160h-113v160h-180v113zM63 113h473v-113h-473v113z" />
<glyph unicode="&#xb2;" horiz-adv-x="400" d="M234 360h124v-93h-327l106 110q105 111 105 165q0 20 -12.5 34t-30.5 14q-17 0 -28 -12.5t-11 -32.5l2 -20h-119q0 71 42.5 115t112.5 44q68 0 112 -41t44 -105q0 -66 -60 -122z" />
<glyph unicode="&#xb3;" horiz-adv-x="400" d="M177 438v78q5 -1 15 -1q18 0 29 11t11 30q0 15 -10.5 25t-26.5 10q-38 0 -38 -45h-102q8 66 46.5 101t102.5 35q58 0 94 -32t36 -85q0 -55 -38 -81q27 -10 43.5 -38.5t16.5 -63.5q0 -58 -44 -95.5t-113 -37.5q-97 0 -143 78q-21 36 -21 72h111q3 -55 53 -55q22 0 36 13.5 t14 34.5t-15 35.5t-36 14.5q-8 0 -21 -4z" />
<glyph unicode="&#xb4;" d="M404 656l-154 -136l-74 55l126 154z" />
<glyph unicode="&#xb5;" horiz-adv-x="592" d="M215 -227h-160v680h160v-259q0 -81 82 -81q81 0 81 83v257h160v-288q0 -87 -60.5 -135.5t-169.5 -48.5q-56 0 -106 17z" />
<glyph unicode="&#xb6;" horiz-adv-x="600" d="M185 -92v413q-88 -1 -139 45t-51 125q0 105 82 149q52 27 148 27h334v-99h-73v-660h-109v660h-83v-660h-109z" />
<glyph unicode="&#xb7;" horiz-adv-x="303" d="M151 340q43 0 73.5 -30t30.5 -73t-30 -73.5t-73 -30.5q-44 0 -74 30.5t-30 74.5q0 42 30.5 72t72.5 30z" />
<glyph unicode="&#xb8;" d="M395 -110l-137 -129l-72 45l117 143z" />
<glyph unicode="&#xb9;" horiz-adv-x="400" d="M158 574h-56v93h165v-400h-109v307z" />
<glyph unicode="&#xba;" horiz-adv-x="361" d="M180 668q70 0 115 -40t45 -103t-45 -102.5t-116 -39.5q-70 0 -114 40.5t-44 104.5q0 60 45.5 100t113.5 40zM180 586q-25 0 -42.5 -17.5t-17.5 -42.5q0 -26 18 -43.5t43 -17.5t42.5 18t17.5 43t-18 42.5t-43 17.5zM29 343h303v-60h-303v60z" />
<glyph unicode="&#xbb;" horiz-adv-x="531" d="M154 228l-111 156l88 61l152 -217l-152 -218l-91 64zM374 228l-111 156l88 61l152 -217l-152 -218l-91 64z" />
<glyph unicode="&#xbc;" horiz-adv-x="973" d="M158 574h-56v93h165v-400h-109v307zM637 667h86l-387 -667h-86zM891 166h48v-85h-48v-81h-101v81h-191v70l153 249h139v-234zM790 166v136l-83 -136h83z" />
<glyph unicode="&#xbd;" horiz-adv-x="973" d="M158 574h-56v93h165v-400h-109v307zM637 667h86l-387 -667h-86zM807 93h124v-93h-327l106 110q105 111 105 165q0 20 -12.5 34t-30.5 14q-17 0 -28 -12.5t-11 -32.5l2 -20h-119q0 71 42.5 115t112.5 44q68 0 112 -41t44 -105q0 -66 -60 -122z" />
<glyph unicode="&#xbe;" horiz-adv-x="974" d="M177 438v78q5 -1 15 -1q18 0 29 11t11 30q0 15 -10.5 25t-26.5 10q-38 0 -38 -45h-102q8 66 46.5 101t102.5 35q58 0 94 -32t36 -85q0 -55 -38 -81q27 -10 43.5 -38.5t16.5 -63.5q0 -58 -44 -95.5t-113 -37.5q-97 0 -143 78q-21 36 -21 72h111q3 -55 53 -55q22 0 36 13.5 t14 34.5t-15 35.5t-36 14.5q-8 0 -21 -4zM636 667h87l-387 -667h-86zM891 166h48v-85h-48v-81h-101v81h-191v70l153 249h139v-234zM790 166v136l-83 -136h83z" />
<glyph unicode="&#xbf;" horiz-adv-x="545" d="M361 290v-172q-20 5 -35 5q-49 0 -82 -25t-33 -63q0 -28 18.5 -46.5t46.5 -18.5q27 0 42.5 17.5t17.5 49.5h176q-2 -92 -69 -149.5t-170 -57.5q-97 0 -165 61t-68 148q0 42 19 80t52 63q31 25 88 45v63h162zM276 534q44 0 74 -30.5t30 -74.5q0 -42 -30.5 -72t-72.5 -30 q-43 0 -73.5 30t-30.5 73t30 73.5t73 30.5z" />
<glyph unicode="&#xc0;" horiz-adv-x="710" d="M475 116h-239l-46 -116h-183l256 667h189l251 -667h-185zM428 248l-71 213l-73 -213h144zM197 836l93 84l144 -137l-67 -63z" />
<glyph unicode="&#xc1;" horiz-adv-x="710" d="M475 116h-239l-46 -116h-183l256 667h189l251 -667h-185zM428 248l-71 213l-73 -213h144zM520 836l-170 -116l-67 63l145 137z" />
<glyph unicode="&#xc2;" horiz-adv-x="710" d="M475 116h-239l-46 -116h-183l256 667h189l251 -667h-185zM428 248l-71 213l-73 -213h144zM152 796l204 120l203 -120l-48 -76l-155 78l-156 -78z" />
<glyph unicode="&#xc3;" horiz-adv-x="710" d="M475 116h-239l-46 -116h-183l256 667h189l251 -667h-185zM428 248l-71 213l-73 -213h144zM244 737h-84q0 46 14 77q13 30 39.5 47.5t58.5 17.5q29 0 92 -21q43 -14 62 -14q29 0 39 36h86q-7 -59 -18 -81q-30 -62 -105 -62q-36 0 -83 17q-50 19 -68 19q-14 0 -21 -7 t-12 -29z" />
<glyph unicode="&#xc4;" horiz-adv-x="710" d="M475 116h-239l-46 -116h-183l256 667h189l251 -667h-185zM428 248l-71 213l-73 -213h144zM235 903q36 0 61.5 -25t25.5 -61t-25.5 -61.5t-60.5 -25.5q-37 0 -62 25.5t-25 62.5q0 35 25.5 60t60.5 25zM475 903q36 0 61.5 -25t25.5 -61t-25.5 -61.5t-60.5 -25.5 q-37 0 -62 25.5t-25 62.5q0 35 25.5 60t60.5 25z" />
<glyph unicode="&#xc5;" horiz-adv-x="710" d="M475 116h-239l-46 -116h-183l256 667h189l251 -667h-185zM428 248l-71 213l-73 -213h144zM352 924h7q62 0 98 -28t36 -76t-36 -76t-98 -28h-7q-62 0 -98 28t-36 77q0 47 36.5 75t97.5 28zM355 859q-23 0 -37 -10.5t-14 -27.5q0 -18 13.5 -28.5t37.5 -10.5q52 0 52 39 q0 38 -52 38z" />
<glyph unicode="&#xc6;" horiz-adv-x="924" d="M472 117h-241l-41 -117h-183l257 667h408l54 -147h-219l41 -111h218l56 -147h-220l43 -115h219l53 -147h-402zM426 248l-72 199l-75 -199h147z" />
<glyph unicode="&#xc7;" horiz-adv-x="590" d="M550 647v-207q-61 73 -150 73q-78 0 -128.5 -52t-50.5 -132q0 -86 59 -135q53 -44 120 -44q84 0 150 70v-205q-61 -21 -90 -27t-65 -6q-74 0 -145 31t-122 85q-88 93 -88 230q0 148 102.5 250.5t250.5 102.5q71 0 157 -34zM450 -115l-138 -135l-78 54l117 150z" />
<glyph unicode="&#xc8;" horiz-adv-x="489" d="M449 520h-206v-111h195v-147h-195v-115h206v-147h-379v667h379v-147zM119 836l93 84l144 -137l-67 -63z" />
<glyph unicode="&#xc9;" horiz-adv-x="489" d="M449 520h-206v-111h195v-147h-195v-115h206v-147h-379v667h379v-147zM416 836l-170 -116l-67 63l145 137z" />
<glyph unicode="&#xca;" horiz-adv-x="489" d="M449 520h-206v-111h195v-147h-195v-115h206v-147h-379v667h379v-147zM56 796l204 120l203 -120l-48 -76l-155 78l-156 -78z" />
<glyph unicode="&#xcb;" horiz-adv-x="489" d="M450 520h-207v-111h195v-147h-195v-115h207v-147h-380v667h380v-147zM143 903q36 0 61.5 -25t25.5 -61t-25.5 -61.5t-60.5 -25.5q-37 0 -62 25.5t-25 62.5q0 35 25.5 60t60.5 25zM376 903q36 0 61.5 -25t25.5 -61t-25.5 -61.5t-60.5 -25.5q-37 0 -62 25.5t-25 62.5 q0 35 25.5 60t60.5 25z" />
<glyph unicode="&#xcc;" horiz-adv-x="313" d="M243 667v-667h-173v667h173zM-5 836l93 84l144 -137l-67 -63z" />
<glyph unicode="&#xcd;" horiz-adv-x="313" d="M243 667v-667h-173v667h173zM318 836l-170 -116l-67 63l145 137z" />
<glyph unicode="&#xce;" horiz-adv-x="313" d="M243 667v-667h-173v667h173zM-34 796l190 120l190 -120l-47 -76l-143 78l-142 -78z" />
<glyph unicode="&#xcf;" horiz-adv-x="313" d="M243 667v-667h-173v667h173zM53 903q36 0 61.5 -25t25.5 -61t-25.5 -61.5t-60.5 -25.5q-37 0 -62 25.5t-25 62.5q0 35 25.5 60t60.5 25zM260 903q36 0 61.5 -25t25.5 -61t-25.5 -61.5t-60.5 -25.5q-37 0 -62 25.5t-25 62.5q0 35 25.5 60t60.5 25z" />
<glyph unicode="&#xd0;" horiz-adv-x="695" d="M70 0v287h-60v113h60v267h256q133 0 231 -99.5t98 -233.5q0 -135 -98 -234.5t-231 -99.5h-256zM243 147h40q93 0 143 56q48 53 48 131q0 77 -48 130q-50 56 -143 56h-40v-120h114v-113h-114v-140z" />
<glyph unicode="&#xd1;" horiz-adv-x="805" d="M70 0v667h173l319 -408v408h173v-667h-173l-319 408v-408h-173zM298 737h-84q0 46 14 77q13 30 39.5 47.5t58.5 17.5q29 0 92 -21q43 -14 62 -14q29 0 39 36h86q-7 -59 -18 -81q-30 -62 -105 -62q-36 0 -83 17q-50 19 -68 19q-14 0 -21 -7t-12 -29z" />
<glyph unicode="&#xd2;" horiz-adv-x="818" d="M409 687q167 0 273 -112q96 -101 96 -243q0 -80 -32.5 -151t-92.5 -121q-101 -84 -247 -84q-158 0 -262 103t-104 259q0 75 33 145t92 120q98 84 244 84zM409 519q-77 0 -132.5 -54.5t-55.5 -130.5q0 -80 54.5 -135t133.5 -55q78 0 133 55t55 133q0 77 -55 132t-133 55z M257 836l93 84l144 -137l-67 -63z" />
<glyph unicode="&#xd3;" horiz-adv-x="818" d="M409 687q167 0 273 -112q96 -101 96 -243q0 -80 -32.5 -151t-92.5 -121q-101 -84 -247 -84q-158 0 -262 103t-104 259q0 75 33 145t92 120q98 84 244 84zM409 519q-77 0 -132.5 -54.5t-55.5 -130.5q0 -80 54.5 -135t133.5 -55q78 0 133 55t55 133q0 77 -55 132t-133 55z M567 836l-170 -116l-67 63l145 137z" />
<glyph unicode="&#xd4;" horiz-adv-x="818" d="M409 687q167 0 273 -112q96 -101 96 -243q0 -80 -32.5 -151t-92.5 -121q-101 -84 -247 -84q-158 0 -262 103t-104 259q0 75 33 145t92 120q98 84 244 84zM409 519q-77 0 -132.5 -54.5t-55.5 -130.5q0 -80 54.5 -135t133.5 -55q78 0 133 55t55 133q0 77 -55 132t-133 55z M206 796l204 120l203 -120l-48 -76l-155 78l-156 -78z" />
<glyph unicode="&#xd5;" horiz-adv-x="818" d="M409 687q167 0 273 -112q96 -101 96 -243q0 -80 -32.5 -151t-92.5 -121q-101 -84 -247 -84q-158 0 -262 103t-104 259q0 75 33 145t92 120q98 84 244 84zM409 519q-77 0 -132.5 -54.5t-55.5 -130.5q0 -80 54.5 -135t133.5 -55q78 0 133 55t55 133q0 77 -55 132t-133 55z M304 737h-84q0 46 14 77q13 30 39.5 47.5t58.5 17.5q29 0 92 -21q43 -14 62 -14q29 0 39 36h86q-7 -59 -18 -81q-30 -62 -105 -62q-36 0 -83 17q-50 19 -68 19q-14 0 -21 -7t-12 -29z" />
<glyph unicode="&#xd6;" horiz-adv-x="818" d="M409 687q167 0 273 -112q96 -101 96 -243q0 -80 -32.5 -151t-92.5 -121q-101 -84 -247 -84q-158 0 -262 103t-104 259q0 75 33 145t92 120q98 84 244 84zM409 519q-77 0 -132.5 -54.5t-55.5 -130.5q0 -80 54.5 -135t133.5 -55q78 0 133 55t55 133q0 77 -55 132t-133 55z M288 903q36 0 61.5 -25t25.5 -61t-25.5 -61.5t-60.5 -25.5q-37 0 -62 25.5t-25 62.5q0 35 25.5 60t60.5 25zM528 903q36 0 61.5 -25t25.5 -61t-25.5 -61.5t-60.5 -25.5q-37 0 -62 25.5t-25 62.5q0 35 25.5 60t60.5 25z" />
<glyph unicode="&#xd7;" horiz-adv-x="600" d="M173 541l127 -128l128 128l80 -80l-127 -128l127 -127l-80 -80l-128 127l-127 -127l-80 80l127 127l-127 128z" />
<glyph unicode="&#xd8;" horiz-adv-x="818" d="M789 625l-80 -79q70 -104 70 -212q0 -153 -105.5 -255.5t-262.5 -102.5q-124 0 -231 73l-84 -79l-69 72l82 79q-69 101 -69 206q0 155 104.5 257t262.5 102q89 0 169 -32q28 -12 61 -39l84 82zM244 246l257 246q-40 26 -94 26q-75 0 -130.5 -55t-55.5 -129q0 -51 23 -88z M574 421l-263 -252q55 -25 96 -25q79 0 135 54t56 130q0 42 -24 93z" />
<glyph unicode="&#xd9;" horiz-adv-x="721" d="M243 667v-361q0 -58 3 -78t16 -41q30 -51 97 -51q33 0 60 14.5t41 39.5q11 19 14.5 41t3.5 75v361h173v-385q0 -73 -14.5 -118.5t-50.5 -86.5q-83 -94 -230 -94q-76 0 -139.5 26.5t-98.5 73.5q-48 63 -48 199v385h173zM195 836l93 84l144 -137l-67 -63z" />
<glyph unicode="&#xda;" horiz-adv-x="721" d="M243 667v-361q0 -58 3 -78t16 -41q30 -51 97 -51q33 0 60 14.5t41 39.5q11 19 14.5 41t3.5 75v361h173v-385q0 -73 -14.5 -118.5t-50.5 -86.5q-83 -94 -230 -94q-76 0 -139.5 26.5t-98.5 73.5q-48 63 -48 199v385h173zM526 836l-170 -116l-67 63l145 137z" />
<glyph unicode="&#xdb;" horiz-adv-x="721" d="M243 667v-361q0 -58 3 -78t16 -41q30 -51 97 -51q33 0 60 14.5t41 39.5q11 19 14.5 41t3.5 75v361h173v-385q0 -73 -14.5 -118.5t-50.5 -86.5q-83 -94 -230 -94q-76 0 -139.5 26.5t-98.5 73.5q-48 63 -48 199v385h173zM157 796l204 120l203 -120l-48 -76l-155 78 l-156 -78z" />
<glyph unicode="&#xdc;" horiz-adv-x="721" d="M243 667v-361q0 -58 3 -78t16 -41q30 -51 97 -51q33 0 60 14.5t41 39.5q11 19 14.5 41t3.5 75v361h173v-385q0 -73 -14.5 -118.5t-50.5 -86.5q-83 -94 -230 -94q-76 0 -139.5 26.5t-98.5 73.5q-48 63 -48 199v385h173zM240 903q36 0 61.5 -25t25.5 -61t-25.5 -61.5 t-60.5 -25.5q-37 0 -62 25.5t-25 62.5q0 35 25.5 60t60.5 25zM480 903q36 0 61.5 -25t25.5 -61t-25.5 -61.5t-60.5 -25.5q-37 0 -62 25.5t-25 62.5q0 35 25.5 60t60.5 25z" />
<glyph unicode="&#xdd;" horiz-adv-x="640" d="M229 320l-241 347h207l126 -182l121 182h210l-250 -347v-320h-173v320zM492 836l-170 -116l-67 63l145 137z" />
<glyph unicode="&#xde;" horiz-adv-x="599" d="M243 128v-128h-173v667h173v-94h102q59 0 97 -12.5t70 -43.5q65 -61 65 -165q0 -102 -54 -162q-55 -62 -172 -62h-108zM243 267h57q49 0 72.5 20t23.5 63q0 84 -95 84h-58v-167z" />
<glyph unicode="&#xdf;" horiz-adv-x="594" d="M55 0v535q0 106 58 158q62 54 170 54q101 0 161 -54t60 -145q0 -42 -18 -73.5t-60 -63.5q54 -26 76 -47q55 -49 55 -144q0 -54 -20.5 -103.5t-54.5 -77.5q-65 -53 -187 -53q-18 0 -33 1v136q51 0 79 22q40 29 40 84q0 51 -31.5 80t-87.5 30v129q88 0 88 72q0 32 -18 50.5 t-49 18.5q-48 0 -61 -38q-7 -20 -7 -87v-484h-160z" />
<glyph unicode="&#xe0;" horiz-adv-x="620" d="M406 453h160v-453h-160v50q-51 -65 -140 -65q-97 0 -163 70t-66 173q0 102 65.5 171t162.5 69q83 0 141 -59v44zM307 330q-42 0 -72.5 -30t-30.5 -72q0 -44 30 -74.5t74 -30.5q43 0 73 30.5t30 73.5t-30.5 73t-73.5 30zM170 656l102 73l126 -154l-74 -55z" />
<glyph unicode="&#xe1;" horiz-adv-x="620" d="M406 453h160v-453h-160v50q-51 -65 -140 -65q-97 0 -163 70t-66 173q0 102 65.5 171t162.5 69q83 0 141 -59v44zM307 330q-42 0 -72.5 -30t-30.5 -72q0 -44 30 -74.5t74 -30.5q43 0 73 30.5t30 73.5t-30.5 73t-73.5 30zM464 656l-154 -136l-74 55l126 154z" />
<glyph unicode="&#xe2;" horiz-adv-x="620" d="M406 453h160v-453h-160v50q-51 -65 -140 -65q-97 0 -163 70t-66 173q0 102 65.5 171t162.5 69q83 0 141 -59v44zM307 330q-42 0 -72.5 -30t-30.5 -72q0 -44 30 -74.5t74 -30.5q43 0 73 30.5t30 73.5t-30.5 73t-73.5 30zM120 597l195 147l199 -147l-71 -77l-128 98 l-127 -98z" />
<glyph unicode="&#xe3;" horiz-adv-x="620" d="M406 453h160v-453h-160v50q-51 -65 -140 -65q-97 0 -163 70t-66 173q0 102 65.5 171t162.5 69q83 0 141 -59v44zM307 330q-42 0 -72.5 -30t-30.5 -72q0 -44 30 -74.5t74 -30.5q43 0 73 30.5t30 73.5t-30.5 73t-73.5 30zM222 525h-76q0 64 26.5 101.5t70.5 37.5 q24 0 89 -24q37 -15 58 -15q14 0 20.5 7.5t12.5 31.5h79q-8 -74 -31.5 -106.5t-69.5 -32.5q-37 0 -88 20q-45 17 -60 17q-14 0 -20 -7.5t-11 -29.5z" />
<glyph unicode="&#xe4;" horiz-adv-x="620" d="M406 453h160v-453h-160v50q-51 -65 -140 -65q-97 0 -163 70t-66 173q0 102 65.5 171t162.5 69q83 0 141 -59v44zM307 330q-42 0 -72.5 -30t-30.5 -72q0 -44 30 -74.5t74 -30.5q43 0 73 30.5t30 73.5t-30.5 73t-73.5 30zM203 696q36 0 61.5 -25t25.5 -61t-25.5 -61.5 t-60.5 -25.5q-37 0 -62 25.5t-25 62.5q0 35 25.5 60t60.5 25zM430 696q36 0 61.5 -25t25.5 -61t-25.5 -61.5t-60.5 -25.5q-37 0 -62 25.5t-25 62.5q0 35 25.5 60t60.5 25z" />
<glyph unicode="&#xe5;" horiz-adv-x="620" d="M406 453h160v-453h-160v50q-51 -65 -140 -65q-97 0 -163 70t-66 173q0 102 65.5 171t162.5 69q83 0 141 -59v44zM307 330q-42 0 -72.5 -30t-30.5 -72q0 -44 30 -74.5t74 -30.5q43 0 73 30.5t30 73.5t-30.5 73t-73.5 30zM314 730h7q61 0 97.5 -28t36.5 -75q0 -48 -36 -76 t-98 -28h-7q-62 0 -98 28t-36 77q0 46 36.5 74t97.5 28zM316 667q-23 0 -37.5 -11t-14.5 -28q0 -41 53 -41q54 0 54 40t-55 40z" />
<glyph unicode="&#xe6;" horiz-adv-x="868" d="M831 201h-339q2 -49 29 -76t74 -27q55 0 74 42h155q-21 -74 -82.5 -114.5t-151.5 -40.5q-137 0 -179 88q-72 -86 -186 -86q-85 0 -136.5 40t-51.5 106q0 76 64 119q43 31 125 31q56 0 116 -23q0 46 -18 64q-26 29 -91 29q-46 0 -125 -25v120q74 21 134 21q75 0 124 -31 q22 -14 45 -49q55 80 173 80q74 0 133 -31.5t87 -86.5q27 -55 27 -150zM496 294h186q-22 74 -93 74q-68 0 -93 -74zM263 193q-31 0 -50 -13t-19 -35q0 -23 20 -37t52 -14q34 0 57 14.5t23 36.5q0 20 -24 34t-59 14z" />
<glyph unicode="&#xe7;" horiz-adv-x="433" d="M397 442v-136q-43 29 -83 29q-48 0 -79 -31t-31 -79q0 -47 31.5 -78t78.5 -31q44 0 83 30v-136q-56 -25 -112 -25q-104 0 -176 69t-72 169q0 105 72 174.5t180 69.5q58 0 108 -25zM348 -110l-137 -129l-72 45l117 143z" />
<glyph unicode="&#xe8;" horiz-adv-x="572" d="M536 197h-337q1 -102 97 -102q29 0 46.5 9.5t32.5 33.5h154q-15 -51 -40 -80q-65 -76 -193 -76q-118 0 -188.5 65.5t-70.5 175.5q0 112 68 177.5t184 65.5t181.5 -67.5t65.5 -185.5v-16zM203 290h184q-8 34 -33 53.5t-61 19.5q-37 0 -60.5 -19t-29.5 -54zM146 656l102 73 l126 -154l-74 -55z" />
<glyph unicode="&#xe9;" horiz-adv-x="572" d="M536 197h-337q1 -102 97 -102q29 0 46.5 9.5t32.5 33.5h154q-15 -51 -40 -80q-65 -76 -193 -76q-118 0 -188.5 65.5t-70.5 175.5q0 112 68 177.5t184 65.5t181.5 -67.5t65.5 -185.5v-16zM203 290h184q-8 34 -33 53.5t-61 19.5q-37 0 -60.5 -19t-29.5 -54zM440 656 l-154 -136l-74 55l126 154z" />
<glyph unicode="&#xea;" horiz-adv-x="572" d="M536 197h-337q1 -102 97 -102q29 0 46.5 9.5t32.5 33.5h154q-15 -51 -40 -80q-65 -76 -193 -76q-118 0 -188.5 65.5t-70.5 175.5q0 112 68 177.5t184 65.5t181.5 -67.5t65.5 -185.5v-16zM203 290h184q-8 34 -33 53.5t-61 19.5q-37 0 -60.5 -19t-29.5 -54zM93 597l195 147 l199 -147l-71 -77l-128 98l-127 -98z" />
<glyph unicode="&#xeb;" horiz-adv-x="572" d="M536 197h-337q1 -102 97 -102q29 0 46.5 9.5t32.5 33.5h154q-15 -51 -40 -80q-65 -76 -193 -76q-118 0 -188.5 65.5t-70.5 175.5q0 112 68 177.5t184 65.5t181.5 -67.5t65.5 -185.5v-16zM203 290h184q-8 34 -33 53.5t-61 19.5q-37 0 -60.5 -19t-29.5 -54zM172 696 q36 0 61.5 -25t25.5 -61t-25.5 -61.5t-60.5 -25.5q-37 0 -62 25.5t-25 62.5q0 35 25.5 60t60.5 25zM399 696q36 0 61.5 -25t25.5 -61t-25.5 -61.5t-60.5 -25.5q-37 0 -62 25.5t-25 62.5q0 35 25.5 60t60.5 25z" />
<glyph unicode="&#xec;" horiz-adv-x="269" d="M215 453v-453h-160v453h160zM-19 656l102 73l126 -154l-74 -55z" />
<glyph unicode="&#xed;" horiz-adv-x="269" d="M215 453v-453h-160v453h160zM289 656l-154 -136l-74 55l126 154z" />
<glyph unicode="&#xee;" horiz-adv-x="269" d="M215 453v-453h-160v453h160zM-42 597l177 147l177 -147l-71 -77l-106 98l-109 -98z" />
<glyph unicode="&#xef;" horiz-adv-x="269" d="M215 453v-453h-160v453h160zM31 696q36 0 61.5 -25t25.5 -61t-25.5 -61.5t-60.5 -25.5q-37 0 -62 25.5t-25 62.5q0 35 25.5 60t60.5 25zM238 696q36 0 61.5 -25t25.5 -61t-25.5 -61.5t-60.5 -25.5q-37 0 -62 25.5t-25 62.5q0 35 25.5 60t60.5 25z" />
<glyph unicode="&#xf0;" horiz-adv-x="619" d="M396 733l51 -82l-70 -44q205 -176 205 -370q0 -113 -75.5 -182.5t-196.5 -69.5q-120 0 -196.5 68t-76.5 175q0 108 74 173.5t199 67.5q-24 32 -56 61l-87 -56l-49 80l60 39q-27 17 -60 34l63 109q65 -28 114 -66zM309 332q-42 0 -72.5 -30.5t-30.5 -72.5 q0 -44 30.5 -74.5t73.5 -30.5t73 30.5t30 73.5q0 44 -30.5 74t-73.5 30z" />
<glyph unicode="&#xf1;" horiz-adv-x="587" d="M55 453h160v-57q32 37 64 52t81 15q84 0 131 -50q24 -24 33 -51t9 -74v-288h-160v229q0 53 -10 72q-17 35 -64 35q-40 0 -67 -30q-17 -23 -17 -63v-243h-160v453zM192 525h-76q0 64 26.5 101.5t70.5 37.5q24 0 89 -24q37 -15 58 -15q14 0 20.5 7.5t12.5 31.5h79 q-8 -74 -31.5 -106.5t-69.5 -32.5q-37 0 -88 20q-45 17 -60 17q-14 0 -20 -7.5t-11 -29.5z" />
<glyph unicode="&#xf2;" horiz-adv-x="619" d="M309 470q120 0 196.5 -68t76.5 -175q0 -108 -76.5 -176t-198.5 -68q-119 0 -194.5 69t-75.5 179q0 105 82 176q73 63 190 63zM309 332q-42 0 -72.5 -30.5t-30.5 -72.5q0 -44 30.5 -74.5t73.5 -30.5t73 30.5t30 73.5q0 44 -30.5 74t-73.5 30zM162 656l102 73l126 -154 l-74 -55z" />
<glyph unicode="&#xf3;" horiz-adv-x="619" d="M309 470q120 0 196.5 -68t76.5 -175q0 -108 -76.5 -176t-198.5 -68q-119 0 -194.5 69t-75.5 179q0 105 82 176q73 63 190 63zM309 332q-42 0 -72.5 -30.5t-30.5 -72.5q0 -44 30.5 -74.5t73.5 -30.5t73 30.5t30 73.5q0 44 -30.5 74t-73.5 30zM457 656l-154 -136l-74 55 l126 154z" />
<glyph unicode="&#xf4;" horiz-adv-x="619" d="M309 470q120 0 196.5 -68t76.5 -175q0 -108 -76.5 -176t-198.5 -68q-119 0 -194.5 69t-75.5 179q0 105 82 176q73 63 190 63zM309 332q-42 0 -72.5 -30.5t-30.5 -72.5q0 -44 30.5 -74.5t73.5 -30.5t73 30.5t30 73.5q0 44 -30.5 74t-73.5 30zM113 597l195 147l199 -147 l-71 -77l-128 98l-127 -98z" />
<glyph unicode="&#xf5;" horiz-adv-x="619" d="M309 470q120 0 196.5 -68t76.5 -175q0 -108 -76.5 -176t-198.5 -68q-119 0 -194.5 69t-75.5 179q0 105 82 176q73 63 190 63zM309 332q-42 0 -72.5 -30.5t-30.5 -72.5q0 -44 30.5 -74.5t73.5 -30.5t73 30.5t30 73.5q0 44 -30.5 74t-73.5 30zM215 525h-76q0 64 26.5 101.5 t70.5 37.5q24 0 89 -24q37 -15 58 -15q14 0 20.5 7.5t12.5 31.5h79q-8 -74 -31.5 -106.5t-69.5 -32.5q-37 0 -88 20q-45 17 -60 17q-14 0 -20 -7.5t-11 -29.5z" />
<glyph unicode="&#xf6;" horiz-adv-x="619" d="M309 470q120 0 196.5 -68t76.5 -175q0 -108 -76.5 -176t-198.5 -68q-119 0 -194.5 69t-75.5 179q0 105 82 176q73 63 190 63zM309 332q-42 0 -72.5 -30.5t-30.5 -72.5q0 -44 30.5 -74.5t73.5 -30.5t73 30.5t30 73.5q0 44 -30.5 74t-73.5 30zM196 696q36 0 61.5 -25 t25.5 -61t-25.5 -61.5t-60.5 -25.5q-37 0 -62 25.5t-25 62.5q0 35 25.5 60t60.5 25zM423 696q36 0 61.5 -25t25.5 -61t-25.5 -61.5t-60.5 -25.5q-37 0 -62 25.5t-25 62.5q0 35 25.5 60t60.5 25z" />
<glyph unicode="&#xf7;" horiz-adv-x="600" d="M63 390h473v-113h-473v113zM298 230q29 0 49.5 -20.5t20.5 -49.5t-20.5 -49.5t-49.5 -20.5t-49.5 20.5t-20.5 50.5q0 28 20.5 48.5t49.5 20.5zM298 576q29 0 49.5 -20.5t20.5 -49.5t-20.5 -49.5t-49.5 -20.5t-49.5 20.5t-20.5 50.5q0 28 20.5 48.5t49.5 20.5z" />
<glyph unicode="&#xf8;" horiz-adv-x="619" d="M13 36l67 52q-43 64 -43 141q0 53 23.5 102t66.5 83q68 56 187 56q93 0 174 -51l75 58l47 -59l-68 -57q39 -58 39 -125q0 -117 -74 -185t-201 -68q-108 0 -172 52l-74 -57zM214 186l154 127q-25 19 -54 19q-46 0 -78 -30t-32 -73q0 -19 10 -43zM407 264l-152 -124 q24 -16 53 -16q44 0 75 30t31 72q0 14 -7 38z" />
<glyph unicode="&#xf9;" horiz-adv-x="592" d="M215 453v-257q0 -83 82 -83q81 0 81 83v257h160v-288q0 -90 -61.5 -137t-179.5 -47t-180 47t-62 137v288h160zM142 656l102 73l126 -154l-74 -55z" />
<glyph unicode="&#xfa;" horiz-adv-x="592" d="M215 453v-257q0 -83 82 -83q81 0 81 83v257h160v-288q0 -90 -61.5 -137t-179.5 -47t-180 47t-62 137v288h160zM450 656l-154 -136l-74 55l126 154z" />
<glyph unicode="&#xfb;" horiz-adv-x="592" d="M215 453v-257q0 -83 82 -83q81 0 81 83v257h160v-288q0 -90 -61.5 -137t-179.5 -47t-180 47t-62 137v288h160zM99 597l195 147l199 -147l-71 -77l-128 98l-127 -98z" />
<glyph unicode="&#xfc;" horiz-adv-x="592" d="M215 453v-257q0 -83 82 -83q81 0 81 83v257h160v-288q0 -90 -61.5 -137t-179.5 -47t-180 47t-62 137v288h160zM182 696q36 0 61.5 -25t25.5 -61t-25.5 -61.5t-60.5 -25.5q-37 0 -62 25.5t-25 62.5q0 35 25.5 60t60.5 25zM409 696q36 0 61.5 -25t25.5 -61t-25.5 -61.5 t-60.5 -25.5q-37 0 -62 25.5t-25 62.5q0 35 25.5 60t60.5 25z" />
<glyph unicode="&#xfd;" horiz-adv-x="608" d="M219 61l-219 392h186l121 -232l118 232h183l-364 -680h-179zM465 656l-154 -136l-74 55l126 154z" />
<glyph unicode="&#xfe;" horiz-adv-x="620" d="M215 -227h-160v960h160v-330q52 65 140 65q98 0 169 -76q60 -68 60 -167q0 -114 -81 -184q-65 -56 -145 -56q-85 0 -143 59v-271zM313 330q-42 0 -72.5 -30.5t-30.5 -72.5t31 -73t73 -31q41 0 72 31t31 72q0 43 -30.5 73.5t-73.5 30.5z" />
<glyph unicode="&#xff;" horiz-adv-x="608" d="M219 61l-219 392h186l121 -232l118 232h183l-364 -680h-179zM190 696q36 0 61.5 -25t25.5 -61t-25.5 -61.5t-60.5 -25.5q-37 0 -62 25.5t-25 62.5q0 35 25.5 60t60.5 25zM417 696q36 0 61.5 -25t25.5 -61t-25.5 -61.5t-60.5 -25.5q-37 0 -62 25.5t-25 62.5q0 35 25.5 60 t60.5 25z" />
<glyph unicode="&#x100;" horiz-adv-x="710" d="M475 116h-239l-46 -116h-183l256 667h189l251 -667h-185zM428 248l-71 213l-73 -213h144zM170 855h370v-98h-370v98z" />
<glyph unicode="&#x101;" horiz-adv-x="620" d="M406 453h160v-453h-160v50q-51 -65 -140 -65q-97 0 -163 70t-66 173q0 102 65.5 171t162.5 69q83 0 141 -59v44zM307 330q-42 0 -72.5 -30t-30.5 -72q0 -44 30 -74.5t74 -30.5q43 0 73 30.5t30 73.5t-30.5 73t-73.5 30zM139 638h350v-98h-350v98z" />
<glyph unicode="&#x102;" horiz-adv-x="710" d="M475 116h-239l-46 -116h-183l256 667h189l251 -667h-185zM428 248l-71 213l-73 -213h144zM164 884h112q13 -59 79 -59q65 0 78 59h113q-5 -72 -55.5 -113t-135.5 -41q-86 0 -136.5 41t-54.5 113z" />
<glyph unicode="&#x103;" horiz-adv-x="620" d="M406 453h160v-453h-160v50q-51 -65 -140 -65q-97 0 -163 70t-66 173q0 102 65.5 171t162.5 69q83 0 141 -59v44zM307 330q-42 0 -72.5 -30t-30.5 -72q0 -44 30 -74.5t74 -30.5q43 0 73 30.5t30 73.5t-30.5 73t-73.5 30zM142 694h102q7 -41 21 -57t45 -16q39 0 55.5 15 t24.5 58h102q-3 -59 -26 -95q-45 -72 -149 -72q-103 0 -149 72q-22 34 -26 95z" />
<glyph unicode="&#x104;" horiz-adv-x="710" d="M475 116h-239l-46 -116h-183l256 667h189l251 -667q-63 -44 -63 -79q0 -16 11 -26.5t28 -10.5q23 0 53 15l-23 -90q-32 -14 -72 -14q-45 0 -74.5 24.5t-29.5 61.5q0 61 85 119h-100zM428 248l-71 213l-73 -213h144z" />
<glyph unicode="&#x105;" horiz-adv-x="620" d="M406 453h160v-453q-57 -38 -57 -69q0 -16 11.5 -27t27.5 -11q20 0 50 18l-21 -86q-30 -18 -71 -18q-37 0 -63 23.5t-26 56.5q0 65 76 113h-87v50q-51 -65 -140 -65q-97 0 -163 70t-66 173q0 102 65.5 171t162.5 69q83 0 141 -59v44zM307 330q-42 0 -72.5 -30t-30.5 -72 q0 -44 30 -74.5t73 -30.5t73.5 30.5t30.5 73.5q0 42 -30.5 72.5t-73.5 30.5z" />
<glyph unicode="&#x106;" horiz-adv-x="590" d="M550 647v-207q-61 73 -150 73q-78 0 -128.5 -52t-50.5 -132q0 -86 59 -135q53 -44 120 -44q84 0 150 70v-205q-61 -21 -90 -27t-65 -6q-74 0 -145 31t-122 85q-88 93 -88 230q0 148 102.5 250.5t250.5 102.5q71 0 157 -34zM527 836l-170 -116l-67 63l145 137z" />
<glyph unicode="&#x107;" horiz-adv-x="433" d="M397 442v-136q-43 29 -83 29q-48 0 -79 -31t-31 -79q0 -47 31.5 -78t78.5 -31q44 0 83 30v-136q-56 -25 -112 -25q-104 0 -176 69t-72 169q0 105 72 174.5t180 69.5q58 0 108 -25zM418 656l-154 -136l-74 55l126 154z" />
<glyph unicode="&#x108;" horiz-adv-x="590" d="M550 647v-207q-61 73 -150 73q-78 0 -128.5 -52t-50.5 -132q0 -86 59 -135q53 -44 120 -44q84 0 150 70v-205q-61 -21 -90 -27t-65 -6q-74 0 -145 31t-122 85q-88 93 -88 230q0 148 102.5 250.5t250.5 102.5q71 0 157 -34zM158 796l204 120l203 -120l-48 -76l-155 78 l-156 -78z" />
<glyph unicode="&#x109;" horiz-adv-x="433" d="M397 442v-136q-43 29 -83 29q-48 0 -79 -31t-31 -79q0 -47 31.5 -78t78.5 -31q44 0 83 30v-136q-56 -25 -112 -25q-104 0 -176 69t-72 169q0 105 72 174.5t180 69.5q58 0 108 -25zM58 597l195 147l199 -147l-71 -77l-128 98l-127 -98z" />
<glyph unicode="&#x10a;" horiz-adv-x="590" d="M550 647v-207q-61 73 -150 73q-78 0 -128.5 -52t-50.5 -132q0 -86 59 -135q53 -44 120 -44q84 0 150 70v-205q-61 -21 -90 -27t-65 -6q-74 0 -145 31t-122 85q-88 93 -88 230q0 148 102.5 250.5t250.5 102.5q71 0 157 -34zM361 903q36 0 61.5 -25t25.5 -61t-25.5 -61.5 t-60.5 -25.5q-37 0 -62 25.5t-25 62.5q0 35 25.5 60t60.5 25z" />
<glyph unicode="&#x10b;" horiz-adv-x="433" d="M397 442v-136q-43 29 -83 29q-48 0 -79 -31t-31 -79q0 -47 31.5 -78t78.5 -31q44 0 83 30v-136q-56 -25 -112 -25q-104 0 -176 69t-72 169q0 105 72 174.5t180 69.5q58 0 108 -25zM264 705q38 0 64.5 -26.5t26.5 -64.5t-26.5 -64.5t-64.5 -26.5t-64.5 27t-26.5 65 q0 37 27 63.5t64 26.5z" />
<glyph unicode="&#x10c;" horiz-adv-x="590" d="M550 647v-207q-61 73 -150 73q-78 0 -128.5 -52t-50.5 -132q0 -86 59 -135q53 -44 120 -44q84 0 150 70v-205q-61 -21 -90 -27t-65 -6q-74 0 -145 31t-122 85q-88 93 -88 230q0 148 102.5 250.5t250.5 102.5q71 0 157 -34zM565 840l-203 -120l-204 120l48 76l156 -78 l155 78z" />
<glyph unicode="&#x10d;" horiz-adv-x="433" d="M397 442v-136q-43 29 -83 29q-48 0 -79 -31t-31 -79q0 -47 31.5 -78t78.5 -31q44 0 83 30v-136q-56 -25 -112 -25q-104 0 -176 69t-72 169q0 105 72 174.5t180 69.5q58 0 108 -25zM73 667l68 77l121 -98l121 98l71 -77l-192 -147z" />
<glyph unicode="&#x10e;" horiz-adv-x="695" d="M70 0v667h256q132 0 230 -99.5t98 -233.5q0 -135 -98 -234.5t-230 -99.5h-256zM243 147h40q92 0 142 56q48 53 48 131q0 77 -48 130q-50 56 -142 56h-40v-373zM518 840l-203 -120l-204 120l48 76l156 -78l155 78z" />
<glyph unicode="&#x10f;" horiz-adv-x="793" d="M406 733h160v-733h-160v50q-51 -65 -140 -65q-97 0 -163 70t-66 173q0 102 65.5 171t162.5 69q83 0 141 -59v324zM307 330q-42 0 -72.5 -30t-30.5 -72q0 -44 30 -74.5t74 -30.5q43 0 73 30.5t30 73.5t-30.5 73t-73.5 30zM672 733h122l-91 -170h-97z" />
<glyph unicode="&#x110;" horiz-adv-x="695" d="M70 0v287h-60v113h60v267h256q133 0 231 -99.5t98 -233.5q0 -135 -98 -234.5t-231 -99.5h-256zM243 147h40q93 0 143 56q48 53 48 131q0 77 -48 130q-50 56 -143 56h-40v-120h114v-113h-114v-140z" />
<glyph unicode="&#x111;" horiz-adv-x="620" d="M406 733h160v-80h53v-107h-53v-546h-160v50q-51 -65 -140 -65q-97 0 -163 70t-66 173q0 101 65.5 170.5t161.5 69.5q86 0 142 -59v137h-127v107h127v80zM307 330q-42 0 -72.5 -30t-30.5 -72q0 -44 30 -74.5t74 -30.5q43 0 73 30.5t30 73.5t-30.5 73t-73.5 30z" />
<glyph unicode="&#x112;" horiz-adv-x="489" d="M449 520h-206v-111h195v-147h-195v-115h206v-147h-379v667h379v-147zM75 855h370v-98h-370v98z" />
<glyph unicode="&#x113;" horiz-adv-x="572" d="M536 197h-337q1 -102 97 -102q29 0 46.5 9.5t32.5 33.5h154q-15 -51 -40 -80q-65 -76 -193 -76q-118 0 -188.5 65.5t-70.5 175.5q0 112 68 177.5t184 65.5t181.5 -67.5t65.5 -185.5v-16zM203 290h184q-8 34 -33 53.5t-61 19.5q-37 0 -60.5 -19t-29.5 -54zM111 638h350 v-98h-350v98z" />
<glyph unicode="&#x114;" horiz-adv-x="489" d="M449 520h-206v-111h195v-147h-195v-115h206v-147h-379v667h379v-147zM69 884h112q13 -59 79 -59q65 0 78 59h113q-5 -72 -55.5 -113t-135.5 -41q-86 0 -136.5 41t-54.5 113z" />
<glyph unicode="&#x115;" horiz-adv-x="572" d="M536 197h-337q1 -102 97 -102q29 0 46.5 9.5t32.5 33.5h154q-15 -51 -40 -80q-65 -76 -193 -76q-118 0 -188.5 65.5t-70.5 175.5q0 112 68 177.5t184 65.5t181.5 -67.5t65.5 -185.5v-16zM203 290h184q-8 34 -33 53.5t-61 19.5q-37 0 -60.5 -19t-29.5 -54zM359 694h103 q-4 -61 -26 -95q-46 -72 -149 -72t-150 72q-22 37 -25 95h102q10 -72 73 -72q33 0 50 17t22 55z" />
<glyph unicode="&#x116;" horiz-adv-x="489" d="M449 520h-206v-111h195v-147h-195v-115h206v-147h-379v667h379v-147zM259 903q36 0 61.5 -25t25.5 -61t-25.5 -61.5t-60.5 -25.5q-37 0 -62 25.5t-25 62.5q0 35 25.5 60t60.5 25z" />
<glyph unicode="&#x117;" horiz-adv-x="572" d="M536 197h-337q1 -102 97 -102q29 0 46.5 9.5t32.5 33.5h154q-15 -51 -40 -80q-65 -76 -193 -76q-118 0 -188.5 65.5t-70.5 175.5q0 112 68 177.5t184 65.5t181.5 -67.5t65.5 -185.5v-16zM203 290h184q-8 34 -33 53.5t-61 19.5q-37 0 -60.5 -19t-29.5 -54zM286 705 q38 0 64.5 -26.5t26.5 -64.5t-26.5 -64.5t-64.5 -26.5t-64.5 27t-26.5 65q0 37 27 63.5t64 26.5z" />
<glyph unicode="&#x118;" horiz-adv-x="489" d="M449 520h-206v-111h195v-147h-195v-115h206v-147q-63 -43 -63 -79q0 -16 11 -26.5t28 -10.5q22 0 52 15l-23 -90q-31 -14 -71 -14q-45 0 -74.5 24.5t-29.5 61.5q0 61 84 119h-293v667h379v-147z" />
<glyph unicode="&#x119;" horiz-adv-x="572" d="M536 197h-337q1 -102 97 -102q29 0 46.5 9.5t32.5 33.5h154q-13 -50 -40.5 -80.5t-79.5 -56.5q-39 -18 -53.5 -32.5t-14.5 -35.5q0 -17 11 -28.5t28 -11.5q15 0 50 17l-21 -85q-30 -18 -71 -18q-37 0 -63 23.5t-26 56.5q0 51 51 95q-66 0 -114 18q-70 26 -109.5 85 t-39.5 137q0 113 68 178.5t184 65.5t181.5 -67.5t65.5 -185.5v-16zM203 290h184q-8 34 -33 53.5t-61 19.5q-37 0 -60.5 -19t-29.5 -54z" />
<glyph unicode="&#x11a;" horiz-adv-x="489" d="M449 520h-206v-111h195v-147h-195v-115h206v-147h-379v667h379v-147zM463 840l-203 -120l-204 120l48 76l156 -78l155 78z" />
<glyph unicode="&#x11b;" horiz-adv-x="572" d="M536 197h-337q1 -102 97 -102q29 0 46.5 9.5t32.5 33.5h154q-15 -51 -40 -80q-65 -76 -193 -76q-118 0 -188.5 65.5t-70.5 175.5q0 112 68 177.5t184 65.5t181.5 -67.5t65.5 -185.5v-16zM203 290h184q-8 34 -33 53.5t-61 19.5q-37 0 -60.5 -19t-29.5 -54zM93 667l68 77 l127 -98l128 98l71 -77l-199 -147z" />
<glyph unicode="&#x11c;" horiz-adv-x="778" d="M394 370h344q-3 -134 -35 -205q-41 -91 -120.5 -140t-186.5 -49q-158 0 -257 98.5t-99 255.5q0 160 100.5 259t261.5 99q106 0 179.5 -46t120.5 -142l-165 -68q-44 106 -143 106q-74 0 -123.5 -59.5t-49.5 -149.5q0 -99 60 -162q43 -48 118 -48t113 49q18 24 24 67h-142 v135zM185 796l204 120l203 -120l-48 -76l-155 78l-156 -78z" />
<glyph unicode="&#x11d;" horiz-adv-x="617" d="M562 453v-422q0 -72 -13 -112t-48 -75q-73 -73 -202 -73q-134 0 -208 80q-39 40 -49 94h180q16 -46 76 -46q49 0 76.5 29t27.5 80v42q-36 -33 -67.5 -46t-75.5 -13q-97 0 -159.5 64t-62.5 165q0 106 66 176t164 70q82 0 135 -60v47h160zM307 331q-42 0 -72.5 -30 t-30.5 -72q0 -43 30 -73.5t73 -30.5t73 30t30 73t-30 73t-73 30zM112 597l195 147l199 -147l-71 -77l-128 98l-127 -98z" />
<glyph unicode="&#x11e;" horiz-adv-x="778" d="M394 370h344q-3 -134 -35 -205q-41 -91 -120.5 -140t-186.5 -49q-158 0 -257 98.5t-99 255.5q0 160 100.5 259t261.5 99q106 0 179.5 -46t120.5 -142l-165 -68q-44 106 -143 106q-74 0 -123.5 -59.5t-49.5 -149.5q0 -99 60 -162q43 -48 118 -48t113 49q18 24 24 67h-142 v135zM198 884h112q13 -59 79 -59q65 0 78 59h113q-5 -72 -55.5 -113t-135.5 -41q-86 0 -136.5 41t-54.5 113z" />
<glyph unicode="&#x11f;" horiz-adv-x="617" d="M562 453v-422q0 -72 -13 -112t-48 -75q-73 -73 -202 -73q-134 0 -208 80q-39 40 -49 94h180q16 -46 76 -46q49 0 76.5 29t27.5 80v42q-36 -33 -67.5 -46t-75.5 -13q-97 0 -159.5 64t-62.5 165q0 106 66 176t164 70q82 0 135 -60v47h160zM307 331q-42 0 -72.5 -30 t-30.5 -72q0 -43 30 -73.5t73 -30.5t73 30t30 73t-30 73t-73 30zM134 694h102q6 -41 20.5 -57t45.5 -16q39 0 55 14.5t24 58.5h103q-4 -61 -26 -95q-46 -72 -149 -72t-150 72q-22 37 -25 95z" />
<glyph unicode="&#x120;" horiz-adv-x="778" d="M394 370h344q-3 -134 -35 -205q-41 -91 -120.5 -140t-186.5 -49q-158 0 -257 98.5t-99 255.5q0 160 100.5 259t261.5 99q106 0 179.5 -46t120.5 -142l-165 -68q-44 106 -143 106q-74 0 -123.5 -59.5t-49.5 -149.5q0 -99 60 -162q43 -48 118 -48t113 49q18 24 24 67h-142 v135zM388 903q36 0 61.5 -25t25.5 -61t-25.5 -61.5t-60.5 -25.5q-37 0 -62 25.5t-25 62.5q0 35 25.5 60t60.5 25z" />
<glyph unicode="&#x121;" horiz-adv-x="617" d="M562 453v-422q0 -72 -13 -112t-48 -75q-73 -73 -202 -73q-134 0 -208 80q-39 40 -49 94h180q16 -46 76 -46q49 0 76.5 29t27.5 80v42q-36 -33 -67.5 -46t-75.5 -13q-97 0 -159.5 64t-62.5 165q0 106 66 176t164 70q82 0 135 -60v47h160zM307 331q-42 0 -72.5 -30 t-30.5 -72q0 -43 30 -73.5t73 -30.5t73 30t30 73t-30 73t-73 30zM309 705q38 0 64.5 -26.5t26.5 -64.5t-27 -64.5t-64 -26.5q-38 0 -64.5 27t-26.5 65q0 37 27 63.5t64 26.5z" />
<glyph unicode="&#x122;" horiz-adv-x="778" d="M394 370h344q-3 -134 -35 -205q-41 -91 -120.5 -140t-186.5 -49q-158 0 -257 98.5t-99 255.5q0 160 100.5 259t261.5 99q106 0 179.5 -46t120.5 -142l-165 -68q-44 106 -143 106q-74 0 -123.5 -59.5t-49.5 -149.5q0 -99 60 -162q43 -48 118 -48t113 49q18 24 24 67h-142 v135zM336 -60h135l-91 -167h-110z" />
<glyph unicode="&#x123;" horiz-adv-x="617" d="M562 453v-422q0 -72 -13 -112t-48 -75q-73 -73 -202 -73q-134 0 -208 80q-39 40 -49 94h180q16 -46 76 -46q49 0 76.5 29t27.5 80v42q-36 -33 -67.5 -46t-75.5 -13q-97 0 -159.5 64t-62.5 165q0 106 66 176t164 70q82 0 135 -60v47h160zM307 331q-42 0 -72.5 -30 t-30.5 -72q0 -43 30 -73.5t73 -30.5t73 30t30 73t-30 73t-73 30zM350 530h-122l91 167h97z" />
<glyph unicode="&#x124;" horiz-adv-x="737" d="M243 409h251v258h173v-667h-173v274h-251v-274h-173v667h173v-258zM165 796l204 120l203 -120l-48 -76l-155 78l-156 -78z" />
<glyph unicode="&#x125;" horiz-adv-x="587" d="M55 733h160v-337q32 37 64 52t81 15q84 0 131 -50q24 -24 33 -51t9 -74v-288h-160v229q0 53 -10 72q-17 35 -64 35q-40 0 -67 -30q-17 -23 -17 -63v-243h-160v733zM-1 836l204 120l203 -120l-48 -76l-155 78l-156 -78z" />
<glyph unicode="&#x126;" horiz-adv-x="737" d="M494 667h173v-86h60v-101h-60v-480h-173v274h-251v-274h-173v480h-60v101h60v86h173v-86h251v86zM494 480h-251v-71h251v71z" />
<glyph unicode="&#x127;" horiz-adv-x="587" d="M341 653v-107h-127v-150q32 37 64.5 52t80.5 15q84 0 131 -50q24 -24 33 -51t9 -74v-288h-160v229q0 53 -10 72q-17 35 -64 35q-40 0 -67 -30q-17 -23 -17 -63v-243h-160v546h-53v107h53v80h160v-80h127z" />
<glyph unicode="&#x128;" horiz-adv-x="313" d="M243 667v-667h-173v667h173zM45 737h-84q0 46 14 77q13 30 39.5 47.5t58.5 17.5q29 0 92 -21q43 -14 62 -14q29 0 39 36h86q-7 -59 -18 -81q-30 -62 -105 -62q-36 0 -83 17q-50 19 -68 19q-14 0 -21 -7t-12 -29z" />
<glyph unicode="&#x129;" horiz-adv-x="269" d="M215 453v-453h-160v453h160zM135 717q37 0 63.5 -26.5t26.5 -63.5t-26.5 -63.5t-63.5 -26.5q-38 0 -64 26.5t-26 64.5q0 37 26.5 63t63.5 26zM33 525h-76q0 64 26.5 101.5t70.5 37.5q24 0 89 -24q37 -15 58 -15q14 0 20.5 7.5t12.5 31.5h79q-8 -74 -31.5 -106.5 t-69.5 -32.5q-37 0 -88 20q-45 17 -60 17q-14 0 -20 -7.5t-11 -29.5z" />
<glyph unicode="&#x12a;" horiz-adv-x="313" d="M243 667v-667h-173v667h173zM-15 855h343v-98h-343v98z" />
<glyph unicode="&#x12b;" horiz-adv-x="269" d="M214 453v-453h-160v453h160zM-14 638h297v-98h-297v98z" />
<glyph unicode="&#x12c;" horiz-adv-x="313" d="M243 667v-667h-173v667h173zM-34 884h112q13 -59 79 -59q65 0 78 59h113q-5 -72 -55.5 -113t-135.5 -41q-86 0 -136.5 41t-54.5 113z" />
<glyph unicode="&#x12d;" horiz-adv-x="269" d="M214 453v-453h-160v453h160zM-27 694h102q5 -41 18 -56.5t41 -15.5t41 16t19 56h102q-5 -65 -24 -98q-40 -69 -136 -69q-93 0 -138 72q-22 38 -25 95z" />
<glyph unicode="&#x12e;" horiz-adv-x="313" d="M70 0v667h173v-667q-73 -30 -73 -78q0 -16 11 -27t28 -11q23 0 54 15l-23 -90q-32 -14 -72 -14q-46 0 -75 24.5t-29 62.5q0 68 85 118h-79z" />
<glyph unicode="&#x12f;" horiz-adv-x="269" d="M55 0v453h160v-453q-28 -7 -46.5 -27.5t-18.5 -44.5q0 -35 31 -35q20 0 51 18l-21 -86q-27 -17 -62 -17q-41 0 -66 22.5t-25 59.5q0 66 76 110h-79zM135 717q37 0 63.5 -26.5t26.5 -63.5t-26.5 -63.5t-63.5 -26.5q-38 0 -64 26.5t-26 64.5q0 37 26.5 63t63.5 26z" />
<glyph unicode="&#x130;" horiz-adv-x="313" d="M243 667v-667h-173v667h173zM156 903q36 0 61.5 -25t25.5 -61t-25.5 -61.5t-60.5 -25.5q-37 0 -62 25.5t-25 62.5q0 35 25.5 60t60.5 25z" />
<glyph unicode="&#x131;" horiz-adv-x="269" d="M215 453v-453h-160v453h160z" />
<glyph unicode="&#x132;" horiz-adv-x="775" d="M243 667v-667h-173v667h173zM705 667v-461q0 -56 -11 -89t-40 -65q-65 -70 -166 -70q-109 0 -174 99l113 115q4 -29 19 -47t37 -18q38 0 46 42q3 18 3 73v421h173z" />
<glyph unicode="&#x133;" horiz-adv-x="539" d="M215 453v-453h-160v453h160zM135 717q37 0 63.5 -26.5t26.5 -63.5t-26.5 -63.5t-63.5 -26.5q-38 0 -64 26.5t-26 64.5q0 37 26.5 63t63.5 26zM484 453v-680h-160v680h160zM404 717q38 0 64 -26.5t26 -63.5t-26 -63.5t-64 -26.5t-64 26.5t-26 64.5q0 37 26.5 63t63.5 26z " />
<glyph unicode="&#x134;" horiz-adv-x="468" d="M398 667v-461q0 -56 -11 -89t-40 -65q-65 -70 -166 -70q-109 0 -174 99l113 115q4 -29 19 -47t37 -18q38 0 46 42q3 18 3 73v421h173zM101 796l204 120l203 -120l-48 -76l-155 78l-156 -78z" />
<glyph unicode="&#x135;" horiz-adv-x="269" d="M215 453v-680h-160v680h160zM-62 597l195 147l199 -147l-71 -77l-128 98l-127 -98z" />
<glyph unicode="&#x136;" horiz-adv-x="700" d="M243 392l211 275h214l-264 -316l289 -351h-225l-225 289v-289h-173v667h173v-275zM297 -60h135l-91 -167h-110z" />
<glyph unicode="&#x137;" horiz-adv-x="617" d="M215 733v-443l168 163h219l-227 -209l241 -244h-225l-176 184v-184h-160v733h160zM256 -56h122l-91 -167h-97z" />
<glyph unicode="&#x138;" horiz-adv-x="617" d="M215 453v-163l168 163h219l-227 -209l241 -244h-225l-176 184v-184h-160v453h160z" />
<glyph unicode="&#x139;" horiz-adv-x="470" d="M243 667v-520h208v-147h-381v667h173zM327 836l-170 -116l-67 63l145 137z" />
<glyph unicode="&#x13a;" horiz-adv-x="269" d="M215 720v-720h-160v720h160zM307 869l-170 -116l-67 63l144 138z" />
<glyph unicode="&#x13b;" horiz-adv-x="470" d="M243 667v-520h208v-147h-381v667h173zM202 -60h135l-91 -167h-110z" />
<glyph unicode="&#x13c;" horiz-adv-x="269" d="M214 733v-733h-160v733h160zM78 -56h122l-91 -167h-97z" />
<glyph unicode="&#x13d;" horiz-adv-x="470" d="M243 667v-520h208v-147h-381v667h173zM349 667h135l-91 -173h-110z" />
<glyph unicode="&#x13e;" horiz-adv-x="443" d="M215 733v-733h-160v733h160zM321 733h122l-91 -170h-97z" />
<glyph unicode="&#x13f;" horiz-adv-x="470" d="M256 667v-520h208v-147h-381v667h173zM397 437q43 0 73.5 -30t30.5 -73t-30 -73.5t-73 -30.5q-44 0 -74 30.5t-30 74.5q0 42 30.5 72t72.5 30z" />
<glyph unicode="&#x140;" horiz-adv-x="476" d="M215 733v-733h-160v733h160zM373 437q43 0 73.5 -30t30.5 -73t-30 -73.5t-73 -30.5q-44 0 -74 30.5t-30 74.5q0 42 30.5 72t72.5 30z" />
<glyph unicode="&#x141;" horiz-adv-x="480" d="M251 667v-226l116 79v-128l-116 -79v-166h210v-147h-383v230l-68 -51v128l68 51v309h173z" />
<glyph unicode="&#x142;" horiz-adv-x="333" d="M247 733v-285l76 53v-129l-76 -50v-322h-160v245l-77 -53v128l77 50v363h160z" />
<glyph unicode="&#x143;" horiz-adv-x="805" d="M70 0v667h173l319 -408v408h173v-667h-173l-319 408v-408h-173zM568 836l-170 -116l-67 63l145 137z" />
<glyph unicode="&#x144;" horiz-adv-x="587" d="M55 453h160v-57q32 37 64 52t81 15q84 0 131 -50q24 -24 33 -51t9 -74v-288h-160v229q0 53 -10 72q-17 35 -64 35q-40 0 -67 -30q-17 -23 -17 -63v-243h-160v453zM441 656l-154 -136l-74 55l126 154z" />
<glyph unicode="&#x145;" horiz-adv-x="805" d="M70 0v667h173l319 -408v408h173v-667h-173l-319 408v-408h-173zM350 -60h135l-91 -167h-110z" />
<glyph unicode="&#x146;" horiz-adv-x="587" d="M55 453h160v-57q32 37 64 52t81 15q84 0 131 -50q24 -24 33 -51t9 -74v-288h-160v229q0 53 -10 72q-17 35 -64 35q-40 0 -67 -30q-17 -23 -17 -63v-243h-160v453zM241 -56h122l-91 -167h-97z" />
<glyph unicode="&#x147;" horiz-adv-x="805" d="M70 0v667h173l319 -408v408h173v-667h-173l-319 408v-408h-173zM606 840l-203 -120l-204 120l48 76l156 -78l155 78z" />
<glyph unicode="&#x148;" horiz-adv-x="587" d="M55 453h160v-57q32 37 64 52t81 15q84 0 131 -50q24 -24 33 -51t9 -74v-288h-160v229q0 53 -10 72q-17 35 -64 35q-40 0 -67 -30q-17 -23 -17 -63v-243h-160v453zM97 667l68 77l127 -98l128 98l71 -77l-199 -147z" />
<glyph unicode="&#x149;" horiz-adv-x="779" d="M148 667h150l-162 -294h-103zM246 453h160v-57q32 37 64 52t81 15q84 0 131 -50q24 -24 33 -51t9 -74v-288h-160v229q0 53 -10 72q-17 35 -64 35q-40 0 -67 -30q-17 -23 -17 -63v-243h-160v453z" />
<glyph unicode="&#x14a;" horiz-adv-x="737" d="M70 667h173v-84q43 58 86 81t107 23q110 0 175 -75q31 -36 43.5 -77t12.5 -111v-314q0 -62 -13.5 -100t-48.5 -71q-77 -72 -190 -72q-53 0 -105 24v152q47 -21 83 -21q58 0 86 34q15 22 15 101v205q0 51 -2.5 69t-12.5 36q-13 24 -41.5 38t-61.5 14q-66 0 -106 -45 q-27 -30 -27 -92v-382h-173v667z" />
<glyph unicode="&#x14b;" horiz-adv-x="587" d="M55 453h160v-57q32 37 64 52t81 15q84 0 131 -50q24 -24 33 -51t9 -74v-200q0 -56 -11 -89.5t-40 -64.5q-62 -67 -151 -67q-37 0 -71 16v140q32 -16 56 -16q16 0 31 8.5t20 21.5q6 12 6 63v129q0 53 -10 72q-17 35 -64 35q-43 0 -67 -30q-17 -23 -17 -63v-243h-160v453z " />
<glyph unicode="&#x14c;" horiz-adv-x="818" d="M409 687q167 0 273 -112q96 -101 96 -243q0 -80 -32.5 -151t-92.5 -121q-101 -84 -247 -84q-158 0 -262 103t-104 259q0 75 33 145t92 120q98 84 244 84zM409 519q-77 0 -132.5 -54.5t-55.5 -130.5q0 -80 54.5 -135t133.5 -55q78 0 133 55t55 133q0 77 -55 132t-133 55z M224 855h370v-98h-370v98z" />
<glyph unicode="&#x14d;" horiz-adv-x="619" d="M309 470q120 0 196.5 -68t76.5 -175q0 -108 -76.5 -176t-198.5 -68q-119 0 -194.5 69t-75.5 179q0 105 82 176q73 63 190 63zM309 332q-42 0 -72.5 -30.5t-30.5 -72.5q0 -44 30.5 -74.5t73.5 -30.5t73 30.5t30 73.5q0 44 -30.5 74t-73.5 30zM135 638h350v-98h-350v98z " />
<glyph unicode="&#x14e;" horiz-adv-x="818" d="M409 687q167 0 273 -112q96 -101 96 -243q0 -80 -32.5 -151t-92.5 -121q-101 -84 -247 -84q-158 0 -262 103t-104 259q0 75 33 145t92 120q98 84 244 84zM409 519q-77 0 -132.5 -54.5t-55.5 -130.5q0 -80 54.5 -135t133.5 -55q78 0 133 55t55 133q0 77 -55 132t-133 55z M218 884h112q13 -59 79 -59q65 0 78 59h113q-5 -72 -55.5 -113t-135.5 -41q-86 0 -136.5 41t-54.5 113z" />
<glyph unicode="&#x14f;" horiz-adv-x="619" d="M309 470q120 0 196.5 -68t76.5 -175q0 -108 -76.5 -176t-198.5 -68q-119 0 -194.5 69t-75.5 179q0 105 82 176q73 63 190 63zM309 332q-42 0 -72.5 -30.5t-30.5 -72.5q0 -44 30.5 -74.5t73.5 -30.5t73 30.5t30 73.5q0 44 -30.5 74t-73.5 30zM382 694h103q-4 -61 -26 -95 q-46 -72 -149 -72q-104 0 -150 72q-22 37 -25 95h102q10 -72 73 -72q33 0 50.5 17t21.5 55z" />
<glyph unicode="&#x150;" horiz-adv-x="818" d="M409 687q167 0 273 -112q96 -101 96 -243q0 -80 -32.5 -151t-92.5 -121q-101 -84 -247 -84q-158 0 -262 103t-104 259q0 75 33 145t92 120q98 84 244 84zM409 519q-77 0 -132.5 -54.5t-55.5 -130.5q0 -80 54.5 -135t133.5 -55q78 0 133 55t55 133q0 77 -55 132t-133 55z M447 836l-140 -116l-61 63l122 137zM672 836l-141 -116l-60 63l122 137z" />
<glyph unicode="&#x151;" horiz-adv-x="619" d="M309 470q120 0 196.5 -68t76.5 -175q0 -108 -76.5 -176t-198.5 -68q-119 0 -194.5 69t-75.5 179q0 105 82 176q73 63 190 63zM309 332q-42 0 -72.5 -30.5t-30.5 -72.5q0 -44 30.5 -74.5t73.5 -30.5t73 30.5t30 73.5q0 44 -30.5 74t-73.5 30zM362 656l-137 -136l-61 55 l114 154zM542 656l-137 -136l-61 55l114 154z" />
<glyph unicode="&#x152;" horiz-adv-x="1014" d="M974 520h-201v-111h188v-147h-188v-115h201v-147h-375v70q-92 -91 -209 -91q-142 0 -246 105.5t-104 249.5q0 146 104 250.5t249 104.5q63 0 111.5 -21t94.5 -67v66h375v-147zM407 521q-76 0 -131 -54.5t-55 -129.5q0 -79 54 -134t132 -55q77 0 131.5 54.5t54.5 131.5 t-54.5 132t-131.5 55z" />
<glyph unicode="&#x153;" horiz-adv-x="936" d="M900 199h-341q6 -54 30 -78t71 -24q52 0 76 43h155q-15 -74 -77.5 -115.5t-157.5 -41.5q-61 0 -102 18.5t-72 60.5q-46 -47 -84 -63t-101 -16q-126 0 -195 72q-65 70 -65 169q0 110 72 178t190 68q58 0 99 -16t84 -56q58 68 174 68q155 0 215 -116q28 -54 29 -151z M564 291h187q-23 73 -93 73q-74 0 -94 -73zM302 328q-41 0 -69.5 -29.5t-28.5 -71.5q0 -44 28.5 -75t68.5 -31q41 0 70 30.5t29 73.5t-28.5 73t-69.5 30z" />
<glyph unicode="&#x154;" horiz-adv-x="627" d="M414 273l210 -273h-216l-165 256v-256h-173v667h269q108 0 164 -59q57 -60 57 -147q0 -95 -61 -148q-32 -28 -85 -40zM243 368h32q50 0 74 18q33 24 33 65t-33 65q-24 18 -74 18h-32v-166zM438 836l-170 -116l-67 63l145 137z" />
<glyph unicode="&#x155;" horiz-adv-x="411" d="M55 453h160v-74q28 43 62.5 61.5t86.5 18.5q16 0 31 -1v-153q-32 16 -68 16q-112 0 -112 -127v-194h-160v453zM360 656l-154 -136l-74 55l126 154z" />
<glyph unicode="&#x156;" horiz-adv-x="627" d="M414 273l210 -273h-216l-165 256v-256h-173v667h269q108 0 164 -59q57 -60 57 -147q0 -95 -61 -148q-32 -28 -85 -40zM243 368h32q50 0 74 18q33 24 33 65t-33 65q-24 18 -74 18h-32v-166zM267 -60h135l-91 -167h-110z" />
<glyph unicode="&#x157;" horiz-adv-x="411" d="M55 453h160v-74q28 43 62.5 61.5t86.5 18.5q16 0 31 -1v-153q-32 16 -68 16q-112 0 -112 -127v-194h-160v453zM93 -56h122l-91 -167h-97z" />
<glyph unicode="&#x158;" horiz-adv-x="627" d="M414 273l210 -273h-216l-165 256v-256h-173v667h269q108 0 164 -59q57 -60 57 -147q0 -95 -61 -148q-32 -28 -85 -40zM243 368h32q50 0 74 18q33 24 33 65t-33 65q-24 18 -74 18h-32v-166zM497 840l-203 -120l-204 120l48 76l156 -78l155 78z" />
<glyph unicode="&#x159;" horiz-adv-x="411" d="M55 453h160v-74q28 43 62.5 61.5t86.5 18.5q16 0 31 -1v-153q-32 16 -68 16q-112 0 -112 -127v-194h-160v453zM16 667l68 77l127 -98l128 98l71 -77l-199 -147z" />
<glyph unicode="&#x15a;" horiz-adv-x="571" d="M505 629l-69 -135q-57 45 -114 45q-32 0 -53 -16.5t-21 -41.5q0 -20 16 -33q14 -12 30 -18.5t74 -23.5q87 -26 125.5 -69.5t38.5 -117.5q0 -114 -68 -173q-74 -63 -193 -63q-122 0 -231 75l74 140q78 -68 153 -68q38 0 61 18t23 47q0 27 -21.5 43t-82.5 34 q-97 29 -127 54q-53 44 -53 132q0 100 63 162.5t164 62.5q108 0 211 -54zM451 836l-170 -116l-67 63l145 137z" />
<glyph unicode="&#x15b;" horiz-adv-x="450" d="M410 440l-54 -104q-44 22 -87 22q-21 0 -35 -9t-14 -23q0 -15 13.5 -22t58.5 -17q132 -26 132 -134q0 -77 -59 -123.5t-157 -46.5q-93 0 -181 52l58 113q69 -46 128 -46q22 0 36 10t14 26t-13.5 24t-54.5 17q-72 15 -102.5 44t-30.5 82q0 76 54 120t148 44q77 0 146 -29z M393 656l-154 -136l-74 55l126 154z" />
<glyph unicode="&#x15c;" horiz-adv-x="571" d="M505 629l-69 -135q-57 45 -114 45q-32 0 -53 -16.5t-21 -41.5q0 -20 16 -33q14 -12 30 -18.5t74 -23.5q87 -26 125.5 -69.5t38.5 -117.5q0 -114 -68 -173q-74 -63 -193 -63q-122 0 -231 75l74 140q78 -68 153 -68q38 0 61 18t23 47q0 27 -21.5 43t-82.5 34 q-97 29 -127 54q-53 44 -53 132q0 100 63 162.5t164 62.5q108 0 211 -54zM96 796l204 120l203 -120l-48 -76l-155 78l-156 -78z" />
<glyph unicode="&#x15d;" horiz-adv-x="450" d="M410 440l-54 -104q-44 22 -87 22q-21 0 -35 -9t-14 -23q0 -15 13.5 -22t58.5 -17q132 -26 132 -134q0 -77 -59 -123.5t-157 -46.5q-93 0 -181 52l58 113q69 -46 128 -46q22 0 36 10t14 26t-13.5 24t-54.5 17q-72 15 -102.5 44t-30.5 82q0 76 54 120t148 44q77 0 146 -29z M48 597l195 147l199 -147l-71 -77l-128 98l-127 -98z" />
<glyph unicode="&#x15e;" horiz-adv-x="571" d="M505 629l-69 -135q-57 45 -114 45q-32 0 -53 -16.5t-21 -41.5q0 -20 16 -33q14 -12 30 -18.5t74 -23.5q87 -26 125.5 -69.5t38.5 -117.5q0 -114 -68 -173q-74 -63 -193 -63q-122 0 -231 75l74 140q78 -68 153 -68q38 0 61 18t23 47q0 27 -21.5 43t-82.5 34 q-97 29 -127 54q-53 44 -53 132q0 100 63 162.5t164 62.5q108 0 211 -54zM347 -115l-138 -135l-78 54l117 150z" />
<glyph unicode="&#x15f;" horiz-adv-x="450" d="M410 440l-54 -104q-44 22 -87 22q-21 0 -35 -9t-14 -23q0 -15 13.5 -22t58.5 -17q132 -26 132 -134q0 -77 -59 -123.5t-157 -46.5q-93 0 -181 52l58 113q69 -46 128 -46q22 0 36 10t14 26t-13.5 24t-54.5 17q-72 15 -102.5 44t-30.5 82q0 76 54 120t148 44q77 0 146 -29z M297 -110l-137 -129l-72 45l117 143z" />
<glyph unicode="&#x160;" horiz-adv-x="571" d="M505 629l-69 -135q-57 45 -114 45q-32 0 -53 -16.5t-21 -41.5q0 -20 16 -33q14 -12 30 -18.5t74 -23.5q87 -26 125.5 -69.5t38.5 -117.5q0 -114 -68 -173q-74 -63 -193 -63q-122 0 -231 75l74 140q78 -68 153 -68q38 0 61 18t23 47q0 27 -21.5 43t-82.5 34 q-97 29 -127 54q-53 44 -53 132q0 100 63 162.5t164 62.5q108 0 211 -54zM496 840l-203 -120l-204 120l48 76l156 -78l155 78z" />
<glyph unicode="&#x161;" horiz-adv-x="450" d="M410 440l-54 -104q-44 22 -87 22q-21 0 -35 -9t-14 -23q0 -15 13.5 -22t58.5 -17q132 -26 132 -134q0 -77 -59 -123.5t-157 -46.5q-93 0 -181 52l58 113q69 -46 128 -46q22 0 36 10t14 26t-13.5 24t-54.5 17q-72 15 -102.5 44t-30.5 82q0 76 54 120t148 44q77 0 146 -29z M48 667l68 77l127 -98l128 98l71 -77l-199 -147z" />
<glyph unicode="&#x162;" horiz-adv-x="471" d="M321 520v-520h-173v520h-141v147h458v-147h-144zM176 -60h135l-91 -167h-110z" />
<glyph unicode="&#x163;" horiz-adv-x="330" d="M234 320v-320h-160v320h-53v133h53v136h160v-136h91v-133h-91zM99 -56h122l-91 -167h-97z" />
<glyph unicode="&#x164;" horiz-adv-x="471" d="M321 520v-520h-173v520h-141v147h458v-147h-144zM440 840l-203 -120l-204 120l48 76l156 -78l155 78z" />
<glyph unicode="&#x165;" horiz-adv-x="463" d="M234 320v-320h-160v320h-53v133h53v136h160v-136h91v-133h-91zM342 672h122l-91 -170h-97z" />
<glyph unicode="&#x166;" horiz-adv-x="471" d="M436 421v-113h-115v-308h-173v308h-112v113h112v99h-141v147h458v-147h-144v-99h115z" />
<glyph unicode="&#x167;" horiz-adv-x="330" d="M318 262v-91h-84v-171h-160v171h-53v91h53v58h-53v133h53v136h160v-136h91v-133h-91v-58h84z" />
<glyph unicode="&#x168;" horiz-adv-x="721" d="M243 667v-361q0 -58 3 -78t16 -41q30 -51 97 -51q33 0 60 14.5t41 39.5q11 19 14.5 41t3.5 75v361h173v-385q0 -73 -14.5 -118.5t-50.5 -86.5q-83 -94 -230 -94q-76 0 -139.5 26.5t-98.5 73.5q-48 63 -48 199v385h173zM249 737h-84q0 46 14 77q13 30 39.5 47.5t58.5 17.5 q29 0 92 -21q43 -14 62 -14q29 0 39 36h86q-7 -59 -18 -81q-30 -62 -105 -62q-36 0 -83 17q-50 19 -68 19q-14 0 -21 -7t-12 -29z" />
<glyph unicode="&#x169;" horiz-adv-x="592" d="M215 453v-257q0 -83 82 -83q81 0 81 83v257h160v-288q0 -90 -61.5 -137t-179.5 -47t-180 47t-62 137v288h160zM198 525h-76q0 64 26.5 101.5t70.5 37.5q24 0 89 -24q37 -15 58 -15q14 0 20.5 7.5t12.5 31.5h79q-8 -74 -31.5 -106.5t-69.5 -32.5q-37 0 -88 20 q-45 17 -60 17q-14 0 -20 -7.5t-11 -29.5z" />
<glyph unicode="&#x16a;" horiz-adv-x="721" d="M243 667v-361q0 -58 3 -78t16 -41q30 -51 97 -51q33 0 60 14.5t41 39.5q11 19 14.5 41t3.5 75v361h173v-385q0 -73 -14.5 -118.5t-50.5 -86.5q-83 -94 -230 -94q-76 0 -139.5 26.5t-98.5 73.5q-48 63 -48 199v385h173zM176 855h370v-98h-370v98z" />
<glyph unicode="&#x16b;" horiz-adv-x="592" d="M215 453v-257q0 -83 82 -83q81 0 81 83v257h160v-288q0 -90 -61.5 -137t-179.5 -47t-180 47t-62 137v288h160zM121 638h350v-98h-350v98z" />
<glyph unicode="&#x16c;" horiz-adv-x="721" d="M243 667v-361q0 -58 3 -78t16 -41q30 -51 97 -51q33 0 60 14.5t41 39.5q11 19 14.5 41t3.5 75v361h173v-385q0 -73 -14.5 -118.5t-50.5 -86.5q-83 -94 -230 -94q-76 0 -139.5 26.5t-98.5 73.5q-48 63 -48 199v385h173zM170 884h112q13 -59 79 -59q65 0 78 59h113 q-5 -72 -55.5 -113t-135.5 -41q-86 0 -136.5 41t-54.5 113z" />
<glyph unicode="&#x16d;" horiz-adv-x="592" d="M215 453v-257q0 -83 82 -83q81 0 81 83v257h160v-288q0 -90 -61.5 -137t-179.5 -47t-180 47t-62 137v288h160zM122 694h102q6 -41 20 -57t45 -16q39 0 55.5 15t24.5 58h102q-3 -58 -25 -95q-46 -72 -150 -72q-102 0 -149 72q-22 37 -25 95z" />
<glyph unicode="&#x16e;" horiz-adv-x="721" d="M243 667v-361q0 -58 3 -78t16 -41q30 -51 97 -51q33 0 60 14.5t41 39.5q11 19 14.5 41t3.5 75v361h173v-385q0 -73 -14.5 -118.5t-50.5 -86.5q-83 -94 -230 -94q-76 0 -139.5 26.5t-98.5 73.5q-48 63 -48 199v385h173zM357 924h7q62 0 98 -28t36 -76t-36 -76t-98 -28h-7 q-62 0 -98 28t-36 77q0 47 36.5 75t97.5 28zM360 859q-23 0 -37 -10.5t-14 -27.5q0 -18 13.5 -28.5t37.5 -10.5q52 0 52 39q0 38 -52 38z" />
<glyph unicode="&#x16f;" horiz-adv-x="592" d="M215 453v-257q0 -83 82 -83q81 0 81 83v257h160v-288q0 -90 -61.5 -137t-179.5 -47t-180 47t-62 137v288h160zM293 730h7q61 0 97.5 -28t36.5 -75q0 -48 -36 -76t-98 -28h-7q-62 0 -98 28t-36 77q0 46 36.5 74t97.5 28zM295 667q-23 0 -37.5 -11t-14.5 -28q0 -41 53 -41 q54 0 54 40t-55 40z" />
<glyph unicode="&#x170;" horiz-adv-x="721" d="M243 667v-361q0 -58 3 -78t16 -41q30 -51 97 -51q33 0 60 14.5t41 39.5q11 19 14.5 41t3.5 75v361h173v-385q0 -73 -14.5 -118.5t-50.5 -86.5q-83 -94 -230 -94q-76 0 -139.5 26.5t-98.5 73.5q-48 63 -48 199v385h173zM399 836l-140 -116l-61 63l122 137zM624 836 l-141 -116l-60 63l122 137z" />
<glyph unicode="&#x171;" horiz-adv-x="592" d="M215 453v-257q0 -83 82 -83q81 0 81 83v257h160v-288q0 -90 -61.5 -137t-179.5 -47t-180 47t-62 137v288h160zM349 656l-137 -136l-61 55l114 154zM529 656l-137 -136l-61 55l114 154z" />
<glyph unicode="&#x172;" horiz-adv-x="721" d="M70 667h173v-361q0 -58 3 -78t16 -41q30 -51 97 -51q33 0 60 14.5t41 39.5q11 19 14.5 41t3.5 75v361h173v-385q0 -104 -29 -160t-110 -108q-29 -18 -40 -34.5t-11 -40.5q0 -19 11 -30.5t28 -11.5q24 0 53 16l-23 -90q-30 -15 -71 -15q-45 0 -74.5 24t-29.5 61 q0 46 46 91l-24 -1h-25q-74 0 -136.5 27t-97.5 73q-48 63 -48 199v385z" />
<glyph unicode="&#x173;" horiz-adv-x="592" d="M55 453h160v-257q0 -83 82 -83q81 0 81 83v257h160v-288q0 -56 -20 -90.5t-73 -67.5q-52 -32 -52 -71q0 -16 11 -26.5t28 -10.5t50 19l-21 -87q-30 -18 -71 -18q-37 0 -63 23.5t-26 55.5q0 55 47 91q-35 -2 -58 -2q-113 0 -174 47.5t-61 136.5v288z" />
<glyph unicode="&#x174;" horiz-adv-x="1014" d="M181 667l116 -431l141 431h138l131 -431l126 431h181l-213 -667h-177l-121 386l-128 -386h-176l-199 667h181zM303 796l204 120l203 -120l-48 -76l-155 78l-156 -78z" />
<glyph unicode="&#x175;" horiz-adv-x="907" d="M179 453l108 -239l114 239h100l114 -246l114 246h178l-237 -453h-108l-113 248l-108 -248h-108l-233 453h179zM257 597l195 147l199 -147l-71 -77l-128 98l-127 -98z" />
<glyph unicode="&#x176;" horiz-adv-x="640" d="M229 320l-241 347h207l126 -182l121 182h210l-250 -347v-320h-173v320zM117 796l204 120l203 -120l-48 -76l-155 78l-156 -78z" />
<glyph unicode="&#x177;" horiz-adv-x="608" d="M219 61l-219 392h186l121 -232l118 232h183l-364 -680h-179zM107 597l195 147l199 -147l-71 -77l-128 98l-127 -98z" />
<glyph unicode="&#x178;" horiz-adv-x="640" d="M229 320l-241 347h207l126 -182l121 182h210l-250 -347v-320h-173v320zM200 903q36 0 61.5 -25t25.5 -61t-25.5 -61.5t-60.5 -25.5q-37 0 -62 25.5t-25 62.5q0 35 25.5 60t60.5 25zM440 903q36 0 61.5 -25t25.5 -61t-25.5 -61.5t-60.5 -25.5q-37 0 -62 25.5t-25 62.5 q0 35 25.5 60t60.5 25z" />
<glyph unicode="&#x179;" horiz-adv-x="631" d="M304 147h280v-147h-571l315 520h-262v147h552zM487 836l-170 -116l-67 63l145 137z" />
<glyph unicode="&#x17a;" horiz-adv-x="521" d="M288 133h191v-133h-459l214 320h-185v133h451zM415 656l-154 -136l-74 55l126 154z" />
<glyph unicode="&#x17b;" horiz-adv-x="631" d="M304 147h280v-147h-571l315 520h-262v147h552zM335 903q36 0 61.5 -25t25.5 -61t-25.5 -61.5t-60.5 -25.5q-37 0 -62 25.5t-25 62.5q0 35 25.5 60t60.5 25z" />
<glyph unicode="&#x17c;" horiz-adv-x="521" d="M288 133h191v-133h-459l214 320h-185v133h451zM267 705q38 0 64.5 -26.5t26.5 -64.5t-27 -64.5t-64 -26.5q-38 0 -64.5 27t-26.5 65q0 37 27 63.5t64 26.5z" />
<glyph unicode="&#x17d;" horiz-adv-x="631" d="M304 147h280v-147h-571l315 520h-262v147h552zM552 840l-217 -120l-217 120l48 76l169 -78l169 78z" />
<glyph unicode="&#x17e;" horiz-adv-x="521" d="M288 133h191v-133h-459l214 320h-185v133h451zM70 667l68 77l127 -98l128 98l71 -77l-199 -147z" />
<glyph unicode="&#x17f;" horiz-adv-x="346" d="M228 0h-160v320h-57v133h57v69q0 55 11 89t40 65q62 67 151 67q34 0 71 -17v-139q-35 16 -56 16q-16 0 -31 -8.5t-20 -21.5q-6 -13 -6 -63v-510z" />
<glyph unicode="&#x18f;" horiz-adv-x="799" d="M42 368h536q-2 61 -52.5 101t-124.5 40q-110 0 -170 -93l-152 76q56 95 133 140t184 45q160 0 262 -96.5t102 -246.5q0 -146 -103.5 -245t-256.5 -99q-101 0 -180.5 45t-123.5 128q-24 46 -35.5 90t-18.5 115zM567 245h-335q14 -35 26 -53q21 -28 61 -45.5t82 -17.5 t80 17t59 45q13 17 27 54z" />
<glyph unicode="&#x192;" horiz-adv-x="600" d="M413 443h98l-12 -67h-97l-47 -257q-21 -118 -64 -184q-35 -52 -83.5 -75t-124.5 -23q-41 0 -91 9l26 146q39 -9 65 -9q53 0 75 33.5t42 142.5l39 217h-76l10 67h78l20 106q16 87 64 133q53 49 134 49q64 0 113 -31l-26 -138q-38 26 -70 26q-25 0 -39 -19t-23 -66z" />
<glyph unicode="&#x1a0;" horiz-adv-x="818" d="M750 545h-44q39 -54 55.5 -102.5t16.5 -109.5q0 -154 -105.5 -255.5t-263.5 -101.5t-263.5 101.5t-105.5 253.5t105.5 254t263.5 102q79 0 139.5 -22.5t118.5 -74.5l3 -3l50 128h122zM409 519q-77 0 -132.5 -54.5t-55.5 -130.5q0 -80 54.5 -135t133.5 -55q78 0 133 55 t55 133q0 77 -55 132t-133 55z" />
<glyph unicode="&#x1a1;" horiz-adv-x="619" d="M592 341h-38q28 -52 28 -114q0 -107 -76.5 -175.5t-195.5 -68.5q-120 0 -196.5 68.5t-76.5 175.5q0 106 76 174.5t195 68.5q132 0 207 -77l46 118h122zM309 333q-42 0 -72.5 -30.5t-30.5 -72.5q0 -44 30.5 -75t73.5 -31t73 30.5t30 74.5q0 43 -30.5 73.5t-73.5 30.5z" />
<glyph unicode="&#x1af;" horiz-adv-x="721" d="M243 667v-361q0 -58 3 -78t16 -41q30 -51 97 -51q33 0 60 14.5t41 39.5q11 19 14.5 41t3.5 75v361h173v-385q0 -73 -14.5 -118.5t-50.5 -86.5q-83 -94 -230 -94q-76 0 -139.5 26.5t-98.5 73.5q-48 63 -48 199v385h173zM744 715h136l-92 -173h-110z" />
<glyph unicode="&#x1b0;" horiz-adv-x="592" d="M215 453v-257q0 -83 82 -83q81 0 81 83v257h160v-288q0 -90 -61.5 -137t-179.5 -47t-180 47t-62 137v288h160zM631 507h122l-91 -170h-97z" />
<glyph unicode="&#x1cd;" horiz-adv-x="710" d="M475 116h-239l-46 -116h-183l256 667h189l251 -667h-185zM428 248l-71 213l-73 -213h144zM559 840l-203 -120l-204 120l48 76l156 -78l155 78z" />
<glyph unicode="&#x1ce;" horiz-adv-x="620" d="M406 453h160v-453h-160v50q-51 -65 -140 -65q-97 0 -163 70t-66 173q0 102 65.5 171t162.5 69q83 0 141 -59v44zM307 330q-42 0 -72.5 -30t-30.5 -72q0 -44 30 -74.5t74 -30.5q43 0 73 30.5t30 73.5t-30.5 73t-73.5 30zM120 667l68 77l127 -98l128 98l71 -77l-199 -147z " />
<glyph unicode="&#x1cf;" horiz-adv-x="313" d="M243 667v-667h-173v667h173zM360 840l-203 -120l-204 120l48 76l156 -78l155 78z" />
<glyph unicode="&#x1d0;" horiz-adv-x="269" d="M215 453v-453h-160v453h160zM-62 667l68 77l127 -98l128 98l71 -77l-199 -147z" />
<glyph unicode="&#x1d2;" horiz-adv-x="619" d="M309 470q120 0 196.5 -68t76.5 -175q0 -108 -76.5 -176t-198.5 -68q-119 0 -194.5 69t-75.5 179q0 105 82 176q73 63 190 63zM309 332q-42 0 -72.5 -30.5t-30.5 -72.5q0 -44 30.5 -74.5t73.5 -30.5t73 30.5t30 73.5q0 44 -30.5 74t-73.5 30zM113 667l68 77l127 -98 l128 98l71 -77l-199 -147z" />
<glyph unicode="&#x1d3;" horiz-adv-x="721" d="M243 667v-361q0 -58 3 -78t16 -41q30 -51 97 -51q33 0 60 14.5t41 39.5q11 19 14.5 41t3.5 75v361h173v-385q0 -73 -14.5 -118.5t-50.5 -86.5q-83 -94 -230 -94q-76 0 -139.5 26.5t-98.5 73.5q-48 63 -48 199v385h173zM564 840l-203 -120l-204 120l48 76l156 -78l155 78z " />
<glyph unicode="&#x1d4;" horiz-adv-x="592" d="M215 453v-257q0 -83 82 -83q81 0 81 83v257h160v-288q0 -90 -61.5 -137t-179.5 -47t-180 47t-62 137v288h160zM99 667l68 77l127 -98l128 98l71 -77l-199 -147z" />
<glyph unicode="&#x1dd;" horiz-adv-x="570" d="M33 255h337q-1 38 -10 59q-10 22 -30 35.5t-43 13.5q-56 0 -81 -55l-163 5q26 71 89.5 111.5t149.5 40.5q114 0 185 -65t71 -170q0 -107 -70.5 -175t-181.5 -68q-172 0 -234 153q-19 49 -19 115zM368 174h-169q6 -40 28.5 -63t57.5 -23t57 23t26 63z" />
<glyph unicode="&#x1e6;" horiz-adv-x="778" d="M394 370h344q-3 -134 -35 -205q-41 -91 -120.5 -140t-186.5 -49q-158 0 -257 98.5t-99 255.5q0 160 100.5 259t261.5 99q106 0 179.5 -46t120.5 -142l-165 -68q-44 106 -143 106q-74 0 -123.5 -59.5t-49.5 -149.5q0 -99 60 -162q43 -48 118 -48t113 49q18 24 24 67h-142 v135zM596 840l-203 -120l-204 120l48 76l156 -78l155 78z" />
<glyph unicode="&#x1e7;" horiz-adv-x="617" d="M562 453v-422q0 -72 -13 -112t-48 -75q-73 -73 -202 -73q-134 0 -208 80q-39 40 -49 94h180q16 -46 76 -46q49 0 76.5 29t27.5 80v42q-36 -33 -67.5 -46t-75.5 -13q-97 0 -159.5 64t-62.5 165q0 106 66 176t164 70q82 0 135 -60v47h160zM307 331q-42 0 -72.5 -30 t-30.5 -72q0 -43 30 -73.5t73 -30.5t73 30t30 73t-30 73t-73 30zM112 667l68 77l127 -98l128 98l71 -77l-199 -147z" />
<glyph unicode="&#x1f4;" horiz-adv-x="778" d="M394 370h344q-3 -134 -35 -205q-41 -91 -120.5 -140t-186.5 -49q-158 0 -257 98.5t-99 255.5q0 160 100.5 259t261.5 99q106 0 179.5 -46t120.5 -142l-165 -68q-44 106 -143 106q-74 0 -123.5 -59.5t-49.5 -149.5q0 -99 60 -162q43 -48 118 -48t113 49q18 24 24 67h-142 v135zM547 836l-170 -116l-67 63l145 137z" />
<glyph unicode="&#x1f5;" horiz-adv-x="617" d="M562 453v-422q0 -72 -13 -112t-48 -75q-73 -73 -202 -73q-134 0 -208 80q-39 40 -49 94h180q16 -46 76 -46q49 0 76.5 29t27.5 80v42q-36 -33 -67.5 -46t-75.5 -13q-97 0 -159.5 64t-62.5 165q0 106 66 176t164 70q82 0 135 -60v47h160zM307 331q-42 0 -72.5 -30 t-30.5 -72q0 -43 30 -73.5t73 -30.5t73 30t30 73t-30 73t-73 30zM445 656l-154 -136l-74 55l126 154z" />
<glyph unicode="&#x1fa;" horiz-adv-x="710" d="M475 116h-239l-46 -116h-183l256 667h189l251 -667h-185zM428 248l-71 213l-73 -213h144zM356 891h7q61 0 97.5 -28t36.5 -75q0 -48 -36 -76t-98 -28h-7q-62 0 -98 28t-36 77q0 46 36.5 74t97.5 28zM359 826q-23 0 -37 -10t-14 -27q0 -18 13.5 -28.5t37.5 -10.5 q52 0 52 38t-52 38zM380 960l-170 -116l-68 63l145 137z" />
<glyph unicode="&#x1fb;" horiz-adv-x="620" d="M406 453h160v-453h-160v50q-51 -65 -140 -65q-97 0 -163 70t-66 173q0 102 65.5 171t162.5 69q83 0 141 -59v44zM307 330q-42 0 -72.5 -30t-30.5 -72q0 -44 30 -74.5t74 -30.5q43 0 73 30.5t30 73.5t-30.5 73t-73.5 30zM314 730h6q61 0 97.5 -28t36.5 -75q0 -48 -36 -76 t-98 -28h-6q-62 0 -98 28t-36 77q0 47 36.5 74.5t97.5 27.5zM316 667q-23 0 -37.5 -11t-14.5 -28q0 -41 52 -41q54 0 54 40t-54 40zM387 861l-154 -136l-74 55l126 154z" />
<glyph unicode="&#x1fc;" horiz-adv-x="924" d="M472 117h-241l-41 -117h-183l257 667h408l54 -147h-219l41 -111h218l56 -147h-220l43 -115h219l53 -147h-402zM426 248l-72 199l-75 -199h147zM600 836l-170 -116l-67 63l145 137z" />
<glyph unicode="&#x1fd;" horiz-adv-x="868" d="M831 201h-339q2 -49 29 -76t74 -27q55 0 74 42h155q-21 -74 -82.5 -114.5t-151.5 -40.5q-137 0 -179 88q-72 -86 -186 -86q-85 0 -136.5 40t-51.5 106q0 76 64 119q43 31 125 31q56 0 116 -23q0 46 -18 64q-26 29 -91 29q-46 0 -125 -25v120q74 21 134 21q75 0 124 -31 q22 -14 45 -49q55 80 173 80q74 0 133 -31.5t87 -86.5q27 -55 27 -150zM496 294h186q-22 74 -93 74q-68 0 -93 -74zM263 193q-31 0 -50 -13t-19 -35q0 -23 20 -37t52 -14q34 0 57 14.5t23 36.5q0 20 -24 34t-59 14zM569 656l-154 -136l-74 55l126 154z" />
<glyph unicode="&#x1fe;" horiz-adv-x="818" d="M789 625l-80 -79q70 -104 70 -212q0 -153 -105.5 -255.5t-262.5 -102.5q-124 0 -231 73l-84 -79l-69 72l82 79q-69 101 -69 206q0 155 104.5 257t262.5 102q89 0 169 -32q28 -12 61 -39l84 82zM244 246l257 246q-40 26 -94 26q-75 0 -130.5 -55t-55.5 -129q0 -51 23 -88z M574 421l-263 -252q55 -25 96 -25q79 0 135 54t56 130q0 42 -24 93zM547 836l-170 -116l-67 63l145 137z" />
<glyph unicode="&#x1ff;" horiz-adv-x="619" d="M13 36l67 52q-43 64 -43 141q0 53 23.5 102t66.5 83q68 56 187 56q93 0 174 -51l75 58l47 -59l-68 -57q39 -58 39 -125q0 -117 -74 -185t-201 -68q-108 0 -172 52l-74 -57zM214 186l154 127q-25 19 -54 19q-46 0 -78 -30t-32 -73q0 -19 10 -43zM407 264l-152 -124 q24 -16 53 -16q44 0 75 30t31 72q0 14 -7 38zM458 656l-154 -136l-74 55l126 154z" />
<glyph unicode="&#x218;" horiz-adv-x="571" d="M505 629l-69 -135q-57 45 -114 45q-32 0 -53 -16.5t-21 -41.5q0 -20 16 -33q14 -12 30 -18.5t74 -23.5q87 -26 125.5 -69.5t38.5 -117.5q0 -114 -68 -173q-74 -63 -193 -63q-122 0 -231 75l74 140q78 -68 153 -68q38 0 61 18t23 47q0 27 -21.5 43t-82.5 34 q-97 29 -127 54q-53 44 -53 132q0 100 63 162.5t164 62.5q108 0 211 -54zM213 -60h135l-91 -167h-110z" />
<glyph unicode="&#x219;" horiz-adv-x="450" d="M410 440l-54 -104q-44 22 -87 22q-21 0 -35 -9t-14 -23q0 -15 13.5 -22t58.5 -17q132 -26 132 -134q0 -77 -59 -123.5t-157 -46.5q-93 0 -181 52l58 113q69 -46 128 -46q22 0 36 10t14 26t-13.5 24t-54.5 17q-72 15 -102.5 44t-30.5 82q0 76 54 120t148 44q77 0 146 -29z M166 -56h122l-91 -167h-97z" />
<glyph unicode="&#x21a;" horiz-adv-x="471" d="M321 520v-520h-173v520h-141v147h458v-147h-144zM176 -60h135l-91 -167h-110z" />
<glyph unicode="&#x21b;" horiz-adv-x="330" d="M234 320v-320h-160v320h-53v133h53v136h160v-136h91v-133h-91zM99 -56h122l-91 -167h-97z" />
<glyph unicode="&#x226;" horiz-adv-x="710" d="M475 116h-239l-46 -116h-183l256 667h189l251 -667h-185zM428 248l-71 213l-73 -213h144zM355 903q36 0 61.5 -25t25.5 -61t-25.5 -61.5t-60.5 -25.5q-37 0 -62 25.5t-25 62.5q0 35 25.5 60t60.5 25z" />
<glyph unicode="&#x227;" horiz-adv-x="620" d="M406 453h160v-453h-160v50q-51 -65 -140 -65q-97 0 -163 70t-66 173q0 102 65.5 171t162.5 69q83 0 141 -59v44zM307 330q-42 0 -72.5 -30t-30.5 -72q0 -44 30 -74.5t74 -30.5q43 0 73 30.5t30 73.5t-30.5 73t-73.5 30zM314 705q38 0 64.5 -26.5t26.5 -64.5t-26.5 -64.5 t-64.5 -26.5t-64.5 27t-26.5 65q0 37 27 63.5t64 26.5z" />
<glyph unicode="&#x259;" horiz-adv-x="570" d="M33 255h337q-1 38 -10 59q-10 22 -30 35.5t-43 13.5q-56 0 -81 -55l-163 5q26 71 89.5 111.5t149.5 40.5q114 0 185 -65t71 -170q0 -107 -70.5 -175t-181.5 -68q-172 0 -234 153q-19 49 -19 115zM368 174h-169q6 -40 28.5 -63t57.5 -23t57 23t26 63z" />
<glyph unicode="&#x2bb;" d="M278 530h-122l91 167h97z" />
<glyph unicode="&#x2bc;" horiz-adv-x="345" d="M148 667h150l-162 -294h-103z" />
<glyph unicode="&#x2c6;" d="M53 597l195 147l199 -147l-71 -77l-128 98l-127 -98z" />
<glyph unicode="&#x2c7;" d="M53 667l68 77l127 -98l128 98l71 -77l-199 -147z" />
<glyph unicode="&#x2c9;" d="M75 638h350v-98h-350v98z" />
<glyph unicode="&#x2d8;" d="M322 694h103q-4 -61 -26 -95q-47 -72 -149 -72q-104 0 -150 72q-22 37 -25 95h102q10 -72 73 -72q33 0 50.5 17t21.5 55z" />
<glyph unicode="&#x2d9;" d="M250 705q38 0 64.5 -26.5t26.5 -64.5t-26.5 -64.5t-64.5 -26.5t-64.5 27t-26.5 65q0 37 27 63.5t64 26.5z" />
<glyph unicode="&#x2da;" d="M247 730h7q61 0 97.5 -28t36.5 -75q0 -48 -36 -76t-98 -28h-7q-62 0 -98 28t-36 77q0 46 36.5 74t97.5 28zM249 667q-23 0 -37.5 -11t-14.5 -28q0 -41 53 -41q54 0 54 40t-55 40z" />
<glyph unicode="&#x2db;" d="M255 0h73q-57 -38 -57 -69q0 -16 11.5 -27t27.5 -11q20 0 50 18l-21 -86q-30 -18 -71 -18q-37 0 -63 23.5t-26 56.5q0 64 76 113z" />
<glyph unicode="&#x2dc;" d="M148 525h-76q0 64 26.5 101.5t70.5 37.5q24 0 89 -24q37 -15 58 -15q14 0 20.5 7.5t12.5 31.5h79q-8 -74 -31.5 -106.5t-69.5 -32.5q-37 0 -88 20q-45 17 -60 17q-14 0 -20 -7.5t-11 -29.5z" />
<glyph unicode="&#x2dd;" d="M302 656l-137 -136l-61 55l114 154zM482 656l-137 -136l-61 55l114 154z" />
<glyph unicode="&#x37e;" horiz-adv-x="303" d="M106 169h150l-162 -293h-103zM175 487q43 0 73.5 -30t30.5 -73t-30 -73.5t-73 -30.5q-44 0 -74 30.5t-30 74.5q0 42 30.5 72t72.5 30z" />
<glyph unicode="&#x384;" d="M192 519l-20 214h157l-20 -214h-117z" />
<glyph unicode="&#x385;" d="M66 694q33 0 56 -23t23 -55q0 -33 -23 -56t-55 -23q-33 0 -56 23t-23 56q0 32 23 55t55 23zM432 694q33 0 56 -23t23 -55q0 -33 -23 -56t-55 -23q-33 0 -56 23t-23 56q0 32 23 55t55 23zM191 519l-20 214h157l-20 -214h-117z" />
<glyph unicode="&#x386;" horiz-adv-x="729" d="M494 116h-239l-46 -116h-183l256 667h189l251 -667h-185zM447 248l-72 213l-72 -213h144zM28 500l-20 233h157l-20 -233h-117z" />
<glyph unicode="&#x388;" horiz-adv-x="662" d="M28 500l-20 233h157l-20 -233h-117zM243 0v667h379v-147h-206v-111h195v-147h-195v-115h206v-147h-379z" />
<glyph unicode="&#x389;" horiz-adv-x="909" d="M28 500l-20 233h157l-20 -233h-117zM243 0v667h173v-258h250v258h173v-667h-173v274h-250v-274h-173z" />
<glyph unicode="&#x38a;" horiz-adv-x="486" d="M28 500l-20 233h157l-20 -233h-117zM243 0v667h173v-667h-173z" />
<glyph unicode="&#x38c;" horiz-adv-x="965" d="M28 500l-20 233h157l-20 -233h-117zM556 687q167 0 273 -112q96 -101 96 -243q0 -80 -32.5 -151t-92.5 -121q-100 -84 -247 -84q-158 0 -262 103t-104 259q0 75 33 145t92 120q98 84 244 84zM555 519q-76 0 -131.5 -55t-55.5 -130q0 -79 54.5 -134.5t131.5 -55.5 q79 0 134.5 55t55.5 133q0 77 -55 132t-134 55z" />
<glyph unicode="&#x38e;" horiz-adv-x="847" d="M28 500l-20 233h157l-20 -233h-117zM436 0v320l-241 347h207l126 -182l121 182h210l-250 -347v-320h-173z" />
<glyph unicode="&#x38f;" horiz-adv-x="928" d="M28 500l-20 233h157l-20 -233h-117zM169 0v147h139v17q-131 66 -131 218q0 142 108 225q92 71 251 71q166 0 262.5 -80t96.5 -217q0 -107 -67 -174q-22 -22 -64 -43v-17h139v-147h-311v196q58 18 92 60.5t34 98.5q0 77 -48 120.5t-134 43.5t-134 -43.5t-48 -120.5 q0 -56 34 -98.5t92 -60.5v-196h-311z" />
<glyph unicode="&#x390;" horiz-adv-x="277" d="M57 0v453h164v-453h-164zM-45 694q33 0 56 -23t23 -55q0 -33 -23 -56t-55 -23q-33 0 -56 23t-23 56q0 32 23 55t55 23zM321 694q33 0 56 -23t23 -55q0 -33 -23 -56t-55 -23q-33 0 -56 23t-23 56q0 32 23 55t55 23zM80 519l-20 214h157l-20 -214h-117z" />
<glyph unicode="&#x391;" horiz-adv-x="710" d="M475 116h-239l-46 -116h-183l256 667h189l251 -667h-185zM428 248l-71 213l-73 -213h144z" />
<glyph unicode="&#x392;" horiz-adv-x="618" d="M70 0v667h257q92 0 140 -44.5t48 -129.5q0 -50 -17 -82.5t-56 -55.5q64 -12 93 -41q43 -45 43 -125q0 -88 -61.5 -138.5t-168.5 -50.5h-278zM243 404h32q81 0 81 65q0 66 -81 66h-32v-131zM243 135h38q64 0 93 16.5t29 53.5q0 41 -33 58q-24 12 -92 12h-35v-140z" />
<glyph unicode="&#x393;" horiz-adv-x="490" d="M70 0v667h407v-147h-234v-520h-173z" />
<glyph unicode="&#x394;" horiz-adv-x="672" d="M-10 0l248 667h192l252 -667h-692zM225 147h222l-113 320z" />
<glyph unicode="&#x395;" horiz-adv-x="489" d="M70 0v667h379v-147h-206v-111h195v-147h-195v-115h206v-147h-379z" />
<glyph unicode="&#x396;" horiz-adv-x="631" d="M13 0l315 520h-262v147h552l-314 -520h280v-147h-571z" />
<glyph unicode="&#x397;" horiz-adv-x="737" d="M70 0v667h173v-258h251v258h173v-667h-173v274h-251v-274h-173z" />
<glyph unicode="&#x398;" horiz-adv-x="818" d="M306 280v109h206v-109h-206zM409 687q158 0 263.5 -101.5t105.5 -253.5t-105.5 -254t-262.5 -102q-160 0 -265 102t-105 258q0 72 30.5 141t83.5 116q106 94 255 94zM409 519q-77 0 -132.5 -54.5t-55.5 -130.5q0 -80 54.5 -135t133.5 -55q78 0 133 55t55 133 q0 77 -55 132t-133 55z" />
<glyph unicode="&#x399;" horiz-adv-x="313" d="M70 0v667h173v-667h-173z" />
<glyph unicode="&#x39a;" horiz-adv-x="663" d="M70 0v667h173v-311l208 311h200l-239 -325l260 -342h-212l-217 311v-311h-173z" />
<glyph unicode="&#x39b;" horiz-adv-x="648" d="M-10 0l242 667h189l237 -667h-185l-147 461l-153 -461h-183z" />
<glyph unicode="&#x39c;" horiz-adv-x="915" d="M40 0l113 667h171l135 -356l143 356h173l100 -667h-173l-49 384l-161 -384h-69l-154 384l-57 -384h-172z" />
<glyph unicode="&#x39d;" horiz-adv-x="805" d="M70 0v667h173l319 -408v408h173v-667h-173l-319 408v-408h-173z" />
<glyph unicode="&#x39e;" horiz-adv-x="621" d="M38 520v147h545v-147h-545zM57 269v140h507v-140h-507zM38 0v147h545v-147h-545z" />
<glyph unicode="&#x39f;" horiz-adv-x="818" d="M409 687q167 0 273 -112q96 -101 96 -243q0 -80 -32.5 -151t-92.5 -121q-101 -84 -247 -84q-158 0 -262 103t-104 259q0 75 33 145t92 120q98 84 244 84zM408 519q-76 0 -131.5 -55t-55.5 -130q0 -79 54.5 -134.5t131.5 -55.5q79 0 134.5 55t55.5 133q0 77 -55 132 t-134 55z" />
<glyph unicode="&#x3a0;" horiz-adv-x="725" d="M70 0v667h585v-667h-173v520h-239v-520h-173z" />
<glyph unicode="&#x3a1;" horiz-adv-x="599" d="M243 222v-222h-173v667h275q59 0 97 -12.5t70 -43.5q65 -62 65 -165q0 -102 -54 -162q-55 -62 -172 -62h-108zM243 361h57q49 0 72.5 20t23.5 63q0 84 -95 84h-58v-167z" />
<glyph unicode="&#x3a3;" horiz-adv-x="552" d="M5 0l195 355l-183 312h493v-147h-234l111 -165l-125 -208h256v-147h-513z" />
<glyph unicode="&#x3a4;" horiz-adv-x="471" d="M148 0v520h-141v147h458v-147h-144v-520h-173z" />
<glyph unicode="&#x3a5;" horiz-adv-x="640" d="M229 0v320l-241 347h207l126 -182l121 182h210l-250 -347v-320h-173z" />
<glyph unicode="&#x3a6;" horiz-adv-x="965" d="M405 -55v95q-120 7 -186 33q-87 35 -134 102.5t-47 156.5q0 96 54 166.5t152 101.5q59 19 161 25v95h154v-95q117 -7 187 -34q86 -35 133.5 -102.5t47.5 -156.5q0 -96 -54 -166t-152 -101q-56 -19 -162 -25v-95h-154zM559 466v-268q71 6 108 22q81 34 81 112 q0 84 -92 117q-32 11 -97 17zM405 198v268q-70 -6 -107 -21q-81 -35 -81 -113q0 -85 92 -117q32 -11 96 -17z" />
<glyph unicode="&#x3a7;" horiz-adv-x="711" d="M0 0l261 356l-214 311h214l99 -173l103 173h213l-217 -311l252 -356h-210l-142 217l-150 -217h-209z" />
<glyph unicode="&#x3a8;" horiz-adv-x="879" d="M355 0v129q-93 7 -143.5 20.5t-88.5 41.5q-86 63 -86 207v269h174v-253q0 -45 10 -70t33 -40q27 -17 101 -21v384h168v-384q73 4 101 21q23 15 33 40t10 70v253h174v-269q0 -144 -86 -207q-39 -28 -89.5 -41.5t-142.5 -20.5v-129h-168z" />
<glyph unicode="&#x3a9;" horiz-adv-x="781" d="M22 0v147h139v17q-131 66 -131 218q0 142 108 225q92 71 251 71q166 0 263 -80t97 -217q0 -107 -67 -174q-22 -22 -64 -43v-17h139v-147h-312v196q58 18 92 60.5t34 98.5q0 77 -48.5 120.5t-133.5 43.5q-86 0 -134 -43.5t-48 -120.5q0 -56 34 -98.5t92 -60.5v-196h-311z " />
<glyph unicode="&#x3aa;" horiz-adv-x="313" d="M70 0v667h173v-667h-173zM36 903q36 0 61.5 -25t25.5 -61t-25.5 -61.5t-60.5 -25.5q-37 0 -62 25.5t-25 62.5q0 35 25.5 60t60.5 25zM276 903q36 0 61.5 -25t25.5 -61t-25.5 -61.5t-60.5 -25.5q-37 0 -62 25.5t-25 62.5q0 35 25.5 60t60.5 25z" />
<glyph unicode="&#x3ab;" horiz-adv-x="640" d="M229 0v320l-241 347h207l126 -182l121 182h210l-250 -347v-320h-173zM200 903q36 0 61.5 -25t25.5 -61t-25.5 -61.5t-60.5 -25.5q-37 0 -62 25.5t-25 62.5q0 35 25.5 60t60.5 25zM440 903q36 0 61.5 -25t25.5 -61t-25.5 -61.5t-60.5 -25.5q-37 0 -62 25.5t-25 62.5 q0 35 25.5 60t60.5 25z" />
<glyph unicode="&#x3ac;" horiz-adv-x="620" d="M406 0v50q-52 -65 -144 -65q-99 0 -162 67t-63 172q0 107 63.5 175.5t161.5 68.5q86 0 144 -59v44h160v-453h-160zM306 330q-47 0 -74.5 -28.5t-27.5 -76.5q0 -46 27.5 -74t72.5 -28t76 29.5t31 72.5q0 45 -30.5 75t-74.5 30zM252 519l-20 214h157l-20 -214h-117z" />
<glyph unicode="&#x3ad;" horiz-adv-x="465" d="M447 126v-121q-88 -22 -177 -22q-238 0 -238 147q0 78 72 110q-60 33 -60 96q0 32 15.5 59.5t41.5 43.5q52 31 148 31q90 0 183 -24v-123q-73 21 -138 21q-81 0 -81 -34q0 -31 83 -31h82v-101h-87q-88 0 -88 -32q0 -17 24 -27t65 -10q62 0 155 17zM199 519l-20 214h157 l-20 -214h-117z" />
<glyph unicode="&#x3ae;" horiz-adv-x="587" d="M55 0v453h160v-57q33 38 65 52.5t81 14.5q88 0 136 -56q36 -41 36 -119v-515h-160v456q0 54 -11 75q-19 32 -62 32q-41 0 -66 -28q-19 -22 -19 -65v-243h-160zM246 519l-20 214h157l-20 -214h-117z" />
<glyph unicode="&#x3af;" horiz-adv-x="277" d="M57 0v453h164v-453h-164zM81 519l-20 214h157l-20 -214h-117z" />
<glyph unicode="&#x3b0;" horiz-adv-x="570" d="M52 453h160v-244q0 -54 14 -72q20 -24 59 -24q43 0 62 28q11 17 11 68v244h160v-248q0 -62 -9 -96.5t-32 -60.5q-58 -67 -192 -67q-144 0 -201 78q-32 46 -32 146v248zM101 694q33 0 56 -23t23 -55q0 -33 -23 -56t-55 -23q-33 0 -56 23t-23 56q0 32 23 55t55 23zM467 694 q33 0 56 -23t23 -55q0 -33 -23 -56t-55 -23q-33 0 -56 23t-23 56q0 32 23 55t55 23zM226 519l-20 214h157l-20 -214h-117z" />
<glyph unicode="&#x3b1;" horiz-adv-x="620" d="M406 0v50q-52 -65 -144 -65q-99 0 -162 67t-63 172q0 107 63.5 175.5t161.5 68.5q86 0 144 -59v44h160v-453h-160zM306 330q-47 0 -74.5 -28.5t-27.5 -76.5q0 -46 27.5 -74t72.5 -28t76 29.5t31 72.5q0 45 -30.5 75t-74.5 30z" />
<glyph unicode="&#x3b2;" horiz-adv-x="599" d="M57 -227v668q0 84 10 132t35 82q61 84 196 84q105 0 165.5 -53t60.5 -145q0 -107 -83 -149q47 -16 72 -42q50 -53 50 -139q0 -97 -58.5 -160.5t-147.5 -63.5q-75 0 -140 49v-263h-160zM217 484v-332q39 -32 83 -32q43 0 70.5 28.5t27.5 73.5q0 96 -110 98h-9v123 q92 0 92 73q0 40 -21 65t-56 25q-49 0 -66 -41q-11 -26 -11 -81z" />
<glyph unicode="&#x3b3;" horiz-adv-x="527" d="M180 -227v133q0 93 -9.5 151t-37.5 129q-44 114 -140 267h175q70 -131 92 -261q13 67 46 149l44 112h173l-100 -191q-47 -90 -65 -166.5t-18 -189.5v-133h-160z" />
<glyph unicode="&#x3b4;" horiz-adv-x="601" d="M228 440l-30 31q-35 36 -46.5 59t-11.5 58q0 88 78 122q41 19 162 19h81v-133h-83q-41 0 -57 -6t-16 -21q0 -14 7.5 -23t39.5 -35l74 -60q57 -47 68.5 -57t25.5 -30q45 -60 45 -140q0 -110 -71.5 -175.5t-192.5 -65.5q-120 0 -192 66.5t-72 177.5q0 130 97 185 q36 21 94 28zM351 315l-12 11q-26 3 -40 3q-43 0 -70.5 -29t-27.5 -73q0 -46 27.5 -74.5t72.5 -28.5t72.5 27.5t27.5 72.5q0 27 -10.5 45.5t-39.5 45.5z" />
<glyph unicode="&#x3b5;" horiz-adv-x="465" d="M447 126v-121q-88 -22 -177 -22q-238 0 -238 147q0 78 72 110q-60 33 -60 96q0 32 15.5 59.5t41.5 43.5q52 31 148 31q90 0 183 -24v-123q-73 21 -138 21q-81 0 -81 -34q0 -31 83 -31h82v-101h-87q-88 0 -88 -32q0 -17 24 -27t65 -10q62 0 155 17z" />
<glyph unicode="&#x3b6;" horiz-adv-x="419" d="M51 596v133h381q-147 -284 -186 -374t-39 -147q0 -44 20 -64.5t77 -32.5q64 -15 85 -34q36 -31 36 -91q0 -52 -30.5 -97.5t-105.5 -105.5l-91 91q46 32 61 49t15 38q0 17 -10.5 23t-53.5 13q-93 17 -133 60t-40 128q0 100 73 235q30 53 108 176h-167z" />
<glyph unicode="&#x3b7;" horiz-adv-x="587" d="M55 0v453h160v-57q33 38 65 52.5t81 14.5q88 0 136 -56q36 -41 36 -119v-515h-160v456q0 54 -11 75q-19 32 -62 32q-41 0 -66 -28q-19 -22 -19 -65v-243h-160z" />
<glyph unicode="&#x3b8;" horiz-adv-x="619" d="M409 301h-199q11 -83 38 -130.5t62 -47.5q34 0 61 49t38 129zM211 434h198q-9 75 -37.5 125t-62.5 50t-61.5 -49t-36.5 -126zM306 751q139 0 216 -134q60 -103 60 -250q0 -173 -79 -280q-75 -104 -197 -104q-116 0 -192.5 107.5t-76.5 270.5q0 172 75.5 281t193.5 109z " />
<glyph unicode="&#x3b9;" horiz-adv-x="277" d="M57 0v453h164v-453h-164z" />
<glyph unicode="&#x3ba;" horiz-adv-x="529" d="M55 0v453h160v-198l133 198h172l-160 -218l177 -235h-182l-140 198v-198h-160z" />
<glyph unicode="&#x3bb;" horiz-adv-x="516" d="M-5 0l174 447l-121 282h170l310 -729h-171l-100 268l-83 -268h-179z" />
<glyph unicode="&#x3bc;" horiz-adv-x="579" d="M57 -208v661h160v-230q0 -51 17.5 -73.5t57.5 -22.5q39 0 56 22.5t17 74.5v229h160v-453h-133l-9 62q-16 -39 -35 -52t-57 -13q-50 0 -74 27v-232h-160z" />
<glyph unicode="&#x3bd;" horiz-adv-x="577" d="M234 0l-234 453h180l108 -232l110 232h179l-236 -453h-107z" />
<glyph unicode="&#x3be;" horiz-adv-x="439" d="M54 596v133h386l-72 -61q-56 -47 -90.5 -94t-34.5 -77q0 -23 18 -41.5t49 -27.5q26 -7 94 -12l-59 -115q-31 5 -47 5q-41 0 -66 -25.5t-25 -68.5t21.5 -64t80.5 -34q63 -14 87 -35q37 -32 37 -92q0 -53 -30.5 -98.5t-105.5 -105.5l-91 91q46 32 61 49t15 38q0 19 -15 27 q-9 4 -51 11q-93 18 -133 59q-46 48 -46 146q0 125 96 189q-28 20 -38 37.5t-10 45.5q0 49 37 86q13 12 51 34h-119z" />
<glyph unicode="&#x3bf;" horiz-adv-x="619" d="M309 470q120 0 196.5 -68t76.5 -175q0 -108 -76.5 -176t-198.5 -68q-119 0 -194.5 69t-75.5 179q0 105 82 176q73 63 190 63zM309 332q-42 0 -72.5 -30.5t-30.5 -72.5q0 -44 30.5 -74.5t73.5 -30.5t73 30.5t30 73.5q0 44 -30.5 74t-73.5 30z" />
<glyph unicode="&#x3c0;" horiz-adv-x="613" d="M90 0v320h-70v133h573v-133h-70v-320h-161v320h-111v-320h-161z" />
<glyph unicode="&#x3c1;" horiz-adv-x="626" d="M55 -227v392q0 145 50 215q67 90 217 90q129 0 198.5 -64t69.5 -183q0 -113 -57 -176.5t-157 -63.5q-70 0 -112 22q-17 8 -48 37v-269h-161zM326 332q-49 0 -78 -28t-29 -75q0 -49 28.5 -77t78.5 -28q47 0 73.5 27.5t26.5 76.5t-26.5 76.5t-73.5 27.5z" />
<glyph unicode="&#x3c2;" horiz-adv-x="446" d="M411 440v-156q-59 43 -110 43q-44 0 -69.5 -29t-25.5 -80q0 -54 29 -77q18 -15 73 -28q62 -13 87 -34q37 -32 37 -92q0 -53 -30 -98.5t-106 -105.5l-91 91q46 32 61 49t15 38q0 19 -16 27q-11 5 -50 11q-99 18 -139 64.5t-40 143.5q0 121 59.5 192t161.5 71q72 0 154 -30 z" />
<glyph unicode="&#x3c3;" horiz-adv-x="617" d="M618 453v-133h-72l5 -9q21 -45 21 -91q0 -105 -74.5 -171t-194.5 -66q-118 0 -192 67.5t-74 175.5q0 110 71 175.5t191 65.5q36 0 176 -12q36 -2 56 -2h87zM378 323q-37 4 -62 4q-52 0 -81 -27t-29 -76q0 -45 27 -72.5t71 -27.5q50 0 77 29t27 81q0 27 -5.5 43t-24.5 46z " />
<glyph unicode="&#x3c4;" horiz-adv-x="428" d="M132 0v320h-120v133h404v-133h-120v-320h-164z" />
<glyph unicode="&#x3c5;" horiz-adv-x="570" d="M52 453h160v-244q0 -54 14 -72q20 -24 59 -24q43 0 62 28q11 17 11 68v244h160v-248q0 -62 -9 -96.5t-32 -60.5q-58 -67 -192 -67q-144 0 -201 78q-32 46 -32 146v248z" />
<glyph unicode="&#x3c6;" horiz-adv-x="765" d="M304 -208v195q-128 10 -197.5 70.5t-69.5 161.5q0 144 149 204l65 -89l-11 -11q-25 -23 -34 -42.5t-9 -48.5q0 -48 29 -79.5t78 -35.5v340q50 9 97 9q161 0 244 -61.5t83 -180.5q0 -107 -70 -168.5t-199 -68.5v-195h-155zM459 335v-218q52 2 80.5 30.5t28.5 78.5 q0 48 -30 78t-79 31z" />
<glyph unicode="&#x3c7;" horiz-adv-x="523" d="M172 136l-164 317h174l89 -184l68 184h172l-161 -324l185 -356h-175l-102 221l-81 -221h-181z" />
<glyph unicode="&#x3c8;" horiz-adv-x="788" d="M316 -227v217h-12q-128 1 -188 50q-36 29 -50 74t-14 133v206h164v-226q0 -65 18 -83q19 -20 68 -20h14v329h156v-329h14q49 0 68 20q18 18 18 83v226h164v-206q0 -88 -14 -133t-50 -74q-60 -49 -188 -50h-12v-217h-156z" />
<glyph unicode="&#x3c9;" horiz-adv-x="785" d="M322 330h141v-80q0 -62 9 -90q12 -37 44 -37q31 0 49.5 34.5t18.5 92.5q0 73 -33 136q-12 23 -50 67h157q50 -56 70 -106.5t20 -118.5q0 -111 -57 -178t-151 -67q-104 0 -147 76q-45 -76 -148 -76q-94 0 -151.5 67t-57.5 177q0 68 20.5 119t70.5 107h157q-41 -48 -55 -75 q-29 -61 -29 -131q0 -55 18.5 -89.5t48.5 -34.5q36 0 47 42q8 25 8 85v80z" />
<glyph unicode="&#x3ca;" horiz-adv-x="277" d="M57 0v453h164v-453h-164zM25 696q36 0 61.5 -25t25.5 -61t-25.5 -61.5t-60.5 -25.5q-37 0 -62 25.5t-25 62.5q0 35 25.5 60t60.5 25zM252 696q36 0 61.5 -25t25.5 -61t-25.5 -61.5t-60.5 -25.5q-37 0 -62 25.5t-25 62.5q0 35 25.5 60t60.5 25z" />
<glyph unicode="&#x3cb;" horiz-adv-x="570" d="M52 453h160v-244q0 -54 14 -72q20 -24 59 -24q43 0 62 28q11 17 11 68v244h160v-248q0 -62 -9 -96.5t-32 -60.5q-58 -67 -192 -67q-144 0 -201 78q-32 46 -32 146v248zM171 696q36 0 61.5 -25t25.5 -61t-25.5 -61.5t-60.5 -25.5q-37 0 -62 25.5t-25 62.5q0 35 25.5 60 t60.5 25zM398 696q36 0 61.5 -25t25.5 -61t-25.5 -61.5t-60.5 -25.5q-37 0 -62 25.5t-25 62.5q0 35 25.5 60t60.5 25z" />
<glyph unicode="&#x3cc;" horiz-adv-x="619" d="M309 470q120 0 196.5 -68t76.5 -175q0 -108 -76.5 -176t-198.5 -68q-119 0 -194.5 69t-75.5 179q0 105 82 176q73 63 190 63zM309 332q-42 0 -72.5 -30.5t-30.5 -72.5q0 -44 30.5 -74.5t73.5 -30.5t73 30.5t30 73.5q0 44 -30.5 74t-73.5 30zM251 519l-20 214h157 l-20 -214h-117z" />
<glyph unicode="&#x3cd;" horiz-adv-x="570" d="M52 453h160v-244q0 -54 14 -72q20 -24 59 -24q43 0 62 28q11 17 11 68v244h160v-248q0 -62 -9 -96.5t-32 -60.5q-58 -67 -192 -67q-144 0 -201 78q-32 46 -32 146v248zM227 519l-20 214h157l-20 -214h-117z" />
<glyph unicode="&#x3ce;" horiz-adv-x="785" d="M322 330h141v-80q0 -62 9 -90q12 -37 44 -37q31 0 49.5 34.5t18.5 92.5q0 73 -33 136q-12 23 -50 67h157q50 -56 70 -106.5t20 -118.5q0 -111 -57 -178t-151 -67q-104 0 -147 76q-45 -76 -148 -76q-94 0 -151.5 67t-57.5 177q0 68 20.5 119t70.5 107h157q-41 -48 -55 -75 q-29 -61 -29 -131q0 -55 18.5 -89.5t48.5 -34.5q36 0 47 42q8 25 8 85v80zM334 519l-20 214h157l-20 -214h-117z" />
<glyph unicode="&#x3d1;" horiz-adv-x="592" d="M367 324h-60q-140 0 -191 35q-69 45 -69 158q0 102 62 162t168 60q147 0 208 -125q29 -59 42 -161h64v-129h-62q-8 -113 -33 -179q-60 -157 -216 -157q-116 0 -180 79t-64 223v17h160v-21q1 -85 20.5 -124.5t60.5 -39.5q87 0 90 202zM300 453h65q-11 85 -31.5 119 t-62.5 34q-35 0 -54.5 -20.5t-19.5 -57.5q0 -43 22 -59t81 -16z" />
<glyph unicode="&#x3d5;" horiz-adv-x="765" d="M306 -168v155q-127 5 -198 68t-71 169q0 107 68.5 168.5t200.5 71.5v152h154v-152q132 -10 200.5 -71.5t68.5 -168.5q0 -106 -71 -169t-198 -68v-155h-154zM460 335v-218q52 2 80.5 30.5t28.5 78.5q0 48 -29.5 78t-79.5 31zM306 117v218q-50 -1 -79.5 -31t-29.5 -78 q0 -50 28.5 -78.5t80.5 -30.5z" />
<glyph unicode="&#x400;" horiz-adv-x="489" d="M449 520h-206v-111h195v-147h-195v-115h206v-147h-379v667h379v-147zM119 836l93 84l144 -137l-67 -63z" />
<glyph unicode="&#x401;" horiz-adv-x="489" d="M70 0v667h380v-147h-207v-111h195v-147h-195v-115h207v-147h-380zM139 903q36 0 61.5 -25t25.5 -61t-25.5 -61.5t-60.5 -25.5q-37 0 -62 25.5t-25 62.5q0 35 25.5 60t60.5 25zM379 903q36 0 61.5 -25t25.5 -61t-25.5 -61.5t-60.5 -25.5q-37 0 -62 25.5t-25 62.5 q0 35 25.5 60t60.5 25z" />
<glyph unicode="&#x402;" horiz-adv-x="645" d="M99 0v520h-94v147h415v-147h-144v-187q49 44 86 61t82 17q89 0 130 -69q23 -41 23 -124v-225q0 -66 -13 -107.5t-57 -112.5h-160q40 73 52 115.5t12 108.5v182q0 44 -13.5 62.5t-45.5 18.5q-49 0 -96 -69v-191h-177z" />
<glyph unicode="&#x403;" horiz-adv-x="490" d="M70 0v667h407v-147h-234v-520h-173zM427 836l-170 -116l-67 63l145 137z" />
<glyph unicode="&#x404;" horiz-adv-x="664" d="M498 267h-274q43 -123 188 -123q107 0 211 70v-179q-44 -22 -111.5 -35.5t-129.5 -13.5q-154 0 -249 95.5t-95 248.5q0 158 97 254.5t255 96.5q105 0 212 -44v-172q-113 54 -195 54q-140 0 -183 -114h274v-138z" />
<glyph unicode="&#x405;" horiz-adv-x="571" d="M505 629l-69 -135q-57 45 -114 45q-32 0 -53 -16.5t-21 -41.5q0 -20 16 -33q14 -12 30 -18.5t74 -23.5q87 -26 125.5 -69.5t38.5 -117.5q0 -114 -68 -173q-74 -63 -193 -63q-122 0 -231 75l74 140q78 -68 153 -68q38 0 61 18t23 47q0 27 -21.5 43t-82.5 34 q-97 29 -127 54q-53 44 -53 132q0 100 63 162.5t164 62.5q108 0 211 -54z" />
<glyph unicode="&#x406;" horiz-adv-x="313" d="M70 0v667h173v-667h-173z" />
<glyph unicode="&#x407;" horiz-adv-x="313" d="M243 667v-667h-173v667h173zM36 903q36 0 61.5 -25t25.5 -61t-25.5 -61.5t-60.5 -25.5q-37 0 -62 25.5t-25 62.5q0 35 25.5 60t60.5 25zM276 903q36 0 61.5 -25t25.5 -61t-25.5 -61.5t-60.5 -25.5q-37 0 -62 25.5t-25 62.5q0 35 25.5 60t60.5 25z" />
<glyph unicode="&#x408;" horiz-adv-x="468" d="M399 667v-461q0 -56 -11 -89t-40 -65q-65 -70 -166 -70q-109 0 -174 99l113 115q4 -29 19 -47t37 -18q38 0 46 42q3 18 3 73v421h173z" />
<glyph unicode="&#x409;" horiz-adv-x="953" d="M434 0v520h-149q-13 -236 -36 -329q-48 -192 -213 -192q-17 0 -46 1v148q12 -1 21 -1q38 0 58.5 33t31.5 114q18 128 26 373h474v-245h118q104 0 159 -52.5t55 -151.5q0 -118 -79 -176q-59 -42 -159 -42h-261zM601 135h67q50 0 73 18.5t23 59.5t-23 60t-73 19h-67v-157z " />
<glyph unicode="&#x40a;" horiz-adv-x="989" d="M70 0v667h173v-245h230v245h167v-245h118q104 0 159 -52.5t55 -151.5q0 -118 -79 -176q-59 -42 -159 -42h-261v287h-230v-287h-173zM640 135h67q50 0 73 18.5t23 59.5q0 79 -96 79h-67v-157z" />
<glyph unicode="&#x40b;" horiz-adv-x="711" d="M122 0v520h-117v147h468v-147h-174v-187q56 44 97.5 61t92.5 17q102 0 147 -69q26 -41 26 -124v-218h-166v179q0 44 -17 62.5t-58 18.5q-61 0 -122 -69v-191h-177z" />
<glyph unicode="&#x40c;" horiz-adv-x="663" d="M70 0v667h173v-311l208 311h200l-239 -325l260 -342h-212l-217 311v-311h-173zM509 836l-170 -116l-67 63l145 137z" />
<glyph unicode="&#x40d;" horiz-adv-x="712" d="M70 0v667h166v-394l259 394h147v-667h-166v392l-259 -392h-147zM237 836l93 84l144 -137l-67 -63z" />
<glyph unicode="&#x40e;" horiz-adv-x="614" d="M86 0l133 236l-223 431h203l112 -272l114 272h202l-357 -667h-184zM121 884h112q13 -59 79 -59q65 0 78 59h113q-5 -72 -55.5 -113t-135.5 -41q-86 0 -136.5 41t-54.5 113z" />
<glyph unicode="&#x40f;" horiz-adv-x="717" d="M70 0v667h173v-520h231v520h173v-667h-212v-128h-153v128h-212z" />
<glyph unicode="&#x410;" horiz-adv-x="710" d="M475 116h-239l-46 -116h-183l256 667h189l251 -667h-185zM428 248l-71 213l-73 -213h144z" />
<glyph unicode="&#x411;" horiz-adv-x="598" d="M70 0v667h458v-147h-291v-112h119q105 0 161 -50.5t56 -146.5q0 -114 -81 -170q-57 -41 -161 -41h-261zM237 135h67q100 0 100 71q0 37 -24 54.5t-76 17.5h-67v-143z" />
<glyph unicode="&#x412;" horiz-adv-x="618" d="M70 0v667h257q92 0 140 -44.5t48 -129.5q0 -50 -17 -82.5t-56 -55.5q64 -12 93 -41q43 -45 43 -125q0 -88 -61.5 -138.5t-168.5 -50.5h-278zM243 404h32q81 0 81 65q0 66 -81 66h-32v-131zM243 135h38q64 0 93 16.5t29 53.5q0 41 -33 58q-24 12 -92 12h-35v-140z" />
<glyph unicode="&#x413;" horiz-adv-x="490" d="M70 0v667h407v-147h-234v-520h-173z" />
<glyph unicode="&#x414;" horiz-adv-x="715" d="M-12 -128v275h37q61 0 83 54q37 91 50 466h479v-520h63v-275h-154v128h-404v-128h-154zM246 147h218v373h-148q-8 -188 -21.5 -259.5t-48.5 -113.5z" />
<glyph unicode="&#x415;" horiz-adv-x="489" d="M70 0v667h379v-147h-206v-111h195v-147h-195v-115h206v-147h-379z" />
<glyph unicode="&#x416;" horiz-adv-x="977" d="M404 0v272h-28l-179 -272h-207l243 342l-221 325h194l164 -260h34v260h170v-260h34l164 260h194l-221 -325l243 -342h-207l-179 272h-28v-272h-170z" />
<glyph unicode="&#x417;" horiz-adv-x="571" d="M161 276v130h43q87 0 120 13q37 14 37 45q0 28 -34 44t-93 16q-49 0 -83.5 -8t-106.5 -37v169q97 33 211 33q133 0 208.5 -48.5t75.5 -133.5q0 -63 -42 -105q-23 -23 -74 -44q126 -43 126 -159q0 -90 -69 -146q-74 -59 -219 -59q-143 0 -236 35v176q97 -53 207 -53 q136 0 136 68q0 35 -37.5 49.5t-126.5 14.5h-43z" />
<glyph unicode="&#x418;" horiz-adv-x="712" d="M70 0v667h166v-394l259 394h147v-667h-166v392l-259 -392h-147z" />
<glyph unicode="&#x419;" horiz-adv-x="712" d="M70 0v667h166v-394l259 394h147v-667h-166v392l-259 -392h-147zM165 884h112q13 -59 79 -59q65 0 78 59h113q-5 -72 -55.5 -113t-135.5 -41q-86 0 -136.5 41t-54.5 113z" />
<glyph unicode="&#x41a;" horiz-adv-x="663" d="M70 0v667h173v-311l208 311h200l-239 -325l260 -342h-212l-217 311v-311h-173z" />
<glyph unicode="&#x41b;" horiz-adv-x="677" d="M127 667h480v-667h-173v520h-149q-13 -236 -36 -329q-48 -192 -213 -192q-17 0 -46 1v148q13 -1 21 -1q38 0 58.5 33t31.5 114q18 128 26 373z" />
<glyph unicode="&#x41c;" horiz-adv-x="915" d="M40 0l113 667h171l135 -356l143 356h173l100 -667h-173l-49 384l-161 -384h-69l-154 384l-57 -384h-172z" />
<glyph unicode="&#x41d;" horiz-adv-x="737" d="M70 0v667h173v-258h251v258h173v-667h-173v274h-251v-274h-173z" />
<glyph unicode="&#x41e;" horiz-adv-x="818" d="M409 687q167 0 273 -112q96 -101 96 -243q0 -80 -32.5 -151t-92.5 -121q-101 -84 -247 -84q-158 0 -262 103t-104 259q0 75 33 145t92 120q98 84 244 84zM408 519q-76 0 -131.5 -55t-55.5 -130q0 -79 54.5 -134.5t131.5 -55.5q79 0 134.5 55t55.5 133q0 77 -55 132 t-134 55z" />
<glyph unicode="&#x41f;" horiz-adv-x="725" d="M70 0v667h585v-667h-173v520h-239v-520h-173z" />
<glyph unicode="&#x420;" horiz-adv-x="599" d="M243 222v-222h-173v667h275q59 0 97 -12.5t70 -43.5q65 -62 65 -165q0 -102 -54 -162q-55 -62 -172 -62h-108zM243 361h57q49 0 72.5 20t23.5 63q0 84 -95 84h-58v-167z" />
<glyph unicode="&#x421;" horiz-adv-x="590" d="M550 647v-207q-61 73 -156 73q-79 0 -126 -50.5t-47 -134.5q0 -82 47 -130t126 -48q89 0 156 70v-205q-62 -21 -92 -27t-71 -6q-159 0 -253 91.5t-94 246.5q0 86 32 161.5t89 123.5q90 76 225 76q78 0 164 -34z" />
<glyph unicode="&#x422;" horiz-adv-x="471" d="M148 0v520h-141v147h458v-147h-144v-520h-173z" />
<glyph unicode="&#x423;" horiz-adv-x="614" d="M86 0l133 236l-223 431h203l112 -272l114 272h202l-357 -667h-184z" />
<glyph unicode="&#x424;" horiz-adv-x="965" d="M405 -55v95q-120 7 -186 33q-87 35 -134 102.5t-47 156.5q0 96 54 166.5t152 101.5q59 19 161 25v95h154v-95q117 -7 187 -34q86 -35 133.5 -102.5t47.5 -156.5q0 -96 -54 -166t-152 -101q-56 -19 -162 -25v-95h-154zM559 466v-268q71 6 108 22q81 34 81 112 q0 84 -92 117q-32 11 -97 17zM405 198v268q-70 -6 -107 -21q-81 -35 -81 -113q0 -85 92 -117q32 -11 96 -17z" />
<glyph unicode="&#x425;" horiz-adv-x="711" d="M261 356l-214 311h214l99 -173l103 173h213l-217 -311l252 -356h-210l-142 217l-150 -217h-209z" />
<glyph unicode="&#x426;" horiz-adv-x="724" d="M70 0v667h173v-520h231v520h173v-520h63v-275h-153v128h-487z" />
<glyph unicode="&#x427;" horiz-adv-x="661" d="M418 0v189q-68 -10 -108 -10q-180 0 -240 102q-34 55 -34 177v209h173v-200q0 -46 4 -66.5t17 -36.5q29 -38 98 -38q48 0 90 13v328h173v-667h-173z" />
<glyph unicode="&#x428;" horiz-adv-x="1022" d="M70 0v667h173v-520h181v520h173v-520h182v520h173v-667h-882z" />
<glyph unicode="&#x429;" horiz-adv-x="1029" d="M70 0v667h173v-520h181v520h173v-520h182v520h173v-520h63v-275h-153v128h-792z" />
<glyph unicode="&#x42a;" horiz-adv-x="686" d="M168 0v520h-163v147h330v-245h118q104 0 159 -52.5t55 -151.5q0 -118 -79 -176q-58 -42 -159 -42h-261zM335 135h67q50 0 73 18.5t23 59.5t-23 60t-73 19h-67v-157z" />
<glyph unicode="&#x42b;" horiz-adv-x="898" d="M70 0v667h167v-245h118q104 0 159 -52.5t55 -151.5q0 -118 -79 -176q-58 -42 -159 -42h-261zM237 135h67q50 0 73 18.5t23 59.5t-23 60t-73 19h-67v-157zM648 0v667h180v-667h-180z" />
<glyph unicode="&#x42c;" horiz-adv-x="589" d="M70 0v667h167v-245h118q104 0 159 -52.5t55 -151.5q0 -118 -79 -176q-58 -42 -159 -42h-261zM237 135h67q50 0 73 18.5t23 59.5t-23 60t-73 19h-67v-157z" />
<glyph unicode="&#x42d;" horiz-adv-x="664" d="M165 267v138h274q-43 114 -183 114q-81 0 -194 -54v172q106 44 211 44q158 0 255 -96.5t97 -254.5q0 -153 -95 -248.5t-249 -95.5q-62 0 -128.5 13.5t-111.5 35.5v179q101 -70 210 -70q145 0 188 123h-274z" />
<glyph unicode="&#x42e;" horiz-adv-x="1082" d="M70 0v667h173v-255h108q31 125 122 195t222 70q151 0 250 -97.5t99 -245.5t-101 -246t-253 -98q-130 0 -220.5 72t-119.5 198h-107v-260h-173zM693 509q-73 0 -123.5 -50t-50.5 -122q0 -77 49.5 -128t123.5 -51t124 50t50 124t-50 125.5t-123 51.5z" />
<glyph unicode="&#x42f;" horiz-adv-x="632" d="M387 242h-19l-157 -242h-188l181 261q-63 10 -95 39q-59 51 -59 148q0 129 93 186q56 33 156 33h263v-667h-175v242zM387 366v161h-61q-101 0 -101 -83q0 -78 100 -78h62z" />
<glyph unicode="&#x430;" horiz-adv-x="620" d="M406 0v50q-52 -65 -144 -65q-99 0 -162 67t-63 172q0 107 63.5 175.5t161.5 68.5q86 0 144 -59v44h160v-453h-160zM306 330q-47 0 -74.5 -28.5t-27.5 -76.5q0 -46 27.5 -74t72.5 -28t76 29.5t31 72.5q0 45 -30.5 75t-74.5 30z" />
<glyph unicode="&#x431;" horiz-adv-x="616" d="M202 411l14 12q31 26 58.5 35.5t70.5 9.5q102 0 168.5 -68.5t66.5 -172.5q0 -109 -74.5 -175.5t-196.5 -66.5q-269 0 -269 342q0 115 22.5 202t62.5 128q39 39 114 48q32 3 127 8q90 5 125 29l21 -126q-34 -22 -67 -28t-113 -5q-76 -1 -100 -33t-30 -139zM311 330 q-46 0 -74.5 -28t-28.5 -73q0 -47 28.5 -76.5t74.5 -29.5q45 0 74 29.5t29 75.5q0 45 -29 73.5t-74 28.5z" />
<glyph unicode="&#x432;" horiz-adv-x="560" d="M55 0v453h281q100 0 133 -24q47 -32 47 -94q0 -68 -66 -95q80 -24 80 -106q0 -79 -74 -114q-41 -20 -122 -20h-279zM215 271h79q64 0 64 47q0 45 -61 45h-82v-92zM215 92h86q73 0 73 51q0 50 -73 50h-86v-101z" />
<glyph unicode="&#x433;" horiz-adv-x="414" d="M55 0v453h343v-133h-183v-320h-160z" />
<glyph unicode="&#x434;" horiz-adv-x="590" d="M431 0h-285v-128h-149v261h14q52 0 80 71q26 67 34 249h405v-320h50v-261h-149v128zM362 133v187h-95q-9 -87 -21.5 -122.5t-44.5 -64.5h161z" />
<glyph unicode="&#x435;" horiz-adv-x="572" d="M536 197h-337q1 -102 97 -102q29 0 46.5 9.5t32.5 33.5h154q-15 -51 -40 -80q-65 -76 -193 -76q-118 0 -188.5 65.5t-70.5 175.5q0 112 68 177.5t184 65.5t181.5 -67.5t65.5 -185.5v-16zM203 290h184q-8 34 -33 53.5t-61 19.5q-37 0 -60.5 -19t-29.5 -54z" />
<glyph unicode="&#x436;" horiz-adv-x="764" d="M305 0v180h-15l-125 -180h-177l171 235l-154 218h170l112 -174h18v174h153v-174h18l112 174h170l-154 -218l171 -235h-177l-125 180h-15v-180h-153z" />
<glyph unicode="&#x437;" horiz-adv-x="465" d="M87 178v101h82q83 0 83 31q0 34 -81 34q-65 0 -138 -21v123q93 24 184 24q99 0 151.5 -34.5t52.5 -99.5q0 -63 -60 -96q72 -32 72 -110q0 -147 -239 -147q-89 0 -176 22v121q94 -17 155 -17q41 0 65 10t24 27q0 32 -88 32h-87z" />
<glyph unicode="&#x438;" horiz-adv-x="562" d="M55 0v453h157v-239l140 239h156v-453h-157v237l-140 -237h-156z" />
<glyph unicode="&#x439;" horiz-adv-x="562" d="M55 0v453h157v-239l140 239h156v-453h-157v237l-140 -237h-156zM354 694h103q-4 -61 -26 -95q-47 -72 -149 -72q-104 0 -150 72q-22 37 -25 95h102q10 -72 73 -72q33 0 50.5 17t21.5 55z" />
<glyph unicode="&#x43a;" horiz-adv-x="529" d="M55 0v453h160v-198l133 198h172l-160 -218l177 -235h-182l-140 198v-198h-160z" />
<glyph unicode="&#x43b;" horiz-adv-x="552" d="M337 0v320h-93q-10 -134 -20 -180q-29 -141 -187 -141q-12 0 -37 1v138q13 -1 20 -1q29 0 43.5 25.5t19.5 83.5q8 80 12 207h402v-453h-160z" />
<glyph unicode="&#x43c;" horiz-adv-x="689" d="M20 0l76 453h167l82 -275l81 275h167l76 -453h-155l-32 248l-81 -248h-117l-75 248l-33 -248h-156z" />
<glyph unicode="&#x43d;" horiz-adv-x="573" d="M55 0v453h160v-156h144v156h160v-453h-160v169h-144v-169h-160z" />
<glyph unicode="&#x43e;" horiz-adv-x="619" d="M309 470q120 0 196.5 -68t76.5 -175q0 -108 -76.5 -176t-198.5 -68q-119 0 -194.5 69t-75.5 179q0 105 82 176q73 63 190 63zM309 332q-42 0 -72.5 -30.5t-30.5 -72.5q0 -44 30.5 -74.5t73.5 -30.5t73 30.5t30 73.5q0 44 -30.5 74t-73.5 30z" />
<glyph unicode="&#x43f;" horiz-adv-x="569" d="M55 0v453h460v-453h-160v320h-140v-320h-160z" />
<glyph unicode="&#x440;" horiz-adv-x="620" d="M215 -227h-160v680h160v-50q51 65 140 65q97 0 163 -70t66 -173q0 -101 -65.5 -170.5t-162.5 -69.5q-83 0 -141 59v-271zM313 330q-43 0 -73 -30t-30 -73t30.5 -73.5t73.5 -30.5q42 0 72.5 30.5t30.5 71.5q0 44 -30 74.5t-74 30.5z" />
<glyph unicode="&#x441;" horiz-adv-x="433" d="M397 442v-136q-43 29 -83 29q-48 0 -79 -31t-31 -79q0 -47 31.5 -78t78.5 -31q44 0 83 30v-136q-56 -25 -112 -25q-104 0 -176 69t-72 169q0 105 72 174.5t180 69.5q58 0 108 -25z" />
<glyph unicode="&#x442;" horiz-adv-x="428" d="M132 0v320h-120v133h404v-133h-120v-320h-164z" />
<glyph unicode="&#x443;" horiz-adv-x="608" d="M219 61l-219 392h186l121 -232l118 232h183l-364 -680h-179z" />
<glyph unicode="&#x444;" horiz-adv-x="847" d="M347 -227v234q-34 -15 -51 -19.5t-46 -4.5q-95 0 -154 67.5t-59 176.5q0 108 59 175.5t154 67.5q45 0 97 -25v174h154v-174q52 25 97 25q95 0 154 -67.5t59 -175.5q0 -100 -55 -172q-56 -72 -158 -72q-29 0 -46 4.5t-51 19.5v-234h-154zM347 147v158q-21 17 -32.5 22 t-31.5 5q-39 0 -62.5 -29t-23.5 -76q0 -48 23.5 -77t62.5 -29q20 0 31.5 5t32.5 21zM501 305v-158q21 -16 32.5 -21t31.5 -5q39 0 62.5 29t23.5 77q0 47 -23.5 76t-62.5 29q-20 0 -31.5 -5t-32.5 -22z" />
<glyph unicode="&#x445;" horiz-adv-x="656" d="M226 246l-184 207h209l78 -93l80 93h208l-188 -207l227 -246h-212l-116 135l-116 -135h-212z" />
<glyph unicode="&#x446;" horiz-adv-x="575" d="M55 0v453h160v-320h140v320h160v-320h50v-261h-149v128h-361z" />
<glyph unicode="&#x447;" horiz-adv-x="536" d="M321 0v100q-40 -8 -72 -8q-155 0 -195 91q-20 49 -20 142v128h160v-145q0 -48 15 -65.5t55 -17.5q30 0 57 11v217h160v-453h-160z" />
<glyph unicode="&#x448;" horiz-adv-x="827" d="M55 0v453h164v-320h116v320h158v-320h115v320h164v-453h-717z" />
<glyph unicode="&#x449;" horiz-adv-x="833" d="M55 0v453h164v-320h116v320h158v-320h115v320h164v-320h50v-261h-149v128h-618z" />
<glyph unicode="&#x44a;" horiz-adv-x="559" d="M99 0v320h-100v133h260v-129h74q106 0 147 -28q62 -41 62 -130q0 -80 -49.5 -123t-142.5 -43h-251zM259 104h63q41 0 59 13.5t18 44.5q0 57 -75 57h-65v-115z" />
<glyph unicode="&#x44b;" horiz-adv-x="771" d="M55 0v453h160v-129h74q106 0 147 -28q62 -41 62 -130q0 -80 -49.5 -123t-142.5 -43h-251zM215 104h63q41 0 59 13.5t18 44.5q0 57 -75 57h-65v-115zM549 0v453h168v-453h-168z" />
<glyph unicode="&#x44c;" horiz-adv-x="514" d="M55 0v453h160v-129h74q106 0 147 -28q62 -41 62 -130q0 -80 -49.5 -123t-142.5 -43h-251zM215 104h63q41 0 59 13.5t18 44.5q0 57 -75 57h-65v-115z" />
<glyph unicode="&#x44d;" horiz-adv-x="525" d="M118 178v101h202q-19 35 -47.5 50t-75.5 15q-38 0 -65.5 -5.5t-79.5 -24.5v132q93 24 179 24q122 0 190 -69q67 -67 67 -174q0 -56 -20 -105t-55 -80q-68 -59 -203 -59q-93 0 -170 23v129q84 -26 148 -26q104 0 133 69h-203z" />
<glyph unicode="&#x44e;" horiz-adv-x="813" d="M55 0v453h160v-161h63q24 71 60 105q70 68 185 68q112 0 183 -66.5t71 -172.5t-71 -172.5t-183 -66.5q-194 0 -246 178h-62v-165h-160zM523 327q-44 0 -71.5 -27.5t-27.5 -72.5q0 -46 27 -74t72 -28q44 0 71 27.5t27 73.5t-27 73.5t-71 27.5z" />
<glyph unicode="&#x44f;" horiz-adv-x="543" d="M324 0v142l-9 1l-113 -143h-183l158 168q-69 7 -105 41t-36 92q0 90 69 127q43 25 130 25h253v-453h-164zM324 238v115h-55q-40 0 -57 -13t-17 -43q0 -31 17.5 -45t55.5 -14h56z" />
<glyph unicode="&#x450;" horiz-adv-x="572" d="M536 197h-337q1 -102 97 -102q29 0 46.5 9.5t32.5 33.5h154q-15 -51 -40 -80q-65 -76 -193 -76q-118 0 -188.5 65.5t-70.5 175.5q0 112 68 177.5t184 65.5t181.5 -67.5t65.5 -185.5v-16zM203 290h184q-8 34 -33 53.5t-61 19.5q-37 0 -60.5 -19t-29.5 -54zM146 656l102 73 l126 -154l-74 -55z" />
<glyph unicode="&#x451;" horiz-adv-x="572" d="M536 197h-337q1 -102 97 -102q29 0 46.5 9.5t32.5 33.5h154q-15 -51 -40 -80q-65 -76 -193 -76q-118 0 -188.5 65.5t-70.5 175.5q0 112 68 177.5t184 65.5t181.5 -67.5t65.5 -185.5v-16zM203 290h184q-8 34 -33 53.5t-61 19.5q-37 0 -60.5 -19t-29.5 -54zM172 696 q36 0 61.5 -25t25.5 -61t-25.5 -61.5t-60.5 -25.5q-37 0 -62 25.5t-25 62.5q0 35 25.5 60t60.5 25zM399 696q36 0 61.5 -25t25.5 -61t-25.5 -61.5t-60.5 -25.5q-37 0 -62 25.5t-25 62.5q0 35 25.5 60t60.5 25z" />
<glyph unicode="&#x452;" horiz-adv-x="562" d="M52 0v544h-54v89h54v99h168v-99h132v-89h-132v-147q37 38 67 53t71 15q71 0 110.5 -46t39.5 -130v-300q0 -52 -9.5 -91t-37.5 -106h-159q41 130 41 201v263q0 68 -56 68q-67 0 -67 -89v-235h-168z" />
<glyph unicode="&#x453;" horiz-adv-x="414" d="M55 0v453h343v-133h-183v-320h-160zM373 656l-154 -136l-74 55l126 154z" />
<glyph unicode="&#x454;" horiz-adv-x="525" d="M407 178h-203q29 -69 133 -69q64 0 148 26v-129q-77 -23 -171 -23q-134 0 -202 59q-35 31 -55 80t-20 105q0 107 67 174q68 69 191 69q85 0 178 -24v-132q-52 19 -79.5 24.5t-65.5 5.5q-47 0 -75.5 -15t-47.5 -50h202v-101z" />
<glyph unicode="&#x455;" horiz-adv-x="450" d="M410 440l-54 -104q-44 22 -87 22q-21 0 -35 -9t-14 -23q0 -15 13.5 -22t58.5 -17q132 -26 132 -134q0 -77 -59 -123.5t-157 -46.5q-93 0 -181 52l58 113q69 -46 128 -46q22 0 36 10t14 26t-13.5 24t-54.5 17q-72 15 -102.5 44t-30.5 82q0 76 54 120t148 44q77 0 146 -29z " />
<glyph unicode="&#x456;" horiz-adv-x="269" d="M215 453v-453h-160v453h160zM135 717q37 0 63.5 -26.5t26.5 -63.5t-26.5 -63.5t-63.5 -26.5q-38 0 -64 26.5t-26 64.5q0 37 26.5 63t63.5 26z" />
<glyph unicode="&#x457;" horiz-adv-x="269" d="M215 453v-453h-160v453h160zM21 696q36 0 61.5 -25t25.5 -61t-25.5 -61.5t-60.5 -25.5q-37 0 -62 25.5t-25 62.5q0 35 25.5 60t60.5 25zM248 696q36 0 61.5 -25t25.5 -61t-25.5 -61.5t-60.5 -25.5q-37 0 -62 25.5t-25 62.5q0 35 25.5 60t60.5 25z" />
<glyph unicode="&#x458;" horiz-adv-x="269" d="M215 453v-680h-160v680h160zM135 717q37 0 63.5 -26.5t26.5 -63.5t-26.5 -63.5t-63.5 -26.5q-38 0 -64 26.5t-26 64.5q0 37 26.5 63t63.5 26z" />
<glyph unicode="&#x459;" horiz-adv-x="797" d="M337 0v320h-93q-8 -126 -20 -180q-29 -141 -187 -141q-12 0 -37 1v139q13 -2 20 -2q29 0 43.5 25.5t19.5 83.5q8 80 12 207h402v-129h74q106 0 147 -28q62 -41 62 -130q0 -80 -49.5 -123t-142.5 -43h-251zM497 104h63q41 0 59 13.5t18 44.5q0 57 -75 57h-65v-115z" />
<glyph unicode="&#x45a;" horiz-adv-x="818" d="M55 0v453h160v-138h144v138h160v-129h74q104 0 147 -29q62 -41 62 -130q0 -80 -49.5 -122.5t-142.5 -42.5h-251v197h-144v-197h-160zM519 104h63q41 0 59 13.5t18 43.5q0 58 -75 58h-65v-115z" />
<glyph unicode="&#x45b;" horiz-adv-x="562" d="M52 0v544h-54v89h54v99h168v-99h128v-89h-128v-147q38 39 67.5 53.5t71.5 14.5q71 0 110 -46t39 -130v-289h-165v256q0 68 -56 68q-67 0 -67 -89v-235h-168z" />
<glyph unicode="&#x45c;" horiz-adv-x="529" d="M55 0v453h160v-198l133 198h172l-160 -218l177 -235h-182l-140 198v-198h-160zM428 656l-154 -136l-74 55l126 154z" />
<glyph unicode="&#x45d;" horiz-adv-x="562" d="M55 0v453h157v-239l140 239h156v-453h-157v237l-140 -237h-156zM168 656l102 73l126 -154l-74 -55z" />
<glyph unicode="&#x45e;" horiz-adv-x="608" d="M219 61l-219 392h186l121 -232l118 232h183l-364 -680h-179zM376 694h103q-4 -61 -26 -95q-47 -72 -149 -72q-104 0 -150 72q-22 37 -25 95h102q10 -72 73 -72q33 0 50.5 17t21.5 55z" />
<glyph unicode="&#x45f;" horiz-adv-x="569" d="M55 0v453h160v-320h140v320h160v-453h-156v-128h-149v128h-155z" />
<glyph unicode="&#x490;" horiz-adv-x="490" d="M70 0v667h254v71h153v-218h-234v-520h-173z" />
<glyph unicode="&#x491;" horiz-adv-x="414" d="M55 0v453h198v72h145v-205h-183v-320h-160z" />
<glyph unicode="&#x492;" horiz-adv-x="496" d="M70 0v248h-62v140h62v279h413v-147h-233v-132h138v-140h-138v-248h-180z" />
<glyph unicode="&#x493;" horiz-adv-x="414" d="M54 0v117h-47v120h47v216h344v-133h-184v-83h103v-120h-103v-117h-160z" />
<glyph unicode="&#x496;" horiz-adv-x="977" d="M883 147h102v-275h-154v128h-51l-178 272h-28v-272h-170v272h-28l-179 -272h-207l243 342l-221 325h194l164 -260h34v260h170v-260h34l164 260h193l-220 -325z" />
<glyph unicode="&#x497;" horiz-adv-x="764" d="M679 133h96v-261h-149v128h-28l-125 180h-15v-180h-153v180h-15l-125 -180h-177l171 235l-154 218h170l112 -174h18v174h153v-174h18l112 174h171l-154 -218z" />
<glyph unicode="&#x49a;" horiz-adv-x="663" d="M561 147h106v-275h-154v128h-53l-217 312v-312h-173v667h173v-310l209 310h199l-239 -325z" />
<glyph unicode="&#x49b;" horiz-adv-x="529" d="M436 133h98v-261h-149v128h-30l-140 197v-197h-160v453h160v-198l133 198h172l-160 -218z" />
<glyph unicode="&#x49c;" horiz-adv-x="707" d="M70 0v667h173v-267h39v151h73v-149l142 265h199l-193 -325l215 -342h-213l-150 267v-147h-73v145h-39v-265h-173z" />
<glyph unicode="&#x49d;" horiz-adv-x="571" d="M55 0v453h160v-154h35v89h58v-88l82 153h173l-130 -217l146 -236h-182l-89 171v-109h-58v109h-35v-171h-160z" />
<glyph unicode="&#x4a2;" horiz-adv-x="737" d="M667 147h56v-275h-154v128h-75v274h-251v-274h-173v667h173v-258h251v258h173v-520z" />
<glyph unicode="&#x4a3;" horiz-adv-x="573" d="M519 133h44v-261h-149v128h-55v169h-144v-169h-160v453h160v-156h144v156h160v-320z" />
<glyph unicode="&#x4ae;" horiz-adv-x="623" d="M224 0v286l-228 381h204l113 -223l112 223h203l-227 -381v-286h-177z" />
<glyph unicode="&#x4af;" horiz-adv-x="545" d="M193 32l-198 421h183l100 -288l94 288h178l-187 -421v-259h-170v259z" />
<glyph unicode="&#x4b0;" horiz-adv-x="640" d="M229 0v112h-98v140h98v69l-241 346h207l126 -182l121 182h210l-250 -346v-69h107v-140h-107v-112h-173z" />
<glyph unicode="&#x4b1;" horiz-adv-x="566" d="M199 -120h-106v120h106v41l-199 411h184l100 -279l102 279h180l-198 -413v-39h103v-120h-103v-107h-169v107z" />
<glyph unicode="&#x4b2;" horiz-adv-x="711" d="M607 147h109v-275h-154v128h-60l-143 217l-149 -217h-210l261 356l-213 311h213l99 -173l104 173h213l-218 -311z" />
<glyph unicode="&#x4b3;" horiz-adv-x="656" d="M534 133h103v-261h-149v128h-43l-116 134l-117 -134h-211l226 246l-184 207h209l78 -94l80 94h207l-187 -207z" />
<glyph unicode="&#x4b6;" horiz-adv-x="661" d="M507 0h-89v189q-66 -9 -108 -9q-180 0 -240 102q-34 55 -34 176v209h173v-200q0 -45 4 -65.5t17 -36.5q29 -38 98 -38q45 0 90 12v328h173v-520h70v-275h-154v128z" />
<glyph unicode="&#x4b7;" horiz-adv-x="536" d="M389 0h-68v100q-39 -8 -72 -8q-155 0 -195 91q-20 49 -20 142v128h160v-145q0 -48 15 -65.5t55 -17.5q30 0 57 11v217h160v-320h57v-261h-149v128z" />
<glyph unicode="&#x4b8;" horiz-adv-x="661" d="M351 181v-119h-73v118q-106 9 -164 52q-42 32 -60 83.5t-18 141.5v210h173v-200q0 -46 4 -66.5t17 -36.5q16 -21 48 -32v180h73v-185q39 2 67 12v328h173v-667h-173v189q-44 -7 -67 -8z" />
<glyph unicode="&#x4b9;" horiz-adv-x="536" d="M286 94v-70h-58v69q-62 5 -96 17.5t-58 40.5q-40 47 -40 174v128h160v-145q0 -38 7 -53.5t27 -23.5v123h58v-127q18 2 35 9v217h160v-453h-160v101q-17 -4 -35 -7z" />
<glyph unicode="&#x4bb;" horiz-adv-x="587" d="M55 729h160v-333q32 37 64 52t81 15q84 0 131 -50q24 -24 33 -51t9 -74v-288h-160v229q0 53 -10 72q-17 35 -64 35q-40 0 -67 -30q-17 -23 -17 -63v-243h-160v729z" />
<glyph unicode="&#x4c0;" horiz-adv-x="313" d="M70 0v667h173v-667h-173z" />
<glyph unicode="&#x4cf;" horiz-adv-x="313" d="M70 0v667h173v-667h-173z" />
<glyph unicode="&#x4d8;" horiz-adv-x="799" d="M42 368h536q-2 61 -52.5 101t-124.5 40q-110 0 -170 -93l-152 76q56 95 133 140t184 45q160 0 262 -96.5t102 -246.5q0 -146 -103.5 -245t-256.5 -99q-101 0 -180.5 45t-123.5 128q-24 46 -35.5 90t-18.5 115zM567 245h-335q14 -35 26 -53q21 -28 61 -45.5t82 -17.5 t80 17t59 45q13 17 27 54z" />
<glyph unicode="&#x4d9;" horiz-adv-x="570" d="M33 255h337q-1 38 -10 59q-10 22 -30 35.5t-43 13.5q-56 0 -81 -55l-163 5q26 71 89.5 111.5t149.5 40.5q114 0 185 -65t71 -170q0 -107 -70.5 -175t-181.5 -68q-172 0 -234 153q-19 49 -19 115zM368 174h-169q6 -40 28.5 -63t57.5 -23t57 23t26 63z" />
<glyph unicode="&#x4e2;" horiz-adv-x="712" d="M70 0v667h166v-394l259 394h147v-667h-166v392l-259 -392h-147zM171 855h370v-98h-370v98z" />
<glyph unicode="&#x4e3;" horiz-adv-x="562" d="M55 0v453h157v-239l140 239h156v-453h-157v237l-140 -237h-156zM107 638h350v-98h-350v98z" />
<glyph unicode="&#x4e8;" horiz-adv-x="798" d="M399 677q157 0 259 -97t102 -246q0 -148 -103.5 -246t-260.5 -98q-76 0 -145.5 28.5t-119.5 80.5q-93 96 -93 241q0 75 33.5 144t92.5 116q96 77 235 77zM228 394h342q-17 62 -62 96t-110 34q-64 0 -108.5 -34t-61.5 -96zM573 276h-347q36 -133 173 -133q67 0 112 34.5 t62 98.5z" />
<glyph unicode="&#x4e9;" horiz-adv-x="590" d="M296 465q116 0 189 -67.5t73 -173.5q0 -105 -73.5 -171t-191.5 -66q-57 0 -110.5 21.5t-89.5 59.5q-60 66 -60 162q0 101 75 168t188 67zM193 270h205q-25 80 -103 80q-74 0 -102 -80zM397 181h-202q27 -79 100 -79q58 0 86 43q4 8 16 36z" />
<glyph unicode="&#x4ee;" horiz-adv-x="614" d="M86 0l133 236l-223 431h203l112 -272l114 272h202l-357 -667h-184zM127 855h370v-98h-370v98z" />
<glyph unicode="&#x4ef;" horiz-adv-x="608" d="M219 61l-219 392h186l121 -232l118 232h183l-364 -680h-179zM129 638h350v-98h-350v98z" />
<glyph unicode="&#x1e1e;" horiz-adv-x="485" d="M452 520h-209v-111h190v-147h-190v-262h-173v667h382v-147zM260 903q36 0 61.5 -25t25.5 -61t-25.5 -61.5t-60.5 -25.5q-37 0 -62 25.5t-25 62.5q0 35 25.5 60t60.5 25z" />
<glyph unicode="&#x1e80;" horiz-adv-x="1014" d="M181 667l116 -431l141 431h138l131 -431l126 431h181l-213 -667h-177l-121 386l-128 -386h-176l-199 667h181zM351 836l93 84l144 -137l-67 -63z" />
<glyph unicode="&#x1e81;" horiz-adv-x="907" d="M179 453l108 -239l114 239h100l114 -246l114 246h178l-237 -453h-108l-113 248l-108 -248h-108l-233 453h179zM301 656l102 73l126 -154l-74 -55z" />
<glyph unicode="&#x1e82;" horiz-adv-x="1014" d="M181 667l116 -431l141 431h138l131 -431l126 431h181l-213 -667h-177l-121 386l-128 -386h-176l-199 667h181zM635 836l-170 -116l-67 63l145 137z" />
<glyph unicode="&#x1e83;" horiz-adv-x="907" d="M179 453l108 -239l114 239h100l114 -246l114 246h178l-237 -453h-108l-113 248l-108 -248h-108l-233 453h179zM605 656l-154 -136l-74 55l126 154z" />
<glyph unicode="&#x1e84;" horiz-adv-x="1014" d="M181 667l116 -431l141 431h138l131 -431l126 431h181l-213 -667h-177l-121 386l-128 -386h-176l-199 667h181zM386 903q36 0 61.5 -25t25.5 -61t-25.5 -61.5t-60.5 -25.5q-37 0 -62 25.5t-25 62.5q0 35 25.5 60t60.5 25zM626 903q36 0 61.5 -25t25.5 -61t-25.5 -61.5 t-60.5 -25.5q-37 0 -62 25.5t-25 62.5q0 35 25.5 60t60.5 25z" />
<glyph unicode="&#x1e85;" horiz-adv-x="907" d="M179 453l108 -239l114 239h100l114 -246l114 246h178l-237 -453h-108l-113 248l-108 -248h-108l-233 453h179zM339 696q36 0 61.5 -25t25.5 -61t-25.5 -61.5t-60.5 -25.5q-37 0 -62 25.5t-25 62.5q0 35 25.5 60t60.5 25zM566 696q36 0 61.5 -25t25.5 -61t-25.5 -61.5 t-60.5 -25.5q-37 0 -62 25.5t-25 62.5q0 35 25.5 60t60.5 25z" />
<glyph unicode="&#x1ea0;" horiz-adv-x="710" d="M475 116h-239l-46 -116h-183l256 667h189l251 -667h-185zM428 248l-71 213l-73 -213h144zM355 -30q36 0 61.5 -25t25.5 -61t-25.5 -61.5t-60.5 -25.5q-37 0 -62 25.5t-25 62.5q0 35 25.5 60t60.5 25z" />
<glyph unicode="&#x1ea1;" horiz-adv-x="620" d="M406 453h160v-453h-160v50q-51 -65 -140 -65q-97 0 -163 70t-66 173q0 102 65.5 171t162.5 69q83 0 141 -59v44zM307 330q-42 0 -72.5 -30t-30.5 -72q0 -44 30 -74.5t74 -30.5q43 0 73 30.5t30 73.5t-30.5 73t-73.5 30zM310 -30q36 0 61.5 -25t25.5 -61t-25.5 -61.5 t-60.5 -25.5q-37 0 -62 25.5t-25 62.5q0 35 25.5 60t60.5 25z" />
<glyph unicode="&#x1ea2;" horiz-adv-x="710" d="M475 116h-239l-46 -116h-183l256 667h189l251 -667h-185zM428 248l-71 213l-73 -213h144zM387 738h-67v87q57 5 71 8q18 3 18 20q0 28 -38 28q-22 0 -66 -19l-23 57q64 24 106 24q47 0 77.5 -25.5t30.5 -65.5q0 -24 -14 -43.5t-37 -26.5q-16 -6 -58 -6v-38z" />
<glyph unicode="&#x1ea3;" horiz-adv-x="620" d="M406 453h160v-453h-160v50q-51 -65 -140 -65q-97 0 -163 70t-66 173q0 102 65.5 171t162.5 69q83 0 141 -59v44zM307 330q-42 0 -72.5 -30t-30.5 -72q0 -44 30 -74.5t74 -30.5q43 0 73 30.5t30 73.5t-30.5 73t-73.5 30zM342 507h-67v87q66 7 71 8q18 4 18 20q0 29 -38 29 q-20 0 -66 -20l-23 57q64 25 106 25q47 0 77.5 -25.5t30.5 -65.5q0 -35 -24.5 -56t-67.5 -21h-17v-38z" />
<glyph unicode="&#x1ea4;" horiz-adv-x="710" d="M443 865l141 134l93 -84l-148 -101l30 -18l-48 -76l-156 78l-155 -78l-48 76l203 120zM475 116h-239l-46 -116h-183l256 667h189l251 -667h-185zM428 248l-71 213l-73 -213h144z" />
<glyph unicode="&#x1ea5;" horiz-adv-x="620" d="M406 677l122 149l102 -73l-148 -132l32 -24l-71 -77l-127 98l-128 -98l-68 77l195 147zM406 453h160v-453h-160v50q-51 -65 -140 -65q-97 0 -163 70t-66 173q0 102 65.5 171t162.5 69q83 0 141 -59v44zM307 330q-42 0 -72.5 -30t-30.5 -72q0 -44 30 -74.5t74 -30.5 q43 0 73 30.5t30 73.5t-30.5 73t-73.5 30z" />
<glyph unicode="&#x1ea6;" horiz-adv-x="710" d="M186 816l-149 102l93 84l142 -135l83 49l204 -120l-48 -76l-156 78l-155 -78l-48 76zM475 116h-239l-46 -116h-183l256 667h189l251 -667h-185zM428 248l-71 213l-73 -213h144z" />
<glyph unicode="&#x1ea7;" horiz-adv-x="620" d="M150 620l-145 129l102 73l118 -146l91 68l198 -147l-71 -77l-127 98l-128 -98l-68 77zM406 453h160v-453h-160v50q-51 -65 -140 -65q-97 0 -163 70t-66 173q0 102 65.5 171t162.5 69q83 0 141 -59v44zM307 330q-42 0 -72.5 -30t-30.5 -72q0 -44 30 -74.5t74 -30.5 q43 0 73 30.5t30 73.5t-30.5 73t-73.5 30z" />
<glyph unicode="&#x1ea8;" horiz-adv-x="710" d="M479 843v66q57 5 71 8q18 3 18 20q0 28 -38 28q-22 0 -66 -19l-23 57q64 24 106 24q47 0 77.5 -25.5t30.5 -65.5q0 -24 -14 -43.5t-37 -26.5q-16 -6 -58 -6v-38h-32l44 -26l-48 -76l-156 78l-155 -78l-48 76l203 120zM475 116h-239l-46 -116h-183l256 667h189l251 -667 h-185zM428 248l-71 213l-73 -213h144z" />
<glyph unicode="&#x1ea9;" horiz-adv-x="620" d="M446 647v66q59 5 71 8q18 5 18 21q0 28 -38 28q-20 0 -66 -20l-23 57q63 25 106 25q47 0 77.5 -25.5t30.5 -65.5q0 -35 -25 -56t-66 -21h-18v-38h-39l39 -29l-71 -77l-127 98l-128 -98l-68 77l196 148zM406 453h160v-453h-160v50q-51 -65 -140 -65q-97 0 -163 70t-66 173 q0 102 65.5 171t162.5 69q83 0 141 -59v44zM307 330q-42 0 -72.5 -30t-30.5 -72q0 -44 30 -74.5t74 -30.5q43 0 73 30.5t30 73.5t-30.5 73t-73.5 30z" />
<glyph unicode="&#x1eaa;" horiz-adv-x="710" d="M475 116h-239l-46 -116h-183l256 667h189l251 -667h-185zM428 248l-71 213l-73 -213h144zM152 796l203 120l204 -120l-48 -76l-156 78l-155 -78zM243 928h-83q0 45 13 77q14 30 40.5 47.5t58.5 17.5q29 0 91 -21q45 -14 63 -14q16 0 24.5 8t13.5 28h87q-6 -56 -18 -81 q-32 -62 -106 -62q-35 0 -82 17q-50 19 -68 19q-15 0 -21.5 -7t-12.5 -29z" />
<glyph unicode="&#x1eab;" horiz-adv-x="620" d="M406 453h160v-453h-160v50q-51 -65 -140 -65q-97 0 -163 70t-66 173q0 102 65.5 171t162.5 69q83 0 141 -59v44zM307 330q-42 0 -72.5 -30t-30.5 -72q0 -44 30 -74.5t74 -30.5q43 0 73 30.5t30 73.5t-30.5 73t-73.5 30zM120 597l195 147l199 -147l-71 -77l-127 98 l-128 -98zM209 748h-76v9v5q1 53 28.5 89t68.5 36q24 0 88 -24q38 -15 59 -15q14 0 20.5 7.5t12.5 31.5h78q-8 -74 -31.5 -106.5t-69.5 -32.5q-36 0 -87 20q-46 17 -61 17q-14 0 -20 -7.5t-10 -29.5z" />
<glyph unicode="&#x1eac;" horiz-adv-x="710" d="M475 116h-239l-46 -116h-183l256 667h189l251 -667h-185zM428 248l-71 213l-73 -213h144zM152 796l203 120l204 -120l-48 -76l-156 78l-155 -78zM355 -30q36 0 61.5 -25t25.5 -61t-25.5 -61.5t-60.5 -25.5q-37 0 -62 25.5t-25 62.5q0 35 25.5 60t60.5 25z" />
<glyph unicode="&#x1ead;" horiz-adv-x="620" d="M406 453h160v-453h-160v50q-51 -65 -140 -65q-97 0 -163 70t-66 173q0 102 65.5 171t162.5 69q83 0 141 -59v44zM307 330q-42 0 -72.5 -30t-30.5 -72q0 -44 30 -74.5t74 -30.5q43 0 73 30.5t30 73.5t-30.5 73t-73.5 30zM120 597l195 147l199 -147l-71 -77l-127 98 l-128 -98zM310 -30q36 0 61.5 -25t25.5 -61t-25.5 -61.5t-60.5 -25.5q-37 0 -62 25.5t-25 62.5q0 35 25.5 60t60.5 25z" />
<glyph unicode="&#x1eae;" horiz-adv-x="710" d="M475 116h-239l-46 -116h-183l256 667h189l251 -667h-185zM428 248l-71 213l-73 -213h144zM164 884h113q13 -59 78 -59q66 0 79 59h112q-4 -72 -54.5 -113t-136.5 -41q-85 0 -135.5 41t-55.5 113zM527 970l-170 -116l-67 62l145 138z" />
<glyph unicode="&#x1eaf;" horiz-adv-x="620" d="M406 453h160v-453h-160v50q-51 -65 -140 -65q-97 0 -163 70t-66 173q0 102 65.5 171t162.5 69q83 0 141 -59v44zM307 330q-42 0 -72.5 -30t-30.5 -72q0 -44 30 -74.5t74 -30.5q43 0 73 30.5t30 73.5t-30.5 73t-73.5 30zM142 694h102q7 -41 21 -57t45 -16q39 0 55.5 15 t24.5 58h102q-3 -59 -26 -95q-45 -72 -149 -72q-103 0 -149 72q-22 34 -26 95zM484 793l-154 -137l-74 55l126 154z" />
<glyph unicode="&#x1eb0;" horiz-adv-x="710" d="M475 116h-239l-46 -116h-183l256 667h189l251 -667h-185zM428 248l-71 213l-73 -213h144zM164 884h113q13 -59 78 -59q66 0 79 59h112q-4 -72 -54.5 -113t-136.5 -41q-85 0 -135.5 41t-55.5 113zM183 964l93 85l145 -138l-68 -63z" />
<glyph unicode="&#x1eb1;" horiz-adv-x="620" d="M406 453h160v-453h-160v50q-51 -65 -140 -65q-97 0 -163 70t-66 173q0 102 65.5 171t162.5 69q83 0 141 -59v44zM307 330q-42 0 -72.5 -30t-30.5 -72q0 -44 30 -74.5t74 -30.5q43 0 73 30.5t30 73.5t-30.5 73t-73.5 30zM142 694h102q7 -41 21 -57t45 -16q39 0 55.5 15 t24.5 58h102q-3 -59 -26 -95q-45 -72 -149 -72q-103 0 -149 72q-22 34 -26 95zM156 788l102 73l126 -155l-74 -55z" />
<glyph unicode="&#x1eb2;" horiz-adv-x="710" d="M475 116h-239l-46 -116h-183l256 667h189l251 -667h-185zM428 248l-71 213l-73 -213h144zM164 884h113q13 -59 78 -59q66 0 79 59h112q-4 -72 -54.5 -113t-136.5 -41q-85 0 -135.5 41t-55.5 113zM387 863h-67v87q57 5 71 8q18 3 18 20q0 28 -38 28q-22 0 -66 -19l-23 57 q64 24 106 24q47 0 77.5 -25.5t30.5 -65.5q0 -24 -14 -43.5t-37 -26.5q-16 -6 -58 -6v-38z" />
<glyph unicode="&#x1eb3;" horiz-adv-x="620" d="M406 453h160v-453h-160v50q-51 -65 -140 -65q-97 0 -163 70t-66 173q0 102 65.5 171t162.5 69q83 0 141 -59v44zM307 330q-42 0 -72.5 -30t-30.5 -72q0 -44 30 -74.5t74 -30.5q43 0 73 30.5t30 73.5t-30.5 73t-73.5 30zM142 694h102q7 -41 21 -57t45 -16q39 0 55.5 15 t24.5 58h102q-3 -59 -26 -95q-45 -72 -149 -72q-103 0 -149 72q-22 34 -26 95zM355 663h-67v86q35 3 71 8q18 5 18 21q0 28 -38 28q-22 0 -66 -19l-23 57q65 24 106 24q47 0 77.5 -25.5t30.5 -65.5q0 -24 -14 -43.5t-37 -26.5q-16 -6 -58 -6v-38z" />
<glyph unicode="&#x1eb4;" horiz-adv-x="710" d="M475 116h-239l-46 -116h-183l256 667h189l251 -667h-185zM428 248l-71 213l-73 -213h144zM164 884h113q13 -59 78 -59q66 0 79 59h112q-4 -72 -54.5 -113t-136.5 -41q-85 0 -135.5 41t-55.5 113zM243 908h-83q0 45 13 77q14 30 40.5 47.5t58.5 17.5q29 0 91 -21 q45 -14 63 -14q16 0 24.5 8t13.5 28h87q-6 -56 -18 -81q-32 -62 -106 -62q-35 0 -82 17q-50 19 -68 19q-15 0 -21.5 -7t-12.5 -29z" />
<glyph unicode="&#x1eb5;" horiz-adv-x="620" d="M406 453h160v-453h-160v50q-51 -65 -140 -65q-97 0 -163 70t-66 173q0 102 65.5 171t162.5 69q83 0 141 -59v44zM307 330q-42 0 -72.5 -30t-30.5 -72q0 -44 30 -74.5t74 -30.5q43 0 73 30.5t30 73.5t-30.5 73t-73.5 30zM142 694h102q7 -41 21 -57t45 -16q39 0 55.5 15 t24.5 58h102q-3 -59 -26 -95q-45 -72 -149 -72q-103 0 -149 72q-22 34 -26 95zM209 727h-76v9v5q1 53 28.5 89t68.5 36q24 0 88 -24q38 -15 59 -15q14 0 20.5 7.5t12.5 31.5h78q-8 -74 -31.5 -106.5t-69.5 -32.5q-36 0 -87 20q-46 17 -61 17q-14 0 -20 -7.5t-10 -29.5z" />
<glyph unicode="&#x1eb6;" horiz-adv-x="710" d="M475 116h-239l-46 -116h-183l256 667h189l251 -667h-185zM428 248l-71 213l-73 -213h144zM164 884h113q13 -59 78 -59q66 0 79 59h112q-4 -72 -54.5 -113t-136.5 -41q-85 0 -135.5 41t-55.5 113zM355 -30q36 0 61.5 -25t25.5 -61t-25.5 -61.5t-60.5 -25.5q-37 0 -62 25.5 t-25 62.5q0 35 25.5 60t60.5 25z" />
<glyph unicode="&#x1eb7;" horiz-adv-x="620" d="M406 453h160v-453h-160v50q-51 -65 -140 -65q-97 0 -163 70t-66 173q0 102 65.5 171t162.5 69q83 0 141 -59v44zM307 330q-42 0 -72.5 -30t-30.5 -72q0 -44 30 -74.5t74 -30.5q43 0 73 30.5t30 73.5t-30.5 73t-73.5 30zM142 694h102q7 -41 21 -57t45 -16q39 0 55.5 15 t24.5 58h102q-3 -59 -26 -95q-45 -72 -149 -72q-103 0 -149 72q-22 34 -26 95zM310 -30q36 0 61.5 -25t25.5 -61t-25.5 -61.5t-60.5 -25.5q-37 0 -62 25.5t-25 62.5q0 35 25.5 60t60.5 25z" />
<glyph unicode="&#x1eb8;" horiz-adv-x="489" d="M449 520h-206v-111h195v-147h-195v-115h206v-147h-379v667h379v-147zM244 -30q36 0 61.5 -25t25.5 -61t-25.5 -61.5t-60.5 -25.5q-37 0 -62 25.5t-25 62.5q0 35 25.5 60t60.5 25z" />
<glyph unicode="&#x1eb9;" horiz-adv-x="572" d="M536 197h-337q1 -102 97 -102q29 0 46.5 9.5t32.5 33.5h154q-15 -51 -40 -80q-65 -76 -193 -76q-118 0 -188.5 65.5t-70.5 175.5q0 112 68 177.5t184 65.5t181.5 -67.5t65.5 -185.5v-16zM203 290h184q-8 34 -33 53.5t-61 19.5q-37 0 -60.5 -19t-29.5 -54zM286 -30 q36 0 61.5 -25t25.5 -61t-25.5 -61.5t-60.5 -25.5q-37 0 -62 25.5t-25 62.5q0 35 25.5 60t60.5 25z" />
<glyph unicode="&#x1eba;" horiz-adv-x="489" d="M449 520h-206v-111h195v-147h-195v-115h206v-147h-379v667h379v-147zM294 738h-67v87q57 5 71 8q18 3 18 20q0 28 -38 28q-22 0 -66 -19l-23 57q64 24 106 24q47 0 77.5 -25.5t30.5 -65.5q0 -24 -14 -43.5t-37 -26.5q-16 -6 -58 -6v-38z" />
<glyph unicode="&#x1ebb;" horiz-adv-x="572" d="M536 197h-337q1 -102 97 -102q29 0 46.5 9.5t32.5 33.5h154q-15 -51 -40 -80q-65 -76 -193 -76q-118 0 -188.5 65.5t-70.5 175.5q0 112 68 177.5t184 65.5t181.5 -67.5t65.5 -185.5v-16zM203 290h184q-8 34 -33 53.5t-61 19.5q-37 0 -60.5 -19t-29.5 -54zM318 503h-67v87 q57 5 71 8q18 3 18 20q0 28 -38 28q-22 0 -66 -19l-23 57q64 24 106 24q47 0 77.5 -25.5t30.5 -65.5q0 -24 -14 -43.5t-37 -26.5q-16 -6 -58 -6v-38z" />
<glyph unicode="&#x1ebc;" horiz-adv-x="489" d="M449 520h-206v-111h195v-147h-195v-115h206v-147h-379v667h379v-147zM153 737h-84q0 46 14 77q13 30 39.5 47.5t58.5 17.5q29 0 92 -21q43 -14 62 -14q29 0 39 36h86q-7 -59 -18 -81q-30 -62 -105 -62q-36 0 -83 17q-50 19 -68 19q-14 0 -21 -7t-12 -29z" />
<glyph unicode="&#x1ebd;" horiz-adv-x="572" d="M536 197h-337q1 -102 97 -102q29 0 46.5 9.5t32.5 33.5h154q-15 -51 -40 -80q-65 -76 -193 -76q-118 0 -188.5 65.5t-70.5 175.5q0 112 68 177.5t184 65.5t181.5 -67.5t65.5 -185.5v-16zM203 290h184q-8 34 -33 53.5t-61 19.5q-37 0 -60.5 -19t-29.5 -54zM185 525h-76v9 v5q1 53 28.5 89t68.5 36q24 0 88 -24q38 -15 59 -15q14 0 20.5 7.5t12.5 31.5h78q-8 -74 -31.5 -106.5t-69.5 -32.5q-36 0 -87 20q-46 17 -61 17q-14 0 -20 -7.5t-10 -29.5z" />
<glyph unicode="&#x1ebe;" horiz-adv-x="489" d="M353 861l143 136l93 -85l-150 -102l24 -14l-48 -76l-155 78l-156 -78l-48 76l204 120zM449 520h-206v-111h195v-147h-195v-115h206v-147h-379v667h379v-147z" />
<glyph unicode="&#x1ebf;" horiz-adv-x="572" d="M385 673l119 146l102 -73l-146 -129l27 -20l-71 -77l-128 98l-127 -98l-68 77l195 147zM536 197h-337q1 -102 97 -102q29 0 46.5 9.5t32.5 33.5h154q-15 -51 -40 -80q-65 -76 -193 -76q-118 0 -188.5 65.5t-70.5 175.5q0 112 68 177.5t184 65.5t181.5 -67.5t65.5 -185.5 v-16zM203 290h184q-8 34 -33 53.5t-61 19.5q-37 0 -60.5 -19t-29.5 -54z" />
<glyph unicode="&#x1ec0;" horiz-adv-x="489" d="M84 812l-151 103l93 84l143 -136l91 53l203 -120l-47 -76l-156 78l-156 -78l-48 76zM450 520h-207v-111h195v-147h-195v-115h207v-147h-380v667h380v-147z" />
<glyph unicode="&#x1ec1;" horiz-adv-x="572" d="M122 619l-146 130l102 73l119 -146l91 68l198 -147l-70 -77l-128 98l-127 -98l-68 77zM535 197h-337q3 -102 98 -102q29 0 46.5 9.5t32.5 33.5h154q-15 -51 -40 -80q-65 -76 -193 -76q-118 0 -188.5 65.5t-70.5 175.5q0 112 68 177.5t184 65.5t181.5 -67.5t65.5 -185.5 q0 -9 -1 -16zM203 290h183q-7 34 -32 53.5t-61 19.5q-37 0 -60.5 -19t-29.5 -54z" />
<glyph unicode="&#x1ec2;" horiz-adv-x="489" d="M388 839v67q57 5 71 8q18 3 18 20q0 28 -38 28q-22 0 -66 -19l-23 57q64 24 106 24q47 0 77.5 -25.5t30.5 -65.5q0 -24 -14 -43.5t-37 -26.5q-16 -6 -58 -6v-38h-32l40 -23l-49 -76l-155 78l-156 -78l-48 76l204 120zM449 520h-206v-111h195v-147h-195v-115h206v-147 h-379v667h379v-147z" />
<glyph unicode="&#x1ec3;" horiz-adv-x="572" d="M414 651v63q59 5 71 8q18 4 18 21q0 28 -38 28q-21 0 -66 -20l-23 57q64 25 106 25q47 0 77.5 -25.5t30.5 -65.5q0 -35 -25 -56t-66 -21h-18v-38h-34l40 -30l-71 -77l-128 98l-127 -98l-68 77l195 148zM536 197h-337q1 -102 97 -102q29 0 46.5 9.5t32.5 33.5h154 q-15 -51 -40 -80q-65 -76 -193 -76q-118 0 -188.5 65.5t-70.5 175.5q0 112 68 177.5t184 65.5t181.5 -67.5t65.5 -185.5v-16zM203 290h184q-8 34 -33 53.5t-61 19.5q-37 0 -60.5 -19t-29.5 -54z" />
<glyph unicode="&#x1ec4;" horiz-adv-x="489" d="M449 520h-206v-111h195v-147h-195v-115h206v-147h-379v667h379v-147zM56 796l204 120l203 -120l-48 -76l-155 78l-156 -78zM133 921h-84q0 46 14 77q13 30 39.5 47.5t58.5 17.5q29 0 92 -21q43 -14 62 -14q29 0 39 36h86q-7 -59 -18 -81q-30 -62 -105 -62q-36 0 -83 17 q-50 19 -68 19q-14 0 -21 -7t-12 -29z" />
<glyph unicode="&#x1ec5;" horiz-adv-x="572" d="M536 197h-337q1 -102 97 -102q29 0 46.5 9.5t32.5 33.5h154q-15 -51 -40 -80q-65 -76 -193 -76q-118 0 -188.5 65.5t-70.5 175.5q0 112 68 177.5t184 65.5t181.5 -67.5t65.5 -185.5v-16zM203 290h184q-8 34 -33 53.5t-61 19.5q-37 0 -60.5 -19t-29.5 -54zM93 597l195 147 l199 -147l-71 -77l-128 98l-127 -98zM185 744h-76v9v5q1 53 28.5 89t68.5 36q24 0 88 -24q38 -15 59 -15q14 0 20.5 7.5t12.5 31.5h78q-8 -74 -31.5 -106.5t-69.5 -32.5q-36 0 -87 20q-46 17 -61 17q-14 0 -20 -7.5t-10 -29.5z" />
<glyph unicode="&#x1ec6;" horiz-adv-x="489" d="M449 520h-206v-111h195v-147h-195v-115h206v-147h-379v667h379v-147zM56 796l204 120l203 -120l-48 -76l-155 78l-156 -78zM244 -30q36 0 61.5 -25t25.5 -61t-25.5 -61.5t-60.5 -25.5q-37 0 -62 25.5t-25 62.5q0 35 25.5 60t60.5 25z" />
<glyph unicode="&#x1ec7;" horiz-adv-x="572" d="M536 197h-337q1 -102 97 -102q29 0 46.5 9.5t32.5 33.5h154q-15 -51 -40 -80q-65 -76 -193 -76q-118 0 -188.5 65.5t-70.5 175.5q0 112 68 177.5t184 65.5t181.5 -67.5t65.5 -185.5v-16zM203 290h184q-8 34 -33 53.5t-61 19.5q-37 0 -60.5 -19t-29.5 -54zM93 597l195 147 l199 -147l-71 -77l-128 98l-127 -98zM286 -30q36 0 61.5 -25t25.5 -61t-25.5 -61.5t-60.5 -25.5q-37 0 -62 25.5t-25 62.5q0 35 25.5 60t60.5 25z" />
<glyph unicode="&#x1ec8;" horiz-adv-x="313" d="M243 667v-667h-173v667h173zM188 738h-67v87q57 5 71 8q18 3 18 20q0 28 -38 28q-22 0 -66 -19l-23 57q64 24 106 24q47 0 77.5 -25.5t30.5 -65.5q0 -24 -14 -43.5t-37 -26.5q-16 -6 -58 -6v-38z" />
<glyph unicode="&#x1ec9;" horiz-adv-x="269" d="M215 453v-453h-160v453h160zM168 521h-67v86q35 3 71 8q18 5 18 21q0 28 -38 28q-21 0 -66 -19l-23 57q64 24 106 24q47 0 77.5 -25.5t30.5 -65.5q0 -24 -14 -43.5t-37 -26.5q-16 -6 -58 -6v-38z" />
<glyph unicode="&#x1eca;" horiz-adv-x="313" d="M243 667v-667h-173v667h173zM156 -30q36 0 61.5 -25t25.5 -61t-25.5 -61.5t-60.5 -25.5q-37 0 -62 25.5t-25 62.5q0 35 25.5 60t60.5 25z" />
<glyph unicode="&#x1ecb;" horiz-adv-x="269" d="M215 453v-453h-160v453h160zM135 717q37 0 63.5 -26.5t26.5 -63.5t-26.5 -63.5t-63.5 -26.5q-38 0 -64 26.5t-26 64.5q0 37 26.5 63t63.5 26zM134 -30q36 0 61.5 -25t25.5 -61t-25.5 -61.5t-60.5 -25.5q-37 0 -62 25.5t-25 62.5q0 35 25.5 60t60.5 25z" />
<glyph unicode="&#x1ecc;" horiz-adv-x="818" d="M409 687q167 0 273 -112q96 -101 96 -243q0 -80 -32.5 -151t-92.5 -121q-101 -84 -247 -84q-158 0 -262 103t-104 259q0 75 33 145t92 120q98 84 244 84zM409 519q-77 0 -132.5 -54.5t-55.5 -130.5q0 -80 54.5 -135t133.5 -55q78 0 133 55t55 133q0 77 -55 132t-133 55z M408 -59q36 0 61.5 -25t25.5 -61t-25.5 -61.5t-60.5 -25.5q-37 0 -62 25.5t-25 62.5q0 35 25.5 60t60.5 25z" />
<glyph unicode="&#x1ecd;" horiz-adv-x="619" d="M309 470q120 0 196.5 -68t76.5 -175q0 -108 -76.5 -176t-198.5 -68q-119 0 -194.5 69t-75.5 179q0 105 82 176q73 63 190 63zM309 332q-42 0 -72.5 -30.5t-30.5 -72.5q0 -44 30.5 -74.5t73.5 -30.5t73 30.5t30 73.5q0 44 -30.5 74t-73.5 30zM309 -55q36 0 61.5 -25 t25.5 -61t-25.5 -61.5t-60.5 -25.5q-37 0 -62 25.5t-25 62.5q0 35 25.5 60t60.5 25z" />
<glyph unicode="&#x1ece;" horiz-adv-x="818" d="M409 687q167 0 273 -112q96 -101 96 -243q0 -80 -32.5 -151t-92.5 -121q-101 -84 -247 -84q-158 0 -262 103t-104 259q0 75 33 145t92 120q98 84 244 84zM409 519q-77 0 -132.5 -54.5t-55.5 -130.5q0 -80 54.5 -135t133.5 -55q78 0 133 55t55 133q0 77 -55 132t-133 55z M440 738h-67v87q57 5 71 8q18 3 18 20q0 28 -38 28q-22 0 -66 -19l-23 57q64 24 106 24q47 0 77.5 -25.5t30.5 -65.5q0 -24 -14 -43.5t-37 -26.5q-16 -6 -58 -6v-38z" />
<glyph unicode="&#x1ecf;" horiz-adv-x="619" d="M309 470q120 0 196.5 -68t76.5 -175q0 -108 -76.5 -176t-198.5 -68q-119 0 -194.5 69t-75.5 179q0 105 82 176q73 63 190 63zM309 332q-42 0 -72.5 -30.5t-30.5 -72.5q0 -44 30.5 -74.5t73.5 -30.5t73 30.5t30 73.5q0 44 -30.5 74t-73.5 30zM341 519h-67v87q59 5 71 8 q18 4 18 20q0 29 -38 29q-22 0 -66 -20l-23 57q64 25 106 25q47 0 77.5 -25.5t30.5 -65.5q0 -35 -24.5 -56t-67.5 -21h-17v-38z" />
<glyph unicode="&#x1ed0;" horiz-adv-x="818" d="M409 916l96 -56l145 138l93 -84l-153 -105l23 -13l-48 -76l-156 78l-156 -78l-47 76zM406 687q170 0 276 -112q96 -101 96 -243q0 -153 -105.5 -254.5t-263.5 -101.5q-167 0 -273 111q-45 48 -70.5 111.5t-25.5 126.5q0 156 104 259t262 103zM409 519q-77 0 -132.5 -54.5 t-55.5 -130.5q0 -80 54.5 -135t133.5 -55q78 0 133 55t55 133q0 77 -55 132t-133 55z" />
<glyph unicode="&#x1ed1;" horiz-adv-x="619" d="M407 671l116 142l101 -73l-141 -125l24 -18l-71 -77l-128 98l-127 -98l-68 77l195 147zM307 470q121 0 198 -68t77 -175t-76.5 -175.5t-196.5 -68.5q-134 0 -210 82q-62 68 -62 157q0 110 75.5 179t194.5 69zM309 332q-42 0 -72.5 -30.5t-30.5 -72.5q0 -44 30.5 -74.5 t73.5 -30.5t73 30.5t30 73.5q0 44 -30.5 74t-73.5 30z" />
<glyph unicode="&#x1ed2;" horiz-adv-x="818" d="M225 808l-150 102l93 84l143 -136l98 58l204 -120l-48 -76l-156 78l-156 -78l-47 76zM406 687q170 0 276 -112q96 -101 96 -243q0 -153 -105.5 -254.5t-263.5 -101.5q-167 0 -273 111q-45 48 -70.5 111.5t-25.5 126.5q0 156 104 259t262 103zM409 519q-77 0 -132.5 -54.5 t-55.5 -130.5q0 -80 54.5 -135t133.5 -55q78 0 133 55t55 133q0 77 -55 132t-133 55z" />
<glyph unicode="&#x1ed3;" horiz-adv-x="619" d="M140 618l-141 126l102 72l115 -141l91 69l199 -147l-71 -77l-128 98l-127 -98l-68 77zM306 470q122 0 199 -68t77 -175t-76.5 -175.5t-196.5 -68.5q-135 0 -211 82q-62 68 -62 157q0 110 75.5 179t194.5 69zM309 332q-43 0 -73.5 -30.5t-30.5 -72.5q0 -44 30.5 -74.5 t73.5 -30.5t73.5 30.5t30.5 73.5q0 44 -30.5 74t-73.5 30z" />
<glyph unicode="&#x1ed4;" horiz-adv-x="818" d="M544 837v71q57 5 71 8q18 3 18 20q0 28 -38 28q-22 0 -66 -19l-23 57q64 24 106 24q47 0 77.5 -25.5t30.5 -65.5q0 -24 -14 -43.5t-37 -26.5q-16 -6 -58 -6v-38h-40l41 -24l-48 -77l-156 79l-155 -79l-48 77l203 120zM406 687q170 0 276 -112q96 -101 96 -243 q0 -153 -105.5 -254.5t-263.5 -101.5q-167 0 -273 111q-45 48 -70.5 111.5t-25.5 126.5q0 156 104 259t262 103zM409 519q-77 0 -132.5 -54.5t-55.5 -130.5q0 -80 54.5 -135t133.5 -55q78 0 133 55t55 133q0 77 -55 132t-133 55z" />
<glyph unicode="&#x1ed5;" horiz-adv-x="619" d="M435 650v57q59 5 71 8q18 5 18 21q0 28 -38 28q-20 0 -66 -20l-23 57q63 25 106 25q47 0 77.5 -25.5t30.5 -65.5q0 -35 -25 -56t-66 -21h-18v-38h-26l31 -23l-71 -77l-128 98l-128 -98l-67 77l195 148zM307 470q121 0 198 -68t77 -175t-76.5 -175.5t-196.5 -68.5 q-134 0 -210 82q-62 68 -62 157q0 110 75.5 179t194.5 69zM309 332q-42 0 -72.5 -30.5t-30.5 -72.5q0 -44 30.5 -74.5t73.5 -30.5t73 30.5t30 73.5q0 44 -30.5 74t-73.5 30z" />
<glyph unicode="&#x1ed6;" horiz-adv-x="818" d="M409 687q167 0 273 -112q96 -101 96 -243q0 -80 -32.5 -151t-92.5 -121q-101 -84 -247 -84q-158 0 -262 103t-104 259q0 75 33 145t92 120q98 84 244 84zM409 519q-77 0 -132.5 -54.5t-55.5 -130.5q0 -80 54.5 -135t133.5 -55q78 0 133 55t55 133q0 77 -55 132t-133 55z M206 796l203 120l204 -120l-48 -76l-156 78l-156 -78zM297 927h-84q1 46 14 77q14 30 40.5 47.5t58.5 17.5q29 0 91 -21q45 -14 63 -14q16 0 24.5 8t13.5 28h87q-6 -57 -19 -81q-30 -62 -105 -62q-35 0 -82 17q-50 19 -68 19q-15 0 -22 -7t-12 -29z" />
<glyph unicode="&#x1ed7;" horiz-adv-x="619" d="M309 470q120 0 196.5 -68t76.5 -175q0 -108 -76.5 -176t-198.5 -68q-119 0 -194.5 69t-75.5 179q0 105 82 176q73 63 190 63zM309 332q-42 0 -72.5 -30.5t-30.5 -72.5q0 -44 30.5 -74.5t73.5 -30.5t73 30.5t30 73.5q0 44 -30.5 74t-73.5 30zM113 597l195 147l199 -147 l-71 -77l-128 98l-127 -98zM208 749h-76q0 29 5 51q9 41 34 65t58 24q24 0 89 -24q37 -15 58 -15q14 0 20.5 7.5t12.5 31.5h79q-5 -50 -17 -79q-24 -61 -84 -61q-33 0 -88 20q-46 18 -60 18t-20 -7.5t-11 -30.5z" />
<glyph unicode="&#x1ed8;" horiz-adv-x="818" d="M409 687q167 0 273 -112q96 -101 96 -243q0 -80 -32.5 -151t-92.5 -121q-101 -84 -247 -84q-158 0 -262 103t-104 259q0 75 33 145t92 120q98 84 244 84zM409 519q-77 0 -132.5 -54.5t-55.5 -130.5q0 -80 54.5 -135t133.5 -55q78 0 133 55t55 133q0 77 -55 132t-133 55z M206 796l203 120l204 -120l-48 -76l-156 78l-156 -78zM408 -30q36 0 61.5 -25t25.5 -61t-25.5 -61.5t-60.5 -25.5q-37 0 -62 25.5t-25 62.5q0 35 25.5 60t60.5 25z" />
<glyph unicode="&#x1ed9;" horiz-adv-x="619" d="M309 470q120 0 196.5 -68t76.5 -175q0 -108 -76.5 -176t-198.5 -68q-119 0 -194.5 69t-75.5 179q0 105 82 176q73 63 190 63zM309 332q-42 0 -72.5 -30.5t-30.5 -72.5q0 -44 30.5 -74.5t73.5 -30.5t73 30.5t30 73.5q0 44 -30.5 74t-73.5 30zM113 597l195 147l199 -147 l-71 -77l-128 98l-127 -98zM309 -30q36 0 61.5 -25t25.5 -61t-25.5 -61.5t-60.5 -25.5q-37 0 -62 25.5t-25 62.5q0 35 25.5 60t60.5 25z" />
<glyph unicode="&#x1eda;" horiz-adv-x="818" d="M581 836l-170 -116l-67 63l144 137zM750 545h-44q39 -54 55.5 -102.5t16.5 -109.5q0 -154 -105.5 -255.5t-263.5 -101.5t-263.5 101.5t-105.5 253.5t105.5 254t263.5 102q79 0 139.5 -22.5t118.5 -74.5l3 -3l50 128h122zM409 519q-77 0 -132.5 -54.5t-55.5 -130.5 q0 -80 54.5 -135t133.5 -55q78 0 133 55t55 133q0 77 -55 132t-133 55z" />
<glyph unicode="&#x1edb;" horiz-adv-x="619" d="M464 656l-154 -136l-74 55l126 154zM592 341h-38q28 -52 28 -114q0 -107 -76.5 -175.5t-195.5 -68.5q-120 0 -196.5 68.5t-76.5 175.5q0 106 76 174.5t195 68.5q132 0 207 -77l46 118h122zM309 333q-42 0 -72.5 -30.5t-30.5 -72.5q0 -44 30.5 -75t73.5 -31t73 30.5 t30 74.5q0 43 -30.5 73.5t-73.5 30.5z" />
<glyph unicode="&#x1edc;" horiz-adv-x="818" d="M237 836l93 84l144 -137l-67 -63zM750 545h-44q39 -54 55.5 -102.5t16.5 -109.5q0 -154 -105.5 -255.5t-263.5 -101.5t-263.5 101.5t-105.5 253.5t105.5 254t263.5 102q79 0 139.5 -22.5t118.5 -74.5l3 -3l50 128h122zM409 519q-77 0 -132.5 -54.5t-55.5 -130.5 q0 -80 54.5 -135t133.5 -55q78 0 133 55t55 133q0 77 -55 132t-133 55z" />
<glyph unicode="&#x1edd;" horiz-adv-x="619" d="M156 656l101 73l127 -154l-75 -55zM592 341h-38q28 -52 28 -114q0 -107 -76.5 -175.5t-195.5 -68.5q-120 0 -196.5 68.5t-76.5 175.5q0 106 76 174.5t195 68.5q132 0 207 -77l46 118h122zM309 333q-42 0 -72.5 -30.5t-30.5 -72.5q0 -44 30.5 -75t73.5 -31t73 30.5 t30 74.5q0 43 -30.5 73.5t-73.5 30.5z" />
<glyph unicode="&#x1ede;" horiz-adv-x="818" d="M440 738h-67v87q57 5 71 8q18 3 18 20q0 28 -38 28q-22 0 -66 -19l-23 57q64 24 106 24q47 0 77.5 -25.5t30.5 -65.5q0 -24 -14 -43.5t-37 -26.5q-16 -6 -58 -6v-38zM750 545h-44q39 -54 55.5 -102.5t16.5 -109.5q0 -154 -105.5 -255.5t-263.5 -101.5t-263.5 101.5 t-105.5 253.5t105.5 254t263.5 102q79 0 139.5 -22.5t118.5 -74.5l3 -3l50 128h122zM409 519q-77 0 -132.5 -54.5t-55.5 -130.5q0 -80 54.5 -135t133.5 -55q78 0 133 55t55 133q0 77 -55 132t-133 55z" />
<glyph unicode="&#x1edf;" horiz-adv-x="619" d="M341 517h-67v87q66 7 71 8q18 4 18 20q0 29 -38 29q-22 0 -66 -20l-23 57q63 25 106 25q47 0 77.5 -25.5t30.5 -65.5q0 -35 -24.5 -56t-67.5 -21h-17v-38zM592 341h-38q28 -52 28 -114q0 -107 -76.5 -175.5t-195.5 -68.5q-120 0 -196.5 68.5t-76.5 175.5q0 106 76 174.5 t195 68.5q132 0 207 -77l46 118h122zM309 333q-42 0 -72.5 -30.5t-30.5 -72.5q0 -44 30.5 -75t73.5 -31t73 30.5t30 74.5q0 43 -30.5 73.5t-73.5 30.5z" />
<glyph unicode="&#x1ee0;" horiz-adv-x="818" d="M297 737h-84q1 46 14 77q14 30 40.5 47.5t58.5 17.5q29 0 91 -21q45 -14 63 -14q16 0 24.5 8t13.5 28h87q-6 -57 -19 -81q-30 -62 -105 -62q-35 0 -82 17q-50 19 -68 19q-15 0 -22 -7t-12 -29zM750 545h-44q39 -54 55.5 -102.5t16.5 -109.5q0 -154 -105.5 -255.5 t-263.5 -101.5t-263.5 101.5t-105.5 253.5t105.5 254t263.5 102q79 0 139.5 -22.5t118.5 -74.5l3 -3l50 128h122zM409 519q-77 0 -132.5 -54.5t-55.5 -130.5q0 -80 54.5 -135t133.5 -55q78 0 133 55t55 133q0 77 -55 132t-133 55z" />
<glyph unicode="&#x1ee1;" horiz-adv-x="619" d="M208 525h-76q0 29 5 50q9 41 34 65t58 24q25 0 89 -24q37 -15 58 -15q14 0 20.5 7.5t12.5 31.5h79q-8 -74 -32 -106.5t-69 -32.5q-37 0 -88 20q-45 17 -60 17q-14 0 -20 -7.5t-11 -29.5zM592 341h-38q28 -52 28 -114q0 -107 -76.5 -175.5t-195.5 -68.5 q-120 0 -196.5 68.5t-76.5 175.5q0 106 76 174.5t195 68.5q132 0 207 -77l46 118h122zM309 333q-42 0 -72.5 -30.5t-30.5 -72.5q0 -44 30.5 -75t73.5 -31t73 30.5t30 74.5q0 43 -30.5 73.5t-73.5 30.5z" />
<glyph unicode="&#x1ee2;" horiz-adv-x="818" d="M408 -53q36 0 61.5 -25t25.5 -61t-25.5 -61.5t-60.5 -25.5q-37 0 -62 25.5t-25 62.5q0 35 25.5 60t60.5 25zM750 545h-44q39 -54 55.5 -102.5t16.5 -109.5q0 -154 -105.5 -255.5t-263.5 -101.5t-263.5 101.5t-105.5 253.5t105.5 254t263.5 102q79 0 139.5 -22.5 t118.5 -74.5l3 -3l50 128h122zM409 519q-77 0 -132.5 -54.5t-55.5 -130.5q0 -80 54.5 -135t133.5 -55q78 0 133 55t55 133q0 77 -55 132t-133 55z" />
<glyph unicode="&#x1ee3;" horiz-adv-x="619" d="M309 -30q36 0 61.5 -25t25.5 -61t-25.5 -61.5t-60.5 -25.5q-37 0 -62 25.5t-25 62.5q0 35 25.5 60t60.5 25zM592 341h-38q28 -52 28 -114q0 -107 -76.5 -175.5t-195.5 -68.5q-120 0 -196.5 68.5t-76.5 175.5q0 106 76 174.5t195 68.5q132 0 207 -77l46 118h122zM309 333 q-42 0 -72.5 -30.5t-30.5 -72.5q0 -44 30.5 -75t73.5 -31t73 30.5t30 74.5q0 43 -30.5 73.5t-73.5 30.5z" />
<glyph unicode="&#x1ee4;" horiz-adv-x="721" d="M243 667v-361q0 -58 3 -78t16 -41q30 -51 97 -51q33 0 60 14.5t41 39.5q11 19 14.5 41t3.5 75v361h173v-385q0 -73 -14.5 -118.5t-50.5 -86.5q-83 -94 -230 -94q-76 0 -139.5 26.5t-98.5 73.5q-48 63 -48 199v385h173zM360 -61q36 0 61.5 -25t25.5 -61t-25.5 -61.5 t-60.5 -25.5q-37 0 -62 25.5t-25 62.5q0 35 25.5 60t60.5 25z" />
<glyph unicode="&#x1ee5;" horiz-adv-x="592" d="M215 453v-257q0 -83 82 -83q81 0 81 83v257h160v-288q0 -90 -61.5 -137t-179.5 -47t-180 47t-62 137v288h160zM296 -62q36 0 61.5 -25t25.5 -61t-25.5 -61.5t-60.5 -25.5q-37 0 -62 25.5t-25 62.5q0 35 25.5 60t60.5 25z" />
<glyph unicode="&#x1ee6;" horiz-adv-x="721" d="M243 667v-361q0 -58 3 -78t16 -41q30 -51 97 -51q33 0 60 14.5t41 39.5q11 19 14.5 41t3.5 75v361h173v-385q0 -73 -14.5 -118.5t-50.5 -86.5q-83 -94 -230 -94q-76 0 -139.5 26.5t-98.5 73.5q-48 63 -48 199v385h173zM392 738h-67v87q57 5 71 8q18 3 18 20q0 28 -38 28 q-22 0 -66 -19l-23 57q64 24 106 24q47 0 77.5 -25.5t30.5 -65.5q0 -24 -14 -43.5t-37 -26.5q-16 -6 -58 -6v-38z" />
<glyph unicode="&#x1ee7;" horiz-adv-x="592" d="M215 453v-257q0 -83 82 -83q81 0 81 83v257h160v-288q0 -90 -61.5 -137t-179.5 -47t-180 47t-62 137v288h160zM328 534h-67v87q63 6 71 8q18 5 18 20q0 28 -38 28q-22 0 -66 -19l-23 57q64 24 106 24q47 0 77.5 -25.5t30.5 -64.5q0 -25 -14 -44.5t-37 -26.5 q-16 -6 -58 -6v-38z" />
<glyph unicode="&#x1ee8;" horiz-adv-x="721" d="M243 667v-361q0 -58 3 -78t16 -41q30 -51 97 -51q33 0 60 14.5t41 39.5q11 19 14.5 41t3.5 75v361h173v-385q0 -73 -14.5 -118.5t-50.5 -86.5q-83 -94 -230 -94q-76 0 -139.5 26.5t-98.5 73.5q-48 63 -48 199v385h173zM744 715h136l-92 -173h-110zM533 836l-170 -116 l-68 63l145 137z" />
<glyph unicode="&#x1ee9;" horiz-adv-x="592" d="M215 453v-257q0 -83 82 -83q81 0 81 83v257h160v-288q0 -90 -61.5 -137t-179.5 -47t-180 47t-62 137v288h160zM631 507h122l-91 -170h-97zM450 656l-153 -136l-75 55l127 154z" />
<glyph unicode="&#x1eea;" horiz-adv-x="721" d="M243 667v-361q0 -58 3 -78t16 -41q30 -51 97 -51q33 0 60 14.5t41 39.5q11 19 14.5 41t3.5 75v361h173v-385q0 -73 -14.5 -118.5t-50.5 -86.5q-83 -94 -230 -94q-76 0 -139.5 26.5t-98.5 73.5q-48 63 -48 199v385h173zM744 715h136l-92 -173h-110zM189 836l92 84 l145 -137l-67 -63z" />
<glyph unicode="&#x1eeb;" horiz-adv-x="592" d="M215 453v-257q0 -83 82 -83q81 0 81 83v257h160v-288q0 -90 -61.5 -137t-179.5 -47t-180 47t-62 137v288h160zM631 507h122l-91 -170h-97zM142 656l102 73l126 -154l-74 -55z" />
<glyph unicode="&#x1eec;" horiz-adv-x="721" d="M243 667v-361q0 -58 3 -78t16 -41q30 -51 97 -51q33 0 60 14.5t41 39.5q11 19 14.5 41t3.5 75v361h173v-385q0 -73 -14.5 -118.5t-50.5 -86.5q-83 -94 -230 -94q-76 0 -139.5 26.5t-98.5 73.5q-48 63 -48 199v385h173zM744 715h136l-92 -173h-110zM392 738h-67v87 q57 5 71 8q18 3 18 20q0 28 -38 28q-22 0 -66 -19l-23 57q64 24 106 24q47 0 77.5 -25.5t30.5 -65.5q0 -24 -14 -43.5t-37 -26.5q-16 -6 -58 -6v-38z" />
<glyph unicode="&#x1eed;" horiz-adv-x="592" d="M215 453v-257q0 -83 82 -83q81 0 81 83v257h160v-288q0 -90 -61.5 -137t-179.5 -47t-180 47t-62 137v288h160zM631 507h122l-91 -170h-97zM328 496h-67v87q57 5 71 8q18 3 18 20q0 28 -38 28q-22 0 -66 -19l-23 57q64 24 106 24q47 0 77.5 -25.5t30.5 -65.5 q0 -24 -14 -43.5t-37 -26.5q-16 -6 -58 -6v-38z" />
<glyph unicode="&#x1eee;" horiz-adv-x="721" d="M243 667v-361q0 -58 3 -78t16 -41q30 -51 97 -51q33 0 60 14.5t41 39.5q11 19 14.5 41t3.5 75v361h173v-385q0 -73 -14.5 -118.5t-50.5 -86.5q-83 -94 -230 -94q-76 0 -139.5 26.5t-98.5 73.5q-48 63 -48 199v385h173zM744 715h136l-92 -173h-110zM249 737h-84 q1 49 14 77q13 30 39.5 47.5t58.5 17.5q29 0 92 -21q43 -14 62 -14q29 0 39 36h87q-6 -57 -19 -81q-30 -62 -105 -62q-36 0 -83 17q-50 19 -67 19q-15 0 -22 -7t-12 -29z" />
<glyph unicode="&#x1eef;" horiz-adv-x="592" d="M215 453v-257q0 -83 82 -83q81 0 81 83v257h160v-288q0 -90 -61.5 -137t-179.5 -47t-180 47t-62 137v288h160zM631 507h122l-91 -170h-97zM195 525h-76v9v5q1 53 28.5 89t68.5 36q24 0 88 -24q38 -15 59 -15q14 0 20.5 7.5t12.5 31.5h78q-8 -74 -31.5 -106.5t-69.5 -32.5 q-36 0 -87 20q-46 17 -61 17q-14 0 -20 -7.5t-10 -29.5z" />
<glyph unicode="&#x1ef0;" horiz-adv-x="721" d="M243 667v-361q0 -58 3 -78t16 -41q30 -51 97 -51q33 0 60 14.5t41 39.5q11 19 14.5 41t3.5 75v361h173v-385q0 -73 -14.5 -118.5t-50.5 -86.5q-83 -94 -230 -94q-76 0 -139.5 26.5t-98.5 73.5q-48 63 -48 199v385h173zM744 715h136l-92 -173h-110zM360 -30q36 0 61.5 -25 t25.5 -61t-25.5 -61.5t-60.5 -25.5q-37 0 -62 25.5t-25 62.5q0 35 25.5 60t60.5 25z" />
<glyph unicode="&#x1ef1;" horiz-adv-x="592" d="M215 453v-257q0 -83 82 -83q81 0 81 83v257h160v-288q0 -90 -61.5 -137t-179.5 -47t-180 47t-62 137v288h160zM631 507h122l-91 -170h-97zM296 -30q36 0 61.5 -25t25.5 -61t-25.5 -61.5t-60.5 -25.5q-37 0 -62 25.5t-25 62.5q0 35 25.5 60t60.5 25z" />
<glyph unicode="&#x1ef2;" horiz-adv-x="640" d="M229 320l-241 347h207l126 -182l121 182h210l-250 -347v-320h-173v320zM184 836l93 84l144 -137l-67 -63z" />
<glyph unicode="&#x1ef3;" horiz-adv-x="608" d="M219 61l-219 392h186l121 -232l118 232h183l-364 -680h-179zM152 656l102 73l126 -154l-74 -55z" />
<glyph unicode="&#x1ef4;" horiz-adv-x="640" d="M229 320l-241 347h207l126 -182l121 182h210l-250 -347v-320h-173v320zM320 -30q36 0 61.5 -25t25.5 -61t-25.5 -61.5t-60.5 -25.5q-37 0 -62 25.5t-25 62.5q0 35 25.5 60t60.5 25z" />
<glyph unicode="&#x1ef5;" horiz-adv-x="608" d="M219 61l-219 392h186l121 -232l118 232h183l-364 -680h-179zM443 -30q36 0 61.5 -25t25.5 -61t-25.5 -61.5t-60.5 -25.5q-37 0 -62 25.5t-25 62.5q0 35 25.5 60t60.5 25z" />
<glyph unicode="&#x1ef6;" horiz-adv-x="640" d="M229 320l-241 347h207l126 -182l121 182h210l-250 -347v-320h-173v320zM352 738h-67v87q57 5 71 8q18 3 18 20q0 28 -38 28q-22 0 -66 -19l-23 57q64 24 106 24q47 0 77.5 -25.5t30.5 -65.5q0 -24 -14 -43.5t-37 -26.5q-16 -6 -58 -6v-38z" />
<glyph unicode="&#x1ef7;" horiz-adv-x="608" d="M219 61l-219 392h186l121 -232l118 232h183l-364 -680h-179zM336 494h-67v87q57 5 71 8q18 3 18 20q0 28 -38 28q-22 0 -66 -19l-23 57q64 24 106 24q47 0 77.5 -25.5t30.5 -65.5q0 -24 -14 -43.5t-37 -26.5q-16 -6 -58 -6v-38z" />
<glyph unicode="&#x1ef8;" horiz-adv-x="640" d="M229 320l-241 347h207l126 -182l121 182h210l-250 -347v-320h-173v320zM208 737h-83q0 45 13 77q14 30 40.5 47.5t58.5 17.5q29 0 91 -21q45 -14 63 -14q16 0 24.5 8t13.5 28h87q-6 -56 -18 -81q-32 -62 -106 -62q-35 0 -82 17q-50 19 -68 19q-15 0 -22 -7t-12 -29z" />
<glyph unicode="&#x1ef9;" horiz-adv-x="608" d="M219 61l-219 392h186l121 -232l118 232h183l-364 -680h-179zM203 525h-77v9q0 56 27.5 93t69.5 37q24 0 89 -24q38 -15 59 -15q14 0 20 7.5t12 31.5h79q-8 -74 -31.5 -106.5t-69.5 -32.5q-36 0 -87 20q-46 17 -61 17q-14 0 -20 -7.5t-10 -29.5z" />
<glyph unicode="&#x2011;" horiz-adv-x="253" d="M0 303h253v-133h-253v133z" />
<glyph unicode="&#x2012;" horiz-adv-x="600" d="M63 303h473v-133h-473v133z" />
<glyph unicode="&#x2013;" horiz-adv-x="600" d="M63 303h473v-133h-473v133z" />
<glyph unicode="&#x2014;" horiz-adv-x="767" d="M0 303h767v-133h-767v133z" />
<glyph unicode="&#x2015;" horiz-adv-x="767" d="M0 303h767v-133h-767v133z" />
<glyph unicode="&#x2017;" d="M0 -47h500v-76h-500v76zM0 -164h500v-76h-500v76z" />
<glyph unicode="&#x2018;" horiz-adv-x="345" d="M198 373h-151l163 294h102z" />
<glyph unicode="&#x2019;" horiz-adv-x="345" d="M148 667h150l-162 -294h-103z" />
<glyph unicode="&#x201a;" horiz-adv-x="345" d="M148 169h150l-162 -293h-103z" />
<glyph unicode="&#x201b;" d="M222 530l-66 167h97l91 -167h-122z" />
<glyph unicode="&#x201c;" horiz-adv-x="572" d="M424 373h-150l162 294h103zM198 373h-151l163 294h102z" />
<glyph unicode="&#x201d;" horiz-adv-x="572" d="M148 667h150l-162 -294h-103zM374 667h151l-163 -294h-102z" />
<glyph unicode="&#x201e;" horiz-adv-x="572" d="M148 169h150l-162 -293h-103zM374 169h151l-163 -293h-102z" />
<glyph unicode="&#x2020;" horiz-adv-x="600" d="M226 733h147v-148h156v-127h-156v-611h-147v611h-156v127h156v148z" />
<glyph unicode="&#x2021;" horiz-adv-x="600" d="M228 733h147v-130h155v-127h-155v-236h155v-127h-155v-266h-147v266h-157v127h157v236h-157v127h157v130z" />
<glyph unicode="&#x2022;" horiz-adv-x="667" d="M336 479q55 0 95 -41t40 -98q0 -58 -40 -99t-97 -41t-97.5 41t-40.5 98q0 59 41 99.5t99 40.5z" />
<glyph unicode="&#x2026;" horiz-adv-x="910" d="M151 188q43 0 73.5 -30t30.5 -73t-30 -73.5t-73 -30.5q-44 0 -74 30.5t-30 74.5q0 42 30.5 72t72.5 30zM454 188q43 0 73.5 -30t30.5 -73t-30 -73.5t-73 -30.5q-44 0 -74 30.5t-30 74.5q0 42 30.5 72t72.5 30zM758 188q43 0 73.5 -30t30.5 -73t-30 -73.5t-73 -30.5 q-44 0 -74 30.5t-30 74.5q0 42 30.5 72t72.5 30z" />
<glyph unicode="&#x2030;" horiz-adv-x="1324" d="M220 674q79 0 128.5 -45.5t49.5 -116.5q0 -78 -59 -127q-46 -38 -126 -38q-82 0 -131 45t-49 121q0 73 51 117t136 44zM215 586q-31 0 -53 -22t-22 -52q0 -32 22 -54t54 -22q31 0 53 22t22 53t-22 53t-54 22zM597 667h87l-387 -667h-87zM684 319q79 0 128.5 -45.5 t49.5 -116.5q0 -78 -59 -127q-46 -38 -126 -38q-82 0 -131 45.5t-49 121.5q0 72 51 116t136 44zM679 231q-31 0 -53 -22t-22 -52q0 -31 22 -53.5t54 -22.5q31 0 53 22t22 53t-22 53t-54 22zM1112 319q79 0 128.5 -45t49.5 -117q0 -78 -59 -127q-46 -38 -125 -38 q-82 0 -131 45.5t-49 121.5q0 72 51 116t135 44zM1108 231q-31 0 -53 -22t-22 -52q0 -32 22 -54t53 -22t53 22t22 53q0 32 -21.5 53.5t-53.5 21.5z" />
<glyph unicode="&#x2039;" horiz-adv-x="311" d="M157 228l114 -154l-91 -64l-152 218l152 217l88 -61z" />
<glyph unicode="&#x203a;" horiz-adv-x="311" d="M154 228l-111 156l88 61l152 -217l-152 -218l-91 64z" />
<glyph unicode="&#x203e;" d="M0 889h500v-110h-500v110z" />
<glyph unicode="&#x2044;" horiz-adv-x="173" d="M237 667h86l-386 -667h-87z" />
<glyph unicode="&#x20a3;" horiz-adv-x="747" d="M452 520h-209v-111h190v-147h-190v-262h-173v667h382v-147zM484 317h125v-52q36 60 105 60q13 0 24 -1v-114q-23 11 -51 11q-78 0 -78 -89v-132h-125v317z" />
<glyph unicode="&#x20a4;" horiz-adv-x="600" d="M30 196v71h125l-7 11q-16 20 -24 31l-10 14h-84v71h53q-6 28 -6 51q0 90 60 158q69 76 205 76q123 0 180.5 -60.5t58.5 -190.5h-175q4 24 4 31q0 35 -24 59.5t-58 24.5q-37 0 -60 -26.5t-23 -68.5q0 -23 7 -54h158v-71h-129q10 -22 15 -56h114v-71h-108q-1 -28 -8 -49 q112 -33 142 -33q41 0 43 43h108q-5 -82 -48.5 -126.5t-117.5 -44.5q-35 0 -118 25q-75 22 -112 22q-45 0 -57 -33h-114q13 69 55 112.5t97 44.5q8 20 8 32v7h-150z" />
<glyph unicode="&#x20a7;" horiz-adv-x="1118" d="M243 222v-222h-173v667h275q59 0 97 -12.5t70 -43.5q65 -62 65 -165q0 -102 -54 -162q-55 -62 -172 -62h-108zM243 361h57q49 0 72.5 20t23.5 63q0 84 -95 84h-58v-167zM756 217v-217h-125v217h-37v107h37v89h125v-89h57v-107h-57zM1094 308l-42 -73q-31 16 -61 16 q-15 0 -24.5 -6.5t-9.5 -16.5t9.5 -15t42.5 -11q95 -19 95 -95q0 -55 -42 -88.5t-112 -33.5q-66 0 -128 36l41 83q47 -32 90 -32q15 0 25 7t10 18t-10 17t-39 12q-52 10 -74 30t-22 58q0 55 39 86.5t105 31.5q55 0 107 -24z" />
<glyph unicode="&#x20ab;" horiz-adv-x="620" d="M406 733h160v-80h53v-107h-53v-546h-160v50q-51 -65 -140 -65q-97 0 -163 70t-66 173q0 101 65.5 170.5t161.5 69.5q86 0 142 -59v137h-127v107h127v80zM307 330q-42 0 -72.5 -30t-30.5 -72q0 -44 30 -74.5t74 -30.5q43 0 73 30.5t30 73.5t-30.5 73t-73.5 30zM63 -49h515 v-110h-515v110z" />
<glyph unicode="&#x20ac;" horiz-adv-x="596" d="M563 155v-157q-70 -23 -124 -23q-111 0 -204 64.5t-130 167.5h-118l62 98h36v26v13h-98l62 98h52q36 112 128.5 180.5t208.5 68.5q61 0 125 -22v-161q-56 28 -117 28q-54 0 -97.5 -25t-66.5 -69h244l-62 -98h-207v-5v-2q0 -21 1 -32h186l-63 -98h-91q26 -37 67 -58 t88 -21q59 0 118 27z" />
<glyph unicode="&#x2101;" horiz-adv-x="981" d="M306 335h-137l-27 -68h-115l154 400h116l151 -400h-117zM276 420l-38 111l-38 -111h76zM709 667h86l-387 -667h-86zM934 376l-45 -87q-34 30 -67 30q-18 0 -29.5 -8.5t-11.5 -22.5q0 -13 12 -20.5t56 -20.5q53 -16 76 -42.5t23 -71.5q0 -68 -41.5 -106t-115.5 -38 q-75 0 -140 48l47 88q46 -42 90 -42q21 0 33.5 9.5t12.5 25.5q0 15 -12 23.5t-47 18.5q-58 18 -75 33q-32 27 -32 80q0 61 38 99t99 38q66 0 129 -34z" />
<glyph unicode="&#x2105;" horiz-adv-x="1052" d="M378 709v-137q-43 29 -83 29q-48 0 -79 -31t-31 -79q0 -47 31.5 -78t78.5 -31q45 0 83 31v-136q-55 -26 -112 -26q-104 0 -176 69t-72 169q0 106 71.5 175.5t180.5 69.5q58 0 108 -25zM768 470q120 0 196.5 -68t76.5 -175q0 -108 -77 -176t-199 -68q-119 0 -194.5 69 t-75.5 179q0 105 82 176q73 63 191 63zM768 332q-43 0 -73.5 -30.5t-30.5 -72.5q0 -44 30.5 -74.5t73.5 -30.5t73.5 30.5t30.5 73.5q0 44 -30 74t-74 30zM547 667h87l-270 -667h-86z" />
<glyph unicode="&#x2113;" d="M273 267l-11 -12q-19 -132 -19 -164q0 -25 12 -25q7 0 14 11q1 2 10 18q1 3 6 11q12 24 27 24q24 0 24 -29q0 -46 -36.5 -86t-79.5 -40q-50 0 -76.5 44.5t-27.5 127.5q-26 -34 -35 -34q-8 0 -14.5 13t-6.5 28q0 13 5.5 22t28.5 36q6 7 31 41q27 169 76 283 q56 130 146 130q43 0 69.5 -29.5t26.5 -78.5q0 -65 -46 -143q-24 -43 -39.5 -61.5t-84.5 -86.5zM273 341q38 44 68 106.5t30 98.5q0 32 -20 32q-44 0 -78 -237z" />
<glyph unicode="&#x2116;" horiz-adv-x="1115" d="M70 0v667h158l304 -422v422h164v-667h-158l-304 405v-405h-164zM943 492q76 0 124 -43.5t48 -112.5q0 -68 -48 -112t-124 -44q-77 0 -125 43.5t-48 114.5q0 67 48.5 110.5t124.5 43.5zM943 396q-26 0 -43.5 -17t-17.5 -42q0 -27 17 -44t43 -17t43.5 17t17.5 43t-17 43 t-43 17zM770 38v109h345v-109h-345z" />
<glyph unicode="&#x2117;" horiz-adv-x="760" d="M377 267v-134h-121v400h174q69 0 106 -36q37 -35 37 -92q0 -84 -67 -119q-37 -19 -117 -19h-12zM377 360h13q59 0 59 42q0 41 -59 41h-13v-83zM385 682q140 0 240.5 -103t100.5 -246q0 -144 -101.5 -246t-244.5 -102t-245 102t-102 246q0 146 102 247.5t250 101.5z M384 619q-118 0 -200 -83t-82 -203q0 -118 81.5 -202t196.5 -84q114 0 195 84t81 202q0 117 -80.5 201.5t-191.5 84.5z" />
<glyph unicode="&#x2122;" horiz-adv-x="777" d="M183 578v-291h-104v291h-79v89h263v-89h-80zM283 287l63 380h102l73 -195l77 195h103l56 -380h-104l-26 206l-85 -206h-45l-81 206l-30 -206h-103z" />
<glyph unicode="&#x2126;" horiz-adv-x="666" d="M28 0v115h137q-57 36 -86 75q-51 70 -51 176q0 137 86.5 227t218.5 90t218 -90t86 -227q0 -88 -32 -146.5t-105 -104.5h137v-115h-269v102q55 32 85 72q50 69 50 178q0 85 -37 140q-52 76 -133 76q-71 0 -120 -59q-51 -59 -51 -157q0 -90 32.5 -150t103.5 -100v-102h-270 z" />
<glyph unicode="&#x212e;" horiz-adv-x="597" d="M531 250h-373l-1 -105q16 -52 40 -72q38 -35 107 -35q120 0 168 104h44q-46 -148 -213 -148q-109 0 -170.5 69t-61.5 191q0 123 63 195.5t170 72.5q72 0 126.5 -34t79.5 -94q18 -47 21 -144zM458 285v93q-8 24 -23 41q-50 59 -131 59q-54 0 -86.5 -22.5t-57.5 -77.5v-93 h298z" />
<glyph unicode="&#x2202;" d="M47 524l20 138q195 -19 299 -107q122 -103 122 -282q0 -132 -65 -206.5t-181 -74.5q-102 0 -167 65.5t-65 167.5q0 88 57.5 147t143.5 59q67 0 107 -30q-49 109 -271 123zM249 299q-34 0 -57 -24t-23 -59q0 -34 23 -58.5t55 -24.5q33 0 56 24t23 59t-22.5 59t-54.5 24z " />
<glyph unicode="&#x2205;" horiz-adv-x="618" d="M439 667l48 -25l-48 -88q113 -80 113 -204q0 -102 -72 -172.5t-176 -70.5q-46 0 -79 16l-63 -123l-48 25l61 122q-108 80 -108 202q0 102 71 172.5t173 70.5q39 0 81 -14zM416 502l-165 -330q32 -8 58 -8q77 0 132 54.5t55 130.5q0 47 -21.5 89t-58.5 64zM200 198 l166 329q-28 8 -54 8q-78 0 -133.5 -54.5t-55.5 -130.5q0 -90 77 -152z" />
<glyph unicode="&#x2206;" horiz-adv-x="662" d="M9 0l228 667h186l230 -667h-644zM237 155h184l-90 323z" />
<glyph unicode="&#x220f;" horiz-adv-x="667" d="M15 750h637v-143h-71v-554h71v-143h-290v143h59v554h-175v-554h58v-143h-289v143h72v554h-72v143z" />
<glyph unicode="&#x2211;" horiz-adv-x="667" d="M633 750v-268h-161l-20 103h-218l238 -241l-236 -269h225l11 110h170v-275h-609v190l227 244l-227 216v190h600z" />
<glyph unicode="&#x2212;" horiz-adv-x="600" d="M63 390h473v-113h-473v113z" />
<glyph unicode="&#x2218;" d="M253 480q56 0 95.5 -41t39.5 -99t-40 -99t-97 -41t-97.5 41t-40.5 99t40.5 99t99.5 41zM252 432q-39 0 -65.5 -27t-26.5 -65t26.5 -65t64.5 -27q37 0 63.5 27t26.5 65t-26 65t-63 27z" />
<glyph unicode="&#x2219;" horiz-adv-x="303" d="M151 340q43 0 73.5 -30t30.5 -73t-30 -73.5t-73 -30.5q-44 0 -74 30.5t-30 74.5q0 42 30.5 72t72.5 30z" />
<glyph unicode="&#x221a;" horiz-adv-x="667" d="M667 827v-148h-156l-159 -679h-211l-48 236h-93v148h194l21 -90q11 -69 15 -145h10q11 141 49 297l91 381h287z" />
<glyph unicode="&#x221e;" horiz-adv-x="667" d="M337 260q-72 -82 -158 -82q-71 0 -116.5 45.5t-45.5 116.5q0 70 45.5 115.5t115.5 45.5q82 0 153 -81q67 81 157 81q71 0 116.5 -45t45.5 -116t-45 -116.5t-115 -45.5q-87 0 -153 82zM394 339q37 -51 76 -51q23 0 38.5 15t15.5 37q0 21 -16 36t-39 15q-38 0 -75 -52z M273 339q-37 52 -76 52q-23 0 -38.5 -15t-15.5 -37q0 -21 16 -36t39 -15q38 0 75 51z" />
<glyph unicode="&#x222b;" d="M20 -240l29 170q25 -10 45 -10q42 0 55 35q5 12 5 116v324q0 125 1.5 151.5t9.5 58.5q18 68 76 106.5t143 38.5q41 0 97 -10l-29 -170q-27 10 -45 10q-41 0 -55 -34q-5 -12 -5 -57v-380q0 -155 -6 -187q-15 -83 -73 -127t-153 -44q-40 0 -95 9z" />
<glyph unicode="&#x223c;" d="M97 221l-90 76q30 78 67.5 114t88.5 36q20 0 44 -7.5t103 -37.5q21 -7 33 -7q31 0 60 54l90 -76q-31 -75 -62 -108q-41 -41 -95 -41q-31 0 -112 32q-49 20 -68 20q-30 0 -59 -55z" />
<glyph unicode="&#x2243;" d="M493 290v-150h-486v150h486zM97 348l-90 64q30 78 67.5 113.5t88.5 35.5q20 0 44 -7t103 -37q21 -7 33 -7q17 0 30 9t30 33l90 -64q-33 -81 -69 -115t-88 -34q-33 0 -112 31q-49 20 -69 20q-28 0 -58 -42z" />
<glyph unicode="&#x2248;" d="M97 348l-90 64q30 78 67.5 113.5t88.5 35.5q20 0 44 -7t103 -37q21 -7 33 -7q17 0 30 9t30 33l90 -64q-33 -81 -69 -115t-88 -34q-33 0 -112 31q-49 20 -69 20q-28 0 -58 -42zM97 107l-90 63q30 78 67.5 114t88.5 36q20 0 42 -6.5t105 -37.5q17 -7 32 -7q18 0 31 8.5 t30 32.5l90 -63q-33 -81 -69 -115t-88 -34q-34 0 -112 31q-49 20 -69 20q-28 0 -58 -42z" />
<glyph unicode="&#x2260;" d="M251 498l72 133l115 -65l-39 -68h67v-158h-131l-37 -65h168v-158h-225l-60 -107l-116 65l27 42h-59v158h117l37 65h-153v158h217z" />
<glyph unicode="&#x2264;" d="M466 672v-177l-227 -60l226 -59l1 -176l-433 157v158zM466 174v-166h-433v166h433z" />
<glyph unicode="&#x2265;" d="M33 200l1 176l226 59l-227 60v177l433 -157v-158zM33 8v166h433v-166h-433z" />
<glyph unicode="&#xe000;" horiz-adv-x="455" d="M0 455h455v-455h-455v455z" />
<glyph unicode="&#xf6be;" horiz-adv-x="269" d="M215 453v-680h-160v680h160z" />
</font>
</defs>
</svg>
