<?xml version="1.0" standalone="no"?>
<!DOCTYPE svg PUBLIC "-//W3C//DTD SVG 1.1//EN" "http://www.w3.org/Graphics/SVG/1.1/DTD/svg11.dtd" >
<svg xmlns="http://www.w3.org/2000/svg">
<metadata></metadata>
<defs>
<font id="louis_vuittondemi" horiz-adv-x="567" >
<font-face units-per-em="1000" ascent="749" descent="-251" />
<missing-glyph horiz-adv-x="250" />
<glyph unicode="ff" horiz-adv-x="572" d="M183 328v-328h-121v328h-47v105h47v139q0 85 40 131q52 57 129 57q30 0 63 -14v-110q-34 15 -55 15q-15 0 -29 -8.5t-19 -21.5q-8 -17 -8 -67v-121h71v-105h-71zM462 328v-328h-121v328h-47v105h47v139q0 85 40 131q52 57 129 57q31 0 64 -14v-110q-34 15 -55 15 q-16 0 -30 -8.5t-19 -21.5q-8 -17 -8 -67v-121h112v-105h-112z" />
<glyph unicode="fi" horiz-adv-x="518" d="M183 328v-328h-121v328h-47v105h47v139q0 86 40 132q52 57 128 57q32 0 64 -15v-110q-35 16 -55 16q-36 0 -47 -31q-9 -19 -9 -67v-121h111v-105h-111zM462 433v-433h-121v433h121zM402 689q30 0 51 -21t21 -52q0 -30 -21 -51.5t-51 -21.5q-31 0 -52 21.5t-21 52.5 q0 29 21.5 50.5t51.5 21.5z" />
<glyph unicode="fl" horiz-adv-x="521" d="M183 328v-328h-121v328h-47v105h47v139q0 86 40 132q52 57 128 57q32 0 64 -15v-110q-35 16 -55 16q-36 0 -47 -31q-9 -19 -9 -67v-121h111v-105h-111zM462 749v-749h-121v749h121z" />
<glyph unicode="ffi" horiz-adv-x="798" d="M183 328v-328h-121v328h-47v105h47v139q0 86 40 132q52 57 128 57q32 0 64 -15v-110q-35 16 -55 16q-15 0 -29 -8.5t-19 -21.5q-8 -17 -8 -68v-121h71v-105h-71zM462 328v-328h-121v328h-47v105h47v139q0 86 40 132q52 57 129 57q32 0 64 -15v-110q-36 16 -55 16 q-16 0 -30 -8.5t-19 -21.5q-8 -17 -8 -68v-121h112v-105h-112zM742 433v-433h-121v433h121zM680 689q31 0 52 -21.5t21 -51.5t-21.5 -51.5t-50.5 -21.5q-31 0 -52 21.5t-21 52.5q0 29 21.5 50.5t50.5 21.5z" />
<glyph unicode="ffl" horiz-adv-x="800" d="M183 328v-328h-121v328h-47v105h47v139q0 85 40 131q52 57 129 57q30 0 63 -14v-110q-34 15 -55 15q-15 0 -29 -8.5t-19 -21.5q-8 -17 -8 -67v-121h71v-105h-71zM462 328v-328h-121v328h-47v105h47v139q0 85 40 131q52 57 129 57q31 0 64 -14v-110q-34 15 -55 15 q-16 0 -30 -8.5t-19 -21.5q-8 -17 -8 -67v-121h112v-105h-112zM742 749v-749h-121v749h121z" />
<glyph unicode=" "  horiz-adv-x="250" />
<glyph unicode="&#x09;" horiz-adv-x="250" />
<glyph unicode="&#xa0;" horiz-adv-x="250" />
<glyph unicode="!" horiz-adv-x="250" d="M125 144q33 0 56 -23t23 -55q0 -33 -23 -56t-55 -23q-33 0 -56 23t-23 56q0 32 23 55t55 23zM63 191v476h125v-476h-125z" />
<glyph unicode="&#x22;" horiz-adv-x="393" d="M59 392l-19 275h126l-19 -275h-88zM245 392l-18 275h126l-19 -275h-89z" />
<glyph unicode="#" horiz-adv-x="545" d="M534 485v-94h-104l-13 -102h93v-94h-105l-25 -205l-94 13l24 192h-106l-26 -205l-95 13l24 193h-95v93h108l13 102h-97v94h108l24 192l94 -13l-22 -179h105l24 192l94 -13l-23 -179h94zM333 391h-105l-13 -102h106z" />
<glyph unicode="$" d="M324 761v-96q90 -10 154 -75l-66 -84q-48 54 -108 54q-35 0 -59.5 -20.5t-24.5 -48.5q0 -32 38 -58q11 -8 71 -32q83 -34 120 -68q51 -46 51 -125q0 -78 -46.5 -132t-129.5 -74v-101h-62v97q-136 6 -215 121l74 77q65 -88 150 -88q42 0 70.5 25.5t28.5 62.5 q0 32 -19.5 51.5t-73.5 41.5q-92 38 -124 64q-58 44 -58 126q0 47 22.5 89t60.5 67q32 22 84 30v96h62z" />
<glyph unicode="%" horiz-adv-x="775" d="M200 675q73 0 121 -44.5t48 -112.5q0 -69 -48.5 -114t-122.5 -45q-73 0 -120.5 45t-47.5 115q0 67 48.5 111.5t121.5 44.5zM199 603q-35 0 -60.5 -25t-25.5 -60q0 -37 25.5 -62.5t61.5 -25.5q35 0 60.5 25.5t25.5 61.5q0 35 -25.5 60.5t-61.5 25.5zM559 689l53 -30 l-397 -687l-53 31zM577 305q72 0 120 -45t48 -112q0 -68 -48.5 -113t-121.5 -45t-120.5 45t-47.5 115q0 66 48.5 110.5t121.5 44.5zM576 234q-35 0 -60.5 -25t-25.5 -60q0 -37 25 -62.5t61 -25.5q35 0 60.5 25.5t25.5 61.5q0 35 -25 60.5t-61 25.5z" />
<glyph unicode="&#x26;" horiz-adv-x="710" d="M386 358l110 -126q53 53 82 92l77 -75q-27 -36 -87 -96l135 -153h-161l-66 75q-110 -90 -213 -90q-91 0 -150.5 54t-59.5 137q0 68 45 121q17 19 29 28t67 41q2 2 18 11q-37 41 -52.5 73t-15.5 67q0 72 51.5 118.5t131.5 46.5q78 0 129.5 -46t51.5 -115q0 -92 -122 -163z M404 157l-126 145q-54 -36 -74 -59.5t-20 -50.5q0 -37 29.5 -64.5t69.5 -27.5q51 0 121 57zM324 427q43 29 59.5 50t16.5 46q0 29 -19 47.5t-49 18.5q-28 0 -47 -18t-19 -45q0 -20 10 -37t48 -62z" />
<glyph unicode="'" horiz-adv-x="206" d="M59 392l-19 275h126l-19 -275h-88z" />
<glyph unicode="(" horiz-adv-x="319" d="M166 766l97 -53q-81 -173 -81 -414q0 -118 21.5 -229t59.5 -187l-97 -53q-43 82 -63 170q-36 150 -36 303q0 274 99 463z" />
<glyph unicode=")" horiz-adv-x="319" d="M154 -170l-97 53q81 174 81 414q0 117 -21.5 228t-59.5 188l97 53q43 -82 63 -170q36 -150 36 -303q0 -274 -99 -463z" />
<glyph unicode="*" d="M258 622l-21 127h92l-21 -127l114 59l29 -88l-127 -19l91 -90l-74 -55l-58 115l-58 -115l-75 54l92 90l-127 20l29 88z" />
<glyph unicode="+" d="M60 373h183v184h80v-184h184v-80h-184v-183h-80v183h-183v80z" />
<glyph unicode="," horiz-adv-x="250" d="M111 138l111 -13l-141 -265l-77 9z" />
<glyph unicode="-" horiz-adv-x="225" d="M0 280h225v-101h-225v101z" />
<glyph unicode="." horiz-adv-x="250" d="M125 144q33 0 56 -23t23 -55q0 -33 -23 -56t-55 -23q-33 0 -56 23t-23 56q0 32 23 55t55 23z" />
<glyph unicode="/" horiz-adv-x="465" d="M348 766l84 -33l-378 -903l-83 33z" />
<glyph unicode="0" d="M284 684q114 0 189 -102q69 -96 69 -248t-69 -249q-35 -48 -85 -75t-104 -27q-116 0 -190 102q-69 97 -69 254q0 149 69 243q77 102 190 102zM284 569q-56 0 -92.5 -65.5t-36.5 -166.5q0 -106 36 -172.5t93 -66.5q56 0 92 66t36 170q0 103 -36 169t-92 66z" />
<glyph unicode="1" d="M227 554h-96v113h226v-667h-130v554z" />
<glyph unicode="2" d="M260 113h242v-113h-485l197 223q91 104 122 153.5t31 91.5q0 43 -29.5 72t-71.5 29q-45 0 -71 -29t-28 -81h-139q7 104 70 164.5t164 60.5t168 -61t67 -154q0 -105 -121 -233z" />
<glyph unicode="3" d="M243 307v93h18q42 0 67 25t25 67q0 38 -25 63t-65 25q-79 0 -89 -87h-123q28 191 221 191q92 0 148 -51t56 -134q0 -51 -17.5 -83.5t-59.5 -58.5q42 -17 62 -42q40 -48 40 -121q0 -94 -66 -152.5t-172 -58.5q-142 0 -210 113q-28 46 -29 96h130q6 -44 35 -69t75 -25 q47 0 77 29.5t30 75.5q0 45 -29.5 75.5t-73.5 30.5q-5 0 -25 -2z" />
<glyph unicode="4" d="M468 222h79v-104h-79v-118h-121v118h-326v58l330 503h117v-457zM347 222v265l-172 -265h172z" />
<glyph unicode="5" d="M470 554h-220l-26 -104q31 4 49 4q98 0 162.5 -66t64.5 -166q0 -106 -73 -172.5t-188 -66.5q-127 0 -213 87l43 113q73 -85 167 -85q56 0 95 37.5t39 90.5q0 56 -44 95t-108 39q-67 0 -128 -43h-7l79 350h308v-113z" />
<glyph unicode="6" d="M317 694l92 -69l-158 -203q42 17 78 17q87 0 147 -63.5t60 -156.5q0 -105 -70.5 -170.5t-183.5 -65.5q-110 0 -181 64.5t-71 164.5t84 211zM284 335q-52 0 -88 -36t-36 -88q0 -53 36 -89t88 -36q50 0 86 36t36 87q0 53 -35 89.5t-87 36.5z" />
<glyph unicode="7" d="M355 554h-309v113h514l-405 -686l-105 62z" />
<glyph unicode="8" d="M171 349q-96 48 -96 147q0 82 60 135t152 53q91 0 149 -53t58 -136q0 -98 -99 -146q120 -47 120 -165q0 -88 -64.5 -144.5t-163.5 -56.5q-102 0 -168.5 56.5t-66.5 142.5q0 76 50 126q27 24 69 41zM284 589q-38 0 -65 -27.5t-27 -65.5q0 -39 27 -66.5t66 -27.5 q38 0 65 27t27 66t-27 66.5t-66 27.5zM283 295q-41 0 -71 -30t-30 -73q0 -44 29.5 -75t72.5 -31q42 0 71.5 30.5t29.5 74.5t-29.5 74t-72.5 30z" />
<glyph unicode="9" d="M250 -28l-92 70l157 202q-43 -16 -78 -16q-87 0 -147 64t-60 157q0 103 71.5 169t183.5 66q110 0 180.5 -64t70.5 -164q0 -102 -84 -212zM283 581q-50 0 -86.5 -36.5t-36.5 -86.5q0 -53 36 -89.5t88 -36.5q51 0 86.5 36.5t35.5 88.5t-35.5 88t-87.5 36z" />
<glyph unicode=":" horiz-adv-x="250" d="M125 144q33 0 56 -23t23 -55q0 -33 -23 -56t-55 -23q-33 0 -56 23t-23 56q0 32 23 55t55 23zM125 448q33 0 56 -23t23 -55q0 -33 -23 -56t-55 -23q-33 0 -56 23t-23 56q0 32 23 55t55 23z" />
<glyph unicode=";" horiz-adv-x="250" d="M105 138l111 -13l-141 -265l-77 9zM156 447q33 0 56 -23t23 -55q0 -33 -23 -56t-55 -23q-33 0 -56 23t-23 56q0 32 23 55t55 23z" />
<glyph unicode="&#x3c;" horiz-adv-x="500" d="M466 609v-128l-296 -147l295 -148l1 -128l-433 222v109z" />
<glyph unicode="=" d="M60 449h447v-80h-447v80zM60 297h447v-80h-447v80z" />
<glyph unicode="&#x3e;" horiz-adv-x="500" d="M33 58v129l296 147l-295 147l-1 128l433 -221v-109z" />
<glyph unicode="?" horiz-adv-x="489" d="M160 223v175q25 -3 35 -3q55 0 90 28t35 72q0 33 -22 55t-55 22q-30 0 -50.5 -20.5t-20.5 -50.5q0 -7 1 -12h-129q-1 6 -1 13q0 74 59.5 126t144.5 52t143 -54.5t58 -133.5q0 -68 -43 -116.5t-122 -67.5v-85h-123zM223 144q33 0 56 -23t23 -55q0 -33 -23 -56t-55 -23 q-33 0 -56 23t-23 56q0 32 23 55t55 23z" />
<glyph unicode="@" horiz-adv-x="764" d="M573 508l-27 -227q-3 -24 -3 -46q0 -26 17 -26q35 0 64 52t29 114q0 103 -72 169t-183 66q-116 0 -195.5 -79.5t-79.5 -196.5q0 -75 35 -138t97 -98q61 -36 151 -36q103 0 204 49l16 8l29 -73q-70 -34 -124 -47.5t-124 -13.5q-114 0 -199 47q-80 46 -126 126.5t-46 174.5 q0 148 104 248.5t257 100.5q141 0 236 -86.5t95 -216.5q0 -99 -52.5 -172t-124.5 -73q-56 0 -77 51q-49 -53 -114 -53q-71 0 -118 53.5t-47 134.5q0 84 52 140t130 56q74 0 108 -42l4 34h84zM383 429q-41 0 -67.5 -31.5t-26.5 -81.5q0 -43 21 -70.5t55 -27.5q43 0 76 37 t33 85q0 38 -25.5 63.5t-65.5 25.5z" />
<glyph unicode="A" horiz-adv-x="670" d="M472 141h-273l-60 -141h-138l289 681h98l280 -681h-139zM431 246l-93 240l-97 -240h190z" />
<glyph unicode="B" horiz-adv-x="570" d="M77 0v667h165q113 0 163 -40q60 -47 60 -136q0 -55 -25 -95q-14 -19 -48 -40q60 -13 87 -42q48 -48 48 -126q0 -84 -59 -137q-57 -51 -166 -51h-225zM207 389h37q101 0 101 87q0 86 -99 86h-39v-173zM207 105h56q130 0 130 92q0 51 -39 74q-29 19 -98 19h-49v-185z" />
<glyph unicode="C" horiz-adv-x="602" d="M558 641v-153q-76 75 -163 75q-92 0 -155 -67t-63 -165q0 -97 63 -162t158 -65q47 0 83.5 16.5t76.5 56.5v-153q-84 -39 -163 -39q-148 0 -250 100t-102 245q0 146 103 249t249 103q81 0 163 -41z" />
<glyph unicode="D" horiz-adv-x="669" d="M77 0v667h191q146 0 239 -77q56 -46 87.5 -113.5t31.5 -142.5q0 -74 -32 -142t-89 -115q-91 -77 -238 -77h-190zM207 113h35q119 0 178 53q34 30 53 75t19 93q0 102 -72 166q-60 54 -178 54h-35v-441z" />
<glyph unicode="E" horiz-adv-x="495" d="M446 554h-239v-148h230v-113h-230v-180h239v-113h-369v667h369v-113z" />
<glyph unicode="F" horiz-adv-x="467" d="M430 554h-223v-148h209v-113h-209v-293h-130v667h353v-113z" />
<glyph unicode="G" horiz-adv-x="762" d="M413 357h305q-1 -132 -35 -198q-41 -84 -116 -129t-174 -45q-152 0 -251 97.5t-99 247.5q0 153 100 252.5t254 99.5q190 0 286 -157l-114 -61q-60 99 -173 99q-94 0 -156.5 -66t-62.5 -167q0 -98 62 -162.5t156 -64.5q71 0 119.5 38.5t55.5 102.5h-157v113z" />
<glyph unicode="H" horiz-adv-x="695" d="M207 409h282v258h130v-667h-130v296h-282v-296h-130v667h130v-258z" />
<glyph unicode="I" horiz-adv-x="283" d="M207 667v-667h-130v667h130z" />
<glyph unicode="J" horiz-adv-x="390" d="M313 667v-450q0 -131 -59 -187q-51 -46 -125 -46q-89 0 -156 63l78 95q26 -38 65 -38q44 0 58 40q9 24 9 94v429h130z" />
<glyph unicode="K" horiz-adv-x="637" d="M207 385l245 282h164l-282 -308l297 -359h-171l-237 300l-16 -16v-284h-130v667h130v-282z" />
<glyph unicode="L" horiz-adv-x="425" d="M207 667v-554h205v-113h-335v667h130z" />
<glyph unicode="M" horiz-adv-x="868" d="M41 0l124 679h89l182 -436l189 436h90l111 -679h-131l-60 411l-183 -420h-36l-177 420l-67 -411h-131z" />
<glyph unicode="N" horiz-adv-x="779" d="M77 0v682h90l406 -464v449h130v-680h-90l-406 464v-451h-130z" />
<glyph unicode="O" horiz-adv-x="799" d="M401 682q149 0 252 -101t103 -248q0 -148 -104 -248t-256 -100q-150 0 -251.5 101.5t-101.5 251.5q0 143 105 243.5t253 100.5zM399 563q-91 0 -156.5 -67t-65.5 -160q0 -97 65 -164.5t158 -67.5q92 0 157 67.5t65 162.5t-65 162t-158 67z" />
<glyph unicode="P" horiz-adv-x="535" d="M207 247v-247h-130v667h195q65 0 104.5 -11.5t71.5 -39.5q68 -62 68 -161q0 -90 -54 -149q-56 -59 -171 -59h-84zM207 360h53q122 0 122 96q0 51 -34 77q-28 21 -96 21h-45v-194z" />
<glyph unicode="Q" horiz-adv-x="796" d="M774 -13l-131 -13l-55 61q-83 -50 -184 -50q-153 0 -257 100t-104 248q0 147 104 248t255 101q152 0 255 -101t103 -249q0 -130 -94 -238zM500 268l74 -75q52 58 52 140q0 97 -65 163.5t-160 66.5t-159.5 -66.5t-64.5 -165.5q0 -97 63.5 -162t157.5 -65q56 0 96 27 l-129 126z" />
<glyph unicode="R" horiz-adv-x="575" d="M354 281l210 -281h-160l-180 268h-17v-268h-130v667h193q114 0 170 -47q66 -55 66 -150t-60 -147q-37 -32 -92 -42zM207 360h38q62 0 94.5 26.5t32.5 75.5q0 100 -125 100h-40v-202z" />
<glyph unicode="S" horiz-adv-x="532" d="M471 604l-68 -89q-48 54 -108 54q-40 0 -67 -21.5t-27 -52.5q0 -27 21 -44.5t80 -39.5q97 -36 133 -67q59 -50 59 -140q0 -98 -64 -159t-168 -61q-141 0 -229 127l84 81q47 -89 140 -89q45 0 74 26.5t29 67.5t-36 67q-17 12 -93 40q-90 33 -127 73.5t-37 106.5 q0 84 59 139t149 55q111 0 196 -74z" />
<glyph unicode="T" horiz-adv-x="443" d="M286 0h-130v554h-149v113h429v-113h-150v-554z" />
<glyph unicode="U" horiz-adv-x="689" d="M207 667v-382q0 -51 4 -74t17 -45q17 -29 48.5 -45.5t68.5 -16.5t68.5 16.5t48.5 45.5q13 22 17 45t4 74v382h130v-408q0 -113 -49 -178q-35 -45 -93 -70.5t-126 -25.5t-126 25.5t-93 70.5q-49 65 -49 178v408h130z" />
<glyph unicode="V" horiz-adv-x="644" d="M143 667l178 -448l180 448h141l-288 -684h-70l-283 684h142z" />
<glyph unicode="W" horiz-adv-x="976" d="M138 667l150 -454l163 460h71l155 -460l160 454h137l-251 -680h-91l-148 436l-156 -436h-91l-236 680h137z" />
<glyph unicode="X" horiz-adv-x="625" d="M243 353l-199 314h156l118 -207l123 207h156l-205 -314l227 -353h-153l-150 244l-155 -244h-154z" />
<glyph unicode="Y" horiz-adv-x="583" d="M225 306l-230 361h154l144 -232l141 232h155l-234 -361v-306h-130v306z" />
<glyph unicode="Z" horiz-adv-x="584" d="M237 113h307v-113h-523l326 554h-275v113h490z" />
<glyph unicode="[" horiz-adv-x="347" d="M204 642v-695h90v-107h-207v909h207v-107h-90z" />
<glyph unicode="\" horiz-adv-x="465" d="M117 766l377 -903l-84 -33l-377 903z" />
<glyph unicode="]" horiz-adv-x="347" d="M144 -53v695h-91v107h208v-909h-208v107h91z" />
<glyph unicode="^" horiz-adv-x="500" d="M141 334h-136l160 337h171l160 -337h-136l-109 233z" />
<glyph unicode="_" horiz-adv-x="500" d="M0 -46h500v-117h-500v117z" />
<glyph unicode="`" horiz-adv-x="500" d="M93 644l88 56l120 -151l-58 -40z" />
<glyph unicode="a" horiz-adv-x="569" d="M390 433h121v-433h-121v56q-56 -70 -142 -70q-91 0 -152 66t-61 165q0 97 61 163.5t150 66.5q84 0 144 -70v56zM282 338q-51 0 -86.5 -35.5t-35.5 -85.5q0 -51 36 -86.5t86 -35.5q49 0 85 35.5t36 84.5q0 52 -35 87.5t-86 35.5z" />
<glyph unicode="b" horiz-adv-x="569" d="M179 749v-372q61 70 144 70q90 0 150.5 -66t60.5 -163q0 -100 -60.5 -166t-152.5 -66q-85 0 -142 70v-56h-121v749h121zM287 338q-50 0 -85.5 -35.5t-35.5 -85.5q0 -51 36 -86.5t86 -35.5q49 0 85 35.5t36 84.5q0 52 -35.5 87.5t-86.5 35.5z" />
<glyph unicode="c" horiz-adv-x="417" d="M383 421v-120q-48 37 -98 37q-54 0 -89.5 -34.5t-35.5 -87.5q0 -52 35.5 -86.5t89.5 -34.5q52 0 98 36v-118q-53 -27 -111 -27q-101 0 -169 65.5t-68 162.5q0 99 68.5 166t169.5 67q59 0 110 -26z" />
<glyph unicode="d" horiz-adv-x="569" d="M390 749h121v-749h-121v56q-56 -70 -142 -70q-91 0 -152 66t-61 165q0 97 61 163.5t150 66.5q84 0 144 -70v372zM282 338q-51 0 -86.5 -35.5t-35.5 -85.5q0 -51 36 -86.5t86 -35.5q49 0 85 35.5t36 84.5q0 52 -35 87.5t-86 35.5z" />
<glyph unicode="e" horiz-adv-x="518" d="M484 197h-325q5 -116 106 -116q63 0 103 58l112 -18q-56 -135 -212 -135q-106 0 -169.5 63t-63.5 167q0 105 62 168t165 63t162.5 -62.5t59.5 -171.5v-16zM163 274h205q-20 86 -103 86q-40 0 -67 -22.5t-35 -63.5z" />
<glyph unicode="f" horiz-adv-x="293" d="M183 328v-328h-121v328h-47v105h47v139q0 86 40 132q52 57 128 57q32 0 64 -15v-110q-35 16 -55 16q-36 0 -47 -31q-9 -19 -9 -67v-121h111v-105h-111z" />
<glyph unicode="g" d="M509 433v-417q0 -67 -10.5 -103.5t-38.5 -68.5q-64 -76 -182 -76q-132 0 -199 95q-28 40 -33 86h132q18 -78 102 -78q49 0 81 32q27 29 27 90v65q-34 -39 -67.5 -55.5t-79.5 -16.5q-89 0 -147.5 63.5t-58.5 161.5q0 102 60 169t152 67q84 0 141 -70v56h121zM282 338 q-51 0 -86.5 -35.5t-35.5 -85.5q0 -51 36 -86.5t86 -35.5q49 0 85 35.5t36 84.5q0 52 -35.5 87.5t-85.5 35.5z" />
<glyph unicode="h" horiz-adv-x="533" d="M58 749h121v-372q53 70 136 70q81 0 126 -53q34 -41 34 -122v-272h-121v237q0 52 -12 72q-20 35 -71 35q-92 0 -92 -122v-222h-121v749z" />
<glyph unicode="i" horiz-adv-x="233" d="M177 433v-433h-121v433h121zM117 689q30 0 51 -21t21 -52q0 -30 -21 -51.5t-51 -21.5q-31 0 -52 21.5t-21 52.5q0 29 21.5 50.5t51.5 21.5z" />
<glyph unicode="j" horiz-adv-x="233" d="M177 433v-664h-121v664h121zM117 689q30 0 51 -21t21 -52q0 -30 -21 -51.5t-51 -21.5q-31 0 -52 21.5t-21 52.5q0 29 21.5 50.5t51.5 21.5z" />
<glyph unicode="k" horiz-adv-x="517" d="M179 749v-474l162 158h164l-203 -190l219 -243h-167l-162 186l-13 -13v-173h-121v749h121z" />
<glyph unicode="l" horiz-adv-x="237" d="M179 749v-749h-121v749h121z" />
<glyph unicode="m" horiz-adv-x="790" d="M58 433h121v-50q56 64 132 64q88 0 135 -79q51 79 142 79q83 0 121 -62q23 -37 23 -105v-280h-121v237q0 47 -10 69q-17 38 -61 38q-50 0 -71 -43q-13 -27 -13 -79v-222h-121v230q0 51 -9 72q-7 19 -25.5 30.5t-39.5 11.5q-20 0 -39.5 -11t-28.5 -28q-14 -25 -14 -83 v-222h-121v433z" />
<glyph unicode="n" horiz-adv-x="533" d="M58 433h121v-54q28 37 60 52.5t76 15.5q80 0 126 -52q34 -39 34 -120v-275h-121v240q0 50 -12 70q-19 34 -71 34q-92 0 -92 -120v-224h-121v433z" />
<glyph unicode="o" horiz-adv-x="565" d="M284 447q109 0 177.5 -64t68.5 -166q0 -103 -69.5 -167t-180.5 -64q-109 0 -177 65t-68 169q0 99 70 163t179 64zM282 338q-50 0 -86 -35.5t-36 -84.5q0 -52 35.5 -87.5t87.5 -35.5q50 0 86 35.5t36 85.5q0 51 -36 86.5t-87 35.5z" />
<glyph unicode="p" horiz-adv-x="569" d="M179 -231h-121v664h121v-56q56 70 142 70q91 0 152 -66t61 -165q0 -97 -61 -163.5t-150 -66.5q-83 0 -144 70v-287zM287 338q-50 0 -85.5 -35.5t-35.5 -85.5q0 -51 36 -86.5t86 -35.5q49 0 85 35.5t36 84.5q0 52 -35.5 87.5t-86.5 35.5z" />
<glyph unicode="q" horiz-adv-x="569" d="M390 -231v287q-60 -70 -144 -70q-89 0 -150 66.5t-61 163.5q0 99 61 165t152 66q86 0 142 -70v56h121v-664h-121zM282 338q-51 0 -86.5 -35.5t-35.5 -85.5q0 -51 36 -86.5t86 -35.5q49 0 85 35.5t36 84.5q0 52 -35 87.5t-86 35.5z" />
<glyph unicode="r" horiz-adv-x="360" d="M58 433h121v-66q45 80 126 80q26 0 53 -11l-17 -113q-27 15 -58 15q-49 0 -77 -31q-27 -31 -27 -99v-208h-121v433z" />
<glyph unicode="s" horiz-adv-x="405" d="M355 403l-60 -71q-38 29 -72 29q-20 0 -33.5 -10.5t-13.5 -26.5q0 -15 13.5 -24.5t55.5 -23.5q60 -21 84 -39q48 -33 48 -96q0 -68 -51 -111.5t-131 -43.5q-98 0 -164 72l63 74q51 -51 103 -51q23 0 39 14t16 34q0 19 -12.5 29t-54.5 25q-63 23 -83 38q-43 30 -43 90 q0 61 43.5 99.5t111.5 38.5q79 0 141 -46z" />
<glyph unicode="t" horiz-adv-x="270" d="M180 328v-328h-121v328h-48v105h48v148h121v-148h86v-105h-86z" />
<glyph unicode="u" horiz-adv-x="535" d="M179 433v-245q0 -99 89 -99q88 0 88 99v245h121v-265q0 -88 -54 -135t-155 -47t-155.5 47t-54.5 135v265h121z" />
<glyph unicode="v" horiz-adv-x="502" d="M137 433l114 -245l113 245h136l-223 -442h-55l-221 442h136z" />
<glyph unicode="w" horiz-adv-x="792" d="M137 433l114 -250l118 262h52l118 -266l116 254h135l-224 -442h-55l-117 263l-115 -263h-56l-222 442h136z" />
<glyph unicode="x" horiz-adv-x="562" d="M207 235l-167 198h153l90 -112l91 112h154l-170 -198l203 -235h-155l-124 151l-125 -151h-156z" />
<glyph unicode="y" horiz-adv-x="535" d="M206 66l-205 367h141l130 -246l123 246h139l-350 -664h-137z" />
<glyph unicode="z" horiz-adv-x="485" d="M227 105h229v-105h-443l246 330h-208v105h421z" />
<glyph unicode="{" horiz-adv-x="316" d="M197 566v-154q0 -49 -12.5 -73.5t-47.5 -45.5q60 -35 60 -94v-186q0 -51 11 -63q13 -16 51 -16h12v-102l-24 -1l-40 -1q-67 0 -95 33t-28 111v211q0 23 -15.5 40t-40.5 23v98q30 7 43 25.5t13 55.5v192q0 74 27.5 106t90.5 32q19 0 69 -2v-102q-54 0 -65 -20 q-9 -14 -9 -67z" />
<glyph unicode="|" horiz-adv-x="500" d="M185 667h130v-834h-130v834z" />
<glyph unicode="}" horiz-adv-x="316" d="M119 21v154q0 49 12.5 73.5t47.5 45.5q-60 35 -60 94v186q0 51 -12.5 64.5t-61.5 14.5v102q12 1 24 1q17 1 40 1q67 0 95 -33t28 -111v-211q0 -22 15 -39t41 -23v-99q-30 -7 -43 -25.5t-13 -55.5v-191q0 -74 -27.5 -106.5t-90.5 -32.5q-20 0 -69 2v102h12q45 0 57 26 q5 12 5 61z" />
<glyph unicode="~" horiz-adv-x="667" d="M161 246l-71 47q7 16 8 17q19 44 31 62.5t32 33.5q34 26 81 26q35 0 103 -26q66 -23 87 -23q24 0 39 10.5t32 40.5l74 -43q-23 -47 -38 -68.5t-36 -36.5q-40 -28 -85 -28q-26 0 -103 27q-61 22 -81 22q-25 0 -44 -17q-11 -9 -29 -44z" />
<glyph unicode="&#xa1;" horiz-adv-x="250" d="M125 520q33 0 56 -23t23 -55q0 -33 -23 -56t-55 -23q-33 0 -56 23t-23 57q0 31 23 54t55 23zM63 315h125v-475h-125v475z" />
<glyph unicode="&#xa2;" d="M364 639v-79q44 -4 79 -20v-124q-45 44 -95 44q-52 0 -86.5 -36t-34.5 -91q0 -53 34 -88.5t85 -35.5q57 0 97 44v-124q-46 -18 -79 -20v-84h-63v82q-90 11 -147 74.5t-57 151.5q0 63 28.5 114.5t80.5 83.5q37 23 95 32v76h63z" />
<glyph unicode="&#xa3;" d="M49 236v91h64q-39 72 -39 135q0 41 18 82.5t49 71.5q69 66 181 66q105 0 163 -60.5t60 -171.5l-131 -14q3 22 3 29q0 44 -29.5 73t-75.5 29t-77 -32t-31 -80q0 -46 37 -117q0 -1 5 -11h149v-91h-120q3 -27 3 -38q0 -36 -12 -68q61 -20 68 -23q55 -17 77 -17q42 0 60 53 l88 -19q-21 -74 -57 -106.5t-96 -32.5q-38 0 -117 26q-79 25 -109 25q-49 0 -68 -45l-94 17q25 65 60 96t85 34q11 28 11 53q0 20 -7 45h-118z" />
<glyph unicode="&#xa4;" horiz-adv-x="667" d="M20 137l103 103q-44 63 -44 138q0 72 44 137l-104 104l71 71l104 -104q67 44 140 44q71 0 137 -43l103 102l70 -70l-102 -102q45 -71 45 -140t-43 -136l103 -103l-70 -71l-103 103q-65 -45 -142 -45q-69 0 -139 44l-103 -102zM335 514q-58 0 -98 -39.5t-40 -97.5 q0 -56 40 -96t96 -40t96 40t40 97q0 56 -39.5 96t-94.5 40z" />
<glyph unicode="&#xa5;" d="M187 363h-127v91h73l-126 213h143l133 -232l132 232h144l-128 -213h75v-91h-130l-35 -63h165v-91h-165v-209h-120v209h-161v91h161z" />
<glyph unicode="&#xa6;" horiz-adv-x="500" d="M185 667h130v-347h-130v347zM185 153h130v-320h-130v320z" />
<glyph unicode="&#xa7;" d="M473 577h-121q-6 81 -70 81q-28 0 -47.5 -19t-19.5 -47q0 -27 20.5 -44t85.5 -45q94 -39 128 -75q45 -47 45 -116q0 -116 -117 -172q91 -42 91 -135q0 -75 -54 -125t-136 -50q-109 0 -161 80q-27 42 -30 110h123q1 -41 20 -64t53 -23q30 0 51 21.5t21 52.5q0 36 -29 59 q-21 15 -78 35q-55 19 -81 32.5t-46 34.5q-48 48 -48 127q0 63 30.5 107t83.5 58q-89 39 -89 135q0 73 49.5 117.5t131.5 44.5q57 0 103 -22t68 -60q20 -35 23 -98zM284 386q-36 0 -60.5 -25t-24.5 -62q0 -36 24.5 -61.5t59.5 -25.5q34 0 58.5 25.5t24.5 61.5t-24 61.5 t-58 25.5z" />
<glyph unicode="&#xa8;" horiz-adv-x="500" d="M146 658q29 0 50 -21t21 -51t-21 -51t-50 -21q-30 0 -51 21t-21 52q0 29 21.5 50t50.5 21zM353 658q30 0 51 -21t21 -51t-21 -51t-51 -21t-51 21t-21 52q0 29 21.5 50t50.5 21z" />
<glyph unicode="&#xa9;" horiz-adv-x="760" d="M511 516v-109l-3.5 3.5t-4.5 4t-3 3.5q-45 42 -97 42q-53 0 -89.5 -37t-36.5 -92q0 -54 36.5 -89.5t91.5 -35.5q47 0 83 30q4 4 23 22v-109q-53 -25 -108 -25q-93 0 -157.5 60t-64.5 147q0 88 65 149.5t158 61.5q51 0 107 -26zM385 682q140 0 240.5 -103t100.5 -246 q0 -144 -101.5 -246t-244.5 -102t-245 102t-102 246q0 146 102 247.5t250 101.5zM384 619q-118 0 -200 -83t-82 -203q0 -118 81.5 -202t196.5 -84q114 0 195 84t81 202q0 117 -80.5 201.5t-191.5 84.5z" />
<glyph unicode="&#xaa;" horiz-adv-x="339" d="M233 659h72v-259h-72v34q-33 -43 -85 -43q-54 0 -90.5 40t-36.5 99q0 58 36.5 97.5t89.5 39.5q50 0 86 -42v34zM168 602q-30 0 -51 -21.5t-21 -51.5t21 -51.5t51 -21.5q29 0 50.5 21.5t21.5 50.5q0 31 -21 52.5t-51 21.5zM31 362h273v-55h-273v55z" />
<glyph unicode="&#xab;" horiz-adv-x="513" d="M341 217l122 -161l-71 -51l-156 212l156 214l70 -49zM145 217l122 -161l-71 -51l-156 212l156 214l70 -49z" />
<glyph unicode="&#xac;" horiz-adv-x="500" d="M336 0v150h-303v117h433v-267h-130z" />
<glyph unicode="&#xad;" horiz-adv-x="225" d="M0 280h225v-101h-225v101z" />
<glyph unicode="&#xae;" horiz-adv-x="760" d="M426 298l132 -165h-117l-112 155v-155h-94v400h127q73 0 113 -31.5t40 -89.5q0 -44 -23 -73.5t-66 -40.5zM329 355h17q73 0 73 52t-72 52h-18v-104zM385 682q140 0 240.5 -103t100.5 -246q0 -144 -101.5 -246t-244.5 -102t-245 102t-102 246q0 146 102 247.5t250 101.5z M384 619q-118 0 -200 -83t-82 -203q0 -118 81.5 -202t196.5 -84q114 0 195 84t81 202q0 117 -80.5 201.5t-191.5 84.5z" />
<glyph unicode="&#xaf;" horiz-adv-x="500" d="M90 631h320v-80h-320v80z" />
<glyph unicode="&#xb0;" d="M283 680q56 0 95 -38.5t39 -94.5q0 -55 -39 -94.5t-94 -39.5q-56 0 -95 39.5t-39 95.5q0 54 39.5 93t93.5 39zM283 613q-27 0 -46.5 -19.5t-19.5 -46.5q0 -28 19.5 -47.5t47.5 -19.5q27 0 46.5 19.5t19.5 47.5q0 27 -19.5 46.5t-47.5 19.5z" />
<glyph unicode="&#xb1;" d="M60 373h183v184h80v-184h184v-80h-184v-176h-80v176h-183v80zM60 60h447v-80h-447v80z" />
<glyph unicode="&#xb2;" horiz-adv-x="387" d="M187 340h138v-73h-297l121 137q88 101 88 144q0 24 -17 41.5t-40 17.5t-38 -17.5t-15 -44.5v-7h-89q5 66 42.5 104t99.5 38q61 0 101.5 -37.5t40.5 -94.5q0 -65 -72 -141z" />
<glyph unicode="&#xb3;" horiz-adv-x="387" d="M166 446v63q5 -1 14 -1q23 0 37 13.5t14 36.5q0 22 -14 35.5t-36 13.5q-43 0 -50 -50h-79q17 121 134 121q55 0 89.5 -31.5t34.5 -81.5q0 -55 -42 -85q57 -25 57 -98q0 -56 -40 -92t-103 -36q-61 0 -102 36.5t-44 94.5h84q6 -58 63 -58q26 0 43.5 17t17.5 43t-17 43 t-42 17z" />
<glyph unicode="&#xb4;" horiz-adv-x="500" d="M408 644l-150 -135l-58 40l119 151z" />
<glyph unicode="&#xb5;" horiz-adv-x="535" d="M179 -231h-121v664h121v-247q0 -97 89 -97q88 0 88 99v245h121v-266q0 -81 -46 -126q-57 -55 -159 -55q-56 0 -103 19z" />
<glyph unicode="&#xb6;" d="M167 -92v430h-11q-67 0 -108 44.5t-41 116.5q0 99 71 142q47 26 130 26h335v-113h-73v-646h-110v646h-83v-646h-110z" />
<glyph unicode="&#xb7;" horiz-adv-x="250" d="M125 302q33 0 56 -23t23 -55q0 -33 -23 -56t-55 -23q-33 0 -56 23t-23 56q0 32 23 55t55 23z" />
<glyph unicode="&#xb8;" horiz-adv-x="500" d="M351 -88l-115 -125l-61 35l98 133z" />
<glyph unicode="&#xb9;" horiz-adv-x="387" d="M155 594h-58v73h142v-400h-84v327z" />
<glyph unicode="&#xba;" horiz-adv-x="337" d="M169 668q65 0 106 -38.5t41 -99.5q0 -62 -41.5 -100.5t-107.5 -38.5q-65 0 -105.5 39t-40.5 102q0 59 42 97.5t106 38.5zM168 602q-29 0 -50.5 -21.5t-21.5 -50.5q0 -30 21 -51.5t52 -21.5q30 0 51 21.5t21 51.5t-21 51t-52 21zM36 362h274v-55h-274v55z" />
<glyph unicode="&#xbb;" horiz-adv-x="513" d="M173 217l-122 165l70 49l156 -214l-156 -212l-71 51zM368 217l-121 165l70 49l156 -214l-156 -212l-71 51z" />
<glyph unicode="&#xbc;" horiz-adv-x="909" d="M150 594h-58v73h142v-400h-84v327zM621 689l53 -30l-397 -687l-53 31zM828 138h47v-69h-47v-69h-78v69h-194v37l198 301h74v-269zM750 138v142l-92 -142h92z" />
<glyph unicode="&#xbd;" horiz-adv-x="892" d="M150 594h-58v73h142v-400h-84v327zM621 689l53 -30l-397 -687l-53 31zM699 73h138v-73h-297l121 137q88 101 88 143q0 24 -17 41.5t-40 17.5t-38 -17t-15 -44v-7h-89q5 65 43 103t99 38t101.5 -37.5t40.5 -93.5q0 -65 -72 -141z" />
<glyph unicode="&#xbe;" horiz-adv-x="906" d="M160 446v63q5 -1 14 -1q23 0 37 13.5t14 36.5q0 22 -14 35.5t-36 13.5q-43 0 -50 -50h-79q17 121 134 121q55 0 89.5 -31.5t34.5 -81.5q0 -55 -42 -85q57 -25 57 -98q0 -56 -40 -92t-103 -36q-61 0 -102 36.5t-44 94.5h84q6 -58 63 -58q26 0 43.5 17t17.5 43t-17 43 t-42 17zM618 689l53 -30l-397 -687l-53 31zM825 138h47v-69h-47v-69h-78v69h-194v37l198 301h74v-269zM747 138v142l-92 -142h92z" />
<glyph unicode="&#xbf;" horiz-adv-x="489" d="M328 284v-175q-25 3 -35 3q-55 0 -90 -28t-35 -72q0 -33 22 -55t55 -22q30 0 50.5 20.5t20.5 50.5q0 7 -1 12h129q1 -6 1 -13q0 -74 -59.5 -126t-144.5 -52t-143 54.5t-58 133.5q0 68 43 116.5t122 67.5v85h123zM265 520q33 0 56 -23t23 -56q0 -32 -23 -55t-55 -23 q-33 0 -56 23t-23 55q0 33 23 56t55 23z" />
<glyph unicode="&#xc0;" horiz-adv-x="670" d="M472 141h-273l-60 -141h-138l289 681h98l280 -681h-139zM431 246l-93 240l-97 -240h190zM191 842l83 68l137 -133l-53 -49z" />
<glyph unicode="&#xc1;" horiz-adv-x="670" d="M472 141h-273l-60 -141h-138l289 681h98l280 -681h-139zM431 246l-93 240l-97 -240h190zM485 842l-167 -114l-53 49l137 133z" />
<glyph unicode="&#xc2;" horiz-adv-x="670" d="M472 141h-273l-60 -141h-138l289 681h98l280 -681h-139zM431 246l-93 240l-97 -240h190zM178 788l169 138l172 -138l-62 -60l-110 90l-109 -90z" />
<glyph unicode="&#xc3;" horiz-adv-x="670" d="M472 141h-273l-60 -141h-138l289 681h98l280 -681h-139zM431 246l-93 240l-97 -240h190zM231 742h-68q8 58 37 92t70 34q30 0 80 -20q50 -18 63 -18q14 0 23 7.5t21 29.5h69q-12 -60 -43 -93.5t-75 -33.5q-23 0 -70 19t-66 19q-27 0 -41 -36z" />
<glyph unicode="&#xc4;" horiz-adv-x="670" d="M472 141h-273l-60 -141h-138l289 681h98l280 -681h-139zM431 246l-93 240l-97 -240h190zM229 883q30 0 51 -21t21 -50q0 -30 -21 -51t-51 -21t-51 21t-21 51q0 29 21.5 50t50.5 21zM440 883q30 0 51 -21t21 -50q0 -30 -21 -51t-51 -21t-51 21t-21 51q0 29 21.5 50 t50.5 21z" />
<glyph unicode="&#xc5;" horiz-adv-x="670" d="M472 141h-273l-60 -141h-138l289 681h98l280 -681h-139zM431 246l-93 240l-97 -240h190zM334 921q40 0 67.5 -27.5t27.5 -66.5q0 -40 -27.5 -67.5t-66.5 -27.5q-40 0 -67.5 28t-27.5 68q0 38 28 65.5t66 27.5zM335 864q-16 0 -27 -11t-11 -26q0 -16 11 -27t27 -11 q15 0 26 11t11 27t-11 26.5t-26 10.5z" />
<glyph unicode="&#xc6;" horiz-adv-x="920" d="M475 141h-272l-58 -141h-138l287 667h352l44 -113h-245l60 -149h242l45 -113h-242l74 -179h246l43 -113h-381zM435 246l-92 227l-97 -227h189z" />
<glyph unicode="&#xc7;" horiz-adv-x="602" d="M558 641v-153q-76 75 -163 75q-92 0 -155 -67t-63 -165q0 -97 63 -162t158 -65q47 0 83.5 16.5t76.5 56.5v-153q-84 -39 -163 -39q-148 0 -250 100t-102 245q0 146 103 249t249 103q81 0 163 -41zM447 -93l-121 -128l-64 40l101 139z" />
<glyph unicode="&#xc8;" horiz-adv-x="495" d="M446 554h-239v-148h230v-113h-230v-180h239v-113h-369v667h369v-113zM124 842l83 68l137 -133l-53 -49z" />
<glyph unicode="&#xc9;" horiz-adv-x="495" d="M446 554h-239v-148h230v-113h-230v-180h239v-113h-369v667h369v-113zM418 842l-167 -114l-53 49l137 133z" />
<glyph unicode="&#xca;" horiz-adv-x="495" d="M446 554h-239v-148h230v-113h-230v-180h239v-113h-369v667h369v-113zM98 788l169 138l172 -138l-62 -60l-110 90l-109 -90z" />
<glyph unicode="&#xcb;" horiz-adv-x="495" d="M446 554h-239v-148h230v-113h-230v-180h239v-113h-369v667h369v-113zM156 883q30 0 51 -21t21 -50q0 -30 -21 -51t-51 -21t-51 21t-21 51q0 29 21.5 50t50.5 21zM367 883q30 0 51 -21t21 -50q0 -30 -21 -51t-51 -21t-51 21t-21 51q0 29 21.5 50t50.5 21z" />
<glyph unicode="&#xcc;" horiz-adv-x="283" d="M206 667v-667h-130v667h130zM-9 842l83 68l137 -133l-53 -49z" />
<glyph unicode="&#xcd;" horiz-adv-x="283" d="M207 667v-667h-130v667h130zM292 842l-167 -114l-53 49l137 133z" />
<glyph unicode="&#xce;" horiz-adv-x="283" d="M207 667v-667h-130v667h130zM-15 788l156 138l158 -138l-62 -60l-96 90l-96 -90z" />
<glyph unicode="&#xcf;" horiz-adv-x="283" d="M207 667v-667h-130v667h130zM53 883q30 0 51 -21t21 -50q0 -30 -21 -51t-51 -21t-51 21t-21 51q0 29 21.5 50t50.5 21zM230 883q30 0 51 -21t21 -50q0 -30 -21 -51t-51 -21t-51 21t-21 51q0 29 21.5 50t50.5 21z" />
<glyph unicode="&#xd0;" horiz-adv-x="669" d="M77 383v284h191q146 0 239 -77q56 -46 87.5 -114t31.5 -142q0 -75 -31.5 -142.5t-89.5 -114.5q-93 -77 -238 -77h-190v283h-56v100h56zM207 383h142v-100h-142v-170h35q119 0 178 53q72 64 72 167t-72 167q-33 29 -73.5 41.5t-104.5 12.5h-35v-171z" />
<glyph unicode="&#xd1;" horiz-adv-x="779" d="M77 0v682h90l406 -464v449h130v-680h-90l-406 464v-451h-130zM287 742h-68q8 58 37 92t70 34q30 0 80 -20q50 -18 63 -18q14 0 23 7.5t21 29.5h69q-12 -60 -43 -93.5t-75 -33.5q-23 0 -70 19t-66 19q-27 0 -41 -36z" />
<glyph unicode="&#xd2;" horiz-adv-x="799" d="M401 682q149 0 252 -101t103 -248q0 -148 -104 -248t-256 -100q-150 0 -251.5 101.5t-101.5 251.5q0 143 105 243.5t253 100.5zM399 563q-91 0 -156.5 -67t-65.5 -160q0 -97 65 -164.5t158 -67.5q92 0 157 67.5t65 162.5t-65 162t-158 67zM249 842l83 68l137 -133 l-53 -49z" />
<glyph unicode="&#xd3;" horiz-adv-x="799" d="M401 682q149 0 252 -101t103 -248q0 -148 -104 -248t-256 -100q-150 0 -251.5 101.5t-101.5 251.5q0 143 105 243.5t253 100.5zM399 563q-91 0 -156.5 -67t-65.5 -160q0 -97 65 -164.5t158 -67.5q92 0 157 67.5t65 162.5t-65 162t-158 67zM549 842l-167 -114l-53 49 l137 133z" />
<glyph unicode="&#xd4;" horiz-adv-x="799" d="M401 682q149 0 252 -101t103 -248q0 -148 -104 -248t-256 -100q-150 0 -251.5 101.5t-101.5 251.5q0 143 105 243.5t253 100.5zM399 563q-91 0 -156.5 -67t-65.5 -160q0 -97 65 -164.5t158 -67.5q92 0 157 67.5t65 162.5t-65 162t-158 67zM229 788l169 138l172 -138 l-62 -60l-110 90l-109 -90z" />
<glyph unicode="&#xd5;" horiz-adv-x="799" d="M401 682q149 0 252 -101t103 -248q0 -148 -104 -248t-256 -100q-150 0 -251.5 101.5t-101.5 251.5q0 143 105 243.5t253 100.5zM399 563q-91 0 -156.5 -67t-65.5 -160q0 -97 65 -164.5t158 -67.5q92 0 157 67.5t65 162.5t-65 162t-158 67zM296 742h-68q8 58 37 92t70 34 q30 0 80 -20q50 -18 63 -18q14 0 23 7.5t21 29.5h69q-12 -60 -43 -93.5t-75 -33.5q-23 0 -70 19t-66 19q-27 0 -41 -36z" />
<glyph unicode="&#xd6;" horiz-adv-x="799" d="M401 682q149 0 252 -101t103 -248q0 -148 -104 -248t-256 -100q-150 0 -251.5 101.5t-101.5 251.5q0 143 105 243.5t253 100.5zM399 563q-91 0 -156.5 -67t-65.5 -160q0 -97 65 -164.5t158 -67.5q92 0 157 67.5t65 162.5t-65 162t-158 67zM294 883q30 0 51 -21t21 -50 q0 -30 -21 -51t-51 -21t-51 21t-21 51q0 29 21.5 50t50.5 21zM505 883q30 0 51 -21t21 -50q0 -30 -21 -51t-51 -21t-51 21t-21 51q0 29 21.5 50t50.5 21z" />
<glyph unicode="&#xd7;" d="M145 529l139 -139l139 139l56 -57l-139 -139l139 -139l-56 -56l-139 139l-139 -139l-57 56l139 139l-139 139z" />
<glyph unicode="&#xd8;" horiz-adv-x="805" d="M737 663l-73 -89q32 -39 44 -59q51 -83 51 -182q0 -143 -102.5 -245.5t-244.5 -102.5q-127 0 -199 48l-74 -87l-69 63l67 86q-30 38 -39 52q-52 84 -52 186q0 147 103.5 248t254.5 101q97 0 183 -48l76 91zM580 471l-287 -339q56 -28 108 -28q93 0 158.5 67t65.5 162 q0 78 -45 138zM224 197l282 341q-53 25 -103 25q-92 0 -157.5 -67t-65.5 -161q0 -81 44 -138z" />
<glyph unicode="&#xd9;" horiz-adv-x="689" d="M207 667v-382q0 -51 4 -74t17 -45q17 -29 48.5 -45.5t68.5 -16.5t68.5 16.5t48.5 45.5q13 22 17 45t4 74v382h130v-408q0 -113 -49 -178q-35 -45 -93 -70.5t-126 -25.5t-126 25.5t-93 70.5q-49 65 -49 178v408h130zM195 842l83 68l137 -133l-53 -49z" />
<glyph unicode="&#xda;" horiz-adv-x="689" d="M207 667v-382q0 -51 4 -74t17 -45q17 -29 48.5 -45.5t68.5 -16.5t68.5 16.5t48.5 45.5q13 22 17 45t4 74v382h130v-408q0 -113 -49 -178q-35 -45 -93 -70.5t-126 -25.5t-126 25.5t-93 70.5q-49 65 -49 178v408h130zM495 842l-167 -114l-53 49l137 133z" />
<glyph unicode="&#xdb;" horiz-adv-x="689" d="M207 667v-382q0 -51 4 -74t17 -45q17 -29 48.5 -45.5t68.5 -16.5t68.5 16.5t48.5 45.5q13 22 17 45t4 74v382h130v-408q0 -113 -49 -178q-35 -45 -93 -70.5t-126 -25.5t-126 25.5t-93 70.5q-49 65 -49 178v408h130zM175 788l169 138l172 -138l-62 -60l-110 90l-109 -90z " />
<glyph unicode="&#xdc;" horiz-adv-x="689" d="M207 667v-382q0 -51 4 -74t17 -45q17 -29 48.5 -45.5t68.5 -16.5t68.5 16.5t48.5 45.5q13 22 17 45t4 74v382h130v-408q0 -113 -49 -178q-35 -45 -93 -70.5t-126 -25.5t-126 25.5t-93 70.5q-49 65 -49 178v408h130zM240 883q30 0 51 -21t21 -50q0 -30 -21 -51t-51 -21 t-51 21t-21 51q0 29 21.5 50t50.5 21zM451 883q30 0 51 -21t21 -50q0 -30 -21 -51t-51 -21t-51 21t-21 51q0 29 21.5 50t50.5 21z" />
<glyph unicode="&#xdd;" horiz-adv-x="583" d="M225 306l-230 361h154l144 -232l141 232h155l-234 -361v-306h-130v306zM442 842l-167 -114l-53 49l137 133z" />
<glyph unicode="&#xde;" horiz-adv-x="537" d="M207 149v-149h-130v667h130v-94h58q96 0 149 -27q49 -25 76 -74t27 -110q0 -57 -24 -105t-65 -75q-50 -33 -138 -33h-83zM207 270h49q62 0 87 22q29 24 29 70q0 91 -117 91h-48v-183z" />
<glyph unicode="&#xdf;" horiz-adv-x="566" d="M58 0v545q0 100 48 154q57 62 164 62q93 0 150.5 -54t57.5 -141q0 -85 -81 -142q50 -21 76 -47q59 -57 59 -154q0 -84 -46.5 -146t-123.5 -81q-44 -10 -105 -10v109q56 1 93 26q57 40 57 109q0 76 -63 112q-33 18 -87 21v105q42 1 67 18q37 27 37 77q0 39 -25.5 64 t-65.5 25q-29 0 -51.5 -14t-29.5 -38q-10 -29 -10 -107v-493h-121z" />
<glyph unicode="&#xe0;" horiz-adv-x="569" d="M390 433h121v-433h-121v56q-56 -70 -142 -70q-91 0 -152 66t-61 165q0 97 61 163.5t150 66.5q84 0 144 -70v56zM282 338q-51 0 -86.5 -35.5t-35.5 -85.5q0 -51 36 -86.5t86 -35.5q49 0 85 35.5t36 84.5q0 52 -35 87.5t-86 35.5zM154 644l88 56l120 -151l-58 -40z" />
<glyph unicode="&#xe1;" horiz-adv-x="569" d="M390 433h121v-433h-121v56q-56 -70 -142 -70q-91 0 -152 66t-61 165q0 97 61 163.5t150 66.5q84 0 144 -70v56zM282 338q-51 0 -86.5 -35.5t-35.5 -85.5q0 -51 36 -86.5t86 -35.5q49 0 85 35.5t36 84.5q0 52 -35 87.5t-86 35.5zM436 644l-150 -135l-58 40l119 151z" />
<glyph unicode="&#xe2;" horiz-adv-x="569" d="M390 433h121v-433h-121v56q-56 -70 -142 -70q-91 0 -152 66t-61 165q0 97 61 163.5t150 66.5q84 0 144 -70v56zM282 338q-51 0 -86.5 -35.5t-35.5 -85.5q0 -51 36 -86.5t86 -35.5q49 0 85 35.5t36 84.5q0 52 -35 87.5t-86 35.5zM121 569l169 138l172 -138l-62 -60 l-110 92l-109 -92z" />
<glyph unicode="&#xe3;" horiz-adv-x="569" d="M390 433h121v-433h-121v56q-56 -70 -142 -70q-91 0 -152 66t-61 165q0 97 61 163.5t150 66.5q84 0 144 -70v56zM282 338q-51 0 -86.5 -35.5t-35.5 -85.5q0 -51 36 -86.5t86 -35.5q49 0 85 35.5t36 84.5q0 52 -35 87.5t-86 35.5zM178 523h-68q8 58 37 91.5t70 33.5 q30 0 80 -20q49 -18 63 -18t23 7.5t21 29.5h69q-12 -60 -43 -93t-75 -33q-25 0 -70 19q-48 18 -67 18q-25 0 -40 -35z" />
<glyph unicode="&#xe4;" horiz-adv-x="569" d="M390 433h121v-433h-121v56q-56 -70 -142 -70q-91 0 -152 66t-61 165q0 97 61 163.5t150 66.5q84 0 144 -70v56zM282 338q-51 0 -86.5 -35.5t-35.5 -85.5q0 -51 36 -86.5t86 -35.5q49 0 85 35.5t36 84.5q0 52 -35 87.5t-86 35.5zM191 658q29 0 50 -21t21 -51t-21 -51 t-50 -21q-30 0 -51 21t-21 52q0 29 21.5 50t50.5 21zM398 658q30 0 51 -21t21 -51t-21 -51t-51 -21t-51 21t-21 52q0 29 21.5 50t50.5 21z" />
<glyph unicode="&#xe5;" horiz-adv-x="569" d="M390 433h121v-433h-121v56q-56 -70 -142 -70q-91 0 -152 66t-61 165q0 97 61 163.5t150 66.5q84 0 144 -70v56zM282 338q-51 0 -86.5 -35.5t-35.5 -85.5q0 -51 36 -86.5t86 -35.5q49 0 85 35.5t36 84.5q0 52 -35 87.5t-86 35.5zM290 693q38 0 65 -27t27 -65t-27 -65 t-65 -27t-65 27t-27 66q0 37 27 64t65 27zM290 636q-14 0 -24.5 -10.5t-10.5 -24.5t10.5 -24.5t24.5 -10.5t24.5 10.5t10.5 24.5q0 15 -10 25t-25 10z" />
<glyph unicode="&#xe6;" horiz-adv-x="807" d="M773 197h-327q3 -55 32.5 -86t78.5 -31q70 0 98 59l113 -18q-26 -65 -81.5 -100t-131.5 -35q-112 0 -169 82q-63 -82 -173 -82q-80 0 -129 39t-49 102q0 65 47.5 104.5t126.5 39.5q65 0 120 -31q1 8 1 22q0 43 -29 66.5t-81 23.5q-57 0 -119 -18v97q67 16 124 16 q113 0 161 -74q57 74 164 74q103 0 163 -63t60 -172v-15zM450 274h206q-22 86 -103 86q-78 0 -103 -86zM237 185q-39 0 -62 -14t-23 -39q0 -26 24 -43t61 -17q39 0 65.5 18t26.5 44q0 22 -26 36.5t-66 14.5z" />
<glyph unicode="&#xe7;" horiz-adv-x="417" d="M383 421v-120q-48 37 -98 37q-54 0 -89.5 -34.5t-35.5 -87.5q0 -52 35.5 -86.5t89.5 -34.5q52 0 98 36v-118q-53 -27 -111 -27q-101 0 -169 65.5t-68 162.5q0 99 68.5 166t169.5 67q59 0 110 -26zM323 -88l-115 -125l-61 35l98 133z" />
<glyph unicode="&#xe8;" horiz-adv-x="518" d="M484 197h-325q5 -116 106 -116q63 0 103 58l112 -18q-56 -135 -212 -135q-106 0 -169.5 63t-63.5 167q0 105 62 168t165 63t162.5 -62.5t59.5 -171.5v-16zM163 274h205q-20 86 -103 86q-40 0 -67 -22.5t-35 -63.5zM122 644l88 56l120 -151l-58 -40z" />
<glyph unicode="&#xe9;" horiz-adv-x="518" d="M484 197h-325q5 -116 106 -116q63 0 103 58l112 -18q-56 -135 -212 -135q-106 0 -169.5 63t-63.5 167q0 105 62 168t165 63t162.5 -62.5t59.5 -171.5v-16zM163 274h205q-20 86 -103 86q-40 0 -67 -22.5t-35 -63.5zM400 644l-150 -135l-58 40l119 151z" />
<glyph unicode="&#xea;" horiz-adv-x="518" d="M484 197h-325q5 -116 106 -116q63 0 103 58l112 -18q-56 -135 -212 -135q-106 0 -169.5 63t-63.5 167q0 105 62 168t165 63t162.5 -62.5t59.5 -171.5v-16zM163 274h205q-20 86 -103 86q-40 0 -67 -22.5t-35 -63.5zM96 569l169 138l172 -138l-62 -60l-110 92l-109 -92z " />
<glyph unicode="&#xeb;" horiz-adv-x="518" d="M484 197h-325q5 -116 106 -116q63 0 103 58l112 -18q-56 -135 -212 -135q-106 0 -169.5 63t-63.5 167q0 105 62 168t165 63t162.5 -62.5t59.5 -171.5v-16zM163 274h205q-20 86 -103 86q-40 0 -67 -22.5t-35 -63.5zM162 658q29 0 50 -21t21 -51t-21 -51t-50 -21 q-30 0 -51 21t-21 52q0 29 21.5 50t50.5 21zM369 658q30 0 51 -21t21 -51t-21 -51t-51 -21t-51 21t-21 52q0 29 21.5 50t50.5 21z" />
<glyph unicode="&#xec;" horiz-adv-x="234" d="M178 433v-433h-121v433h121zM-20 644l88 56l120 -151l-58 -40z" />
<glyph unicode="&#xed;" horiz-adv-x="234" d="M178 433v-433h-121v433h121zM255 644l-150 -135l-58 40l119 151z" />
<glyph unicode="&#xee;" horiz-adv-x="234" d="M178 433v-433h-121v433h121zM-33 569l149 138l152 -138l-62 -60l-90 92l-89 -92z" />
<glyph unicode="&#xef;" horiz-adv-x="234" d="M178 433v-433h-121v433h121zM29 658q30 0 51 -21t21 -51t-21 -51t-51 -21t-51 21t-21 52q0 29 21.5 50t50.5 21zM206 658q30 0 51 -21t21 -51t-21 -51t-51 -21t-51 21t-21 52q0 29 21.5 50t50.5 21z" />
<glyph unicode="&#xf0;" horiz-adv-x="565" d="M367 732l41 -82l-74 -38q93 -86 144.5 -187.5t51.5 -200.5q0 -108 -67 -173t-178 -65q-110 0 -180 64.5t-70 164.5q0 103 70 167.5t183 64.5q10 0 19 -1q-34 65 -78 115l-93 -47l-39 80l72 37q-24 18 -66 37q-12 6 -21 10l36 72q30 -10 73 -33.5t63 -40.5zM283 338 q-50 0 -86.5 -35.5t-36.5 -84.5q0 -52 35.5 -87.5t87.5 -35.5q50 0 86 35.5t36 85.5q0 52 -35 87t-87 35z" />
<glyph unicode="&#xf1;" horiz-adv-x="533" d="M58 433h121v-54q28 37 60 52.5t76 15.5q80 0 126 -52q34 -39 34 -120v-275h-121v240q0 50 -12 70q-19 34 -71 34q-92 0 -92 -120v-224h-121v433zM160 523h-68q8 58 37 91.5t70 33.5q30 0 80 -20q49 -18 63 -18t23 7.5t21 29.5h69q-12 -60 -43 -93t-75 -33q-25 0 -70 19 q-48 18 -67 18q-25 0 -40 -35z" />
<glyph unicode="&#xf2;" horiz-adv-x="565" d="M284 447q109 0 177.5 -64t68.5 -166q0 -103 -69.5 -167t-180.5 -64q-109 0 -177 65t-68 169q0 99 70 163t179 64zM282 338q-50 0 -86 -35.5t-36 -84.5q0 -52 35.5 -87.5t87.5 -35.5q50 0 86 35.5t36 85.5q0 51 -36 86.5t-87 35.5zM145 644l88 56l120 -151l-58 -40z" />
<glyph unicode="&#xf3;" horiz-adv-x="565" d="M284 447q109 0 177.5 -64t68.5 -166q0 -103 -69.5 -167t-180.5 -64q-109 0 -177 65t-68 169q0 99 70 163t179 64zM282 338q-50 0 -86 -35.5t-36 -84.5q0 -52 35.5 -87.5t87.5 -35.5q50 0 86 35.5t36 85.5q0 51 -36 86.5t-87 35.5zM427 644l-150 -135l-58 40l119 151z" />
<glyph unicode="&#xf4;" horiz-adv-x="565" d="M284 447q109 0 177.5 -64t68.5 -166q0 -103 -69.5 -167t-180.5 -64q-109 0 -177 65t-68 169q0 99 70 163t179 64zM282 338q-50 0 -86 -35.5t-36 -84.5q0 -52 35.5 -87.5t87.5 -35.5q50 0 86 35.5t36 85.5q0 51 -36 86.5t-87 35.5zM112 569l169 138l172 -138l-62 -60 l-110 92l-109 -92z" />
<glyph unicode="&#xf5;" horiz-adv-x="565" d="M284 447q109 0 177.5 -64t68.5 -166q0 -103 -69.5 -167t-180.5 -64q-109 0 -177 65t-68 169q0 99 70 163t179 64zM282 338q-50 0 -86 -35.5t-36 -84.5q0 -52 35.5 -87.5t87.5 -35.5q50 0 86 35.5t36 85.5q0 51 -36 86.5t-87 35.5zM176 523h-68q8 58 37 91.5t70 33.5 q30 0 80 -20q49 -18 63 -18t23 7.5t21 29.5h69q-12 -60 -43 -93t-75 -33q-25 0 -70 19q-48 18 -67 18q-25 0 -40 -35z" />
<glyph unicode="&#xf6;" horiz-adv-x="565" d="M284 447q109 0 177.5 -64t68.5 -166q0 -103 -69.5 -167t-180.5 -64q-109 0 -177 65t-68 169q0 99 70 163t179 64zM282 338q-50 0 -86 -35.5t-36 -84.5q0 -52 35.5 -87.5t87.5 -35.5q50 0 86 35.5t36 85.5q0 51 -36 86.5t-87 35.5zM179 658q29 0 50 -21t21 -51t-21 -51 t-50 -21q-30 0 -51 21t-21 52q0 29 21.5 50t50.5 21zM386 658q30 0 51 -21t21 -51t-21 -51t-51 -21t-51 21t-21 52q0 29 21.5 50t50.5 21z" />
<glyph unicode="&#xf7;" d="M60 373h447v-80h-447v80zM283 228q25 0 43 -18t18 -43t-18 -43t-43 -18q-26 0 -43.5 18t-17.5 44q0 25 18 42.5t43 17.5zM283 561q25 0 43 -17.5t18 -43.5t-18 -43.5t-43 -17.5q-26 0 -43.5 18t-17.5 44q0 25 18 42.5t43 17.5z" />
<glyph unicode="&#xf8;" horiz-adv-x="566" d="M520 443l-54 -64q64 -67 64 -163q0 -101 -69 -165.5t-177 -64.5q-66 0 -126 27l-59 -69l-52 46l52 63q-64 65 -64 164q0 101 69.5 165.5t177.5 64.5q67 0 125 -27l57 69zM385 283l-150 -178q24 -10 47 -10q51 0 87 35.5t36 85.5q0 33 -20 67zM180 150l150 178 q-24 10 -48 10q-50 0 -86 -36t-36 -86q0 -32 20 -66z" />
<glyph unicode="&#xf9;" horiz-adv-x="535" d="M179 433v-245q0 -99 89 -99q88 0 88 99v245h121v-265q0 -88 -54 -135t-155 -47t-155.5 47t-54.5 135v265h121zM130 644l88 56l120 -151l-58 -40z" />
<glyph unicode="&#xfa;" horiz-adv-x="535" d="M179 433v-245q0 -99 89 -99q88 0 88 99v245h121v-265q0 -88 -54 -135t-155 -47t-155.5 47t-54.5 135v265h121zM415 644l-150 -135l-58 40l119 151z" />
<glyph unicode="&#xfb;" horiz-adv-x="535" d="M179 433v-245q0 -99 89 -99q88 0 88 99v245h121v-265q0 -88 -54 -135t-155 -47t-155.5 47t-54.5 135v265h121zM97 569l169 138l172 -138l-62 -60l-110 92l-109 -92z" />
<glyph unicode="&#xfc;" horiz-adv-x="535" d="M179 433v-245q0 -99 89 -99q88 0 88 99v245h121v-265q0 -88 -54 -135t-155 -47t-155.5 47t-54.5 135v265h121zM164 658q29 0 50 -21t21 -51t-21 -51t-50 -21q-30 0 -51 21t-21 52q0 29 21.5 50t50.5 21zM371 658q30 0 51 -21t21 -51t-21 -51t-51 -21t-51 21t-21 52 q0 29 21.5 50t50.5 21z" />
<glyph unicode="&#xfd;" horiz-adv-x="535" d="M206 66l-205 367h141l130 -246l123 246h139l-350 -664h-137zM412 644l-150 -135l-58 40l119 151z" />
<glyph unicode="&#xfe;" d="M183 -228h-125v957h125v-341q57 60 136 60q92 0 152.5 -65.5t60.5 -165.5q0 -98 -61 -164t-152 -66q-77 0 -136 58v-273zM288 336q-49 0 -79.5 -34t-30.5 -87q0 -52 30.5 -85.5t77.5 -33.5q49 0 80.5 33.5t31.5 85.5q0 54 -30.5 87.5t-79.5 33.5z" />
<glyph unicode="&#xff;" horiz-adv-x="535" d="M206 66l-205 367h141l130 -246l123 246h139l-350 -664h-137zM164 658q29 0 50 -21t21 -51t-21 -51t-50 -21q-30 0 -51 21t-21 52q0 29 21.5 50t50.5 21zM371 658q30 0 51 -21t21 -51t-21 -51t-51 -21t-51 21t-21 52q0 29 21.5 50t50.5 21z" />
<glyph unicode="&#x100;" horiz-adv-x="670" d="M472 141h-273l-60 -141h-138l289 681h98l280 -681h-139zM431 246l-93 240l-97 -240h190zM168 833h333v-80h-333v80z" />
<glyph unicode="&#x101;" horiz-adv-x="569" d="M390 433h121v-433h-121v56q-56 -70 -142 -70q-91 0 -152 66t-61 165q0 97 61 163.5t150 66.5q84 0 144 -70v56zM282 338q-51 0 -86.5 -35.5t-35.5 -85.5q0 -51 36 -86.5t86 -35.5q49 0 85 35.5t36 84.5q0 52 -35 87.5t-86 35.5zM126 631h320v-80h-320v80z" />
<glyph unicode="&#x102;" horiz-adv-x="670" d="M472 141h-273l-60 -141h-138l289 681h98l280 -681h-139zM431 246l-93 240l-97 -240h190zM170 872h84q11 -34 29.5 -48.5t50.5 -14.5q31 0 50 14.5t31 48.5h84q-8 -65 -52.5 -102.5t-112.5 -37.5q-67 0 -111.5 37.5t-52.5 102.5z" />
<glyph unicode="&#x103;" horiz-adv-x="569" d="M390 433h121v-433h-121v56q-56 -70 -142 -70q-91 0 -152 66t-61 165q0 97 61 163.5t150 66.5q84 0 144 -70v56zM282 338q-51 0 -86.5 -35.5t-35.5 -85.5q0 -51 36 -86.5t86 -35.5q49 0 85 35.5t36 84.5q0 52 -35 87.5t-86 35.5zM127 650h84q11 -34 29.5 -48.5t50.5 -14.5 q31 0 50 14.5t31 48.5h84q-8 -65 -52.5 -103t-112.5 -38t-112 38t-52 103z" />
<glyph unicode="&#x104;" horiz-adv-x="670" d="M472 141h-273l-60 -141h-138l289 681h98l280 -681q-60 -45 -60 -82q0 -17 12 -28.5t29 -11.5q25 0 56 19l-17 -78q-29 -16 -69 -16q-44 0 -72.5 23.5t-28.5 60.5q0 57 80 113h-69zM431 246l-93 240l-97 -240h190z" />
<glyph unicode="&#x105;" horiz-adv-x="569" d="M390 433h121v-433q-3 -2 -8 -6l-5 -3q-28 -19 -38.5 -33t-10.5 -32q0 -17 12 -28.5t31 -11.5q22 0 48 13l-15 -67q-28 -17 -64 -17q-37 0 -62.5 22t-25.5 54q0 41 28 72q16 17 52 37h-63v56q-56 -70 -142 -70q-91 0 -152 66t-61 165q0 97 61 163.5t150 66.5q84 0 144 -70 v56zM282 338q-51 0 -86.5 -35.5t-35.5 -85.5q0 -51 36 -86.5t86 -35.5q49 0 85 35.5t36 84.5q0 52 -35 87.5t-86 35.5z" />
<glyph unicode="&#x106;" horiz-adv-x="602" d="M558 641v-153q-76 75 -163 75q-92 0 -155 -67t-63 -165q0 -97 63 -162t158 -65q47 0 83.5 16.5t76.5 56.5v-153q-84 -39 -163 -39q-148 0 -250 100t-102 245q0 146 103 249t249 103q81 0 163 -41zM531 842l-167 -114l-53 49l137 133z" />
<glyph unicode="&#x107;" horiz-adv-x="417" d="M383 421v-120q-48 37 -98 37q-54 0 -89.5 -34.5t-35.5 -87.5q0 -52 35.5 -86.5t89.5 -34.5q52 0 98 36v-118q-53 -27 -111 -27q-101 0 -169 65.5t-68 162.5q0 99 68.5 166t169.5 67q59 0 110 -26zM393 644l-150 -135l-58 40l119 151z" />
<glyph unicode="&#x108;" horiz-adv-x="602" d="M558 641v-153q-76 75 -163 75q-92 0 -155 -67t-63 -165q0 -97 63 -162t158 -65q47 0 83.5 16.5t76.5 56.5v-153q-84 -39 -163 -39q-148 0 -250 100t-102 245q0 146 103 249t249 103q81 0 163 -41zM207 788l169 138l172 -138l-62 -60l-110 90l-109 -90z" />
<glyph unicode="&#x109;" horiz-adv-x="417" d="M383 421v-120q-48 37 -98 37q-54 0 -89.5 -34.5t-35.5 -87.5q0 -52 35.5 -86.5t89.5 -34.5q52 0 98 36v-118q-53 -27 -111 -27q-101 0 -169 65.5t-68 162.5q0 99 68.5 166t169.5 67q59 0 110 -26zM78 569l169 138l172 -138l-62 -60l-110 92l-109 -92z" />
<glyph unicode="&#x10a;" horiz-adv-x="602" d="M558 641v-153q-76 75 -163 75q-92 0 -155 -67t-63 -165q0 -97 63 -162t158 -65q47 0 83.5 16.5t76.5 56.5v-153q-84 -39 -163 -39q-148 0 -250 100t-102 245q0 146 103 249t249 103q81 0 163 -41zM381 883q31 0 53 -22t22 -53t-22 -53t-53 -22t-53.5 22.5t-22.5 53.5 q0 30 22.5 52t53.5 22z" />
<glyph unicode="&#x10b;" horiz-adv-x="417" d="M383 421v-120q-48 37 -98 37q-54 0 -89.5 -34.5t-35.5 -87.5q0 -52 35.5 -86.5t89.5 -34.5q52 0 98 36v-118q-53 -27 -111 -27q-101 0 -169 65.5t-68 162.5q0 99 68.5 166t169.5 67q59 0 110 -26zM256 665q31 0 53 -22t22 -53t-22 -53.5t-53 -22.5q-32 0 -54 22.5 t-22 54.5q0 30 22.5 52t53.5 22z" />
<glyph unicode="&#x10c;" horiz-adv-x="602" d="M558 641v-153q-76 75 -163 75q-92 0 -155 -67t-63 -165q0 -97 63 -162t158 -65q47 0 83.5 16.5t76.5 56.5v-153q-84 -39 -163 -39q-148 0 -250 100t-102 245q0 146 103 249t249 103q81 0 163 -41zM210 867l60 59l109 -89l110 89l62 -59l-172 -139z" />
<glyph unicode="&#x10d;" horiz-adv-x="417" d="M383 421v-120q-48 37 -98 37q-54 0 -89.5 -34.5t-35.5 -87.5q0 -52 35.5 -86.5t89.5 -34.5q52 0 98 36v-118q-53 -27 -111 -27q-101 0 -169 65.5t-68 162.5q0 99 68.5 166t169.5 67q59 0 110 -26zM79 648l60 59l109 -91l110 91l62 -59l-172 -139z" />
<glyph unicode="&#x10e;" horiz-adv-x="669" d="M77 0v667h191q146 0 239 -77q56 -46 87.5 -113.5t31.5 -142.5q0 -74 -32 -142t-89 -115q-91 -77 -238 -77h-190zM207 113h35q119 0 178 53q34 30 53 75t19 93q0 102 -72 166q-60 54 -178 54h-35v-441zM128 867l60 59l109 -89l110 89l62 -59l-172 -139z" />
<glyph unicode="&#x10f;" horiz-adv-x="724" d="M390 749h121v-749h-121v56q-56 -70 -142 -70q-91 0 -152 66t-61 165q0 97 61 163.5t150 66.5q84 0 144 -70v372zM282 338q-51 0 -86.5 -35.5t-35.5 -85.5q0 -51 36 -86.5t86 -35.5q49 0 85 35.5t36 84.5q0 52 -35 87.5t-86 35.5zM616 753l101 -9l-109 -176l-64 7z" />
<glyph unicode="&#x110;" horiz-adv-x="669" d="M77 383v284h191q146 0 239 -77q56 -46 87.5 -114t31.5 -142q0 -75 -31.5 -142.5t-89.5 -114.5q-93 -77 -238 -77h-190v283h-56v100h56zM207 383h142v-100h-142v-170h35q119 0 178 53q72 64 72 167t-72 167q-33 29 -73.5 41.5t-104.5 12.5h-35v-171z" />
<glyph unicode="&#x111;" horiz-adv-x="569" d="M390 749h121v-93h53v-93h-53v-563h-121v56q-56 -70 -142 -70q-91 0 -152 66t-61 165q0 97 61 163.5t150 66.5q84 0 144 -70v186h-120v93h120v93zM282 338q-51 0 -86.5 -35.5t-35.5 -85.5q0 -51 36 -86.5t86 -35.5q49 0 85 35.5t36 84.5q0 52 -35 87.5t-86 35.5z" />
<glyph unicode="&#x112;" horiz-adv-x="495" d="M446 554h-239v-148h230v-113h-230v-180h239v-113h-369v667h369v-113zM95 833h333v-80h-333v80z" />
<glyph unicode="&#x113;" horiz-adv-x="518" d="M484 197h-325q5 -116 106 -116q63 0 103 58l112 -18q-56 -135 -212 -135q-106 0 -169.5 63t-63.5 167q0 105 62 168t165 63t162.5 -62.5t59.5 -171.5v-16zM163 274h205q-20 86 -103 86q-40 0 -67 -22.5t-35 -63.5zM106 631h320v-80h-320v80z" />
<glyph unicode="&#x114;" horiz-adv-x="495" d="M446 554h-239v-148h230v-113h-230v-180h239v-113h-369v667h369v-113zM104 872h84q11 -34 29.5 -48.5t50.5 -14.5q31 0 50 14.5t31 48.5h84q-8 -65 -52.5 -102.5t-112.5 -37.5q-67 0 -111.5 37.5t-52.5 102.5z" />
<glyph unicode="&#x115;" horiz-adv-x="518" d="M484 197h-325q5 -116 106 -116q63 0 103 58l112 -18q-56 -135 -212 -135q-106 0 -169.5 63t-63.5 167q0 105 62 168t165 63t162.5 -62.5t59.5 -171.5v-16zM163 274h205q-20 86 -103 86q-40 0 -67 -22.5t-35 -63.5zM95 650h84q11 -34 29.5 -48.5t50.5 -14.5q31 0 50 14.5 t31 48.5h84q-8 -65 -52.5 -103t-112.5 -38t-112 38t-52 103z" />
<glyph unicode="&#x116;" horiz-adv-x="495" d="M446 554h-239v-148h230v-113h-230v-180h239v-113h-369v667h369v-113zM269 883q31 0 53 -22t22 -53t-22 -53t-53 -22t-53.5 22.5t-22.5 53.5q0 30 22.5 52t53.5 22z" />
<glyph unicode="&#x117;" horiz-adv-x="518" d="M484 197h-325q5 -116 106 -116q63 0 103 58l112 -18q-56 -135 -212 -135q-106 0 -169.5 63t-63.5 167q0 105 62 168t165 63t162.5 -62.5t59.5 -171.5v-16zM163 274h205q-20 86 -103 86q-40 0 -67 -22.5t-35 -63.5zM266 665q31 0 53 -22t22 -53t-22 -53.5t-53 -22.5 q-32 0 -54 22.5t-22 54.5q0 30 22.5 52t53.5 22z" />
<glyph unicode="&#x118;" horiz-adv-x="495" d="M446 554h-239v-148h230v-113h-230v-180h239v-113q-60 -47 -60 -82q0 -17 12 -28.5t29 -11.5q25 0 56 19l-17 -78q-29 -16 -69 -16q-44 0 -72.5 23.5t-28.5 60.5q0 57 80 113h-299v667h369v-113z" />
<glyph unicode="&#x119;" horiz-adv-x="518" d="M484 197h-325q5 -116 106 -116q63 0 103 58l112 -18q-15 -38 -37 -62.5t-60 -47.5q-71 -45 -71 -86q0 -17 12 -28t31 -11q22 0 48 13l-14 -67q-29 -17 -65 -17q-37 0 -62.5 22t-25.5 54q0 55 57 96q-12 -1 -24 -1q-106 0 -170 63t-64 167q0 106 61.5 168.5t165.5 62.5 q103 0 162.5 -62.5t59.5 -171.5v-16zM163 274h205q-20 86 -103 86q-40 0 -67 -22.5t-35 -63.5z" />
<glyph unicode="&#x11a;" horiz-adv-x="495" d="M446 554h-239v-148h230v-113h-230v-180h239v-113h-369v667h369v-113zM98 867l60 59l109 -89l110 89l62 -59l-172 -139z" />
<glyph unicode="&#x11b;" horiz-adv-x="518" d="M484 197h-325q5 -116 106 -116q63 0 103 58l112 -18q-56 -135 -212 -135q-106 0 -169.5 63t-63.5 167q0 105 62 168t165 63t162.5 -62.5t59.5 -171.5v-16zM163 274h205q-20 86 -103 86q-40 0 -67 -22.5t-35 -63.5zM96 648l60 59l109 -91l110 91l62 -59l-172 -139z" />
<glyph unicode="&#x11c;" horiz-adv-x="762" d="M413 357h305q-1 -132 -35 -198q-41 -84 -116 -129t-174 -45q-152 0 -251 97.5t-99 247.5q0 153 100 252.5t254 99.5q190 0 286 -157l-114 -61q-60 99 -173 99q-94 0 -156.5 -66t-62.5 -167q0 -98 62 -162.5t156 -64.5q71 0 119.5 38.5t55.5 102.5h-157v113zM224 788 l169 138l172 -138l-62 -60l-110 90l-109 -90z" />
<glyph unicode="&#x11d;" d="M509 433v-417q0 -67 -10.5 -103.5t-38.5 -68.5q-64 -76 -182 -76q-132 0 -199 95q-28 40 -33 86h132q18 -78 102 -78q49 0 81 32q27 29 27 90v65q-34 -39 -67.5 -55.5t-79.5 -16.5q-89 0 -147.5 63.5t-58.5 161.5q0 102 60 169t152 67q84 0 141 -70v56h121zM282 338 q-51 0 -86.5 -35.5t-35.5 -85.5q0 -51 36 -86.5t86 -35.5q49 0 85 35.5t36 84.5q0 52 -35.5 87.5t-85.5 35.5zM120 569l169 138l172 -138l-62 -60l-110 92l-109 -92z" />
<glyph unicode="&#x11e;" horiz-adv-x="762" d="M413 357h305q-1 -132 -35 -198q-41 -84 -116 -129t-174 -45q-152 0 -251 97.5t-99 247.5q0 153 100 252.5t254 99.5q190 0 286 -157l-114 -61q-60 99 -173 99q-94 0 -156.5 -66t-62.5 -167q0 -98 62 -162.5t156 -64.5q71 0 119.5 38.5t55.5 102.5h-157v113zM230 872h84 q11 -34 29.5 -48.5t50.5 -14.5q31 0 50 14.5t31 48.5h84q-8 -65 -52.5 -102.5t-112.5 -37.5q-67 0 -111.5 37.5t-52.5 102.5z" />
<glyph unicode="&#x11f;" d="M509 433v-417q0 -67 -10.5 -103.5t-38.5 -68.5q-64 -76 -182 -76q-132 0 -199 95q-28 40 -33 86h132q18 -78 102 -78q49 0 81 32q27 29 27 90v65q-34 -39 -67.5 -55.5t-79.5 -16.5q-89 0 -147.5 63.5t-58.5 161.5q0 102 60 169t152 67q84 0 141 -70v56h121zM282 338 q-51 0 -86.5 -35.5t-35.5 -85.5q0 -51 36 -86.5t86 -35.5q49 0 85 35.5t36 84.5q0 52 -35.5 87.5t-85.5 35.5zM119 650h84q11 -34 29.5 -48.5t50.5 -14.5q31 0 50 14.5t31 48.5h84q-8 -65 -52.5 -103t-112.5 -38t-112 38t-52 103z" />
<glyph unicode="&#x120;" horiz-adv-x="762" d="M413 357h305q-1 -132 -35 -198q-41 -84 -116 -129t-174 -45q-152 0 -251 97.5t-99 247.5q0 153 100 252.5t254 99.5q190 0 286 -157l-114 -61q-60 99 -173 99q-94 0 -156.5 -66t-62.5 -167q0 -98 62 -162.5t156 -64.5q71 0 119.5 38.5t55.5 102.5h-157v113zM391 883 q31 0 53 -22t22 -53t-22 -53t-53 -22t-53.5 22.5t-22.5 53.5q0 30 22.5 52t53.5 22z" />
<glyph unicode="&#x121;" d="M509 433v-417q0 -67 -10.5 -103.5t-38.5 -68.5q-64 -76 -182 -76q-132 0 -199 95q-28 40 -33 86h132q18 -78 102 -78q49 0 81 32q27 29 27 90v65q-34 -39 -67.5 -55.5t-79.5 -16.5q-89 0 -147.5 63.5t-58.5 161.5q0 102 60 169t152 67q84 0 141 -70v56h121zM282 338 q-51 0 -86.5 -35.5t-35.5 -85.5q0 -51 36 -86.5t86 -35.5q49 0 85 35.5t36 84.5q0 52 -35.5 87.5t-85.5 35.5zM277 665q31 0 53 -22t22 -53t-22 -53.5t-53 -22.5q-32 0 -54 22.5t-22 54.5q0 30 22.5 52t53.5 22z" />
<glyph unicode="&#x122;" horiz-adv-x="762" d="M413 357h305q-1 -132 -35 -198q-41 -84 -116 -129t-174 -45q-152 0 -251 97.5t-99 247.5q0 153 100 252.5t254 99.5q190 0 286 -157l-114 -61q-60 99 -173 99q-94 0 -156.5 -66t-62.5 -167q0 -98 62 -162.5t156 -64.5q71 0 119.5 38.5t55.5 102.5h-157v113zM343 -53 l108 -9l-113 -179l-67 7z" />
<glyph unicode="&#x123;" d="M509 433v-417q0 -67 -10.5 -103.5t-38.5 -68.5q-64 -76 -182 -76q-132 0 -199 95q-28 40 -33 86h132q18 -78 102 -78q49 0 81 32q27 29 27 90v65q-34 -39 -67.5 -55.5t-79.5 -16.5q-89 0 -147.5 63.5t-58.5 161.5q0 102 60 169t152 67q84 0 141 -70v56h121zM282 338 q-51 0 -86.5 -35.5t-35.5 -85.5q0 -51 36 -86.5t86 -35.5q49 0 85 35.5t36 84.5q0 52 -35.5 87.5t-85.5 35.5zM323 511l-101 9l109 176l64 -7z" />
<glyph unicode="&#x124;" horiz-adv-x="695" d="M207 409h282v258h130v-667h-130v296h-282v-296h-130v667h130v-258zM178 788l169 138l172 -138l-62 -60l-110 90l-109 -90z" />
<glyph unicode="&#x125;" horiz-adv-x="533" d="M58 749h121v-372q53 70 136 70q81 0 126 -53q34 -41 34 -122v-272h-121v237q0 52 -12 72q-20 35 -71 35q-92 0 -92 -122v-222h-121v749zM-2 837l169 138l172 -138l-62 -60l-110 90l-109 -90z" />
<glyph unicode="&#x126;" horiz-adv-x="695" d="M489 667h130v-94h56v-100h-56v-473h-130v296h-282v-296h-130v473h-56v100h56v94h130v-94h282v94zM489 473h-282v-64h282v64z" />
<glyph unicode="&#x127;" horiz-adv-x="533" d="M300 656v-93h-121v-186q53 70 137 70q81 0 126 -53q34 -41 34 -122v-272h-121v237q0 52 -12 72q-20 35 -71 35q-93 0 -93 -122v-222h-121v563h-53v93h53v93h121v-93h121z" />
<glyph unicode="&#x128;" horiz-adv-x="283" d="M206 667v-667h-130v667h130zM28 742h-68q8 58 37 92t70 34q30 0 80 -20q50 -18 63 -18q14 0 23 7.5t21 29.5h69q-12 -60 -43 -93.5t-75 -33.5q-23 0 -70 19t-66 19q-27 0 -41 -36z" />
<glyph unicode="&#x129;" horiz-adv-x="234" d="M178 433v-433h-121v433h121zM4 523h-68q8 58 37 91.5t70 33.5q30 0 80 -20q49 -18 63 -18t23 7.5t21 29.5h69q-12 -60 -43 -93t-75 -33q-25 0 -70 19q-48 18 -67 18q-25 0 -40 -35z" />
<glyph unicode="&#x12a;" horiz-adv-x="283" d="M207 667v-667h-130v667h130zM13 833h257v-80h-257v80z" />
<glyph unicode="&#x12b;" horiz-adv-x="234" d="M177 433v-433h-121v433h121zM-5 631h244v-80h-244v80z" />
<glyph unicode="&#x12c;" horiz-adv-x="283" d="M206 667v-667h-130v667h130zM-23 872h84q11 -34 29.5 -48.5t50.5 -14.5q31 0 50 14.5t31 48.5h84q-8 -65 -52.5 -102.5t-112.5 -37.5q-67 0 -111.5 37.5t-52.5 102.5z" />
<glyph unicode="&#x12d;" horiz-adv-x="234" d="M178 433v-433h-121v433h121zM-17 650h77q9 -66 64 -66t64 66h77q-9 -69 -45 -105t-96 -36t-96 36t-45 105z" />
<glyph unicode="&#x12e;" horiz-adv-x="283" d="M77 667h130v-667q-60 -45 -60 -82q0 -17 12 -28.5t29 -11.5q24 0 56 19l-17 -78q-29 -16 -69 -16q-44 0 -72.5 23.5t-28.5 60.5q0 56 80 113h-60v667z" />
<glyph unicode="&#x12f;" horiz-adv-x="233" d="M100 0h-44v433h121v-433q-74 -36 -74 -75q0 -17 12 -28t31 -11q21 0 47 13l-14 -67q-28 -17 -64 -17q-37 0 -62.5 22.5t-25.5 54.5q0 59 73 108zM117 689q30 0 51 -21t21 -52q0 -30 -21 -51.5t-51 -21.5q-31 0 -52 21.5t-21 52.5q0 29 21.5 50.5t51.5 21.5z" />
<glyph unicode="&#x130;" horiz-adv-x="283" d="M207 667v-667h-130v667h130zM142 883q31 0 53 -22t22 -53t-22 -53t-53 -22q-32 0 -54 22.5t-22 53.5q0 30 22.5 52t53.5 22z" />
<glyph unicode="&#x131;" horiz-adv-x="234" d="M178 433v-433h-121v433h121z" />
<glyph unicode="&#x132;" horiz-adv-x="673" d="M207 667v-667h-130v667h130zM597 667v-450q0 -131 -59 -187q-51 -46 -125 -46q-89 0 -156 63l78 95q26 -38 65 -38q44 0 58 40q9 24 9 94v429h130z" />
<glyph unicode="&#x133;" horiz-adv-x="467" d="M177 433v-433h-121v433h121zM117 689q30 0 51 -21t21 -52q0 -30 -21 -51.5t-51 -21.5q-31 0 -52 21.5t-21 52.5q0 29 21.5 50.5t51.5 21.5zM411 433v-664h-121v664h121zM351 689q30 0 51 -21t21 -52q0 -30 -21 -51.5t-51 -21.5q-31 0 -52 21.5t-21 52.5q0 29 21.5 50.5 t51.5 21.5z" />
<glyph unicode="&#x134;" horiz-adv-x="390" d="M313 667v-450q0 -131 -59 -187q-51 -46 -125 -46q-89 0 -156 63l78 95q26 -38 65 -38q44 0 58 40q9 24 9 94v429h130zM76 788l169 138l172 -138l-62 -60l-110 90l-109 -90z" />
<glyph unicode="&#x135;" horiz-adv-x="233" d="M177 433v-664h-121v664h121zM-54 569l169 138l172 -138l-62 -60l-110 92l-109 -92z" />
<glyph unicode="&#x136;" horiz-adv-x="637" d="M207 385l245 282h164l-282 -308l297 -359h-171l-237 300l-16 -16v-284h-130v667h130v-282zM289 -53l108 -9l-113 -179l-67 7z" />
<glyph unicode="&#x137;" horiz-adv-x="517" d="M179 749v-474l162 158h164l-203 -190l219 -243h-167l-162 186l-13 -13v-173h-121v749h121zM225 -53l101 -9l-109 -169l-64 7z" />
<glyph unicode="&#x138;" horiz-adv-x="517" d="M179 433v-158l162 158h164l-203 -190l219 -243h-167l-162 186l-13 -13v-173h-121v433h121z" />
<glyph unicode="&#x139;" horiz-adv-x="425" d="M207 667v-554h205v-113h-335v667h130zM296 842l-167 -114l-53 49l137 133z" />
<glyph unicode="&#x13a;" horiz-adv-x="237" d="M179 736v-736h-121v736h121zM261 866l-153 -95l-48 43l123 121z" />
<glyph unicode="&#x13b;" horiz-adv-x="425" d="M207 667v-554h205v-113h-335v667h130zM207 -53l108 -9l-113 -179l-67 7z" />
<glyph unicode="&#x13c;" horiz-adv-x="237" d="M179 749v-749h-121v749h121zM77 -53l101 -9l-109 -169l-64 7z" />
<glyph unicode="&#x13d;" horiz-adv-x="425" d="M207 667v-554h205v-113h-335v667h130zM312 670l108 -9l-113 -179l-67 7z" />
<glyph unicode="&#x13e;" horiz-adv-x="393" d="M179 749v-749h-121v749h121zM285 753l101 -9l-109 -176l-64 7z" />
<glyph unicode="&#x13f;" horiz-adv-x="425" d="M207 667v-554h205v-113h-335v667h130zM354 377q38 0 65 -26.5t27 -64.5t-26.5 -65t-64.5 -27t-65 27t-27 66q0 37 27 63.5t64 26.5z" />
<glyph unicode="&#x140;" horiz-adv-x="421" d="M179 749v-749h-121v749h121zM328 377q38 0 65 -26.5t27 -64.5t-26.5 -65t-64.5 -27t-65 27t-27 66q0 37 27 63.5t64 26.5z" />
<glyph unicode="&#x141;" horiz-adv-x="425" d="M205 667v-217l123 83v-115l-123 -82v-223h207v-113h-337v266l-71 -49v115l71 48v287h130z" />
<glyph unicode="&#x142;" horiz-adv-x="269" d="M194 749v-249l75 55v-112l-75 -52v-391h-121v335l-73 -52v111l73 49v306h121z" />
<glyph unicode="&#x143;" horiz-adv-x="779" d="M77 0v682h90l406 -464v449h130v-680h-90l-406 464v-451h-130zM533 842l-167 -114l-53 49l137 133z" />
<glyph unicode="&#x144;" horiz-adv-x="533" d="M58 433h121v-54q28 37 60 52.5t76 15.5q80 0 126 -52q34 -39 34 -120v-275h-121v240q0 50 -12 70q-19 34 -71 34q-92 0 -92 -120v-224h-121v433zM411 644l-150 -135l-58 40l119 151z" />
<glyph unicode="&#x145;" horiz-adv-x="779" d="M77 0v682h90l406 -464v449h130v-680h-90l-406 464v-451h-130zM359 -53l108 -9l-113 -179l-67 7z" />
<glyph unicode="&#x146;" horiz-adv-x="533" d="M58 433h121v-54q28 37 60 52.5t76 15.5q80 0 126 -52q34 -39 34 -120v-275h-121v240q0 50 -12 70q-19 34 -71 34q-92 0 -92 -120v-224h-121v433zM232 -53l101 -9l-109 -169l-64 7z" />
<glyph unicode="&#x147;" horiz-adv-x="779" d="M77 0v682h90l406 -464v449h130v-680h-90l-406 464v-451h-130zM220 867l60 59l109 -89l110 89l62 -59l-172 -139z" />
<glyph unicode="&#x148;" horiz-adv-x="533" d="M58 433h121v-54q28 37 60 52.5t76 15.5q80 0 126 -52q34 -39 34 -120v-275h-121v240q0 50 -12 70q-19 34 -71 34q-92 0 -92 -120v-224h-121v433zM103 648l60 59l109 -91l110 91l62 -59l-172 -139z" />
<glyph unicode="&#x149;" horiz-adv-x="668" d="M140 680l111 -13l-141 -266l-77 10zM192 433h121v-54q28 37 60 52.5t77 15.5q80 0 126 -52q34 -39 34 -120v-275h-121v240q0 50 -12 70q-19 34 -71 34q-93 0 -93 -120v-224h-121v433z" />
<glyph unicode="&#x14a;" horiz-adv-x="695" d="M77 667h130v-83q39 53 82.5 75.5t104.5 22.5q113 0 177 -78q26 -33 37 -73.5t11 -107.5v-279q0 -71 -11.5 -114t-39.5 -79q-66 -85 -169 -85q-44 0 -95 23v119q58 -25 92 -25q26 0 47.5 13t31.5 34q14 32 14 102v271q0 77 -19 108q-15 24 -46 38t-69 14q-85 0 -122 -60 q-26 -41 -26 -124v-379h-130v667z" />
<glyph unicode="&#x14b;" horiz-adv-x="533" d="M58 433h121v-54q54 68 136 68q80 0 126 -52q34 -39 34 -120v-220q0 -85 -40 -131q-52 -57 -128 -57q-31 0 -64 14v111q35 -16 55 -16q35 0 47 30q9 19 9 67v167q0 50 -12 70q-18 34 -70 34q-93 0 -93 -120v-224h-121v433z" />
<glyph unicode="&#x14c;" horiz-adv-x="799" d="M401 682q149 0 252 -101t103 -248q0 -148 -104 -248t-256 -100q-150 0 -251.5 101.5t-101.5 251.5q0 143 105 243.5t253 100.5zM399 563q-91 0 -156.5 -67t-65.5 -160q0 -97 65 -164.5t158 -67.5q92 0 157 67.5t65 162.5t-65 162t-158 67zM233 833h333v-80h-333v80z" />
<glyph unicode="&#x14d;" horiz-adv-x="565" d="M284 447q109 0 177.5 -64t68.5 -166q0 -103 -69.5 -167t-180.5 -64q-109 0 -177 65t-68 169q0 99 70 163t179 64zM282 338q-50 0 -86 -35.5t-36 -84.5q0 -52 35.5 -87.5t87.5 -35.5q50 0 86 35.5t36 85.5q0 51 -36 86.5t-87 35.5zM123 631h320v-80h-320v80z" />
<glyph unicode="&#x14e;" horiz-adv-x="799" d="M401 682q149 0 252 -101t103 -248q0 -148 -104 -248t-256 -100q-150 0 -251.5 101.5t-101.5 251.5q0 143 105 243.5t253 100.5zM399 563q-91 0 -156.5 -67t-65.5 -160q0 -97 65 -164.5t158 -67.5q92 0 157 67.5t65 162.5t-65 162t-158 67zM235 872h84q11 -34 29.5 -48.5 t50.5 -14.5q31 0 50 14.5t31 48.5h84q-8 -65 -52.5 -102.5t-112.5 -37.5q-67 0 -111.5 37.5t-52.5 102.5z" />
<glyph unicode="&#x14f;" horiz-adv-x="565" d="M284 447q109 0 177.5 -64t68.5 -166q0 -103 -69.5 -167t-180.5 -64q-109 0 -177 65t-68 169q0 99 70 163t179 64zM282 338q-50 0 -86 -35.5t-36 -84.5q0 -52 35.5 -87.5t87.5 -35.5q50 0 86 35.5t36 85.5q0 51 -36 86.5t-87 35.5zM118 650h84q11 -34 29.5 -48.5 t50.5 -14.5q31 0 50 14.5t31 48.5h84q-8 -65 -52.5 -103t-112.5 -38t-112 38t-52 103z" />
<glyph unicode="&#x150;" horiz-adv-x="799" d="M401 682q149 0 252 -101t103 -248q0 -148 -104 -248t-256 -100q-150 0 -251.5 101.5t-101.5 251.5q0 143 105 243.5t253 100.5zM399 563q-91 0 -156.5 -67t-65.5 -160q0 -97 65 -164.5t158 -67.5q92 0 157 67.5t65 162.5t-65 162t-158 67zM456 842l-157 -114l-43 47 l126 134zM649 842l-157 -114l-43 47l126 134z" />
<glyph unicode="&#x151;" horiz-adv-x="565" d="M284 447q109 0 177.5 -64t68.5 -166q0 -103 -69.5 -167t-180.5 -64q-109 0 -177 65t-68 169q0 99 70 163t179 64zM282 338q-50 0 -86 -35.5t-36 -84.5q0 -52 35.5 -87.5t87.5 -35.5q50 0 86 35.5t36 85.5q0 51 -36 86.5t-87 35.5zM331 644l-134 -135l-49 40l101 151z M517 644l-133 -135l-49 40l100 151z" />
<glyph unicode="&#x152;" horiz-adv-x="1037" d="M988 554h-234v-149h224v-113h-224v-179h234v-113h-362v90q-93 -105 -232 -105q-147 0 -249 101t-102 246t102 247.5t246 102.5q93 0 167 -45q32 -21 68 -60v90h362v-113zM390 563q-88 0 -150.5 -67t-62.5 -160q0 -99 61.5 -165.5t152.5 -66.5q94 0 158 66t64 163 q0 94 -65.5 162t-157.5 68z" />
<glyph unicode="&#x153;" horiz-adv-x="884" d="M849 197h-329q4 -55 33 -86t77 -31q66 0 101 60l112 -19q-54 -135 -215 -135q-111 0 -171 84q-41 -46 -82 -65t-101 -19q-104 0 -171.5 64.5t-67.5 164.5t68.5 166t172.5 66q111 0 181 -79q59 79 169 79q80 0 135.5 -38t74.5 -106q13 -46 13 -106zM524 274h208 q-22 86 -103 86t-105 -86zM278 337q-49 0 -83 -34.5t-34 -83.5q0 -52 33.5 -88t83.5 -36t84 35.5t34 87.5q0 50 -34 84.5t-84 34.5z" />
<glyph unicode="&#x154;" horiz-adv-x="575" d="M354 281l210 -281h-160l-180 268h-17v-268h-130v667h193q114 0 170 -47q66 -55 66 -150t-60 -147q-37 -32 -92 -42zM207 360h38q62 0 94.5 26.5t32.5 75.5q0 100 -125 100h-40v-202zM415 842l-167 -114l-53 49l137 133z" />
<glyph unicode="&#x155;" horiz-adv-x="360" d="M58 433h121v-66q45 80 126 80q26 0 53 -11l-17 -113q-27 15 -58 15q-49 0 -77 -31q-27 -31 -27 -99v-208h-121v433zM338 644l-150 -135l-58 40l119 151z" />
<glyph unicode="&#x156;" horiz-adv-x="575" d="M354 281l210 -281h-160l-180 268h-17v-268h-130v667h193q114 0 170 -47q66 -55 66 -150t-60 -147q-37 -32 -92 -42zM207 360h38q62 0 94.5 26.5t32.5 75.5q0 100 -125 100h-40v-202zM256 -53l108 -9l-113 -179l-67 7z" />
<glyph unicode="&#x157;" horiz-adv-x="360" d="M58 433h121v-66q45 80 126 80q26 0 53 -11l-17 -113q-27 15 -58 15q-49 0 -77 -31q-27 -31 -27 -99v-208h-121v433zM98 -53l101 -9l-109 -169l-64 7z" />
<glyph unicode="&#x158;" horiz-adv-x="575" d="M354 281l210 -281h-160l-180 268h-17v-268h-130v667h193q114 0 170 -47q66 -55 66 -150t-60 -147q-37 -32 -92 -42zM207 360h38q62 0 94.5 26.5t32.5 75.5q0 100 -125 100h-40v-202zM94 867l60 59l109 -89l110 89l62 -59l-172 -139z" />
<glyph unicode="&#x159;" horiz-adv-x="360" d="M58 433h121v-66q45 80 126 80q26 0 53 -11l-17 -113q-27 15 -58 15q-49 0 -77 -31q-27 -31 -27 -99v-208h-121v433zM26 648l60 59l109 -91l110 91l62 -59l-172 -139z" />
<glyph unicode="&#x15a;" horiz-adv-x="532" d="M471 604l-68 -89q-48 54 -108 54q-40 0 -67 -21.5t-27 -52.5q0 -27 21 -44.5t80 -39.5q97 -36 133 -67q59 -50 59 -140q0 -98 -64 -159t-168 -61q-141 0 -229 127l84 81q47 -89 140 -89q45 0 74 26.5t29 67.5t-36 67q-17 12 -93 40q-90 33 -127 73.5t-37 106.5 q0 84 59 139t149 55q111 0 196 -74zM426 842l-167 -114l-53 49l137 133z" />
<glyph unicode="&#x15b;" horiz-adv-x="405" d="M355 403l-60 -71q-38 29 -72 29q-20 0 -33.5 -10.5t-13.5 -26.5q0 -15 13.5 -24.5t55.5 -23.5q60 -21 84 -39q48 -33 48 -96q0 -68 -51 -111.5t-131 -43.5q-98 0 -164 72l63 74q51 -51 103 -51q23 0 39 14t16 34q0 19 -12.5 29t-54.5 25q-63 23 -83 38q-43 30 -43 90 q0 61 43.5 99.5t111.5 38.5q79 0 141 -46zM360 644l-150 -135l-58 40l119 151z" />
<glyph unicode="&#x15c;" horiz-adv-x="532" d="M471 604l-68 -89q-48 54 -108 54q-40 0 -67 -21.5t-27 -52.5q0 -27 21 -44.5t80 -39.5q97 -36 133 -67q59 -50 59 -140q0 -98 -64 -159t-168 -61q-141 0 -229 127l84 81q47 -89 140 -89q45 0 74 26.5t29 67.5t-36 67q-17 12 -93 40q-90 33 -127 73.5t-37 106.5 q0 84 59 139t149 55q111 0 196 -74zM109 788l169 138l172 -138l-62 -60l-110 90l-109 -90z" />
<glyph unicode="&#x15d;" horiz-adv-x="405" d="M355 403l-60 -71q-38 29 -72 29q-20 0 -33.5 -10.5t-13.5 -26.5q0 -15 13.5 -24.5t55.5 -23.5q60 -21 84 -39q48 -33 48 -96q0 -68 -51 -111.5t-131 -43.5q-98 0 -164 72l63 74q51 -51 103 -51q23 0 39 14t16 34q0 19 -12.5 29t-54.5 25q-63 23 -83 38q-43 30 -43 90 q0 61 43.5 99.5t111.5 38.5q79 0 141 -46zM45 569l169 138l172 -138l-62 -60l-110 92l-109 -92z" />
<glyph unicode="&#x15e;" horiz-adv-x="532" d="M471 604l-68 -89q-48 54 -108 54q-40 0 -67 -21.5t-27 -52.5q0 -27 21 -44.5t80 -39.5q97 -36 133 -67q59 -50 59 -140q0 -98 -64 -159t-168 -61q-141 0 -229 127l84 81q47 -89 140 -89q45 0 74 26.5t29 67.5t-36 67q-17 12 -93 40q-90 33 -127 73.5t-37 106.5 q0 84 59 139t149 55q111 0 196 -74zM326 -93l-121 -128l-64 40l101 139z" />
<glyph unicode="&#x15f;" horiz-adv-x="405" d="M355 403l-60 -71q-38 29 -72 29q-20 0 -33.5 -10.5t-13.5 -26.5q0 -15 13.5 -24.5t55.5 -23.5q60 -21 84 -39q48 -33 48 -96q0 -68 -51 -111.5t-131 -43.5q-98 0 -164 72l63 74q51 -51 103 -51q23 0 39 14t16 34q0 19 -12.5 29t-54.5 25q-63 23 -83 38q-43 30 -43 90 q0 61 43.5 99.5t111.5 38.5q79 0 141 -46zM257 -88l-115 -125l-61 35l98 133z" />
<glyph unicode="&#x160;" horiz-adv-x="532" d="M471 604l-68 -89q-48 54 -108 54q-40 0 -67 -21.5t-27 -52.5q0 -27 21 -44.5t80 -39.5q97 -36 133 -67q59 -50 59 -140q0 -98 -64 -159t-168 -61q-141 0 -229 127l84 81q47 -89 140 -89q45 0 74 26.5t29 67.5t-36 67q-17 12 -93 40q-90 33 -127 73.5t-37 106.5 q0 84 59 139t149 55q111 0 196 -74zM109 867l60 59l109 -89l110 89l62 -59l-172 -139z" />
<glyph unicode="&#x161;" horiz-adv-x="405" d="M355 403l-60 -71q-38 29 -72 29q-20 0 -33.5 -10.5t-13.5 -26.5q0 -15 13.5 -24.5t55.5 -23.5q60 -21 84 -39q48 -33 48 -96q0 -68 -51 -111.5t-131 -43.5q-98 0 -164 72l63 74q51 -51 103 -51q23 0 39 14t16 34q0 19 -12.5 29t-54.5 25q-63 23 -83 38q-43 30 -43 90 q0 61 43.5 99.5t111.5 38.5q79 0 141 -46zM45 648l60 59l109 -91l110 91l62 -59l-172 -139z" />
<glyph unicode="&#x162;" horiz-adv-x="443" d="M286 0h-130v554h-149v113h429v-113h-150v-554zM177 -53l108 -9l-113 -179l-67 7z" />
<glyph unicode="&#x163;" horiz-adv-x="270" d="M180 328v-328h-121v328h-48v105h48v148h121v-148h86v-105h-86zM77 -53l101 -9l-109 -169l-64 7z" />
<glyph unicode="&#x164;" horiz-adv-x="443" d="M286 0h-130v554h-149v113h429v-113h-150v-554zM51 867l60 59l109 -89l110 89l62 -59l-172 -139z" />
<glyph unicode="&#x165;" horiz-adv-x="393" d="M180 328v-328h-121v328h-48v105h48v148h121v-148h86v-105h-86zM286 660l101 -9l-109 -176l-64 7z" />
<glyph unicode="&#x166;" horiz-adv-x="443" d="M415 471v-100h-129v-371h-130v371h-128v100h128v83h-149v113h429v-113h-150v-83h129z" />
<glyph unicode="&#x167;" horiz-adv-x="270" d="M266 264v-93h-86v-171h-121v171h-48v93h48v64h-48v105h48v148h121v-148h86v-105h-86v-64h86z" />
<glyph unicode="&#x168;" horiz-adv-x="689" d="M207 667v-382q0 -51 4 -74t17 -45q17 -29 48.5 -45.5t68.5 -16.5t68.5 16.5t48.5 45.5q13 22 17 45t4 74v382h130v-408q0 -113 -49 -178q-35 -45 -93 -70.5t-126 -25.5t-126 25.5t-93 70.5q-49 65 -49 178v408h130zM232 742h-68q8 58 37 92t70 34q30 0 80 -20 q50 -18 63 -18q14 0 23 7.5t21 29.5h69q-12 -60 -43 -93.5t-75 -33.5q-23 0 -70 19t-66 19q-27 0 -41 -36z" />
<glyph unicode="&#x169;" horiz-adv-x="535" d="M179 433v-245q0 -99 89 -99q88 0 88 99v245h121v-265q0 -88 -54 -135t-155 -47t-155.5 47t-54.5 135v265h121zM161 523h-68q8 58 37 91.5t70 33.5q30 0 80 -20q49 -18 63 -18t23 7.5t21 29.5h69q-12 -60 -43 -93t-75 -33q-25 0 -70 19q-48 18 -67 18q-25 0 -40 -35z" />
<glyph unicode="&#x16a;" horiz-adv-x="689" d="M207 667v-382q0 -51 4 -74t17 -45q17 -29 48.5 -45.5t68.5 -16.5t68.5 16.5t48.5 45.5q13 22 17 45t4 74v382h130v-408q0 -113 -49 -178q-35 -45 -93 -70.5t-126 -25.5t-126 25.5t-93 70.5q-49 65 -49 178v408h130zM178 833h333v-80h-333v80z" />
<glyph unicode="&#x16b;" horiz-adv-x="535" d="M179 433v-245q0 -99 89 -99q88 0 88 99v245h121v-265q0 -88 -54 -135t-155 -47t-155.5 47t-54.5 135v265h121zM107 631h320v-80h-320v80z" />
<glyph unicode="&#x16c;" horiz-adv-x="689" d="M207 667v-382q0 -51 4 -74t17 -45q17 -29 48.5 -45.5t68.5 -16.5t68.5 16.5t48.5 45.5q13 22 17 45t4 74v382h130v-408q0 -113 -49 -178q-35 -45 -93 -70.5t-126 -25.5t-126 25.5t-93 70.5q-49 65 -49 178v408h130zM181 872h84q11 -34 29.5 -48.5t50.5 -14.5 q31 0 50 14.5t31 48.5h84q-8 -65 -52.5 -102.5t-112.5 -37.5q-67 0 -111.5 37.5t-52.5 102.5z" />
<glyph unicode="&#x16d;" horiz-adv-x="535" d="M179 433v-245q0 -99 89 -99q88 0 88 99v245h121v-265q0 -88 -54 -135t-155 -47t-155.5 47t-54.5 135v265h121zM103 650h84q11 -34 29.5 -48.5t50.5 -14.5q31 0 50 14.5t31 48.5h84q-8 -65 -52.5 -103t-112.5 -38t-112 38t-52 103z" />
<glyph unicode="&#x16e;" horiz-adv-x="689" d="M207 667v-382q0 -51 4 -74t17 -45q17 -29 48.5 -45.5t68.5 -16.5t68.5 16.5t48.5 45.5q13 22 17 45t4 74v382h130v-408q0 -113 -49 -178q-35 -45 -93 -70.5t-126 -25.5t-126 25.5t-93 70.5q-49 65 -49 178v408h130zM344 921q40 0 67.5 -27.5t27.5 -66.5 q0 -40 -27.5 -67.5t-66.5 -27.5q-40 0 -67.5 28t-27.5 68q0 38 28 65.5t66 27.5zM345 864q-16 0 -27 -11t-11 -26q0 -16 11 -27t27 -11q15 0 26 11t11 27t-11 26.5t-26 10.5z" />
<glyph unicode="&#x16f;" horiz-adv-x="535" d="M179 433v-245q0 -99 89 -99q88 0 88 99v245h121v-265q0 -88 -54 -135t-155 -47t-155.5 47t-54.5 135v265h121zM267 693q38 0 65 -27t27 -65t-27 -65t-65 -27t-65 27t-27 66q0 37 27 64t65 27zM267 636q-14 0 -24.5 -10.5t-10.5 -24.5t10.5 -24.5t24.5 -10.5t24.5 10.5 t10.5 24.5q0 15 -10 25t-25 10z" />
<glyph unicode="&#x170;" horiz-adv-x="689" d="M207 667v-382q0 -51 4 -74t17 -45q17 -29 48.5 -45.5t68.5 -16.5t68.5 16.5t48.5 45.5q13 22 17 45t4 74v382h130v-408q0 -113 -49 -178q-35 -45 -93 -70.5t-126 -25.5t-126 25.5t-93 70.5q-49 65 -49 178v408h130zM392 842l-157 -114l-43 47l126 134zM585 842l-157 -114 l-43 47l126 134z" />
<glyph unicode="&#x171;" horiz-adv-x="535" d="M179 433v-245q0 -99 89 -99q88 0 88 99v245h121v-265q0 -88 -54 -135t-155 -47t-155.5 47t-54.5 135v265h121zM312 644l-134 -135l-49 40l101 151zM498 644l-133 -135l-49 40l100 151z" />
<glyph unicode="&#x172;" horiz-adv-x="689" d="M77 667h130v-382q0 -51 4 -74t17 -45q17 -29 48.5 -45.5t68.5 -16.5t68.5 16.5t48.5 45.5q13 22 17 45t4 74v382h130v-408q0 -79 -19.5 -126.5t-68.5 -89.5q-69 -60 -69 -105q0 -17 12 -28.5t29 -11.5q25 0 56 19l-17 -78q-29 -16 -69 -16q-43 0 -72 23.5t-29 58.5 q0 49 46 86q-35 -6 -64 -6q-70 0 -128.5 25.5t-93.5 70.5q-49 65 -49 178v408z" />
<glyph unicode="&#x173;" horiz-adv-x="535" d="M58 433h121v-245q0 -99 89 -99q88 0 88 99v245h121v-265q0 -52 -15.5 -84.5t-57.5 -67.5q-34 -30 -46 -46t-12 -35q0 -17 12 -28t31 -11q22 0 48 13l-14 -67q-28 -17 -64 -17q-37 0 -63 22.5t-26 53.5q0 52 48 88q-24 -4 -39 -4q-109 0 -165 46.5t-56 136.5v265z" />
<glyph unicode="&#x174;" horiz-adv-x="976" d="M138 667l150 -454l163 460h71l155 -460l160 454h137l-251 -680h-91l-148 436l-156 -436h-91l-236 680h137zM317 788l169 138l172 -138l-62 -60l-110 90l-109 -90z" />
<glyph unicode="&#x175;" horiz-adv-x="792" d="M137 433l114 -250l118 262h52l118 -266l116 254h135l-224 -442h-55l-117 263l-115 -263h-56l-222 442h136zM225 569l169 138l172 -138l-62 -60l-110 92l-109 -92z" />
<glyph unicode="&#x176;" horiz-adv-x="583" d="M225 306l-230 361h154l144 -232l141 232h155l-234 -361v-306h-130v306zM122 788l169 138l172 -138l-62 -60l-110 90l-109 -90z" />
<glyph unicode="&#x177;" horiz-adv-x="535" d="M206 66l-205 367h141l130 -246l123 246h139l-350 -664h-137zM97 569l169 138l172 -138l-62 -60l-110 92l-109 -92z" />
<glyph unicode="&#x178;" horiz-adv-x="583" d="M225 306l-230 361h154l144 -232l141 232h155l-234 -361v-306h-130v306zM187 883q30 0 51 -21t21 -50q0 -30 -21 -51t-51 -21t-51 21t-21 51q0 29 21.5 50t50.5 21zM398 883q30 0 51 -21t21 -50q0 -30 -21 -51t-51 -21t-51 21t-21 51q0 29 21.5 50t50.5 21z" />
<glyph unicode="&#x179;" horiz-adv-x="584" d="M237 113h307v-113h-523l326 554h-275v113h490zM461 842l-167 -114l-53 49l137 133z" />
<glyph unicode="&#x17a;" horiz-adv-x="485" d="M227 105h229v-105h-443l246 330h-208v105h421zM400 644l-150 -135l-58 40l119 151z" />
<glyph unicode="&#x17b;" horiz-adv-x="584" d="M237 113h307v-113h-523l326 554h-275v113h490zM319 883q31 0 53 -22t22 -53t-22 -53t-53 -22t-53.5 22.5t-22.5 53.5q0 30 22.5 52t53.5 22z" />
<glyph unicode="&#x17c;" horiz-adv-x="485" d="M227 105h229v-105h-443l246 330h-208v105h421zM260 665q31 0 53 -22t22 -53t-22 -53.5t-53 -22.5q-32 0 -54 22.5t-22 54.5q0 30 22.5 52t53.5 22z" />
<glyph unicode="&#x17d;" horiz-adv-x="584" d="M237 113h307v-113h-523l326 554h-275v113h490zM141 867l60 59l109 -89l110 89l62 -59l-172 -139z" />
<glyph unicode="&#x17e;" horiz-adv-x="485" d="M227 105h229v-105h-443l246 330h-208v105h421zM89 648l60 59l109 -91l110 91l62 -59l-172 -139z" />
<glyph unicode="&#x17f;" horiz-adv-x="293" d="M183 0h-121v328h-47v105h47v139q0 86 40 132q52 57 128 57q32 0 64 -15v-110q-35 16 -55 16q-36 0 -47 -31q-9 -19 -9 -67v-554z" />
<glyph unicode="&#x18f;" horiz-adv-x="798" d="M45 363h577q-14 89 -75.5 145t-146.5 56q-133 0 -200 -128l-115 64q41 83 127.5 133t187.5 50q149 0 252 -102t103 -249t-103.5 -248.5t-252.5 -101.5t-252.5 100t-103.5 243q0 19 2 38zM609 262h-421q18 -54 45 -85q29 -35 74 -55.5t92 -20.5t92.5 20.5t74.5 54.5 q27 32 43 86z" />
<glyph unicode="&#x192;" d="M362 445h106l-11 -64h-106l-48 -267q-15 -85 -34.5 -132t-52.5 -78q-54 -51 -166 -51q-15 0 -51 3l20 112q34 -2 35 -2q59 0 85 33t44 133l44 249h-59l9 64h62l20 112q31 177 186 177q43 0 83 -18l-19 -108q-29 15 -57 15q-30 0 -47 -21t-27 -73z" />
<glyph unicode="&#x1a0;" horiz-adv-x="799" d="M641 592l47 119l108 -9l-105 -167q65 -91 65 -202q0 -146 -103.5 -247t-253.5 -101q-151 0 -253.5 100.5t-102.5 246.5q0 147 103.5 248.5t253.5 101.5q143 0 241 -90zM399 563q-91 0 -156.5 -67t-65.5 -160q0 -97 65 -164.5t158 -67.5q92 0 157 67.5t65 162.5t-65 162 t-158 67z" />
<glyph unicode="&#x1a1;" horiz-adv-x="565" d="M458 386l44 109l101 -9l-99 -160q26 -46 26 -109q0 -102 -69 -166.5t-178 -64.5q-110 0 -179 64t-69 166t69 166.5t178 64.5q110 0 176 -61zM282 338q-50 0 -86 -35.5t-36 -84.5q0 -52 35.5 -87.5t87.5 -35.5q50 0 86 35.5t36 85.5q0 51 -36 86.5t-87 35.5z" />
<glyph unicode="&#x1af;" horiz-adv-x="689" d="M207 667v-382q0 -51 4 -74t17 -45q17 -29 48.5 -45.5t68.5 -16.5t68.5 16.5t48.5 45.5q13 22 17 45t4 74v382h130v-408q0 -113 -49 -178q-35 -45 -93 -70.5t-126 -25.5t-126 25.5t-93 70.5q-49 65 -49 178v408h130zM715 716l108 -9l-112 -179l-67 7z" />
<glyph unicode="&#x1b0;" horiz-adv-x="535" d="M179 433v-245q0 -99 88 -99t88 99v245h121v-265q0 -88 -54 -135t-155 -47t-155 47t-54 135v265h121zM556 472l102 -9l-110 -176l-63 6z" />
<glyph unicode="&#x1cd;" horiz-adv-x="670" d="M472 141h-273l-60 -141h-138l289 681h98l280 -681h-139zM431 246l-93 240l-97 -240h190zM171 867l60 59l109 -89l110 89l62 -59l-172 -139z" />
<glyph unicode="&#x1ce;" horiz-adv-x="569" d="M390 433h121v-433h-121v56q-56 -70 -142 -70q-91 0 -152 66t-61 165q0 97 61 163.5t150 66.5q84 0 144 -70v56zM282 338q-51 0 -86.5 -35.5t-35.5 -85.5q0 -51 36 -86.5t86 -35.5q49 0 85 35.5t36 84.5q0 52 -35 87.5t-86 35.5zM121 648l60 59l109 -91l110 91l62 -59 l-172 -139z" />
<glyph unicode="&#x1cf;" horiz-adv-x="283" d="M207 667v-667h-130v667h130zM-29 867l60 59l109 -89l110 89l62 -59l-172 -139z" />
<glyph unicode="&#x1d0;" horiz-adv-x="234" d="M178 433v-433h-121v433h121zM-53 648l60 59l109 -91l110 91l62 -59l-172 -139z" />
<glyph unicode="&#x1d2;" horiz-adv-x="565" d="M284 447q109 0 177.5 -64t68.5 -166q0 -103 -69.5 -167t-180.5 -64q-109 0 -177 65t-68 169q0 99 70 163t179 64zM282 338q-50 0 -86 -35.5t-36 -84.5q0 -52 35.5 -87.5t87.5 -35.5q50 0 86 35.5t36 85.5q0 51 -36 86.5t-87 35.5zM112 648l60 59l109 -91l110 91l62 -59 l-172 -139z" />
<glyph unicode="&#x1d3;" horiz-adv-x="689" d="M207 667v-382q0 -51 4 -74t17 -45q17 -29 48.5 -45.5t68.5 -16.5t68.5 16.5t48.5 45.5q13 22 17 45t4 74v382h130v-408q0 -113 -49 -178q-35 -45 -93 -70.5t-126 -25.5t-126 25.5t-93 70.5q-49 65 -49 178v408h130zM175 867l60 59l109 -89l110 89l62 -59l-172 -139z" />
<glyph unicode="&#x1d4;" horiz-adv-x="535" d="M179 433v-245q0 -99 89 -99q88 0 88 99v245h121v-265q0 -88 -54 -135t-155 -47t-155.5 47t-54.5 135v265h121zM97 648l60 59l109 -91l110 91l62 -59l-172 -139z" />
<glyph unicode="&#x1dd;" horiz-adv-x="538" d="M34 237h341q-1 42 -14 67t-38.5 40.5t-54.5 15.5q-67 0 -102 -64l-121 9q26 65 85 102t136 37q105 0 171.5 -63t66.5 -162q0 -101 -66 -166t-169 -65q-78 0 -135.5 39t-83.5 109q-16 43 -16 101zM373 169h-212q7 -45 36.5 -71.5t70.5 -26.5q42 0 71 27t34 71z" />
<glyph unicode="&#x1e6;" horiz-adv-x="762" d="M413 357h305q-1 -132 -35 -198q-41 -84 -116 -129t-174 -45q-152 0 -251 97.5t-99 247.5q0 153 100 252.5t254 99.5q190 0 286 -157l-114 -61q-60 99 -173 99q-94 0 -156.5 -66t-62.5 -167q0 -98 62 -162.5t156 -64.5q71 0 119.5 38.5t55.5 102.5h-157v113zM224 867 l60 59l109 -89l110 89l62 -59l-172 -139z" />
<glyph unicode="&#x1e7;" d="M509 433v-417q0 -67 -10.5 -103.5t-38.5 -68.5q-64 -76 -182 -76q-132 0 -199 95q-28 40 -33 86h132q18 -78 102 -78q49 0 81 32q27 29 27 90v65q-34 -39 -67.5 -55.5t-79.5 -16.5q-89 0 -147.5 63.5t-58.5 161.5q0 102 60 169t152 67q84 0 141 -70v56h121zM282 338 q-51 0 -86.5 -35.5t-35.5 -85.5q0 -51 36 -86.5t86 -35.5q49 0 85 35.5t36 84.5q0 52 -35.5 87.5t-85.5 35.5zM113 648l60 59l109 -91l110 91l62 -59l-172 -139z" />
<glyph unicode="&#x1f4;" horiz-adv-x="762" d="M413 357h305q-1 -132 -35 -198q-41 -84 -116 -129t-174 -45q-152 0 -251 97.5t-99 247.5q0 153 100 252.5t254 99.5q190 0 286 -157l-114 -61q-60 99 -173 99q-94 0 -156.5 -66t-62.5 -167q0 -98 62 -162.5t156 -64.5q71 0 119.5 38.5t55.5 102.5h-157v113zM551 842 l-167 -114l-53 49l137 133z" />
<glyph unicode="&#x1f5;" d="M509 433v-417q0 -67 -10.5 -103.5t-38.5 -68.5q-64 -76 -182 -76q-132 0 -199 95q-28 40 -33 86h132q18 -78 102 -78q49 0 81 32q27 29 27 90v65q-34 -39 -67.5 -55.5t-79.5 -16.5q-89 0 -147.5 63.5t-58.5 161.5q0 102 60 169t152 67q84 0 141 -70v56h121zM282 338 q-51 0 -86.5 -35.5t-35.5 -85.5q0 -51 36 -86.5t86 -35.5q49 0 85 35.5t36 84.5q0 52 -35.5 87.5t-85.5 35.5zM385 644l-150 -135l-58 40l119 151z" />
<glyph unicode="&#x1fa;" horiz-adv-x="670" d="M472 141h-273l-60 -141h-138l289 681h98l280 -681h-139zM431 246l-93 240l-97 -240h190zM333 886q40 0 67.5 -27.5t27.5 -66.5q0 -40 -27.5 -67.5t-66.5 -27.5q-40 0 -67.5 28t-27.5 68q0 38 28 65.5t66 27.5zM334 829q-16 0 -27 -11t-11 -26q0 -16 11 -27t27 -11 q15 0 26 11t11 27t-11 26.5t-26 10.5zM389 960l-167 -114l-54 49l138 133z" />
<glyph unicode="&#x1fb;" horiz-adv-x="569" d="M390 433h121v-433h-121v56q-56 -70 -142 -70q-91 0 -152 66t-61 165q0 97 61 163.5t150 66.5q84 0 144 -70v56zM282 338q-51 0 -86.5 -35.5t-35.5 -85.5q0 -51 36 -86.5t86 -35.5q49 0 85 35.5t36 84.5q0 52 -35 87.5t-86 35.5zM290 693q38 0 65 -27t27 -65t-27 -65 t-65 -27t-65 27t-27 66q0 37 27 64t65 27zM290 636q-14 0 -24.5 -10.5t-10.5 -24.5t10.5 -24.5t24.5 -10.5t24.5 10.5t10.5 24.5q0 15 -10 25t-25 10zM342 801l-150 -135l-58 40l119 151z" />
<glyph unicode="&#x1fc;" horiz-adv-x="920" d="M475 141h-272l-58 -141h-138l287 667h352l44 -113h-245l60 -149h242l45 -113h-242l74 -179h246l43 -113h-381zM435 246l-92 227l-97 -227h189zM588 842l-167 -114l-53 49l137 133z" />
<glyph unicode="&#x1fd;" horiz-adv-x="807" d="M773 197h-327q3 -55 32.5 -86t78.5 -31q70 0 98 59l113 -18q-26 -65 -81.5 -100t-131.5 -35q-112 0 -169 82q-63 -82 -173 -82q-80 0 -129 39t-49 102q0 65 47.5 104.5t126.5 39.5q65 0 120 -31q1 8 1 22q0 43 -29 66.5t-81 23.5q-57 0 -119 -18v97q67 16 124 16 q113 0 161 -74q57 74 164 74q103 0 163 -63t60 -172v-15zM450 274h206q-22 86 -103 86q-78 0 -103 -86zM237 185q-39 0 -62 -14t-23 -39q0 -26 24 -43t61 -17q39 0 65.5 18t26.5 44q0 22 -26 36.5t-66 14.5zM530 644l-150 -135l-58 40l119 151z" />
<glyph unicode="&#x1fe;" horiz-adv-x="805" d="M737 663l-73 -89q32 -39 44 -59q51 -83 51 -182q0 -143 -102.5 -245.5t-244.5 -102.5q-127 0 -199 48l-74 -87l-69 63l67 86q-30 38 -39 52q-52 84 -52 186q0 147 103.5 248t254.5 101q97 0 183 -48l76 91zM580 471l-287 -339q56 -28 108 -28q93 0 158.5 67t65.5 162 q0 78 -45 138zM224 197l282 341q-53 25 -103 25q-92 0 -157.5 -67t-65.5 -161q0 -81 44 -138zM520 842l-167 -114l-53 49l137 133z" />
<glyph unicode="&#x1ff;" horiz-adv-x="566" d="M520 443l-54 -64q64 -67 64 -163q0 -101 -69 -165.5t-177 -64.5q-66 0 -126 27l-59 -69l-52 46l52 63q-64 65 -64 164q0 101 69.5 165.5t177.5 64.5q67 0 125 -27l57 69zM385 283l-150 -178q24 -10 47 -10q51 0 87 35.5t36 85.5q0 33 -20 67zM180 150l150 178 q-24 10 -48 10q-50 0 -86 -36t-36 -86q0 -32 20 -66zM412 644l-150 -135l-58 40l119 151z" />
<glyph unicode="&#x218;" horiz-adv-x="532" d="M471 604l-68 -89q-48 54 -108 54q-40 0 -67 -21.5t-27 -52.5q0 -27 21 -44.5t80 -39.5q97 -36 133 -67q59 -50 59 -140q0 -98 -64 -159t-168 -61q-141 0 -229 127l84 81q47 -89 140 -89q45 0 74 26.5t29 67.5t-36 67q-17 12 -93 40q-90 33 -127 73.5t-37 106.5 q0 84 59 139t149 55q111 0 196 -74zM219 -53l108 -9l-113 -179l-67 7z" />
<glyph unicode="&#x219;" horiz-adv-x="405" d="M355 403l-60 -71q-38 29 -72 29q-20 0 -33.5 -10.5t-13.5 -26.5q0 -15 13.5 -24.5t55.5 -23.5q60 -21 84 -39q48 -33 48 -96q0 -68 -51 -111.5t-131 -43.5q-98 0 -164 72l63 74q51 -51 103 -51q23 0 39 14t16 34q0 19 -12.5 29t-54.5 25q-63 23 -83 38q-43 30 -43 90 q0 61 43.5 99.5t111.5 38.5q79 0 141 -46zM159 -53l101 -9l-109 -169l-64 7z" />
<glyph unicode="&#x21a;" horiz-adv-x="443" d="M286 0h-130v554h-149v113h429v-113h-150v-554zM177 -53l108 -9l-113 -179l-67 7z" />
<glyph unicode="&#x21b;" horiz-adv-x="270" d="M180 328v-328h-121v328h-48v105h48v148h121v-148h86v-105h-86zM77 -53l101 -9l-109 -169l-64 7z" />
<glyph unicode="&#x226;" horiz-adv-x="670" d="M472 141h-273l-60 -141h-138l289 681h98l280 -681h-139zM431 246l-93 240l-97 -240h190zM335 883q31 0 53 -22t22 -53t-22 -53t-53 -22t-53.5 22.5t-22.5 53.5q0 30 22.5 52t53.5 22z" />
<glyph unicode="&#x227;" horiz-adv-x="569" d="M390 433h121v-433h-121v56q-56 -70 -142 -70q-91 0 -152 66t-61 165q0 97 61 163.5t150 66.5q84 0 144 -70v56zM282 338q-51 0 -86.5 -35.5t-35.5 -85.5q0 -51 36 -86.5t86 -35.5q49 0 85 35.5t36 84.5q0 52 -35 87.5t-86 35.5zM282 665q31 0 53 -22t22 -53t-22 -53.5 t-53 -22.5q-32 0 -54 22.5t-22 54.5q0 30 22.5 52t53.5 22z" />
<glyph unicode="&#x259;" horiz-adv-x="538" d="M34 237h341q-1 42 -14 67t-38.5 40.5t-54.5 15.5q-67 0 -102 -64l-121 9q26 65 85 102t136 37q105 0 171.5 -63t66.5 -162q0 -101 -66 -166t-169 -65q-78 0 -135.5 39t-83.5 109q-16 43 -16 101zM373 169h-212q7 -45 36.5 -71.5t70.5 -26.5q42 0 71 27t34 71z" />
<glyph unicode="&#x2bb;" horiz-adv-x="500" d="M264 511l-101 9l109 176l64 -7z" />
<glyph unicode="&#x2bc;" horiz-adv-x="305" d="M150 680l111 -13l-141 -266l-77 10z" />
<glyph unicode="&#x2c6;" horiz-adv-x="500" d="M80 569l169 138l172 -138l-62 -60l-110 92l-109 -92z" />
<glyph unicode="&#x2c7;" horiz-adv-x="500" d="M80 648l60 59l109 -91l110 91l62 -59l-172 -139z" />
<glyph unicode="&#x2c9;" horiz-adv-x="500" d="M90 631h320v-80h-320v80z" />
<glyph unicode="&#x2d8;" horiz-adv-x="500" d="M86 650h84q11 -34 29.5 -48.5t50.5 -14.5q31 0 50 14.5t31 48.5h84q-8 -65 -52.5 -103t-112.5 -38t-112 38t-52 103z" />
<glyph unicode="&#x2d9;" horiz-adv-x="500" d="M250 665q31 0 53 -22t22 -53t-22 -53.5t-53 -22.5q-32 0 -54 22.5t-22 54.5q0 30 22.5 52t53.5 22z" />
<glyph unicode="&#x2da;" horiz-adv-x="500" d="M250 693q38 0 65 -27t27 -65t-27 -65t-65 -27t-65 27t-27 66q0 37 27 64t65 27zM250 636q-14 0 -24.5 -10.5t-10.5 -24.5t10.5 -24.5t24.5 -10.5t24.5 10.5t10.5 24.5q0 15 -10 25t-25 10z" />
<glyph unicode="&#x2db;" horiz-adv-x="500" d="M281 0h58q-56 -39 -56 -74q0 -17 12 -28.5t31 -11.5q22 0 48 13l-14 -67q-28 -17 -64 -17q-37 0 -63 22.5t-26 54.5q0 60 74 108z" />
<glyph unicode="&#x2dc;" horiz-adv-x="500" d="M137 523h-68q8 58 37 91.5t70 33.5q30 0 80 -20q49 -18 63 -18t23 7.5t21 29.5h69q-12 -60 -43 -93t-75 -33q-25 0 -70 19q-48 18 -67 18q-25 0 -40 -35z" />
<glyph unicode="&#x2dd;" horiz-adv-x="500" d="M288 644l-134 -135l-49 40l101 151zM474 644l-133 -135l-49 40l100 151z" />
<glyph unicode="&#x37e;" horiz-adv-x="250" d="M105 138l111 -13l-141 -265l-77 9zM156 447q33 0 56 -23t23 -55q0 -33 -23 -56t-55 -23q-33 0 -56 23t-23 56q0 32 23 55t55 23z" />
<glyph unicode="&#x384;" horiz-adv-x="500" d="M206 512l-16 210h121l-16 -210h-89z" />
<glyph unicode="&#x385;" horiz-adv-x="500" d="M98 663q28 0 47 -19t19 -47t-19 -47t-46 -19q-28 0 -47 19.5t-19 47.5q0 26 19.5 45.5t45.5 19.5zM402 663q28 0 47 -19t19 -47t-19 -47t-46 -19q-28 0 -47 19.5t-19 47.5q0 26 19.5 45.5t45.5 19.5zM206 512l-16 210h121l-16 -210h-89z" />
<glyph unicode="&#x386;" horiz-adv-x="670" d="M472 141h-273l-60 -141h-138l283 667h109l275 -667h-139zM431 246l-93 240l-97 -240h190zM53 498l-16 224h121l-16 -224h-89z" />
<glyph unicode="&#x388;" horiz-adv-x="639" d="M28 498l-16 224h121l-16 -224h-89zM591 554h-240v-148h230v-113h-230v-180h240v-113h-370v667h370v-113z" />
<glyph unicode="&#x389;" horiz-adv-x="840" d="M28 498l-16 224h121l-16 -224h-89zM351 406h282v261h130v-667h-130v293h-282v-293h-130v667h130v-261z" />
<glyph unicode="&#x38a;" horiz-adv-x="428" d="M28 498l-16 224h121l-16 -224h-89zM351 667v-667h-130v667h130z" />
<glyph unicode="&#x38c;" horiz-adv-x="921" d="M28 498l-16 224h121l-16 -224h-89zM523 682q149 0 252 -101t103 -248q0 -148 -103.5 -248t-255.5 -100q-150 0 -251.5 101.5t-101.5 251.5q0 142 104.5 243t252.5 101zM522 563q-91 0 -156.5 -67t-65.5 -160q0 -97 64.5 -164.5t157.5 -67.5q92 0 157 67.5t65 162.5 t-65 162t-157 67z" />
<glyph unicode="&#x38e;" horiz-adv-x="751" d="M28 498l-16 224h121l-16 -224h-89zM393 306l-230 361h154l144 -232l141 232h155l-234 -361v-306h-130v306z" />
<glyph unicode="&#x38f;" horiz-adv-x="906" d="M28 498l-16 224h121l-16 -224h-89zM155 0v113h163v21q-159 67 -159 239q0 140 96.5 224.5t256.5 84.5t256.5 -85t96.5 -225q0 -117 -77 -189q-28 -25 -82 -49v-21h163v-113h-292v163q57 16 98 56q56 55 56 135q0 97 -59 153t-160 56t-160 -56t-59 -153q0 -87 64 -142 q39 -35 90 -49v-163h-292z" />
<glyph unicode="&#x390;" horiz-adv-x="243" d="M59 0v433h124v-433h-124zM-31 663q28 0 47 -19t19 -47t-19 -47t-46 -19q-28 0 -47 19.5t-19 47.5q0 26 19.5 45.5t45.5 19.5zM273 663q28 0 47 -19t19 -47t-19 -47t-46 -19q-28 0 -47 19.5t-19 47.5q0 26 19.5 45.5t45.5 19.5zM77 512l-16 210h121l-16 -210h-89z" />
<glyph unicode="&#x391;" horiz-adv-x="670" d="M472 141h-273l-60 -141h-138l283 667h109l275 -667h-139zM431 246l-93 240l-97 -240h190z" />
<glyph unicode="&#x392;" horiz-adv-x="570" d="M77 0v667h165q113 0 163 -40q60 -47 60 -136q0 -55 -25 -95q-14 -19 -48 -40q60 -13 87 -42q48 -48 48 -126q0 -84 -59 -137q-57 -51 -166 -51h-225zM207 389h37q101 0 101 87q0 86 -99 86h-39v-173zM207 105h56q130 0 130 92q0 51 -39 74q-29 19 -98 19h-49v-185z" />
<glyph unicode="&#x393;" horiz-adv-x="478" d="M77 0v667h385v-113h-255v-554h-130z" />
<glyph unicode="&#x394;" horiz-adv-x="650" d="M1 0l268 667h110l269 -667h-647zM179 113h291l-147 373z" />
<glyph unicode="&#x395;" horiz-adv-x="495" d="M446 554h-239v-148h230v-113h-230v-180h239v-113h-369v667h369v-113z" />
<glyph unicode="&#x396;" horiz-adv-x="584" d="M237 113h307v-113h-523l326 554h-275v113h490z" />
<glyph unicode="&#x397;" horiz-adv-x="695" d="M207 406h282v261h130v-667h-130v293h-282v-293h-130v667h130v-261z" />
<glyph unicode="&#x398;" horiz-adv-x="811" d="M270 294v101h271v-101h-271zM407 682q152 0 256.5 -101t104.5 -248q0 -148 -105.5 -248t-260.5 -100q-153 0 -256 101.5t-103 251.5q0 142 106.5 243t257.5 101zM405 563q-93 0 -160.5 -67t-67.5 -160q0 -97 66.5 -164.5t162.5 -67.5q94 0 161 67.5t67 162.5t-67 162 t-162 67z" />
<glyph unicode="&#x399;" horiz-adv-x="283" d="M207 667v-667h-130v667h130z" />
<glyph unicode="&#x39a;" horiz-adv-x="622" d="M77 0v667h130v-313l243 313h153l-267 -325l288 -342h-163l-254 318v-318h-130z" />
<glyph unicode="&#x39b;" horiz-adv-x="611" d="M-2 0l254 667h111l251 -667h-140l-167 486l-171 -486h-138z" />
<glyph unicode="&#x39c;" horiz-adv-x="868" d="M41 0l122 667h97l176 -424l184 424h97l109 -667h-131l-60 411l-180 -411h-43l-173 411l-67 -411h-131z" />
<glyph unicode="&#x39d;" horiz-adv-x="779" d="M77 0v667h100l396 -449v449h130v-667h-100l-396 451v-451h-130z" />
<glyph unicode="&#x39e;" horiz-adv-x="599" d="M43 554v113h513v-113h-513zM58 293v113h483v-113h-483zM43 0v113h513v-113h-513z" />
<glyph unicode="&#x39f;" horiz-adv-x="799" d="M401 682q149 0 252 -101t103 -248q0 -148 -104 -248t-256 -100q-150 0 -251.5 101.5t-101.5 251.5q0 143 105 243.5t253 100.5zM399 563q-91 0 -156.5 -67t-65.5 -160q0 -97 65 -164.5t158 -67.5q92 0 157 67.5t65 162.5t-65 162t-158 67z" />
<glyph unicode="&#x3a0;" horiz-adv-x="702" d="M77 0v667h549v-667h-130v554h-289v-554h-130z" />
<glyph unicode="&#x3a1;" horiz-adv-x="535" d="M207 247v-247h-130v667h195q65 0 104.5 -11.5t71.5 -39.5q68 -62 68 -161q0 -90 -54 -149q-56 -59 -171 -59h-84zM207 360h53q122 0 122 96q0 51 -34 77q-28 21 -96 21h-45v-194z" />
<glyph unicode="&#x3a3;" horiz-adv-x="540" d="M21 0l202 361l-189 306h459v-113h-260l131 -193l-146 -248h284v-113h-481z" />
<glyph unicode="&#x3a4;" horiz-adv-x="443" d="M286 0h-130v554h-149v113h429v-113h-150v-554z" />
<glyph unicode="&#x3a5;" horiz-adv-x="583" d="M225 306l-230 361h154l144 -232l141 232h155l-234 -361v-306h-130v306z" />
<glyph unicode="&#x3a6;" horiz-adv-x="926" d="M404 -55v96q-121 7 -191 39q-81 35 -125.5 101t-44.5 151q0 91 51 159.5t143 102.5q67 23 167 29v97h117v-97q120 -7 192 -39q81 -35 125.5 -101t44.5 -151q0 -91 -51 -159.5t-143 -102.5q-67 -23 -168 -29v-96h-117zM521 504v-344q84 6 129 26q100 46 100 146 q0 108 -115 152q-40 14 -114 20zM404 160v344q-79 -5 -128 -26q-100 -46 -100 -146q0 -52 30 -91.5t85 -60.5q39 -14 113 -20z" />
<glyph unicode="&#x3a7;" horiz-adv-x="625" d="M243 353l-199 314h156l118 -207l123 207h156l-205 -314l227 -353h-153l-150 244l-155 -244h-154z" />
<glyph unicode="&#x3a8;" horiz-adv-x="830" d="M352 0v145q-90 7 -137 19.5t-84 39.5q-84 59 -84 201v262h130v-245q0 -55 11.5 -84.5t39.5 -46.5q37 -23 124 -27v403h127v-403q87 4 123 27q28 17 39.5 47t11.5 84v245h130v-262q0 -142 -84 -201q-39 -28 -85 -40t-135 -19v-145h-127z" />
<glyph unicode="&#x3a9;" horiz-adv-x="783" d="M32 0v113h163v21q-159 67 -159 239q0 143 104 231q95 78 249 78q161 0 257 -84.5t96 -225.5q0 -116 -76 -189q-28 -25 -82 -49v-21h162v-113h-292v163q57 16 98 56q56 55 56 135q0 97 -59 153t-160 56t-160 -56t-59 -153q0 -87 64 -142q39 -35 90 -49v-163h-292z" />
<glyph unicode="&#x3aa;" horiz-adv-x="283" d="M206 667v-667h-130v667h130zM36 876q30 0 51 -21t21 -50q0 -30 -21 -51t-51 -21t-51 21t-21 51q0 29 21.5 50t50.5 21zM247 876q30 0 51 -21t21 -50q0 -30 -21 -51t-51 -21t-51 21t-21 51q0 29 21.5 50t50.5 21z" />
<glyph unicode="&#x3ab;" horiz-adv-x="583" d="M225 306l-230 361h154l144 -232l141 232h155l-234 -361v-306h-130v306zM187 876q30 0 51 -21t21 -50q0 -30 -21 -51t-51 -21t-51 21t-21 51q0 29 21.5 50t50.5 21zM398 876q30 0 51 -21t21 -50q0 -30 -21 -51t-51 -21t-51 21t-21 51q0 29 21.5 50t50.5 21z" />
<glyph unicode="&#x3ac;" horiz-adv-x="569" d="M390 433h121v-433h-121v56q-56 -70 -142 -70q-91 0 -152 66t-61 165q0 97 61 163.5t150 66.5q84 0 144 -70v56zM282 338q-51 0 -86.5 -35.5t-35.5 -85.5q0 -51 36 -86.5t86 -35.5q49 0 85 35.5t36 84.5q0 52 -35 87.5t-86 35.5zM240 512l-16 210h121l-16 -210h-89z" />
<glyph unicode="&#x3ad;" horiz-adv-x="445" d="M425 110v-103q-77 -21 -168 -21q-111 0 -169 37q-52 34 -52 100q0 77 71 105q-60 31 -60 92q0 62 50.5 94.5t147.5 32.5q81 0 168 -19v-104q-69 18 -138 18q-100 0 -100 -40q0 -37 93 -37h89v-90h-91q-101 0 -101 -41q0 -42 107 -42q64 0 153 18zM212 512l-16 210h121 l-16 -210h-89z" />
<glyph unicode="&#x3ae;" horiz-adv-x="534" d="M58 0v433h121v-55q30 36 60 50t76 14q83 0 127 -52q33 -40 33 -117v-504h-121v462q0 56 -13 78q-21 32 -67 32q-95 0 -95 -115v-226h-121zM234 512l-16 210h121l-16 -210h-89z" />
<glyph unicode="&#x3af;" horiz-adv-x="243" d="M60 0v433h124v-433h-124zM78 512l-16 210h121l-16 -210h-89z" />
<glyph unicode="&#x3b0;" horiz-adv-x="520" d="M56 433h121v-239q0 -60 16 -80q21 -26 67 -26q51 0 70 31q13 19 13 75v239h121v-246q0 -100 -39 -145q-51 -59 -165 -59q-122 0 -172 68q-32 45 -32 136v246zM108 663q28 0 47 -19t19 -47t-19 -47t-46 -19q-28 0 -47 19.5t-19 47.5q0 26 19.5 45.5t45.5 19.5zM412 663 q28 0 47 -19t19 -47t-19 -47t-46 -19q-28 0 -47 19.5t-19 47.5q0 26 19.5 45.5t45.5 19.5zM216 512l-16 210h121l-16 -210h-89z" />
<glyph unicode="&#x3b1;" horiz-adv-x="569" d="M390 433h121v-433h-121v56q-56 -70 -142 -70q-91 0 -152 66t-61 165q0 97 61 163.5t150 66.5q84 0 144 -70v56zM282 338q-51 0 -86.5 -35.5t-35.5 -85.5q0 -51 36 -86.5t86 -35.5q49 0 85 35.5t36 84.5q0 52 -35 87.5t-86 35.5z" />
<glyph unicode="&#x3b2;" horiz-adv-x="564" d="M60 -231v685q0 146 38 203q57 84 182 84q96 0 152 -53t56 -143q0 -109 -88 -157q50 -16 75 -42q52 -55 52 -142q0 -95 -58.5 -156t-149.5 -61q-77 0 -138 47v-265h-121zM181 485v-355q44 -37 98 -37q55 0 89 33.5t34 86.5q0 37 -18 65.5t-50 41.5q-24 9 -65 10h-9v100 q54 1 82.5 27t28.5 74q0 46 -26 75t-67 29q-62 0 -84 -51q-13 -30 -13 -99z" />
<glyph unicode="&#x3b3;" horiz-adv-x="473" d="M175 -231v142q0 81 -9.5 135.5t-35.5 124.5q-39 107 -130 262h135q80 -152 101 -276q13 66 43 142l53 134h134l-96 -197q-43 -88 -58.5 -155.5t-15.5 -169.5v-142h-121z" />
<glyph unicode="&#x3b4;" horiz-adv-x="562" d="M239 425l-48 44q-58 53 -58 124q0 85 79 117q43 19 163 19h50v-105h-82q-47 0 -66 -9.5t-19 -32.5q0 -33 48 -72l98 -81q68 -56 94.5 -103t26.5 -111q0 -104 -66.5 -166.5t-177.5 -62.5t-177.5 63t-66.5 167q0 94 51.5 147t150.5 62zM344 319l-14 13q-29 4 -48 4 q-54 0 -87 -33t-33 -87q0 -55 32.5 -88t86.5 -33t86.5 33t32.5 86q0 57 -56 105z" />
<glyph unicode="&#x3b5;" horiz-adv-x="445" d="M425 110v-103q-77 -21 -168 -21q-111 0 -169 37q-52 34 -52 100q0 77 71 105q-60 31 -60 92q0 62 50.5 94.5t147.5 32.5q81 0 168 -19v-104q-69 18 -138 18q-100 0 -100 -40q0 -37 93 -37h89v-90h-91q-101 0 -101 -41q0 -42 107 -42q64 0 153 18z" />
<glyph unicode="&#x3b6;" horiz-adv-x="388" d="M47 624v105h354q-154 -286 -195.5 -381t-41.5 -157q0 -47 23 -69t83 -32q61 -11 85 -30q38 -28 38 -86q0 -49 -26.5 -87t-97.5 -94l-68 74q47 31 62 48.5t15 40.5q0 22 -19 31q-10 5 -55 12q-89 12 -128.5 53t-39.5 121q0 76 42 172t156 279h-187z" />
<glyph unicode="&#x3b7;" horiz-adv-x="534" d="M58 0v433h121v-55q30 36 60 50t76 14q83 0 127 -52q33 -40 33 -117v-504h-121v462q0 56 -13 78q-21 32 -67 32q-95 0 -95 -115v-226h-121z" />
<glyph unicode="&#x3b8;" horiz-adv-x="560" d="M278 746q92 0 156 -76q94 -112 94 -306q0 -163 -70 -271t-177 -108t-177.5 108t-70.5 272q0 163 70.5 272t174.5 109zM400 312h-239q10 -101 41.5 -158.5t78.5 -57.5q49 0 85 71q25 51 34 145zM161 419h239q-9 100 -41.5 158t-78.5 58t-78.5 -59t-40.5 -157z" />
<glyph unicode="&#x3b9;" horiz-adv-x="243" d="M60 0v433h124v-433h-124z" />
<glyph unicode="&#x3ba;" horiz-adv-x="481" d="M58 0v433h121v-195l153 195h132l-172 -208l190 -225h-140l-163 197v-197h-121z" />
<glyph unicode="&#x3bb;" horiz-adv-x="461" d="M-3 0l165 426l-126 303h129l303 -729h-130l-114 275l-91 -275h-136z" />
<glyph unicode="&#x3bc;" horiz-adv-x="527" d="M59 -231v664h121v-218q0 -62 19.5 -89.5t65.5 -27.5q44 0 63.5 27t19.5 90v218h121v-433h-106v57q-15 -36 -35.5 -49t-61.5 -13q-61 0 -86 35v-261h-121z" />
<glyph unicode="&#x3bd;" horiz-adv-x="502" d="M137 433l114 -245l113 245h136l-223 -442h-55l-221 442h136z" />
<glyph unicode="&#x3be;" horiz-adv-x="415" d="M49 624v105h358q-22 -18 -28 -22q-87 -65 -123 -102q-57 -60 -57 -109q0 -27 20.5 -48t55.5 -30q30 -8 100 -11l-48 -94q-28 5 -47 5q-53 0 -84.5 -31t-31.5 -84q0 -49 25 -73t89 -36q64 -11 88 -30q40 -30 40 -90q0 -49 -26.5 -87t-97.5 -94l-68 74q47 31 62 48t15 40 q0 24 -20 34q-10 6 -58 13q-90 12 -132 54q-45 48 -45 139q0 66 27.5 110t88.5 77q-41 18 -57.5 40t-16.5 60q0 87 93 142h-122z" />
<glyph unicode="&#x3bf;" horiz-adv-x="565" d="M284 447q109 0 177.5 -64t68.5 -166q0 -103 -69.5 -167t-180.5 -64q-109 0 -177 65t-68 169q0 99 70 163t179 64zM282 338q-50 0 -86 -35.5t-36 -84.5q0 -52 35.5 -87.5t87.5 -35.5q50 0 86 35.5t36 85.5q0 51 -36 86.5t-87 35.5z" />
<glyph unicode="&#x3c0;" horiz-adv-x="568" d="M95 0v328h-73v105h525v-105h-73v-328h-122v328h-135v-328h-122z" />
<glyph unicode="&#x3c1;" horiz-adv-x="575" d="M182 -231h-121v423q0 95 32 155q25 49 78 76t124 27q127 0 187 -71q57 -68 57 -162q0 -99 -61 -165t-153 -66q-86 0 -143 64v-281zM295 340q-53 0 -85.5 -33t-32.5 -87q0 -53 34 -88.5t86 -35.5q49 0 83.5 35t34.5 85q0 54 -34 89t-86 35z" />
<glyph unicode="&#x3c2;" horiz-adv-x="423" d="M391 414v-122q-60 46 -115 46q-52 0 -81.5 -34.5t-29.5 -93.5q0 -54 24.5 -79t88.5 -36q66 -13 88 -30q40 -31 40 -91q0 -49 -26.5 -86.5t-98.5 -93.5l-67 73q47 32 62 49t15 40q0 24 -20 34q-14 6 -58 12q-91 14 -131 55q-45 45 -45 143q0 115 56.5 181t154.5 66 q74 0 143 -33z" />
<glyph unicode="&#x3c3;" horiz-adv-x="572" d="M577 433v-105h-84l5 -9q19 -31 25 -52t6 -55q0 -101 -68.5 -163.5t-178.5 -62.5q-109 0 -177 63.5t-68 164.5q0 106 66.5 169.5t177.5 63.5q30 0 102 -7q67 -7 110 -7h84zM361 328q-36 9 -72 9q-56 0 -90 -34t-34 -90q0 -53 32 -85.5t85 -32.5q58 0 90 33.5t32 92.5 q0 32 -9 54t-34 53z" />
<glyph unicode="&#x3c4;" horiz-adv-x="380" d="M128 0v328h-120v105h364v-105h-120v-328h-124z" />
<glyph unicode="&#x3c5;" horiz-adv-x="520" d="M56 433h121v-239q0 -60 16 -80q21 -26 67 -26q51 0 70 31q13 19 13 75v239h121v-246q0 -100 -39 -145q-51 -59 -165 -59q-122 0 -172 68q-32 45 -32 136v246z" />
<glyph unicode="&#x3c6;" horiz-adv-x="703" d="M291 -231v220q-121 10 -187.5 68t-66.5 154q0 137 142 196l49 -79q-10 -8 -12 -9q-33 -26 -41 -40q-16 -29 -16 -62q0 -53 35.5 -86.5t96.5 -38.5v341q37 11 79 11q139 0 217 -60.5t78 -168.5q0 -101 -67.5 -160.5t-188.5 -65.5v-220h-118zM409 340v-249q64 5 99 37.5 t35 87.5t-36 88.5t-98 35.5z" />
<glyph unicode="&#x3c7;" horiz-adv-x="473" d="M173 124l-161 309h133l101 -201l83 201h131l-159 -309l185 -355h-133l-119 245l-102 -245h-137z" />
<glyph unicode="&#x3c8;" horiz-adv-x="727" d="M304 -231v224h-16q-119 1 -175 47q-32 28 -44.5 69t-12.5 119v205h124v-216q0 -73 21 -94q24 -24 84 -24h19v334h119v-334h19q60 0 84 24q21 21 21 94v216h124v-205q0 -78 -12.5 -119t-44.5 -69q-56 -46 -175 -47h-16v-224h-119z" />
<glyph unicode="&#x3c9;" horiz-adv-x="725" d="M308 304h108v-80q0 -61 10 -89q17 -40 55 -40q37 0 59.5 37t22.5 97q0 75 -35 140q-11 19 -50 64h120q49 -54 69 -103.5t20 -114.5q0 -104 -52 -166.5t-138 -62.5q-94 0 -135 72q-40 -72 -135 -72q-86 0 -138 62.5t-52 166.5q0 84 40 155q15 25 49 63h120 q-32 -37 -39 -46.5t-14 -25.5q-32 -61 -32 -134q0 -59 22.5 -95.5t58.5 -36.5q44 0 57 45q9 27 9 84v80z" />
<glyph unicode="&#x3ca;" horiz-adv-x="243" d="M60 0v433h124v-433h-124zM18 658q29 0 50 -21t21 -51t-21 -51t-50 -21q-30 0 -51 21t-21 52q0 29 21.5 50t50.5 21zM225 658q30 0 51 -21t21 -51t-21 -51t-51 -21t-51 21t-21 52q0 29 21.5 50t50.5 21z" />
<glyph unicode="&#x3cb;" horiz-adv-x="520" d="M56 433h121v-239q0 -60 16 -80q21 -26 67 -26q51 0 70 31q13 19 13 75v239h121v-246q0 -100 -39 -145q-51 -59 -165 -59q-122 0 -172 68q-32 45 -32 136v246zM156 658q29 0 50 -21t21 -51t-21 -51t-50 -21q-30 0 -51 21t-21 52q0 29 21.5 50t50.5 21zM364 658 q30 0 51 -21t21 -51t-21 -51t-51 -21t-51 21t-21 52q0 29 21.5 50t50.5 21z" />
<glyph unicode="&#x3cc;" horiz-adv-x="565" d="M284 447q109 0 177.5 -64t68.5 -166q0 -103 -69.5 -167t-180.5 -64q-109 0 -177 65t-68 169q0 99 70 163t179 64zM282 338q-50 0 -86 -35.5t-36 -84.5q0 -52 35.5 -87.5t87.5 -35.5q50 0 86 35.5t36 85.5q0 51 -36 86.5t-87 35.5zM238 512l-16 210h121l-16 -210h-89z" />
<glyph unicode="&#x3cd;" horiz-adv-x="520" d="M56 433h121v-239q0 -60 16 -80q21 -26 67 -26q51 0 70 31q13 19 13 75v239h121v-246q0 -100 -39 -145q-51 -59 -165 -59q-122 0 -172 68q-32 45 -32 136v246zM216 512l-16 210h121l-16 -210h-89z" />
<glyph unicode="&#x3ce;" horiz-adv-x="725" d="M308 304h108v-80q0 -61 10 -89q17 -40 55 -40q37 0 59.5 37t22.5 97q0 75 -35 140q-11 19 -50 64h120q49 -54 69 -103.5t20 -114.5q0 -104 -52 -166.5t-138 -62.5q-94 0 -135 72q-40 -72 -135 -72q-86 0 -138 62.5t-52 166.5q0 84 40 155q15 25 49 63h120 q-32 -37 -39 -46.5t-14 -25.5q-32 -61 -32 -134q0 -59 22.5 -95.5t58.5 -36.5q44 0 57 45q9 27 9 84v80zM318 512l-16 210h121l-16 -210h-89z" />
<glyph unicode="&#x3d1;" horiz-adv-x="546" d="M365 328h-73q-131 0 -180 37q-63 47 -63 158q0 98 57 157.5t151 59.5q134 0 190 -133q28 -65 40 -174h59v-105h-59q-3 -105 -26 -177q-56 -165 -201 -165q-105 0 -164 83.5t-59 232.5v15h121v-15q0 -207 101 -207q103 0 106 233zM280 433h83q-11 109 -36.5 155.5 t-74.5 46.5q-41 0 -64.5 -28t-23.5 -77q0 -57 31 -80q22 -17 85 -17z" />
<glyph unicode="&#x3d5;" horiz-adv-x="703" d="M293 -165v153q-122 7 -189 66.5t-67 160.5q0 100 67 160t189 68v149h116v-149q122 -8 189 -68t67 -160q0 -101 -67 -160.5t-189 -66.5v-153h-116zM409 340v-249q64 4 99 36.5t35 88.5q0 55 -36 88.5t-98 35.5zM293 91v249q-62 -2 -98 -35.5t-36 -88.5q0 -56 35 -88.5 t99 -36.5z" />
<glyph unicode="&#x400;" horiz-adv-x="495" d="M446 554h-239v-148h230v-113h-230v-180h239v-113h-369v667h369v-113zM124 842l83 68l137 -133l-53 -49z" />
<glyph unicode="&#x401;" horiz-adv-x="495" d="M446 554h-239v-148h230v-113h-230v-180h239v-113h-369v667h369v-113zM157 876q30 0 51 -21t21 -50q0 -30 -21 -51t-51 -21t-51 21t-21 51q0 29 21.5 50t50.5 21zM368 876q30 0 51 -21t21 -50q0 -30 -21 -51t-51 -21t-51 21t-21 51q0 29 21.5 50t50.5 21z" />
<glyph unicode="&#x402;" horiz-adv-x="631" d="M112 0v554h-104v113h390v-113h-154v-217q46 41 84.5 58.5t84.5 17.5q94 0 135 -69q24 -39 24 -122v-238q0 -51 -18.5 -91t-69.5 -101h-118q81 124 81 192v211q0 56 -19 79.5t-64 23.5q-66 0 -120 -77v-221h-132z" />
<glyph unicode="&#x403;" horiz-adv-x="478" d="M77 0v667h385v-113h-255v-554h-130zM410 842l-167 -114l-53 49l137 133z" />
<glyph unicode="&#x404;" horiz-adv-x="664" d="M492 285h-310l3 -9q13 -49 22.5 -68t32.5 -41q65 -63 164 -63q115 0 219 80v-136q-104 -63 -239 -63q-151 0 -246 96.5t-95 248.5q0 157 96 254.5t250 97.5q108 0 212 -54v-129q-103 64 -199 64q-101 0 -164 -63q-21 -21 -29.5 -37t-21.5 -58q0 -1 -1 -3t-1.5 -5t-1.5 -5 h309v-107z" />
<glyph unicode="&#x405;" horiz-adv-x="536" d="M471 604l-68 -89q-48 54 -108 54q-40 0 -67 -21.5t-27 -52.5q0 -27 21 -44.5t80 -39.5q97 -36 133 -67q59 -50 59 -140q0 -98 -64 -159t-168 -61q-141 0 -229 127l84 81q47 -89 140 -89q45 0 74 26.5t29 67.5t-36 67q-17 12 -93 40q-90 33 -127 73.5t-37 106.5 q0 84 59 139t149 55q111 0 196 -74z" />
<glyph unicode="&#x406;" horiz-adv-x="283" d="M77 0v667h130v-667h-130z" />
<glyph unicode="&#x407;" horiz-adv-x="283" d="M206 667v-667h-130v667h130zM36 876q30 0 51 -21t21 -50q0 -30 -21 -51t-51 -21t-51 21t-21 51q0 29 21.5 50t50.5 21zM247 876q30 0 51 -21t21 -50q0 -30 -21 -51t-51 -21t-51 21t-21 51q0 29 21.5 50t50.5 21z" />
<glyph unicode="&#x408;" horiz-adv-x="402" d="M326 667v-445q0 -94 -29 -145q-25 -43 -68.5 -67.5t-96.5 -24.5q-77 0 -140 63l73 99q30 -43 66 -43q35 0 51 28.5t16 90.5v444h128z" />
<glyph unicode="&#x409;" horiz-adv-x="925" d="M438 0v554h-177q-13 -253 -33 -348q-22 -107 -70 -157t-128 -50q-20 0 -38 1v114q14 -2 23 -2q42 0 64.5 38.5t34.5 130.5q18 135 27 386h423v-256h117q106 0 161 -51t55 -150q0 -116 -77 -171q-56 -39 -156 -39h-226zM564 104h79q74 0 101 28q26 28 26 75q0 52 -31 80 q-27 23 -96 23h-79v-206z" />
<glyph unicode="&#x40a;" horiz-adv-x="980" d="M77 0v667h130v-256h288v256h126v-256h117q106 0 161 -51t55 -150q0 -118 -77 -171q-55 -39 -156 -39h-226v307h-288v-307h-130zM621 104h79q75 0 100 28q27 27 27 75q0 52 -31 80q-26 23 -96 23h-79v-206z" />
<glyph unicode="&#x40b;" horiz-adv-x="693" d="M133 0v554h-125v113h439v-113h-182v-217q52 42 95 59t96 17q107 0 152 -69q27 -39 27 -122v-222h-125v195q0 56 -23 79.5t-78 23.5q-79 0 -144 -77v-221h-132z" />
<glyph unicode="&#x40c;" horiz-adv-x="622" d="M77 0v667h130v-313l243 313h153l-267 -325l288 -342h-163l-254 318v-318h-130zM482 842l-167 -114l-53 49l137 133z" />
<glyph unicode="&#x40d;" horiz-adv-x="698" d="M77 0v667h125v-449l322 449h98v-667h-125v444l-322 -444h-98zM239 842l83 68l137 -133l-53 -49z" />
<glyph unicode="&#x40e;" horiz-adv-x="576" d="M78 0l145 252l-221 415h152l139 -292l140 292h152l-369 -667h-138zM130 872h84q11 -34 29.5 -48.5t50.5 -14.5q31 0 50 14.5t31 48.5h84q-8 -65 -52.5 -102.5t-112.5 -37.5q-67 0 -111.5 37.5t-52.5 102.5z" />
<glyph unicode="&#x40f;" horiz-adv-x="697" d="M77 0v667h130v-554h281v554h130v-667h-212v-128h-117v128h-212z" />
<glyph unicode="&#x410;" horiz-adv-x="670" d="M472 141h-273l-60 -141h-138l283 667h109l275 -667h-139zM431 246l-93 240l-97 -240h190z" />
<glyph unicode="&#x411;" horiz-adv-x="570" d="M77 0v667h414v-113h-288v-152h116q108 0 163.5 -49.5t55.5 -146.5q0 -114 -78 -168q-54 -38 -157 -38h-226zM203 104h78q77 0 103 26q27 27 27 73q0 50 -32 76q-26 22 -98 22h-78v-197z" />
<glyph unicode="&#x412;" horiz-adv-x="570" d="M77 0v667h165q113 0 163 -40q60 -47 60 -136q0 -55 -25 -95q-14 -19 -48 -40q60 -13 87 -42q48 -48 48 -126q0 -84 -59 -137q-57 -51 -166 -51h-225zM207 389h37q101 0 101 87q0 86 -99 86h-39v-173zM207 105h56q130 0 130 92q0 51 -39 74q-29 19 -98 19h-49v-185z" />
<glyph unicode="&#x413;" horiz-adv-x="478" d="M77 0v667h385v-113h-255v-554h-130z" />
<glyph unicode="&#x414;" horiz-adv-x="674" d="M-16 -128v241h34q66 0 93 70q16 43 30 178.5t19 305.5h430v-554h60v-241h-117v128h-432v-128h-117zM192 113h268v441h-179q-6 -161 -22 -281q-8 -64 -20.5 -94t-46.5 -66z" />
<glyph unicode="&#x415;" horiz-adv-x="495" d="M446 554h-239v-148h230v-113h-230v-180h239v-113h-369v667h369v-113z" />
<glyph unicode="&#x416;" horiz-adv-x="928" d="M401 0v289h-30l-213 -289h-160l263 342l-242 325h150l195 -273h37v273h128v-273h37l195 273h149l-241 -325l263 -342h-160l-213 289h-30v-289h-128z" />
<glyph unicode="&#x417;" horiz-adv-x="561" d="M160 294v101h48q82 0 118 12q58 21 58 70q0 40 -40 63t-111 23q-49 0 -85 -9t-98 -37v131q90 34 199 34q125 0 197 -48.5t72 -132.5q0 -66 -46 -109q-25 -24 -76 -42q133 -43 133 -163q0 -91 -68 -146q-70 -56 -209 -56q-134 0 -219 37v136q89 -54 202 -54q159 0 159 96 q0 49 -44.5 71.5t-141.5 22.5h-48z" />
<glyph unicode="&#x418;" horiz-adv-x="698" d="M77 0v667h125v-449l322 449h98v-667h-125v444l-322 -444h-98z" />
<glyph unicode="&#x419;" horiz-adv-x="698" d="M77 0v667h125v-449l322 449h98v-667h-125v444l-322 -444h-98zM185 872h84q11 -34 29.5 -48.5t50.5 -14.5q31 0 50 14.5t31 48.5h84q-8 -65 -52.5 -102.5t-112.5 -37.5q-67 0 -111.5 37.5t-52.5 102.5z" />
<glyph unicode="&#x41a;" horiz-adv-x="622" d="M77 0v667h130v-313l243 313h153l-267 -325l288 -342h-163l-254 318v-318h-130z" />
<glyph unicode="&#x41b;" horiz-adv-x="644" d="M141 667h427v-667h-130v554h-177q-13 -253 -33 -348q-22 -107 -70 -157t-128 -50q-20 0 -38 1v114q13 -2 23 -2q42 0 64.5 38.5t34.5 130.5q18 133 27 386z" />
<glyph unicode="&#x41c;" horiz-adv-x="868" d="M41 0l122 667h97l176 -424l184 424h97l109 -667h-131l-60 411l-180 -411h-43l-173 411l-67 -411h-131z" />
<glyph unicode="&#x41d;" horiz-adv-x="695" d="M207 406h282v261h130v-667h-130v293h-282v-293h-130v667h130v-261z" />
<glyph unicode="&#x41e;" horiz-adv-x="799" d="M401 682q149 0 252 -101t103 -248q0 -148 -104 -248t-256 -100q-150 0 -251.5 101.5t-101.5 251.5q0 143 105 243.5t253 100.5zM399 563q-91 0 -156.5 -67t-65.5 -160q0 -97 65 -164.5t158 -67.5q92 0 157 67.5t65 162.5t-65 162t-158 67z" />
<glyph unicode="&#x41f;" horiz-adv-x="702" d="M77 0v667h549v-667h-130v554h-289v-554h-130z" />
<glyph unicode="&#x420;" horiz-adv-x="535" d="M207 247v-247h-130v667h195q65 0 104.5 -11.5t71.5 -39.5q68 -62 68 -161q0 -90 -54 -149q-56 -59 -171 -59h-84zM207 360h53q122 0 122 96q0 51 -34 77q-28 21 -96 21h-45v-194z" />
<glyph unicode="&#x421;" horiz-adv-x="608" d="M564 638v-159q-46 40 -84.5 56.5t-85.5 16.5q-93 0 -156 -63.5t-63 -157.5q0 -92 63 -155t155 -63q87 0 171 73v-159q-88 -42 -172 -42q-145 0 -246.5 100.5t-101.5 244.5q0 147 102.5 248.5t250.5 101.5q84 0 167 -42z" />
<glyph unicode="&#x422;" horiz-adv-x="443" d="M286 0h-130v554h-149v113h429v-113h-150v-554z" />
<glyph unicode="&#x423;" horiz-adv-x="576" d="M78 0l145 252l-221 415h152l139 -292l140 292h152l-369 -667h-138z" />
<glyph unicode="&#x424;" horiz-adv-x="926" d="M404 -55v96q-121 7 -191 39q-81 35 -125.5 101t-44.5 151q0 91 51 159.5t143 102.5q67 23 167 29v97h117v-97q120 -7 192 -39q81 -35 125.5 -101t44.5 -151q0 -91 -51 -159.5t-143 -102.5q-67 -23 -168 -29v-96h-117zM521 504v-344q84 6 129 26q100 46 100 146 q0 108 -115 152q-40 14 -114 20zM404 160v344q-79 -5 -128 -26q-100 -46 -100 -146q0 -52 30 -91.5t85 -60.5q39 -14 113 -20z" />
<glyph unicode="&#x425;" horiz-adv-x="625" d="M243 353l-199 314h156l118 -207l123 207h156l-205 -314l227 -353h-153l-150 244l-155 -244h-154z" />
<glyph unicode="&#x426;" horiz-adv-x="701" d="M77 0v667h130v-554h281v554h130v-554h60v-241h-117v128h-484z" />
<glyph unicode="&#x427;" horiz-adv-x="633" d="M427 0v211q-85 -13 -127 -13q-162 0 -224 89q-37 55 -37 173v207h130v-195q0 -53 5.5 -78t21.5 -43q35 -40 120 -40q54 0 111 17v339h130v-667h-130z" />
<glyph unicode="&#x428;" horiz-adv-x="975" d="M77 0v667h130v-554h216v554h130v-554h216v554h130v-667h-822z" />
<glyph unicode="&#x429;" horiz-adv-x="982" d="M77 0v667h130v-554h216v554h130v-554h216v554h130v-554h60v-241h-117v128h-765z" />
<glyph unicode="&#x42a;" horiz-adv-x="669" d="M181 0v554h-178v113h304v-256h116q106 0 158 -47q59 -53 59 -154q0 -118 -78 -171q-55 -39 -155 -39h-226zM307 104h79q75 0 100 28q27 27 27 75q0 53 -32 80q-26 23 -95 23h-79v-206z" />
<glyph unicode="&#x42b;" horiz-adv-x="832" d="M77 0v667h126v-256h117q106 0 161 -51t55 -150q0 -116 -77 -171q-55 -39 -156 -39h-226zM203 104h79q75 0 100 28q27 27 27 75q0 52 -31 80q-27 23 -96 23h-79v-206zM621 0v667h134v-667h-134z" />
<glyph unicode="&#x42c;" horiz-adv-x="564" d="M77 0v667h126v-256h117q106 0 161 -51t55 -150q0 -116 -77 -171q-55 -39 -156 -39h-226zM203 104h79q75 0 100 28q27 27 27 75q0 52 -31 80q-27 23 -96 23h-79v-206z" />
<glyph unicode="&#x42d;" horiz-adv-x="664" d="M172 285v107h309q-1 2 -1.5 5t-1.5 5t-1 3q-13 42 -21.5 58t-29.5 37q-63 63 -164 63q-97 0 -200 -64v129q104 54 213 54q154 0 250 -97.5t96 -254.5q0 -152 -95 -248.5t-246 -96.5q-64 0 -129 17t-110 46v136q99 -80 219 -80q100 0 164 63q23 22 32.5 41t22.5 68l3 9 h-310z" />
<glyph unicode="&#x42e;" horiz-adv-x="1062" d="M77 0v667h130v-274h126q16 82 52 137q47 71 123.5 111.5t165.5 40.5q146 0 245.5 -100.5t99.5 -248.5q0 -147 -100.5 -247.5t-247.5 -100.5q-90 0 -168 42.5t-123 116.5q-34 54 -48 133h-125v-277h-130zM673 563q-88 0 -150.5 -66.5t-62.5 -159.5q0 -98 61.5 -165.5 t150.5 -67.5t151 66t62 162t-62 163.5t-150 67.5z" />
<glyph unicode="&#x42f;" horiz-adv-x="590" d="M383 265h-20l-189 -265h-142l205 278q-75 4 -115 36q-63 49 -63 148q0 119 84 172q55 33 151 33h220v-667h-131v265zM383 362v197h-72q-121 0 -121 -100q0 -97 117 -97h76z" />
<glyph unicode="&#x430;" horiz-adv-x="569" d="M390 433h121v-433h-121v56q-56 -70 -142 -70q-91 0 -152 66t-61 165q0 97 61 163.5t150 66.5q84 0 144 -70v56zM282 338q-51 0 -86.5 -35.5t-35.5 -85.5q0 -51 36 -86.5t86 -35.5q49 0 85 35.5t36 84.5q0 52 -35 87.5t-86 35.5z" />
<glyph unicode="&#x431;" horiz-adv-x="580" d="M462 750l15 -103q-25 -17 -56.5 -23t-116.5 -10q-82 -6 -107.5 -50.5t-26.5 -183.5q56 66 144 66q101 0 164.5 -64t63.5 -165q0 -103 -68.5 -166.5t-179.5 -63.5q-131 0 -193 88q-54 76 -54 263q0 248 78 326q35 35 99 44q27 4 115 12q92 9 123 30zM295 337 q-53 0 -86.5 -33t-33.5 -85q0 -55 33.5 -89t87.5 -34q52 0 86 34.5t34 86.5t-34 86t-87 34z" />
<glyph unicode="&#x432;" horiz-adv-x="510" d="M58 0v433h235q90 0 125 -25q41 -32 41 -87q0 -63 -61 -91q79 -24 79 -104q0 -126 -177 -126h-242zM179 257h85q75 0 75 47q0 42 -69 42h-91v-89zM179 88h97q82 0 82 45q0 46 -84 46h-95v-91z" />
<glyph unicode="&#x433;" horiz-adv-x="377" d="M58 0v433h306v-105h-185v-328h-121z" />
<glyph unicode="&#x434;" horiz-adv-x="539" d="M410 0h-303v-119h-114v224h16q54 0 81 75q23 67 30 253h356v-328h48v-224h-114v119zM349 105v223h-120l-1 -13q-2 -17 -4 -55q-6 -61 -20 -95.5t-42 -59.5h187z" />
<glyph unicode="&#x435;" horiz-adv-x="518" d="M484 197h-325q5 -116 106 -116q63 0 103 58l112 -18q-56 -135 -212 -135q-106 0 -169.5 63t-63.5 167q0 105 62 168t165 63t162.5 -62.5t59.5 -171.5v-16zM163 274h205q-20 86 -103 86q-40 0 -67 -22.5t-35 -63.5z" />
<glyph unicode="&#x436;" horiz-adv-x="684" d="M284 0v180h-19l-141 -180h-137l179 225l-160 208h131l127 -172h20v172h117v-172h20l127 172h132l-161 -208l179 -225h-137l-141 180h-19v-180h-117z" />
<glyph unicode="&#x437;" horiz-adv-x="445" d="M88 175v90h89q93 0 93 37q0 40 -100 40q-69 0 -138 -18v104q89 19 169 19q96 0 146.5 -32.5t50.5 -94.5q0 -61 -60 -92q71 -28 71 -105q0 -66 -52 -100q-55 -37 -170 -37q-91 0 -167 21v103q88 -18 153 -18q107 0 107 42q0 41 -101 41h-91z" />
<glyph unicode="&#x438;" horiz-adv-x="515" d="M58 0v433h119v-254l174 254h106v-433h-119v249l-174 -249h-106z" />
<glyph unicode="&#x439;" horiz-adv-x="515" d="M58 0v433h119v-254l174 254h106v-433h-119v249l-174 -249h-106zM93 650h84q11 -34 29.5 -48.5t50.5 -14.5q31 0 50 14.5t31 48.5h84q-8 -65 -52.5 -103t-112.5 -38t-112 38t-52 103z" />
<glyph unicode="&#x43a;" horiz-adv-x="481" d="M58 0v433h121v-195l153 195h132l-172 -208l190 -225h-140l-163 197v-197h-121z" />
<glyph unicode="&#x43b;" horiz-adv-x="504" d="M324 0v328h-119q-8 -135 -17 -187q-14 -74 -55 -108q-44 -34 -104 -34q-14 0 -36 1v104q22 0 35 3.5t24 17.5t17 33.5t10.5 60t7 88t4.5 126.5h354v-433h-121z" />
<glyph unicode="&#x43c;" horiz-adv-x="649" d="M28 0l76 433h113l108 -284l108 284h113l76 -433h-119l-38 257l-102 -257h-79l-98 257l-39 -257h-119z" />
<glyph unicode="&#x43d;" horiz-adv-x="524" d="M58 0v433h121v-156h166v156h121v-433h-121v175h-166v-175h-121z" />
<glyph unicode="&#x43e;" horiz-adv-x="565" d="M284 447q109 0 177.5 -64t68.5 -166q0 -103 -69.5 -167t-180.5 -64q-109 0 -177 65t-68 169q0 99 70 163t179 64zM282 338q-50 0 -86 -35.5t-36 -84.5q0 -52 35.5 -87.5t87.5 -35.5q50 0 86 35.5t36 85.5q0 51 -36 86.5t-87 35.5z" />
<glyph unicode="&#x43f;" horiz-adv-x="519" d="M58 0v433h403v-433h-121v328h-161v-328h-121z" />
<glyph unicode="&#x440;" horiz-adv-x="569" d="M179 -231h-121v664h121v-56q56 70 142 70q91 0 152 -66t61 -165q0 -97 -61 -163.5t-150 -66.5q-83 0 -144 70v-287zM287 338q-50 0 -85.5 -35.5t-35.5 -85.5q0 -51 36 -86.5t86 -35.5q49 0 85 35.5t36 84.5q0 52 -35.5 87.5t-86.5 35.5z" />
<glyph unicode="&#x441;" horiz-adv-x="417" d="M383 421v-120q-48 37 -98 37q-54 0 -89.5 -34.5t-35.5 -87.5q0 -52 35.5 -86.5t89.5 -34.5q52 0 98 36v-118q-53 -27 -111 -27q-101 0 -169 65.5t-68 162.5q0 99 68.5 166t169.5 67q59 0 110 -26z" />
<glyph unicode="&#x442;" horiz-adv-x="380" d="M128 0v328h-120v105h364v-105h-120v-328h-124z" />
<glyph unicode="&#x443;" horiz-adv-x="535" d="M206 65l-205 368h141l130 -246l123 246h139l-350 -664h-137z" />
<glyph unicode="&#x444;" horiz-adv-x="791" d="M337 -231v247q-52 -31 -104 -31q-87 0 -141.5 64t-54.5 167t54.5 167t141.5 64q31 0 52 -6t52 -25v180h117v-180q31 19 52 25t52 6q87 0 141.5 -64t54.5 -167t-54.5 -167t-141.5 -64q-52 0 -104 31v-247h-117zM337 132v168q-38 38 -80 38q-44 0 -71 -33.5t-27 -88.5 t27 -88.5t71 -33.5q42 0 80 38zM454 300v-168q39 -38 80 -38q44 0 71 33.5t27 88.5t-27 88.5t-71 33.5q-41 0 -80 -38z" />
<glyph unicode="&#x445;" horiz-adv-x="562" d="M207 235l-167 198h153l90 -112l91 112h154l-170 -198l203 -235h-155l-124 151l-125 -151h-156z" />
<glyph unicode="&#x446;" horiz-adv-x="525" d="M58 0v433h121v-328h161v328h121v-328h48v-224h-114v119h-337z" />
<glyph unicode="&#x447;" horiz-adv-x="485" d="M306 0v109q-41 -10 -80 -10q-104 0 -147 47.5t-43 162.5v124h121v-133q0 -53 18 -74t64 -21q35 0 67 13v215h121v-433h-121z" />
<glyph unicode="&#x448;" horiz-adv-x="752" d="M58 0v433h124v-328h134v328h120v-328h133v328h124v-433h-635z" />
<glyph unicode="&#x449;" horiz-adv-x="758" d="M58 0v433h124v-328h134v328h120v-328h133v328h124v-328h48v-224h-114v119h-569z" />
<glyph unicode="&#x44a;" horiz-adv-x="515" d="M102 0v328h-104v105h225v-135h83q93 0 133 -26q57 -39 57 -120q0 -74 -45.5 -113t-132.5 -39h-216zM223 84h74q47 0 68 15t21 49t-21 49.5t-68 15.5h-74v-129z" />
<glyph unicode="&#x44b;" horiz-adv-x="694" d="M58 0v433h121v-135h83q93 0 133 -26q57 -39 57 -120q0 -74 -45.5 -113t-132.5 -39h-216zM179 84h73q48 0 69 15t21 50q0 34 -21 49t-67 15h-75v-129zM509 0v433h127v-433h-127z" />
<glyph unicode="&#x44c;" horiz-adv-x="472" d="M58 0v433h121v-135h83q93 0 133 -26q57 -39 57 -120q0 -74 -45.5 -113t-132.5 -39h-216zM179 84h73q48 0 69 15t21 50q0 34 -21 49t-67 15h-75v-129z" />
<glyph unicode="&#x44d;" horiz-adv-x="489" d="M116 177v82h207q-14 34 -29 49q-40 38 -107 38q-41 0 -68 -7t-77 -30v109q87 29 168 29q110 0 175.5 -63t65.5 -168q0 -110 -67.5 -170.5t-188.5 -60.5q-84 0 -161 29v106q49 -21 78 -28t69 -7q79 0 119 45q14 17 24 47h-208z" />
<glyph unicode="&#x44e;" horiz-adv-x="765" d="M64 0v433h121v-165h75q20 70 52 104q66 72 178 72q104 0 170.5 -64t66.5 -164t-66.5 -164t-170.5 -64q-91 0 -150.5 46t-80.5 133h-74v-167h-121zM490 335q-52 0 -85 -32.5t-33 -85.5q0 -55 32.5 -87.5t85.5 -32.5t85.5 33t32.5 86t-32.5 86t-85.5 33z" />
<glyph unicode="&#x44f;" horiz-adv-x="488" d="M305 0v145l-8 1l-131 -146h-142l162 164q-151 8 -151 128q0 81 62 118q39 23 122 23h210v-433h-124zM305 224v127h-63q-46 0 -66 -14.5t-20 -46.5q0 -34 20.5 -50t64.5 -16h64z" />
<glyph unicode="&#x450;" horiz-adv-x="518" d="M484 197h-325q5 -116 106 -116q63 0 103 58l112 -18q-56 -135 -212 -135q-106 0 -169.5 63t-63.5 167q0 105 62 168t165 63t162.5 -62.5t59.5 -171.5v-16zM163 274h205q-20 86 -103 86q-40 0 -67 -22.5t-35 -63.5zM122 644l88 56l120 -151l-58 -40z" />
<glyph unicode="&#x451;" horiz-adv-x="518" d="M484 197h-325q5 -116 106 -116q63 0 103 58l112 -18q-56 -135 -212 -135q-106 0 -169.5 63t-63.5 167q0 105 62 168t165 63t162.5 -62.5t59.5 -171.5v-16zM163 274h205q-20 86 -103 86q-40 0 -67 -22.5t-35 -63.5zM159 658q29 0 50 -21t21 -51t-21 -51t-50 -21 q-30 0 -51 21t-21 52q0 29 21.5 50t50.5 21zM366 658q30 0 51 -21t21 -51t-21 -51t-51 -21t-51 21t-21 52q0 29 21.5 50t50.5 21z" />
<glyph unicode="&#x452;" horiz-adv-x="516" d="M52 0v534h-53v74h53v121h127v-121h142v-74h-142v-158q33 38 63 53t72 15q79 0 118 -58q26 -38 26 -111v-294q0 -49 -11 -94t-42 -118h-120q28 76 38 121.5t10 94.5v267q0 43 -16.5 62t-53.5 19q-42 0 -66 -31q-18 -25 -18 -77v-225h-127z" />
<glyph unicode="&#x453;" horiz-adv-x="377" d="M58 0v433h306v-105h-185v-328h-121zM355 644l-150 -135l-58 40l119 151z" />
<glyph unicode="&#x454;" horiz-adv-x="489" d="M372 177h-208q12 -36 29 -52q40 -40 114 -40q40 0 68.5 7t78.5 28v-106q-75 -29 -162 -29q-121 0 -188 61t-67 170q0 105 66 168t176 63q79 0 167 -29v-109q-50 23 -77 30t-67 7q-53 0 -85.5 -20.5t-51.5 -66.5h207v-82z" />
<glyph unicode="&#x455;" horiz-adv-x="403" d="M30 66l74 72q39 -51 91 -51q22 0 35.5 11.5t13.5 29.5q0 17 -19.5 31t-66.5 30q-54 17 -77.5 44.5t-23.5 72.5q0 63 43.5 103t111.5 40q77 0 132 -59l-71 -71q-26 32 -63 32q-15 0 -26 -9t-11 -22q0 -26 62 -44q131 -38 131 -136q0 -68 -48.5 -111.5t-123.5 -43.5 q-107 0 -164 81z" />
<glyph unicode="&#x456;" horiz-adv-x="240" d="M179 435v-435h-121v435h121zM119 679q30 0 51 -21.5t21 -52.5t-21 -52.5t-50 -21.5q-30 0 -51 22t-21 53q0 30 21 51.5t50 21.5z" />
<glyph unicode="&#x457;" horiz-adv-x="234" d="M178 433v-433h-121v433h121zM14 658q29 0 50 -21t21 -51t-21 -51t-50 -21q-30 0 -51 21t-21 52q0 29 21.5 50t50.5 21zM221 658q30 0 51 -21t21 -51t-21 -51t-51 -21t-51 21t-21 52q0 29 21.5 50t50.5 21z" />
<glyph unicode="&#x458;" horiz-adv-x="240" d="M180 435v-663h-121v663h121zM119 685q31 0 52.5 -22t21.5 -53q0 -32 -21.5 -54t-52.5 -22t-52 22.5t-21 54.5q0 30 22 52t51 22z" />
<glyph unicode="&#x459;" horiz-adv-x="728" d="M315 0v328h-110q-8 -133 -17 -187q-14 -74 -55 -108q-42 -34 -104 -34q-14 0 -36 1v104q22 0 35 3.5t24 17.5t17 33.5t10.5 60t7 88t4.5 126.5h345v-135h83q93 0 133 -26q57 -39 57 -120q0 -74 -45.5 -113t-132.5 -39h-216zM436 84h74q47 0 68 15t21 49t-21 49.5 t-68 15.5h-74v-129z" />
<glyph unicode="&#x45a;" horiz-adv-x="758" d="M58 0v433h121v-135h166v135h121v-135h83q93 0 133 -26q57 -39 57 -120q0 -74 -45.5 -113t-132.5 -39h-216v196h-166v-196h-121zM466 84h73q48 0 69 15t21 50q0 34 -21 49t-67 15h-75v-129z" />
<glyph unicode="&#x45b;" horiz-adv-x="516" d="M52 0v534h-53v74h53v121h127v-121h133v-74h-133v-158q34 38 63.5 53t71.5 15q79 0 118 -58q26 -38 26 -111v-275h-125v252q0 43 -16.5 62t-53.5 19q-42 0 -66 -31q-18 -25 -18 -77v-225h-127z" />
<glyph unicode="&#x45c;" horiz-adv-x="481" d="M58 0v433h121v-195l153 195h132l-172 -208l190 -225h-140l-163 197v-197h-121zM405 644l-150 -135l-58 40l119 151z" />
<glyph unicode="&#x45d;" horiz-adv-x="515" d="M58 0v433h119v-254l174 254h106v-433h-119v249l-174 -249h-106zM154 644l88 56l120 -151l-58 -40z" />
<glyph unicode="&#x45e;" horiz-adv-x="535" d="M206 65l-205 368h141l130 -246l123 246h139l-350 -664h-137zM105 650h84q11 -34 29.5 -48.5t50.5 -14.5q31 0 50 14.5t31 48.5h84q-8 -65 -52.5 -103t-112.5 -38t-112 38t-52 103z" />
<glyph unicode="&#x45f;" horiz-adv-x="519" d="M58 0v433h121v-328h161v328h121v-433h-145v-119h-114v119h-144z" />
<glyph unicode="&#x490;" horiz-adv-x="478" d="M77 0v667h268v68h117v-181h-255v-554h-130z" />
<glyph unicode="&#x491;" horiz-adv-x="377" d="M58 0v433h195v68h111v-173h-185v-328h-121z" />
<glyph unicode="&#x492;" horiz-adv-x="483" d="M77 0v279h-62v108h62v280h389v-113h-255v-167h152v-108h-152v-279h-134z" />
<glyph unicode="&#x493;" horiz-adv-x="369" d="M58 0v138h-47v96h47v199h299v-106h-178v-93h110v-96h-110v-138h-121z" />
<glyph unicode="&#x496;" horiz-adv-x="928" d="M845 113h84v-241h-117v128h-40l-213 289h-30v-289h-128v289h-30l-213 -289h-160l263 342l-242 325h150l195 -273h37v273h128v-273h37l195 273h149l-241 -325z" />
<glyph unicode="&#x497;" horiz-adv-x="684" d="M614 105h84v-224h-114v119h-23l-141 180h-19v-180h-117v180h-19l-141 -180h-137l179 225l-160 208h131l127 -172h20v172h117v-172h20l127 172h131l-160 -208z" />
<glyph unicode="&#x49a;" horiz-adv-x="622" d="M529 113h90v-241h-117v128h-41l-254 319v-319h-130v667h130v-313l243 313h153l-267 -325z" />
<glyph unicode="&#x49b;" horiz-adv-x="481" d="M394 105h88v-224h-114v119h-26l-163 197v-197h-121v433h121v-195l153 195h132l-172 -208z" />
<glyph unicode="&#x49c;" horiz-adv-x="649" d="M75 0v667h130v-279h47v159h62v-157l174 277h153l-216 -325l237 -342h-163l-185 283v-161h-62v161h-47v-283h-130z" />
<glyph unicode="&#x49d;" horiz-adv-x="519" d="M58 0v433h121v-155h40v91h52v-90l102 154h133l-141 -205l159 -228h-140l-113 176v-106h-52v106h-40v-176h-121z" />
<glyph unicode="&#x4a2;" horiz-adv-x="695" d="M619 113h53v-241h-117v128h-66v293h-282v-293h-130v667h130v-261h282v261h130v-554z" />
<glyph unicode="&#x4a3;" horiz-adv-x="524" d="M466 105h42v-224h-114v119h-49v175h-166v-175h-121v433h121v-156h166v156h121v-328z" />
<glyph unicode="&#x4ae;" horiz-adv-x="583" d="M225 306l-230 361h154l144 -232l141 232h155l-234 -361v-306h-130v306z" />
<glyph unicode="&#x4af;" horiz-adv-x="503" d="M193 23l-196 410h139l121 -302l113 302h135l-182 -410v-254h-130v254z" />
<glyph unicode="&#x4b0;" horiz-adv-x="598" d="M230 0v151h-111v109h111v49l-234 358h155l148 -230l145 230h157l-241 -358v-49h116v-109h-116v-151h-130z" />
<glyph unicode="&#x4b1;" horiz-adv-x="539" d="M205 -98h-116v98h116v35l-199 397h141l123 -289l125 289h139l-200 -398v-34h113v-98h-113v-133h-129v133z" />
<glyph unicode="&#x4b2;" horiz-adv-x="625" d="M546 113h90v-241h-117v128h-53l-150 244l-155 -244h-154l236 353l-199 314h156l118 -207l123 207h156l-205 -314z" />
<glyph unicode="&#x4b3;" horiz-adv-x="562" d="M470 105h82v-224h-114v119h-32l-124 151l-125 -151h-156l206 236l-167 197h153l90 -112l91 112h154l-170 -197z" />
<glyph unicode="&#x4b6;" horiz-adv-x="633" d="M505 0h-78v211q-87 -13 -127 -13q-162 0 -224 89q-37 55 -37 173v207h130v-195q0 -53 5.5 -78t21.5 -43q35 -40 120 -40q56 0 111 17v339h130v-554h65v-241h-117v128z" />
<glyph unicode="&#x4b7;" horiz-adv-x="485" d="M359 0h-53v110q-41 -10 -80 -10q-104 0 -147 47.5t-43 161.5v124h121v-133q0 -53 18 -73.5t64 -20.5q35 0 67 12v215h121v-328h46v-224h-114v119z" />
<glyph unicode="&#x4b8;" horiz-adv-x="633" d="M270 75v124q-89 6 -148 43q-44 29 -63.5 79.5t-19.5 138.5v207h130v-195q0 -53 6 -78t22 -43q22 -26 73 -36v188h62v-192q48 3 95 17v339h130v-667h-130v211q-58 -9 -95 -12v-124h-62z" />
<glyph unicode="&#x4b9;" horiz-adv-x="485" d="M208 28v72q-96 6 -134 52t-38 157v124h121v-134q0 -46 10.5 -64.5t40.5 -26.5v124h52v-126q24 3 46 12v215h121v-433h-121v109q-29 -6 -46 -8v-73h-52z" />
<glyph unicode="&#x4bb;" horiz-adv-x="523" d="M59 729h121v-339q28 30 56.5 43t68.5 13q98 0 139 -73q20 -35 20 -102v-271h-121v240q0 53 -18 77t-58 24t-63 -25q-24 -24 -24 -95v-221h-121v729z" />
<glyph unicode="&#x4c0;" horiz-adv-x="283" d="M77 0v667h130v-667h-130z" />
<glyph unicode="&#x4cf;" horiz-adv-x="283" d="M77 0v667h130v-667h-130z" />
<glyph unicode="&#x4d8;" horiz-adv-x="798" d="M45 363h577q-14 89 -75.5 145t-146.5 56q-133 0 -200 -128l-115 64q41 83 127.5 133t187.5 50q149 0 252 -102t103 -249t-103.5 -248.5t-252.5 -101.5t-252.5 100t-103.5 243q0 19 2 38zM609 262h-421q18 -54 45 -85q29 -35 74 -55.5t92 -20.5t92.5 20.5t74.5 54.5 q27 32 43 86z" />
<glyph unicode="&#x4d9;" horiz-adv-x="538" d="M34 237h341q-1 42 -14 67t-38.5 40.5t-54.5 15.5q-67 0 -102 -64l-121 9q26 65 85 102t136 37q105 0 171.5 -63t66.5 -162q0 -101 -66 -166t-169 -65q-78 0 -135.5 39t-83.5 109q-16 43 -16 101zM373 169h-212q7 -45 36.5 -71.5t70.5 -26.5q42 0 71 27t34 71z" />
<glyph unicode="&#x4e2;" horiz-adv-x="698" d="M77 0v667h125v-449l322 449h98v-667h-125v444l-322 -444h-98zM183 833h333v-80h-333v80z" />
<glyph unicode="&#x4e3;" horiz-adv-x="515" d="M58 0v433h119v-254l174 254h106v-433h-119v249l-174 -249h-106zM97 631h320v-80h-320v80z" />
<glyph unicode="&#x4e8;" horiz-adv-x="798" d="M405 683q145 0 247.5 -103t102.5 -248q0 -147 -103.5 -248.5t-252.5 -101.5q-152 0 -254 101t-102 251q0 148 104 248.5t258 100.5zM180 382h438q-16 81 -76.5 131.5t-142.5 50.5q-81 0 -141 -50t-78 -132zM617 281h-436q19 -81 79 -130.5t139 -49.5q80 0 139.5 49 t78.5 131z" />
<glyph unicode="&#x4e9;" horiz-adv-x="562" d="M281 444q107 0 176.5 -65t69.5 -165q0 -99 -70 -162.5t-179 -63.5q-105 0 -174.5 66t-69.5 166q0 95 71 159.5t176 64.5zM156 254h250q-8 30 -20 46q-17 23 -46 37.5t-60 14.5q-96 0 -124 -98zM405 179h-248q28 -98 123 -98q34 0 64.5 16t44.5 41q7 12 16 41z" />
<glyph unicode="&#x4ee;" horiz-adv-x="576" d="M78 0l145 252l-221 415h152l139 -292l140 292h152l-369 -667h-138zM127 833h333v-80h-333v80z" />
<glyph unicode="&#x4ef;" horiz-adv-x="535" d="M206 65l-205 368h141l130 -246l123 246h139l-350 -664h-137zM107 631h320v-80h-320v80z" />
<glyph unicode="&#x1e1e;" horiz-adv-x="467" d="M430 554h-223v-148h209v-113h-209v-293h-130v667h353v-113zM261 883q31 0 53 -22t22 -53t-22 -53t-53 -22t-53.5 22.5t-22.5 53.5q0 30 22.5 52t53.5 22z" />
<glyph unicode="&#x1e80;" horiz-adv-x="976" d="M138 667l150 -454l163 460h71l155 -460l160 454h137l-251 -680h-91l-148 436l-156 -436h-91l-236 680h137zM339 842l83 68l137 -133l-53 -49z" />
<glyph unicode="&#x1e81;" horiz-adv-x="792" d="M137 433l114 -250l118 262h52l118 -266l116 254h135l-224 -442h-55l-117 263l-115 -263h-56l-222 442h136zM257 644l88 56l120 -151l-58 -40z" />
<glyph unicode="&#x1e82;" horiz-adv-x="976" d="M138 667l150 -454l163 460h71l155 -460l160 454h137l-251 -680h-91l-148 436l-156 -436h-91l-236 680h137zM616 842l-167 -114l-53 49l137 133z" />
<glyph unicode="&#x1e83;" horiz-adv-x="792" d="M137 433l114 -250l118 262h52l118 -266l116 254h135l-224 -442h-55l-117 263l-115 -263h-56l-222 442h136zM534 644l-150 -135l-58 40l119 151z" />
<glyph unicode="&#x1e84;" horiz-adv-x="976" d="M138 667l150 -454l163 460h71l155 -460l160 454h137l-251 -680h-91l-148 436l-156 -436h-91l-236 680h137zM382 883q30 0 51 -21t21 -50q0 -30 -21 -51t-51 -21t-51 21t-21 51q0 29 21.5 50t50.5 21zM593 883q30 0 51 -21t21 -50q0 -30 -21 -51t-51 -21t-51 21t-21 51 q0 29 21.5 50t50.5 21z" />
<glyph unicode="&#x1e85;" horiz-adv-x="792" d="M137 433l114 -250l118 262h52l118 -266l116 254h135l-224 -442h-55l-117 263l-115 -263h-56l-222 442h136zM292 658q29 0 50 -21t21 -51t-21 -51t-50 -21q-30 0 -51 21t-21 52q0 29 21.5 50t50.5 21zM499 658q30 0 51 -21t21 -51t-21 -51t-51 -21t-51 21t-21 52 q0 29 21.5 50t50.5 21z" />
<glyph unicode="&#x1ea0;" horiz-adv-x="670" d="M472 141h-273l-60 -141h-138l289 681h98l280 -681h-139zM431 246l-93 240l-97 -240h190zM323 -75q33 0 56 -23t23 -55q0 -33 -23 -56t-55 -23q-33 0 -56 23t-23 56q0 32 23 55t55 23z" />
<glyph unicode="&#x1ea1;" horiz-adv-x="569" d="M390 433h121v-433h-121v56q-56 -70 -142 -70q-91 0 -152 66t-61 165q0 97 61 163.5t150 66.5q84 0 144 -70v56zM282 338q-51 0 -86.5 -35.5t-35.5 -85.5q0 -51 36 -86.5t86 -35.5q49 0 85 35.5t36 84.5q0 52 -35 87.5t-86 35.5zM279 -75q33 0 56 -23t23 -55 q0 -33 -23 -56t-55 -23q-33 0 -56 23t-23 56q0 32 23 55t55 23z" />
<glyph unicode="&#x1ea2;" horiz-adv-x="670" d="M472 141h-273l-60 -141h-138l289 681h98l280 -681h-139zM431 246l-93 240l-97 -240h190zM363 746h-53v73q15 3 37 6q29 5 39 11t10 21q0 35 -46 35q-18 0 -29 -6q-2 -2 -10 -5.5t-13 -6.5q-3 -1 -6 -3l-18 45l6 3l3 1q47 18 87 18q45 0 73.5 -23.5t28.5 -60.5 q0 -33 -22.5 -51.5t-63.5 -18.5h-23v-38z" />
<glyph unicode="&#x1ea3;" horiz-adv-x="569" d="M390 433h121v-433h-121v56q-56 -70 -142 -70q-91 0 -152 66t-61 165q0 97 61 163.5t150 66.5q84 0 144 -70v56zM282 338q-51 0 -86.5 -35.5t-35.5 -85.5q0 -51 36 -86.5t86 -35.5q49 0 85 35.5t36 84.5q0 52 -35 87.5t-86 35.5zM277 499h-53v73q15 3 37 6q29 5 39 11 t10 21q0 35 -46 35q-18 0 -29 -6l-10 -5t-13 -7q-3 -1 -6 -3l-18 45l6 3l3 1q47 18 87 18q45 0 73.5 -23.5t28.5 -60.5q0 -33 -22.5 -51.5t-63.5 -18.5h-23v-38z" />
<glyph unicode="&#x1ea4;" horiz-adv-x="670" d="M433 857l126 123l84 -69l-151 -102l27 -21l-63 -60l-109 90l-109 -90l-60 60l169 138zM472 141h-273l-60 -141h-138l289 681h98l280 -681h-139zM431 246l-93 240l-97 -240h190z" />
<glyph unicode="&#x1ea5;" horiz-adv-x="569" d="M377 637l99 125l88 -56l-128 -116l26 -21l-62 -60l-110 92l-109 -92l-60 60l169 138zM390 433h121v-433h-121v56q-56 -70 -142 -70q-91 0 -152 66t-61 165q0 97 61 163.5t150 66.5q84 0 144 -70v56zM282 338q-51 0 -86.5 -35.5t-35.5 -85.5q0 -51 36 -86.5t86 -35.5 q49 0 85 35.5t36 84.5q0 52 -35 87.5t-86 35.5z" />
<glyph unicode="&#x1ea6;" horiz-adv-x="670" d="M200 807l-146 99l84 68l122 -119l87 71l172 -138l-63 -60l-109 90l-109 -90l-60 60zM472 141h-273l-60 -141h-138l289 681h98l280 -681h-139zM431 246l-93 240l-97 -240h190z" />
<glyph unicode="&#x1ea7;" horiz-adv-x="569" d="M147 591l-139 125l88 56l107 -135l87 70l172 -138l-62 -60l-110 92l-109 -92l-60 60zM390 433h121v-433h-121v56q-56 -70 -142 -70q-91 0 -152 66t-61 165q0 97 61 163.5t150 66.5q84 0 144 -70v56zM282 338q-51 0 -86.5 -35.5t-35.5 -85.5q0 -51 36 -86.5t86 -35.5 q49 0 85 35.5t36 84.5q0 52 -35 87.5t-86 35.5z" />
<glyph unicode="&#x1ea8;" horiz-adv-x="670" d="M446 847v42q15 3 37 6q29 5 39 11t10 21q0 35 -46 35q-18 0 -29 -6q-2 -2 -9.5 -5.5t-13.5 -6.5q-3 -1 -6 -3l-18 45l6 3l3 1q47 18 87 18q45 0 73.5 -23.5t28.5 -60.5q0 -33 -22.5 -51.5t-63.5 -18.5h-23v-38h-15l34 -28l-62 -60l-109 90l-109 -90l-60 60l169 138z M472 141h-273l-60 -141h-138l289 681h98l280 -681h-139zM431 246l-93 240l-97 -240h190z" />
<glyph unicode="&#x1ea9;" horiz-adv-x="569" d="M410 611v51q15 3 37 6q29 5 39 11t10 21q0 35 -46 35q-18 0 -29 -6l-10 -5t-13 -7q-3 -1 -6 -3l-18 45l6 3l3 1q47 18 87 18q45 0 73.5 -23.5t28.5 -60.5q0 -33 -22.5 -51.5t-63.5 -18.5h-23v-38h-25l24 -19l-62 -60l-110 92l-109 -92l-60 60l169 138zM390 433h121v-433 h-121v56q-56 -70 -142 -70q-91 0 -152 66t-61 165q0 97 61 163.5t150 66.5q84 0 144 -70v56zM282 338q-51 0 -86.5 -35.5t-35.5 -85.5q0 -51 36 -86.5t86 -35.5q49 0 85 35.5t36 84.5q0 52 -35 87.5t-86 35.5z" />
<glyph unicode="&#x1eaa;" horiz-adv-x="670" d="M472 141h-273l-60 -141h-138l289 681h98l280 -681h-139zM431 246l-93 240l-97 -240h190zM178 788l169 138l172 -138l-63 -60l-109 90l-109 -90zM239 934h-68q8 58 37 92t70 34q30 0 80 -20q50 -18 63 -18q14 0 23 7.5t20 29.5h69q-11 -60 -42.5 -93.5t-75.5 -33.5 q-22 0 -69 19q-49 19 -67 19q-26 0 -40 -36z" />
<glyph unicode="&#x1eab;" horiz-adv-x="569" d="M390 433h121v-433h-121v56q-56 -70 -142 -70q-91 0 -152 66t-61 165q0 97 61 163.5t150 66.5q84 0 144 -70v56zM282 338q-51 0 -86.5 -35.5t-35.5 -85.5q0 -51 36 -86.5t86 -35.5q49 0 85 35.5t36 84.5q0 52 -35 87.5t-86 35.5zM121 569l169 138l172 -138l-62 -60 l-110 92l-109 -92zM172 720h-69q9 59 38 92.5t70 33.5q29 0 80 -20q49 -18 63 -18t23 7.5t20 29.5h69q-11 -60 -42.5 -93.5t-75.5 -33.5q-22 0 -70 19q-47 19 -66 19q-26 0 -40 -36z" />
<glyph unicode="&#x1eac;" horiz-adv-x="670" d="M472 141h-273l-60 -141h-138l289 681h98l280 -681h-139zM431 246l-93 240l-97 -240h190zM178 788l169 138l172 -138l-63 -60l-109 90l-109 -90zM323 -24q33 0 56 -23t23 -55q0 -33 -23 -56t-55 -23q-33 0 -56 23t-23 56q0 32 23 55t55 23z" />
<glyph unicode="&#x1ead;" horiz-adv-x="569" d="M390 433h121v-433h-121v56q-56 -70 -142 -70q-91 0 -152 66t-61 165q0 97 61 163.5t150 66.5q84 0 144 -70v56zM282 338q-51 0 -86.5 -35.5t-35.5 -85.5q0 -51 36 -86.5t86 -35.5q49 0 85 35.5t36 84.5q0 52 -35 87.5t-86 35.5zM121 569l169 138l172 -138l-62 -60 l-110 92l-109 -92zM258 -32q33 0 56 -23t23 -55q0 -33 -23 -56t-55 -23q-33 0 -56 23t-23 56q0 32 23 55t55 23z" />
<glyph unicode="&#x1eae;" horiz-adv-x="670" d="M472 141h-273l-60 -141h-138l289 681h98l280 -681h-139zM431 246l-93 240l-97 -240h190zM170 872h84q12 -34 31 -48.5t50 -14.5q32 0 50.5 14.5t29.5 48.5h84q-8 -65 -52.5 -102.5t-111.5 -37.5q-68 0 -112.5 37.5t-52.5 102.5zM506 967l-167 -114l-53 48l137 134z" />
<glyph unicode="&#x1eaf;" horiz-adv-x="569" d="M390 433h121v-433h-121v56q-56 -70 -142 -70q-91 0 -152 66t-61 165q0 97 61 163.5t150 66.5q84 0 144 -70v56zM282 338q-51 0 -86.5 -35.5t-35.5 -85.5q0 -51 36 -86.5t86 -35.5q49 0 85 35.5t36 84.5q0 52 -35 87.5t-86 35.5zM127 650h84q21 -63 80 -63q60 0 81 63h84 q-8 -65 -52.5 -103t-112.5 -38t-112 38t-52 103zM440 743l-150 -135l-58 40l119 151z" />
<glyph unicode="&#x1eb0;" horiz-adv-x="670" d="M472 141h-273l-60 -141h-138l289 681h98l280 -681h-139zM431 246l-93 240l-97 -240h190zM170 872h84q12 -34 31 -48.5t50 -14.5q32 0 50.5 14.5t29.5 48.5h84q-8 -65 -52.5 -102.5t-111.5 -37.5q-68 0 -112.5 37.5t-52.5 102.5zM164 956l83 68l138 -134l-54 -48z" />
<glyph unicode="&#x1eb1;" horiz-adv-x="569" d="M390 433h121v-433h-121v56q-56 -70 -142 -70q-91 0 -152 66t-61 165q0 97 61 163.5t150 66.5q84 0 144 -70v56zM282 338q-51 0 -86.5 -35.5t-35.5 -85.5q0 -51 36 -86.5t86 -35.5q49 0 85 35.5t36 84.5q0 52 -35 87.5t-86 35.5zM127 650h84q21 -63 80 -63q60 0 81 63h84 q-8 -65 -52.5 -103t-112.5 -38t-112 38t-52 103zM133 752l89 56l119 -151l-58 -40z" />
<glyph unicode="&#x1eb2;" horiz-adv-x="670" d="M472 141h-273l-60 -141h-138l289 681h98l280 -681h-139zM431 246l-93 240l-97 -240h190zM170 872h84q12 -34 31 -48.5t50 -14.5q32 0 50.5 14.5t29.5 48.5h84q-8 -65 -52.5 -102.5t-111.5 -37.5q-68 0 -112.5 37.5t-52.5 102.5zM356 858h-53v73q15 3 37 6q29 5 39 11 t10 21q0 35 -46 35q-18 0 -29 -6q-3 -2 -10 -5.5l-13 -6.5q-3 -1 -6 -3l-18 45l6 3l3 1q46 18 87 18q45 0 73.5 -23.5t28.5 -60.5q0 -33 -22.5 -51.5t-63.5 -18.5h-23v-38z" />
<glyph unicode="&#x1eb3;" horiz-adv-x="569" d="M390 433h121v-433h-121v56q-56 -70 -142 -70q-91 0 -152 66t-61 165q0 97 61 163.5t150 66.5q84 0 144 -70v56zM282 338q-51 0 -86.5 -35.5t-35.5 -85.5q0 -51 36 -86.5t86 -35.5q49 0 85 35.5t36 84.5q0 52 -35 87.5t-86 35.5zM127 650h84q21 -63 80 -63q60 0 81 63h84 q-8 -65 -52.5 -103t-112.5 -38t-112 38t-52 103zM313 626h-53v74q10 1 21 3t16 3q29 5 39 11t10 21q0 35 -46 35q-17 0 -29 -6l-23 -12q-3 -1 -6 -3l-18 45q2 1 4.5 2t4.5 2q48 18 87 18q45 0 73.5 -23.5t28.5 -60.5q0 -33 -23 -52t-63 -19q-12 0 -23 1v-39z" />
<glyph unicode="&#x1eb4;" horiz-adv-x="670" d="M472 141h-273l-60 -141h-138l289 681h98l280 -681h-139zM431 246l-93 240l-97 -240h190zM170 872h84q12 -34 31 -48.5t50 -14.5q32 0 50.5 14.5t29.5 48.5h84q-8 -65 -52.5 -102.5t-111.5 -37.5q-68 0 -112.5 37.5t-52.5 102.5zM234 901h-68q8 58 37 92t70 34 q30 0 80 -20q50 -18 63 -18q14 0 23 7.5t20 29.5h69q-11 -60 -42.5 -93.5t-75.5 -33.5q-22 0 -69 19q-49 19 -67 19q-26 0 -40 -36z" />
<glyph unicode="&#x1eb5;" horiz-adv-x="569" d="M390 433h121v-433h-121v56q-56 -70 -142 -70q-91 0 -152 66t-61 165q0 97 61 163.5t150 66.5q84 0 144 -70v56zM282 338q-51 0 -86.5 -35.5t-35.5 -85.5q0 -51 36 -86.5t86 -35.5q49 0 85 35.5t36 84.5q0 52 -35 87.5t-86 35.5zM127 650h84q21 -63 80 -63q60 0 81 63h84 q-8 -65 -52.5 -103t-112.5 -38t-112 38t-52 103zM173 678h-69q9 59 38 92.5t70 33.5q26 0 80 -20q49 -19 63 -19t22.5 7.5t20.5 30.5h69q-11 -59 -42 -93t-73 -34q-21 0 -38.5 5t-70.5 27q-13 6 -28 6q-28 0 -42 -36z" />
<glyph unicode="&#x1eb6;" horiz-adv-x="670" d="M472 141h-273l-60 -141h-138l289 681h98l280 -681h-139zM431 246l-93 240l-97 -240h190zM170 872h84q12 -34 31 -48.5t50 -14.5q32 0 50.5 14.5t29.5 48.5h84q-8 -65 -52.5 -102.5t-111.5 -37.5q-68 0 -112.5 37.5t-52.5 102.5zM323 -19q33 0 56 -23t23 -55 q0 -33 -23 -56t-55 -23q-33 0 -56 23t-23 56q0 32 23 55t55 23z" />
<glyph unicode="&#x1eb7;" horiz-adv-x="569" d="M390 433h121v-433h-121v56q-56 -70 -142 -70q-91 0 -152 66t-61 165q0 97 61 163.5t150 66.5q84 0 144 -70v56zM282 338q-51 0 -86.5 -35.5t-35.5 -85.5q0 -51 36 -86.5t86 -35.5q49 0 85 35.5t36 84.5q0 52 -35 87.5t-86 35.5zM127 650h84q21 -63 80 -63q60 0 81 63h84 q-8 -65 -52.5 -103t-112.5 -38t-112 38t-52 103zM258 -32q33 0 56 -23t23 -55q0 -33 -23 -56t-55 -23q-33 0 -56 23t-23 56q0 32 23 55t55 23z" />
<glyph unicode="&#x1eb8;" horiz-adv-x="495" d="M446 554h-239v-148h230v-113h-230v-180h239v-113h-369v667h369v-113zM264 -28q33 0 56 -23t23 -55q0 -33 -23 -56t-55 -23q-33 0 -56 23t-23 56q0 32 23 55t55 23z" />
<glyph unicode="&#x1eb9;" horiz-adv-x="518" d="M484 197h-325q5 -116 106 -116q63 0 103 58l112 -18q-56 -135 -212 -135q-106 0 -169.5 63t-63.5 167q0 105 62 168t165 63t162.5 -62.5t59.5 -171.5v-16zM163 274h205q-20 86 -103 86q-40 0 -67 -22.5t-35 -63.5zM254 -38q33 0 56 -23t23 -55q0 -33 -23 -56t-55 -23 q-33 0 -56 23t-23 56q0 32 23 55t55 23z" />
<glyph unicode="&#x1eba;" horiz-adv-x="495" d="M446 554h-239v-148h230v-113h-230v-180h239v-113h-369v667h369v-113zM293 744h-53v73q15 3 37 6q29 5 39 11t10 21q0 35 -46 35q-18 0 -29 -6q-2 -2 -9.5 -5.5t-13.5 -6.5q-3 -1 -6 -3l-18 45l6 3l3 1q47 18 87 18q45 0 73.5 -23.5t28.5 -60.5q0 -33 -22.5 -51.5 t-63.5 -18.5h-23v-38z" />
<glyph unicode="&#x1ebb;" horiz-adv-x="518" d="M484 197h-325q5 -116 106 -116q63 0 103 58l112 -18q-56 -135 -212 -135q-106 0 -169.5 63t-63.5 167q0 105 62 168t165 63t162.5 -62.5t59.5 -171.5v-16zM163 274h205q-20 86 -103 86q-40 0 -67 -22.5t-35 -63.5zM265 497h-53v73q15 3 37 6q29 5 39 11t10 21 q0 35 -46 35q-18 0 -29 -6q-3 -2 -10 -5.5l-13 -6.5q-3 -1 -6 -3l-18 45l6 3l3 1q47 18 87 18q45 0 73.5 -23.5t28.5 -60.5q0 -33 -22.5 -51.5t-63.5 -18.5h-23v-38z" />
<glyph unicode="&#x1ebc;" horiz-adv-x="495" d="M446 554h-239v-148h230v-113h-230v-180h239v-113h-369v667h369v-113zM134 742h-68q8 58 37 92t70 34q30 0 80 -20q50 -18 63 -18q14 0 23 7.5t21 29.5h69q-12 -60 -43 -93.5t-75 -33.5q-23 0 -70 19q-48 19 -66 19q-27 0 -41 -36z" />
<glyph unicode="&#x1ebd;" horiz-adv-x="518" d="M484 197h-325q5 -116 106 -116q63 0 103 58l112 -18q-56 -135 -212 -135q-106 0 -169.5 63t-63.5 167q0 105 62 168t165 63t162.5 -62.5t59.5 -171.5v-16zM163 274h205q-20 86 -103 86q-40 0 -67 -22.5t-35 -63.5zM146 523h-68q8 58 37.5 91.5t70.5 33.5q29 0 79 -20 q49 -18 63 -18q15 0 23.5 7t20.5 30h69q-11 -59 -42.5 -92.5t-75.5 -33.5q-25 0 -70 19q-48 18 -66 18q-26 0 -41 -35z" />
<glyph unicode="&#x1ebe;" horiz-adv-x="495" d="M344 865l121 118l83 -69l-144 -98l35 -28l-62 -60l-110 90l-109 -90l-60 60l169 138zM446 554h-239v-148h230v-113h-230v-180h239v-113h-369v667h369v-113z" />
<glyph unicode="&#x1ebf;" horiz-adv-x="518" d="M341 646l101 127l88 -56l-131 -118l38 -30l-63 -60l-109 92l-109 -92l-60 60l169 138zM484 197h-325q5 -116 106 -116q63 0 103 58l112 -18q-56 -135 -212 -135q-106 0 -169.5 63t-63.5 167q0 105 62 168t165 63t162.5 -62.5t59.5 -171.5v-16zM163 274h205 q-20 86 -103 86q-40 0 -67 -22.5t-35 -63.5z" />
<glyph unicode="&#x1ec0;" horiz-adv-x="495" d="M122 808l-143 98l83 68l120 -117l85 69l171 -138l-62 -60l-109 90l-109 -90l-61 60zM446 554h-239v-148h230v-113h-230v-180h239v-113h-369v667h369v-113z" />
<glyph unicode="&#x1ec1;" horiz-adv-x="518" d="M117 587l-137 122l88 57l105 -133l92 74l171 -138l-62 -60l-109 92l-109 -92l-61 60zM483 197h-324q5 -116 106 -116q63 0 103 58l112 -18q-56 -135 -212 -135q-106 0 -169.5 63t-63.5 167q0 105 61.5 168t164.5 63q76 0 129.5 -35t76.5 -99q16 -45 16 -116zM163 274h205 q-22 86 -104 86q-40 0 -66.5 -22.5t-34.5 -63.5z" />
<glyph unicode="&#x1ec2;" horiz-adv-x="495" d="M374 841v46q15 3 37 6q29 5 39 11t10 21q0 35 -46 35q-18 0 -29 -6q-2 -1 -9.5 -5t-13.5 -7q-3 -1 -6 -3l-18 45l6 3l3 1q47 18 87 18q45 0 73.5 -23.5t28.5 -60.5q0 -33 -22.5 -51.5t-63.5 -18.5h-23v-38h-20l32 -25l-62 -60l-110 90l-109 -90l-60 60l169 138zM446 554 h-239v-148h230v-113h-230v-180h239v-113h-369v667h369v-113z" />
<glyph unicode="&#x1ec3;" horiz-adv-x="518" d="M371 623v48q15 3 37 6q29 5 39 11t10 21q0 35 -46 35q-18 0 -29 -6q-3 -1 -10.5 -5t-12.5 -7q-3 -1 -6 -3l-18 45l6 3l3 1q46 18 87 18q45 0 73.5 -23.5t28.5 -60.5q0 -33 -22.5 -51.5t-63.5 -18.5h-23v-38h-22l35 -28l-62 -60l-110 92l-109 -92l-60 60l169 138zM484 197 h-325q5 -116 106 -116q63 0 103 58l112 -18q-56 -135 -212 -135q-106 0 -169.5 63t-63.5 167q0 105 62 168t165 63t162.5 -62.5t59.5 -171.5v-16zM163 274h205q-20 86 -103 86q-40 0 -67 -22.5t-35 -63.5z" />
<glyph unicode="&#x1ec4;" horiz-adv-x="495" d="M446 554h-239v-148h230v-113h-230v-180h239v-113h-369v667h369v-113zM98 788l169 138l172 -138l-62 -60l-110 90l-109 -90zM156 928h-68q8 59 37 93t70 34q30 0 80 -20q50 -18 63 -18q14 0 23 7.5t20 29.5h69q-11 -61 -42.5 -94.5t-75.5 -33.5q-22 0 -69 19 q-48 20 -67 20q-26 0 -40 -37z" />
<glyph unicode="&#x1ec5;" horiz-adv-x="518" d="M484 197h-325q5 -116 106 -116q63 0 103 58l112 -18q-56 -135 -212 -135q-106 0 -169.5 63t-63.5 167q0 105 62 168t165 63t162.5 -62.5t59.5 -171.5v-16zM163 274h205q-20 86 -103 86q-40 0 -67 -22.5t-35 -63.5zM96 569l169 138l172 -138l-63 -60l-109 92l-109 -92z M167 710h-68q8 58 37 92t70 34q30 0 80 -20q49 -18 63 -18t23 7.5t20 29.5h69q-11 -60 -42.5 -93.5t-75.5 -33.5q-22 0 -69 19q-49 19 -67 19q-26 0 -40 -36z" />
<glyph unicode="&#x1ec6;" horiz-adv-x="495" d="M446 554h-239v-148h230v-113h-230v-180h239v-113h-369v667h369v-113zM98 788l169 138l172 -138l-62 -60l-110 90l-109 -90zM265 -21q33 0 56 -23t23 -55q0 -33 -23 -56t-55 -23q-33 0 -56 23t-23 56q0 32 23 55t55 23z" />
<glyph unicode="&#x1ec7;" horiz-adv-x="518" d="M484 197h-325q5 -116 106 -116q63 0 103 58l112 -18q-56 -135 -212 -135q-106 0 -169.5 63t-63.5 167q0 105 62 168t165 63t162.5 -62.5t59.5 -171.5v-16zM163 274h205q-20 86 -103 86q-40 0 -67 -22.5t-35 -63.5zM96 569l169 138l172 -138l-63 -60l-109 92l-109 -92z M254 -36q33 0 56 -23t23 -55q0 -33 -23 -56t-55 -23q-33 0 -56 23t-23 56q0 32 23 55t55 23z" />
<glyph unicode="&#x1ec8;" horiz-adv-x="283" d="M207 667v-667h-130v667h130zM160 744h-53v73q15 3 37 6q29 5 39 11t10 21q0 35 -46 35q-18 0 -29 -6q-3 -2 -10.5 -5.5t-12.5 -6.5q-3 -1 -6 -3l-18 45l6 3l3 1q46 18 87 18q45 0 73.5 -23.5t28.5 -60.5q0 -33 -22.5 -51.5t-63.5 -18.5h-23v-38z" />
<glyph unicode="&#x1ec9;" horiz-adv-x="233" d="M177 433v-433h-121v433h121zM142 484h-53v73q32 6 37 6q29 5 39 11t10 21q0 35 -46 35q-17 0 -37 -11l-2 -1q-2 -1 -5.5 -2.5t-6.5 -2.5l-7 -4l-18 45l6 3l3 1q48 18 87 18q45 0 73.5 -23.5t28.5 -60.5q0 -33 -22.5 -51.5t-63.5 -18.5h-23v-38z" />
<glyph unicode="&#x1eca;" horiz-adv-x="283" d="M206 667v-667h-130v667h130zM139 -29q33 0 56 -23t23 -55q0 -33 -23 -56t-55 -23q-33 0 -56 23t-23 56q0 32 23 55t55 23z" />
<glyph unicode="&#x1ecb;" horiz-adv-x="233" d="M177 433v-433h-121v433h121zM117 689q30 0 51 -21t21 -52q0 -30 -21 -51.5t-51 -21.5q-31 0 -52 21.5t-21 52.5q0 29 21.5 50.5t51.5 21.5zM115 -28q33 0 56 -23t23 -55q0 -33 -23 -56t-55 -23q-33 0 -56 23t-23 56q0 32 23 55t55 23z" />
<glyph unicode="&#x1ecc;" horiz-adv-x="799" d="M401 682q149 0 252 -101t103 -248q0 -148 -104 -248t-256 -100q-150 0 -251.5 101.5t-101.5 251.5q0 143 105 243.5t253 100.5zM399 563q-91 0 -156.5 -67t-65.5 -160q0 -97 65 -164.5t158 -67.5q92 0 157 67.5t65 162.5t-65 162t-158 67zM400 -44q33 0 56 -23t23 -55 q0 -33 -23 -56t-55 -23q-33 0 -56 23t-23 56q0 32 23 55t55 23z" />
<glyph unicode="&#x1ecd;" horiz-adv-x="565" d="M284 447q109 0 177.5 -64t68.5 -166q0 -103 -69.5 -167t-180.5 -64q-109 0 -177 65t-68 169q0 99 70 163t179 64zM282 338q-50 0 -86 -35.5t-36 -84.5q0 -52 35.5 -87.5t87.5 -35.5q50 0 86 35.5t36 85.5q0 51 -36 86.5t-87 35.5zM276 -44q33 0 56 -23t23 -55 q0 -33 -23 -56t-55 -23q-33 0 -56 23t-23 56q0 32 23 55t55 23z" />
<glyph unicode="&#x1ece;" horiz-adv-x="799" d="M401 682q149 0 252 -101t103 -248q0 -148 -104 -248t-256 -100q-150 0 -251.5 101.5t-101.5 251.5q0 143 105 243.5t253 100.5zM399 563q-91 0 -156.5 -67t-65.5 -160q0 -97 65 -164.5t158 -67.5q92 0 157 67.5t65 162.5t-65 162t-158 67zM416 746h-53v73q15 3 37 6 q29 5 39 11t10 21q0 35 -46 35q-18 0 -29 -6q-3 -2 -10 -5.5l-13 -6.5q-3 -1 -6 -3l-18 45l6 3l3 1q46 18 87 18q45 0 73.5 -23.5t28.5 -60.5q0 -33 -22.5 -51.5t-63.5 -18.5h-23v-38z" />
<glyph unicode="&#x1ecf;" horiz-adv-x="565" d="M284 447q109 0 177.5 -64t68.5 -166q0 -103 -69.5 -167t-180.5 -64q-109 0 -177 65t-68 169q0 99 70 163t179 64zM282 338q-50 0 -86 -35.5t-36 -84.5q0 -52 35.5 -87.5t87.5 -35.5q50 0 86 35.5t36 85.5q0 51 -36 86.5t-87 35.5zM304 482h-53v73q22 5 37 6q29 5 39 11 t10 21q0 35 -46 35q-18 0 -37 -11q-1 0 -21 -10l-18 45l6 3l3 1q46 18 87 18q45 0 73.5 -23.5t28.5 -60.5q0 -33 -22.5 -51.5t-63.5 -18.5h-23v-38z" />
<glyph unicode="&#x1ed0;" horiz-adv-x="799" d="M478 862l128 125l83 -69l-152 -103l33 -27l-62 -60l-110 90l-109 -90l-60 60l169 138zM398 682q160 0 265 -112q93 -99 93 -237q0 -146 -103.5 -247t-253.5 -101q-148 0 -252 99.5t-104 241.5q0 162 115 265q48 43 111.5 67t128.5 24zM399 563q-91 0 -156.5 -67 t-65.5 -160q0 -97 65 -164.5t158 -67.5q92 0 157 67.5t65 162.5t-65 162t-158 67z" />
<glyph unicode="&#x1ed1;" horiz-adv-x="565" d="M363 642l96 122l89 -56l-126 -114l31 -25l-62 -60l-109 92l-109 -92l-61 60l169 138zM281 447q111 0 180 -63.5t69 -166.5q0 -102 -69 -166.5t-178 -64.5q-108 0 -178 64t-70 162q0 115 79 179q68 56 167 56zM282 338q-50 0 -86 -35.5t-36 -84.5q0 -52 35.5 -87.5 t87.5 -35.5q50 0 86 35.5t36 85.5q0 51 -36 86.5t-87 35.5z" />
<glyph unicode="&#x1ed2;" horiz-adv-x="799" d="M262 815l-145 99l83 69l122 -119l76 62l172 -138l-62 -60l-110 90l-109 -90l-60 60zM398 682q160 0 265 -112q93 -99 93 -237q0 -146 -103.5 -247t-253.5 -101q-148 0 -252 99.5t-104 241.5q0 162 115 265q48 43 111.5 67t128.5 24zM399 563q-91 0 -156.5 -67t-65.5 -160 q0 -97 65 -164.5t158 -67.5q92 0 157 67.5t65 162.5t-65 162t-158 67z" />
<glyph unicode="&#x1ed3;" horiz-adv-x="565" d="M142 594l-132 118l88 56l101 -127l82 66l172 -138l-63 -60l-109 92l-109 -92l-61 60zM281 447q111 0 180 -63.5t69 -166.5q0 -102 -69 -166.5t-179 -64.5q-108 0 -178 63.5t-70 162.5q0 115 79 179q68 56 168 56zM282 338q-50 0 -86.5 -35.5t-36.5 -84.5q0 -52 36 -87.5 t87 -35.5t87 35.5t36 85.5q0 51 -36 86.5t-87 35.5z" />
<glyph unicode="&#x1ed4;" horiz-adv-x="799" d="M506 840v50q15 3 37 6q29 5 39 11t10 21q0 35 -46 35q-18 0 -29 -6q-2 -1 -9.5 -5t-13.5 -7q-3 -1 -6 -3l-18 45l6 3l3 1q47 18 87 18q45 0 73.5 -23.5t28.5 -60.5q0 -33 -22.5 -51.5t-63.5 -18.5h-23v-38h-24l35 -29l-62 -59l-110 90l-109 -90l-60 59l169 139zM398 682 q160 0 265 -112q93 -99 93 -237q0 -146 -103.5 -247t-253.5 -101q-148 0 -252 99.5t-104 241.5q0 162 115 265q48 43 111.5 67t128.5 24zM399 563q-91 0 -156.5 -67t-65.5 -160q0 -97 65 -164.5t158 -67.5q92 0 157 67.5t65 162.5t-65 162t-158 67z" />
<glyph unicode="&#x1ed5;" horiz-adv-x="565" d="M396 615v50q15 3 37 6q29 5 39 11t10 21q0 35 -46 35q-18 0 -29 -6q-3 -1 -10 -5t-13 -7q-3 -1 -6 -3l-18 45l6 3l3 1q47 18 87 18q45 0 73.5 -23.5t28.5 -60.5q0 -33 -22.5 -51.5t-63.5 -18.5h-23v-38h-24l28 -23l-62 -60l-109 92l-109 -92l-61 60l170 138zM281 447 q111 0 180 -63.5t69 -166.5q0 -102 -69 -166.5t-178 -64.5q-108 0 -178 64t-70 162q0 115 79 179q68 56 167 56zM282 338q-50 0 -86 -35.5t-36 -84.5q0 -52 35.5 -87.5t87.5 -35.5q50 0 86 35.5t36 85.5q0 51 -36 86.5t-87 35.5z" />
<glyph unicode="&#x1ed6;" horiz-adv-x="799" d="M401 682q149 0 252 -101t103 -248q0 -148 -104 -248t-256 -100q-150 0 -251.5 101.5t-101.5 251.5q0 143 105 243.5t253 100.5zM399 563q-91 0 -156.5 -67t-65.5 -160q0 -97 65 -164.5t158 -67.5q92 0 157 67.5t65 162.5t-65 162t-158 67zM229 788l169 138l172 -138 l-62 -60l-110 90l-109 -90zM286 941h-68q8 59 37 93t70 34q30 0 80 -20q50 -18 63 -18q15 0 23.5 7t20.5 30h69q-11 -61 -42.5 -94.5t-75.5 -33.5q-23 0 -70 19q-47 20 -66 20q-27 0 -41 -37z" />
<glyph unicode="&#x1ed7;" horiz-adv-x="565" d="M284 447q109 0 177.5 -64t68.5 -166q0 -103 -69.5 -167t-180.5 -64q-109 0 -177 65t-68 169q0 99 70 163t179 64zM282 338q-50 0 -86 -35.5t-36 -84.5q0 -52 35.5 -87.5t87.5 -35.5q50 0 86 35.5t36 85.5q0 51 -36 86.5t-87 35.5zM112 569l169 138l172 -138l-62 -60 l-109 92l-109 -92zM170 716h-69q9 59 38 92.5t70 33.5q29 0 80 -20q49 -18 63 -18t23 7.5t20 29.5h69q-11 -60 -42.5 -93.5t-75.5 -33.5q-22 0 -70 19t-66 19q-26 0 -40 -36z" />
<glyph unicode="&#x1ed8;" horiz-adv-x="799" d="M401 682q149 0 252 -101t103 -248q0 -148 -104 -248t-256 -100q-150 0 -251.5 101.5t-101.5 251.5q0 143 105 243.5t253 100.5zM399 563q-91 0 -156.5 -67t-65.5 -160q0 -97 65 -164.5t158 -67.5q92 0 157 67.5t65 162.5t-65 162t-158 67zM229 788l169 138l172 -138 l-62 -60l-110 90l-109 -90zM399 -37q33 0 56 -23t23 -55q0 -33 -23 -56t-55 -23q-33 0 -56 23t-23 56q0 32 23 55t55 23z" />
<glyph unicode="&#x1ed9;" horiz-adv-x="565" d="M284 447q109 0 177.5 -64t68.5 -166q0 -103 -69.5 -167t-180.5 -64q-109 0 -177 65t-68 169q0 99 70 163t179 64zM282 338q-50 0 -86 -35.5t-36 -84.5q0 -52 35.5 -87.5t87.5 -35.5q50 0 86 35.5t36 85.5q0 51 -36 86.5t-87 35.5zM112 569l169 138l172 -138l-62 -60 l-109 92l-109 -92zM277 -38q33 0 56 -23t23 -55q0 -33 -23 -56t-55 -23q-33 0 -56 23t-23 56q0 32 23 55t55 23z" />
<glyph unicode="&#x1eda;" horiz-adv-x="799" d="M641 592l47 119l108 -9l-105 -167q65 -91 65 -202q0 -146 -103.5 -247t-253.5 -101q-151 0 -253.5 100.5t-102.5 246.5q0 147 103.5 248.5t253.5 101.5q143 0 241 -90zM399 563q-91 0 -156.5 -67t-65.5 -160q0 -97 65 -164.5t158 -67.5q92 0 157 67.5t65 162.5t-65 162 t-158 67zM550 842l-167 -114l-54 49l138 133z" />
<glyph unicode="&#x1edb;" horiz-adv-x="565" d="M458 386l44 109l101 -9l-99 -160q26 -46 26 -109q0 -102 -69 -166.5t-178 -64.5q-110 0 -179 64t-69 166t69 166.5t178 64.5q110 0 176 -61zM282 338q-50 0 -86 -35.5t-36 -84.5q0 -52 35.5 -87.5t87.5 -35.5q50 0 86 35.5t36 85.5q0 51 -36 86.5t-87 35.5zM440 644 l-150 -135l-58 40l119 151z" />
<glyph unicode="&#x1edc;" horiz-adv-x="799" d="M641 592l47 119l108 -9l-105 -167q65 -91 65 -202q0 -146 -103.5 -247t-253.5 -101q-151 0 -253.5 100.5t-102.5 246.5q0 147 103.5 248.5t253.5 101.5q143 0 241 -90zM399 563q-91 0 -156.5 -67t-65.5 -160q0 -97 65 -164.5t158 -67.5q92 0 157 67.5t65 162.5t-65 162 t-158 67zM249 842l83 68l138 -133l-54 -49z" />
<glyph unicode="&#x1edd;" horiz-adv-x="565" d="M458 386l44 109l101 -9l-99 -160q26 -46 26 -109q0 -102 -69 -166.5t-178 -64.5q-110 0 -179 64t-69 166t69 166.5t178 64.5q110 0 176 -61zM282 338q-50 0 -86 -35.5t-36 -84.5q0 -52 35.5 -87.5t87.5 -35.5q50 0 86 35.5t36 85.5q0 51 -36 86.5t-87 35.5zM126 644 l88 56l119 -151l-58 -40z" />
<glyph unicode="&#x1ede;" horiz-adv-x="799" d="M641 592l47 119l108 -9l-105 -167q65 -91 65 -202q0 -146 -103.5 -247t-253.5 -101q-151 0 -253.5 100.5t-102.5 246.5q0 147 103.5 248.5t253.5 101.5q143 0 241 -90zM399 563q-91 0 -156.5 -67t-65.5 -160q0 -97 65 -164.5t158 -67.5q92 0 157 67.5t65 162.5t-65 162 t-158 67zM405 746h-53v73q15 3 37 6q29 5 39 11t10 21q0 35 -46 35q-18 0 -29 -6q-3 -2 -10 -5.5l-13 -6.5q-3 -1 -6 -3l-18 45l6 3l3 1q47 18 87 18q45 0 73.5 -23.5t28.5 -60.5q0 -33 -22.5 -51.5t-63.5 -18.5h-23v-38z" />
<glyph unicode="&#x1edf;" horiz-adv-x="565" d="M458 386l44 109l101 -9l-99 -160q26 -46 26 -109q0 -102 -69 -166.5t-178 -64.5q-110 0 -179 64t-69 166t69 166.5t178 64.5q110 0 176 -61zM282 338q-50 0 -86 -35.5t-36 -84.5q0 -52 35.5 -87.5t87.5 -35.5q50 0 86 35.5t36 85.5q0 51 -36 86.5t-87 35.5zM289 527h-53 v73q32 6 37 6q29 5 39 11t10 21q0 35 -46 35q-18 0 -37 -11q-1 0 -21 -10l-18 45l6 3l3 1q47 18 87 18q45 0 73.5 -23.5t28.5 -60.5q0 -33 -22.5 -51.5t-63.5 -18.5h-23v-38z" />
<glyph unicode="&#x1ee0;" horiz-adv-x="799" d="M641 592l47 119l108 -9l-105 -167q65 -91 65 -202q0 -146 -103.5 -247t-253.5 -101q-151 0 -253.5 100.5t-102.5 246.5q0 147 103.5 248.5t253.5 101.5q143 0 241 -90zM399 563q-91 0 -156.5 -67t-65.5 -160q0 -97 65 -164.5t158 -67.5q92 0 157 67.5t65 162.5t-65 162 t-158 67zM286 742h-68q8 58 37 92t70 34q30 0 80 -20q50 -18 63 -18q15 0 23.5 7t20.5 30h69q-12 -60 -43 -93.5t-75 -33.5q-23 0 -70 19t-66 19q-27 0 -41 -36z" />
<glyph unicode="&#x1ee1;" horiz-adv-x="565" d="M458 386l44 109l101 -9l-99 -160q26 -46 26 -109q0 -102 -69 -166.5t-178 -64.5q-110 0 -179 64t-69 166t69 166.5t178 64.5q110 0 176 -61zM282 338q-50 0 -86 -35.5t-36 -84.5q0 -52 35.5 -87.5t87.5 -35.5q50 0 86 35.5t36 85.5q0 51 -36 86.5t-87 35.5zM170 523h-69 q9 58 38 91.5t70 33.5q29 0 80 -20q48 -18 63 -18q14 0 23 7.5t20 29.5h69q-11 -59 -42.5 -92.5t-75.5 -33.5q-24 0 -70 19q-48 18 -66 18q-26 0 -40 -35z" />
<glyph unicode="&#x1ee2;" horiz-adv-x="799" d="M641 592l47 119l108 -9l-105 -167q65 -91 65 -202q0 -146 -103.5 -247t-253.5 -101q-151 0 -253.5 100.5t-102.5 246.5q0 147 103.5 248.5t253.5 101.5q143 0 241 -90zM399 563q-91 0 -156.5 -67t-65.5 -160q0 -97 65 -164.5t158 -67.5q92 0 157 67.5t65 162.5t-65 162 t-158 67zM388 -39q33 0 56 -23t23 -55q0 -33 -23 -56t-55 -23q-33 0 -56 23t-23 56q0 32 23 55t55 23z" />
<glyph unicode="&#x1ee3;" horiz-adv-x="565" d="M458 386l44 109l101 -9l-99 -160q26 -46 26 -109q0 -102 -69 -166.5t-178 -64.5q-110 0 -179 64t-69 166t69 166.5t178 64.5q110 0 176 -61zM282 338q-50 0 -86 -35.5t-36 -84.5q0 -52 35.5 -87.5t87.5 -35.5q50 0 86 35.5t36 85.5q0 51 -36 86.5t-87 35.5zM265 -37 q33 0 56 -23t23 -55q0 -33 -23 -56t-55 -23q-33 0 -56 23t-23 56q0 32 23 55t55 23z" />
<glyph unicode="&#x1ee4;" horiz-adv-x="689" d="M207 667v-382q0 -51 4 -74t17 -45q17 -29 48.5 -45.5t68.5 -16.5t68.5 16.5t48.5 45.5q13 22 17 45t4 74v382h130v-408q0 -113 -49 -178q-35 -45 -93 -70.5t-126 -25.5t-126 25.5t-93 70.5q-49 65 -49 178v408h130zM342 -49q33 0 56 -23t23 -55q0 -33 -23 -56t-55 -23 q-33 0 -56 23t-23 56q0 32 23 55t55 23z" />
<glyph unicode="&#x1ee5;" horiz-adv-x="535" d="M179 433v-245q0 -99 89 -99q88 0 88 99v245h121v-265q0 -88 -54 -135t-155 -47t-155.5 47t-54.5 135v265h121zM261 -47q33 0 56 -23t23 -55q0 -33 -23 -56t-55 -23q-33 0 -56 23t-23 56q0 32 23 55t55 23z" />
<glyph unicode="&#x1ee6;" horiz-adv-x="689" d="M207 667v-382q0 -51 4 -74t17 -45q17 -29 48.5 -45.5t68.5 -16.5t68.5 16.5t48.5 45.5q13 22 17 45t4 74v382h130v-408q0 -113 -49 -178q-35 -45 -93 -70.5t-126 -25.5t-126 25.5t-93 70.5q-49 65 -49 178v408h130zM357 744h-53v73q15 3 37 6q29 5 39 11t10 21 q0 35 -46 35q-18 0 -29 -6q-2 -2 -10 -5.5t-13 -6.5q-3 -1 -6 -3l-18 45l6 3l3 1q47 18 87 18q45 0 73.5 -23.5t28.5 -60.5q0 -33 -22.5 -51.5t-63.5 -18.5h-23v-38z" />
<glyph unicode="&#x1ee7;" horiz-adv-x="535" d="M179 433v-245q0 -99 89 -99q88 0 88 99v245h121v-265q0 -88 -54 -135t-155 -47t-155.5 47t-54.5 135v265h121zM278 494h-53v73q27 6 37 6q29 5 39 11t10 21q0 34 -46 34q-18 0 -37 -10q-9 -5 -21 -9l-18 45q58 21 96 21q45 0 73.5 -23.5t28.5 -60.5q0 -33 -22.5 -51.5 t-63.5 -18.5h-23v-38z" />
<glyph unicode="&#x1ee8;" horiz-adv-x="689" d="M207 667v-382q0 -51 4 -74t17 -45q17 -29 48.5 -45.5t68.5 -16.5t68.5 16.5t48.5 45.5q13 22 17 45t4 74v382h130v-408q0 -113 -49 -178q-35 -45 -93 -70.5t-126 -25.5t-126 25.5t-93 70.5q-49 65 -49 178v408h130zM715 716l108 -9l-112 -179l-67 7zM495 842l-167 -114 l-53 49l137 133z" />
<glyph unicode="&#x1ee9;" horiz-adv-x="535" d="M179 433v-245q0 -99 88 -99t88 99v245h121v-265q0 -88 -54 -135t-155 -47t-155 47t-54 135v265h121zM556 472l102 -9l-110 -176l-63 6zM425 644l-150 -135l-58 40l119 151z" />
<glyph unicode="&#x1eea;" horiz-adv-x="689" d="M207 667v-382q0 -51 4 -74t17 -45q17 -29 48.5 -45.5t68.5 -16.5t68.5 16.5t48.5 45.5q13 22 17 45t4 74v382h130v-408q0 -113 -49 -178q-35 -45 -93 -70.5t-126 -25.5t-126 25.5t-93 70.5q-49 65 -49 178v408h130zM715 716l108 -9l-112 -179l-67 7zM195 842l83 68 l137 -133l-53 -49z" />
<glyph unicode="&#x1eeb;" horiz-adv-x="535" d="M179 433v-245q0 -99 88 -99t88 99v245h121v-265q0 -88 -54 -135t-155 -47t-155 47t-54 135v265h121zM556 472l102 -9l-110 -176l-63 6zM110 644l89 56l119 -151l-58 -40z" />
<glyph unicode="&#x1eec;" horiz-adv-x="689" d="M207 667v-382q0 -51 4 -74t17 -45q17 -29 48.5 -45.5t68.5 -16.5t68.5 16.5t48.5 45.5q13 22 17 45t4 74v382h130v-408q0 -113 -49 -178q-35 -45 -93 -70.5t-126 -25.5t-126 25.5t-93 70.5q-49 65 -49 178v408h130zM715 716l108 -9l-112 -179l-67 7zM369 744h-53v73 q15 3 37 6q29 5 39 11t10 21q0 35 -46 35q-18 0 -29 -6q-2 -2 -10 -5.5t-13 -6.5q-3 -1 -6 -3l-18 45l6 3l3 1q47 18 87 18q45 0 73.5 -23.5t28.5 -60.5q0 -33 -22.5 -51.5t-63.5 -18.5h-23v-38z" />
<glyph unicode="&#x1eed;" horiz-adv-x="535" d="M179 433v-245q0 -99 88 -99t88 99v245h121v-265q0 -88 -54 -135t-155 -47t-155 47t-54 135v265h121zM556 472l102 -9l-110 -176l-63 6zM281 492h-53v74q7 1 16 2.5t14.5 2.5t6.5 1q29 4 39 10.5t10 20.5q0 35 -46 35q-18 0 -29 -6q-9 -5 -23 -11q-3 -2 -6 -3l-18 45l6 2 l3 2q44 18 87 18q45 0 73.5 -23.5t28.5 -60.5q0 -34 -22.5 -52.5t-63.5 -18.5h-23v-38z" />
<glyph unicode="&#x1eee;" horiz-adv-x="689" d="M207 667v-382q0 -51 4 -74t17 -45q17 -29 48.5 -45.5t68.5 -16.5t68.5 16.5t48.5 45.5q13 22 17 45t4 74v382h130v-408q0 -113 -49 -178q-35 -45 -93 -70.5t-126 -25.5t-126 25.5t-93 70.5q-49 65 -49 178v408h130zM715 716l108 -9l-112 -179l-67 7zM232 742h-68 q8 58 37 92t70 34q30 0 80 -20q50 -18 63 -18q14 0 23 7.5t20 29.5h70q-12 -60 -43 -93.5t-76 -33.5q-22 0 -69 19q-49 19 -67 19q-26 0 -40 -36z" />
<glyph unicode="&#x1eef;" horiz-adv-x="535" d="M179 433v-245q0 -99 88 -99t88 99v245h121v-265q0 -88 -54 -135t-155 -47t-155 47t-54 135v265h121zM556 472l102 -9l-110 -176l-63 6zM154 523h-68q8 58 37.5 91.5t70.5 33.5q29 0 79 -20q49 -18 63 -18q15 0 23.5 7t20.5 30h69q-11 -59 -42.5 -92.5t-75.5 -33.5 q-25 0 -70 19q-48 18 -66 18q-26 0 -41 -35z" />
<glyph unicode="&#x1ef0;" horiz-adv-x="689" d="M207 667v-382q0 -51 4 -74t17 -45q17 -29 48.5 -45.5t68.5 -16.5t68.5 16.5t48.5 45.5q13 22 17 45t4 74v382h130v-408q0 -113 -49 -178q-35 -45 -93 -70.5t-126 -25.5t-126 25.5t-93 70.5q-49 65 -49 178v408h130zM715 716l108 -9l-112 -179l-67 7zM334 -41q33 0 56 -23 t23 -55q0 -33 -23 -56t-55 -23q-33 0 -56 23t-23 56q0 32 23 55t55 23z" />
<glyph unicode="&#x1ef1;" horiz-adv-x="535" d="M179 433v-245q0 -99 88 -99t88 99v245h121v-265q0 -88 -54 -135t-155 -47t-155 47t-54 135v265h121zM556 472l102 -9l-110 -176l-63 6zM262 -37q33 0 56 -23t23 -55q0 -33 -23 -56t-55 -23q-33 0 -56 23t-23 56q0 32 23 55t55 23z" />
<glyph unicode="&#x1ef2;" horiz-adv-x="583" d="M225 306l-230 361h154l144 -232l141 232h155l-234 -361v-306h-130v306zM161 842l83 68l137 -133l-53 -49z" />
<glyph unicode="&#x1ef3;" horiz-adv-x="535" d="M206 66l-205 367h141l130 -246l123 246h139l-350 -664h-137zM129 644l88 56l120 -151l-58 -40z" />
<glyph unicode="&#x1ef4;" horiz-adv-x="583" d="M225 306l-230 361h154l144 -232l141 232h155l-234 -361v-306h-130v306zM277 -31q33 0 56 -23t23 -55q0 -33 -23 -56t-55 -23q-33 0 -56 23t-23 56q0 32 23 55t55 23z" />
<glyph unicode="&#x1ef5;" horiz-adv-x="535" d="M206 66l-205 367h141l130 -246l123 246h139l-350 -664h-137zM353 -75q33 0 56 -23t23 -55q0 -33 -23 -56t-55 -23q-33 0 -56 23t-23 56q0 32 23 55t55 23z" />
<glyph unicode="&#x1ef6;" horiz-adv-x="583" d="M225 306l-230 361h154l144 -232l141 232h155l-234 -361v-306h-130v306zM300 746h-53v73q15 3 37 6q29 5 39 11t10 21q0 35 -46 35q-18 0 -29 -6q-3 -2 -10.5 -5.5t-12.5 -6.5q-3 -1 -6 -3l-18 45l6 3l3 1q46 18 87 18q45 0 73.5 -23.5t28.5 -60.5q0 -33 -22.5 -51.5 t-63.5 -18.5h-23v-38z" />
<glyph unicode="&#x1ef7;" horiz-adv-x="535" d="M206 66l-205 367h141l130 -246l123 246h139l-350 -664h-137zM275 496h-53v73q15 3 37 6q29 5 39 11t10 21q0 35 -46 35q-18 0 -29 -6q-3 -1 -10.5 -5t-12.5 -7q-3 -1 -6 -3l-18 45l6 3l3 1q47 18 87 18q45 0 73.5 -23.5t28.5 -60.5q0 -33 -22.5 -51.5t-63.5 -18.5h-23 v-38z" />
<glyph unicode="&#x1ef8;" horiz-adv-x="583" d="M225 306l-230 361h154l144 -232l141 232h155l-234 -361v-306h-130v306zM179 742h-68q8 58 37 92t70 34q30 0 80 -20q50 -18 63 -18q14 0 23 7.5t20 29.5h69q-11 -60 -42 -93.5t-76 -33.5q-22 0 -69 19q-49 19 -67 19q-26 0 -40 -36z" />
<glyph unicode="&#x1ef9;" horiz-adv-x="535" d="M206 66l-205 367h141l130 -246l123 246h139l-350 -664h-137zM154 523h-68q8 58 37 91.5t70 33.5q30 0 80 -20q49 -18 63 -18t23 7.5t21 29.5h69q-11 -59 -42.5 -92.5t-75.5 -33.5q-25 0 -70 19q-48 18 -66 18q-26 0 -41 -35z" />
<glyph unicode="&#x2011;" horiz-adv-x="225" d="M0 280h225v-101h-225v101z" />
<glyph unicode="&#x2012;" d="M75 280h416v-101h-416v101z" />
<glyph unicode="&#x2013;" d="M75 280h416v-101h-416v101z" />
<glyph unicode="&#x2014;" horiz-adv-x="673" d="M0 280h673v-101h-673v101z" />
<glyph unicode="&#x2015;" horiz-adv-x="673" d="M0 280h673v-101h-673v101z" />
<glyph unicode="&#x2017;" horiz-adv-x="500" d="M0 -46h500v-80h-500v80zM0 -163h500v-80h-500v80z" />
<glyph unicode="&#x2018;" horiz-adv-x="305" d="M154 401l-111 13l141 266l77 -10z" />
<glyph unicode="&#x2019;" horiz-adv-x="291" d="M130 680l111 -13l-141 -266l-77 10z" />
<glyph unicode="&#x201a;" horiz-adv-x="291" d="M130 138l111 -13l-141 -265l-77 9z" />
<glyph unicode="&#x201b;" horiz-adv-x="500" d="M235 511l-72 178l64 7l109 -176z" />
<glyph unicode="&#x201c;" horiz-adv-x="493" d="M343 401l-112 13l141 266l77 -10zM154 401l-111 13l141 266l77 -10z" />
<glyph unicode="&#x201d;" horiz-adv-x="493" d="M150 680l111 -13l-141 -266l-77 10zM338 680l111 -13l-141 -266l-77 10z" />
<glyph unicode="&#x201e;" horiz-adv-x="493" d="M150 138l111 -13l-141 -265l-77 9zM338 138l111 -13l-141 -265l-77 9z" />
<glyph unicode="&#x2020;" d="M226 749h115v-160h158v-103h-158v-646h-115v646h-158v103h158v160z" />
<glyph unicode="&#x2021;" d="M226 729h115v-160h158v-103h-158v-214h158v-103h-158v-329h-115v329h-158v103h158v214h-158v103h158v160z" />
<glyph unicode="&#x2022;" horiz-adv-x="667" d="M336 479q55 0 95 -41t40 -98q0 -58 -40 -99t-97 -41t-97.5 41t-40.5 98q0 59 41 99.5t99 40.5z" />
<glyph unicode="&#x2026;" horiz-adv-x="849" d="M141 143q33 0 56 -23t23 -55q0 -33 -23 -56t-55 -23q-33 0 -56 23t-23 56q0 32 23 55t55 23zM424 143q33 0 56 -23t23 -55q0 -33 -23 -56t-55 -23q-33 0 -56 23t-23 56q0 32 23 55t55 23zM707 143q33 0 56 -23t23 -55q0 -33 -23 -56t-55 -23q-33 0 -56 23t-23 56 q0 32 23 55t55 23z" />
<glyph unicode="&#x2030;" horiz-adv-x="1169" d="M200 675q73 0 121 -44.5t48 -112.5q0 -69 -48.5 -114t-122.5 -45q-73 0 -120.5 45t-47.5 115q0 67 48.5 111.5t121.5 44.5zM199 603q-35 0 -60.5 -25t-25.5 -60q0 -37 25.5 -62.5t61.5 -25.5q35 0 60.5 25.5t25.5 61.5q0 35 -25.5 60.5t-61.5 25.5zM559 689l53 -30 l-397 -687l-53 31zM577 305q72 0 120 -45t48 -112q0 -68 -48.5 -113t-121.5 -45t-120.5 45t-47.5 115q0 66 48.5 110.5t121.5 44.5zM576 234q-35 0 -60.5 -25t-25.5 -60q0 -37 25 -62.5t61 -25.5q35 0 60.5 25.5t25.5 61.5q0 35 -25 60.5t-61 25.5zM970 305q73 0 121 -44.5 t48 -112.5t-48.5 -113t-122.5 -45q-73 0 -120.5 45t-47.5 115q0 66 48.5 110.5t121.5 44.5zM969 234q-35 0 -60.5 -25t-25.5 -60q0 -37 25 -62.5t62 -25.5q35 0 60.5 25.5t25.5 61.5q0 35 -25.5 60.5t-61.5 25.5z" />
<glyph unicode="&#x2039;" horiz-adv-x="317" d="M145 217l122 -161l-71 -51l-156 212l156 214l70 -49z" />
<glyph unicode="&#x203a;" horiz-adv-x="317" d="M173 217l-122 165l70 49l156 -214l-156 -212l-71 51z" />
<glyph unicode="&#x203e;" horiz-adv-x="500" d="M0 893h500v-117h-500v117z" />
<glyph unicode="&#x2044;" horiz-adv-x="143" d="M244 689l53 -30l-397 -687l-53 31z" />
<glyph unicode="&#x20a3;" horiz-adv-x="700" d="M437 554h-223v-148h209v-113h-209v-293h-130v667h353v-113zM468 310h98v-46q31 58 88 58q18 0 41 -11l-12 -85q-20 11 -43 11q-74 0 -74 -91v-146h-98v310z" />
<glyph unicode="&#x20a4;" d="M49 179v71h111q-10 18 -17 30q-16 24 -21 33h-73v71h39q-14 43 -14 78q0 41 18 82.5t49 71.5q69 66 181 66q105 0 163 -60.5t60 -171.5l-131 -14q3 22 3 29q0 44 -29.5 73t-75.5 29t-77 -32t-31 -79q0 -30 15 -72h176v-71h-143q12 -31 20 -63h123v-71h-118 q-2 -26 -11 -50q17 -5 68 -22q55 -17 77 -17q42 0 60 53l88 -20q-21 -73 -57 -105.5t-96 -32.5q-38 0 -117 26q-78 25 -109 25q-49 0 -68 -45l-94 17q25 65 60 96t85 34q8 20 11 41h-125z" />
<glyph unicode="&#x20a7;" horiz-adv-x="1008" d="M207 247v-247h-130v667h195q65 0 104.5 -11.5t71.5 -39.5q68 -62 68 -161q0 -90 -54 -149q-56 -59 -171 -59h-84zM207 360h53q122 0 122 96q0 51 -34 77q-28 21 -96 21h-45v-194zM668 223v-223h-98v223h-34v87h34v96h98v-96h60v-87h-60zM977 282l-46 -53q-26 22 -50 22 q-14 0 -22.5 -7t-8.5 -17t9.5 -16.5t40.5 -16.5q53 -17 74 -38t21 -57q0 -49 -38 -80.5t-96 -31.5q-71 0 -118 50l48 56q33 -36 71 -36q16 0 26.5 9.5t10.5 23.5q0 13 -9 20t-38 18q-41 13 -59 26q-30 22 -30 64q0 44 31 72t80 28q60 0 103 -36z" />
<glyph unicode="&#x20ab;" horiz-adv-x="569" d="M390 749h121v-93h53v-93h-53v-563h-121v56q-56 -70 -142 -70q-91 0 -152 66t-61 165q0 97 61 163.5t150 66.5q84 0 144 -70v186h-120v93h120v93zM282 338q-51 0 -86.5 -35.5t-35.5 -85.5q0 -51 36 -86.5t86 -35.5q49 0 85 35.5t36 84.5q0 52 -35 87.5t-86 35.5zM50 -46 h482v-117h-482v117z" />
<glyph unicode="&#x20ac;" horiz-adv-x="584" d="M36 431h54q36 115 127 184t206 69q59 0 131 -24v-120q-66 31 -130 31q-66 0 -122 -38t-83 -102h289l-49 -77h-259v-6v-16l-1 -18q0 -10 2 -18h223l-49 -77h-150q28 -56 83.5 -91t117.5 -35q63 0 128 31v-117q-68 -25 -130 -25q-111 0 -203.5 66.5t-127.5 170.5h-106 l49 77h41q-1 8 -1 19v1v38h-89z" />
<glyph unicode="&#x2101;" horiz-adv-x="902" d="M300 350h-156l-35 -83h-89l174 408h60l170 -408h-90zM274 419l-50 129l-53 -129h103zM697 689l53 -30l-397 -687l-53 31zM856 360l-45 -57q-29 33 -64 33q-22 0 -37 -11.5t-15 -28.5q0 -15 12.5 -25.5t45.5 -21.5q66 -23 91 -50t25 -74q0 -59 -39 -96.5t-101 -37.5 q-85 0 -137 80l50 51q33 -57 86 -57q23 0 39 15t16 37t-14 33.5t-60 27.5q-53 19 -76 44.5t-23 65.5q0 50 36 84.5t89 34.5q71 0 121 -47z" />
<glyph unicode="&#x2105;" horiz-adv-x="982" d="M375 688v-120q-48 37 -98 37q-54 0 -89.5 -34.5t-35.5 -87.5q0 -52 35.5 -86.5t89.5 -34.5q52 0 98 36v-119q-55 -26 -111 -26q-101 0 -169 65.5t-68 162.5q0 99 68.5 166t169.5 67q59 0 110 -26zM717 447q109 0 177.5 -64t68.5 -166q0 -103 -69.5 -167t-180.5 -64 q-109 0 -177 65t-68 169q0 99 70 163t179 64zM715 338q-50 0 -86 -35.5t-36 -84.5q0 -52 35.5 -87.5t87.5 -35.5q50 0 86 35.5t36 85.5q0 51 -36 86.5t-87 35.5zM554 689l58 -30l-276 -687l-58 31z" />
<glyph unicode="&#x2113;" horiz-adv-x="500" d="M262 266l-13 -69q-15 -75 -15 -112q0 -30 15 -30q19 0 41 48q9 20 22 20q18 0 18 -21q0 -44 -35 -80t-77 -36q-40 0 -59 33.5t-19 105.5q0 3 2 55l-6 -6q-3 -5 -8 -8q-10 -12 -19 -12q-8 0 -13.5 8t-5.5 18q0 13 14 27q33 36 46 53q34 182 80 292q53 125 129 125 q35 0 56.5 -25.5t21.5 -68.5q0 -86 -68 -191q-24 -37 -107 -126zM277 358q47 53 74 111t27 104q0 40 -18 40q-17 0 -31 -39q-28 -84 -52 -216z" />
<glyph unicode="&#x2116;" horiz-adv-x="1109" d="M77 0v669h106l389 -474v472h124v-672h-106l-389 462v-457h-124zM945 476q72 0 118 -42.5t46 -109.5t-46 -110t-118 -43q-73 0 -118.5 43t-45.5 112q0 65 46.5 107.5t117.5 42.5zM945 398q-33 0 -54 -20.5t-21 -52.5q0 -34 21 -55t53 -21q34 0 55 21t21 54q0 32 -21 53 t-54 21zM780 44v87h329v-87h-329z" />
<glyph unicode="&#x2117;" horiz-adv-x="760" d="M369 281v-148h-94v400h127q74 0 113.5 -32t39.5 -93q0 -74 -52 -102q-44 -25 -104 -25h-30zM369 355h17q73 0 73 52t-72 52h-18v-104zM385 682q140 0 240.5 -103t100.5 -246q0 -144 -101.5 -246t-244.5 -102t-245 102t-102 246q0 146 102 247.5t250 101.5zM384 619 q-118 0 -200 -83t-82 -203q0 -118 81.5 -202t196.5 -84q114 0 195 84t81 202q0 117 -80.5 201.5t-191.5 84.5z" />
<glyph unicode="&#x2122;" horiz-adv-x="721" d="M164 592v-305h-85v305h-82v75h249v-75h-82zM260 287l68 387h62l93 -231l98 231h62l61 -387h-85l-29 209l-91 -214h-33l-88 214l-33 -209h-85z" />
<glyph unicode="&#x2126;" horiz-adv-x="667" d="M28 0v117h137q-58 36 -86 74q-51 67 -51 175q0 137 86.5 227t218.5 90t218.5 -89.5t86.5 -226.5q0 -88 -31.5 -146t-104.5 -104h136v-117h-270v104q56 32 84 71q50 69 50 177q0 82 -36 138q-52 76 -133 76q-69 0 -119 -58q-50 -59 -50 -156q0 -89 32.5 -148.5 t102.5 -99.5v-104h-271z" />
<glyph unicode="&#x212e;" horiz-adv-x="597" d="M531 250h-373l-1 -105q16 -52 40 -72q38 -35 107 -35q120 0 168 104h44q-46 -148 -213 -148q-109 0 -170.5 69t-61.5 191q0 123 63 195.5t170 72.5q72 0 126.5 -34t79.5 -94q18 -47 21 -144zM458 285v93q-8 24 -23 41q-50 59 -131 59q-54 0 -86.5 -22.5t-57.5 -77.5v-93 h298z" />
<glyph unicode="&#x2202;" horiz-adv-x="500" d="M56 552l16 113q188 -21 288 -107q127 -109 127 -289q0 -126 -67 -202t-179 -76q-97 0 -164.5 67t-67.5 162q0 90 59.5 151t147.5 61q74 0 121 -45q-29 69 -103 113t-178 52zM244 323q-44 0 -72.5 -30t-28.5 -76q0 -47 29 -78t72 -31q44 0 73 31t29 77t-29 76.5t-73 30.5z " />
<glyph unicode="&#x2205;" horiz-adv-x="618" d="M439 667l48 -25l-48 -88q113 -80 113 -204q0 -102 -72 -172.5t-176 -70.5q-46 0 -79 16l-63 -123l-48 25l61 122q-108 80 -108 202q0 102 71 172.5t173 70.5q39 0 81 -14zM416 502l-165 -330q32 -8 58 -8q77 0 132 54.5t55 130.5q0 47 -21.5 89t-58.5 64zM200 198 l166 329q-28 8 -54 8q-78 0 -133.5 -54.5t-55.5 -130.5q0 -90 77 -152z" />
<glyph unicode="&#x2206;" horiz-adv-x="667" d="M16 0l244 667h141l249 -667h-634zM202 118h259l-130 391z" />
<glyph unicode="&#x220f;" horiz-adv-x="733" d="M40 750h653v-117h-82v-606h82v-117h-293v117h79v606h-225v-606h78v-117h-292v117h83v606h-83v117z" />
<glyph unicode="&#x2211;" horiz-adv-x="667" d="M620 750v-247h-116l-14 130h-322l249 -286l-249 -320h331l8 133h123v-250h-609v130l244 307l-244 273v130h599z" />
<glyph unicode="&#x2212;" d="M60 373h447v-80h-447v80z" />
<glyph unicode="&#x2218;" horiz-adv-x="500" d="M253 479q55 0 95 -41t40 -98q0 -58 -40 -99t-97 -41t-97.5 41t-40.5 98q0 59 40.5 99.5t99.5 40.5zM252 431q-38 0 -65 -26.5t-27 -65.5q0 -37 27 -64t64 -27t63.5 26.5t26.5 64.5q0 37 -26.5 64.5t-62.5 27.5z" />
<glyph unicode="&#x2219;" horiz-adv-x="250" d="M125 302q33 0 56 -23t23 -55q0 -33 -23 -56t-55 -23q-33 0 -56 23t-23 56q0 32 23 55t55 23z" />
<glyph unicode="&#x221a;" horiz-adv-x="667" d="M667 827v-117h-178l-165 -710h-173l-57 270h-94v117h202l18 -85q13 -75 13 -145h11q2 45 15 135.5t28 154.5l88 380h292z" />
<glyph unicode="&#x221e;" horiz-adv-x="667" d="M337 255q-73 -79 -157 -79q-71 0 -117 46t-46 117t45.5 117t116.5 46q80 0 152 -78q69 78 155 78q72 0 118 -45.5t46 -116.5q0 -72 -45.5 -118t-116.5 -46q-81 0 -151 79zM398 339q35 -46 68 -46q21 0 35.5 13.5t14.5 32.5t-14.5 32.5t-35.5 13.5q-34 0 -68 -46zM270 339 q-35 46 -69 46q-21 0 -35.5 -13.5t-14.5 -32.5t14.5 -32.5t35.5 -13.5q35 0 69 46z" />
<glyph unicode="&#x222b;" horiz-adv-x="500" d="M46 -239l24 115q33 -10 56 -10q57 0 57 72v18v44v476q0 125 11 167q14 50 58.5 79t108.5 29q33 0 92 -11l-24 -116q-32 11 -56 11q-57 0 -57 -72v-62v-67v-409q0 -102 -4 -136.5t-20 -60.5q-44 -78 -152 -78q-40 0 -94 11z" />
<glyph unicode="&#x223c;" horiz-adv-x="500" d="M78 233l-71 47q32 78 65.5 108.5t86.5 30.5q33 0 103 -26q64 -24 87 -24q24 0 39 10.5t32 41.5l74 -43q-38 -79 -74 -106q-40 -28 -85 -28q-28 0 -103 28q-61 22 -81 22q-25 0 -44 -17q-11 -9 -29 -44z" />
<glyph unicode="&#x2243;" horiz-adv-x="500" d="M78 340l-71 47q33 79 65.5 109t86.5 30q33 0 103 -26q64 -24 86 -24q25 0 40 10.5t32 41.5l74 -43q-23 -47 -38 -69t-36 -37q-40 -28 -85 -28q-28 0 -103 28q-61 22 -81 22q-25 0 -39.5 -12t-33.5 -49zM33 298h434v-117h-434v117z" />
<glyph unicode="&#x2248;" horiz-adv-x="500" d="M78 340l-71 47q33 79 65.5 109t86.5 30q33 0 103 -26q64 -24 86 -24q25 0 40 10.5t32 41.5l74 -43q-23 -47 -38 -69t-36 -37q-40 -28 -85 -28q-28 0 -103 28q-61 22 -81 22q-25 0 -39.5 -12t-33.5 -49zM78 137l-71 46q32 79 65.5 109.5t86.5 30.5q31 0 103 -26 q65 -24 87 -24q24 0 39 11t32 40l74 -42q-23 -47 -38 -69t-36 -37q-40 -28 -85 -28q-28 0 -103 28q-61 22 -81 22q-25 0 -39.5 -12t-33.5 -49z" />
<glyph unicode="&#x2260;" horiz-adv-x="500" d="M261 470l55 108l82 -43l-34 -65h102v-117h-155l-33 -66h188v-117h-241l-49 -96l-82 42l28 54h-89v117h141l35 66h-176v117h228z" />
<glyph unicode="&#x2264;" horiz-adv-x="500" d="M466 670v-122l-296 -141l295 -140l1 -122l-433 208v109zM466 117v-117h-433v117h433z" />
<glyph unicode="&#x2265;" horiz-adv-x="500" d="M33 145v122l296 141l-295 140l-1 122l433 -208v-109zM33 0v117h433v-117h-433z" />
<glyph unicode="&#xe000;" horiz-adv-x="435" d="M0 435h435v-435h-435v435z" />
<glyph unicode="&#xf6be;" horiz-adv-x="234" d="M178 433v-664h-121v664h121z" />
</font>
</defs>
</svg>
