<?xml version="1.0" standalone="no"?>
<!DOCTYPE svg PUBLIC "-//W3C//DTD SVG 1.1//EN" "http://www.w3.org/Graphics/SVG/1.1/DTD/svg11.dtd" >
<svg xmlns="http://www.w3.org/2000/svg">
<metadata></metadata>
<defs>
<font id="louis_vuittonregular_oblique" horiz-adv-x="500" >
<font-face units-per-em="1000" ascent="729" descent="-271" />
<missing-glyph horiz-adv-x="250" />
<glyph unicode="ff" horiz-adv-x="458" d="M153 345l-43 -345h-70l43 345h-55l8 63h54l24 196q10 75 41 105q31 29 78 29q28 0 62 -16l-8 -64q-23 16 -45 16q-28 0 -41 -19.5t-19 -70.5l-22 -176h71l-8 -63h-70zM383 345l-43 -345h-70l43 345h-55l8 63h54l24 196q10 75 41 105q31 29 78 29q28 0 62 -16l-8 -64 q-23 16 -45 16q-28 0 -41 -19.5t-19 -70.5l-22 -176h81l-8 -63h-80z" />
<glyph unicode="fi" horiz-adv-x="436" d="M153 345l-43 -345h-70l43 345h-55l8 63h54l24 196q10 75 41 105q31 29 78 29q28 0 62 -16l-8 -64q-23 16 -45 16q-28 0 -41 -19.5t-19 -70.5l-22 -176h81l-8 -63h-80zM378 624q17 0 29.5 -12.5t12.5 -30.5t-13 -31.5t-31 -13.5q-17 0 -29 12.5t-12 30.5q0 19 13 32t30 13 zM390 404l-50 -404h-70l50 404h70z" />
<glyph unicode="fl" horiz-adv-x="436" d="M153 345l-43 -345h-70l43 345h-55l8 63h54l24 196q10 75 41 105q31 29 78 29q28 0 62 -16l-8 -64q-23 16 -45 16q-28 0 -41 -19.5t-19 -70.5l-22 -176h81l-8 -63h-80zM430 729l-90 -729h-70l90 729h70z" />
<glyph unicode="ffi" horiz-adv-x="666" d="M153 345l-43 -345h-70l43 345h-55l8 63h54l24 196q10 75 41 105q31 29 78 29q28 0 62 -16l-8 -64q-23 16 -45 16q-28 0 -41 -19.5t-19 -70.5l-22 -176h71l-8 -63h-70zM383 345l-43 -345h-70l43 345h-55l8 63h54l24 196q10 75 41 105q31 29 78 29q28 0 62 -16l-8 -64 q-23 16 -45 16q-28 0 -41 -19.5t-19 -70.5l-22 -176h81l-8 -63h-80zM608 624q17 0 29.5 -12.5t12.5 -30.5t-13 -31.5t-31 -13.5q-17 0 -29 12.5t-12 30.5q0 19 13 32t30 13zM620 404l-50 -404h-70l50 404h70z" />
<glyph unicode="ffl" horiz-adv-x="666" d="M153 345l-43 -345h-70l43 345h-55l8 63h54l24 196q10 75 41 105q31 29 78 29q28 0 62 -16l-8 -64q-23 16 -45 16q-28 0 -41 -19.5t-19 -70.5l-22 -176h71l-8 -63h-70zM383 345l-43 -345h-70l43 345h-55l8 63h54l24 196q10 75 41 105q31 29 78 29q28 0 62 -16l-8 -64 q-23 16 -45 16q-28 0 -41 -19.5t-19 -70.5l-22 -176h81l-8 -63h-80zM660 729l-90 -729h-70l90 729h70z" />
<glyph unicode=" "  horiz-adv-x="250" />
<glyph unicode="&#x09;" horiz-adv-x="250" />
<glyph unicode="&#xa0;" horiz-adv-x="250" />
<glyph unicode="!" horiz-adv-x="267" d="M112 88q20 0 33 -14t13 -35q0 -19 -14 -33t-33 -14q-20 0 -33.5 14t-13.5 34t14 34t34 14zM224 672l-64 -520h-73l64 520h73z" />
<glyph unicode="&#x22;" horiz-adv-x="327" d="M139 399h-52l20 268h78zM282 399h-52l20 268h78z" />
<glyph unicode="#" horiz-adv-x="547" d="M543 471l-7 -60h-106l-26 -139h103l-8 -60h-106l-40 -215l-62 9l38 206h-128l-40 -215l-62 9l39 206h-107l7 60h111l26 139h-107l8 60h110l37 201l62 -8l-36 -193h127l38 201l62 -8l-36 -193h103zM365 411h-127l-26 -139h128z" />
<glyph unicode="$" horiz-adv-x="567" d="M216 -107l12 98q-118 21 -167 139l58 34q35 -97 117 -109l33 269q-43 25 -67 45q-65 53 -65 135q0 73 47 119.5t128 54.5l10 83h52l-11 -86q85 -16 131 -102l-50 -42q-22 36 -41.5 54t-47.5 25l-29 -240q33 -19 56 -35q81 -59 81 -155q0 -51 -23 -94t-64 -68 q-40 -22 -97 -29l-12 -96h-51zM278 400l26 212q-38 -10 -53 -21q-42 -32 -42 -85q0 -60 69 -106zM317 294l-30 -238q50 10 77 42.5t27 83.5q0 35 -16 59.5t-58 52.5z" />
<glyph unicode="%" horiz-adv-x="733" d="M203 676q51 0 83 -41.5t32 -108.5q0 -82 -39.5 -138t-98.5 -56q-53 0 -84.5 41.5t-31.5 110.5q0 81 40 136.5t99 55.5zM201 628q-36 0 -61.5 -43.5t-25.5 -105.5q0 -44 18.5 -71.5t47.5 -27.5q36 0 62 43.5t26 103.5q0 46 -18 73.5t-49 27.5zM117 16l489 661l35 -27 l-490 -660zM578 335q52 0 84 -41.5t32 -108.5q0 -82 -39.5 -138t-98.5 -56q-53 0 -85 41.5t-32 110.5q0 81 40 136.5t99 55.5zM577 287q-36 0 -62 -44t-26 -105q0 -44 18.5 -71.5t48.5 -27.5q36 0 62 43.5t26 103.5q0 46 -18 73.5t-49 27.5z" />
<glyph unicode="&#x26;" horiz-adv-x="600" d="M484 128l80 -128h-89l-49 80q-51 -38 -65 -47q-61 -43 -126 -43q-74 0 -128 54.5t-54 128.5q0 58 38.5 107t136.5 117q-48 85 -48 139q0 61 40.5 100.5t102.5 39.5q61 0 100 -37.5t39 -95.5q0 -45 -31 -83.5t-102 -81.5l115 -189l93 79l48 -57zM291 437q55 34 77.5 59 t22.5 51q0 29 -18.5 47t-46.5 18q-30 0 -51 -22.5t-21 -55.5q0 -31 37 -97zM387 140l-122 199q-82 -60 -110 -93.5t-28 -72.5q0 -47 32 -80t78 -33q31 0 61.5 16.5t88.5 63.5z" />
<glyph unicode="'" horiz-adv-x="185" d="M139 399h-52l20 268h78z" />
<glyph unicode="(" horiz-adv-x="298" d="M190 -162l-62 -25q-48 155 -48 343q0 297 155 577l58 -32q-142 -274 -142 -550q0 -160 39 -313z" />
<glyph unicode=")" horiz-adv-x="298" d="M119 709l62 24q48 -155 48 -342q0 -297 -155 -578l-58 33q142 275 142 550q0 156 -39 313z" />
<glyph unicode="*" horiz-adv-x="567" d="M300 610l10 124l69 -9l-20 -122l120 29l13 -68l-122 -19l64 -105l-60 -34l-56 111l-80 -94l-51 47l88 87l-114 48l29 62z" />
<glyph unicode="+" horiz-adv-x="567" d="M61 310v60h205v198h61v-198h205v-60h-205v-200h-61v200h-205z" />
<glyph unicode="," horiz-adv-x="240" d="M146 91l-138 -226l-46 25l124 234z" />
<glyph unicode="-" horiz-adv-x="181" d="M182 241l-7 -62h-181l8 62h180z" />
<glyph unicode="." horiz-adv-x="240" d="M96 87q20 0 34 -14t14 -34q0 -19 -14.5 -33t-33.5 -14t-32.5 14t-13.5 34t13.5 33.5t32.5 13.5z" />
<glyph unicode="/" horiz-adv-x="389" d="M-22 -154l389 887l58 -22l-390 -891z" />
<glyph unicode="0" horiz-adv-x="567" d="M321 678q94 0 153 -83.5t59 -214.5q0 -151 -74 -273q-34 -55 -84.5 -86.5t-104.5 -31.5q-94 0 -153.5 83.5t-59.5 215.5q0 161 77.5 275.5t186.5 114.5zM321 610q-76 0 -133.5 -98.5t-57.5 -227.5q0 -98 39.5 -162.5t99.5 -64.5q76 0 133.5 97.5t57.5 227.5 q0 100 -39 164t-100 64z" />
<glyph unicode="1" horiz-adv-x="567" d="M381 667l-81 -667h-74l74 599h-116l39 68h158z" />
<glyph unicode="2" horiz-adv-x="567" d="M462 68l-8 -68h-423l270 286q77 82 99 117.5t22 81.5q0 56 -34 90.5t-89 34.5q-126 0 -138 -155h-70q7 91 39 137q59 86 171 86q86 0 140 -53.5t54 -138.5q0 -56 -25.5 -102.5t-98.5 -122.5l-185 -193h276z" />
<glyph unicode="3" horiz-adv-x="567" d="M58 168h68q8 -111 122 -111q60 0 98.5 39t38.5 100q0 58 -32 87t-100 34l8 64q9 -1 25 -1q52 0 83 34t31 91q0 48 -29.5 76.5t-78.5 28.5q-94 0 -106 -107h-67q9 71 36 107q51 68 144 68q79 0 126.5 -47.5t47.5 -125.5q0 -61 -42 -111q-27 -30 -75 -48q102 -43 102 -153 q0 -89 -59.5 -146.5t-151.5 -57.5q-85 0 -135.5 48t-53.5 131z" />
<glyph unicode="4" horiz-adv-x="567" d="M407 123l-15 -123h-73l15 123h-318l464 591l-65 -526h75l-8 -65h-75zM342 188l38 308l-237 -308h199z" />
<glyph unicode="5" horiz-adv-x="567" d="M502 667l-9 -68h-210l-57 -158q36 7 58 7q90 0 145 -59t55 -156q0 -107 -69 -175.5t-176 -68.5q-74 0 -123.5 34.5t-82.5 110.5l60 29q26 -56 60.5 -81t87.5 -25q74 0 122 50t48 127q0 69 -41 110.5t-111 41.5q-30 0 -55.5 -7t-78.5 -29l110 317h267z" />
<glyph unicode="6" horiz-adv-x="567" d="M407 649l-175 -221q45 17 88 17q83 0 137.5 -58t54.5 -147q0 -105 -70 -178t-170 -73q-93 0 -155 63t-62 157q0 96 99 226l199 258zM296 383q-71 0 -119.5 -50t-48.5 -123q0 -68 41 -110.5t105 -42.5q68 0 116.5 51t48.5 124q0 66 -40.5 108.5t-102.5 42.5z" />
<glyph unicode="7" horiz-adv-x="567" d="M575 667l-449 -682l-60 38l380 576h-343l9 68h463z" />
<glyph unicode="8" horiz-adv-x="567" d="M385 349q40 -21 57 -42q41 -47 41 -119q0 -86 -59 -142.5t-149 -56.5q-87 0 -144 52.5t-57 132.5q0 131 138 184q-85 56 -85 143q0 76 55 126.5t138 50.5q79 0 129.5 -47.5t50.5 -122.5q0 -64 -40 -109q-23 -26 -75 -50zM318 610q-50 0 -84 -33.5t-34 -82.5 q0 -44 31.5 -75.5t76.5 -31.5q50 0 84.5 34t34.5 83q0 46 -31 76t-78 30zM285 315q-59 0 -98.5 -39t-39.5 -97q0 -53 36 -87.5t91 -34.5q58 0 97 38.5t39 95.5q0 55 -35 89.5t-90 34.5z" />
<glyph unicode="9" horiz-adv-x="567" d="M177 19l173 219q-44 -18 -81 -18q-88 0 -143 57t-55 148q0 104 71 178.5t171 74.5q92 0 153.5 -63t61.5 -157q0 -53 -22 -104t-77 -122l-198 -256zM311 610q-69 0 -118 -54t-49 -129q0 -63 40 -104t102 -41q71 0 120 50t49 122q0 67 -41 111.5t-103 44.5z" />
<glyph unicode=":" horiz-adv-x="240" d="M96 87q20 0 34 -14t14 -34q0 -19 -14.5 -33t-33.5 -14t-32.5 14t-13.5 34t13.5 33.5t32.5 13.5zM137 422q20 0 34 -14t14 -34q0 -19 -14.5 -33t-33.5 -14t-32.5 14t-13.5 34t13.5 33.5t32.5 13.5z" />
<glyph unicode=";" horiz-adv-x="240" d="M130 423q20 0 34 -14t14 -34q0 -19 -14.5 -33t-33.5 -14t-32.5 14t-13.5 34t13 33.5t33 13.5zM146 91l-138 -226l-46 25l124 234z" />
<glyph unicode="&#x3c;" d="M478 573v-75l-353 -161l353 -162v-74l-433 203v65z" />
<glyph unicode="=" horiz-adv-x="567" d="M62 370v60h471v-60h-471zM62 250v60h471v-60h-471z" />
<glyph unicode="&#x3e;" d="M46 101v74l353 162l-353 161v75l433 -204v-65z" />
<glyph unicode="?" horiz-adv-x="452" d="M209 87q19 0 32.5 -14t13.5 -34q0 -19 -13.5 -33t-32.5 -14q-20 0 -34 13.5t-14 33.5t14 34t34 14zM316 283h71q-5 -59 -30 -90q-42 -54 -115 -54q-62 0 -103.5 39.5t-41.5 98.5q0 56 35.5 93.5t116.5 66.5q39 15 55.5 23.5t28.5 23.5q19 20 19 51q0 37 -25.5 61 t-64.5 24q-55 0 -78 -44q-13 -23 -13 -76h-69q1 86 32 125q45 57 129 57q71 0 116 -41t45 -107q0 -55 -34 -94q-29 -33 -99 -58q-71 -25 -94 -46q-28 -25 -28 -62q0 -32 20.5 -51.5t53.5 -19.5q67 0 73 80z" />
<glyph unicode="@" horiz-adv-x="720" d="M558 508l-27 -227q-3 -24 -3 -45q0 -34 29 -34q35 0 64 53.5t29 119.5q0 108 -73 177t-187 69q-120 0 -202 -83t-82 -204q0 -79 37 -145.5t102 -103.5q65 -38 159 -38q103 0 198 46l21 9l21 -56q-117 -58 -239 -58q-113 0 -195 47q-77 45 -122 125t-45 174 q0 146 100.5 245.5t247.5 99.5q136 0 226.5 -85t90.5 -213q0 -97 -48 -168.5t-113 -71.5q-54 0 -72 59q-30 -34 -57.5 -47.5t-65.5 -13.5q-73 0 -120.5 51.5t-47.5 129.5q0 84 53.5 140t133.5 56q72 0 118 -56l5 48h64zM377 453q-51 0 -85 -38.5t-34 -96.5q0 -50 27.5 -83 t70.5 -33q48 0 84.5 43t36.5 101q0 47 -28 77t-72 30z" />
<glyph unicode="A" horiz-adv-x="617" d="M180 186l-97 -186h-81l371 707l206 -707h-76l-52 186h-271zM215 254h215l-75 273z" />
<glyph unicode="B" horiz-adv-x="526" d="M144 667h119q79 0 121 -23q32 -19 51.5 -58t19.5 -84q0 -106 -97 -156q51 -14 75 -37q46 -43 46 -119q0 -49 -22 -91.5t-61 -67.5q-48 -31 -151 -31h-183zM209 599l-28 -228h52q50 0 72.5 7t41.5 27q36 38 36 95q0 52 -32 78q-28 21 -90 21h-52zM173 306l-29 -238h106 q85 0 117 31q37 35 37 95q0 61 -43 90q-34 22 -114 22h-74z" />
<glyph unicode="C" horiz-adv-x="643" d="M633 595l-10 -84q-38 47 -95.5 73t-123.5 26q-115 0 -190 -83.5t-75 -212.5q0 -118 69 -187.5t186 -69.5q106 0 186 67l-11 -89q-92 -48 -186 -48q-142 0 -230.5 91.5t-88.5 237.5q0 158 96 261t242 103q129 0 231 -85z" />
<glyph unicode="D" horiz-adv-x="635" d="M144 667h134q124 0 184 -34q63 -36 100 -110t37 -165q0 -110 -51 -199.5t-137 -128.5q-38 -17 -78.5 -23.5t-115.5 -6.5h-155zM209 599l-65 -531h83q66 0 105 8.5t72 29.5q54 34 87 104t33 150q0 78 -32 137.5t-86 82.5q-45 19 -124 19h-73z" />
<glyph unicode="E" horiz-adv-x="467" d="M471 667l-9 -68h-253l-25 -204h253l-8 -68h-253l-32 -259h253l-8 -68h-327l82 667h327z" />
<glyph unicode="F" horiz-adv-x="431" d="M448 667l-8 -68h-231l-25 -203h231l-8 -68h-231l-41 -328h-73l82 667h304z" />
<glyph unicode="G" horiz-adv-x="745" d="M433 319h273q-12 -119 -65 -197q-43 -64 -111 -99.5t-148 -35.5q-138 0 -228.5 92.5t-90.5 233.5q0 73 26 143.5t72 119.5q95 104 245 104q182 0 284 -155l-51 -45q-29 47 -64 75q-72 55 -171 55q-116 0 -191 -84t-75 -213q0 -112 69.5 -184t177.5 -72q92 0 154.5 51 t83.5 143h-198z" />
<glyph unicode="H" horiz-adv-x="650" d="M614 667l-83 -667h-73l41 332h-323l-41 -332h-73l82 667h73l-32 -267h322l33 267h74z" />
<glyph unicode="I" horiz-adv-x="254" d="M218 667l-83 -667h-73l82 667h74z" />
<glyph unicode="J" horiz-adv-x="359" d="M323 667l-57 -464q-13 -115 -37 -152q-38 -64 -116 -64q-76 0 -127 70l45 52q21 -29 38 -40.5t40 -11.5q38 0 56 31t28 116l57 463h73z" />
<glyph unicode="K" horiz-adv-x="569" d="M217 667l-35 -290l298 290h96l-329 -314l284 -353h-94l-261 329l-41 -329h-73l82 667h73z" />
<glyph unicode="L" horiz-adv-x="384" d="M217 667l-73 -599h203l-8 -68h-277l82 667h73z" />
<glyph unicode="M" horiz-adv-x="888" d="M19 0l277 708l147 -562l288 567l96 -713h-73l-65 490l-268 -520l-134 518l-191 -488h-77z" />
<glyph unicode="N" horiz-adv-x="742" d="M706 667l-86 -700l-421 550l-64 -517h-73l86 696l420 -549l64 520h74z" />
<glyph unicode="O" horiz-adv-x="785" d="M416 680q149 0 240.5 -91t91.5 -239q0 -155 -100.5 -259t-251.5 -104q-146 0 -239 92.5t-93 238.5q0 156 100 259t252 103zM418 610q-120 0 -199.5 -82.5t-79.5 -206.5q0 -115 73 -189.5t186 -74.5q118 0 196.5 84t78.5 210q0 118 -69.5 188.5t-185.5 70.5z" />
<glyph unicode="P" horiz-adv-x="480" d="M144 667h127q95 0 143 -41q56 -50 56 -135q0 -56 -25 -101.5t-69 -71.5q-48 -27 -137 -27h-68l-36 -291h-73zM209 599l-29 -240h64q77 0 113 35q38 38 38 96q0 53 -32 81t-94 28h-60z" />
<glyph unicode="Q" horiz-adv-x="783" d="M716 -27h-86l-57 62q-85 -48 -176 -48q-146 0 -239.5 93.5t-93.5 238.5q0 157 100 259t253 102q145 0 237.5 -92t92.5 -237q0 -166 -122 -280zM412 208h85l83 -88q92 84 92 227q0 118 -70 190.5t-184 72.5q-121 0 -200 -82t-79 -208q0 -115 72.5 -189t185.5 -74 q63 0 128 29z" />
<glyph unicode="R" horiz-adv-x="513" d="M272 299l183 -299h-82l-175 295h-26l-37 -295h-73l82 667h109q94 0 142 -36q62 -49 62 -139q0 -54 -25.5 -98.5t-70.5 -69.5q-38 -20 -89 -25zM209 599l-30 -244h42q83 0 120 34q41 39 41 102q0 108 -130 108h-43z" />
<glyph unicode="S" horiz-adv-x="482" d="M464 573l-51 -45q-44 83 -119 83q-47 0 -80 -31.5t-33 -77.5q0 -37 21 -62t84 -63q85 -51 116 -93t31 -105q0 -83 -56.5 -137.5t-142.5 -54.5t-146 55q-31 30 -57 87l58 35q18 -44 38 -65q42 -42 105 -42q56 0 91 35.5t35 92.5q0 41 -23 69t-91 69q-79 48 -107.5 85.5 t-28.5 94.5q0 78 52.5 128t134.5 50q109 0 169 -108z" />
<glyph unicode="T" horiz-adv-x="419" d="M295 599l-74 -599h-73l74 599h-166l8 68h400l-9 -68h-160z" />
<glyph unicode="U" horiz-adv-x="659" d="M624 667l-51 -409q-13 -110 -48 -164q-67 -107 -202 -107q-103 0 -168 57t-65 149q0 23 4 69l50 405h74l-51 -413q-4 -38 -4 -53q0 -66 42 -105t115 -39q77 0 126 52q41 45 55 156l49 402h74z" />
<glyph unicode="V" horiz-adv-x="558" d="M602 667l-361 -689l-177 689h75l125 -506l257 506h81z" />
<glyph unicode="W" horiz-adv-x="914" d="M64 667h76l124 -501l249 520l128 -518l237 499h80l-339 -697l-127 519l-253 -519z" />
<glyph unicode="X" horiz-adv-x="504" d="M309 346l154 -346h-80l-121 277l-190 -277h-87l244 351l-140 316h79l108 -248l168 248h88z" />
<glyph unicode="Y" horiz-adv-x="520" d="M302 296l-36 -296h-74l38 304l-173 363h80l138 -293l202 293h86z" />
<glyph unicode="Z" horiz-adv-x="547" d="M485 68l-9 -68h-474l442 599h-321l9 68h446l-442 -599h349z" />
<glyph unicode="[" horiz-adv-x="318" d="M37 -176l111 905h198l-7 -60h-126l-97 -785h126l-7 -60h-198z" />
<glyph unicode="\" horiz-adv-x="389" d="M315 -164l-67 -16l-175 900l67 13z" />
<glyph unicode="]" horiz-adv-x="318" d="M293 729l-111 -905h-198l7 60h126l97 785h-126l7 60h198z" />
<glyph unicode="^" d="M117 364h-81l176 305h99l176 -305h-81l-145 245z" />
<glyph unicode="_" d="M12 -64h500v-69h-500v69z" />
<glyph unicode="`" d="M175 600l62 37l74 -139l-43 -25z" />
<glyph unicode="a" horiz-adv-x="523" d="M477 404l-50 -404h-70l7 57q-38 -38 -68.5 -52.5t-71.5 -14.5q-83 0 -135.5 55t-52.5 141q0 100 60 164t153 64q49 0 82.5 -17t67.5 -59l8 66h70zM255 350q-62 0 -104.5 -46t-42.5 -114q0 -59 37 -97.5t92 -38.5q61 0 105.5 48.5t44.5 115.5q0 58 -37 95t-95 37z" />
<glyph unicode="b" horiz-adv-x="529" d="M200 729l-47 -377q38 35 69.5 48.5t72.5 13.5q83 0 137.5 -56t54.5 -142q0 -95 -62 -160.5t-151 -65.5q-49 0 -85 18t-71 60l-8 -68h-70l90 729h70zM281 350q-64 0 -107 -46t-43 -114q0 -59 38 -97.5t96 -38.5q61 0 105.5 47t44.5 111q0 61 -37.5 99.5t-96.5 38.5z" />
<glyph unicode="c" horiz-adv-x="411" d="M393 363l-9 -76q-59 66 -129 66q-64 0 -105.5 -45.5t-41.5 -115.5q0 -63 39 -102t102 -39q57 0 111 46l-9 -79q-55 -31 -113 -31q-89 0 -145.5 57t-56.5 146q0 98 61.5 162.5t154.5 64.5q42 0 73.5 -12t67.5 -42z" />
<glyph unicode="d" horiz-adv-x="531" d="M524 729l-89 -729h-70l7 54q-37 -37 -67 -50.5t-71 -13.5q-85 0 -141 56.5t-56 142.5q0 96 61.5 160.5t152.5 64.5q49 0 83.5 -18.5t70.5 -64.5l49 398h70zM257 350q-63 0 -105.5 -46t-42.5 -115q0 -59 37.5 -97t95.5 -38q61 0 105 49t44 117q0 57 -37.5 93.5t-96.5 36.5 z" />
<glyph unicode="e" horiz-adv-x="469" d="M432 185h-324q1 -52 22 -82q38 -52 109 -52q70 0 112 54l54 -32q-62 -86 -167 -86q-91 0 -146.5 54.5t-55.5 143.5q0 100 60 166t149 66q67 0 116.5 -40t63.5 -106q7 -36 7 -86zM114 243h246q-4 52 -35.5 81t-82.5 29q-63 0 -99 -45q-19 -23 -29 -65z" />
<glyph unicode="f" horiz-adv-x="228" d="M153 345l-43 -345h-70l43 345h-55l8 63h54l24 196q10 75 41 105q31 29 78 29q28 0 62 -16l-8 -64q-23 16 -45 16q-28 0 -41 -19.5t-19 -70.5l-22 -176h81l-8 -63h-80z" />
<glyph unicode="g" horiz-adv-x="528" d="M482 404l-51 -410q-8 -68 -19.5 -102.5t-34.5 -61.5q-55 -66 -160 -66q-101 0 -155 60q-21 23 -29 49t-9 71h66q3 -49 21 -74q31 -42 103 -42q69 0 107 41q29 31 39 110l8 70q-37 -33 -68 -46t-70 -13q-83 0 -138 56.5t-55 141.5q0 96 62.5 161t154.5 65q47 0 80 -17 t70 -60l8 67h70zM260 350q-65 0 -108 -45.5t-43 -113.5q0 -59 38.5 -98t96.5 -39q62 0 106.5 46.5t44.5 112.5q0 62 -37 99.5t-98 37.5z" />
<glyph unicode="h" horiz-adv-x="462" d="M200 729l-46 -370q34 32 59.5 43.5t61.5 11.5q56 0 91 -30.5t35 -80.5q0 -19 -5 -59l-30 -244h-70l30 245q4 32 4 40q0 31 -19 48t-54 17q-50 0 -84 -34q-27 -28 -36 -96l-27 -220h-70l90 729h70z" />
<glyph unicode="i" horiz-adv-x="206" d="M148 624q17 0 29.5 -12.5t12.5 -30.5t-13 -31.5t-31 -13.5q-17 0 -29 12.5t-12 30.5q0 19 13 32t30 13zM160 404l-50 -404h-70l50 404h70z" />
<glyph unicode="j" horiz-adv-x="206" d="M148 625q17 0 29 -12.5t12 -30.5t-13 -31.5t-31 -13.5q-17 0 -29 12.5t-12 30.5q0 19 13 32t31 13zM159 404l-78 -637h-70l78 637h70z" />
<glyph unicode="k" horiz-adv-x="431" d="M200 729l-60 -489l187 164h97l-221 -186l199 -218h-92l-176 198l-24 -198h-70l90 729h70z" />
<glyph unicode="l" horiz-adv-x="206" d="M200 729l-90 -729h-70l90 729h70z" />
<glyph unicode="m" horiz-adv-x="678" d="M161 404l-6 -49q33 33 59 46t60 13q39 0 61.5 -16t37.5 -55q35 41 62 56t65 15q55 0 85.5 -29.5t30.5 -81.5q0 -24 -5 -61l-30 -242h-70l31 247q3 24 3 44q0 28 -17 43.5t-46 15.5q-46 0 -79 -36q-20 -24 -28 -81l-28 -233h-70l29 241q5 33 5 49q0 60 -64 60 q-47 0 -76 -34q-26 -29 -33 -87l-28 -229h-70l50 404h71z" />
<glyph unicode="n" horiz-adv-x="464" d="M160 404l-7 -50q38 35 64 47.5t62 12.5q56 0 89 -32t33 -86q0 -28 -6 -71l-27 -225h-70l29 236q4 38 4 49q0 65 -71 65q-48 0 -83 -33q-19 -18 -27.5 -39.5t-13.5 -65.5l-26 -212h-70l50 404h70z" />
<glyph unicode="o" horiz-adv-x="513" d="M262 417q92 0 150.5 -59.5t58.5 -152.5q0 -92 -63.5 -155t-155.5 -63t-153.5 59.5t-61.5 149.5q0 93 65 157t160 64zM259 353q-64 0 -107 -44.5t-43 -110.5q0 -63 41 -105t103 -42q63 0 104.5 44.5t41.5 111.5q0 65 -39 105.5t-101 40.5z" />
<glyph unicode="p" horiz-adv-x="527" d="M159 404l-6 -55q39 37 69 51t73 14q82 0 136 -56.5t54 -141.5q0 -95 -62.5 -160.5t-152.5 -65.5q-49 0 -82 17t-70 63l-37 -303h-70l78 637h70zM282 350q-64 0 -107.5 -46.5t-43.5 -115.5q0 -59 38 -96.5t97 -37.5q62 0 104.5 45t42.5 110q0 62 -36.5 101.5t-94.5 39.5z " />
<glyph unicode="q" horiz-adv-x="530" d="M484 404l-79 -637h-70l35 284q-37 -34 -69 -47.5t-74 -13.5q-82 0 -136.5 57t-54.5 143q0 95 62.5 159.5t153.5 64.5q50 0 84.5 -18t68.5 -62l9 70h70zM258 350q-63 0 -106.5 -46.5t-43.5 -114.5q0 -59 37.5 -97t95.5 -38q62 0 107 47.5t45 113.5q0 59 -38 97t-97 38z " />
<glyph unicode="r" horiz-adv-x="315" d="M160 404l-6 -46q31 31 54.5 43.5t52.5 12.5q33 0 66 -23l-43 -58q-27 14 -48 14q-32 0 -57 -25q-33 -33 -43 -114l-26 -208h-70l50 404h70z" />
<glyph unicode="s" horiz-adv-x="347" d="M317 366l-44 -43q-40 31 -77 31q-29 0 -48 -15.5t-19 -38.5q0 -20 14.5 -34t56.5 -34q57 -27 78 -52.5t21 -67.5q0 -55 -40.5 -90t-103.5 -35q-89 0 -139 86l53 33q34 -55 86 -55q32 0 51.5 16.5t19.5 43.5q0 23 -13.5 36t-63.5 37q-49 23 -70.5 49t-21.5 64 q0 52 39.5 86.5t99.5 34.5q68 0 121 -52z" />
<glyph unicode="t" horiz-adv-x="230" d="M157 345l-42 -345h-70l42 345h-50l8 63h50l20 167h70l-20 -167h80l-8 -63h-80z" />
<glyph unicode="u" horiz-adv-x="464" d="M417 404l-29 -238q-10 -89 -45 -126q-48 -50 -132 -50q-71 0 -112 36.5t-41 100.5q0 28 4 52l27 225h70l-28 -232q-3 -24 -3 -44q0 -34 23.5 -54t63.5 -20q55 0 81 36q16 22 21 71l30 243h70z" />
<glyph unicode="v" horiz-adv-x="403" d="M418 404l-260 -445l-136 445h73l82 -285l162 285h79z" />
<glyph unicode="w" horiz-adv-x="643" d="M659 404l-250 -438l-88 291l-163 -291l-136 438h74l83 -279l161 288l86 -288l153 279h80z" />
<glyph unicode="x" horiz-adv-x="415" d="M250 211l136 -211h-83l-101 163l-139 -163h-90l192 217l-120 187h81l86 -140l118 140h89z" />
<glyph unicode="y" horiz-adv-x="423" d="M438 404l-357 -633h-80l153 267l-132 366h75l99 -289l163 289h79z" />
<glyph unicode="z" horiz-adv-x="440" d="M397 63l-8 -63h-394l303 341h-229l8 63h360l-304 -341h264z" />
<glyph unicode="{" horiz-adv-x="291" d="M225 580l-23 -187q-8 -52 -23.5 -76t-51.5 -41q26 -14 36.5 -32.5t10.5 -48.5q0 -10 -2 -30l-23 -181q-3 -39 -3 -47q0 -37 33 -47q13 -3 40 -3l-8 -62q-15 -1 -28 -1q-56 0 -82 26t-26 83q0 23 4 52l19 158q3 18 3 34q0 58 -47 72l7 59q33 9 48 28.5t20 60.5l24 195 q9 73 42.5 105.5t100.5 32.5q14 0 26 -1l-7 -62h-10q-43 0 -58.5 -17t-21.5 -70z" />
<glyph unicode="|" d="M225 667h75v-834h-75v834z" />
<glyph unicode="}" horiz-adv-x="291" d="M79 -26l23 187q8 52 23 76t52 40q-26 15 -36.5 33.5t-10.5 48.5q0 12 2 30l22 181q3 30 3 46q0 38 -33 47q-9 3 -40 3l8 63q49 0 67 -4q69 -15 69 -104q0 -27 -4 -52l-19 -158q-2 -22 -2 -34q0 -58 46 -73l-7 -59q-32 -8 -47.5 -28t-20.5 -60l-24 -196q-9 -73 -42.5 -105 t-100.5 -32h-26l8 63h9q43 0 58.5 17t22.5 70z" />
<glyph unicode="~" horiz-adv-x="667" d="M148 269l-43 28q31 64 61.5 89.5t75.5 25.5q39 0 112 -34q68 -31 97 -31q28 0 47.5 14.5t42.5 52.5l45 -26q-56 -112 -144 -112q-33 0 -140 47q-40 18 -65 18q-49 0 -89 -72z" />
<glyph unicode="&#xa1;" horiz-adv-x="267" d="M163 521q20 0 33.5 -14t13.5 -34t-14 -34t-34 -14q-19 0 -32.5 14t-13.5 34t13.5 34t33.5 14zM51 -156l64 520h73l-64 -520h-73z" />
<glyph unicode="&#xa2;" horiz-adv-x="567" d="M251 18l14 113q-71 19 -110.5 71.5t-39.5 126.5q0 93 57.5 157t144.5 69l11 94h52l-12 -98q54 -9 102 -51l-8 -72q-41 52 -101 67l-39 -313q64 1 115 51l-9 -77q-51 -30 -113 -31l-13 -107h-51zM272 192l37 304q-124 -33 -124 -167q0 -53 20 -84t67 -53z" />
<glyph unicode="&#xa3;" horiz-adv-x="567" d="M490 109l38 -52q-75 -69 -150 -69q-28 0 -51 6.5t-102 36.5q-54 19 -84 19q-53 0 -105 -62l-43 48q54 65 117 76q34 58 34 114q0 8 -2 38h-105l6 53h92q-9 55 -9 99q0 101 38 163q28 47 78 73.5t110 26.5q91 0 144 -55.5t58 -156.5l-69 -20q0 77 -37.5 122.5t-100.5 45.5 q-68 0 -109.5 -51t-41.5 -133q0 -37 11 -112h173l-7 -53h-160v-25q0 -61 -33 -130q34 -5 92 -29q73 -30 106 -30q31 0 55.5 12.5t56.5 44.5z" />
<glyph unicode="&#xa4;" horiz-adv-x="667" d="M72 122l95 94q-29 42 -40.5 73.5t-11.5 71.5q0 68 50 142l-95 95l39 39l95 -95q47 31 76.5 41.5t69.5 10.5t70 -10.5t74 -41.5l95 94l38 -38l-94 -94q29 -43 40 -74t11 -70t-11 -69t-40 -74l96 -95l-38 -39l-96 96q-42 -29 -73 -40.5t-71 -11.5q-38 0 -69.5 10.5 t-76.5 39.5l-95 -94zM352 532q-72 0 -122.5 -50t-50.5 -122q0 -70 50.5 -120.5t120.5 -50.5t120.5 50.5t50.5 120.5t-50 121t-119 51z" />
<glyph unicode="&#xa5;" horiz-adv-x="567" d="M518 239h-196l-29 -239h-74l30 239h-198l7 57h201l-40 87h-150l7 57h116l-108 227h80l138 -293l202 293h86l-160 -227h113l-7 -57h-145l-62 -87h196z" />
<glyph unicode="&#xa6;" d="M225 667h75v-334h-75v334zM225 153h75v-320h-75v320z" />
<glyph unicode="&#xa7;" horiz-adv-x="567" d="M82 15h72q0 -48 10 -74q20 -56 89 -56q46 0 73 27t27 72q0 55 -52 86q-30 17 -84 43q-105 51 -105 154q0 116 118 164q-41 32 -57 60t-16 70q0 76 50 124.5t130 48.5q51 0 91.5 -25t59.5 -68q16 -38 16 -105h-72q0 51 -11 77q-24 52 -86 52q-46 0 -75.5 -28.5 t-29.5 -73.5q0 -50 42 -77q15 -11 59 -31q61 -29 87 -51q55 -47 55 -125q0 -112 -117 -162q73 -53 73 -132q0 -73 -48.5 -119t-125.5 -46q-108 0 -151 82q-22 40 -22 113zM294 381q-44 0 -75 -31t-31 -75q0 -45 29 -76t72 -31q45 0 76 31.5t31 77.5q0 44 -29.5 74t-72.5 30z " />
<glyph unicode="&#xa8;" d="M208 590q17 0 28.5 -13t11.5 -32q0 -18 -12.5 -31t-30.5 -13q-17 0 -29 12.5t-12 30.5q0 20 12.5 33t31.5 13zM363 590q17 0 28.5 -13t11.5 -32q0 -18 -12.5 -31t-30.5 -13q-17 0 -29 12.5t-12 30.5q0 20 12.5 33t31.5 13z" />
<glyph unicode="&#xa9;" horiz-adv-x="733" d="M536 489l-9 -69q-22 26 -35 35q-48 32 -107 32q-68 0 -111.5 -45.5t-43.5 -116.5q0 -67 41.5 -106t112.5 -39q38 0 63.5 9.5t59.5 37.5l-9 -71q-61 -30 -123 -30q-91 0 -148 55.5t-57 143.5q0 93 61 154.5t155 61.5q81 0 150 -52zM385 678q139 0 239 -102t100 -242 q0 -143 -100.5 -244t-243.5 -101q-144 0 -244.5 101t-100.5 246q0 142 102 242t248 100zM384 622q-132 0 -219 -96q-74 -82 -74 -190q0 -122 84 -206.5t205 -84.5q119 0 203.5 84.5t84.5 204.5q0 117 -84.5 202.5t-199.5 85.5z" />
<glyph unicode="&#xaa;" horiz-adv-x="358" d="M359 667l-30 -248h-57l3 24q-37 -30 -78 -30q-55 0 -89.5 34t-34.5 87q0 61 39 100t100 39q53 0 87 -35l4 29h56zM214 622q-35 0 -59 -24.5t-24 -60.5q0 -32 21.5 -53t53.5 -21q34 0 59.5 26t25.5 61q0 32 -21.5 52t-55.5 20z" />
<glyph unicode="&#xab;" horiz-adv-x="361" d="M139 24l-105 186l144 180l40 -33l-122 -151l87 -157zM255 24l-103 181l149 185l38 -33l-126 -155l87 -151z" />
<glyph unicode="&#xac;" d="M403 0v197h-358v70h433v-267h-75z" />
<glyph unicode="&#xad;" horiz-adv-x="181" d="M182 241l-7 -62h-181l8 62h180z" />
<glyph unicode="&#xae;" horiz-adv-x="733" d="M388 309l116 -176h-68l-110 172h-6l-21 -172h-59l49 400h74q60 0 92 -22q41 -31 41 -86q0 -46 -29 -77t-79 -39zM341 480l-15 -127h19q44 0 64 14q27 19 27 56q0 57 -75 57h-20zM385 678q139 0 239 -102t100 -242q0 -143 -100.5 -244t-243.5 -101q-144 0 -244.5 101 t-100.5 246q0 142 102 242t248 100zM384 622q-132 0 -219 -96q-74 -82 -74 -190q0 -122 84 -206.5t205 -84.5q119 0 203.5 84.5t84.5 204.5q0 117 -84.5 202.5t-199.5 85.5z" />
<glyph unicode="&#xaf;" d="M165 572h252l-7 -55h-252z" />
<glyph unicode="&#xb0;" horiz-adv-x="567" d="M324 677q54 0 93 -39t39 -94t-39 -94.5t-94 -39.5t-94.5 39t-39.5 94q0 56 39.5 95t95.5 39zM324 626q-35 0 -59.5 -24t-24.5 -58t24 -58.5t59 -24.5q34 0 58 24.5t24 58.5t-24 58t-57 24z" />
<glyph unicode="&#xb1;" horiz-adv-x="567" d="M61 310v60h205v198h61v-198h205v-60h-205v-200h-61v200h-205zM61 10v60h471v-60h-471z" />
<glyph unicode="&#xb2;" horiz-adv-x="387" d="M332 313l-6 -47h-277l174 174q47 47 60.5 68t13.5 47q0 32 -20.5 52t-54.5 20q-76 0 -82 -92h-51q4 57 25 87q38 52 110 52q56 0 91 -32.5t35 -84.5q0 -34 -16.5 -62.5t-61.5 -73.5l-110 -108h170z" />
<glyph unicode="&#xb3;" horiz-adv-x="387" d="M70 372h50q4 -65 74 -65q36 0 59 22t23 56q0 64 -84 68l6 45q7 -1 18 -1q31 0 49.5 19t18.5 51q0 27 -18 43.5t-48 16.5q-56 0 -62 -64h-50q7 48 24 69q33 42 93 42q51 0 82.5 -29.5t31.5 -77.5q0 -31 -18 -56.5t-49 -36.5q59 -28 59 -91q0 -54 -38.5 -88.5t-97.5 -34.5 q-56 0 -88.5 29.5t-34.5 82.5z" />
<glyph unicode="&#xb4;" d="M429 599l-139 -126l-37 25l117 139z" />
<glyph unicode="&#xb5;" horiz-adv-x="464" d="M81 -233h-70l78 637h70l-28 -232q-3 -24 -3 -44q0 -34 23.5 -54t63.5 -20q55 0 81 36q16 22 21 71l30 243h70l-29 -238q-10 -89 -45 -126q-50 -50 -130 -50q-63 0 -108 34z" />
<glyph unicode="&#xb6;" horiz-adv-x="567" d="M181 -99l53 427h-14q-62 0 -99.5 43t-37.5 115q0 90 61 139q52 42 154 42h273l-39 -68h-47l-86 -698h-61l86 698h-96l-85 -698h-62z" />
<glyph unicode="&#xb7;" horiz-adv-x="240" d="M117 257q20 0 34 -14t14 -34q0 -19 -14.5 -33t-33.5 -14t-32.5 14t-13.5 34t13.5 33.5t32.5 13.5z" />
<glyph unicode="&#xb8;" d="M285 -83l-107 -122l-35 25l84 133z" />
<glyph unicode="&#xb9;" horiz-adv-x="387" d="M279 667l-50 -400h-52l43 353h-75l28 47h106z" />
<glyph unicode="&#xba;" horiz-adv-x="359" d="M223 675q59 0 97.5 -36t38.5 -92q0 -58 -40.5 -96.5t-101.5 -38.5q-60 0 -100 36.5t-40 91.5q0 57 42 96t104 39zM220 625q-37 0 -61 -23.5t-24 -58.5t24 -58t60 -23t59 23.5t23 60.5q0 34 -23 56.5t-58 22.5z" />
<glyph unicode="&#xbb;" horiz-adv-x="361" d="M216 395l105 -186l-143 -179l-40 32l122 151l-87 157zM100 395l103 -180l-148 -185l-39 32l126 155l-86 152z" />
<glyph unicode="&#xbc;" horiz-adv-x="881" d="M269 667l-50 -400h-52l43 353h-75l28 47h106zM187 15l493 665l39 -29l-493 -664zM768 73l-9 -73h-53l9 73h-204l301 362l-39 -317h47l-5 -45h-47zM720 118l21 168l-137 -168h116z" />
<glyph unicode="&#xbd;" horiz-adv-x="881" d="M269 667l-50 -400h-52l43 353h-75l28 47h106zM187 15l493 665l39 -29l-493 -664zM803 47l-6 -47h-277l174 174q47 47 60.5 68t13.5 46q0 32 -20.5 52t-54.5 20q-76 0 -82 -92h-51q4 57 25 87q38 52 110 52q56 0 91 -32.5t35 -85.5q0 -33 -16 -61t-62 -73l-110 -108h170z " />
<glyph unicode="&#xbe;" horiz-adv-x="881" d="M60 372h50q4 -65 74 -65q36 0 59 22t23 56q0 64 -84 68l6 45q7 -1 18 -1q31 0 49.5 19t18.5 51q0 27 -18 43.5t-48 16.5q-56 0 -62 -64h-50q7 48 24 69q33 42 93 42q51 0 82.5 -29.5t31.5 -77.5q0 -31 -18 -56.5t-49 -36.5q59 -28 59 -91q0 -54 -38.5 -88.5t-97.5 -34.5 q-56 0 -88.5 29.5t-34.5 82.5zM188 15l492 665l39 -29l-493 -664zM768 73l-9 -73h-53l9 73h-203l301 362l-39 -317h47l-6 -45h-47zM721 118l20 168l-136 -168h116z" />
<glyph unicode="&#xbf;" horiz-adv-x="452" d="M250 520q20 0 34 -13.5t14 -33.5q0 -21 -14 -34.5t-34 -13.5q-19 0 -32.5 14t-13.5 34q0 19 13.5 33t32.5 14zM144 235h-71q4 57 30 90q40 54 115 54q62 0 103.5 -39.5t41.5 -98.5q0 -56 -35.5 -93.5t-116.5 -66.5q-59 -21 -81 -42.5t-22 -56.5q0 -36 25.5 -60t64.5 -24 q55 0 78 44q13 25 13 76h69q-1 -86 -32 -125q-45 -57 -129 -57q-71 0 -116 41t-45 106q0 56 34 95q29 33 99 58q72 26 94 46q28 25 28 62q0 32 -20.5 51.5t-53.5 19.5q-68 0 -73 -80z" />
<glyph unicode="&#xc0;" horiz-adv-x="617" d="M180 186l-97 -186h-81l371 707l206 -707h-76l-52 186h-271zM215 254h215l-75 273zM285 846l62 35l71 -136l-43 -22z" />
<glyph unicode="&#xc1;" horiz-adv-x="617" d="M180 186l-97 -186h-81l371 707l206 -707h-76l-52 186h-271zM215 254h215l-75 273zM506 842l-136 -119l-37 25l113 133z" />
<glyph unicode="&#xc2;" horiz-adv-x="617" d="M180 186l-97 -186h-81l371 707l206 -707h-76l-52 186h-271zM215 254h215l-75 273zM387 809l-111 -86l-38 37l159 122l112 -122l-41 -36z" />
<glyph unicode="&#xc3;" horiz-adv-x="617" d="M180 186l-97 -186h-81l371 707l206 -707h-76l-52 186h-271zM215 254h215l-75 273zM483 845l43 -23q-41 -70 -87 -70q-23 0 -80 29q-23 11 -34 11q-21 0 -41 -39l-43 24q23 38 42 54t42 16q21 0 78 -27q29 -13 37 -13q20 0 43 38z" />
<glyph unicode="&#xc4;" horiz-adv-x="617" d="M180 186l-97 -186h-81l371 707l206 -707h-76l-52 186h-271zM215 254h215l-75 273zM302 841q18 0 31 -13t13 -32q0 -20 -14 -34.5t-33 -14.5t-32 13.5t-13 32.5q0 20 14 34t34 14zM470 841q18 0 31 -13t13 -32q0 -20 -14 -34.5t-33 -14.5t-32 13.5t-13 32.5q0 20 14 34 t34 14z" />
<glyph unicode="&#xc5;" horiz-adv-x="617" d="M180 186l-97 -186h-81l371 707l206 -707h-76l-52 186h-271zM215 254h215l-75 273zM378 896q38 0 63.5 -26t25.5 -63q0 -36 -26.5 -62.5t-62.5 -26.5q-37 0 -63.5 26t-26.5 63t26.5 63t63.5 26zM377 847q-17 0 -28.5 -11.5t-11.5 -28.5t12 -28.5t29 -11.5t28.5 12t11.5 29 q0 16 -12 27.5t-29 11.5z" />
<glyph unicode="&#xc6;" horiz-adv-x="904" d="M671 667l19 -68h-272l60 -204h272l20 -68h-272l76 -259h273l19 -68h-350l-53 189h-281l-104 -189h-83l370 667h306zM221 257h221l-75 267z" />
<glyph unicode="&#xc7;" horiz-adv-x="643" d="M633 595l-10 -84q-38 47 -95.5 73t-123.5 26q-115 0 -190 -83.5t-75 -212.5q0 -118 69 -187.5t186 -69.5q106 0 186 67l-11 -89q-92 -48 -186 -48q-142 0 -230.5 91.5t-88.5 237.5q0 158 96 261t242 103q129 0 231 -85zM394 -83l-106 -122l-39 25l84 133z" />
<glyph unicode="&#xc8;" horiz-adv-x="467" d="M471 667l-9 -68h-253l-25 -204h253l-8 -68h-253l-32 -259h253l-8 -68h-327l82 667h327zM230 846l62 35l71 -136l-43 -22z" />
<glyph unicode="&#xc9;" horiz-adv-x="467" d="M471 667l-9 -68h-253l-25 -204h253l-8 -68h-253l-32 -259h253l-8 -68h-327l82 667h327zM445 842l-136 -119l-37 25l113 133z" />
<glyph unicode="&#xca;" horiz-adv-x="467" d="M471 667l-9 -68h-253l-25 -204h253l-8 -68h-253l-32 -259h253l-8 -68h-327l82 667h327zM326 809l-111 -86l-38 37l159 122l112 -122l-41 -36z" />
<glyph unicode="&#xcb;" horiz-adv-x="467" d="M471 667l-9 -68h-253l-25 -204h253l-8 -68h-253l-32 -259h253l-8 -68h-327l82 667h327zM241 841q18 0 31 -13t13 -32q0 -20 -14 -34.5t-33 -14.5t-32 13.5t-13 32.5q0 20 14 34t34 14zM409 841q18 0 31 -13t13 -32q0 -20 -14 -34.5t-33 -14.5t-32 13.5t-13 32.5 q0 20 14 34t34 14z" />
<glyph unicode="&#xcc;" horiz-adv-x="254" d="M218 667l-83 -667h-73l82 667h74zM97 846l62 35l71 -136l-43 -22z" />
<glyph unicode="&#xcd;" horiz-adv-x="254" d="M218 667l-83 -667h-73l82 667h74zM315 842l-129 -119l-38 25l107 133z" />
<glyph unicode="&#xce;" horiz-adv-x="254" d="M218 667l-83 -667h-73l82 667h74zM202 809l-94 -86l-36 37l140 122l96 -122l-41 -36z" />
<glyph unicode="&#xcf;" horiz-adv-x="254" d="M218 667l-83 -667h-73l82 667h74zM135 841q18 0 31 -13t13 -32q0 -20 -14 -34.5t-33 -14.5t-32 13.5t-13 32.5q0 20 14 34t34 14zM261 841q18 0 31 -13t13 -32q0 -20 -14 -34.5t-33 -14.5t-32 13.5t-13 32.5q0 20 14 34t34 14z" />
<glyph unicode="&#xd0;" horiz-adv-x="635" d="M144 667h134q124 0 184 -34q63 -36 100 -110t37 -165q0 -110 -51 -199.5t-137 -128.5q-38 -17 -78.5 -23.5t-115.5 -6.5h-155l41 330h-67l8 67h67zM209 599l-25 -202h167l-8 -67h-167l-32 -262h83q66 0 105 8.5t72 29.5q54 34 87 104t33 150q0 78 -32 137.5t-86 82.5 q-45 19 -124 19h-73z" />
<glyph unicode="&#xd1;" horiz-adv-x="742" d="M706 667l-86 -700l-421 550l-64 -517h-73l86 696l420 -549l64 520h74zM540 845l43 -23q-41 -70 -87 -70q-23 0 -80 29q-23 11 -34 11q-21 0 -41 -39l-43 24q23 38 42 54t42 16q21 0 78 -27q29 -13 37 -13q20 0 43 38z" />
<glyph unicode="&#xd2;" horiz-adv-x="785" d="M416 680q149 0 240.5 -91t91.5 -239q0 -155 -100.5 -259t-251.5 -104q-146 0 -239 92.5t-93 238.5q0 156 100 259t252 103zM418 610q-120 0 -199.5 -82.5t-79.5 -206.5q0 -115 73 -189.5t186 -74.5q118 0 196.5 84t78.5 210q0 118 -69.5 188.5t-185.5 70.5zM366 846 l62 35l71 -136l-43 -22z" />
<glyph unicode="&#xd3;" horiz-adv-x="785" d="M416 680q149 0 240.5 -91t91.5 -239q0 -155 -100.5 -259t-251.5 -104q-146 0 -239 92.5t-93 238.5q0 156 100 259t252 103zM418 610q-120 0 -199.5 -82.5t-79.5 -206.5q0 -115 73 -189.5t186 -74.5q118 0 196.5 84t78.5 210q0 118 -69.5 188.5t-185.5 70.5zM581 842 l-136 -119l-37 25l113 133z" />
<glyph unicode="&#xd4;" horiz-adv-x="785" d="M416 680q149 0 240.5 -91t91.5 -239q0 -155 -100.5 -259t-251.5 -104q-146 0 -239 92.5t-93 238.5q0 156 100 259t252 103zM418 610q-120 0 -199.5 -82.5t-79.5 -206.5q0 -115 73 -189.5t186 -74.5q118 0 196.5 84t78.5 210q0 118 -69.5 188.5t-185.5 70.5zM465 809 l-111 -86l-38 37l159 122l112 -122l-41 -36z" />
<glyph unicode="&#xd5;" horiz-adv-x="785" d="M416 680q149 0 240.5 -91t91.5 -239q0 -155 -100.5 -259t-251.5 -104q-146 0 -239 92.5t-93 238.5q0 156 100 259t252 103zM418 610q-120 0 -199.5 -82.5t-79.5 -206.5q0 -115 73 -189.5t186 -74.5q118 0 196.5 84t78.5 210q0 118 -69.5 188.5t-185.5 70.5zM563 845 l43 -23q-41 -70 -87 -70q-23 0 -80 29q-23 11 -34 11q-21 0 -41 -39l-43 24q23 38 42 54t42 16q21 0 78 -27q29 -13 37 -13q20 0 43 38z" />
<glyph unicode="&#xd6;" horiz-adv-x="785" d="M416 680q149 0 240.5 -91t91.5 -239q0 -155 -100.5 -259t-251.5 -104q-146 0 -239 92.5t-93 238.5q0 156 100 259t252 103zM418 610q-120 0 -199.5 -82.5t-79.5 -206.5q0 -115 73 -189.5t186 -74.5q118 0 196.5 84t78.5 210q0 118 -69.5 188.5t-185.5 70.5zM378 841 q18 0 31 -13t13 -32q0 -20 -14 -34.5t-33 -14.5t-32 13.5t-13 32.5q0 20 14 34t34 14zM546 841q18 0 31 -13t13 -32q0 -20 -14 -34.5t-33 -14.5t-32 13.5t-13 32.5q0 20 14 34t34 14z" />
<glyph unicode="&#xd7;" horiz-adv-x="567" d="M98 501l40 38l158 -158l157 158l44 -44l-157 -157l157 -159l-39 -39l-156 159l-157 -159l-43 44l156 158z" />
<glyph unicode="&#xd8;" horiz-adv-x="785" d="M160 75l-89 -81l-40 45l90 82q-57 91 -57 197q0 157 100.5 259.5t252.5 102.5q130 0 230 -82l89 80l40 -41l-90 -82q62 -90 62 -201q0 -159 -100 -263t-253 -104q-129 0 -235 88zM632 505l-415 -377q68 -71 182 -71q118 0 196 84.5t78 210.5q0 89 -41 153zM179 173 l412 377q-60 60 -174 60q-119 0 -198.5 -82t-79.5 -206q0 -82 40 -149z" />
<glyph unicode="&#xd9;" horiz-adv-x="659" d="M624 667l-51 -409q-13 -110 -48 -164q-67 -107 -202 -107q-103 0 -168 57t-65 149q0 23 4 69l50 405h74l-51 -413q-4 -38 -4 -53q0 -66 42 -105t115 -39q77 0 126 52q41 45 55 156l49 402h74zM306 846l62 35l71 -136l-43 -22z" />
<glyph unicode="&#xda;" horiz-adv-x="659" d="M624 667l-51 -409q-13 -110 -48 -164q-67 -107 -202 -107q-103 0 -168 57t-65 149q0 23 4 69l50 405h74l-51 -413q-4 -38 -4 -53q0 -66 42 -105t115 -39q77 0 126 52q41 45 55 156l49 402h74zM518 842l-136 -119l-37 25l113 133z" />
<glyph unicode="&#xdb;" horiz-adv-x="659" d="M624 667l-51 -409q-13 -110 -48 -164q-67 -107 -202 -107q-103 0 -168 57t-65 149q0 23 4 69l50 405h74l-51 -413q-4 -38 -4 -53q0 -66 42 -105t115 -39q77 0 126 52q41 45 55 156l49 402h74zM409 809l-111 -86l-38 37l159 122l112 -122l-41 -36z" />
<glyph unicode="&#xdc;" horiz-adv-x="659" d="M624 667l-51 -409q-13 -110 -48 -164q-67 -107 -202 -107q-103 0 -168 57t-65 149q0 23 4 69l50 405h74l-51 -413q-4 -38 -4 -53q0 -66 42 -105t115 -39q77 0 126 52q41 45 55 156l49 402h74zM317 841q18 0 31 -13t13 -32q0 -20 -14 -34.5t-33 -14.5t-32 13.5t-13 32.5 q0 20 14 34t34 14zM485 841q18 0 31 -13t13 -32q0 -20 -14 -34.5t-33 -14.5t-32 13.5t-13 32.5q0 20 14 34t34 14z" />
<glyph unicode="&#xdd;" horiz-adv-x="520" d="M302 296l-36 -296h-74l38 304l-173 363h80l138 -293l202 293h86zM441 842l-136 -119l-37 25l113 133z" />
<glyph unicode="&#xde;" horiz-adv-x="480" d="M144 667h73l-11 -94h53q95 0 143 -41q57 -48 57 -135q0 -56 -25 -101.5t-69 -71.5q-48 -27 -138 -27h-67l-25 -197h-73zM198 505l-30 -240h64q78 0 114 35q38 38 38 96q0 53 -32 81t-94 28h-60z" />
<glyph unicode="&#xdf;" horiz-adv-x="483" d="M40 0l43 350h-43l7 54h43l18 143q11 97 50 141q44 53 122 53q74 0 120 -46t46 -121q0 -67 -34.5 -116.5t-95.5 -71.5q50 -21 76 -51q43 -51 43 -118q0 -91 -54 -156q-56 -68 -151 -68q-27 0 -64 9l8 62q32 -7 53 -7q61 0 98.5 45t37.5 118q0 46 -20 80t-55 47 q-31 12 -78 13l7 54h9q67 0 103 40q45 48 45 124q0 44 -26 71.5t-67 27.5q-88 0 -104 -137l-67 -540h-70z" />
<glyph unicode="&#xe0;" horiz-adv-x="523" d="M477 404l-50 -404h-70l7 57q-38 -38 -68.5 -52.5t-71.5 -14.5q-83 0 -135.5 55t-52.5 141q0 100 60 164t153 64q49 0 82.5 -17t67.5 -59l8 66h70zM255 350q-62 0 -104.5 -46t-42.5 -114q0 -59 37 -97.5t92 -38.5q61 0 105.5 48.5t44.5 115.5q0 58 -37 95t-95 37zM208 600 l62 37l74 -139l-43 -25z" />
<glyph unicode="&#xe1;" horiz-adv-x="523" d="M477 404l-50 -404h-70l7 57q-38 -38 -68.5 -52.5t-71.5 -14.5q-83 0 -135.5 55t-52.5 141q0 100 60 164t153 64q49 0 82.5 -17t67.5 -59l8 66h70zM255 350q-62 0 -104.5 -46t-42.5 -114q0 -59 37 -97.5t92 -38.5q61 0 105.5 48.5t44.5 115.5q0 58 -37 95t-95 37zM427 599 l-139 -126l-37 25l117 139z" />
<glyph unicode="&#xe2;" horiz-adv-x="523" d="M477 404l-50 -404h-70l7 57q-38 -38 -68.5 -52.5t-71.5 -14.5q-83 0 -135.5 55t-52.5 141q0 100 60 164t153 64q49 0 82.5 -17t67.5 -59l8 66h70zM255 350q-62 0 -104.5 -46t-42.5 -114q0 -59 37 -97.5t92 -38.5q61 0 105.5 48.5t44.5 115.5q0 58 -37 95t-95 37zM309 567 l-102 -94l-34 37l145 132l99 -132l-37 -36z" />
<glyph unicode="&#xe3;" horiz-adv-x="523" d="M477 404l-50 -404h-70l7 57q-38 -38 -68.5 -52.5t-71.5 -14.5q-83 0 -135.5 55t-52.5 141q0 100 60 164t153 64q49 0 82.5 -17t67.5 -59l8 66h70zM255 350q-62 0 -104.5 -46t-42.5 -114q0 -59 37 -97.5t92 -38.5q61 0 105.5 48.5t44.5 115.5q0 58 -37 95t-95 37zM390 597 l41 -23q-39 -71 -84 -71q-24 0 -65 28q-20 14 -33 14q-17 0 -37 -41l-41 24q22 40 40 55.5t41 15.5q20 0 62 -26q24 -16 33 -16q20 0 43 40z" />
<glyph unicode="&#xe4;" horiz-adv-x="523" d="M477 404l-50 -404h-70l7 57q-38 -38 -68.5 -52.5t-71.5 -14.5q-83 0 -135.5 55t-52.5 141q0 100 60 164t153 64q49 0 82.5 -17t67.5 -59l8 66h70zM255 350q-62 0 -104.5 -46t-42.5 -114q0 -59 37 -97.5t92 -38.5q61 0 105.5 48.5t44.5 115.5q0 58 -37 95t-95 37zM227 590 q17 0 28.5 -13t11.5 -32q0 -18 -12.5 -31t-30.5 -13q-17 0 -29 12.5t-12 30.5q0 20 12.5 33t31.5 13zM382 590q17 0 28.5 -13t11.5 -32q0 -18 -12.5 -31t-30.5 -13q-17 0 -29 12.5t-12 30.5q0 20 12.5 33t31.5 13z" />
<glyph unicode="&#xe5;" horiz-adv-x="523" d="M477 404l-50 -404h-70l7 57q-38 -38 -68.5 -52.5t-71.5 -14.5q-83 0 -135.5 55t-52.5 141q0 100 60 164t153 64q49 0 82.5 -17t67.5 -59l8 66h70zM255 350q-62 0 -104.5 -46t-42.5 -114q0 -59 37 -97.5t92 -38.5q61 0 105.5 48.5t44.5 115.5q0 58 -37 95t-95 37zM304 640 q37 0 62 -25t25 -62q0 -36 -26 -62t-61 -26q-37 0 -62.5 25.5t-25.5 62.5q0 36 25.5 61.5t62.5 25.5zM303 593q-17 0 -28.5 -11.5t-11.5 -28.5t12 -29t29 -12q16 0 28 12t12 29t-12 28.5t-29 11.5z" />
<glyph unicode="&#xe6;" horiz-adv-x="745" d="M709 186h-325q-1 -6 -1 -14q0 -54 37 -87.5t96 -33.5q68 0 116 55l49 -36q-64 -83 -169 -83q-116 0 -164 90q-55 -90 -154 -90q-73 0 -122.5 39.5t-49.5 98.5q0 58 46.5 97t117.5 39q78 0 131 -52q3 17 3 24l5 31q1 6 1 21q0 68 -107 68q-53 0 -108 -16l8 65 q60 15 107 15q116 0 152 -76q57 76 145 76q83 0 134.5 -58.5t51.5 -152.5v-20zM194 197q-44 0 -72 -20.5t-28 -51.5t30 -52.5t74 -21.5q47 0 78 21t31 53t-31 52t-82 20zM391 244h251q-5 50 -37 79.5t-83 29.5q-100 0 -131 -109z" />
<glyph unicode="&#xe7;" horiz-adv-x="411" d="M393 363l-9 -76q-59 66 -129 66q-64 0 -105.5 -45.5t-41.5 -115.5q0 -63 39 -102t102 -39q57 0 111 46l-9 -79q-55 -31 -113 -31q-89 0 -145.5 57t-56.5 146q0 98 61.5 162.5t154.5 64.5q42 0 73.5 -12t67.5 -42zM258 -83l-107 -122l-35 25l84 133z" />
<glyph unicode="&#xe8;" horiz-adv-x="469" d="M432 185h-324q1 -52 22 -82q38 -52 109 -52q70 0 112 54l54 -32q-62 -86 -167 -86q-91 0 -146.5 54.5t-55.5 143.5q0 100 60 166t149 66q67 0 116.5 -40t63.5 -106q7 -36 7 -86zM114 243h246q-4 52 -35.5 81t-82.5 29q-63 0 -99 -45q-19 -23 -29 -65zM179 600l62 37 l74 -139l-43 -25z" />
<glyph unicode="&#xe9;" horiz-adv-x="469" d="M432 185h-324q1 -52 22 -82q38 -52 109 -52q70 0 112 54l54 -32q-62 -86 -167 -86q-91 0 -146.5 54.5t-55.5 143.5q0 100 60 166t149 66q67 0 116.5 -40t63.5 -106q7 -36 7 -86zM114 243h246q-4 52 -35.5 81t-82.5 29q-63 0 -99 -45q-19 -23 -29 -65zM400 599l-139 -126 l-37 25l117 139z" />
<glyph unicode="&#xea;" horiz-adv-x="469" d="M432 185h-324q1 -52 22 -82q38 -52 109 -52q70 0 112 54l54 -32q-62 -86 -167 -86q-91 0 -146.5 54.5t-55.5 143.5q0 100 60 166t149 66q67 0 116.5 -40t63.5 -106q7 -36 7 -86zM114 243h246q-4 52 -35.5 81t-82.5 29q-63 0 -99 -45q-19 -23 -29 -65zM281 567l-102 -94 l-34 37l145 132l99 -132l-37 -36z" />
<glyph unicode="&#xeb;" horiz-adv-x="469" d="M432 185h-324q1 -52 22 -82q38 -52 109 -52q70 0 112 54l54 -32q-62 -86 -167 -86q-91 0 -146.5 54.5t-55.5 143.5q0 100 60 166t149 66q67 0 116.5 -40t63.5 -106q7 -36 7 -86zM114 243h246q-4 52 -35.5 81t-82.5 29q-63 0 -99 -45q-19 -23 -29 -65zM198 590 q17 0 28.5 -13t11.5 -32q0 -18 -12.5 -31t-30.5 -13q-17 0 -29 12.5t-12 30.5q0 20 12.5 33t31.5 13zM353 590q17 0 28.5 -13t11.5 -32q0 -18 -12.5 -31t-30.5 -13q-17 0 -29 12.5t-12 30.5q0 20 12.5 33t31.5 13z" />
<glyph unicode="&#xec;" horiz-adv-x="206" d="M160 404l-50 -404h-70l50 404h70zM46 600l59 37l71 -139l-43 -25z" />
<glyph unicode="&#xed;" horiz-adv-x="206" d="M160 404l-50 -404h-70l50 404h70zM260 599l-126 -126l-37 25l103 139z" />
<glyph unicode="&#xee;" horiz-adv-x="206" d="M160 404l-50 -404h-70l50 404h70zM151 564l-89 -91l-34 37l132 132l86 -132l-38 -36z" />
<glyph unicode="&#xef;" horiz-adv-x="206" d="M160 404l-50 -404h-70l50 404h70zM82 590q17 0 28.5 -13t11.5 -32q0 -18 -12.5 -31t-30.5 -13q-17 0 -29 12.5t-12 30.5q0 20 12.5 33t31.5 13zM200 590q17 0 28.5 -13t11.5 -32q0 -18 -12.5 -31t-30.5 -13q-17 0 -29 12.5t-12 30.5q0 20 12.5 33t31.5 13z" />
<glyph unicode="&#xf0;" horiz-adv-x="513" d="M152 693l33 43q27 -12 69 -37t58 -39l102 49l40 -44l-95 -46q119 -125 119 -343q0 -136 -56 -210q-62 -79 -168 -79q-94 0 -155.5 59.5t-61.5 149.5q0 93 65 157t159 64q51 0 83.5 -17t61.5 -59q-2 66 -30.5 136t-72.5 114l-101 -51l-39 43l93 47q-3 2 -6.5 4.5t-5.5 4 t-3 1.5q-85 51 -89 53zM259 353q-64 0 -107 -44.5t-43 -110.5q0 -63 41 -105t103 -42q63 0 104.5 44.5t41.5 111.5q0 65 -39 105.5t-101 40.5z" />
<glyph unicode="&#xf1;" horiz-adv-x="464" d="M160 404l-7 -50q38 35 64 47.5t62 12.5q56 0 89 -32t33 -86q0 -28 -6 -71l-27 -225h-70l29 236q4 38 4 49q0 65 -71 65q-48 0 -83 -33q-19 -18 -27.5 -39.5t-13.5 -65.5l-26 -212h-70l50 404h70zM350 597l41 -23q-39 -71 -84 -71q-24 0 -65 28q-20 14 -33 14 q-17 0 -37 -41l-41 24q22 40 40 55.5t41 15.5q20 0 62 -26q24 -16 33 -16q20 0 43 40z" />
<glyph unicode="&#xf2;" horiz-adv-x="513" d="M262 417q92 0 150.5 -59.5t58.5 -152.5q0 -92 -63.5 -155t-155.5 -63t-153.5 59.5t-61.5 149.5q0 93 65 157t160 64zM259 353q-64 0 -107 -44.5t-43 -110.5q0 -63 41 -105t103 -42q63 0 104.5 44.5t41.5 111.5q0 65 -39 105.5t-101 40.5zM199 600l62 37l74 -139l-43 -25z " />
<glyph unicode="&#xf3;" horiz-adv-x="513" d="M262 417q92 0 150.5 -59.5t58.5 -152.5q0 -92 -63.5 -155t-155.5 -63t-153.5 59.5t-61.5 149.5q0 93 65 157t160 64zM259 353q-64 0 -107 -44.5t-43 -110.5q0 -63 41 -105t103 -42q63 0 104.5 44.5t41.5 111.5q0 65 -39 105.5t-101 40.5zM418 599l-139 -126l-37 25 l117 139z" />
<glyph unicode="&#xf4;" horiz-adv-x="513" d="M262 417q92 0 150.5 -59.5t58.5 -152.5q0 -92 -63.5 -155t-155.5 -63t-153.5 59.5t-61.5 149.5q0 93 65 157t160 64zM259 353q-64 0 -107 -44.5t-43 -110.5q0 -63 41 -105t103 -42q63 0 104.5 44.5t41.5 111.5q0 65 -39 105.5t-101 40.5zM297 567l-102 -94l-34 37 l145 132l99 -132l-37 -36z" />
<glyph unicode="&#xf5;" horiz-adv-x="513" d="M262 417q92 0 150.5 -59.5t58.5 -152.5q0 -92 -63.5 -155t-155.5 -63t-153.5 59.5t-61.5 149.5q0 93 65 157t160 64zM259 353q-64 0 -107 -44.5t-43 -110.5q0 -63 41 -105t103 -42q63 0 104.5 44.5t41.5 111.5q0 65 -39 105.5t-101 40.5zM383 597l41 -23q-39 -71 -84 -71 q-24 0 -65 28q-20 14 -33 14q-17 0 -37 -41l-41 24q22 40 40 55.5t41 15.5q20 0 62 -26q24 -16 33 -16q20 0 43 40z" />
<glyph unicode="&#xf6;" horiz-adv-x="513" d="M262 417q92 0 150.5 -59.5t58.5 -152.5q0 -92 -63.5 -155t-155.5 -63t-153.5 59.5t-61.5 149.5q0 93 65 157t160 64zM259 353q-64 0 -107 -44.5t-43 -110.5q0 -63 41 -105t103 -42q63 0 104.5 44.5t41.5 111.5q0 65 -39 105.5t-101 40.5zM218 590q17 0 28.5 -13t11.5 -32 q0 -18 -12.5 -31t-30.5 -13q-17 0 -29 12.5t-12 30.5q0 20 12.5 33t31.5 13zM373 590q17 0 28.5 -13t11.5 -32q0 -18 -12.5 -31t-30.5 -13q-17 0 -29 12.5t-12 30.5q0 20 12.5 33t31.5 13z" />
<glyph unicode="&#xf7;" horiz-adv-x="567" d="M300 244q20 0 34.5 -14.5t14.5 -34.5t-15 -34.5t-35 -14.5q-19 0 -33 14.5t-14 34.5t14 34.5t34 14.5zM293 535q20 0 34.5 -14.5t14.5 -34.5t-15 -34.5t-35 -14.5q-19 0 -33 14.5t-14 34.5t14 34.5t34 14.5zM61 310v60h471v-60h-471z" />
<glyph unicode="&#xf8;" horiz-adv-x="513" d="M108 36l-70 -59l-33 39l66 61q-34 61 -34 118q0 94 65 158t160 64q76 0 140 -49l64 57l35 -38l-64 -58q20 -42 26.5 -65t6.5 -56q0 -94 -62.5 -157.5t-155.5 -63.5q-79 0 -144 49zM381 281l-220 -198q39 -32 92 -32q64 0 104.5 44.5t40.5 113.5q0 37 -17 72zM126 125 l222 197q-35 31 -89 31q-64 0 -107 -44.5t-43 -110.5q0 -36 17 -73z" />
<glyph unicode="&#xf9;" horiz-adv-x="464" d="M417 404l-29 -238q-10 -89 -45 -126q-48 -50 -132 -50q-71 0 -112 36.5t-41 100.5q0 28 4 52l27 225h70l-28 -232q-3 -24 -3 -44q0 -34 23.5 -54t63.5 -20q55 0 81 36q16 22 21 71l30 243h70zM177 600l62 37l74 -139l-43 -25z" />
<glyph unicode="&#xfa;" horiz-adv-x="464" d="M417 404l-29 -238q-10 -89 -45 -126q-48 -50 -132 -50q-71 0 -112 36.5t-41 100.5q0 28 4 52l27 225h70l-28 -232q-3 -24 -3 -44q0 -34 23.5 -54t63.5 -20q55 0 81 36q16 22 21 71l30 243h70zM394 599l-139 -126l-37 25l117 139z" />
<glyph unicode="&#xfb;" horiz-adv-x="464" d="M417 404l-29 -238q-10 -89 -45 -126q-48 -50 -132 -50q-71 0 -112 36.5t-41 100.5q0 28 4 52l27 225h70l-28 -232q-3 -24 -3 -44q0 -34 23.5 -54t63.5 -20q55 0 81 36q16 22 21 71l30 243h70zM279 567l-102 -94l-34 37l145 132l99 -132l-37 -36z" />
<glyph unicode="&#xfc;" horiz-adv-x="464" d="M417 404l-29 -238q-10 -89 -45 -126q-48 -50 -132 -50q-71 0 -112 36.5t-41 100.5q0 28 4 52l27 225h70l-28 -232q-3 -24 -3 -44q0 -34 23.5 -54t63.5 -20q55 0 81 36q16 22 21 71l30 243h70zM195 590q17 0 28.5 -13t11.5 -32q0 -18 -12.5 -31t-30.5 -13q-17 0 -29 12.5 t-12 30.5q0 20 12.5 33t31.5 13zM350 590q17 0 28.5 -13t11.5 -32q0 -18 -12.5 -31t-30.5 -13q-17 0 -29 12.5t-12 30.5q0 20 12.5 33t31.5 13z" />
<glyph unicode="&#xfd;" horiz-adv-x="424" d="M438 404l-357 -633h-80l153 267l-132 366h75l99 -289l163 289h79zM371 599l-139 -126l-37 25l117 139z" />
<glyph unicode="&#xfe;" horiz-adv-x="527" d="M199 729l-46 -380q39 37 69 51t73 14q82 0 136 -56.5t54 -141.5q0 -95 -62.5 -160.5t-152.5 -65.5q-49 0 -82 17t-70 63l-37 -303h-70l118 962h70zM282 350q-64 0 -107.5 -46.5t-43.5 -115.5q0 -59 38 -96.5t97 -37.5q62 0 104.5 44.5t42.5 110.5q0 62 -36.5 101.5 t-94.5 39.5z" />
<glyph unicode="&#xff;" horiz-adv-x="424" d="M438 404l-357 -633h-80l153 267l-132 366h75l99 -289l163 289h79zM170 590q17 0 28.5 -13t11.5 -32q0 -18 -12.5 -31t-30.5 -13q-17 0 -29 12.5t-12 30.5q0 20 12.5 33t31.5 13zM325 590q17 0 28.5 -13t11.5 -32q0 -18 -12.5 -31t-30.5 -13q-17 0 -29 12.5t-12 30.5 q0 20 12.5 33t31.5 13z" />
<glyph unicode="&#x100;" horiz-adv-x="617" d="M180 186l-97 -186h-81l371 707l206 -707h-76l-52 186h-271zM215 254h215l-75 273zM246 820h282l-7 -55h-282z" />
<glyph unicode="&#x101;" horiz-adv-x="523" d="M477 404l-50 -404h-70l7 57q-38 -38 -68.5 -52.5t-71.5 -14.5q-83 0 -135.5 55t-52.5 141q0 100 60 164t153 64q49 0 82.5 -17t67.5 -59l8 66h70zM255 350q-62 0 -104.5 -46t-42.5 -114q0 -59 37 -97.5t92 -38.5q61 0 105.5 48.5t44.5 115.5q0 58 -37 95t-95 37zM181 572 h252l-7 -55h-252z" />
<glyph unicode="&#x102;" horiz-adv-x="617" d="M180 186l-97 -186h-81l371 707l206 -707h-76l-52 186h-271zM215 254h215l-75 273zM269 862h54v-6v-11q2 -24 18 -39.5t41 -15.5q63 0 89 72h53q-16 -60 -54.5 -94t-91.5 -34q-50 0 -79.5 30.5t-29.5 83.5v14z" />
<glyph unicode="&#x103;" horiz-adv-x="523" d="M477 404l-50 -404h-70l7 57q-38 -38 -68.5 -52.5t-71.5 -14.5q-83 0 -135.5 55t-52.5 141q0 100 60 164t153 64q49 0 82.5 -17t67.5 -59l8 66h70zM255 350q-62 0 -104.5 -46t-42.5 -114q0 -59 37 -97.5t92 -38.5q61 0 105.5 48.5t44.5 115.5q0 58 -37 95t-95 37zM192 612 h53q1 -74 56 -74q26 0 47.5 20t32.5 54h53q-15 -58 -52.5 -93t-85.5 -35q-47 0 -75.5 31t-28.5 82v15z" />
<glyph unicode="&#x104;" horiz-adv-x="617" d="M373 707l206 -707q-56 -46 -69.5 -60.5t-13.5 -32.5q0 -16 10.5 -25.5t27.5 -9.5q19 0 48 12l-12 -62q-30 -10 -50 -10q-37 0 -63 22t-26 54q0 58 95 112h-23l-52 186h-271l-97 -186h-81zM215 254h215l-75 273z" />
<glyph unicode="&#x105;" horiz-adv-x="523" d="M427 0l-17 -12q-59 -42 -59 -75q0 -13 9.5 -22t23.5 -9q22 0 48 13l-13 -55q-30 -13 -59 -13q-30 0 -51 19t-21 46q0 54 86 108h-17l7 57q-38 -38 -68.5 -52.5t-71.5 -14.5q-83 0 -135.5 55t-52.5 141q0 100 60 164t153 64q49 0 82.5 -17t67.5 -59l8 66h70zM255 350 q-62 0 -104.5 -46t-42.5 -114q0 -59 37 -97.5t92 -38.5q61 0 105.5 48.5t44.5 115.5q0 58 -37 95t-95 37z" />
<glyph unicode="&#x106;" horiz-adv-x="643" d="M633 595l-10 -84q-38 47 -95.5 73t-123.5 26q-115 0 -190 -83.5t-75 -212.5q0 -118 69 -187.5t186 -69.5q106 0 186 67l-11 -89q-92 -48 -186 -48q-142 0 -230.5 91.5t-88.5 237.5q0 158 96 261t242 103q129 0 231 -85zM562 842l-136 -119l-37 25l113 133z" />
<glyph unicode="&#x107;" horiz-adv-x="411" d="M393 363l-9 -76q-59 66 -129 66q-64 0 -105.5 -45.5t-41.5 -115.5q0 -63 39 -102t102 -39q57 0 111 46l-9 -79q-55 -31 -113 -31q-89 0 -145.5 57t-56.5 146q0 98 61.5 162.5t154.5 64.5q42 0 73.5 -12t67.5 -42zM405 599l-139 -126l-37 25l117 139z" />
<glyph unicode="&#x108;" horiz-adv-x="643" d="M633 595l-10 -84q-38 47 -95.5 73t-123.5 26q-115 0 -190 -83.5t-75 -212.5q0 -118 69 -187.5t186 -69.5q106 0 186 67l-11 -89q-92 -48 -186 -48q-142 0 -230.5 91.5t-88.5 237.5q0 158 96 261t242 103q129 0 231 -85zM440 809l-111 -86l-38 37l159 122l112 -122 l-41 -36z" />
<glyph unicode="&#x109;" horiz-adv-x="411" d="M393 363l-9 -76q-59 66 -129 66q-64 0 -105.5 -45.5t-41.5 -115.5q0 -63 39 -102t102 -39q57 0 111 46l-9 -79q-55 -31 -113 -31q-89 0 -145.5 57t-56.5 146q0 98 61.5 162.5t154.5 64.5q42 0 73.5 -12t67.5 -42zM265 567l-102 -94l-34 37l145 132l99 -132l-37 -36z" />
<glyph unicode="&#x10a;" horiz-adv-x="643" d="M633 595l-10 -84q-38 47 -95.5 73t-123.5 26q-115 0 -190 -83.5t-75 -212.5q0 -118 69 -187.5t186 -69.5q106 0 186 67l-11 -89q-92 -48 -186 -48q-142 0 -230.5 91.5t-88.5 237.5q0 158 96 261t242 103q129 0 231 -85zM441 843q19 0 32.5 -14t13.5 -34t-14.5 -35 t-34.5 -15q-19 0 -33 14.5t-14 34.5t14.5 34.5t35.5 14.5z" />
<glyph unicode="&#x10b;" horiz-adv-x="411" d="M393 363l-9 -76q-59 66 -129 66q-64 0 -105.5 -45.5t-41.5 -115.5q0 -63 39 -102t102 -39q57 0 111 46l-9 -79q-55 -31 -113 -31q-89 0 -145.5 57t-56.5 146q0 98 61.5 162.5t154.5 64.5q42 0 73.5 -12t67.5 -42zM276 590q18 0 30 -13t12 -33q0 -18 -13 -31.5t-31 -13.5 t-30.5 12.5t-12.5 31.5q0 20 13 33.5t32 13.5z" />
<glyph unicode="&#x10c;" horiz-adv-x="643" d="M633 595l-10 -84q-38 47 -95.5 73t-123.5 26q-115 0 -190 -83.5t-75 -212.5q0 -118 69 -187.5t186 -69.5q106 0 186 67l-11 -89q-92 -48 -186 -48q-142 0 -230.5 91.5t-88.5 237.5q0 158 96 261t242 103q129 0 231 -85zM437 796l111 86l38 -37l-159 -122l-112 122l41 36z " />
<glyph unicode="&#x10d;" horiz-adv-x="411" d="M393 363l-9 -76q-59 66 -129 66q-64 0 -105.5 -45.5t-41.5 -115.5q0 -63 39 -102t102 -39q57 0 111 46l-9 -79q-55 -31 -113 -31q-89 0 -145.5 57t-56.5 146q0 98 61.5 162.5t154.5 64.5q42 0 73.5 -12t67.5 -42zM273 548l101 94l34 -37l-145 -132l-99 132l38 36z" />
<glyph unicode="&#x10e;" horiz-adv-x="635" d="M144 667h134q124 0 184 -34q63 -36 100 -110t37 -165q0 -110 -51 -199.5t-137 -128.5q-38 -17 -78.5 -23.5t-115.5 -6.5h-155zM209 599l-65 -531h83q66 0 105 8.5t72 29.5q54 34 87 104t33 150q0 78 -32 137.5t-86 82.5q-45 19 -124 19h-73zM350 796l111 86l38 -37 l-159 -122l-112 122l41 36z" />
<glyph unicode="&#x10f;" horiz-adv-x="627" d="M524 729l-89 -729h-70l7 54q-37 -37 -67 -50.5t-71 -13.5q-85 0 -141 56.5t-56 142.5q0 96 61.5 160.5t152.5 64.5q49 0 83.5 -18.5t70.5 -64.5l49 398h70zM257 350q-63 0 -105.5 -46t-42.5 -115q0 -59 37.5 -97t95.5 -38q61 0 105 49t44 117q0 57 -37.5 93.5t-96.5 36.5 zM618 733l62 -26l-86 -149l-42 18z" />
<glyph unicode="&#x110;" horiz-adv-x="635" d="M144 667h134q124 0 184 -34q63 -36 100 -110t37 -165q0 -110 -51 -199.5t-137 -128.5q-38 -17 -78.5 -23.5t-115.5 -6.5h-155l41 330h-67l8 67h67zM209 599l-25 -202h167l-8 -67h-167l-32 -262h83q66 0 105 8.5t72 29.5q54 34 87 104t33 150q0 78 -32 137.5t-86 82.5 q-45 19 -124 19h-73z" />
<glyph unicode="&#x111;" horiz-adv-x="531" d="M524 729l-11 -93h60l-7 -60h-60l-71 -576h-70l7 54q-37 -37 -67 -50.5t-71 -13.5q-85 0 -141 56.5t-56 142.5q0 96 61.5 160.5t152.5 64.5q49 0 83.5 -18.5t70.5 -64.5l31 245h-120l7 60h120l11 93h70zM257 350q-63 0 -105.5 -46t-42.5 -115q0 -59 37.5 -97t95.5 -38 q61 0 105 49t44 117q0 57 -37.5 93.5t-96.5 36.5z" />
<glyph unicode="&#x112;" horiz-adv-x="467" d="M471 667l-9 -68h-253l-25 -204h253l-8 -68h-253l-32 -259h253l-8 -68h-327l82 667h327zM184 820h282l-7 -55h-282z" />
<glyph unicode="&#x113;" horiz-adv-x="469" d="M432 185h-324q1 -52 22 -82q38 -52 109 -52q70 0 112 54l54 -32q-62 -86 -167 -86q-91 0 -146.5 54.5t-55.5 143.5q0 100 60 166t149 66q67 0 116.5 -40t63.5 -106q7 -36 7 -86zM114 243h246q-4 52 -35.5 81t-82.5 29q-63 0 -99 -45q-19 -23 -29 -65zM152 572h252l-7 -55 h-252z" />
<glyph unicode="&#x114;" horiz-adv-x="467" d="M471 667l-9 -68h-253l-25 -204h253l-8 -68h-253l-32 -259h253l-8 -68h-327l82 667h327zM205 862h54v-6v-11q2 -24 18 -39.5t41 -15.5q63 0 89 72h53q-16 -60 -54.5 -94t-91.5 -34q-50 0 -79.5 30.5t-29.5 83.5v14z" />
<glyph unicode="&#x115;" horiz-adv-x="469" d="M432 185h-324q1 -52 22 -82q38 -52 109 -52q70 0 112 54l54 -32q-62 -86 -167 -86q-91 0 -146.5 54.5t-55.5 143.5q0 100 60 166t149 66q67 0 116.5 -40t63.5 -106q7 -36 7 -86zM114 243h246q-4 52 -35.5 81t-82.5 29q-63 0 -99 -45q-19 -23 -29 -65zM164 612h53 q1 -74 56 -74q26 0 47.5 20t32.5 54h53q-15 -58 -52.5 -93t-85.5 -35q-47 0 -75.5 31t-28.5 82v15z" />
<glyph unicode="&#x116;" horiz-adv-x="467" d="M471 667l-9 -68h-253l-25 -204h253l-8 -68h-253l-32 -259h253l-8 -68h-327l82 667h327zM325 843q19 0 32.5 -14t13.5 -34t-14.5 -35t-34.5 -15q-19 0 -33 14.5t-14 34.5t14.5 34.5t35.5 14.5z" />
<glyph unicode="&#x117;" horiz-adv-x="469" d="M432 185h-324q1 -52 22 -82q38 -52 109 -52q70 0 112 54l54 -32q-62 -86 -167 -86q-91 0 -146.5 54.5t-55.5 143.5q0 100 60 166t149 66q67 0 116.5 -40t63.5 -106q7 -36 7 -86zM114 243h246q-4 52 -35.5 81t-82.5 29q-63 0 -99 -45q-19 -23 -29 -65zM274 590 q18 0 30 -13t12 -33q0 -18 -13 -31.5t-31 -13.5t-30.5 12.5t-12.5 31.5q0 20 13 33.5t32 13.5z" />
<glyph unicode="&#x118;" horiz-adv-x="467" d="M397 68l-8 -68q-27 -15 -57 -41q-32 -31 -32 -52q0 -16 10.5 -25.5t27.5 -9.5q18 0 47 12l-12 -62q-29 -10 -49 -10q-37 0 -63 22t-26 54q0 58 94 112h-267l82 667h327l-9 -68h-253l-25 -204h253l-8 -68h-253l-32 -259h253z" />
<glyph unicode="&#x119;" horiz-adv-x="469" d="M343 -105l-13 -55q-30 -13 -59 -13q-30 0 -51 19t-21 47q0 49 69 96q-16 -2 -39 -2q-85 0 -139 56t-54 142q0 100 59.5 166t149.5 66q67 0 116.5 -40t63.5 -106q7 -36 7 -86h-324q1 -52 22 -82q38 -52 109 -52q70 0 112 54l54 -32q-24 -35 -74 -69q-69 -50 -69 -91 q0 -13 9.5 -22t23.5 -9q23 0 48 13zM114 243h246q-4 52 -35.5 81t-82.5 29q-63 0 -99 -45q-19 -23 -29 -65z" />
<glyph unicode="&#x11a;" horiz-adv-x="467" d="M471 667l-9 -68h-253l-25 -204h253l-8 -68h-253l-32 -259h253l-8 -68h-327l82 667h327zM322 796l111 86l38 -37l-159 -122l-112 122l41 36z" />
<glyph unicode="&#x11b;" horiz-adv-x="469" d="M432 185h-324q1 -52 22 -82q38 -52 109 -52q70 0 112 54l54 -32q-62 -86 -167 -86q-91 0 -146.5 54.5t-55.5 143.5q0 100 60 166t149 66q67 0 116.5 -40t63.5 -106q7 -36 7 -86zM114 243h246q-4 52 -35.5 81t-82.5 29q-63 0 -99 -45q-19 -23 -29 -65zM272 548l101 94 l34 -37l-145 -132l-99 132l38 36z" />
<glyph unicode="&#x11c;" horiz-adv-x="745" d="M433 319h273q-12 -119 -65 -197q-43 -64 -111 -99.5t-148 -35.5q-138 0 -228.5 92.5t-90.5 233.5q0 73 26 143.5t72 119.5q95 104 245 104q182 0 284 -155l-51 -45q-29 47 -64 75q-72 55 -171 55q-116 0 -191 -84t-75 -213q0 -112 69.5 -184t177.5 -72q92 0 154.5 51 t83.5 143h-198zM448 809l-111 -86l-38 37l159 122l112 -122l-41 -36z" />
<glyph unicode="&#x11d;" horiz-adv-x="528" d="M482 404l-51 -410q-8 -68 -19.5 -102.5t-34.5 -61.5q-55 -66 -160 -66q-101 0 -155 60q-21 23 -29 49t-9 71h66q3 -49 21 -74q31 -42 103 -42q69 0 107 41q29 31 39 110l8 70q-37 -33 -68 -46t-70 -13q-83 0 -138 56.5t-55 141.5q0 96 62.5 161t154.5 65q47 0 80 -17 t70 -60l8 67h70zM260 350q-65 0 -108 -45.5t-43 -113.5q0 -59 38.5 -98t96.5 -39q62 0 106.5 46.5t44.5 112.5q0 62 -37 99.5t-98 37.5zM312 567l-102 -94l-34 37l145 132l99 -132l-37 -36z" />
<glyph unicode="&#x11e;" horiz-adv-x="745" d="M433 319h273q-12 -119 -65 -197q-43 -64 -111 -99.5t-148 -35.5q-138 0 -228.5 92.5t-90.5 233.5q0 73 26 143.5t72 119.5q95 104 245 104q182 0 284 -155l-51 -45q-29 47 -64 75q-72 55 -171 55q-116 0 -191 -84t-75 -213q0 -112 69.5 -184t177.5 -72q92 0 154.5 51 t83.5 143h-198zM333 862h54v-6v-11q2 -24 18 -39.5t41 -15.5q63 0 89 72h53q-16 -60 -54.5 -94t-91.5 -34q-50 0 -79.5 30.5t-29.5 83.5v14z" />
<glyph unicode="&#x11f;" horiz-adv-x="528" d="M482 404l-51 -410q-8 -68 -19.5 -102.5t-34.5 -61.5q-55 -66 -160 -66q-101 0 -155 60q-21 23 -29 49t-9 71h66q3 -49 21 -74q31 -42 103 -42q69 0 107 41q29 31 39 110l8 70q-37 -33 -68 -46t-70 -13q-83 0 -138 56.5t-55 141.5q0 96 62.5 161t154.5 65q47 0 80 -17 t70 -60l8 67h70zM260 350q-65 0 -108 -45.5t-43 -113.5q0 -59 38.5 -98t96.5 -39q62 0 106.5 46.5t44.5 112.5q0 62 -37 99.5t-98 37.5zM195 612h53q1 -74 56 -74q26 0 47.5 20t32.5 54h53q-15 -58 -52.5 -93t-85.5 -35q-47 0 -75.5 31t-28.5 82v15z" />
<glyph unicode="&#x120;" horiz-adv-x="745" d="M433 319h273q-12 -119 -65 -197q-43 -64 -111 -99.5t-148 -35.5q-138 0 -228.5 92.5t-90.5 233.5q0 73 26 143.5t72 119.5q95 104 245 104q182 0 284 -155l-51 -45q-29 47 -64 75q-72 55 -171 55q-116 0 -191 -84t-75 -213q0 -112 69.5 -184t177.5 -72q92 0 154.5 51 t83.5 143h-198zM450 843q19 0 32.5 -14t13.5 -34t-14.5 -35t-34.5 -15q-19 0 -33 14.5t-14 34.5t14.5 34.5t35.5 14.5z" />
<glyph unicode="&#x121;" horiz-adv-x="528" d="M482 404l-51 -410q-8 -68 -19.5 -102.5t-34.5 -61.5q-55 -66 -160 -66q-101 0 -155 60q-21 23 -29 49t-9 71h66q3 -49 21 -74q31 -42 103 -42q69 0 107 41q29 31 39 110l8 70q-37 -33 -68 -46t-70 -13q-83 0 -138 56.5t-55 141.5q0 96 62.5 161t154.5 65q47 0 80 -17 t70 -60l8 67h70zM260 350q-65 0 -108 -45.5t-43 -113.5q0 -59 38.5 -98t96.5 -39q62 0 106.5 46.5t44.5 112.5q0 62 -37 99.5t-98 37.5zM304 590q18 0 30 -13t12 -33q0 -18 -13 -31.5t-31 -13.5t-30.5 12.5t-12.5 31.5q0 20 13 33.5t32 13.5z" />
<glyph unicode="&#x122;" horiz-adv-x="745" d="M433 319h273q-12 -119 -65 -197q-43 -64 -111 -99.5t-148 -35.5q-138 0 -228.5 92.5t-90.5 233.5q0 73 26 143.5t72 119.5q95 104 245 104q182 0 284 -155l-51 -45q-29 47 -64 75q-72 55 -171 55q-116 0 -191 -84t-75 -213q0 -112 69.5 -184t177.5 -72q92 0 154.5 51 t83.5 143h-198zM340 -53l62 -26l-83 -149l-45 21z" />
<glyph unicode="&#x123;" horiz-adv-x="528" d="M482 404l-51 -410q-8 -68 -19.5 -102.5t-34.5 -61.5q-55 -66 -160 -66q-101 0 -155 60q-21 23 -29 49t-9 71h66q3 -49 21 -74q31 -42 103 -42q69 0 107 41q29 31 39 110l8 70q-37 -33 -68 -46t-70 -13q-83 0 -138 56.5t-55 141.5q0 96 62.5 161t154.5 65q47 0 80 -17 t70 -60l8 67h70zM260 350q-65 0 -108 -45.5t-43 -113.5q0 -59 38.5 -98t96.5 -39q62 0 106.5 46.5t44.5 112.5q0 62 -37 99.5t-98 37.5zM319 473l-63 26l86 149l42 -18z" />
<glyph unicode="&#x124;" horiz-adv-x="650" d="M614 667l-83 -667h-73l41 332h-323l-41 -332h-73l82 667h73l-32 -267h322l33 267h74zM397 809l-111 -86l-38 37l159 122l112 -122l-41 -36z" />
<glyph unicode="&#x125;" horiz-adv-x="462" d="M200 729l-46 -370q34 32 59.5 43.5t61.5 11.5q56 0 91 -30.5t35 -80.5q0 -19 -5 -59l-30 -244h-70l30 245q4 32 4 40q0 31 -19 48t-54 17q-50 0 -84 -34q-27 -28 -36 -96l-27 -220h-70l90 729h70zM219 821l-111 -86l-38 37l159 122l112 -122l-41 -36z" />
<glyph unicode="&#x126;" horiz-adv-x="650" d="M667 562l-8 -67h-67l-61 -495h-73l41 332h-323l-41 -332h-73l61 495h-67l8 67h67l13 105h73l-13 -105h323l13 105h73l-13 -105h67zM196 495l-12 -95h323l12 95h-323z" />
<glyph unicode="&#x127;" horiz-adv-x="462" d="M130 729h70l-12 -93h120l-7 -60h-120l-27 -217q34 32 59.5 43.5t61.5 11.5q56 0 91 -30.5t35 -80.5q0 -19 -5 -59l-30 -244h-70l30 245q4 32 4 40q0 31 -19 48t-54 17q-50 0 -84 -34q-27 -28 -36 -96l-27 -220h-70l71 576h-60l7 60h60z" />
<glyph unicode="&#x128;" horiz-adv-x="254" d="M217 667l-82 -667h-73l82 667h73zM288 845l43 -23q-41 -70 -87 -70q-23 0 -80 29q-23 11 -34 11q-21 0 -41 -39l-43 24q23 38 42 54t42 16q21 0 78 -27q29 -13 37 -13q20 0 43 38z" />
<glyph unicode="&#x129;" horiz-adv-x="206" d="M160 404l-50 -404h-70l50 404h70zM230 597l41 -23q-39 -71 -84 -71q-24 0 -65 28q-20 14 -33 14q-17 0 -37 -41l-41 24q22 40 40 55.5t41 15.5q20 0 62 -26q24 -16 33 -16q20 0 43 40z" />
<glyph unicode="&#x12a;" horiz-adv-x="254" d="M218 667l-83 -667h-73l82 667h74zM92 820h215l-6 -55h-216z" />
<glyph unicode="&#x12b;" horiz-adv-x="206" d="M160 404l-50 -404h-70l50 404h70zM49 572h192l-7 -55h-192z" />
<glyph unicode="&#x12c;" horiz-adv-x="254" d="M218 667l-83 -667h-73l82 667h74zM75 862h54v-6v-11q2 -24 18 -39.5t41 -15.5q63 0 89 72h53q-16 -60 -54.5 -94t-91.5 -34q-50 0 -79.5 30.5t-29.5 83.5v14z" />
<glyph unicode="&#x12d;" horiz-adv-x="206" d="M160 404l-50 -404h-70l50 404h70zM41 609h50q0 -66 48 -66q19 0 39 19t30 47h50q-16 -55 -39 -79q-42 -41 -85 -41t-67.5 29t-25.5 79v12z" />
<glyph unicode="&#x12e;" horiz-adv-x="254" d="M218 667l-82 -667q-56 -54 -56 -97q0 -13 8.5 -22t21.5 -9q12 0 35 11l-11 -61q-20 -10 -38 -10q-33 0 -57 23t-24 54q0 37 32 72q16 16 42 39h-27l82 667h74z" />
<glyph unicode="&#x12f;" horiz-adv-x="206" d="M159 404l-50 -404q-53 -59 -53 -92q0 -26 27 -26q13 0 35 13l-13 -55q-22 -13 -45 -13q-28 0 -46.5 18t-18.5 46q0 26 15 48.5t59 60.5h-30l50 404h70zM147 624q17 0 29.5 -12.5t12.5 -30.5t-13 -31.5t-31 -13.5q-17 0 -29 12.5t-12 30.5q0 19 13 32t30 13z" />
<glyph unicode="&#x130;" horiz-adv-x="254" d="M218 667l-83 -667h-73l82 667h74zM198 843q19 0 32.5 -14t13.5 -34t-14.5 -35t-34.5 -15q-19 0 -33 14.5t-14 34.5t14.5 34.5t35.5 14.5z" />
<glyph unicode="&#x131;" horiz-adv-x="206" d="M160 404l-50 -404h-70l50 404h70z" />
<glyph unicode="&#x132;" horiz-adv-x="606" d="M218 667l-83 -667h-73l82 667h74zM570 667l-57 -464q-13 -115 -37 -152q-38 -64 -116 -64q-76 0 -127 70l45 52q21 -29 38 -40.5t40 -11.5q38 0 56 31t28 116l57 463h73z" />
<glyph unicode="&#x133;" horiz-adv-x="405" d="M148 624q17 0 29.5 -12.5t12.5 -30.5t-13 -31.5t-31 -13.5q-17 0 -29 12.5t-12 30.5q0 19 13 32t30 13zM160 404l-50 -404h-70l50 404h70zM348 625q17 0 29 -12.5t12 -30.5t-13 -31.5t-31 -13.5q-17 0 -29 12.5t-12 30.5q0 19 13 32t31 13zM359 404l-78 -637h-70l78 637 h70z" />
<glyph unicode="&#x134;" horiz-adv-x="359" d="M323 667l-57 -464q-13 -115 -37 -152q-38 -64 -116 -64q-76 0 -127 70l45 52q21 -29 38 -40.5t40 -11.5q38 0 56 31t28 116l57 463h73zM299 809l-111 -86l-38 37l159 122l112 -122l-41 -36z" />
<glyph unicode="&#x135;" horiz-adv-x="206" d="M159 404l-78 -637h-70l78 637h70zM140 567l-102 -94l-34 37l145 132l99 -132l-37 -36z" />
<glyph unicode="&#x136;" horiz-adv-x="569" d="M217 667l-35 -290l298 290h96l-329 -314l284 -353h-94l-261 329l-41 -329h-73l82 667h73zM241 -53l62 -26l-83 -149l-45 21z" />
<glyph unicode="&#x137;" horiz-adv-x="431" d="M200 729l-60 -489l187 164h97l-221 -186l199 -218h-92l-176 198l-24 -198h-70l90 729h70zM171 -53l62 -26l-86 -149l-42 18z" />
<glyph unicode="&#x138;" horiz-adv-x="431" d="M160 404l-20 -164l187 164h97l-221 -186l199 -218h-92l-176 198l-24 -198h-70l50 404h70z" />
<glyph unicode="&#x139;" horiz-adv-x="384" d="M217 667l-73 -599h203l-8 -68h-277l82 667h73zM323 842l-136 -119l-37 25l113 133z" />
<glyph unicode="&#x13a;" horiz-adv-x="206" d="M200 729l-90 -729h-70l90 729h70zM298 889l-128 -119l-38 25l107 132z" />
<glyph unicode="&#x13b;" horiz-adv-x="384" d="M217 667l-73 -599h203l-8 -68h-277l82 667h73zM174 -53l62 -26l-83 -149l-45 21z" />
<glyph unicode="&#x13c;" horiz-adv-x="206" d="M200 729l-90 -729h-70l90 729h70zM44 -53l62 -26l-86 -149l-42 18z" />
<glyph unicode="&#x13d;" horiz-adv-x="384" d="M217 667l-73 -599h203l-8 -68h-277l82 667h73zM331 674l62 -26l-83 -150l-45 22z" />
<glyph unicode="&#x13e;" horiz-adv-x="302" d="M200 729l-90 -729h-70l90 729h70zM293 733l62 -26l-86 -149l-42 18z" />
<glyph unicode="&#x13f;" horiz-adv-x="384" d="M217 667l-73 -599h203l-8 -68h-277l82 667h73zM332 404q26 0 44 -18t18 -44q0 -24 -18.5 -42t-42.5 -18q-25 0 -42.5 18t-17.5 44q0 25 17 42.5t42 17.5z" />
<glyph unicode="&#x140;" horiz-adv-x="326" d="M200 729l-90 -729h-70l90 729h70zM283 424q26 0 44 -18t18 -44q0 -24 -18.5 -42t-42.5 -18q-25 0 -42.5 18t-17.5 44q0 25 17 42.5t42 17.5z" />
<glyph unicode="&#x141;" horiz-adv-x="384" d="M218 667l-34 -273l124 80l-10 -79l-124 -80l-30 -247h204l-9 -68h-276l34 284l-72 -47l10 79l72 47l37 304h74z" />
<glyph unicode="&#x142;" horiz-adv-x="206" d="M200 729l-39 -310l71 47l-9 -77l-71 -47l-42 -342h-70l38 313l-70 -47l9 76l71 48l42 339h70z" />
<glyph unicode="&#x143;" horiz-adv-x="742" d="M706 667l-86 -700l-421 550l-64 -517h-73l86 696l420 -549l64 520h74zM559 842l-136 -119l-37 25l113 133z" />
<glyph unicode="&#x144;" horiz-adv-x="464" d="M160 404l-7 -50q38 35 64 47.5t62 12.5q56 0 89 -32t33 -86q0 -28 -6 -71l-27 -225h-70l29 236q4 38 4 49q0 65 -71 65q-48 0 -83 -33q-19 -18 -27.5 -39.5t-13.5 -65.5l-26 -212h-70l50 404h70zM385 599l-139 -126l-37 25l117 139z" />
<glyph unicode="&#x145;" horiz-adv-x="742" d="M706 667l-86 -700l-421 550l-64 -517h-73l86 696l420 -549l64 520h74zM316 -53l62 -26l-83 -149l-45 21z" />
<glyph unicode="&#x146;" horiz-adv-x="464" d="M160 404l-7 -50q38 35 64 47.5t62 12.5q56 0 89 -32t33 -86q0 -28 -6 -71l-27 -225h-70l29 236q4 38 4 49q0 65 -71 65q-48 0 -83 -33q-19 -18 -27.5 -39.5t-13.5 -65.5l-26 -212h-70l50 404h70zM175 -53l62 -26l-86 -149l-42 18z" />
<glyph unicode="&#x147;" horiz-adv-x="742" d="M706 667l-86 -700l-421 550l-64 -517h-73l86 696l420 -549l64 520h74zM433 796l111 86l38 -37l-159 -122l-112 122l41 36z" />
<glyph unicode="&#x148;" horiz-adv-x="464" d="M160 404l-7 -50q38 35 64 47.5t62 12.5q56 0 89 -32t33 -86q0 -28 -6 -71l-27 -225h-70l29 236q4 38 4 49q0 65 -71 65q-48 0 -83 -33q-19 -18 -27.5 -39.5t-13.5 -65.5l-26 -212h-70l50 404h70zM257 548l101 94l34 -37l-145 -132l-99 132l38 36z" />
<glyph unicode="&#x149;" horiz-adv-x="555" d="M252 677l-124 -204l-42 23l112 210zM250 404l-6 -50q37 35 63.5 47.5t62.5 12.5q55 0 88.5 -32.5t33.5 -85.5q0 -29 -6 -71l-28 -225h-70l29 236q5 33 5 49q0 65 -71 65q-48 0 -84 -33q-18 -18 -26.5 -39.5t-13.5 -65.5l-26 -212h-70l49 404h70z" />
<glyph unicode="&#x14a;" horiz-adv-x="650" d="M144 667h73l-10 -86q48 55 91.5 77t102.5 22q87 0 137 -50t50 -137q0 -39 -6 -84l-31 -256q-14 -110 -58 -156q-61 -66 -163 -66q-37 0 -82 14l9 72q43 -16 77 -16q70 0 104 40q30 34 43 147l26 209q7 56 7 85q0 62 -34 95t-99 33q-102 0 -152 -80q-35 -56 -49 -168 l-44 -362h-74z" />
<glyph unicode="&#x14b;" horiz-adv-x="464" d="M160 404l-7 -50q38 35 64 47.5t62 12.5q56 0 89 -32t33 -86q0 -26 -6 -71l-16 -135q-9 -76 -38 -110q-40 -46 -103 -46q-25 0 -52 13l8 61q20 -10 41 -10q36 0 52 22.5t24 82.5l16 133q4 38 4 49q0 65 -71 65q-48 0 -83 -33q-19 -18 -27.5 -39.5t-13.5 -65.5l-26 -212 h-70l50 404h70z" />
<glyph unicode="&#x14c;" horiz-adv-x="785" d="M416 680q149 0 240.5 -91t91.5 -239q0 -155 -100.5 -259t-251.5 -104q-146 0 -239 92.5t-93 238.5q0 156 100 259t252 103zM418 610q-120 0 -199.5 -82.5t-79.5 -206.5q0 -115 73 -189.5t186 -74.5q118 0 196.5 84t78.5 210q0 118 -69.5 188.5t-185.5 70.5zM322 820h282 l-7 -55h-282z" />
<glyph unicode="&#x14d;" horiz-adv-x="513" d="M262 417q92 0 150.5 -59.5t58.5 -152.5q0 -92 -63.5 -155t-155.5 -63t-153.5 59.5t-61.5 149.5q0 93 65 157t160 64zM259 353q-64 0 -107 -44.5t-43 -110.5q0 -63 41 -105t103 -42q63 0 104.5 44.5t41.5 111.5q0 65 -39 105.5t-101 40.5zM171 572h252l-7 -55h-252z" />
<glyph unicode="&#x14e;" horiz-adv-x="785" d="M416 680q149 0 240.5 -91t91.5 -239q0 -155 -100.5 -259t-251.5 -104q-146 0 -239 92.5t-93 238.5q0 156 100 259t252 103zM418 610q-120 0 -199.5 -82.5t-79.5 -206.5q0 -115 73 -189.5t186 -74.5q118 0 196.5 84t78.5 210q0 118 -69.5 188.5t-185.5 70.5zM321 862h54 v-6v-11q2 -24 18 -39.5t41 -15.5q63 0 89 72h53q-16 -60 -54.5 -94t-91.5 -34q-50 0 -79.5 30.5t-29.5 83.5v14z" />
<glyph unicode="&#x14f;" horiz-adv-x="513" d="M262 417q92 0 150.5 -59.5t58.5 -152.5q0 -92 -63.5 -155t-155.5 -63t-153.5 59.5t-61.5 149.5q0 93 65 157t160 64zM259 353q-64 0 -107 -44.5t-43 -110.5q0 -63 41 -105t103 -42q63 0 104.5 44.5t41.5 111.5q0 65 -39 105.5t-101 40.5zM169 612h53q1 -74 56 -74 q26 0 47.5 20t32.5 54h53q-15 -58 -52.5 -93t-85.5 -35q-47 0 -75.5 31t-28.5 82v15z" />
<glyph unicode="&#x150;" horiz-adv-x="785" d="M416 680q149 0 240.5 -91t91.5 -239q0 -155 -100.5 -259t-251.5 -104q-146 0 -239 92.5t-93 238.5q0 156 100 259t252 103zM418 610q-120 0 -199.5 -82.5t-79.5 -206.5q0 -115 73 -189.5t186 -74.5q118 0 196.5 84t78.5 210q0 118 -69.5 188.5t-185.5 70.5zM512 846 l-130 -119l-31 21l110 133zM659 846l-130 -119l-31 21l110 133z" />
<glyph unicode="&#x151;" horiz-adv-x="513" d="M262 417q92 0 150.5 -59.5t58.5 -152.5q0 -92 -63.5 -155t-155.5 -63t-153.5 59.5t-61.5 149.5q0 93 65 157t160 64zM259 353q-64 0 -107 -44.5t-43 -110.5q0 -63 41 -105t103 -42q63 0 104.5 44.5t41.5 111.5q0 65 -39 105.5t-101 40.5zM363 604l-123 -131l-30 22 l99 142zM479 604l-122 -131l-30 22l99 142z" />
<glyph unicode="&#x152;" horiz-adv-x="1049" d="M1051 667l-8 -68h-258l-26 -206h261l-8 -68h-261l-32 -257h261l-8 -68h-335l13 109q-46 -48 -75 -69q-79 -53 -182 -53q-141 0 -235 94t-94 235q0 159 110 269q97 96 242 96q111 0 190 -56q28 -19 47.5 -41.5t47.5 -66.5l18 150h332zM415 612q-118 0 -197 -86t-79 -214 q0 -112 73.5 -184t186.5 -72q119 0 198 82t79 206q0 122 -68 190q-36 36 -88 57t-105 21z" />
<glyph unicode="&#x153;" horiz-adv-x="840" d="M803 184h-325q3 -61 28 -90q16 -19 45 -31t59 -12q71 0 113 60l55 -34q-66 -90 -168 -90q-118 0 -174 98q-64 -98 -182 -98q-94 0 -155.5 60t-61.5 152q0 94 63.5 156t160.5 62q126 0 186 -103q63 103 173 103q83 0 133 -56t50 -150v-27zM260 353q-65 0 -108 -44 t-43 -111q0 -64 41 -105.5t104 -41.5q66 0 111 45.5t45 111.5q0 64 -42 104.5t-108 40.5zM483 242h252q-4 53 -34.5 82t-83.5 29t-88 -29t-46 -82z" />
<glyph unicode="&#x154;" horiz-adv-x="513" d="M272 299l183 -299h-82l-175 295h-26l-37 -295h-73l82 667h109q94 0 142 -36q62 -49 62 -139q0 -54 -25.5 -98.5t-70.5 -69.5q-38 -20 -89 -25zM209 599l-30 -244h42q83 0 120 34q41 39 41 102q0 108 -130 108h-43zM414 842l-136 -119l-37 25l113 133z" />
<glyph unicode="&#x155;" horiz-adv-x="315" d="M160 404l-6 -46q31 31 54.5 43.5t52.5 12.5q33 0 66 -23l-43 -58q-27 14 -48 14q-32 0 -57 -25q-33 -33 -43 -114l-26 -208h-70l50 404h70zM337 599l-139 -126l-37 25l117 139z" />
<glyph unicode="&#x156;" horiz-adv-x="513" d="M272 299l183 -299h-82l-175 295h-26l-37 -295h-73l82 667h109q94 0 142 -36q62 -49 62 -139q0 -54 -25.5 -98.5t-70.5 -69.5q-38 -20 -89 -25zM209 599l-30 -244h42q83 0 120 34q41 39 41 102q0 108 -130 108h-43zM215 -53l62 -26l-83 -149l-45 21z" />
<glyph unicode="&#x157;" horiz-adv-x="315" d="M160 404l-5 -46q30 31 53.5 43.5t53.5 12.5q32 0 65 -23l-43 -58q-27 14 -48 14q-32 0 -57 -25q-33 -33 -43 -114l-26 -208h-70l50 404h70zM49 -53l62 -26l-86 -149l-42 18z" />
<glyph unicode="&#x158;" horiz-adv-x="513" d="M272 299l183 -299h-82l-175 295h-26l-37 -295h-73l82 667h109q94 0 142 -36q62 -49 62 -139q0 -54 -25.5 -98.5t-70.5 -69.5q-38 -20 -89 -25zM209 599l-30 -244h42q83 0 120 34q41 39 41 102q0 108 -130 108h-43zM292 796l111 86l38 -37l-159 -122l-112 122l41 36z" />
<glyph unicode="&#x159;" horiz-adv-x="315" d="M160 404l-6 -46q31 31 54.5 43.5t52.5 12.5q33 0 66 -23l-43 -58q-27 14 -48 14q-32 0 -57 -25q-33 -33 -43 -114l-26 -208h-70l50 404h70zM209 548l101 94l34 -37l-145 -132l-99 132l38 36z" />
<glyph unicode="&#x15a;" horiz-adv-x="482" d="M464 573l-51 -45q-44 83 -119 83q-47 0 -80 -31.5t-33 -77.5q0 -37 21 -62t84 -63q85 -51 116 -93t31 -105q0 -83 -56.5 -137.5t-142.5 -54.5t-146 55q-31 30 -57 87l58 35q18 -44 38 -65q42 -42 105 -42q56 0 91 35.5t35 92.5q0 41 -23 69t-91 69q-79 48 -107.5 85.5 t-28.5 94.5q0 78 52.5 128t134.5 50q109 0 169 -108zM435 842l-136 -119l-37 25l113 133z" />
<glyph unicode="&#x15b;" horiz-adv-x="347" d="M317 366l-44 -43q-40 31 -77 31q-29 0 -48 -15.5t-19 -38.5q0 -20 14.5 -34t56.5 -34q57 -27 78 -52.5t21 -67.5q0 -55 -40.5 -90t-103.5 -35q-89 0 -139 86l53 33q34 -55 86 -55q32 0 51.5 16.5t19.5 43.5q0 23 -13.5 36t-63.5 37q-49 23 -70.5 49t-21.5 64 q0 52 39.5 86.5t99.5 34.5q68 0 121 -52zM336 599l-139 -126l-37 25l117 139z" />
<glyph unicode="&#x15c;" horiz-adv-x="482" d="M464 573l-51 -45q-44 83 -119 83q-47 0 -80 -31.5t-33 -77.5q0 -37 21 -62t84 -63q85 -51 116 -93t31 -105q0 -83 -56.5 -137.5t-142.5 -54.5t-146 55q-31 30 -57 87l58 35q18 -44 38 -65q42 -42 105 -42q56 0 91 35.5t35 92.5q0 41 -23 69t-91 69q-79 48 -107.5 85.5 t-28.5 94.5q0 78 52.5 128t134.5 50q109 0 169 -108zM320 809l-111 -86l-38 37l159 122l112 -122l-41 -36z" />
<glyph unicode="&#x15d;" horiz-adv-x="347" d="M317 366l-44 -43q-40 31 -77 31q-29 0 -48 -15.5t-19 -38.5q0 -20 14.5 -34t56.5 -34q57 -27 78 -52.5t21 -67.5q0 -55 -40.5 -90t-103.5 -35q-89 0 -139 86l53 33q34 -55 86 -55q32 0 51.5 16.5t19.5 43.5q0 23 -13.5 36t-63.5 37q-49 23 -70.5 49t-21.5 64 q0 52 39.5 86.5t99.5 34.5q68 0 121 -52zM221 567l-102 -94l-34 37l145 132l99 -132l-37 -36z" />
<glyph unicode="&#x15e;" horiz-adv-x="482" d="M464 573l-51 -45q-44 83 -119 83q-47 0 -80 -31.5t-33 -77.5q0 -37 21 -62t84 -63q85 -51 116 -93t31 -105q0 -83 -56.5 -137.5t-142.5 -54.5t-146 55q-31 30 -57 87l58 35q18 -44 38 -65q42 -42 105 -42q56 0 91 35.5t35 92.5q0 41 -23 69t-91 69q-79 48 -107.5 85.5 t-28.5 94.5q0 78 52.5 128t134.5 50q109 0 169 -108zM257 -83l-106 -122l-39 25l84 133z" />
<glyph unicode="&#x15f;" horiz-adv-x="347" d="M317 366l-44 -43q-40 31 -77 31q-29 0 -48 -15.5t-19 -38.5q0 -20 14.5 -34t56.5 -34q57 -27 78 -52.5t21 -67.5q0 -55 -40.5 -90t-103.5 -35q-89 0 -139 86l53 33q34 -55 86 -55q32 0 51.5 16.5t19.5 43.5q0 23 -13.5 36t-63.5 37q-49 23 -70.5 49t-21.5 64 q0 52 39.5 86.5t99.5 34.5q68 0 121 -52zM187 -83l-107 -122l-35 25l84 133z" />
<glyph unicode="&#x160;" horiz-adv-x="482" d="M464 573l-51 -45q-44 83 -119 83q-47 0 -80 -31.5t-33 -77.5q0 -37 21 -62t84 -63q85 -51 116 -93t31 -105q0 -83 -56.5 -137.5t-142.5 -54.5t-146 55q-31 30 -57 87l58 35q18 -44 38 -65q42 -42 105 -42q56 0 91 35.5t35 92.5q0 41 -23 69t-91 69q-79 48 -107.5 85.5 t-28.5 94.5q0 78 52.5 128t134.5 50q109 0 169 -108zM313 796l111 86l38 -37l-159 -122l-112 122l41 36z" />
<glyph unicode="&#x161;" horiz-adv-x="347" d="M317 366l-44 -43q-40 31 -77 31q-29 0 -48 -15.5t-19 -38.5q0 -20 14.5 -34t56.5 -34q57 -27 78 -52.5t21 -67.5q0 -55 -40.5 -90t-103.5 -35q-89 0 -139 86l53 33q34 -55 86 -55q32 0 51.5 16.5t19.5 43.5q0 23 -13.5 36t-63.5 37q-49 23 -70.5 49t-21.5 64 q0 52 39.5 86.5t99.5 34.5q68 0 121 -52zM212 548l101 94l34 -37l-145 -132l-99 132l38 36z" />
<glyph unicode="&#x162;" horiz-adv-x="419" d="M295 599l-74 -599h-73l74 599h-166l8 68h400l-9 -68h-160zM158 -53l62 -26l-83 -149l-45 21z" />
<glyph unicode="&#x163;" horiz-adv-x="230" d="M158 345l-43 -345h-70l43 345h-50l7 63h51l20 167h70l-20 -167h79l-7 -63h-80zM52 -53l62 -26l-86 -149l-42 18z" />
<glyph unicode="&#x164;" horiz-adv-x="419" d="M295 599l-74 -599h-73l74 599h-166l8 68h400l-9 -68h-160zM279 796l111 86l38 -37l-159 -122l-112 122l41 36z" />
<glyph unicode="&#x165;" horiz-adv-x="307" d="M157 345l-42 -345h-70l42 345h-50l8 63h50l20 167h70l-20 -167h80l-8 -63h-80zM291 687l62 -26l-86 -149l-42 18z" />
<glyph unicode="&#x166;" horiz-adv-x="419" d="M221 0h-73l50 406h-126l8 67h127l15 126h-166l8 68h400l-9 -68h-160l-15 -126h127l-9 -67h-126z" />
<glyph unicode="&#x167;" horiz-adv-x="230" d="M45 0l28 227h-50l7 60h51l7 58h-50l7 63h51l20 167h70l-20 -167h79l-7 -63h-80l-7 -58h80l-8 -60h-80l-28 -227h-70z" />
<glyph unicode="&#x168;" horiz-adv-x="659" d="M624 667l-51 -409q-13 -110 -48 -164q-67 -107 -202 -107q-103 0 -168 57t-65 149q0 23 4 69l50 405h74l-51 -413q-4 -38 -4 -53q0 -66 42 -105t115 -39q77 0 126 52q41 45 55 156l49 402h74zM495 845l43 -23q-41 -70 -87 -70q-23 0 -80 29q-23 11 -34 11q-21 0 -41 -39 l-43 24q23 38 42 54t42 16q21 0 78 -27q29 -13 37 -13q20 0 43 38z" />
<glyph unicode="&#x169;" horiz-adv-x="464" d="M417 404l-29 -238q-10 -89 -45 -126q-48 -50 -132 -50q-71 0 -112 36.5t-41 100.5q0 28 4 52l27 225h70l-28 -232q-3 -24 -3 -44q0 -34 23.5 -54t63.5 -20q55 0 81 36q16 22 21 71l30 243h70zM360 597l41 -23q-39 -71 -84 -71q-24 0 -65 28q-20 14 -33 14q-17 0 -37 -41 l-41 24q22 40 40 55.5t41 15.5q20 0 62 -26q24 -16 33 -16q20 0 43 40z" />
<glyph unicode="&#x16a;" horiz-adv-x="659" d="M624 667l-51 -409q-13 -110 -48 -164q-67 -107 -202 -107q-103 0 -168 57t-65 149q0 23 4 69l50 405h74l-51 -413q-4 -38 -4 -53q0 -66 42 -105t115 -39q77 0 126 52q41 45 55 156l49 402h74zM262 820h282l-7 -55h-282z" />
<glyph unicode="&#x16b;" horiz-adv-x="464" d="M417 404l-29 -238q-10 -89 -45 -126q-48 -50 -132 -50q-71 0 -112 36.5t-41 100.5q0 28 4 52l27 225h70l-28 -232q-3 -24 -3 -44q0 -34 23.5 -54t63.5 -20q55 0 81 36q16 22 21 71l30 243h70zM147 572h252l-7 -55h-252z" />
<glyph unicode="&#x16c;" horiz-adv-x="659" d="M624 667l-51 -409q-13 -110 -48 -164q-67 -107 -202 -107q-103 0 -168 57t-65 149q0 23 4 69l50 405h74l-51 -413q-4 -38 -4 -53q0 -66 42 -105t115 -39q77 0 126 52q41 45 55 156l49 402h74zM283 862h54v-6v-11q2 -24 18 -39.5t41 -15.5q63 0 89 72h53 q-16 -60 -54.5 -94t-91.5 -34q-50 0 -79.5 30.5t-29.5 83.5v14z" />
<glyph unicode="&#x16d;" horiz-adv-x="464" d="M417 404l-29 -238q-10 -89 -45 -126q-48 -50 -132 -50q-71 0 -112 36.5t-41 100.5q0 28 4 52l27 225h70l-28 -232q-3 -24 -3 -44q0 -34 23.5 -54t63.5 -20q55 0 81 36q16 22 21 71l30 243h70zM162 612h53q1 -74 56 -74q26 0 47.5 20t32.5 54h53q-15 -58 -52.5 -93 t-85.5 -35q-47 0 -75.5 31t-28.5 82v15z" />
<glyph unicode="&#x16e;" horiz-adv-x="659" d="M624 667l-51 -409q-13 -110 -48 -164q-67 -107 -202 -107q-103 0 -168 57t-65 149q0 23 4 69l50 405h74l-51 -413q-4 -38 -4 -53q0 -66 42 -105t115 -39q77 0 126 52q41 45 55 156l49 402h74zM400 896q38 0 63.5 -26t25.5 -63q0 -36 -26.5 -62.5t-62.5 -26.5 q-37 0 -63.5 26t-26.5 63t26.5 63t63.5 26zM399 847q-17 0 -28.5 -11.5t-11.5 -28.5t12 -28.5t29 -11.5t28.5 12t11.5 29q0 16 -12 27.5t-29 11.5z" />
<glyph unicode="&#x16f;" horiz-adv-x="464" d="M417 404l-29 -238q-10 -89 -45 -126q-48 -50 -132 -50q-71 0 -112 36.5t-41 100.5q0 28 4 52l27 225h70l-28 -232q-3 -24 -3 -44q0 -34 23.5 -54t63.5 -20q55 0 81 36q16 22 21 71l30 243h70zM272 640q37 0 62 -25t25 -62q0 -36 -26 -62t-61 -26q-37 0 -62.5 25.5 t-25.5 62.5q0 36 25.5 61.5t62.5 25.5zM271 593q-17 0 -28.5 -11.5t-11.5 -28.5t12 -29t29 -12q16 0 28 12t12 29t-12 28.5t-29 11.5z" />
<glyph unicode="&#x170;" horiz-adv-x="659" d="M624 667l-51 -409q-13 -110 -48 -164q-67 -107 -202 -107q-103 0 -168 57t-65 149q0 23 4 69l50 405h74l-51 -413q-4 -38 -4 -53q0 -66 42 -105t115 -39q77 0 126 52q41 45 55 156l49 402h74zM449 846l-130 -119l-31 21l110 133zM596 846l-130 -119l-31 21l110 133z" />
<glyph unicode="&#x171;" horiz-adv-x="464" d="M417 404l-29 -238q-10 -89 -45 -126q-48 -50 -132 -50q-71 0 -112 36.5t-41 100.5q0 28 4 52l27 225h70l-28 -232q-3 -24 -3 -44q0 -34 23.5 -54t63.5 -20q55 0 81 36q16 22 21 71l30 243h70zM338 604l-123 -131l-30 22l99 142zM454 604l-122 -131l-30 22l99 142z" />
<glyph unicode="&#x172;" horiz-adv-x="659" d="M452 -109l-12 -62q-28 -11 -49 -11q-37 0 -63 22t-26 54q0 25 14.5 46t52.5 50q-24 -4 -38 -4q-109 0 -175 56.5t-66 150.5q0 23 4 69l50 405h74l-51 -413q-4 -38 -4 -53q0 -55 27 -89q43 -56 130 -56q77 0 126 52q41 45 55 157l49 402h74l-51 -409 q-14 -104 -40.5 -152.5t-99.5 -103.5q-66 -50 -66 -91q0 -14 10.5 -23.5t27.5 -9.5q18 0 47 13z" />
<glyph unicode="&#x173;" horiz-adv-x="464" d="M328 -105l-13 -55q-32 -13 -60 -13q-30 0 -51 19t-21 47q0 46 73 102q-24 -5 -42 -5q-73 0 -114.5 36t-41.5 101q0 28 4 52l27 225h70l-28 -232q-3 -24 -3 -44q0 -34 23.5 -54t63.5 -20q55 0 81 36q16 22 21 71l30 243h70l-29 -238q-7 -63 -23.5 -94.5t-69.5 -79.5 q-49 -46 -49 -79q0 -13 9.5 -22t23.5 -9q23 0 49 13z" />
<glyph unicode="&#x174;" horiz-adv-x="914" d="M64 667h76l124 -501l249 520l128 -518l237 499h80l-339 -697l-127 519l-253 -519zM533 809l-111 -86l-38 37l159 122l112 -122l-41 -36z" />
<glyph unicode="&#x175;" horiz-adv-x="643" d="M659 404l-250 -438l-88 291l-163 -291l-136 438h74l83 -279l161 288l86 -288l153 279h80zM360 567l-102 -94l-34 37l145 132l99 -132l-37 -36z" />
<glyph unicode="&#x176;" horiz-adv-x="520" d="M302 296l-36 -296h-74l38 304l-173 363h80l138 -293l202 293h86zM332 809l-111 -86l-38 37l159 122l112 -122l-41 -36z" />
<glyph unicode="&#x177;" horiz-adv-x="424" d="M438 404l-357 -633h-80l153 267l-132 366h75l99 -289l163 289h79zM253 567l-102 -94l-34 37l145 132l99 -132l-37 -36z" />
<glyph unicode="&#x178;" horiz-adv-x="520" d="M302 296l-36 -296h-74l38 304l-173 363h80l138 -293l202 293h86zM238 841q18 0 31 -13t13 -32q0 -20 -14 -34.5t-33 -14.5t-32 13.5t-13 32.5q0 20 14 34t34 14zM406 841q18 0 31 -13t13 -32q0 -20 -14 -34.5t-33 -14.5t-32 13.5t-13 32.5q0 20 14 34t34 14z" />
<glyph unicode="&#x179;" horiz-adv-x="547" d="M485 68l-9 -68h-474l442 599h-321l9 68h446l-442 -599h349zM481 842l-136 -119l-37 25l113 133z" />
<glyph unicode="&#x17a;" horiz-adv-x="440" d="M397 63l-8 -63h-394l303 341h-229l8 63h360l-304 -341h264zM389 599l-139 -126l-37 25l117 139z" />
<glyph unicode="&#x17b;" horiz-adv-x="547" d="M485 68l-9 -68h-474l442 599h-321l9 68h446l-442 -599h349zM362 843q19 0 32.5 -14t13.5 -34t-14.5 -35t-34.5 -15q-19 0 -33 14.5t-14 34.5t14.5 34.5t35.5 14.5z" />
<glyph unicode="&#x17c;" horiz-adv-x="440" d="M397 63l-8 -63h-394l303 341h-229l8 63h360l-304 -341h264zM264 590q18 0 30 -13t12 -33q0 -18 -13 -31.5t-31 -13.5t-30.5 12.5t-12.5 31.5q0 20 13 33.5t32 13.5z" />
<glyph unicode="&#x17d;" horiz-adv-x="547" d="M485 68l-9 -68h-474l442 599h-321l9 68h446l-442 -599h349zM359 796l111 86l38 -37l-159 -122l-112 122l41 36z" />
<glyph unicode="&#x17e;" horiz-adv-x="440" d="M397 63l-8 -63h-394l303 341h-229l8 63h360l-304 -341h264zM261 548l101 94l34 -37l-145 -132l-99 132l38 36z" />
<glyph unicode="&#x17f;" horiz-adv-x="228" d="M110 0h-70l43 345h-55l8 63h54l24 196q10 75 41 105q31 29 78 29q28 0 62 -16l-8 -64q-23 16 -45 16q-28 0 -41 -19.5t-19 -70.5z" />
<glyph unicode="&#x18f;" horiz-adv-x="794" d="M66 350h617q1 8 1 17q0 103 -68 172t-169 69q-157 0 -257 -140l-64 29q61 87 147 134t184 47q127 0 215 -88t88 -216q0 -101 -55 -190t-146.5 -142.5t-194.5 -53.5q-128 0 -216 87t-88 214q0 29 6 61zM671 281h-534q6 -95 73.5 -159t162.5 -64q100 0 183 62.5t115 160.5z " />
<glyph unicode="&#x192;" horiz-adv-x="567" d="M343 443h107l-8 -52h-108l-61 -301q-23 -111 -46 -150q-40 -67 -130 -67q-24 0 -55 8l12 62q23 -6 42 -6q46 0 68 28q22 30 43 127l59 299h-72l8 52h74l31 153q15 76 49 110t95 34q26 0 56 -10l-12 -61q-23 9 -43 9q-36 0 -52 -20t-29 -81z" />
<glyph unicode="&#x1a0;" horiz-adv-x="785" d="M657 588l49 115l62 -26l-74 -134q54 -81 54 -188q0 -160 -99.5 -264t-252.5 -104q-146 0 -239 92.5t-93 238.5q0 157 100.5 259.5t252.5 102.5q148 0 240 -92zM418 610q-120 0 -199.5 -82.5t-79.5 -206.5q0 -115 73 -189.5t186 -74.5q118 0 196.5 84t78.5 210 q0 118 -69.5 188.5t-185.5 70.5z" />
<glyph unicode="&#x1a1;" horiz-adv-x="513" d="M428 339l47 111l62 -26l-80 -139q13 -38 13 -77q0 -94 -62.5 -157.5t-155.5 -63.5t-154 59.5t-61 149.5q0 93 65 157t160 64q105 0 166 -78zM259 353q-64 0 -107 -44.5t-43 -110.5q0 -63 41 -105t103 -42q63 0 104 44t41 112q0 65 -38.5 105.5t-100.5 40.5z" />
<glyph unicode="&#x1af;" horiz-adv-x="659" d="M624 667l-51 -409q-13 -110 -48 -164q-67 -107 -202 -107q-103 0 -168 57t-65 149q0 23 4 69l50 405h74l-51 -413q-4 -38 -4 -53q0 -66 42 -105t115 -39q77 0 126 52q41 45 55 156l49 402h74zM701 699l63 -26l-83 -150l-45 22z" />
<glyph unicode="&#x1b0;" horiz-adv-x="464" d="M417 404l-29 -238q-10 -89 -45 -126q-48 -50 -132 -50q-71 0 -112 36.5t-41 100.5q0 28 4 52l27 225h70l-28 -232q-3 -24 -3 -44q0 -34 23.5 -54t63.5 -20q55 0 81 36q16 22 21 71l30 243h70zM489 451l62 -26l-86 -150l-42 19z" />
<glyph unicode="&#x1cd;" horiz-adv-x="617" d="M180 186l-97 -186h-81l371 707l206 -707h-76l-52 186h-271zM215 254h215l-75 273zM383 796l111 86l38 -37l-159 -122l-112 122l41 36z" />
<glyph unicode="&#x1ce;" horiz-adv-x="523" d="M477 404l-50 -404h-70l7 57q-38 -38 -68.5 -52.5t-71.5 -14.5q-83 0 -135.5 55t-52.5 141q0 100 60 164t153 64q49 0 82.5 -17t67.5 -59l8 66h70zM255 350q-62 0 -104.5 -46t-42.5 -114q0 -59 37 -97.5t92 -38.5q61 0 105.5 48.5t44.5 115.5q0 58 -37 95t-95 37zM299 548 l101 94l34 -37l-145 -132l-99 132l38 36z" />
<glyph unicode="&#x1cf;" horiz-adv-x="254" d="M218 667l-83 -667h-73l82 667h74zM194 796l111 86l38 -37l-159 -122l-112 122l41 36z" />
<glyph unicode="&#x1d0;" horiz-adv-x="206" d="M160 404l-50 -404h-70l50 404h70zM140 548l101 94l34 -37l-145 -132l-99 132l38 36z" />
<glyph unicode="&#x1d2;" horiz-adv-x="513" d="M262 417q92 0 150.5 -59.5t58.5 -152.5q0 -92 -63.5 -155t-155.5 -63t-153.5 59.5t-61.5 149.5q0 93 65 157t160 64zM259 353q-64 0 -107 -44.5t-43 -110.5q0 -63 41 -105t103 -42q63 0 104.5 44.5t41.5 111.5q0 65 -39 105.5t-101 40.5zM280 548l101 94l34 -37 l-145 -132l-99 132l38 36z" />
<glyph unicode="&#x1d3;" horiz-adv-x="659" d="M624 667l-51 -409q-13 -110 -48 -164q-67 -107 -202 -107q-103 0 -168 57t-65 149q0 23 4 69l50 405h74l-51 -413q-4 -38 -4 -53q0 -66 42 -105t115 -39q77 0 126 52q41 45 55 156l49 402h74zM392 796l111 86l38 -37l-159 -122l-112 122l41 36z" />
<glyph unicode="&#x1d4;" horiz-adv-x="464" d="M417 404l-29 -238q-10 -89 -45 -126q-48 -50 -132 -50q-71 0 -112 36.5t-41 100.5q0 28 4 52l27 225h70l-28 -232q-3 -24 -3 -44q0 -34 23.5 -54t63.5 -20q55 0 81 36q16 22 21 71l30 243h70zM268 548l101 94l34 -37l-145 -132l-99 132l38 36z" />
<glyph unicode="&#x1dd;" d="M37 219h347q2 18 2 25q0 54 -34 89t-86 35q-83 0 -140 -80l-66 15q34 58 89.5 90t121.5 32q86 0 138 -51t52 -135q0 -104 -71 -177t-171 -73q-83 0 -134 52.5t-51 138.5q0 12 3 39zM375 168h-267q3 -41 19 -67q15 -25 42 -40t56 -15q52 0 94 34t56 88z" />
<glyph unicode="&#x1e6;" horiz-adv-x="745" d="M433 319h273q-12 -119 -65 -197q-43 -64 -111 -99.5t-148 -35.5q-138 0 -228.5 92.5t-90.5 233.5q0 73 26 143.5t72 119.5q95 104 245 104q182 0 284 -155l-51 -45q-29 47 -64 75q-72 55 -171 55q-116 0 -191 -84t-75 -213q0 -112 69.5 -184t177.5 -72q92 0 154.5 51 t83.5 143h-198zM448 796l111 86l38 -37l-159 -122l-112 122l41 36z" />
<glyph unicode="&#x1e7;" horiz-adv-x="528" d="M482 404l-51 -410q-8 -68 -19.5 -102.5t-34.5 -61.5q-55 -66 -160 -66q-101 0 -155 60q-21 23 -29 49t-9 71h66q3 -49 21 -74q31 -42 103 -42q69 0 107 41q29 31 39 110l8 70q-37 -33 -68 -46t-70 -13q-83 0 -138 56.5t-55 141.5q0 96 62.5 161t154.5 65q47 0 80 -17 t70 -60l8 67h70zM260 350q-65 0 -108 -45.5t-43 -113.5q0 -59 38.5 -98t96.5 -39q62 0 106.5 46.5t44.5 112.5q0 62 -37 99.5t-98 37.5zM302 548l101 94l34 -37l-145 -132l-99 132l38 36z" />
<glyph unicode="&#x1f4;" horiz-adv-x="745" d="M433 319h273q-12 -119 -65 -197q-43 -64 -111 -99.5t-148 -35.5q-138 0 -228.5 92.5t-90.5 233.5q0 73 26 143.5t72 119.5q95 104 245 104q182 0 284 -155l-51 -45q-29 47 -64 75q-72 55 -171 55q-116 0 -191 -84t-75 -213q0 -112 69.5 -184t177.5 -72q92 0 154.5 51 t83.5 143h-198zM567 842l-136 -119l-37 25l113 133z" />
<glyph unicode="&#x1f5;" horiz-adv-x="528" d="M482 404l-51 -410q-8 -68 -19.5 -102.5t-34.5 -61.5q-55 -66 -160 -66q-101 0 -155 60q-21 23 -29 49t-9 71h66q3 -49 21 -74q31 -42 103 -42q69 0 107 41q29 31 39 110l8 70q-37 -33 -68 -46t-70 -13q-83 0 -138 56.5t-55 141.5q0 96 62.5 161t154.5 65q47 0 80 -17 t70 -60l8 67h70zM260 350q-65 0 -108 -45.5t-43 -113.5q0 -59 38.5 -98t96.5 -39q62 0 106.5 46.5t44.5 112.5q0 62 -37 99.5t-98 37.5zM385 599l-139 -126l-37 25l117 139z" />
<glyph unicode="&#x1fa;" horiz-adv-x="617" d="M180 186l-97 -186h-81l371 707l206 -707h-76l-52 186h-271zM215 254h215l-75 273zM377 896q37 0 63 -26t26 -63q0 -36 -26 -62.5t-63 -26.5t-63 26t-26 63t26 63t63 26zM377 847q-17 0 -28.5 -11.5t-11.5 -28.5t11.5 -28.5t28.5 -11.5t28.5 12t11.5 29t-11.5 28t-28.5 11 zM406 969l-136 -119l-37 25l113 133z" />
<glyph unicode="&#x1fb;" horiz-adv-x="523" d="M477 404l-50 -404h-70l7 57q-38 -38 -68.5 -52.5t-71.5 -14.5q-83 0 -135.5 55t-52.5 141q0 100 60 164t153 64q49 0 82.5 -17t67.5 -59l8 66h70zM255 350q-62 0 -104.5 -46t-42.5 -114q0 -59 37 -97.5t92 -38.5q61 0 105.5 48.5t44.5 115.5q0 58 -37 95t-95 37zM303 640 q37 0 62 -25t25 -62q0 -36 -26 -62t-61 -26q-36 0 -61.5 25.5t-25.5 62.5q0 36 25.5 61.5t61.5 25.5zM303 593q-17 0 -28.5 -11.5t-11.5 -28.5t12 -29t28 -12t28 12t12 29t-11.5 28.5t-28.5 11.5zM388 764l-139 -126l-37 25l117 139z" />
<glyph unicode="&#x1fc;" horiz-adv-x="904" d="M671 667l19 -68h-272l60 -204h272l20 -68h-272l76 -259h273l19 -68h-350l-53 189h-281l-104 -189h-83l370 667h306zM221 257h221l-75 267zM604 842l-136 -119l-37 25l113 133z" />
<glyph unicode="&#x1fd;" horiz-adv-x="745" d="M709 186h-325q-1 -6 -1 -14q0 -54 37 -87.5t96 -33.5q68 0 116 55l49 -36q-64 -83 -169 -83q-116 0 -164 90q-55 -90 -154 -90q-73 0 -122.5 39.5t-49.5 98.5q0 58 46.5 97t117.5 39q78 0 131 -52q3 17 3 24l5 31q1 6 1 21q0 68 -107 68q-53 0 -108 -16l8 65 q60 15 107 15q116 0 152 -76q57 76 145 76q83 0 134.5 -58.5t51.5 -152.5v-20zM194 197q-44 0 -72 -20.5t-28 -51.5t30 -52.5t74 -21.5q47 0 78 21t31 53t-31 52t-82 20zM391 244h251q-5 50 -37 79.5t-83 29.5q-100 0 -131 -109zM522 599l-139 -126l-37 25l117 139z" />
<glyph unicode="&#x1fe;" horiz-adv-x="785" d="M160 75l-89 -81l-40 45l90 82q-57 91 -57 197q0 157 100.5 259.5t252.5 102.5q130 0 230 -82l89 80l40 -41l-90 -82q62 -90 62 -201q0 -159 -100 -263t-253 -104q-129 0 -235 88zM632 505l-415 -377q68 -71 182 -71q118 0 196 84.5t78 210.5q0 89 -41 153zM179 173 l412 377q-60 60 -174 60q-119 0 -198.5 -82t-79.5 -206q0 -82 40 -149zM565 842l-136 -119l-37 25l113 133z" />
<glyph unicode="&#x1ff;" horiz-adv-x="513" d="M108 36l-70 -59l-33 39l66 61q-34 61 -34 118q0 94 65 158t160 64q76 0 140 -49l64 57l35 -38l-64 -58q20 -42 26.5 -65t6.5 -56q0 -94 -62.5 -157.5t-155.5 -63.5q-79 0 -144 49zM381 281l-220 -198q39 -32 92 -32q64 0 104.5 44.5t40.5 113.5q0 37 -17 72zM126 125 l222 197q-35 31 -89 31q-64 0 -107 -44.5t-43 -110.5q0 -36 17 -73zM394 599l-139 -126l-37 25l117 139z" />
<glyph unicode="&#x218;" horiz-adv-x="482" d="M464 573l-51 -45q-44 83 -119 83q-47 0 -80 -31.5t-33 -77.5q0 -37 21 -62t84 -63q85 -51 116 -93t31 -105q0 -83 -56.5 -137.5t-142.5 -54.5t-146 55q-31 30 -57 87l58 35q18 -44 38 -65q42 -42 105 -42q56 0 91 35.5t35 92.5q0 41 -23 69t-91 69q-79 48 -107.5 85.5 t-28.5 94.5q0 78 52.5 128t134.5 50q109 0 169 -108zM196 -53l62 -26l-83 -149l-45 21z" />
<glyph unicode="&#x219;" horiz-adv-x="347" d="M317 366l-44 -43q-40 31 -77 31q-29 0 -48 -15.5t-19 -38.5q0 -20 14.5 -34t56.5 -34q57 -27 78 -52.5t21 -67.5q0 -55 -40.5 -90t-103.5 -35q-89 0 -139 86l53 33q34 -55 86 -55q32 0 51.5 16.5t19.5 43.5q0 23 -13.5 36t-63.5 37q-49 23 -70.5 49t-21.5 64 q0 52 39.5 86.5t99.5 34.5q68 0 121 -52zM118 -53l62 -26l-86 -149l-42 18z" />
<glyph unicode="&#x21a;" horiz-adv-x="419" d="M295 599l-74 -599h-73l74 599h-166l8 68h400l-9 -68h-160zM158 -53l62 -26l-83 -149l-45 21z" />
<glyph unicode="&#x21b;" horiz-adv-x="230" d="M158 345l-43 -345h-70l43 345h-50l7 63h51l20 167h70l-20 -167h79l-7 -63h-80zM52 -53l62 -26l-86 -149l-42 18z" />
<glyph unicode="&#x226;" horiz-adv-x="617" d="M180 186l-97 -186h-81l371 707l206 -707h-76l-52 186h-271zM215 254h215l-75 273zM383 843q19 0 32.5 -14t13.5 -34t-14.5 -35t-34.5 -15q-19 0 -33 14.5t-14 34.5t14.5 34.5t35.5 14.5z" />
<glyph unicode="&#x227;" horiz-adv-x="523" d="M477 404l-50 -404h-70l7 57q-38 -38 -68.5 -52.5t-71.5 -14.5q-83 0 -135.5 55t-52.5 141q0 100 60 164t153 64q49 0 82.5 -17t67.5 -59l8 66h70zM255 350q-62 0 -104.5 -46t-42.5 -114q0 -59 37 -97.5t92 -38.5q61 0 105.5 48.5t44.5 115.5q0 58 -37 95t-95 37zM304 590 q18 0 30 -13t12 -33q0 -18 -13 -31.5t-31 -13.5t-30.5 12.5t-12.5 31.5q0 20 13 33.5t32 13.5z" />
<glyph unicode="&#x259;" d="M37 219h347q2 18 2 25q0 54 -34 89t-86 35q-83 0 -140 -80l-66 15q34 58 89.5 90t121.5 32q86 0 138 -51t52 -135q0 -104 -71 -177t-171 -73q-83 0 -134 52.5t-51 138.5q0 12 3 39zM375 168h-267q3 -41 19 -67q15 -25 42 -40t56 -15q52 0 94 34t56 88z" />
<glyph unicode="&#x2bb;" d="M317 473l-63 26l86 149l42 -18z" />
<glyph unicode="&#x2bc;" horiz-adv-x="251" d="M252 677l-124 -204l-42 23l112 210z" />
<glyph unicode="&#x2c6;" d="M298 567l-102 -94l-34 37l145 132l99 -132l-37 -36z" />
<glyph unicode="&#x2c7;" d="M281 548l101 94l34 -37l-145 -132l-99 132l38 36z" />
<glyph unicode="&#x2c9;" d="M165 572h252l-7 -55h-252z" />
<glyph unicode="&#x2d8;" d="M174 612h53q1 -74 56 -74q26 0 47.5 20t32.5 54h53q-15 -58 -52.5 -93t-85.5 -35q-47 0 -75.5 31t-28.5 82v15z" />
<glyph unicode="&#x2d9;" d="M287 590q18 0 30 -13t12 -33q0 -18 -13 -31.5t-31 -13.5t-30.5 12.5t-12.5 31.5q0 20 13 33.5t32 13.5z" />
<glyph unicode="&#x2da;" d="M291 640q37 0 62 -25t25 -62q0 -36 -26 -62t-61 -26q-37 0 -62.5 25.5t-25.5 62.5q0 36 25.5 61.5t62.5 25.5zM290 593q-16 0 -28 -11.5t-12 -28.5t12 -29t29 -12q16 0 28 12t12 29t-12 28.5t-29 11.5z" />
<glyph unicode="&#x2db;" d="M242 0h56q-79 -43 -79 -87q0 -13 9.5 -22t23.5 -9q23 0 48 13l-13 -55q-30 -13 -59 -13q-31 0 -51.5 19t-20.5 47q0 57 86 107z" />
<glyph unicode="&#x2dc;" d="M375 597l41 -23q-39 -71 -84 -71q-24 0 -65 28q-20 14 -33 14q-17 0 -37 -41l-41 24q22 40 40 55.5t41 15.5q20 0 62 -26q24 -16 33 -16q20 0 43 40z" />
<glyph unicode="&#x2dd;" d="M363 604l-123 -131l-30 22l99 142zM479 604l-122 -131l-30 22l99 142z" />
<glyph unicode="&#x37e;" horiz-adv-x="240" d="M130 423q20 0 34 -14t14 -34q0 -19 -14.5 -33t-33.5 -14t-32.5 14t-13.5 34t13 33.5t33 13.5zM146 91l-138 -226l-46 25l124 234z" />
<glyph unicode="&#x384;" d="M257 501l14 206h75l-36 -206h-53z" />
<glyph unicode="&#x385;" d="M187 627q19 0 31 -12t12 -31q0 -23 -16.5 -40t-38.5 -17q-19 0 -31 12.5t-12 31.5q0 22 16.5 39t38.5 17zM411 627q19 0 31 -12t12 -31q0 -23 -16.5 -40t-38.5 -17q-19 0 -31 12.5t-12 31.5q0 22 16.5 39t38.5 17zM257 501l15 206h74l-36 -206h-53z" />
<glyph unicode="&#x386;" horiz-adv-x="607" d="M441 189h-284l-104 -189h-81l393 699l214 -699h-82zM421 258l-79 267l-147 -267h226zM108 496l15 211h74l-37 -211h-52z" />
<glyph unicode="&#x388;" horiz-adv-x="577" d="M61 496l15 211h75l-37 -211h-53zM580 598h-271l-24 -199h263l-9 -69h-263l-32 -261h271l-9 -69h-345l82 667h345z" />
<glyph unicode="&#x389;" horiz-adv-x="759" d="M61 496l15 211h75l-37 -211h-53zM284 395h341l33 272h75l-82 -667h-75l40 326h-340l-40 -326h-75l82 667h74z" />
<glyph unicode="&#x38a;" horiz-adv-x="343" d="M61 496l15 211h75l-37 -211h-53zM317 667l-81 -667h-75l82 667h74z" />
<glyph unicode="&#x38c;" horiz-adv-x="887" d="M61 496l15 211h75l-37 -211h-53zM557 678q127 0 215 -88t88 -216q0 -154 -119 -270t-277 -116q-70 0 -134 31t-108 86q-60 78 -60 187q0 154 119 270t276 116zM547 608q-124 0 -216.5 -92t-92.5 -216q0 -103 67.5 -172.5t168.5 -69.5q125 0 217.5 92.5t92.5 216.5 q0 103 -68 172t-169 69z" />
<glyph unicode="&#x38e;" horiz-adv-x="645" d="M61 496l15 211h75l-37 -211h-53zM356 287l-171 380h86l133 -298l209 298h86l-268 -380l-35 -287h-75z" />
<glyph unicode="&#x38f;" horiz-adv-x="898" d="M61 496l15 211h75l-37 -211h-53zM129 0l9 69h192l4 27q-164 61 -164 229q0 128 86 227q111 126 301 126q141 0 224.5 -74.5t83.5 -199.5q0 -127 -82 -217q-54 -60 -147 -91l-3 -27h193l-9 -69h-267l17 136q88 20 153 82q69 66 69 175q0 87 -51 144q-64 71 -191 71 q-169 0 -253 -123q-49 -72 -49 -163q0 -78 62 -133q46 -39 106 -53l-17 -136h-267z" />
<glyph unicode="&#x390;" horiz-adv-x="202" d="M37 0l51 415h72l-51 -415h-72zM38 627q19 0 31 -12t12 -31q0 -23 -16.5 -40t-38.5 -17q-19 0 -31 12.5t-12 31.5q0 22 16.5 39t38.5 17zM262 627q19 0 31 -12t12 -31q0 -23 -16.5 -40t-38.5 -17q-19 0 -31 12.5t-12 31.5q0 22 16.5 39t38.5 17zM108 501l15 206h74 l-36 -206h-53z" />
<glyph unicode="&#x391;" horiz-adv-x="607" d="M441 189h-284l-104 -189h-81l393 699l214 -699h-82zM421 258l-79 267l-147 -267h226z" />
<glyph unicode="&#x392;" horiz-adv-x="516" d="M52 0l82 667h120q101 0 146 -41q47 -44 47 -116q0 -60 -33 -107q-15 -21 -50 -46q106 -33 106 -148q0 -100 -86 -163q-62 -46 -166 -46h-166zM172 373h57q47 0 73.5 10.5t46.5 38.5q25 34 25 80q0 50 -28 73t-88 23h-58zM135 69h85q80 0 120 30q55 40 55 105q0 57 -44 85 q-33 21 -111 21h-75z" />
<glyph unicode="&#x393;" horiz-adv-x="467" d="M59 0l82 667h357l-8 -69h-283l-73 -598h-75z" />
<glyph unicode="&#x394;" horiz-adv-x="583" d="M-28 0l381 698l202 -698h-583zM91 69h361l-122 454z" />
<glyph unicode="&#x395;" horiz-adv-x="469" d="M471 598h-271l-24 -199h263l-8 -69h-264l-32 -261h271l-9 -69h-345l82 667h345z" />
<glyph unicode="&#x396;" horiz-adv-x="521" d="M121 69h355l-9 -69h-478l437 598h-317l9 69h440z" />
<glyph unicode="&#x397;" horiz-adv-x="650" d="M175 395h341l33 272h75l-82 -667h-75l40 326h-340l-40 -326h-75l82 667h75z" />
<glyph unicode="&#x398;" horiz-adv-x="787" d="M239 304l8 72h329l-9 -72h-328zM449 679q137 0 224 -85.5t87 -219.5q0 -158 -117.5 -273.5t-277.5 -115.5q-138 0 -225 85t-87 221q0 158 117.5 273t278.5 115zM439 603q-125 0 -216.5 -90t-91.5 -214q0 -105 68 -171.5t175 -66.5q125 0 216.5 90.5t91.5 214.5 q0 104 -68.5 170.5t-174.5 66.5z" />
<glyph unicode="&#x399;" horiz-adv-x="235" d="M209 667l-82 -667h-75l82 667h75z" />
<glyph unicode="&#x39a;" horiz-adv-x="572" d="M59 0l82 667h75l-39 -317l326 317h94l-343 -325l281 -342h-99l-262 328l-40 -328h-75z" />
<glyph unicode="&#x39b;" horiz-adv-x="543" d="M329 699l186 -699h-84l-124 522l-252 -522h-83z" />
<glyph unicode="&#x39c;" horiz-adv-x="849" d="M29 0l197 704l187 -563l331 564l16 -705h-76l-5 464l-288 -492l-163 492l-123 -464h-76z" />
<glyph unicode="&#x39d;" horiz-adv-x="754" d="M52 0l85 695l453 -545l63 517h75l-86 -697l-452 544l-63 -514h-75z" />
<glyph unicode="&#x39e;" horiz-adv-x="553" d="M96 598l9 69h451l-8 -69h-452zM72 326l9 69h433l-9 -69h-433zM23 0l9 69h451l-9 -69h-451z" />
<glyph unicode="&#x39f;" horiz-adv-x="778" d="M449 678q127 0 215 -88t88 -216q0 -101 -55 -190t-146.5 -142.5t-194.5 -53.5q-71 0 -135 31t-108 86q-60 78 -60 187q0 154 119 270t277 116zM438 608q-124 0 -216.5 -92t-92.5 -216q0 -103 68 -172.5t169 -69.5q125 0 217.5 92.5t92.5 216.5q0 103 -68 172t-170 69z " />
<glyph unicode="&#x3a0;" horiz-adv-x="677" d="M59 0l82 667h504l-82 -667h-75l73 598h-354l-73 -598h-75z" />
<glyph unicode="&#x3a1;" horiz-adv-x="444" d="M163 292l-36 -292h-75l82 667h121q114 0 162 -47q46 -43 46 -116q0 -75 -50 -138q-63 -74 -186 -74h-64zM171 360h60q92 0 132 56q26 35 26 81q0 101 -134 101h-55z" />
<glyph unicode="&#x3a3;" horiz-adv-x="550" d="M15 0l254 368l-157 299h435l-8 -69h-309l124 -228l-210 -301h341l-9 -69h-461z" />
<glyph unicode="&#x3a4;" horiz-adv-x="411" d="M288 598l-73 -598h-75l73 598h-161l9 69h398l-9 -69h-162z" />
<glyph unicode="&#x3a5;" horiz-adv-x="514" d="M226 287l-172 380h86l133 -298l209 298h86l-268 -380l-35 -287h-75z" />
<glyph unicode="&#x3a6;" horiz-adv-x="879" d="M369 -54l12 98q-121 6 -191 44q-128 68 -128 210q0 75 37.5 142t103.5 110q96 63 249 70l12 100h70l-12 -100q123 -6 193 -44q128 -68 128 -209q0 -76 -37.5 -143t-103.5 -110q-97 -63 -251 -70l-12 -98h-70zM513 547l-53 -430q124 8 196 51q53 33 82.5 82.5t29.5 106.5 q0 56 -31.5 99.5t-90.5 67.5q-46 19 -133 23zM390 118l53 429q-123 -7 -194 -51q-53 -32 -82.5 -81.5t-29.5 -106.5t31.5 -100.5t90.5 -66.5q46 -19 131 -23z" />
<glyph unicode="&#x3a7;" horiz-adv-x="489" d="M218 345l-140 322h84l108 -251l172 251h85l-223 -322l150 -345h-83l-119 274l-189 -274h-84z" />
<glyph unicode="&#x3a8;" horiz-adv-x="771" d="M320 0l20 166q-122 8 -176 39q-85 48 -85 159q0 22 3 49l31 254h75l-29 -239q-4 -25 -4 -58q0 -69 44.5 -100t149.5 -34l53 431h74l-53 -431q122 4 174.5 46.5t62.5 145.5l30 239h74l-31 -254q-14 -123 -90 -182t-228 -65l-21 -166h-74z" />
<glyph unicode="&#x3a9;" horiz-adv-x="789" d="M20 0l9 69h192l3 27q-163 61 -163 229q0 128 86 227q111 126 301 126q141 0 224.5 -74.5t83.5 -199.5q0 -127 -82 -217q-56 -61 -147 -91l-3 -27h192l-8 -69h-267l16 136q89 20 154 82q69 66 69 175q0 87 -51 144q-64 71 -191 71q-169 0 -253 -123q-49 -72 -49 -163 q0 -78 62 -133q46 -39 106 -53l-17 -136h-267z" />
<glyph unicode="&#x3aa;" horiz-adv-x="235" d="M208 667l-82 -667h-74l82 667h74zM98 849q20 0 32.5 -12.5t12.5 -32.5q0 -22 -17.5 -39.5t-39.5 -17.5q-20 0 -32.5 12.5t-12.5 32.5q0 22 17.5 39.5t39.5 17.5zM288 849q20 0 32.5 -12.5t12.5 -32.5q0 -22 -17.5 -39.5t-39.5 -17.5q-20 0 -32.5 12.5t-12.5 32.5 q0 22 17.5 39.5t39.5 17.5z" />
<glyph unicode="&#x3ab;" horiz-adv-x="514" d="M226 287l-172 380h86l133 -298l209 298h86l-268 -380l-35 -287h-75zM239 849q19 0 32 -12.5t13 -32.5q0 -23 -17.5 -40t-40.5 -17q-20 0 -32.5 12.5t-12.5 32.5q0 23 17.5 40t40.5 17zM429 849q19 0 32 -12.5t13 -32.5q0 -23 -17.5 -40t-40.5 -17q-20 0 -32.5 12.5 t-12.5 32.5q0 23 17.5 40t40.5 17z" />
<glyph unicode="&#x3ac;" horiz-adv-x="513" d="M401 415h72l-51 -415h-72l7 58q-67 -70 -152 -70q-78 0 -126.5 52t-48.5 136q0 104 66.5 176.5t161.5 72.5q86 0 136 -69zM260 360q-65 0 -111 -51t-46 -123q0 -60 32.5 -96.5t86.5 -36.5q68 0 114 52.5t46 128.5q0 56 -33.5 91t-88.5 35zM264 501l14 206h75l-36 -206 h-53z" />
<glyph unicode="&#x3ad;" horiz-adv-x="424" d="M381 79l-9 -70q-78 -22 -159 -22q-184 0 -184 114q0 40 22 71t61 44q-49 24 -49 74q0 64 52.5 99t148.5 35q78 0 147 -21l-8 -68q-63 24 -133 24q-64 0 -98.5 -18t-34.5 -50q0 -27 29 -41q19 -10 71 -10h97l-7 -55h-96q-126 0 -126 -72q0 -61 119 -61q72 0 157 27z M247 501l14 206h75l-36 -206h-53z" />
<glyph unicode="&#x3ae;" horiz-adv-x="466" d="M36 0l51 415h71l-6 -52q30 33 59 46.5t71 13.5q61 0 94 -30t33 -85q0 -24 -3 -51l-60 -490h-72l58 473q4 21 4 44q0 75 -78 75q-55 0 -85 -36t-40 -115l-26 -208h-71zM246 501l14 206h75l-36 -206h-53z" />
<glyph unicode="&#x3af;" horiz-adv-x="202" d="M37 0l51 415h72l-51 -415h-72zM108 501l14 206h75l-36 -206h-53z" />
<glyph unicode="&#x3b0;" horiz-adv-x="460" d="M86 415h72l-30 -239q-3 -24 -3 -46q0 -77 84 -77q56 0 84 36q18 23 26 87l29 239h71l-30 -250q-12 -91 -55 -132q-48 -46 -134 -46q-69 0 -108.5 33.5t-39.5 91.5q0 26 4 53zM167 627q19 0 31 -12t12 -31q0 -23 -16.5 -40t-38.5 -17q-19 0 -31 12.5t-12 31.5 q0 22 16.5 39t38.5 17zM391 627q19 0 31 -12t12 -31q0 -23 -16.5 -40t-38.5 -17q-19 0 -31 12.5t-12 31.5q0 22 16.5 39t38.5 17zM237 501l15 206h74l-36 -206h-53z" />
<glyph unicode="&#x3b1;" horiz-adv-x="513" d="M401 415h72l-51 -415h-72l7 58q-67 -70 -152 -70q-78 0 -126.5 52t-48.5 136q0 104 66.5 176.5t161.5 72.5q86 0 136 -69zM260 360q-65 0 -111 -51t-46 -123q0 -60 32.5 -96.5t86.5 -36.5q68 0 114 52.5t46 128.5q0 56 -33.5 91t-88.5 35z" />
<glyph unicode="&#x3b2;" horiz-adv-x="521" d="M8 -233l86 701q17 135 54 189q60 83 175 83q76 0 118.5 -41.5t42.5 -115.5q0 -62 -29.5 -110.5t-84.5 -77.5q48 -17 71 -45q39 -48 39 -120q0 -103 -68.5 -173t-169.5 -70q-80 0 -130 47l-33 -267h-71zM167 483l-47 -382q44 -47 110 -47q77 0 126.5 48.5t49.5 123.5 q0 62 -36.5 96t-104.5 34h-12l8 67q35 1 56 8.5t42 24.5q53 44 53 114q0 47 -27.5 75t-73.5 28q-35 0 -65.5 -17.5t-47.5 -48.5q-19 -37 -31 -124z" />
<glyph unicode="&#x3b3;" horiz-adv-x="407" d="M114 -233l18 150q7 49 7 94q0 73 -29 183t-77 221h84q68 -178 75 -307q16 51 57 136l87 171h81l-116 -212q-48 -86 -67 -141.5t-30 -144.5l-19 -150h-71z" />
<glyph unicode="&#x3b4;" horiz-adv-x="515" d="M280 416l-62 63q-46 44 -46 104q0 65 41 104q24 23 59 32.5t99 9.5h72l-8 -67h-80q-109 0 -109 -74q0 -33 39 -72l116 -113q75 -75 75 -164q0 -109 -70.5 -180.5t-177.5 -71.5q-89 0 -141 50t-52 137q0 111 71 179q33 32 72 46t102 17zM353 335l-16 16q-33 6 -58 6 q-75 0 -122.5 -48.5t-47.5 -124.5q0 -60 34 -94t94 -34q71 0 118 49t47 123q0 59 -49 107z" />
<glyph unicode="&#x3b5;" horiz-adv-x="424" d="M381 79l-9 -70q-78 -22 -159 -22q-184 0 -184 114q0 40 22 71t61 44q-49 24 -49 74q0 64 52.5 99t148.5 35q78 0 147 -21l-8 -68q-63 24 -133 24q-64 0 -98.5 -18t-34.5 -50q0 -27 29 -41q19 -10 71 -10h97l-7 -55h-96q-126 0 -126 -72q0 -61 119 -61q72 0 157 27z" />
<glyph unicode="&#x3b6;" horiz-adv-x="352" d="M99 662l8 67h319q-207 -311 -263.5 -413.5t-56.5 -164.5q0 -42 29 -65q21 -17 76 -24q59 -8 81 -24q30 -22 30 -69q0 -52 -38 -95q-22 -27 -90 -70l-32 48q53 32 71 53t18 49q0 24 -19 35q-16 9 -61 13q-73 7 -107.5 38.5t-34.5 92.5q0 76 59 185.5t224 343.5h-213z" />
<glyph unicode="&#x3b7;" horiz-adv-x="466" d="M36 0l51 415h71l-6 -52q30 33 59 46.5t71 13.5q61 0 94 -30t33 -85q0 -24 -3 -51l-60 -490h-72l58 473q4 21 4 44q0 75 -78 75q-55 0 -85 -36t-40 -115l-26 -208h-71z" />
<glyph unicode="&#x3b8;" horiz-adv-x="502" d="M119 398h292q2 46 2 59q0 99 -31 159t-83 60q-60 0 -111.5 -79.5t-68.5 -198.5zM402 339h-291q-2 -58 -2 -65q0 -102 30 -161.5t82 -59.5q61 0 111 79.5t70 206.5zM310 740q77 0 126 -83t49 -213q0 -119 -38 -224.5t-101.5 -168.5t-134.5 -63q-76 0 -125 84t-49 214 q0 117 38 222.5t101 168.5t134 63z" />
<glyph unicode="&#x3b9;" horiz-adv-x="202" d="M37 0l51 415h72l-51 -415h-72z" />
<glyph unicode="&#x3ba;" horiz-adv-x="422" d="M36 0l51 415h71l-24 -196l203 196h80l-210 -200l180 -215h-86l-169 201l-25 -201h-71z" />
<glyph unicode="&#x3bb;" horiz-adv-x="393" d="M-26 0l209 426l-75 303h78l179 -729h-78l-79 332l-153 -332h-81z" />
<glyph unicode="&#x3bc;" horiz-adv-x="463" d="M7 -233l80 648h71l-25 -206q-4 -25 -4 -52q0 -53 19.5 -76t62.5 -23q52 0 78.5 35t36.5 116l25 206h72l-51 -415h-65l4 52q-19 -33 -42.5 -46t-64.5 -13q-38 0 -59 10.5t-33 36.5l-34 -273h-71z" />
<glyph unicode="&#x3bd;" horiz-adv-x="409" d="M104 415l90 -279l157 279h80l-258 -442l-149 442h80z" />
<glyph unicode="&#x3be;" horiz-adv-x="387" d="M99 661l8 68h318q-10 -6 -32 -19q-22 -14 -68 -40q-86 -51 -121 -100q-25 -39 -25 -73q0 -28 20.5 -50.5t55.5 -31.5q34 -8 106 -9l-40 -64q-36 5 -53 5q-66 0 -112.5 -50.5t-46.5 -122.5q0 -53 32 -79q24 -18 81 -26q65 -9 87 -25q32 -23 32 -73q0 -49 -27.5 -85 t-100.5 -83l-32 49q53 32 71 52.5t18 49.5q0 26 -16.5 36.5t-68.5 15.5q-82 9 -117 44t-35 108q0 161 151 227q-45 21 -61.5 42t-16.5 57q0 60 43 111q27 32 92 66h-142z" />
<glyph unicode="&#x3bf;" horiz-adv-x="508" d="M279 425q83 0 138 -54t55 -137q0 -100 -74 -173t-175 -73q-84 0 -138 54.5t-54 138.5q0 98 74 171t174 73zM269 360q-68 0 -116.5 -51t-48.5 -123q0 -60 35 -96.5t92 -36.5q71 0 119.5 51t48.5 124q0 60 -35.5 96t-94.5 36z" />
<glyph unicode="&#x3c0;" horiz-adv-x="514" d="M75 0l42 348h-76l8 67h462l-8 -67h-76l-43 -348h-72l43 348h-166l-43 -348h-71z" />
<glyph unicode="&#x3c1;" horiz-adv-x="528" d="M118 70l-37 -303h-70l48 388q8 69 21 108.5t37 71.5q63 79 170 79q88 0 142 -55q56 -58 56 -143q0 -95 -62.5 -160.5t-152.5 -65.5q-49 0 -82 17t-70 63zM282 350q-64 0 -107.5 -46.5t-43.5 -115.5q0 -59 38 -96.5t97 -37.5q62 0 104.5 45t42.5 110q0 62 -36.5 101.5 t-94.5 39.5z" />
<glyph unicode="&#x3c2;" horiz-adv-x="396" d="M387 386l-10 -83q-52 51 -116 51q-67 0 -109.5 -50t-42.5 -129q0 -55 32 -79q23 -19 81 -27q62 -7 86 -24q33 -24 33 -74q0 -48 -27.5 -84t-100.5 -83l-32 49q53 32 71 52.5t18 49.5q0 26 -16.5 36t-68.5 16q-82 9 -117 43.5t-35 107.5q0 97 50 174q60 92 177 92 q69 0 127 -38z" />
<glyph unicode="&#x3c3;" horiz-adv-x="517" d="M549 415l-8 -67h-98q31 -53 31 -109q0 -109 -70 -180.5t-177 -71.5q-86 0 -139 51t-53 135q0 107 70.5 179.5t174.5 72.5q37 0 92 -5q67 -5 95 -5h82zM357 351q-56 5 -80 5q-72 0 -119.5 -50t-47.5 -125q0 -58 34 -91.5t92 -33.5q74 0 119.5 50t45.5 130q0 61 -44 115z " />
<glyph unicode="&#x3c4;" horiz-adv-x="322" d="M96 0l43 348h-120l8 67h313l-9 -67h-120l-42 -348h-73z" />
<glyph unicode="&#x3c5;" horiz-adv-x="460" d="M86 415h72l-30 -239q-3 -24 -3 -46q0 -77 84 -77q56 0 84 36q18 23 26 87l29 239h71l-30 -250q-12 -91 -55 -132q-48 -46 -134 -46q-69 0 -108.5 33.5t-39.5 91.5q0 26 4 53z" />
<glyph unicode="&#x3c6;" horiz-adv-x="625" d="M219 -233l27 224q-101 8 -156 57t-55 130q0 73 40.5 129.5t115.5 87.5l23 -51q-54 -32 -74 -57q-32 -43 -32 -98q0 -58 38.5 -92.5t108.5 -40.5l44 366q27 3 43 3q113 0 178 -50t65 -138q0 -104 -73.5 -171.5t-194.5 -75.5l-28 -223h-70zM362 359l-37 -303 q86 6 136.5 52.5t50.5 119.5q0 74 -63 108q-39 20 -87 23z" />
<glyph unicode="&#x3c7;" horiz-adv-x="413" d="M152 116l-111 299h80l87 -234l132 234h77l-183 -304l125 -344h-79l-100 277l-157 -277h-80z" />
<glyph unicode="&#x3c8;" horiz-adv-x="651" d="M234 -233l28 230h-20q-98 0 -142 34.5t-44 110.5q0 27 5 64l25 209h73l-26 -206q-4 -46 -4 -56q0 -48 26.5 -68.5t89.5 -20.5h25l43 351h71l-43 -351h25q76 0 108 32q28 28 39 113l25 206h73l-26 -209q-8 -65 -23.5 -101.5t-44.5 -61.5q-53 -46 -164 -46h-21l-28 -230 h-70z" />
<glyph unicode="&#x3c9;" horiz-adv-x="650" d="M297 273h66l-10 -82q-3 -25 -3 -48q0 -84 65 -84q53 0 87 51.5t34 131.5q0 52 -14 90.5t-48 82.5h71q64 -71 64 -173q0 -109 -56 -181t-139 -72q-82 0 -110 70q-45 -70 -127 -70q-67 0 -105.5 46t-38.5 126q0 154 117 254h72q-48 -45 -71 -85q-44 -77 -44 -160 q0 -51 23 -81t61 -30q41 0 64.5 32t31.5 100z" />
<glyph unicode="&#x3ca;" horiz-adv-x="202" d="M37 0l51 415h72l-51 -415h-72zM61 610q19 0 31.5 -12.5t12.5 -31.5q0 -22 -16.5 -39t-39.5 -17q-19 0 -31.5 12.5t-12.5 31.5q0 22 16.5 39t39.5 17zM235 610q19 0 31.5 -12.5t12.5 -30.5q0 -23 -16.5 -40t-39.5 -17q-19 0 -32 13t-13 32q0 22 17 38.5t40 16.5z" />
<glyph unicode="&#x3cb;" horiz-adv-x="460" d="M86 415h72l-30 -239q-3 -24 -3 -46q0 -77 84 -77q56 0 84 36q18 23 26 87l29 239h71l-30 -250q-12 -91 -55 -132q-48 -46 -134 -46q-69 0 -108.5 33.5t-39.5 91.5q0 26 4 53zM190 610q19 0 31.5 -12.5t12.5 -31.5q0 -22 -17 -39t-39 -17q-19 0 -31.5 12.5t-12.5 31.5 q0 22 17 39t39 17zM364 610q19 0 31.5 -12.5t12.5 -30.5q0 -23 -16.5 -40t-39.5 -17q-20 0 -32.5 13t-12.5 32q0 22 17 38.5t40 16.5z" />
<glyph unicode="&#x3cc;" horiz-adv-x="508" d="M279 425q83 0 138 -54t55 -137q0 -100 -74 -173t-175 -73q-84 0 -138 54.5t-54 138.5q0 98 74 171t174 73zM269 360q-68 0 -116.5 -51t-48.5 -123q0 -60 35 -96.5t92 -36.5q71 0 119.5 51t48.5 124q0 60 -35.5 96t-94.5 36zM261 501l14 206h75l-36 -206h-53z" />
<glyph unicode="&#x3cd;" horiz-adv-x="460" d="M86 415h72l-30 -239q-3 -24 -3 -46q0 -77 84 -77q56 0 84 36q18 23 26 87l29 239h71l-30 -250q-12 -91 -55 -132q-48 -46 -134 -46q-69 0 -108.5 33.5t-39.5 91.5q0 26 4 53zM237 501l14 206h75l-36 -206h-53z" />
<glyph unicode="&#x3ce;" horiz-adv-x="650" d="M297 273h66l-10 -82q-3 -25 -3 -48q0 -84 65 -84q53 0 87 51.5t34 131.5q0 52 -14 90.5t-48 82.5h71q64 -71 64 -173q0 -109 -56 -181t-139 -72q-82 0 -110 70q-45 -70 -127 -70q-67 0 -105.5 46t-38.5 126q0 154 117 254h72q-48 -45 -71 -85q-44 -77 -44 -160 q0 -51 23 -81t61 -30q41 0 64.5 32t31.5 100zM332 501l14 206h75l-36 -206h-53z" />
<glyph unicode="&#x3d1;" horiz-adv-x="484" d="M381 378h-103q-113 0 -150 32q-39 33 -39 99q0 95 59.5 163t142.5 68q169 0 169 -276q0 -11 -1 -20h69l-8 -66h-66q-10 -109 -41 -194q-72 -194 -206 -194q-79 0 -120.5 64t-41.5 186q0 36 6 90l5 39h71l-4 -38q-7 -49 -7 -100q0 -83 26 -128.5t74 -45.5q63 0 108.5 88 t56.5 233zM387 444v20q0 209 -106 209q-49 0 -84.5 -43.5t-35.5 -104.5q0 -47 25.5 -64t94.5 -17h106z" />
<glyph unicode="&#x3d5;" horiz-adv-x="625" d="M248 -10h-4h-3q-95 6 -151.5 56.5t-56.5 130.5q0 104 73.5 171.5t195.5 75.5l18 150h66l-18 -150q104 -9 159.5 -57.5t55.5 -130.5q0 -103 -73 -171t-191 -75h-5l-19 -157h-66zM360 358l-37 -303q86 6 136.5 52.5t50.5 120.5q0 73 -63 107q-37 20 -87 23zM257 55l37 303 q-85 -4 -136.5 -51t-51.5 -121q0 -59 39 -92.5t112 -38.5z" />
<glyph unicode="&#x400;" horiz-adv-x="467" d="M471 667l-9 -68h-253l-25 -204h253l-8 -68h-253l-32 -259h253l-8 -68h-327l82 667h327zM230 846l62 35l71 -136l-43 -22z" />
<glyph unicode="&#x401;" horiz-adv-x="469" d="M471 598h-271l-24 -199h263l-8 -69h-264l-32 -261h271l-9 -69h-345l82 667h345zM233 849q19 0 32 -12.5t13 -32.5q0 -22 -17 -39.5t-40 -17.5q-19 0 -32 12.5t-13 32.5q0 22 17 39.5t40 17.5zM423 849q19 0 32 -12.5t13 -32.5q0 -22 -17 -39.5t-40 -17.5q-19 0 -32 12.5 t-13 32.5q0 22 17 39.5t40 17.5z" />
<glyph unicode="&#x402;" horiz-adv-x="623" d="M110 0l73 598h-117l9 69h358l-9 -69h-165l-32 -256q87 74 179 74q70 0 108.5 -35.5t38.5 -99.5q0 -17 -4 -53l-29 -235q-7 -54 -20 -86t-53 -91h-67q36 68 49.5 103t18.5 75l27 221q3 23 3 43q0 88 -101 88q-87 0 -160 -86l-32 -260h-75z" />
<glyph unicode="&#x403;" horiz-adv-x="467" d="M59 0l82 667h357l-8 -69h-283l-73 -598h-75zM469 837l-158 -117l-39 32l135 130z" />
<glyph unicode="&#x404;" horiz-adv-x="666" d="M495 308h-355q1 -56 6 -82.5t21 -52.5q65 -112 208 -112q131 0 241 95l-12 -92q-112 -76 -243 -76q-134 0 -217 80.5t-83 210.5q0 170 111 284.5t277 114.5q114 0 201 -62l-11 -90q-81 78 -198 78q-74 0 -139.5 -33.5t-108.5 -94.5q-21 -30 -44 -101h354z" />
<glyph unicode="&#x405;" horiz-adv-x="482" d="M464 573l-51 -45q-44 83 -119 83q-47 0 -80 -31.5t-33 -77.5q0 -37 21 -62t84 -63q85 -51 116 -93t31 -105q0 -83 -56.5 -137.5t-142.5 -54.5t-146 55q-31 30 -57 87l58 35q18 -44 38 -65q42 -42 105 -42q55 0 90.5 36t35.5 92q0 41 -23 69t-91 69q-79 48 -107.5 85.5 t-28.5 94.5q0 78 52.5 128t134.5 50q109 0 169 -108z" />
<glyph unicode="&#x406;" horiz-adv-x="248" d="M59 0l82 667h75l-82 -667h-75z" />
<glyph unicode="&#x407;" horiz-adv-x="235" d="M208 667l-82 -667h-74l82 667h74zM98 849q20 0 32.5 -12.5t12.5 -32.5q0 -22 -17.5 -39.5t-39.5 -17.5q-20 0 -32.5 12.5t-12.5 32.5q0 22 17.5 39.5t39.5 17.5zM288 849q20 0 32.5 -12.5t12.5 -32.5q0 -22 -17.5 -39.5t-39.5 -17.5q-20 0 -32.5 12.5t-12.5 32.5 q0 22 17.5 39.5t39.5 17.5z" />
<glyph unicode="&#x408;" horiz-adv-x="359" d="M323 667l-57 -464q-13 -115 -37 -152q-38 -64 -116 -64q-76 0 -127 70l45 52q21 -29 38 -40.5t40 -11.5q38 0 56 31t28 116l57 463h73z" />
<glyph unicode="&#x409;" horiz-adv-x="891" d="M416 0l73 598h-212q-45 -266 -76 -374q-33 -119 -81 -172.5t-123 -53.5q-16 0 -30 2l9 71q19 -3 25 -3q67 0 105 98q52 132 107 501h358l-33 -269h114q102 0 150.5 -40t48.5 -125q0 -104 -63 -169q-61 -64 -191 -64h-181zM497 66h93q65 0 98.5 11.5t55.5 41.5 q32 45 32 100q0 54 -29 85q-29 29 -124 29h-93z" />
<glyph unicode="&#x40a;" horiz-adv-x="971" d="M59 0l82 667h75l-33 -269h362l33 269h73l-33 -269h114q109 0 154 -44q45 -42 45 -121q0 -104 -63 -169q-61 -64 -191 -64h-181l40 332h-362l-40 -332h-75zM577 66h93q65 0 98.5 11.5t55.5 41.5q32 45 32 100q0 54 -29 85q-30 29 -124 29h-93z" />
<glyph unicode="&#x40b;" horiz-adv-x="674" d="M120 0l74 598h-136l9 69h401l-9 -69h-190l-31 -256q95 74 199 74q79 0 122.5 -36t43.5 -102q0 -24 -3 -50l-28 -228h-73l26 215q3 21 3 41q0 90 -118 90q-102 0 -182 -86l-32 -260h-76z" />
<glyph unicode="&#x40c;" horiz-adv-x="572" d="M59 0l82 667h75l-39 -317l326 317h94l-343 -325l281 -342h-99l-262 328l-40 -328h-75zM514 837l-158 -117l-39 32l135 130z" />
<glyph unicode="&#x40d;" horiz-adv-x="684" d="M54 -39l87 706h72l-62 -506l504 538l-86 -699h-73l61 498zM319 846l62 35l71 -136l-43 -22z" />
<glyph unicode="&#x40e;" horiz-adv-x="531" d="M40 0l195 272l-171 395h88l132 -317l214 317h88l-467 -667h-79zM208 861h64q4 -35 20 -51t46 -16q59 0 83 67h64q-15 -62 -56 -96t-99 -34q-44 0 -76 22t-42 59q-4 14 -4 49z" />
<glyph unicode="&#x40f;" horiz-adv-x="673" d="M59 0l82 667h75l-74 -598h345l73 598h75l-82 -667h-212l-16 -128h-70l16 128h-212z" />
<glyph unicode="&#x410;" horiz-adv-x="607" d="M441 189h-284l-104 -189h-81l393 699l214 -699h-82zM421 258l-79 267l-147 -267h226z" />
<glyph unicode="&#x411;" horiz-adv-x="537" d="M59 0l82 667h359l-9 -69h-284l-25 -204h113q103 0 151 -39.5t48 -124.5q0 -102 -63 -167q-62 -63 -191 -63h-181zM142 66h92q65 0 98 11.5t55 41.5q32 43 32 98q0 54 -29 83q-30 29 -124 29h-92z" />
<glyph unicode="&#x412;" horiz-adv-x="516" d="M52 0l82 667h120q101 0 146 -41q47 -44 47 -116q0 -60 -33 -107q-15 -21 -50 -46q106 -33 106 -148q0 -100 -86 -163q-62 -46 -166 -46h-166zM172 373h57q47 0 73.5 10.5t46.5 38.5q25 34 25 80q0 50 -28 73t-88 23h-58zM135 69h85q80 0 120 30q55 40 55 105q0 57 -44 85 q-33 21 -111 21h-75z" />
<glyph unicode="&#x413;" horiz-adv-x="467" d="M59 0l82 667h357l-8 -69h-283l-73 -598h-75z" />
<glyph unicode="&#x414;" horiz-adv-x="626" d="M-63 -128l24 197h29q34 0 66.5 24.5t51.5 65.5q49 108 111 508h366l-73 -598h57l-24 -197h-70l16 128h-468l-16 -128h-70zM106 69h331l65 529h-219q-32 -203 -68 -343q-21 -81 -42.5 -117.5t-66.5 -68.5z" />
<glyph unicode="&#x415;" horiz-adv-x="469" d="M471 598h-271l-24 -199h263l-8 -69h-264l-32 -261h271l-9 -69h-345l82 667h345z" />
<glyph unicode="&#x416;" horiz-adv-x="870" d="M370 0l38 311h-32l-297 -311h-98l330 341l-228 326h92l200 -290h41l35 290h75l-35 -290h40l271 290h92l-307 -326l246 -341h-98l-220 311h-33l-38 -311h-74z" />
<glyph unicode="&#x417;" horiz-adv-x="551" d="M170 318l8 65h56q92 0 137 18q78 31 78 106q0 47 -44.5 73t-125.5 26q-87 0 -177 -38l10 81q85 30 183 30q109 0 170.5 -41t61.5 -114q0 -80 -66 -133q-30 -23 -83 -39q64 -20 93 -55t29 -90q0 -49 -23 -94t-63 -73q-72 -51 -202 -51q-111 0 -193 33l10 86 q80 -46 188 -46q99 0 152 37t53 105q0 114 -197 114h-55z" />
<glyph unicode="&#x418;" horiz-adv-x="684" d="M54 -39l87 706h72l-62 -506l504 538l-86 -699h-73l61 498z" />
<glyph unicode="&#x419;" horiz-adv-x="684" d="M54 -39l87 706h72l-62 -506l504 538l-86 -699h-73l61 498zM282 861h64q5 -35 20 -51t45 -16q60 0 84 67h64q-15 -62 -56 -96t-99 -34q-44 0 -76 22t-42 59q-4 14 -4 49z" />
<glyph unicode="&#x41a;" horiz-adv-x="572" d="M59 0l82 667h75l-39 -317l326 317h94l-343 -325l281 -342h-99l-262 328l-40 -328h-75z" />
<glyph unicode="&#x41b;" horiz-adv-x="605" d="M213 667h359l-82 -667h-74l73 598h-212q-43 -259 -76 -374q-33 -119 -81 -172.5t-123 -53.5q-16 0 -30 2l9 71q19 -3 25 -3q67 0 105 98q52 131 107 501z" />
<glyph unicode="&#x41c;" horiz-adv-x="849" d="M29 0l197 704l187 -563l331 564l16 -705h-76l-5 464l-288 -492l-163 492l-123 -464h-76z" />
<glyph unicode="&#x41d;" horiz-adv-x="650" d="M175 395h341l33 272h75l-82 -667h-75l40 326h-340l-40 -326h-75l82 667h75z" />
<glyph unicode="&#x41e;" horiz-adv-x="778" d="M449 678q127 0 215 -88t88 -216q0 -101 -55 -190t-146.5 -142.5t-194.5 -53.5q-71 0 -135 31t-108 86q-60 78 -60 187q0 154 119 270t277 116zM438 608q-124 0 -216.5 -92t-92.5 -216q0 -103 68 -172.5t169 -69.5q125 0 217.5 92.5t92.5 216.5q0 103 -68 172t-170 69z " />
<glyph unicode="&#x41f;" horiz-adv-x="677" d="M59 0l82 667h504l-82 -667h-75l73 598h-354l-73 -598h-75z" />
<glyph unicode="&#x420;" horiz-adv-x="444" d="M163 292l-36 -292h-75l82 667h121q114 0 162 -47q46 -43 46 -116q0 -75 -50 -138q-63 -74 -186 -74h-64zM171 360h60q92 0 132 56q26 35 26 81q0 101 -134 101h-55z" />
<glyph unicode="&#x421;" horiz-adv-x="643" d="M633 595l-10 -84q-38 47 -95.5 73t-123.5 26q-115 0 -190 -83.5t-75 -212.5q0 -118 69 -187.5t186 -69.5q106 0 186 67l-11 -89q-92 -48 -186 -48q-142 0 -230.5 91.5t-88.5 237.5q0 158 96 261t242 103q129 0 231 -85z" />
<glyph unicode="&#x422;" horiz-adv-x="411" d="M288 598l-73 -598h-75l73 598h-161l9 69h398l-9 -69h-162z" />
<glyph unicode="&#x423;" horiz-adv-x="531" d="M40 0l195 272l-171 395h88l132 -317l214 317h88l-467 -667h-79z" />
<glyph unicode="&#x424;" horiz-adv-x="879" d="M369 -54l12 98q-121 6 -191 44q-128 68 -128 210q0 75 37.5 142t103.5 110q96 63 249 70l12 100h70l-12 -100q123 -6 193 -44q128 -68 128 -209q0 -76 -37.5 -143t-103.5 -110q-97 -63 -251 -70l-12 -98h-70zM513 547l-53 -430q124 8 196 51q53 33 82.5 82.5t29.5 106.5 q0 56 -31.5 99.5t-90.5 67.5q-46 19 -133 23zM390 118l53 429q-123 -7 -194 -51q-53 -32 -82.5 -81.5t-29.5 -106.5t31.5 -100.5t90.5 -66.5q46 -19 131 -23z" />
<glyph unicode="&#x425;" horiz-adv-x="489" d="M218 345l-140 322h84l108 -251l172 251h85l-223 -322l150 -345h-83l-119 274l-189 -274h-84z" />
<glyph unicode="&#x426;" horiz-adv-x="675" d="M59 0l82 667h75l-74 -598h345l73 598h75l-74 -598h57l-24 -197h-70l16 128h-481z" />
<glyph unicode="&#x427;" horiz-adv-x="601" d="M411 0l30 239q-103 -17 -152 -17q-120 0 -176 51q-45 44 -45 123q0 22 4 66l25 205h75l-23 -188q-6 -52 -6 -68q0 -62 39.5 -90.5t125.5 -28.5q62 0 142 21l43 354h75l-82 -667h-75z" />
<glyph unicode="&#x428;" horiz-adv-x="919" d="M59 0l82 667h75l-74 -598h261l73 598h75l-73 -598h260l73 598h75l-82 -667h-745z" />
<glyph unicode="&#x429;" horiz-adv-x="926" d="M59 0l82 667h75l-74 -598h261l73 598h75l-73 -598h260l73 598h75l-73 -598h57l-25 -197h-69l15 128h-732z" />
<glyph unicode="&#x42a;" horiz-adv-x="649" d="M173 0l73 598h-198l9 69h271l-33 -269h114q102 0 150.5 -40t48.5 -125q0 -104 -63 -169q-61 -64 -191 -64h-181zM254 66h93q65 0 98.5 11.5t55.5 41.5q32 45 32 100q0 54 -29 85q-29 29 -124 29h-93z" />
<glyph unicode="&#x42b;" horiz-adv-x="750" d="M59 0l82 667h73l-33 -269h114q103 0 151 -40t48 -125q0 -104 -63 -169q-61 -64 -191 -64h-181zM140 66h94q65 0 98.5 11.5t54.5 41.5q32 45 32 100q0 54 -29 85q-29 29 -124 29h-93zM559 0l82 667h76l-82 -667h-76z" />
<glyph unicode="&#x42c;" horiz-adv-x="535" d="M59 0l82 667h73l-33 -269h114q103 0 151 -40t48 -125q0 -104 -63 -169q-61 -64 -191 -64h-181zM140 66h94q65 0 98.5 11.5t54.5 41.5q32 45 32 100q0 54 -29 85q-29 29 -124 29h-93z" />
<glyph unicode="&#x42d;" horiz-adv-x="666" d="M191 308l9 67h354q-4 50 -9 71.5t-18 45.5q-65 112 -210 112q-115 0 -216 -78l11 90q101 62 216 62q136 0 220 -81t84 -213q0 -168 -111 -282t-274 -114q-131 0 -225 76l11 92q86 -95 217 -95q74 0 140 33.5t109 94.5q26 36 48 119h-356z" />
<glyph unicode="&#x42e;" horiz-adv-x="1038" d="M59 0l82 667h75l-37 -297h150q34 137 139 222.5t239 85.5q126 0 211 -86.5t85 -214.5q0 -156 -116 -272.5t-272 -116.5q-86 0 -158.5 45t-107.5 120q-29 61 -29 146h-150l-36 -299h-75zM697 608q-121 0 -211.5 -92.5t-90.5 -215.5q0 -103 65.5 -172.5t163.5 -69.5 q121 0 212 92.5t91 216.5q0 101 -66.5 171t-163.5 70z" />
<glyph unicode="&#x42f;" horiz-adv-x="540" d="M386 295h-22l-265 -295h-85l273 300q-96 1 -136 32q-53 39 -53 119q0 97 64 159q32 31 73.5 44t105.5 13h166l-82 -667h-75zM394 358l29 242h-86q-87 0 -125 -41q-38 -40 -38 -98q0 -103 126 -103h94z" />
<glyph unicode="&#x430;" horiz-adv-x="513" d="M401 415h72l-51 -415h-72l7 58q-67 -70 -152 -70q-78 0 -126.5 52t-48.5 136q0 104 66.5 176.5t161.5 72.5q86 0 136 -69zM260 360q-65 0 -111 -51t-46 -123q0 -60 32.5 -96.5t86.5 -36.5q68 0 114 52.5t46 128.5q0 56 -33.5 91t-88.5 35z" />
<glyph unicode="&#x431;" horiz-adv-x="535" d="M490 737l-3 -71q-22 -16 -122 -28q-43 -4 -70.5 -9.5t-51.5 -19t-37.5 -31.5t-25.5 -52.5t-19.5 -75.5t-15.5 -107q36 46 73.5 64.5t91.5 18.5q84 0 134.5 -51.5t50.5 -136.5q0 -106 -71.5 -178t-176.5 -72q-110 0 -158 76q-27 42 -27 131q0 130 32 276q18 82 46.5 129 t74.5 70q35 18 149 34q95 13 126 33zM294 358q-71 0 -117 -49.5t-46 -125.5q0 -56 35.5 -91.5t91.5 -35.5q67 0 115 51t48 122q0 57 -35.5 93t-91.5 36z" />
<glyph unicode="&#x432;" horiz-adv-x="449" d="M36 0l51 415h177q72 0 103.5 -21t31.5 -70q0 -70 -66 -102q66 -26 66 -91q0 -61 -45 -98q-42 -33 -123 -33h-195zM136 237h94q55 0 77 25q19 22 19 50q0 50 -71 50h-103zM114 53h110q57 0 80 20t23 54q0 61 -91 61h-106z" />
<glyph unicode="&#x433;" horiz-adv-x="333" d="M36 0l51 415h258l-8 -66h-187l-43 -349h-71z" />
<glyph unicode="&#x434;" horiz-adv-x="477" d="M357 0h-327l-13 -110h-69l22 176h18q26 0 51.5 22.5t41.5 61.5q27 63 58 265h292l-43 -349h45l-21 -176h-69zM314 66l35 283h-152q-2 -17 -5 -28l-13 -73q-13 -73 -33 -115t-52 -67h220z" />
<glyph unicode="&#x435;" horiz-adv-x="468" d="M429 193h-324v-19q0 -53 32.5 -87t82.5 -34q41 0 72 19.5t66 67.5l56 -34q-81 -118 -204 -118q-82 0 -131 50.5t-49 133.5q0 107 66 180t164 73q80 0 126.5 -49t46.5 -133q0 -19 -4 -50zM117 253h244q-3 49 -32.5 78t-75.5 29t-84 -30t-52 -77z" />
<glyph unicode="&#x436;" horiz-adv-x="584" d="M229 0l22 183h-24l-184 -183h-85l216 214l-144 201h80l124 -177h24l22 177h69l-21 -177h23l168 177h80l-193 -201l163 -214h-85l-139 183h-24l-23 -183h-69z" />
<glyph unicode="&#x437;" horiz-adv-x="409" d="M86 185l7 55h82q54 0 78 12q36 17 36 51q0 56 -111 56q-68 0 -130 -24l8 68q71 21 146 21q163 0 163 -106q0 -71 -70 -102q58 -23 58 -87q0 -56 -42 -95q-51 -47 -165 -47q-81 0 -148 22l9 70q75 -27 144 -27q59 0 93 20t34 55q0 58 -110 58h-82z" />
<glyph unicode="&#x438;" horiz-adv-x="456" d="M31 -38l56 453h70l-33 -273l295 305l-55 -447h-71l33 267z" />
<glyph unicode="&#x439;" horiz-adv-x="456" d="M31 -38l56 453h70l-33 -273l295 305l-55 -447h-71l33 267zM146 633h62v-9q0 -27 16.5 -44t42.5 -17q60 0 80 70h62q-15 -60 -54.5 -95t-94.5 -35q-49 0 -82 31t-33 76q0 14 1 23z" />
<glyph unicode="&#x43a;" horiz-adv-x="422" d="M36 0l51 415h71l-24 -196l203 196h80l-210 -200l180 -215h-86l-169 201l-25 -201h-71z" />
<glyph unicode="&#x43b;" horiz-adv-x="444" d="M281 0l43 349h-152q-26 -154 -39 -204q-41 -147 -147 -147q-12 0 -27 2l9 72q17 -4 23 -4q29 0 49 31.5t36 101.5q13 58 36 214h291l-51 -415h-71z" />
<glyph unicode="&#x43c;" horiz-adv-x="601" d="M11 0l151 447l124 -338l206 338l41 -447h-71l-16 255l-181 -284l-103 284l-80 -255h-71z" />
<glyph unicode="&#x43d;" horiz-adv-x="463" d="M36 0l51 415h71l-19 -161h192l20 161h71l-51 -415h-71l23 189h-192l-24 -189h-71z" />
<glyph unicode="&#x43e;" horiz-adv-x="508" d="M279 425q83 0 138 -54t55 -137q0 -100 -74 -173t-175 -73q-84 0 -138 54.5t-54 138.5q0 98 74 171t174 73zM269 360q-68 0 -116.5 -51t-48.5 -123q0 -60 35 -96.5t92 -36.5q71 0 119.5 51t48.5 124q0 60 -35.5 96t-94.5 36z" />
<glyph unicode="&#x43f;" horiz-adv-x="456" d="M36 0l51 415h328l-51 -415h-71l43 349h-186l-43 -349h-71z" />
<glyph unicode="&#x440;" horiz-adv-x="513" d="M78 -233h-71l80 648h71l-8 -59q69 69 153 69q78 0 126.5 -51.5t48.5 -136.5q0 -104 -66.5 -176.5t-161.5 -72.5q-85 0 -136 70zM286 360q-67 0 -113.5 -52t-46.5 -128q0 -56 34 -91.5t89 -35.5q64 0 110 51.5t46 122.5q0 60 -32.5 96.5t-86.5 36.5z" />
<glyph unicode="&#x441;" horiz-adv-x="423" d="M404 385l-11 -94q-30 38 -57.5 53.5t-65.5 15.5q-68 0 -117.5 -51.5t-49.5 -122.5q0 -59 35.5 -96t91.5 -37q40 0 72.5 16t72.5 56l-12 -94q-71 -43 -137 -43q-86 0 -141 53.5t-55 137.5q0 100 74.5 173t175.5 73q69 0 124 -40z" />
<glyph unicode="&#x442;" horiz-adv-x="322" d="M96 0l43 348h-120l8 67h313l-9 -67h-120l-42 -348h-73z" />
<glyph unicode="&#x443;" horiz-adv-x="445" d="M169 40l-145 375h83l109 -297l172 297h80l-386 -648h-81z" />
<glyph unicode="&#x444;" horiz-adv-x="722" d="M269 -233l33 264q-54 -44 -119 -44q-69 0 -109 48.5t-40 132.5q0 110 59 184.5t145 74.5q63 0 107 -44l24 196h70l-24 -196q54 44 118 44q69 0 109 -48.5t40 -132.5q0 -109 -58.5 -184t-144.5 -75q-63 0 -108 44l-32 -264h-70zM312 111l23 192q-37 56 -94 56t-95.5 -52.5 t-38.5 -129.5q0 -57 26 -89.5t71 -32.5q55 0 108 56zM405 303l-24 -192q39 -56 94 -56q57 0 95.5 52t38.5 130q0 57 -26 89.5t-71 32.5q-55 0 -107 -56z" />
<glyph unicode="&#x445;" horiz-adv-x="445" d="M179 222l-128 193h87l91 -141l126 141h88l-176 -193l145 -222h-86l-110 169l-153 -169h-89z" />
<glyph unicode="&#x446;" horiz-adv-x="463" d="M36 0l51 415h71l-43 -349h186l43 349h71l-42 -349h45l-22 -176h-68l13 110h-305z" />
<glyph unicode="&#x447;" horiz-adv-x="423" d="M259 0l16 126q-49 -13 -91 -13q-71 0 -105 32.5t-34 101.5q0 23 3 47l15 121h71l-14 -119q-4 -34 -4 -41q0 -75 85 -75q42 0 82 16l27 219h72l-51 -415h-72z" />
<glyph unicode="&#x448;" horiz-adv-x="658" d="M36 0l51 415h72l-43 -349h157l43 349h71l-43 -349h157l42 349h73l-51 -415h-529z" />
<glyph unicode="&#x449;" horiz-adv-x="664" d="M36 0l51 415h72l-43 -349h157l43 349h71l-43 -349h157l42 349h73l-43 -349h45l-21 -176h-69l13 110h-505z" />
<glyph unicode="&#x44a;" horiz-adv-x="461" d="M78 0l43 349h-109l8 66h180l-18 -149h95q79 0 114.5 -26.5t35.5 -85.5q0 -74 -50 -116q-42 -38 -129 -38h-170zM156 57h87q61 0 88.5 21.5t27.5 68.5q0 34 -22 48t-75 14h-87z" />
<glyph unicode="&#x44b;" horiz-adv-x="597" d="M36 0l51 415h71l-18 -149h95q79 0 114.5 -26.5t35.5 -85.5q0 -74 -50 -116q-44 -38 -129 -38h-170zM114 57h87q60 0 87.5 21.5t27.5 68.5q0 34 -22 48t-74 14h-87zM432 0l51 415h73l-51 -415h-73z" />
<glyph unicode="&#x44c;" horiz-adv-x="420" d="M36 0l51 415h71l-18 -149h95q79 0 114.5 -26.5t35.5 -85.5q0 -74 -50 -116q-44 -38 -129 -38h-170zM114 57h87q60 0 87.5 21.5t27.5 68.5q0 34 -22 48t-74 14h-87z" />
<glyph unicode="&#x44d;" horiz-adv-x="445" d="M110 182l7 56h214q-5 45 -17 64q-36 60 -123 60q-42 0 -71.5 -10t-78.5 -41l10 77q84 38 158 38q89 0 142.5 -51t53.5 -136q0 -110 -72 -181t-184 -71q-78 0 -146 38l9 76q40 -30 68 -40t70 -10q96 0 147 69q15 21 28 62h-215z" />
<glyph unicode="&#x44e;" horiz-adv-x="706" d="M51 0l51 415h71l-21 -175h91q20 68 54 106q73 79 180 79q85 0 137 -51.5t52 -135.5q0 -105 -70.5 -177t-172.5 -72q-86 0 -136.5 50t-52.5 137h-90l-22 -176h-71zM469 357q-71 0 -117 -49t-46 -125q0 -58 34 -92t92 -34q70 0 116 49.5t46 124.5q0 58 -34 92t-91 34z" />
<glyph unicode="&#x44f;" horiz-adv-x="420" d="M255 0l19 155l-6 1l-174 -156h-90l189 164q-75 1 -107 21q-44 27 -44 84q0 65 43 106q23 23 52.5 31.5t86.5 8.5h154l-51 -415h-72zM280 210l19 149h-74q-64 0 -89 -25q-21 -23 -21 -57q0 -36 21 -51.5t70 -15.5h74z" />
<glyph unicode="&#x450;" horiz-adv-x="469" d="M432 185h-324q1 -52 22 -82q38 -52 109 -52q70 0 112 54l54 -32q-62 -86 -167 -86q-91 0 -146.5 54.5t-55.5 143.5q0 100 60 166t149 66q67 0 116.5 -40t63.5 -106q7 -36 7 -86zM114 243h246q-4 52 -35.5 81t-82.5 29q-63 0 -99 -45q-19 -23 -29 -65zM179 600l62 37 l74 -139l-43 -25z" />
<glyph unicode="&#x451;" horiz-adv-x="468" d="M429 193h-324v-19q0 -53 32.5 -87t82.5 -34q41 0 72 19.5t66 67.5l56 -34q-81 -118 -204 -118q-82 0 -131 50.5t-49 133.5q0 107 66 180t164 73q80 0 126.5 -49t46.5 -133q0 -19 -4 -50zM117 253h244q-3 49 -32.5 78t-75.5 29t-84 -30t-52 -77zM198 610q19 0 32 -12.5 t13 -31.5q0 -22 -17 -39t-40 -17q-19 0 -31.5 12.5t-12.5 31.5q0 22 17 39t39 17zM372 610q19 0 31.5 -12.5t12.5 -30.5q0 -23 -16.5 -40t-39.5 -17q-20 0 -32.5 13t-12.5 32q0 22 17 38.5t40 16.5z" />
<glyph unicode="&#x452;" horiz-adv-x="459" d="M28 0l65 530h-53l6 52h53l17 137h74l-17 -137h144l-6 -52h-144l-22 -175q33 38 64.5 54t74.5 16q56 0 87.5 -30.5t31.5 -84.5q0 -23 -3 -47l-34 -271q-12 -96 -65 -215h-68q31 83 43 125.5t18 92.5l32 257q0 6 1.5 18.5t1.5 17.5q2 32 -19 50t-58 18q-57 0 -92 -44 q-24 -32 -32 -96l-27 -216h-73z" />
<glyph unicode="&#x453;" horiz-adv-x="333" d="M36 0l51 415h258l-8 -66h-187l-43 -349h-71zM364 623l-151 -136l-42 25l123 144z" />
<glyph unicode="&#x454;" horiz-adv-x="445" d="M323 182h-215q4 -46 18 -70q36 -61 125 -61q43 0 73 10t78 40l-10 -76q-77 -38 -155 -38q-94 0 -148 50t-54 137q0 108 71.5 180t178.5 72q73 0 149 -38l-10 -77q-40 31 -67.5 41t-69.5 10q-93 0 -142 -67q-15 -19 -29 -57h214z" />
<glyph unicode="&#x455;" horiz-adv-x="347" d="M317 366l-44 -43q-40 31 -77 31q-29 0 -48 -15.5t-19 -38.5q0 -21 14 -34.5t57 -33.5q57 -27 78 -52.5t21 -67.5q0 -55 -40.5 -90t-103.5 -35q-89 0 -139 86l53 33q34 -55 86 -55q32 0 51.5 16.5t19.5 43.5q0 23 -13.5 36t-63.5 37q-49 23 -70.5 49t-21.5 64 q0 52 39.5 86.5t99.5 34.5q68 0 121 -52z" />
<glyph unicode="&#x456;" horiz-adv-x="206" d="M148 624q17 0 29.5 -12.5t12.5 -30.5t-13 -31.5t-31 -13.5q-17 0 -29 12.5t-12 30.5q0 19 13 32t30 13zM160 404l-50 -404h-70l50 404h70z" />
<glyph unicode="&#x457;" horiz-adv-x="200" d="M159 415l-51 -415h-72l51 415h72zM60 610q19 0 31.5 -12.5t12.5 -31.5q0 -22 -17 -39t-39 -17q-19 0 -31.5 12.5t-12.5 31.5q0 22 17 39t39 17zM234 610q19 0 31.5 -12.5t12.5 -30.5q0 -23 -16.5 -40t-39.5 -17q-20 0 -32.5 13t-12.5 32q0 22 17 38.5t40 16.5z" />
<glyph unicode="&#x458;" horiz-adv-x="206" d="M148 625q17 0 29 -12.5t12 -30.5t-13 -31.5t-31 -13.5q-17 0 -29 12.5t-12 30.5q0 19 13 32t31 13zM159 404l-78 -637h-70l78 637h70z" />
<glyph unicode="&#x459;" horiz-adv-x="643" d="M260 0l43 349h-131q-24 -148 -39 -204q-41 -147 -147 -147q-12 0 -27 2l9 72q17 -4 23 -4q29 0 49 31.5t36 101.5q12 51 36 214h271l-18 -149h94q79 0 115 -26.5t36 -85.5q0 -74 -50 -116q-44 -38 -129 -38h-171zM339 57h86q61 0 89 21.5t28 68.5q0 34 -22 48t-75 14h-87 z" />
<glyph unicode="&#x45a;" horiz-adv-x="616" d="M320 184h-187l-23 -184h-70l50 404h70l-20 -157h188l19 157h70l-20 -163h65q127 0 127 -101q0 -59 -39 -98q-42 -42 -119 -42h-134zM375 60h59q38 0 57 14q26 19 26 53q0 54 -74 54h-54z" />
<glyph unicode="&#x45b;" horiz-adv-x="459" d="M28 0l65 530h-53l6 52h53l17 137h74l-17 -137h143l-7 -52h-142l-22 -175q33 38 64.5 54t74.5 16q56 0 87.5 -30.5t31.5 -84.5q0 -23 -3 -47l-33 -263h-72l31 252q0 6 1 14t1.5 14t0.5 8q0 68 -77 68q-57 0 -92 -44q-24 -32 -32 -96l-27 -216h-73z" />
<glyph unicode="&#x45c;" horiz-adv-x="422" d="M36 0l51 415h71l-24 -196l203 196h80l-210 -200l180 -215h-86l-169 201l-25 -201h-71zM407 623l-151 -136l-42 25l123 144z" />
<glyph unicode="&#x45d;" horiz-adv-x="456" d="M31 -38l56 453h70l-33 -273l295 305l-55 -447h-71l33 267zM171 600l62 37l74 -139l-43 -25z" />
<glyph unicode="&#x45e;" horiz-adv-x="445" d="M169 40l-145 375h83l109 -297l172 297h80l-386 -648h-81zM147 633h62v-9q0 -27 16.5 -44t42.5 -17q60 0 80 70h62q-14 -60 -54 -95t-95 -35q-49 0 -82 31t-33 76q0 13 1 23z" />
<glyph unicode="&#x45f;" horiz-adv-x="457" d="M36 0l51 415h71l-43 -349h187l43 349h71l-51 -415h-130l-14 -110h-68l13 110h-130z" />
<glyph unicode="&#x490;" horiz-adv-x="467" d="M59 0l82 667h287l8 65h70l-16 -134h-283l-73 -598h-75z" />
<glyph unicode="&#x491;" horiz-adv-x="333" d="M36 0l51 415h191l8 65h67l-16 -131h-187l-43 -349h-71z" />
<glyph unicode="&#x492;" horiz-adv-x="468" d="M59 0l39 319h-61l8 67h61l35 281h359l-9 -69h-282l-26 -212h168l-8 -67h-169l-39 -319h-76z" />
<glyph unicode="&#x493;" horiz-adv-x="315" d="M37 0l21 173h-47l8 62h47l22 180h241l-9 -66h-169l-14 -114h118l-8 -62h-117l-22 -173h-71z" />
<glyph unicode="&#x496;" horiz-adv-x="870" d="M783 69h59l-24 -197h-70l16 128h-29l-220 311h-33l-38 -311h-74l38 311h-32l-297 -311h-98l330 341l-228 326h92l200 -290h41l35 290h75l-35 -290h40l271 290h92l-307 -326z" />
<glyph unicode="&#x497;" horiz-adv-x="584" d="M519 66h61l-22 -176h-68l13 110h-19l-139 183h-24l-23 -183h-69l22 183h-24l-184 -183h-85l216 214l-144 201h80l124 -177h24l22 177h69l-21 -177h23l168 177h80l-193 -201z" />
<glyph unicode="&#x49a;" horiz-adv-x="572" d="M478 69h63l-25 -197h-70l16 128h-26l-262 327l-40 -327h-75l82 667h75l-39 -317l326 317h94l-343 -325z" />
<glyph unicode="&#x49b;" horiz-adv-x="422" d="M331 66h63l-21 -176h-69l13 110h-16l-169 201l-25 -201h-71l51 415h71l-24 -196l203 196h80l-210 -200z" />
<glyph unicode="&#x49c;" horiz-adv-x="583" d="M59 0l82 667h75l-37 -295h59l21 170h47l-21 -168l252 293h94l-285 -325l223 -342h-99l-193 305l-22 -180h-48l23 181h-59l-37 -306h-75z" />
<glyph unicode="&#x49d;" horiz-adv-x="454" d="M36 0l51 415h71l-20 -162h46l12 98h43l-12 -96l148 160h80l-178 -193l148 -222h-86l-120 187l-13 -102h-42l12 103h-46l-23 -188h-71z" />
<glyph unicode="&#x4a2;" horiz-adv-x="650" d="M551 69h42l-24 -197h-70l16 128h-48l40 326h-340l-40 -326h-75l82 667h75l-34 -272h341l33 272h75z" />
<glyph unicode="&#x4a3;" horiz-adv-x="463" d="M380 66h40l-22 -176h-68l13 110h-43l23 189h-192l-24 -189h-71l51 415h71l-19 -161h192l20 161h71z" />
<glyph unicode="&#x4ae;" horiz-adv-x="514" d="M226 287l-172 380h86l133 -298l209 298h86l-268 -380l-35 -287h-75z" />
<glyph unicode="&#x4af;" horiz-adv-x="452" d="M169 6l-144 409h82l109 -332l178 332h80l-226 -404l-30 -244h-79z" />
<glyph unicode="&#x4b0;" horiz-adv-x="547" d="M205 0l24 200h-126l8 70h127l3 24l-178 373h88l139 -293l213 293h90l-277 -373l-3 -24h129l-9 -70h-129l-24 -200h-75z" />
<glyph unicode="&#x4b1;" horiz-adv-x="507" d="M177 -67h-129l8 67h129l3 28l-151 385h85l114 -312l194 312h85l-251 -386l-3 -27h128l-9 -67h-127l-20 -159h-76z" />
<glyph unicode="&#x4b2;" horiz-adv-x="489" d="M424 69h64l-24 -197h-70l16 128h-39l-119 274l-189 -274h-84l239 345l-140 322h84l108 -251l172 251h85l-223 -322z" />
<glyph unicode="&#x4b3;" horiz-adv-x="445" d="M369 66h61l-22 -176h-69l14 110h-27l-110 169l-153 -169h-89l205 222l-128 193h87l91 -141l126 141h88l-176 -194z" />
<glyph unicode="&#x4b6;" horiz-adv-x="601" d="M468 0h-57l30 239q-104 -18 -152 -18q-121 0 -176 52q-45 42 -45 123q0 22 4 66l25 205h75l-23 -188q-6 -54 -6 -68q0 -63 39.5 -91.5t125.5 -28.5q64 0 142 22l43 354h75l-73 -598h52l-25 -197h-70z" />
<glyph unicode="&#x4b7;" horiz-adv-x="423" d="M308 0h-49l16 126q-49 -13 -91 -13q-71 0 -105 32.5t-34 101.5q0 21 3 47l15 121h71l-14 -119q-4 -34 -4 -41q0 -75 85 -75q44 0 82 16l27 219h72l-43 -349h46l-22 -176h-68z" />
<glyph unicode="&#x4b8;" horiz-adv-x="601" d="M239 91l17 132q-98 8 -143 49.5t-45 123.5q0 20 4 66l25 205h75l-23 -189q-6 -52 -6 -67q0 -56 27.5 -82.5t93.5 -34.5l24 196h48l-25 -199q67 2 139 22l43 354h75l-82 -667h-75l30 239q-98 -17 -138 -17l-16 -131h-48z" />
<glyph unicode="&#x4b9;" horiz-adv-x="423" d="M159 36l10 77q-66 6 -95 37t-29 96q0 23 3 47l15 122h71l-14 -120q-4 -34 -4 -41q0 -61 61 -72l16 126h42l-15 -127q39 4 63 15l27 219h72l-51 -415h-72l16 126q-25 -7 -63 -12l-10 -78h-43z" />
<glyph unicode="&#x4bb;" horiz-adv-x="462" d="M200 729l-46 -370q34 32 59.5 43.5t61.5 11.5q56 0 91 -30.5t35 -80.5q0 -19 -5 -59l-30 -244h-70l30 245q4 32 4 40q0 31 -19 48t-54 17q-50 0 -84 -34q-27 -28 -36 -96l-27 -220h-70l90 729h70z" />
<glyph unicode="&#x4c0;" horiz-adv-x="248" d="M59 0l82 667h75l-82 -667h-75z" />
<glyph unicode="&#x4cf;" horiz-adv-x="248" d="M59 0l82 667h75l-82 -667h-75z" />
<glyph unicode="&#x4d8;" horiz-adv-x="794" d="M66 350h617q1 8 1 17q0 103 -68 172t-169 69q-157 0 -257 -140l-64 29q61 87 147 134t184 47q127 0 215 -88t88 -216q0 -101 -55 -190t-146.5 -142.5t-194.5 -53.5q-128 0 -216 87t-88 214q0 29 6 61zM671 281h-534q6 -95 73.5 -159t162.5 -64q100 0 183 62.5t115 160.5z " />
<glyph unicode="&#x4d9;" d="M37 219h347q2 18 2 25q0 54 -34 89t-86 35q-83 0 -140 -80l-66 15q34 58 89.5 90t121.5 32q86 0 138 -51t52 -135q0 -104 -71 -177t-171 -73q-83 0 -134 52.5t-51 138.5q0 12 3 39zM375 168h-267q3 -41 19 -67q15 -25 42 -40t56 -15q52 0 94 34t56 88z" />
<glyph unicode="&#x4e2;" horiz-adv-x="684" d="M54 -39l87 706h72l-62 -506l504 538l-86 -699h-73l61 498zM279 820h282l-7 -55h-282z" />
<glyph unicode="&#x4e3;" horiz-adv-x="456" d="M31 -38l56 453h70l-33 -273l295 305l-55 -447h-71l33 267zM145 572h252l-7 -55h-252z" />
<glyph unicode="&#x4e8;" horiz-adv-x="794" d="M457 678q127 0 215 -88t88 -215q0 -154 -119 -270.5t-277 -116.5q-71 0 -135 31t-108 86q-60 78 -60 187q0 154 119 270t277 116zM145 368h539q-1 103 -68.5 171.5t-169.5 68.5q-105 0 -189.5 -67.5t-111.5 -172.5zM676 299h-540q1 -103 69 -172t168 -69q106 0 191 68 t112 173z" />
<glyph unicode="&#x4e9;" horiz-adv-x="530" d="M290 425q88 0 144 -53.5t56 -138.5q0 -101 -75 -172.5t-182 -71.5q-86 0 -142 54.5t-56 137.5q0 100 75.5 172t179.5 72zM113 237h306q-1 29 -9 46q-14 37 -50 59t-80 22q-58 0 -102 -33.5t-65 -93.5zM413 182h-307q4 -38 13 -57q13 -34 47 -54.5t75 -20.5q44 0 85 22 t64 57q12 19 23 53z" />
<glyph unicode="&#x4ee;" horiz-adv-x="531" d="M40 0l195 272l-171 395h88l132 -317l214 317h88l-467 -667h-79zM195 820h282l-7 -55h-282z" />
<glyph unicode="&#x4ef;" horiz-adv-x="445" d="M169 40l-145 375h83l109 -297l172 297h80l-386 -648h-81zM142 572h252l-7 -55h-252z" />
<glyph unicode="&#x1e1e;" horiz-adv-x="431" d="M448 667l-8 -68h-231l-25 -203h231l-8 -68h-231l-41 -328h-73l82 667h304zM312 843q19 0 32.5 -14t13.5 -34t-14.5 -35t-34.5 -15q-19 0 -33 14.5t-14 34.5t14.5 34.5t35.5 14.5z" />
<glyph unicode="&#x1e80;" horiz-adv-x="914" d="M64 667h76l124 -501l249 520l128 -518l237 499h80l-339 -697l-127 519l-253 -519zM436 846l62 35l71 -136l-43 -22z" />
<glyph unicode="&#x1e81;" horiz-adv-x="643" d="M659 404l-250 -438l-88 291l-163 -291l-136 438h74l83 -279l161 288l86 -288l153 279h80zM257 600l62 37l74 -139l-43 -25z" />
<glyph unicode="&#x1e82;" horiz-adv-x="914" d="M64 667h76l124 -501l249 520l128 -518l237 499h80l-339 -697l-127 519l-253 -519zM636 842l-136 -119l-37 25l113 133z" />
<glyph unicode="&#x1e83;" horiz-adv-x="643" d="M659 404l-250 -438l-88 291l-163 -291l-136 438h74l83 -279l161 288l86 -288l153 279h80zM475 599l-139 -126l-37 25l117 139z" />
<glyph unicode="&#x1e84;" horiz-adv-x="914" d="M64 667h76l124 -501l249 520l128 -518l237 499h80l-339 -697l-127 519l-253 -519zM446 841q18 0 31 -13t13 -32q0 -20 -14 -34.5t-33 -14.5t-32 13.5t-13 32.5q0 20 14 34t34 14zM614 841q18 0 31 -13t13 -32q0 -20 -14 -34.5t-33 -14.5t-32 13.5t-13 32.5q0 20 14 34 t34 14z" />
<glyph unicode="&#x1e85;" horiz-adv-x="643" d="M659 404l-250 -438l-88 291l-163 -291l-136 438h74l83 -279l161 288l86 -288l153 279h80zM264 590q17 0 28.5 -13t11.5 -32q0 -18 -12.5 -31t-30.5 -13q-17 0 -29 12.5t-12 30.5q0 20 12.5 33t31.5 13zM419 590q17 0 28.5 -13t11.5 -32q0 -18 -12.5 -31t-30.5 -13 q-17 0 -29 12.5t-12 30.5q0 20 12.5 33t31.5 13z" />
<glyph unicode="&#x1ea0;" horiz-adv-x="617" d="M180 186l-97 -186h-81l371 707l206 -707h-76l-52 186h-271zM215 254h215l-75 273zM301 -36q20 0 34 -14t14 -34q0 -19 -14.5 -33t-33.5 -14t-32.5 14t-13.5 34t13.5 33.5t32.5 13.5z" />
<glyph unicode="&#x1ea1;" horiz-adv-x="523" d="M477 404l-50 -404h-70l7 57q-38 -38 -68.5 -52.5t-71.5 -14.5q-83 0 -135.5 55t-52.5 141q0 100 60 164t153 64q49 0 82.5 -17t67.5 -59l8 66h70zM255 350q-62 0 -104.5 -46t-42.5 -114q0 -59 37 -97.5t92 -38.5q61 0 105.5 48.5t44.5 115.5q0 58 -37 95t-95 37zM206 -47 q20 0 34 -14t14 -34q0 -19 -14.5 -33t-33.5 -14t-32.5 14t-13.5 34t13.5 33.5t32.5 13.5z" />
<glyph unicode="&#x1ea2;" horiz-adv-x="617" d="M180 186l-97 -186h-81l371 707l206 -707h-76l-52 186h-271zM215 254h215l-75 273zM398 745h-40l13 61q25 5 33 5q35 4 49.5 15t14.5 33q0 32 -45 32q-19 0 -49 -14q-1 0 -2 -0.5t-3.5 -1.5t-4.5 -2l-6 32q54 19 92 19q37 0 58.5 -17t21.5 -45q0 -35 -26 -57t-67 -22 q-19 0 -31 1z" />
<glyph unicode="&#x1ea3;" horiz-adv-x="523" d="M477 404l-50 -404h-70l7 57q-38 -38 -68.5 -52.5t-71.5 -14.5q-83 0 -135.5 55t-52.5 141q0 100 60 164t153 64q49 0 82.5 -17t67.5 -59l8 66h70zM255 350q-62 0 -104.5 -46t-42.5 -114q0 -59 37 -97.5t92 -38.5q61 0 105.5 48.5t44.5 115.5q0 58 -37 95t-95 37zM296 477 h-40l13 61q25 5 32 5q36 4 50.5 15t14.5 33q0 32 -45 32q-20 0 -50 -14q-1 -1 -9 -4l-6 32q54 19 92 19q37 0 58.5 -17t21.5 -45q0 -35 -26 -57t-67 -22q-19 0 -31 1z" />
<glyph unicode="&#x1ea4;" horiz-adv-x="617" d="M455 818l99 116l60 -39l-127 -111l22 -24l-41 -36l-81 85l-111 -86l-38 37l159 122zM180 186l-97 -186h-81l371 707l206 -707h-76l-52 186h-271zM215 254h215l-75 273z" />
<glyph unicode="&#x1ea5;" horiz-adv-x="523" d="M372 571l98 118l60 -39l-130 -117l17 -23l-37 -36l-71 93l-102 -94l-34 37l145 132zM477 404l-50 -404h-70l7 57q-38 -38 -68.5 -52.5t-71.5 -14.5q-83 0 -135.5 55t-52.5 141q0 100 60 164t153 64q49 0 82.5 -17t67.5 -59l8 66h70zM255 350q-62 0 -104.5 -46t-42.5 -114 q0 -59 37 -97.5t92 -38.5q61 0 105.5 48.5t44.5 115.5q0 58 -37 95t-95 37z" />
<glyph unicode="&#x1ea6;" horiz-adv-x="617" d="M266 782l-77 104l62 35l57 -108l89 69l112 -122l-41 -36l-81 85l-111 -86l-38 37zM180 186l-97 -186h-81l371 707l206 -707h-76l-52 186h-271zM215 254h215l-75 273z" />
<glyph unicode="&#x1ea7;" horiz-adv-x="523" d="M191 527l-83 112l62 38l61 -114l87 79l99 -132l-37 -36l-71 94l-102 -94l-34 36zM477 404l-50 -404h-70l7 57q-38 -38 -68.5 -52.5t-71.5 -14.5q-83 0 -135.5 55t-52.5 141q0 100 60 164t153 64q49 0 82.5 -17t67.5 -59l8 66h70zM255 350q-62 0 -104.5 -46t-42.5 -114 q0 -59 37 -97.5t92 -38.5q61 0 105.5 48.5t44.5 115.5q0 58 -37 95t-95 37z" />
<glyph unicode="&#x1ea8;" horiz-adv-x="617" d="M466 807l8 36q23 5 32 5q36 4 50.5 15t14.5 33q0 32 -45 32q-20 0 -50 -14q-1 -1 -9 -4l-6 32q54 19 92 19q37 0 58.5 -17t21.5 -45q0 -35 -26 -57t-67 -22q-19 0 -31 1l-8 -39h-12l20 -22l-41 -36l-81 85l-111 -85l-38 36l159 122zM180 186l-97 -186h-81l371 707 l206 -707h-76l-52 186h-271zM215 254h215l-75 273z" />
<glyph unicode="&#x1ea9;" horiz-adv-x="523" d="M385 554l8 38q23 5 32 5q36 4 50.5 15t14.5 33q0 32 -45 32q-20 0 -50 -14l-10 -4l-5 32q53 19 92 19q37 0 58.5 -17t21.5 -45q0 -35 -26 -57t-68 -22q-18 0 -30 1l-8 -39h-19l16 -21l-37 -36l-71 93l-102 -93l-34 36l145 132zM477 404l-50 -404h-70l7 57 q-38 -38 -68.5 -52.5t-71.5 -14.5q-83 0 -135.5 55t-52.5 141q0 100 60 164t153 64q49 0 82.5 -17t67.5 -59l8 66h70zM255 350q-62 0 -104.5 -46t-42.5 -114q0 -59 37 -97.5t92 -38.5q61 0 105.5 48.5t44.5 115.5q0 58 -37 95t-95 37z" />
<glyph unicode="&#x1eaa;" horiz-adv-x="617" d="M180 186l-97 -186h-81l371 707l206 -707h-76l-52 186h-271zM215 254h215l-75 273zM387 809l-111 -86l-38 37l159 122l112 -122l-41 -36zM504 985l43 -23q-41 -70 -87 -70q-22 0 -80 29q-22 11 -33 11q-21 0 -41 -39l-43 23q23 39 42 55t42 16q22 0 77 -27q29 -13 37 -13 q20 0 43 38z" />
<glyph unicode="&#x1eab;" horiz-adv-x="523" d="M477 404l-50 -404h-70l7 57q-38 -38 -68.5 -52.5t-71.5 -14.5q-83 0 -135.5 55t-52.5 141q0 100 60 164t153 64q49 0 82.5 -17t67.5 -59l8 66h70zM255 350q-62 0 -104.5 -46t-42.5 -114q0 -59 37 -97.5t92 -38.5q61 0 105.5 48.5t44.5 115.5q0 58 -37 95t-95 37zM309 567 l-102 -94l-34 37l145 132l99 -132l-37 -36zM421 741l41 -23q-39 -70 -84 -70q-23 0 -65 27q-20 14 -33 14q-17 0 -37 -40l-41 23q22 40 40 55.5t41 15.5t62 -26q24 -15 33 -15q19 0 43 39z" />
<glyph unicode="&#x1eac;" horiz-adv-x="617" d="M180 186l-97 -186h-81l371 707l206 -707h-76l-52 186h-271zM215 254h215l-75 273zM387 809l-111 -86l-38 37l159 122l112 -122l-41 -36zM301 -36q20 0 34 -14t14 -34q0 -19 -14.5 -33t-33.5 -14t-32.5 14t-13.5 34t13.5 33.5t32.5 13.5z" />
<glyph unicode="&#x1ead;" horiz-adv-x="523" d="M477 404l-50 -404h-70l7 57q-38 -38 -68.5 -52.5t-71.5 -14.5q-83 0 -135.5 55t-52.5 141q0 100 60 164t153 64q49 0 82.5 -17t67.5 -59l8 66h70zM255 350q-62 0 -104.5 -46t-42.5 -114q0 -59 37 -97.5t92 -38.5q61 0 105.5 48.5t44.5 115.5q0 58 -37 95t-95 37zM309 567 l-102 -94l-34 37l145 132l99 -132l-37 -36zM254 -36q20 0 34 -14t14 -34q0 -19 -14.5 -33t-33.5 -14t-32.5 14t-13.5 34t13.5 33.5t32.5 13.5z" />
<glyph unicode="&#x1eae;" horiz-adv-x="617" d="M180 186l-97 -186h-81l371 707l206 -707h-76l-52 186h-271zM215 254h215l-75 273zM269 862h54q0 -72 59 -72q63 0 89 72h54q-16 -60 -55 -94t-92 -34q-50 0 -79.5 30.5t-29.5 83.5v14zM533 946l-136 -119l-37 25l113 132z" />
<glyph unicode="&#x1eaf;" horiz-adv-x="523" d="M477 404l-50 -404h-70l7 57q-38 -38 -68.5 -52.5t-71.5 -14.5q-83 0 -135.5 55t-52.5 141q0 100 60 164t153 64q49 0 82.5 -17t67.5 -59l8 66h70zM255 350q-62 0 -104.5 -46t-42.5 -114q0 -59 37 -97.5t92 -38.5q61 0 105.5 48.5t44.5 115.5q0 58 -37 95t-95 37zM192 612 h53q1 -74 56 -74q26 0 47.5 20t32.5 54h53q-15 -58 -52.5 -93t-85.5 -35q-71 0 -97 66q-7 19 -7 62zM449 702l-139 -126l-37 25l117 139z" />
<glyph unicode="&#x1eb0;" horiz-adv-x="617" d="M180 186l-97 -186h-81l371 707l206 -707h-76l-52 186h-271zM215 254h215l-75 273zM269 862h54q0 -72 59 -72q63 0 89 72h54q-16 -60 -55 -94t-92 -34q-50 0 -79.5 30.5t-29.5 83.5v14zM291 951l62 36l71 -137l-43 -21z" />
<glyph unicode="&#x1eb1;" horiz-adv-x="523" d="M477 404l-50 -404h-70l7 57q-38 -38 -68.5 -52.5t-71.5 -14.5q-83 0 -135.5 55t-52.5 141q0 100 60 164t153 64q49 0 82.5 -17t67.5 -59l8 66h70zM255 350q-62 0 -104.5 -46t-42.5 -114q0 -59 37 -97.5t92 -38.5q61 0 105.5 48.5t44.5 115.5q0 58 -37 95t-95 37zM192 612 h53q1 -74 56 -74q26 0 47.5 20t32.5 54h53q-15 -58 -52.5 -93t-85.5 -35q-71 0 -97 66q-7 19 -7 62zM205 701l62 38l75 -140l-43 -24z" />
<glyph unicode="&#x1eb2;" horiz-adv-x="617" d="M180 186l-97 -186h-81l371 707l206 -707h-76l-52 186h-271zM215 254h215l-75 273zM269 862h54q0 -72 59 -72q63 0 89 72h54q-16 -60 -55 -94t-92 -34q-50 0 -79.5 30.5t-29.5 83.5v14zM408 840h-40l13 61q25 5 32 5q36 4 50.5 15t14.5 33q0 32 -45 32q-19 0 -49 -14 q-1 0 -2 -0.5t-3.5 -1.5t-4.5 -2l-6 32q54 19 92 19q37 0 58.5 -17t21.5 -45q0 -35 -26 -57t-67 -22q-19 0 -31 1z" />
<glyph unicode="&#x1eb3;" horiz-adv-x="523" d="M477 404l-50 -404h-70l7 57q-38 -38 -68.5 -52.5t-71.5 -14.5q-83 0 -135.5 55t-52.5 141q0 100 60 164t153 64q49 0 82.5 -17t67.5 -59l8 66h70zM255 350q-62 0 -104.5 -46t-42.5 -114q0 -59 37 -97.5t92 -38.5q61 0 105.5 48.5t44.5 115.5q0 58 -37 95t-95 37zM192 612 h53q1 -74 56 -74q26 0 47.5 20t32.5 54h53q-15 -58 -52.5 -93t-85.5 -35q-71 0 -97 66q-7 19 -7 62zM327 588h-40l13 61q23 5 32 5q36 4 50.5 15t14.5 33q0 32 -45 32q-20 0 -50 -14h-2q-1 -1 -3.5 -2t-4.5 -2l-5 32q53 19 92 19q37 0 58.5 -17t21.5 -45q0 -35 -26 -57 t-68 -22q-18 0 -30 1z" />
<glyph unicode="&#x1eb4;" horiz-adv-x="617" d="M180 186l-97 -186h-81l371 707l206 -707h-76l-52 186h-271zM215 254h215l-75 273zM269 862h54q0 -72 59 -72q63 0 89 72h54q-16 -60 -55 -94t-92 -34q-50 0 -79.5 30.5t-29.5 83.5v14zM503 982l43 -23q-41 -70 -87 -70q-22 0 -80 29q-22 11 -33 11q-21 0 -41 -39l-44 23 q24 39 43 55t42 16q20 0 77 -27q29 -13 37 -13q20 0 43 38z" />
<glyph unicode="&#x1eb5;" horiz-adv-x="523" d="M477 404l-50 -404h-70l7 57q-38 -38 -68.5 -52.5t-71.5 -14.5q-83 0 -135.5 55t-52.5 141q0 100 60 164t153 64q49 0 82.5 -17t67.5 -59l8 66h70zM255 350q-62 0 -104.5 -46t-42.5 -114q0 -59 37 -97.5t92 -38.5q61 0 105.5 48.5t44.5 115.5q0 58 -37 95t-95 37zM192 612 h53q1 -74 56 -74q26 0 47.5 20t32.5 54h53q-15 -58 -52.5 -93t-85.5 -35q-71 0 -97 66q-7 19 -7 62zM407 727l41 -24q-39 -70 -84 -70q-24 0 -66 27q-20 14 -32 14q-18 0 -38 -40l-40 24q22 39 40 54.5t41 15.5t62 -26q24 -15 33 -15q20 0 43 40z" />
<glyph unicode="&#x1eb6;" horiz-adv-x="617" d="M180 186l-97 -186h-81l371 707l206 -707h-76l-52 186h-271zM215 254h215l-75 273zM269 862h54q0 -72 59 -72q63 0 89 72h54q-16 -60 -55 -94t-92 -34q-50 0 -79.5 30.5t-29.5 83.5v14zM301 -36q20 0 34 -14t14 -34q0 -19 -14.5 -33t-33.5 -14t-32.5 14t-13.5 34 t13.5 33.5t32.5 13.5z" />
<glyph unicode="&#x1eb7;" horiz-adv-x="523" d="M477 404l-50 -404h-70l7 57q-38 -38 -68.5 -52.5t-71.5 -14.5q-83 0 -135.5 55t-52.5 141q0 100 60 164t153 64q49 0 82.5 -17t67.5 -59l8 66h70zM255 350q-62 0 -104.5 -46t-42.5 -114q0 -59 37 -97.5t92 -38.5q61 0 105.5 48.5t44.5 115.5q0 58 -37 95t-95 37zM192 612 h53q1 -74 56 -74q26 0 47.5 20t32.5 54h53q-15 -58 -52.5 -93t-85.5 -35q-71 0 -97 66q-7 19 -7 62zM254 -36q20 0 34 -14t14 -34q0 -19 -14.5 -33t-33.5 -14t-32.5 14t-13.5 34t13.5 33.5t32.5 13.5z" />
<glyph unicode="&#x1eb8;" horiz-adv-x="467" d="M471 667l-9 -68h-253l-25 -204h253l-8 -68h-253l-32 -259h253l-8 -68h-327l82 667h327zM206 -36q20 0 34 -14t14 -34q0 -19 -14.5 -33t-33.5 -14t-32.5 14t-13.5 34t13.5 33.5t32.5 13.5z" />
<glyph unicode="&#x1eb9;" horiz-adv-x="469" d="M432 185h-324q1 -52 22 -82q38 -52 109 -52q70 0 112 54l54 -32q-62 -86 -167 -86q-91 0 -146.5 54.5t-55.5 143.5q0 100 60 166t149 66q67 0 116.5 -40t63.5 -106q7 -36 7 -86zM114 243h246q-4 52 -35.5 81t-82.5 29q-63 0 -99 -45q-19 -23 -29 -65zM226 -36 q20 0 34 -14t14 -34q0 -19 -14.5 -33t-33.5 -14t-32.5 14t-13.5 34t13.5 33.5t32.5 13.5z" />
<glyph unicode="&#x1eba;" horiz-adv-x="467" d="M471 667l-9 -68h-253l-25 -204h253l-8 -68h-253l-32 -259h253l-8 -68h-327l82 667h327zM329 730h-40l13 61q23 5 32 5q36 4 50.5 15t14.5 33q0 32 -45 32q-20 0 -50 -14l-2 -1q-1 -1 -3 -1.5t-4 -1.5l-6 32q54 19 92 19q37 0 58.5 -17t21.5 -45q0 -35 -26 -57t-68 -22 q-18 0 -30 1z" />
<glyph unicode="&#x1ebb;" horiz-adv-x="469" d="M432 185h-324q1 -52 22 -82q38 -52 109 -52q70 0 112 54l54 -32q-62 -86 -167 -86q-91 0 -146.5 54.5t-55.5 143.5q0 100 60 166t149 66q67 0 116.5 -40t63.5 -106q7 -36 7 -86zM114 243h246q-4 52 -35.5 81t-82.5 29q-63 0 -99 -45q-19 -23 -29 -65zM266 496h-40l13 61 q23 5 32 5q36 4 50.5 15t14.5 33q0 32 -45 32q-20 0 -50 -14q-1 -1 -9 -4l-6 32q53 19 92 19q37 0 58.5 -17t21.5 -45q0 -35 -26 -57t-67 -22q-19 0 -31 1z" />
<glyph unicode="&#x1ebc;" horiz-adv-x="467" d="M471 667l-9 -68h-253l-25 -204h253l-8 -68h-253l-32 -259h253l-8 -68h-327l82 667h327zM403 845l43 -23q-41 -70 -87 -70q-22 0 -80 29q-22 11 -33 11q-21 0 -41 -39l-43 24q23 39 42 54.5t42 15.5q21 0 78 -27q27 -13 37 -13q19 0 42 38z" />
<glyph unicode="&#x1ebd;" horiz-adv-x="469" d="M432 185h-324q1 -52 22 -82q38 -52 109 -52q70 0 112 54l54 -32q-62 -86 -167 -86q-91 0 -146.5 54.5t-55.5 143.5q0 100 60 166t149 66q67 0 116.5 -40t63.5 -106q7 -36 7 -86zM114 243h246q-4 52 -35.5 81t-82.5 29q-63 0 -99 -45q-19 -23 -29 -65zM359 597l41 -23 q-39 -71 -84 -71q-24 0 -65 28q-20 14 -32 14q-18 0 -38 -41l-41 24q22 40 40 55.5t41 15.5q20 0 62 -26q24 -16 34 -16q19 0 42 40z" />
<glyph unicode="&#x1ebe;" horiz-adv-x="467" d="M398 814l100 118l60 -39l-129 -113l19 -20l-41 -36l-81 85l-112 -86l-37 37l158 122zM471 667l-9 -68h-253l-25 -204h253l-8 -68h-253l-32 -259h253l-8 -68h-327l82 667h327z" />
<glyph unicode="&#x1ebf;" horiz-adv-x="469" d="M344 570l96 115l60 -39l-127 -114l16 -22l-37 -36l-71 94l-102 -94l-34 36l145 132zM432 185h-324q1 -52 22 -82q38 -52 109 -52q70 0 112 54l54 -32q-62 -86 -167 -86q-91 0 -146.5 54.5t-55.5 143.5q0 100 60 166t149 66q68 0 117.5 -40t62.5 -106q7 -38 7 -86z M114 243h246q-4 52 -35.5 81t-82.5 29q-63 0 -99 -45q-19 -23 -29 -65z" />
<glyph unicode="&#x1ec0;" horiz-adv-x="467" d="M206 782l-77 104l62 35l56 -107l88 68l113 -122l-41 -36l-81 85l-112 -86l-37 37zM471 667l-9 -68h-253l-25 -204h253l-8 -68h-253l-32 -259h253l-8 -68h-327l82 667h327z" />
<glyph unicode="&#x1ec1;" horiz-adv-x="469" d="M170 533l-80 109l62 37l58 -109l80 72l99 -132l-37 -36l-71 94l-102 -94l-34 36zM432 185h-324q1 -52 22 -82q38 -52 109 -52q70 0 112 54l54 -32q-62 -86 -167 -86q-91 0 -146.5 54.5t-55.5 143.5q0 100 60 166t149 66q68 0 117.5 -40t62.5 -106q7 -38 7 -86zM114 243 h246q-4 52 -35.5 81t-82.5 29q-63 0 -99 -45q-19 -23 -29 -65z" />
<glyph unicode="&#x1ec2;" horiz-adv-x="467" d="M405 806l8 37q23 5 32 5q36 4 50.5 15t14.5 33q0 32 -45 32q-20 0 -50 -14q-1 -1 -9 -4l-6 32q54 19 92 19q37 0 58.5 -17t21.5 -45q0 -35 -26 -57t-67 -22q-19 0 -31 1l-8 -39h-13l21 -22l-41 -36l-81 85l-112 -85l-37 36l158 122zM471 667l-9 -68h-253l-25 -204h253 l-8 -68h-253l-32 -259h253l-8 -68h-327l82 667h327z" />
<glyph unicode="&#x1ec3;" horiz-adv-x="469" d="M349 563l8 38q6 1 13.5 2t12.5 2t7 1q36 4 50.5 15t14.5 33q0 31 -45 31q-20 0 -50 -14l-2 -1q-1 0 -3.5 -1t-4.5 -1l-6 32q55 18 93 18q37 0 58.5 -17t21.5 -45q0 -34 -26.5 -56t-67.5 -22h-30l-9 -38h-17l22 -30l-37 -35l-71 93l-102 -94l-34 36l145 132zM432 185h-324 q1 -52 22 -82q38 -52 109 -52q70 0 112 54l54 -32q-62 -86 -167 -86q-91 0 -146.5 54.5t-55.5 143.5q0 100 60 166t149 66q68 0 117.5 -40t62.5 -106q7 -38 7 -86zM114 243h246q-4 52 -35.5 81t-82.5 29q-63 0 -99 -45q-19 -23 -29 -65z" />
<glyph unicode="&#x1ec4;" horiz-adv-x="467" d="M471 667l-9 -68h-253l-25 -204h253l-8 -68h-253l-32 -259h253l-8 -68h-327l82 667h327zM326 809l-112 -86l-37 37l158 122l113 -122l-41 -36zM446 989l43 -24q-43 -70 -89 -70q-16 0 -78 29q-24 11 -33 11q-23 0 -42 -39l-43 24q23 38 42 54t42 16q21 0 78 -27 q29 -13 37 -13q20 0 43 39z" />
<glyph unicode="&#x1ec5;" horiz-adv-x="469" d="M432 185h-324q1 -52 22 -82q38 -52 109 -52q70 0 112 54l54 -32q-62 -86 -167 -86q-91 0 -146.5 54.5t-55.5 143.5q0 100 60 166t149 66q67 0 116.5 -40t63.5 -106q7 -36 7 -86zM114 243h246q-4 52 -35.5 81t-82.5 29q-63 0 -99 -45q-19 -23 -29 -65zM281 567l-102 -94 l-34 37l145 132l99 -132l-37 -36zM385 749l41 -23q-37 -70 -84 -70q-23 0 -65 27q-20 14 -32 14q-18 0 -38 -40l-41 24q23 39 41 54.5t40 15.5q25 0 62 -26q25 -15 34 -15q20 0 42 39z" />
<glyph unicode="&#x1ec6;" horiz-adv-x="467" d="M471 667l-9 -68h-253l-25 -204h253l-8 -68h-253l-32 -259h253l-8 -68h-327l82 667h327zM326 809l-112 -86l-37 37l158 122l113 -122l-41 -36zM226 -36q20 0 34 -14t14 -34q0 -19 -14.5 -33t-33.5 -14t-32.5 14t-13.5 34t13.5 33.5t32.5 13.5z" />
<glyph unicode="&#x1ec7;" horiz-adv-x="469" d="M432 185h-324q1 -52 22 -82q38 -52 109 -52q70 0 112 54l54 -32q-62 -86 -167 -86q-91 0 -146.5 54.5t-55.5 143.5q0 100 60 166t149 66q67 0 116.5 -40t63.5 -106q7 -36 7 -86zM114 243h246q-4 52 -35.5 81t-82.5 29q-63 0 -99 -45q-19 -23 -29 -65zM281 567l-102 -94 l-34 37l145 132l99 -132l-37 -36zM226 -36q20 0 34 -14t14 -34q0 -19 -14.5 -33t-33.5 -14t-32.5 14t-13.5 34t13.5 33.5t32.5 13.5z" />
<glyph unicode="&#x1ec8;" horiz-adv-x="254" d="M218 667l-83 -667h-73l82 667h74zM207 730h-40l13 61q25 5 32 5q36 4 50.5 15t14.5 33q0 32 -45 32q-20 0 -50 -14q-1 -1 -9 -4l-6 32q54 19 92 19q37 0 58.5 -17t21.5 -45q0 -35 -26 -57t-67 -22q-19 0 -31 1z" />
<glyph unicode="&#x1ec9;" horiz-adv-x="206" d="M160 404l-50 -404h-70l50 404h70zM155 496h-40l13 61q23 5 32 5q36 4 50.5 15t14.5 33q0 32 -45 32q-20 0 -50 -14l-10 -4l-5 32q53 19 92 19q37 0 58.5 -17t21.5 -45q0 -35 -26 -57t-68 -22q-18 0 -30 1z" />
<glyph unicode="&#x1eca;" horiz-adv-x="254" d="M217 667l-82 -667h-73l82 667h73zM88 -36q20 0 34 -14t14 -34q0 -19 -14.5 -33t-33.5 -14t-32.5 14t-13.5 34t13.5 33.5t32.5 13.5z" />
<glyph unicode="&#x1ecb;" horiz-adv-x="206" d="M148 624q17 0 29.5 -12.5t12.5 -30.5t-13 -31.5t-31 -13.5q-17 0 -29 12.5t-12 30.5q0 19 13 32t30 13zM160 404l-50 -404h-70l50 404h70zM71 -40q20 0 34 -14t14 -34q0 -19 -14.5 -33t-33.5 -14t-32.5 14t-13.5 34t13.5 33.5t32.5 13.5z" />
<glyph unicode="&#x1ecc;" horiz-adv-x="785" d="M416 680q149 0 240.5 -91t91.5 -239q0 -155 -100.5 -259t-251.5 -104q-146 0 -239 92.5t-93 238.5q0 156 100 259t252 103zM418 610q-120 0 -199.5 -82.5t-79.5 -206.5q0 -115 73 -189.5t186 -74.5q118 0 196.5 84t78.5 210q0 118 -69.5 188.5t-185.5 70.5zM385 -36 q20 0 34 -14t14 -34q0 -19 -14.5 -33t-33.5 -14t-32.5 14t-13.5 34t13.5 33.5t32.5 13.5z" />
<glyph unicode="&#x1ecd;" horiz-adv-x="513" d="M262 417q92 0 150.5 -59.5t58.5 -152.5q0 -92 -63.5 -155t-155.5 -63t-153.5 59.5t-61.5 149.5q0 93 65 157t160 64zM259 353q-64 0 -107 -44.5t-43 -110.5q0 -63 41 -105t103 -42q63 0 104.5 44.5t41.5 111.5q0 65 -39 105.5t-101 40.5zM249 -36q20 0 34 -14t14 -34 q0 -19 -14.5 -33t-33.5 -14t-32.5 14t-13.5 34t13.5 33.5t32.5 13.5z" />
<glyph unicode="&#x1ece;" horiz-adv-x="785" d="M416 680q149 0 240.5 -91t91.5 -239q0 -155 -100.5 -259t-251.5 -104q-146 0 -239 92.5t-93 238.5q0 156 100 259t252 103zM418 610q-120 0 -199.5 -82.5t-79.5 -206.5q0 -115 73 -189.5t186 -74.5q118 0 196.5 84t78.5 210q0 118 -69.5 188.5t-185.5 70.5zM438 730h-40 l13 61q23 5 32 5q36 4 50.5 15t14.5 33q0 32 -45 32q-20 0 -50 -14l-10 -4l-5 32q53 19 92 19q37 0 58.5 -17t21.5 -45q0 -35 -26 -57t-68 -22q-18 0 -30 1z" />
<glyph unicode="&#x1ecf;" horiz-adv-x="513" d="M262 417q92 0 150.5 -59.5t58.5 -152.5q0 -92 -63.5 -155t-155.5 -63t-153.5 59.5t-61.5 149.5q0 93 65 157t160 64zM259 353q-64 0 -107 -44.5t-43 -110.5q0 -63 41 -105t103 -42q63 0 104.5 44.5t41.5 111.5q0 65 -39 105.5t-101 40.5zM293 477h-40l13 61q23 5 32 5 q36 4 50.5 15t14.5 33q0 32 -45 32q-20 0 -50 -14q-1 -1 -9 -4l-6 32q53 19 92 19q37 0 58.5 -17t21.5 -45q0 -35 -26 -57t-68 -22q-18 0 -30 1z" />
<glyph unicode="&#x1ed0;" horiz-adv-x="785" d="M534 817l97 113l60 -39l-125 -109l21 -22l-41 -36l-81 85l-111 -86l-38 37l159 122zM417 680q146 0 238.5 -90t92.5 -232q0 -163 -99 -267t-254 -104q-145 0 -238 92.5t-93 238.5q0 157 100.5 259.5t252.5 102.5zM418 610q-120 0 -199.5 -82.5t-79.5 -206.5 q0 -115 73 -189.5t186 -74.5q118 0 196.5 84t78.5 210q0 118 -69.5 188.5t-185.5 70.5z" />
<glyph unicode="&#x1ed1;" horiz-adv-x="513" d="M357 575l93 111l60 -39l-124 -111l20 -26l-38 -36l-71 94l-101 -94l-35 36l146 132zM262 417q90 0 149 -59t59 -149q0 -96 -62 -159t-157 -63q-92 0 -153 59.5t-61 149.5q0 93 65 157t160 64zM259 353q-64 0 -107 -44.5t-43 -110.5q0 -63 41 -105t103 -42q63 0 104 44 t41 112q0 65 -38.5 105.5t-100.5 40.5z" />
<glyph unicode="&#x1ed2;" horiz-adv-x="785" d="M340 778l-80 108l62 35l58 -112l95 73l112 -122l-41 -36l-81 85l-111 -86l-38 37zM417 680q146 0 238.5 -90t92.5 -232q0 -163 -99 -267t-254 -104q-145 0 -238 92.5t-93 238.5q0 157 100.5 259.5t252.5 102.5zM418 610q-120 0 -199.5 -82.5t-79.5 -206.5 q0 -115 73 -189.5t186 -74.5q118 0 196.5 84t78.5 210q0 118 -69.5 188.5t-185.5 70.5z" />
<glyph unicode="&#x1ed3;" horiz-adv-x="513" d="M183 530l-84 113l62 38l62 -115l84 76l99 -132l-38 -36l-71 94l-101 -94l-35 36zM262 417q90 0 149 -59t59 -149q0 -96 -62 -159t-157 -63q-92 0 -153 59.5t-61 149.5q0 93 65 157t160 64zM259 353q-64 0 -107 -44.5t-43 -110.5q0 -63 41 -105t103 -42q63 0 104 44 t41 112q0 65 -38.5 105.5t-100.5 40.5z" />
<glyph unicode="&#x1ed4;" horiz-adv-x="785" d="M545 804l9 40q23 5 32 5q36 4 50.5 15t14.5 33q0 32 -45 32q-20 0 -50 -14q-1 -1 -9 -4l-6 32q54 19 92 19q37 0 58.5 -17t21.5 -45q0 -35 -26 -57t-67 -22q-19 0 -31 1l-8 -39h-16l22 -24l-41 -35l-81 84l-111 -85l-38 36l159 122zM417 680q146 0 238.5 -90t92.5 -232 q0 -163 -99 -267t-254 -104q-145 0 -238 92.5t-93 238.5q0 157 100.5 259.5t252.5 102.5zM418 610q-120 0 -199.5 -82.5t-79.5 -206.5q0 -115 73 -189.5t186 -74.5q118 0 196.5 84t78.5 210q0 118 -69.5 188.5t-185.5 70.5z" />
<glyph unicode="&#x1ed5;" horiz-adv-x="513" d="M373 553l9 41q23 5 32 5q36 4 50.5 15t14.5 33q0 32 -45 32q-20 0 -50 -14l-2 -1q-1 -1 -3 -1.5t-4 -1.5l-6 32q53 19 92 19q37 0 58.5 -17t21.5 -45q0 -35 -26 -57t-68 -22q-19 0 -30 1l-8 -39h-21l18 -23l-38 -36l-71 93l-101 -93l-35 36l146 132zM262 417 q90 0 149 -59t59 -149q0 -96 -62 -159t-157 -63q-92 0 -153 59.5t-61 149.5q0 93 65 157t160 64zM259 353q-64 0 -107 -44.5t-43 -110.5q0 -63 41 -105t103 -42q63 0 104 44t41 112q0 65 -38.5 105.5t-100.5 40.5z" />
<glyph unicode="&#x1ed6;" horiz-adv-x="785" d="M416 680q149 0 240.5 -91t91.5 -239q0 -155 -100.5 -259t-251.5 -104q-146 0 -239 92.5t-93 238.5q0 156 100 259t252 103zM418 610q-120 0 -199.5 -82.5t-79.5 -206.5q0 -115 73 -189.5t186 -74.5q118 0 196.5 84t78.5 210q0 118 -69.5 188.5t-185.5 70.5zM465 809 l-111 -86l-38 37l159 122l112 -122l-41 -36zM572 987l43 -23q-42 -71 -87 -71q-23 0 -80 29q-23 12 -33 12q-21 0 -41 -40l-44 24q24 39 43 55t42 16q22 0 77 -27q28 -14 37 -14q20 0 43 39z" />
<glyph unicode="&#x1ed7;" horiz-adv-x="513" d="M262 417q92 0 150.5 -59.5t58.5 -152.5q0 -92 -63.5 -155t-155.5 -63t-153.5 59.5t-61.5 149.5q0 93 65 157t160 64zM259 353q-64 0 -107 -44.5t-43 -110.5q0 -63 41 -105t103 -42q63 0 104.5 44.5t41.5 111.5q0 65 -39 105.5t-101 40.5zM297 567l-101 -94l-35 37 l146 132l99 -132l-38 -36zM403 734l41 -23q-39 -70 -84 -70q-23 0 -65 27q-20 14 -33 14q-17 0 -37 -40l-41 24q22 39 40 54.5t41 15.5t62 -26q24 -15 33 -15q19 0 43 39z" />
<glyph unicode="&#x1ed8;" horiz-adv-x="785" d="M416 680q149 0 240.5 -91t91.5 -239q0 -155 -100.5 -259t-251.5 -104q-146 0 -239 92.5t-93 238.5q0 156 100 259t252 103zM418 610q-120 0 -199.5 -82.5t-79.5 -206.5q0 -115 73 -189.5t186 -74.5q118 0 196.5 84t78.5 210q0 118 -69.5 188.5t-185.5 70.5zM465 809 l-111 -86l-38 37l159 122l112 -122l-41 -36zM385 -36q20 0 34 -14t14 -34q0 -19 -14.5 -33t-33.5 -14t-32.5 14t-13.5 34t13.5 33.5t32.5 13.5z" />
<glyph unicode="&#x1ed9;" horiz-adv-x="513" d="M262 417q92 0 150.5 -59.5t58.5 -152.5q0 -92 -63.5 -155t-155.5 -63t-153.5 59.5t-61.5 149.5q0 93 65 157t160 64zM259 353q-64 0 -107 -44.5t-43 -110.5q0 -63 41 -105t103 -42q63 0 104.5 44.5t41.5 111.5q0 65 -39 105.5t-101 40.5zM297 567l-101 -94l-35 37 l146 132l99 -132l-38 -36zM249 -36q20 0 34 -14t14 -34q0 -19 -14.5 -33t-33.5 -14t-32.5 14t-13.5 34t13.5 33.5t32.5 13.5z" />
<glyph unicode="&#x1eda;" horiz-adv-x="785" d="M657 588l49 115l62 -26l-74 -134q54 -81 54 -188q0 -160 -99.5 -264t-252.5 -104q-146 0 -239 92.5t-93 238.5q0 157 100.5 259.5t252.5 102.5q148 0 240 -92zM418 610q-120 0 -199.5 -82.5t-79.5 -206.5q0 -115 73 -189.5t186 -74.5q118 0 196.5 84t78.5 210 q0 118 -69.5 188.5t-185.5 70.5zM601 842l-136 -119l-37 25l113 133z" />
<glyph unicode="&#x1edb;" horiz-adv-x="513" d="M428 339l47 111l62 -26l-80 -139q13 -38 13 -77q0 -94 -62.5 -157.5t-155.5 -63.5t-154 59.5t-61 149.5q0 93 65 157t160 64q105 0 166 -78zM259 353q-64 0 -107 -44.5t-43 -110.5q0 -63 41 -105t103 -42q63 0 104 44t41 112q0 65 -38.5 105.5t-100.5 40.5zM436 599 l-139 -126l-37 25l116 139z" />
<glyph unicode="&#x1edc;" horiz-adv-x="785" d="M657 588l49 115l62 -26l-74 -134q54 -81 54 -188q0 -160 -99.5 -264t-252.5 -104q-146 0 -239 92.5t-93 238.5q0 157 100.5 259.5t252.5 102.5q148 0 240 -92zM418 610q-120 0 -199.5 -82.5t-79.5 -206.5q0 -115 73 -189.5t186 -74.5q118 0 196.5 84t78.5 210 q0 118 -69.5 188.5t-185.5 70.5zM353 846l61 35l72 -136l-43 -22z" />
<glyph unicode="&#x1edd;" horiz-adv-x="513" d="M428 339l47 111l62 -26l-80 -139q13 -38 13 -77q0 -94 -62.5 -157.5t-155.5 -63.5t-154 59.5t-61 149.5q0 93 65 157t160 64q105 0 166 -78zM259 353q-64 0 -107 -44.5t-43 -110.5q0 -63 41 -105t103 -42q63 0 104 44t41 112q0 65 -38.5 105.5t-100.5 40.5zM181 600 l62 37l75 -139l-43 -25z" />
<glyph unicode="&#x1ede;" horiz-adv-x="785" d="M657 588l49 115l62 -26l-74 -134q54 -81 54 -188q0 -160 -99.5 -264t-252.5 -104q-146 0 -239 92.5t-93 238.5q0 157 100.5 259.5t252.5 102.5q148 0 240 -92zM418 610q-120 0 -199.5 -82.5t-79.5 -206.5q0 -115 73 -189.5t186 -74.5q118 0 196.5 84t78.5 210 q0 118 -69.5 188.5t-185.5 70.5zM429 730h-40l13 61q25 5 33 5q35 4 49.5 15t14.5 33q0 32 -45 32q-19 0 -49 -14q-1 0 -2 -0.5t-3.5 -1.5t-4.5 -2l-6 32q54 19 92 19q37 0 58.5 -17t21.5 -45q0 -33 -23 -54q-21 -21 -62 -25q-2 0 -7 -1t-13 -1.5t-14 -1.5z" />
<glyph unicode="&#x1edf;" horiz-adv-x="513" d="M428 339l47 111l62 -26l-80 -139q13 -38 13 -77q0 -94 -62.5 -157.5t-155.5 -63.5t-154 59.5t-61 149.5q0 93 65 157t160 64q105 0 166 -78zM259 353q-64 0 -107 -44.5t-43 -110.5q0 -63 41 -105t103 -42q63 0 104 44t41 112q0 65 -38.5 105.5t-100.5 40.5zM290 496h-40 l13 61q25 5 33 5q35 4 49.5 15t14.5 33q0 32 -45 32q-19 0 -49 -14q-1 0 -2 -0.5t-3.5 -1.5t-4.5 -2l-6 32q54 19 92 19q37 0 58.5 -17t21.5 -45q0 -35 -26 -57t-67 -22q-19 0 -31 1z" />
<glyph unicode="&#x1ee0;" horiz-adv-x="785" d="M657 588l49 115l62 -26l-74 -134q54 -81 54 -188q0 -160 -99.5 -264t-252.5 -104q-146 0 -239 92.5t-93 238.5q0 157 100.5 259.5t252.5 102.5q148 0 240 -92zM418 610q-120 0 -199.5 -82.5t-79.5 -206.5q0 -115 73 -189.5t186 -74.5q118 0 196.5 84t78.5 210 q0 118 -69.5 188.5t-185.5 70.5zM529 845l43 -23q-41 -70 -87 -70q-22 0 -80 29q-22 11 -33 11q-21 0 -41 -39l-44 24q24 39 43 54.5t42 15.5q20 0 77 -27q29 -13 37 -13q20 0 43 38z" />
<glyph unicode="&#x1ee1;" horiz-adv-x="513" d="M428 339l47 111l62 -26l-80 -139q13 -38 13 -77q0 -94 -62.5 -157.5t-155.5 -63.5t-154 59.5t-61 149.5q0 93 65 157t160 64q105 0 166 -78zM259 353q-64 0 -107 -44.5t-43 -110.5q0 -63 41 -105t103 -42q63 0 104 44t41 112q0 65 -38.5 105.5t-100.5 40.5zM382 597 l40 -23q-38 -71 -84 -71q-24 0 -65 28q-20 14 -32 14q-18 0 -38 -41l-40 24q22 40 39.5 55.5t40.5 15.5q21 0 63 -26q24 -16 33 -16q20 0 43 40z" />
<glyph unicode="&#x1ee2;" horiz-adv-x="785" d="M657 588l49 115l62 -26l-74 -134q54 -81 54 -188q0 -160 -99.5 -264t-252.5 -104q-146 0 -239 92.5t-93 238.5q0 157 100.5 259.5t252.5 102.5q148 0 240 -92zM418 610q-120 0 -199.5 -82.5t-79.5 -206.5q0 -115 73 -189.5t186 -74.5q118 0 196.5 84t78.5 210 q0 118 -69.5 188.5t-185.5 70.5zM385 -36q20 0 34 -14t14 -34q0 -19 -14.5 -33t-33.5 -14t-32.5 14t-13.5 34t13.5 33.5t32.5 13.5z" />
<glyph unicode="&#x1ee3;" horiz-adv-x="513" d="M428 339l47 111l62 -26l-80 -139q13 -38 13 -77q0 -94 -62.5 -157.5t-155.5 -63.5t-154 59.5t-61 149.5q0 93 65 157t160 64q105 0 166 -78zM259 353q-64 0 -107 -44.5t-43 -110.5q0 -63 41 -105t103 -42q63 0 104 44t41 112q0 65 -38.5 105.5t-100.5 40.5zM249 -36 q20 0 34 -14t14 -34q0 -19 -14.5 -33t-33.5 -14t-32.5 14t-13.5 34t13.5 33.5t32.5 13.5z" />
<glyph unicode="&#x1ee4;" horiz-adv-x="659" d="M624 667l-51 -409q-13 -110 -48 -164q-67 -107 -202 -107q-103 0 -168 57t-65 149q0 23 4 69l50 405h74l-51 -413q-4 -38 -4 -53q0 -66 42 -105t115 -39q77 0 126 52q41 45 55 156l49 402h74zM306 -49q20 0 34 -14t14 -34q0 -19 -14.5 -33t-33.5 -14t-32.5 14t-13.5 34 t13.5 33.5t32.5 13.5z" />
<glyph unicode="&#x1ee5;" horiz-adv-x="464" d="M417 404l-29 -238q-10 -89 -45 -126q-48 -50 -132 -50q-71 0 -112 36.5t-41 100.5q0 28 4 52l27 225h70l-28 -232q-3 -24 -3 -44q0 -34 23.5 -54t63.5 -20q55 0 81 36q16 22 21 71l30 243h70zM197 -43q20 0 34 -14t14 -34q0 -19 -14.5 -33t-33.5 -14t-32.5 14t-13.5 34 t13.5 33.5t32.5 13.5z" />
<glyph unicode="&#x1ee6;" horiz-adv-x="659" d="M624 667l-51 -409q-13 -110 -48 -164q-67 -107 -202 -107q-103 0 -168 57t-65 149q0 23 4 69l50 405h74l-51 -413q-4 -38 -4 -53q0 -66 42 -105t115 -39q77 0 126 52q41 45 55 156l49 402h74zM405 730h-40l13 61q23 5 32 5q36 4 50.5 15t14.5 33q0 32 -45 32 q-20 0 -50 -14l-10 -4l-5 32q53 19 92 19q37 0 58.5 -17t21.5 -45q0 -35 -26 -57t-68 -22q-18 0 -30 1z" />
<glyph unicode="&#x1ee7;" horiz-adv-x="464" d="M417 404l-29 -238q-10 -89 -45 -126q-48 -50 -132 -50q-71 0 -112 36.5t-41 100.5q0 28 4 52l27 225h70l-28 -232q-3 -24 -3 -44q0 -34 23.5 -54t63.5 -20q55 0 81 36q16 22 21 71l30 243h70zM279 483h-40l13 61q25 5 32 5q36 5 50.5 15.5t14.5 32.5q0 32 -45 32 q-20 0 -50 -14q-1 -1 -9 -4l-6 32q54 19 92 19q37 0 58.5 -17t21.5 -45q0 -35 -26 -57t-67 -22q-19 0 -31 1z" />
<glyph unicode="&#x1ee8;" horiz-adv-x="659" d="M624 667l-51 -409q-13 -110 -48 -164q-67 -107 -202 -107q-103 0 -168 57t-65 149q0 23 4 69l50 405h74l-51 -413q-4 -38 -4 -53q0 -66 42 -105t115 -39q77 0 126 52q41 45 55 156l49 402h74zM701 699l63 -26l-83 -150l-45 22zM538 842l-136 -119l-37 25l113 133z" />
<glyph unicode="&#x1ee9;" horiz-adv-x="464" d="M417 404l-29 -238q-10 -89 -45 -126q-48 -50 -132 -50q-71 0 -112 36.5t-41 100.5q0 28 4 52l27 225h70l-28 -232q-3 -24 -3 -44q0 -34 23.5 -54t63.5 -20q55 0 81 36q16 22 21 71l30 243h70zM489 451l62 -26l-86 -150l-42 19zM411 599l-139 -126l-37 25l117 139z" />
<glyph unicode="&#x1eea;" horiz-adv-x="659" d="M624 667l-51 -409q-13 -110 -48 -164q-67 -107 -202 -107q-103 0 -168 57t-65 149q0 23 4 69l50 405h74l-51 -413q-4 -38 -4 -53q0 -66 42 -105t115 -39q77 0 126 52q41 45 55 156l49 402h74zM701 699l63 -26l-83 -150l-45 22zM290 846l62 35l71 -136l-43 -22z" />
<glyph unicode="&#x1eeb;" horiz-adv-x="464" d="M417 404l-29 -238q-10 -89 -45 -126q-48 -50 -132 -50q-71 0 -112 36.5t-41 100.5q0 28 4 52l27 225h70l-28 -232q-3 -24 -3 -44q0 -34 23.5 -54t63.5 -20q55 0 81 36q16 22 21 71l30 243h70zM489 451l62 -26l-86 -150l-42 19zM157 600l62 37l74 -139l-43 -25z" />
<glyph unicode="&#x1eec;" horiz-adv-x="659" d="M624 667l-51 -409q-13 -110 -48 -164q-67 -107 -202 -107q-103 0 -168 57t-65 149q0 23 4 69l50 405h74l-51 -413q-4 -38 -4 -53q0 -66 42 -105t115 -39q77 0 126 52q41 45 55 156l49 402h74zM701 699l63 -26l-83 -150l-45 22zM406 730h-40l13 61q23 5 32 5q36 4 50.5 15 t14.5 33q0 32 -45 32q-20 0 -50 -14q-1 -1 -9 -4l-6 32q54 19 92 19q37 0 58.5 -17t21.5 -45q0 -35 -26 -57t-67 -22q-19 0 -31 1z" />
<glyph unicode="&#x1eed;" horiz-adv-x="464" d="M417 404l-29 -238q-10 -89 -45 -126q-48 -50 -132 -50q-71 0 -112 36.5t-41 100.5q0 28 4 52l27 225h70l-28 -232q-3 -24 -3 -44q0 -34 23.5 -54t63.5 -20q55 0 81 36q16 22 21 71l30 243h70zM489 451l62 -26l-86 -150l-42 19zM286 496h-40l13 61q25 5 33 5q36 4 50.5 15 t14.5 33q0 32 -45 32q-20 0 -50 -14h-2q-1 -1 -3.5 -2t-4.5 -2l-6 32q54 19 93 19q37 0 58.5 -17t21.5 -45q0 -35 -26.5 -57t-67.5 -22q-19 0 -30 1z" />
<glyph unicode="&#x1eee;" horiz-adv-x="659" d="M624 667l-51 -409q-13 -110 -48 -164q-67 -107 -202 -107q-103 0 -168 57t-65 149q0 23 4 69l50 405h74l-51 -413q-4 -38 -4 -53q0 -66 42 -105t115 -39q77 0 126 52q41 45 55 156l49 402h74zM701 699l63 -26l-83 -150l-45 22zM500 845l43 -23q-41 -70 -87 -70 q-22 0 -80 29q-23 11 -33 11q-22 0 -41 -39l-44 24q23 38 42.5 54t42.5 16q20 0 77 -27q29 -13 37 -13q20 0 43 38z" />
<glyph unicode="&#x1eef;" horiz-adv-x="464" d="M417 404l-29 -238q-10 -89 -45 -126q-48 -50 -132 -50q-71 0 -112 36.5t-41 100.5q0 28 4 52l27 225h70l-28 -232q-3 -24 -3 -44q0 -34 23.5 -54t63.5 -20q55 0 81 36q16 22 21 71l30 243h70zM489 451l62 -26l-86 -150l-42 19zM357 597l41 -23q-39 -71 -84 -71 q-24 0 -65 28q-20 14 -33 14q-17 0 -37 -41l-41 24q22 40 40 55.5t41 15.5q20 0 62 -26q24 -16 33 -16q20 0 43 40z" />
<glyph unicode="&#x1ef0;" horiz-adv-x="659" d="M624 667l-51 -409q-13 -110 -48 -164q-67 -107 -202 -107q-103 0 -168 57t-65 149q0 23 4 69l50 405h74l-51 -413q-4 -38 -4 -53q0 -66 42 -105t115 -39q77 0 126 52q41 45 55 156l49 402h74zM701 699l63 -26l-83 -150l-45 22zM322 -36q20 0 34 -14t14 -34 q0 -19 -14.5 -33t-33.5 -14t-32.5 14t-13.5 34t13.5 33.5t32.5 13.5z" />
<glyph unicode="&#x1ef1;" horiz-adv-x="464" d="M417 404l-29 -238q-10 -89 -45 -126q-48 -50 -132 -50q-71 0 -112 36.5t-41 100.5q0 28 4 52l27 225h70l-28 -232q-3 -24 -3 -44q0 -34 23.5 -54t63.5 -20q55 0 81 36q16 22 21 71l30 243h70zM489 451l62 -26l-86 -150l-42 19zM224 -36q20 0 34 -14t14 -34 q0 -19 -14.5 -33t-33.5 -14t-32.5 14t-13.5 34t13.5 33.5t32.5 13.5z" />
<glyph unicode="&#x1ef2;" horiz-adv-x="520" d="M302 296l-36 -296h-74l38 304l-173 363h80l138 -293l202 293h86zM229 846l62 35l71 -136l-43 -22z" />
<glyph unicode="&#x1ef3;" horiz-adv-x="423" d="M438 404l-357 -633h-80l153 267l-132 366h75l99 -289l163 289h79zM129 600l62 37l74 -139l-43 -25z" />
<glyph unicode="&#x1ef4;" horiz-adv-x="520" d="M302 296l-36 -296h-74l38 304l-173 363h80l138 -293l202 293h86zM221 -38q20 0 34 -14t14 -34q0 -19 -14.5 -33t-33.5 -14t-32.5 14t-13.5 34t13.5 33.5t32.5 13.5z" />
<glyph unicode="&#x1ef5;" horiz-adv-x="423" d="M438 404l-357 -633h-80l153 267l-132 366h75l99 -289l163 289h79zM257 -36q20 0 34 -14t14 -34q0 -19 -14.5 -33t-33.5 -14t-32.5 14t-13.5 34t13.5 33.5t32.5 13.5z" />
<glyph unicode="&#x1ef6;" horiz-adv-x="520" d="M302 296l-36 -296h-74l38 304l-173 363h80l138 -293l202 293h86zM329 730h-40l13 61q25 5 33 5q35 4 49.5 15t14.5 33q0 32 -45 32q-19 0 -49 -14q-1 0 -2 -0.5t-3.5 -1.5t-4.5 -2l-6 32q54 19 92 19q37 0 58.5 -17t21.5 -45q0 -35 -26 -57t-67 -22q-19 0 -31 1z" />
<glyph unicode="&#x1ef7;" horiz-adv-x="423" d="M438 404l-357 -633h-80l153 267l-132 366h75l99 -289l163 289h79zM250 486h-40l13 61q25 5 32 5q36 4 50.5 15t14.5 33q0 32 -45 32q-20 0 -49 -14q-1 0 -2 -0.5t-3.5 -1.5t-4.5 -2l-6 32q53 19 92 19q37 0 58.5 -17t21.5 -45q0 -35 -26 -57t-67 -22q-19 0 -31 1z" />
<glyph unicode="&#x1ef8;" horiz-adv-x="520" d="M302 296l-36 -296h-74l38 304l-173 363h80l138 -293l202 293h86zM430 845l42 -23q-40 -70 -87 -70q-22 0 -79 29q-23 11 -34 11q-21 0 -41 -39l-43 24q23 38 42 54t42 16q21 0 78 -27q29 -13 37 -13q20 0 43 38z" />
<glyph unicode="&#x1ef9;" horiz-adv-x="423" d="M438 404l-357 -633h-80l153 267l-132 366h75l99 -289l163 289h79zM337 597l41 -23q-39 -71 -84 -71q-24 0 -65 28q-20 14 -33 14q-17 0 -37 -41l-41 24q22 40 40 55.5t41 15.5q20 0 62 -26q24 -16 33 -16q20 0 43 40z" />
<glyph unicode="&#x2011;" horiz-adv-x="181" d="M182 241l-7 -62h-181l8 62h180z" />
<glyph unicode="&#x2012;" horiz-adv-x="567" d="M448 241l-7 -62h-328l8 62h327z" />
<glyph unicode="&#x2013;" horiz-adv-x="567" d="M448 241l-7 -62h-328l8 62h327z" />
<glyph unicode="&#x2014;" horiz-adv-x="542" d="M543 240l-7 -62h-542l8 62h541z" />
<glyph unicode="&#x2015;" horiz-adv-x="542" d="M543 240l-7 -62h-542l8 62h541z" />
<glyph unicode="&#x2017;" d="M12 -58h500v-47h-500v47zM12 -174h500v-48h-500v48z" />
<glyph unicode="&#x2018;" horiz-adv-x="251" d="M87 503l125 203l41 -22l-112 -211z" />
<glyph unicode="&#x2019;" horiz-adv-x="251" d="M252 677l-124 -204l-42 23l112 210z" />
<glyph unicode="&#x201a;" horiz-adv-x="251" d="M179 80l-124 -203l-42 23l112 210z" />
<glyph unicode="&#x201b;" d="M320 473l-66 157l42 18l86 -149z" />
<glyph unicode="&#x201c;" horiz-adv-x="386" d="M222 503l125 203l42 -22l-112 -211zM87 503l125 203l41 -22l-112 -211z" />
<glyph unicode="&#x201d;" horiz-adv-x="386" d="M252 677l-124 -204l-42 23l112 210zM388 677l-125 -204l-42 23l113 210z" />
<glyph unicode="&#x201e;" horiz-adv-x="380" d="M166 80l-124 -203l-42 23l112 210zM302 80l-125 -203l-42 23l113 210z" />
<glyph unicode="&#x2020;" horiz-adv-x="567" d="M380 729l-21 -174h161l-9 -67h-160l-82 -664h-70l82 664h-162l8 67h162l21 174h70z" />
<glyph unicode="&#x2021;" horiz-adv-x="567" d="M380 729l-21 -174h160l-8 -67h-161l-38 -313h161l-9 -67h-160l-35 -284h-70l35 284h-162l8 67h162l39 313h-162l8 67h162l21 174h70z" />
<glyph unicode="&#x2022;" horiz-adv-x="667" d="M348 480q56 0 95.5 -41t39.5 -99t-40 -99t-97 -41t-97.5 41t-40.5 99t41 99t99 41z" />
<glyph unicode="&#x2026;" horiz-adv-x="660" d="M86 87q20 0 34 -14t14 -34q0 -19 -14.5 -33t-33.5 -14t-32.5 14t-13.5 34t13.5 33.5t32.5 13.5zM306 87q20 0 34 -14t14 -34q0 -19 -14.5 -33t-33.5 -14t-32.5 14t-13.5 34t13.5 33.5t32.5 13.5zM526 87q20 0 34 -14t14 -34q0 -19 -14.5 -33t-33.5 -14t-32.5 14t-13.5 34 t13.5 33.5t32.5 13.5z" />
<glyph unicode="&#x2030;" horiz-adv-x="1049" d="M203 676q51 0 83 -41.5t32 -108.5q0 -82 -39.5 -138t-98.5 -56q-53 0 -84.5 41.5t-31.5 110.5q0 81 40 136.5t99 55.5zM201 628q-36 0 -61.5 -43.5t-25.5 -105.5q0 -44 18.5 -71.5t47.5 -27.5q36 0 62 43.5t26 103.5q0 46 -18 73.5t-49 27.5zM117 16l489 661l35 -27 l-490 -660zM578 335q52 0 84 -41.5t32 -108.5q0 -82 -39.5 -138t-98.5 -56q-53 0 -85 41.5t-32 110.5q0 81 40 136.5t99 55.5zM577 287q-36 0 -62 -44t-26 -105q0 -44 18.5 -71.5t48.5 -27.5q36 0 62 43.5t26 103.5q0 46 -18 73.5t-49 27.5zM894 335q52 0 84 -41.5 t32 -108.5q0 -82 -39.5 -138t-98.5 -56q-53 0 -85 41.5t-32 110.5q0 81 40 136.5t99 55.5zM893 287q-36 0 -62 -44t-26 -105q0 -44 18.5 -71.5t48.5 -27.5q36 0 62 43.5t26 103.5q0 46 -18 73.5t-49 27.5z" />
<glyph unicode="&#x2039;" horiz-adv-x="242" d="M139 24l-105 186l144 180l40 -33l-122 -151l87 -157z" />
<glyph unicode="&#x203a;" horiz-adv-x="242" d="M97 395l106 -186l-144 -179l-40 32l122 151l-87 157z" />
<glyph unicode="&#x203e;" d="M12 864h500v-68h-500v68z" />
<glyph unicode="&#x2044;" horiz-adv-x="147" d="M-179 15l493 665l39 -29l-493 -664z" />
<glyph unicode="&#x20a3;" horiz-adv-x="567" d="M468 667l-8 -68h-231l-25 -203h231l-8 -68h-231l-41 -328h-73l82 667h304zM393 254h58l-3 -22q27 28 56 28q20 0 46 -14l-34 -50l-6 4q-10 7 -21 7q-24 0 -36 -17t-17 -57l-17 -133h-57z" />
<glyph unicode="&#x20a4;" horiz-adv-x="567" d="M490 109l38 -52q-75 -69 -150 -69q-28 0 -51 6.5t-102 35.5q-50 20 -84 20q-53 0 -105 -62l-43 48q54 64 117 77q21 35 30 72h-113l6 53h111q-2 35 -7 60h-96l6 53h83q-4 35 -4 66q0 99 37 162q29 47 79 73.5t110 26.5q91 0 144 -55.5t58 -155.5l-69 -20 q0 76 -37.5 121.5t-100.5 45.5q-68 0 -109.5 -51t-41.5 -133q0 -25 6 -80h182l-7 -53h-168q4 -37 4 -60h157l-7 -53h-155q-8 -35 -28 -74q28 -3 92 -29q73 -30 106 -30q31 0 55.5 12.5t56.5 44.5z" />
<glyph unicode="&#x20a7;" horiz-adv-x="697" d="M57 667h127q95 0 143 -41q56 -50 56 -135q0 -56 -25 -101.5t-69 -71.5q-48 -27 -137 -27h-68l-36 -291h-73zM122 599l-29 -240h64q77 0 113 35q38 38 38 96q0 53 -32 81t-94 28h-60zM407 203l-25 -203h-58l25 203h-27l7 52h26l9 66h57l-8 -66h45l-6 -52h-45zM660 207 l-52 -24q-10 26 -30 26q-11 0 -19 -6.5t-8 -16.5q0 -11 34 -25q44 -18 58.5 -32.5t14.5 -40.5q0 -39 -31 -67t-75 -28q-57 0 -79 43q-5 8 -11 29l53 20q11 -26 19 -33.5t25 -7.5t28.5 10t11.5 25q0 10 -7 16t-27 14q-41 17 -55.5 31t-14.5 37q0 35 27 59t65 24q51 0 73 -53z " />
<glyph unicode="&#x20ab;" horiz-adv-x="531" d="M525 729l-12 -93h60l-7 -60h-60l-71 -576h-70l7 54q-37 -37 -67 -50.5t-71 -13.5q-85 0 -141 56.5t-56 142.5q0 96 61.5 160.5t152.5 64.5q49 0 83.5 -18.5t71.5 -64.5l30 245h-120l7 60h120l12 93h70zM257 350q-63 0 -105.5 -46t-42.5 -115q0 -59 37.5 -97t95.5 -38 q61 0 105 49t44 117q0 57 -37.5 93.5t-96.5 36.5zM12 -64h424l-6 -69h-425z" />
<glyph unicode="&#x20ac;" horiz-adv-x="576" d="M507 75l-10 -75q-43 -13 -99 -13q-199 0 -285 158q-23 45 -32 87h-94l36 57h50q-1 11 -1 27q0 18 3 47h-72l36 57h46q29 118 117.5 189t207.5 71q90 0 166 -39l-9 -74q-76 43 -154 43q-89 0 -155.5 -50t-94.5 -140h344l-37 -57h-320q-3 -31 -3 -50q0 -15 1 -24h275 l-36 -57h-230q22 -83 86.5 -129t158.5 -46q54 0 105 18z" />
<glyph unicode="&#x2101;" horiz-adv-x="925" d="M153 376l-60 -109h-58l237 428l136 -428h-55l-33 109h-167zM179 423h125l-45 149zM263 18l492 665l39 -29l-493 -665zM890 341l-38 -31q-27 50 -74 50q-28 0 -47.5 -17t-19.5 -43q0 -21 13 -35t52 -37q55 -31 75 -56t20 -64q0 -50 -36.5 -83t-91.5 -33q-91 0 -133 89 l43 23q15 -34 36 -49t53 -15q34 0 54.5 20t20.5 52q0 23 -14 38.5t-57 39.5q-51 29 -69.5 52.5t-18.5 58.5q0 47 34 77t87 30q70 0 111 -67z" />
<glyph unicode="&#x2105;" horiz-adv-x="925" d="M415 630l-9 -77q-57 67 -129 67q-64 0 -105.5 -45.5t-41.5 -115.5q0 -63 39 -102t102 -39q57 0 111 46l-9 -79q-55 -31 -113 -31q-89 0 -145.5 57t-56.5 146q0 98 61.5 162.5t154.5 64.5q42 0 73.5 -12t67.5 -42zM692 417q92 0 150.5 -59.5t58.5 -152.5q0 -92 -63 -155 t-156 -63q-92 0 -153 59.5t-61 149.5q0 93 65 157t159 64zM690 353q-64 0 -107 -44.5t-43 -110.5q0 -63 41 -105t103 -42q63 0 104 44t41 112q0 65 -38.5 105.5t-100.5 40.5zM610 680l40 -21l-352 -672l-40 23z" />
<glyph unicode="&#x2113;" d="M261 269q-33 -170 -33 -208q0 -25 18 -25q26 0 51 55q8 18 19 18q13 0 13 -15q0 -24 -26 -60q-36 -48 -76 -48q-31 0 -49 23.5t-18 64.5q0 36 10 127q-41 -38 -49 -38q-5 0 -9.5 5t-4.5 11q0 10 20 27q20 16 50 52q36 190 82 301q47 120 115 120q29 0 46 -22t17 -59 q0 -84 -61 -187q-32 -55 -115 -142zM272 334q59 64 92 132.5t33 126.5q0 45 -23 45q-11 0 -22.5 -12.5t-18.5 -31.5q-28 -77 -61 -260z" />
<glyph unicode="&#x2116;" horiz-adv-x="1104" d="M59 0l83 672h38l431 -541l66 536h72l-83 -679h-38l-432 536l-65 -524h-72zM977 457q61 0 99 -36t38 -92q0 -71 -50 -120.5t-123 -49.5q-61 0 -99 35.5t-38 92.5q0 71 50 120.5t123 49.5zM971 401q-46 0 -76 -30.5t-30 -77.5q0 -35 22.5 -56.5t58.5 -21.5q46 0 76.5 31 t30.5 77q0 35 -22.5 56.5t-59.5 21.5zM774 51l7 59h308l-8 -59h-307z" />
<glyph unicode="&#x2117;" horiz-adv-x="733" d="M349 299l-21 -166h-59l50 400h74q62 0 91 -22q42 -31 42 -86q0 -63 -55 -101q-36 -25 -98 -25h-24zM371 480l-16 -127h20q44 0 64 14q27 19 27 56q0 57 -75 57h-20zM385 678q139 0 239 -102t100 -242q0 -143 -100.5 -244t-243.5 -101q-144 0 -244.5 101t-100.5 246 q0 142 102 242t248 100zM384 622q-132 0 -219 -96q-74 -82 -74 -190q0 -122 84 -206.5t205 -84.5q119 0 203.5 84.5t84.5 204.5q0 117 -84.5 202.5t-199.5 85.5z" />
<glyph unicode="&#x2122;" horiz-adv-x="771" d="M204 616l-41 -329h-57l41 329h-100l6 51h253l-6 -51h-96zM265 287l173 416l92 -312l171 315l66 -419h-58l-40 256l-156 -283l-82 282l-106 -255h-60z" />
<glyph unicode="&#x2126;" horiz-adv-x="667" d="M40 0v66h178q-178 104 -178 298q0 136 88 228t217 92t217 -92t88 -228q0 -194 -178 -298h178v-66h-261v60q70 40 107 82q78 90 78 213q0 118 -78 197q-65 65 -150 65q-98 0 -164 -75t-66 -187q0 -192 185 -295v-60h-261z" />
<glyph unicode="&#x212e;" horiz-adv-x="597" d="M531 250h-373l-1 -105q16 -52 40 -72q38 -35 107 -35q120 0 168 104h44q-46 -148 -213 -148q-109 0 -170.5 69t-61.5 191q0 123 63 195.5t170 72.5q72 0 126.5 -34t79.5 -94q18 -47 21 -144zM458 285v93q-8 24 -23 41q-50 59 -131 59q-54 0 -86.5 -22.5t-57.5 -77.5v-93 h298z" />
<glyph unicode="&#x2202;" d="M96 604l10 66q85 -11 142.5 -35.5t105.5 -69.5q61 -58 94.5 -141t33.5 -178q0 -97 -41 -160q-30 -46 -77 -71.5t-101 -25.5q-91 0 -156 66.5t-65 159.5q0 92 60.5 156t148.5 64q47 0 79.5 -16.5t65.5 -56.5l-6 17q-23 60 -54 98.5t-81 69.5q-45 27 -77.5 38.5t-81.5 18.5 zM267 378q-63 0 -106 -48t-43 -119q0 -67 42.5 -115.5t101.5 -48.5q61 0 102.5 49t41.5 121q0 70 -39.5 115.5t-99.5 45.5z" />
<glyph unicode="&#x2205;" horiz-adv-x="618" d="M451 667l48 -25l-48 -88q113 -80 113 -204q0 -102 -72 -172.5t-176 -70.5q-46 0 -79 16l-63 -123l-48 25l61 122q-108 80 -108 202q0 102 71 172.5t173 70.5q39 0 81 -14zM428 502l-165 -330q32 -8 58 -8q77 0 132 54.5t55 130.5q0 47 -21.5 89t-58.5 64zM212 198 l166 329q-28 8 -54 8q-78 0 -133.5 -54.5t-55.5 -130.5q0 -90 77 -152z" />
<glyph unicode="&#x2206;" horiz-adv-x="667" d="M39 0l265 667h80l268 -667h-613zM147 70h396l-198 506z" />
<glyph unicode="&#x220f;" horiz-adv-x="700" d="M49 750h627v-70h-80v-700h80v-70h-237v70h82v700h-318v-700h82v-70h-236v70h79v700h-79v70z" />
<glyph unicode="&#x2211;" horiz-adv-x="667" d="M611 750v-229h-68l-7 158h-412l252 -329l-252 -370h421l4 158h72v-228h-581v79l248 361l-248 322v78h571z" />
<glyph unicode="&#x2212;" horiz-adv-x="567" d="M61 310v60h471v-60h-471z" />
<glyph unicode="&#x2218;" d="M265 480q56 0 95.5 -41t39.5 -99t-40 -99t-97 -41t-97.5 41t-40.5 99t40.5 99t99.5 41zM264 433q-39 0 -65.5 -27t-26.5 -66q0 -38 27 -65.5t64 -27.5t63.5 27.5t26.5 65.5t-26 65.5t-63 27.5z" />
<glyph unicode="&#x2219;" horiz-adv-x="240" d="M117 257q20 0 34 -14t14 -34q0 -19 -14.5 -33t-33.5 -14t-32.5 14t-13.5 34t13.5 33.5t32.5 13.5z" />
<glyph unicode="&#x221a;" horiz-adv-x="667" d="M679 829v-70h-196l-213 -759h-93l-81 298h-84v70h145l36 -127q3 -10 28 -139h6l4 20q9 43 29 129q6 28 10 43q13 49 41 149l108 386h260z" />
<glyph unicode="&#x221e;" horiz-adv-x="667" d="M347 290q-75 -103 -165 -103q-68 0 -110 43t-42 112q0 66 43 109t110 43q90 0 161 -103q71 103 165 103q67 0 109 -43.5t42 -111.5q0 -67 -42.5 -110t-107.5 -43q-94 0 -163 104zM383 340q31 -48 58 -69t60 -21q37 0 61 25.5t24 64.5t-24.5 64.5t-61.5 25.5 q-32 0 -58.5 -20.5t-58.5 -69.5zM307 340q-55 90 -118 90q-37 0 -61 -25.5t-24 -64.5q0 -38 24.5 -63.5t61.5 -25.5q32 0 59 20t58 69z" />
<glyph unicode="&#x222b;" d="M106 -239l16 67q26 -10 46 -10q46 0 54 45q3 21 3 76v609q0 97 9 127q10 35 41.5 55t75.5 20q29 0 68 -10l-16 -67q-27 9 -46 9q-47 0 -54 -45q-2 -12 -3 -109v-575q0 -77 -4 -105t-17 -47q-32 -49 -114 -49q-33 0 -59 9z" />
<glyph unicode="&#x223c;" d="M66 264l-44 29q28 60 61 88t76 28q39 0 112 -34q69 -32 97 -32t47.5 14.5t42.5 53.5l45 -27q-29 -59 -63.5 -86t-81.5 -27q-21 0 -46 9t-94 39q-38 18 -64 18t-46 -16.5t-42 -56.5z" />
<glyph unicode="&#x2243;" d="M54 348l-44 29q53 116 137 116q37 0 112 -34q70 -32 96 -32q28 0 48 15t43 53l45 -27q-29 -59 -63.5 -86t-81.5 -27q-21 0 -46.5 8.5t-93.5 39.5q-39 18 -64 18q-49 0 -88 -73zM491 297v-59h-481v59h481z" />
<glyph unicode="&#x2248;" d="M66 348l-44 29q53 116 137 116q37 0 112 -34q70 -32 96 -32q28 0 48 15t43 53l45 -27q-29 -59 -63.5 -86t-81.5 -27q-21 0 -46.5 8.5t-93.5 39.5q-39 18 -64 18q-49 0 -88 -73zM66 179l-44 29q28 61 61 88.5t77 27.5q38 0 111 -34q69 -32 97 -32t48 15t42 53l45 -27 q-29 -59 -63.5 -86t-81.5 -27q-21 0 -46 9t-94 39q-38 18 -64 18q-49 0 -88 -73z" />
<glyph unicode="&#x2260;" d="M283 449l55 112l52 -21l-44 -91h133v-67h-164l-44 -91h208v-67h-239l-55 -114l-51 22l44 92h-133v67h164l44 91h-208v67h238z" />
<glyph unicode="&#x2264;" d="M478 612v-72l-353 -156l353 -157v-71l-433 194v65zM478 126v-70h-433v70h433z" />
<glyph unicode="&#x2265;" d="M45 156v71l353 157l-353 156v72l433 -197v-65zM45 56v70h433v-70h-433z" />
<glyph unicode="&#xe000;" horiz-adv-x="405" d="M0 405h405v-405h-405v405z" />
<glyph unicode="&#xf6be;" horiz-adv-x="206" d="M159 404l-78 -637h-70l78 637h70z" />
</font>
</defs>
</svg>
