<?xml version="1.0" standalone="no"?>
<!DOCTYPE svg PUBLIC "-//W3C//DTD SVG 1.1//EN" "http://www.w3.org/Graphics/SVG/1.1/DTD/svg11.dtd" >
<svg xmlns="http://www.w3.org/2000/svg">
<metadata></metadata>
<defs>
<font id="louis_vuittonregular" horiz-adv-x="513" >
<font-face units-per-em="1000" ascent="729" descent="-271" />
<missing-glyph horiz-adv-x="250" />
<glyph unicode="ff" horiz-adv-x="481" d="M141 349v-349h-71v349h-39v66h39v177q0 74 24 105q33 44 99 44q23 0 53 -9v-72q-27 10 -48 10q-34 0 -45.5 -19.5t-11.5 -75.5v-160h91v-66h-91zM381 349v-349h-71v349h-40v66h40v177q0 74 24 105q35 44 99 44q22 0 52 -9v-72q-26 10 -47 10q-34 0 -45.5 -19.5 t-11.5 -75.5v-160h104v-66h-104z" />
<glyph unicode="fi" horiz-adv-x="445" d="M141 349v-349h-71v349h-39v66h39v177q0 74 24 105q33 44 100 44q22 0 52 -9v-72q-26 10 -48 10q-34 0 -45.5 -19.5t-11.5 -75.5v-160h105v-66h-105zM381 415v-415h-71v415h71zM346 623q21 0 36 -15t15 -36t-15 -36t-36 -15t-36 15t-15 37q0 20 15 35t36 15z" />
<glyph unicode="fl" horiz-adv-x="443" d="M141 349v-349h-71v349h-39v66h39v177q0 74 24 105q33 44 100 44q22 0 52 -9v-72q-26 10 -48 10q-34 0 -45.5 -19.5t-11.5 -75.5v-160h105v-66h-105zM381 729v-729h-71v729h71z" />
<glyph unicode="ffi" horiz-adv-x="684" d="M141 349v-349h-71v349h-39v66h39v177q0 74 24 105q35 44 99 44q23 0 53 -9v-72q-27 10 -48 10q-34 0 -45.5 -19.5t-11.5 -75.5v-160h91v-66h-91zM381 349v-349h-71v349h-40v66h40v177q0 74 24 105q35 44 99 44q22 0 52 -9v-72q-26 10 -47 10q-34 0 -45.5 -19.5 t-11.5 -75.5v-160h104v-66h-104zM620 415v-415h-71v415h71zM585 623q21 0 36 -15t15 -36t-15 -36t-36 -15t-36 15t-15 37q0 20 15 35t36 15z" />
<glyph unicode="ffl" horiz-adv-x="684" d="M141 349v-349h-71v349h-39v66h39v177q0 74 24 105q33 44 99 44q23 0 53 -9v-72q-27 10 -48 10q-34 0 -45.5 -19.5t-11.5 -75.5v-160h91v-66h-91zM381 349v-349h-71v349h-40v66h40v177q0 74 24 105q35 44 99 44q22 0 52 -9v-72q-26 10 -47 10q-34 0 -45.5 -19.5 t-11.5 -75.5v-160h104v-66h-104zM620 729v-729h-71v729h71z" />
<glyph unicode=" "  horiz-adv-x="250" />
<glyph unicode="&#x09;" horiz-adv-x="250" />
<glyph unicode="&#xa0;" horiz-adv-x="250" />
<glyph unicode="!" horiz-adv-x="279" d="M140 89q20 0 34.5 -14.5t14.5 -34.5q0 -21 -14.5 -35.5t-34.5 -14.5q-21 0 -35.5 14.5t-14.5 35.5q0 20 15 34.5t35 14.5zM103 135v532h73v-532h-73z" />
<glyph unicode="&#x22;" horiz-adv-x="305" d="M108 399h-54l-13 268h81zM251 399h-54l-13 268h80z" />
<glyph unicode="#" horiz-adv-x="576" d="M547 471v-60h-110l-18 -139h103v-60h-110l-27 -215l-62 9l25 206h-141l-27 -215l-62 9l25 206h-106v60h114l17 139h-106v60h114l24 201l63 -8l-24 -193h141l25 201l62 -8l-24 -193h104zM372 411h-140l-17 -139h140z" />
<glyph unicode="$" horiz-adv-x="553" d="M320 763v-91q43 -5 80.5 -32.5t59.5 -68.5l-58 -38q-34 58 -82 69v-219q57 -25 89 -47q75 -49 75 -141q0 -74 -44.5 -128t-119.5 -71v-97h-59v93q-71 2 -124.5 49.5t-66.5 120.5l72 20q8 -52 40 -84t79 -36v269q-85 35 -121 74.5t-36 98.5q0 66 42.5 112t114.5 57v90h59z M320 304v-237q42 17 65.5 49t23.5 75q0 38 -20.5 64t-68.5 49zM261 409v194q-38 -10 -60 -36.5t-22 -63.5q0 -57 82 -94z" />
<glyph unicode="%" horiz-adv-x="705" d="M176 674q62 0 105.5 -42.5t43.5 -103.5t-43.5 -103t-106.5 -42q-62 0 -104.5 43t-42.5 105q0 58 44 100.5t104 42.5zM176 619q-37 0 -63 -26t-26 -63q0 -38 26 -64.5t64 -26.5q37 0 63 26.5t26 63.5t-26 63.5t-64 26.5zM527 680l38 -22l-388 -671l-38 23zM528 284 q62 0 105.5 -42.5t43.5 -103.5t-43.5 -103t-106.5 -42q-62 0 -104.5 43t-42.5 105q0 59 43.5 101t104.5 42zM528 229q-36 0 -62.5 -26t-26.5 -63q0 -38 26 -64.5t64 -26.5q37 0 63 26.5t26 63.5t-26 63.5t-64 26.5z" />
<glyph unicode="&#x26;" horiz-adv-x="612" d="M316 380l140 -179q32 32 76 88l53 -45q-33 -47 -85 -99l114 -145h-93l-73 93q-116 -106 -214 -106q-81 0 -137 54t-56 132q0 92 90 164q26 21 82 57q-39 52 -53 82t-14 61q0 61 41.5 101t104.5 40q61 0 101.5 -38.5t40.5 -95.5q0 -58 -51 -109q-18 -18 -67 -55zM404 148 l-148 192q-70 -49 -77 -55q-65 -52 -65 -109q0 -49 35.5 -85t83.5 -36q69 0 171 93zM273 434q60 44 75 63t15 48q0 30 -20.5 49.5t-52.5 19.5q-31 0 -52 -21t-21 -52q0 -21 8 -36.5t43 -63.5q2 0 5 -7z" />
<glyph unicode="'" horiz-adv-x="163" d="M108 399h-54l-13 268h81z" />
<glyph unicode="(" horiz-adv-x="294" d="M166 733l64 -29q-75 -191 -75 -427q0 -235 75 -428l-64 -29q-38 83 -60.5 205.5t-22.5 251.5q0 128 22.5 250.5t60.5 205.5z" />
<glyph unicode=")" horiz-adv-x="294" d="M126 -180l-63 29q75 193 75 428q0 234 -75 427l63 29q39 -82 61.5 -205t22.5 -251q0 -129 -22.5 -252t-61.5 -205z" />
<glyph unicode="*" horiz-adv-x="543" d="M243 605l-5 124h67l-5 -124l116 43l21 -63l-120 -34l77 -97l-54 -40l-69 104l-68 -104l-54 40l77 97l-120 34l21 63z" />
<glyph unicode="+" horiz-adv-x="556" d="M43 310v61h205v201h61v-201h205v-61h-205v-202h-61v202h-205z" />
<glyph unicode="," horiz-adv-x="227" d="M107 98l65 -24l-100 -226l-48 19z" />
<glyph unicode="-" horiz-adv-x="181" d="M0 245h181v-64h-181v64z" />
<glyph unicode="." horiz-adv-x="227" d="M113 89q21 0 35.5 -14.5t14.5 -34.5q0 -21 -14.5 -35.5t-34.5 -14.5q-21 0 -35.5 14.5t-14.5 35.5q0 20 14.5 34.5t34.5 14.5z" />
<glyph unicode="/" horiz-adv-x="485" d="M422 733l58 -26l-436 -887l-58 27z" />
<glyph unicode="0" horiz-adv-x="553" d="M277 677q102 0 170 -98t68 -244q0 -144 -66 -244q-32 -47 -78.5 -74.5t-93.5 -27.5q-49 0 -96.5 28.5t-79.5 78.5q-63 96 -63 240q0 143 69.5 242t169.5 99zM276 609q-70 0 -117.5 -79t-47.5 -195q0 -120 47 -198.5t119 -78.5q69 0 117 80t48 195q0 118 -47.5 197 t-118.5 79z" />
<glyph unicode="1" horiz-adv-x="553" d="M258 598h-110l39 69h146v-667h-75v598z" />
<glyph unicode="2" horiz-adv-x="553" d="M195 69h279v-69h-430l242 281q67 77 91.5 119.5t24.5 80.5q0 54 -39 91t-95 37q-35 0 -65 -15.5t-46 -42.5q-18 -28 -22 -79h-75q8 77 34 115q28 42 73.5 66t99.5 24q88 0 148 -57.5t60 -140.5q0 -55 -28 -104t-116 -150z" />
<glyph unicode="3" horiz-adv-x="553" d="M247 317v65q52 1 79 17q53 30 53 97q0 49 -32 81t-82 32q-63 0 -92 -43q-13 -20 -21 -64h-73q9 63 31 98q47 77 154 77q82 0 135 -51t53 -128q0 -100 -85 -148q45 -21 70 -63.5t25 -97.5q0 -86 -58.5 -143t-148.5 -57q-56 0 -102.5 25.5t-70.5 68.5q-20 35 -24 90h72 q7 -44 23 -65q16 -22 45.5 -36t59.5 -14q56 0 93.5 38.5t37.5 95.5q0 37 -18 67t-48 44q-27 13 -76 14z" />
<glyph unicode="4" horiz-adv-x="553" d="M429 176h82v-67h-82v-109h-74v109h-342l416 594v-527zM355 176v301l-211 -301h211z" />
<glyph unicode="5" horiz-adv-x="553" d="M471 598h-213l-44 -143q23 4 38 4q97 0 160.5 -65.5t63.5 -165.5q0 -103 -69.5 -171t-175.5 -68q-130 0 -204 119l59 42q58 -92 151 -92q70 0 118 49t48 120q0 70 -47.5 118t-117.5 48q-58 0 -129 -45l97 319h265v-69z" />
<glyph unicode="6" horiz-adv-x="553" d="M329 684l56 -42l-154 -214q33 10 62 10q89 0 151 -64.5t62 -155.5q0 -94 -67 -161.5t-162 -67.5q-94 0 -162 66.5t-68 158.5q0 79 55 154zM277 372q-65 0 -111 -46t-46 -111t46 -111t111 -46q64 0 110 46t46 109q0 67 -45.5 113t-110.5 46z" />
<glyph unicode="7" horiz-adv-x="553" d="M431 598h-364v69h491l-447 -683l-58 39z" />
<glyph unicode="8" horiz-adv-x="553" d="M178 347q-82 49 -82 147q0 78 53.5 130.5t133.5 52.5t133.5 -52.5t53.5 -130.5q0 -45 -23 -85t-61 -62q46 -23 71.5 -65t25.5 -96q0 -85 -57 -141t-143 -56q-88 0 -146 55.5t-58 139.5q0 112 99 163zM283 609q-47 0 -81.5 -34t-34.5 -80q0 -50 33.5 -84t82.5 -34 q48 0 82 34t34 82t-34 82t-82 34zM281 314q-53 0 -91 -37t-38 -89q0 -55 37.5 -92.5t91.5 -37.5q53 0 91 37.5t38 90.5t-38 90.5t-91 37.5z" />
<glyph unicode="9" horiz-adv-x="553" d="M224 -16l-55 41l153 214q-32 -9 -61 -9q-89 0 -151.5 64t-62.5 155q0 94 67 161t162 67t163 -66t68 -158q0 -76 -55 -154zM277 609q-65 0 -111 -45.5t-46 -109.5q0 -66 45.5 -112t111.5 -46q65 0 111 46t46 111t-46 110.5t-111 45.5z" />
<glyph unicode=":" horiz-adv-x="227" d="M113 89q21 0 35.5 -14.5t14.5 -34.5q0 -21 -14.5 -35.5t-34.5 -14.5q-21 0 -35.5 14.5t-14.5 35.5q0 20 14.5 34.5t34.5 14.5zM113 424q21 0 35.5 -14.5t14.5 -34.5t-14.5 -34.5t-34.5 -14.5q-21 0 -35.5 14.5t-14.5 35.5q0 19 14.5 33.5t34.5 14.5z" />
<glyph unicode=";" horiz-adv-x="227" d="M107 98l65 -24l-100 -226l-48 19zM130 424q20 0 34.5 -14.5t14.5 -34.5t-14.5 -34.5t-34.5 -14.5q-21 0 -35.5 14.5t-14.5 35.5q0 19 15 33.5t35 14.5z" />
<glyph unicode="&#x3c;" horiz-adv-x="500" d="M466 573v-75l-353 -161l353 -162v-74l-433 203v65z" />
<glyph unicode="=" horiz-adv-x="556" d="M43 373v58h471v-58h-471zM43 249v58h471v-58h-471z" />
<glyph unicode="&#x3e;" horiz-adv-x="500" d="M34 101v74l353 162l-353 161v75l433 -204v-65z" />
<glyph unicode="?" horiz-adv-x="436" d="M289 286h72q-1 -50 -19 -83q-19 -32 -52 -51t-73 -19q-61 0 -102 41.5t-41 102.5q0 50 29 82.5t92 52.5q64 20 83 35q29 23 29 67q0 40 -25.5 66t-65.5 26q-38 0 -63 -25t-25 -62q0 -17 6 -42h-73q-4 31 -4 46q0 65 46 108.5t115 43.5q70 0 116 -45.5t46 -114.5 q0 -40 -17 -75t-46 -54q-25 -17 -103 -41q-68 -19 -68 -73q0 -30 20.5 -51t50.5 -21q44 0 62 37q9 19 10 49zM219 89q20 0 34.5 -14.5t14.5 -34.5q0 -21 -14.5 -35.5t-34.5 -14.5q-21 0 -35.5 14.5t-14.5 35.5q0 20 15 34.5t35 14.5z" />
<glyph unicode="@" horiz-adv-x="698" d="M532 508l-27 -227q-3 -24 -3 -45q0 -32 27 -32q35 0 63 53t28 118q0 107 -72.5 175.5t-185.5 68.5q-119 0 -200.5 -82.5t-81.5 -202.5q0 -79 36.5 -144.5t101.5 -103.5q66 -37 158 -37q103 0 198 46l21 9l21 -58q-117 -58 -239 -58q-113 0 -195 47q-77 45 -122 125 t-45 174q0 146 100.5 245.5t247.5 99.5q136 0 226.5 -85t90.5 -213q0 -97 -48 -168.5t-113 -71.5q-53 0 -72 58q-31 -33 -58.5 -46.5t-64.5 -13.5q-73 0 -120.5 51.5t-47.5 129.5q0 84 53.5 140t133.5 56q72 0 118 -56l5 48h66zM349 451q-50 0 -83.5 -38t-33.5 -95 q0 -50 27 -82t69 -32q47 0 83 42.5t36 99.5q0 46 -27.5 75.5t-70.5 29.5z" />
<glyph unicode="A" horiz-adv-x="607" d="M446 189h-285l-80 -189h-81l307 699l300 -699h-82zM417 258l-111 267l-114 -267h225z" />
<glyph unicode="B" horiz-adv-x="516" d="M80 0v667h121q100 0 151 -41q62 -52 62 -139q0 -43 -15 -72t-51 -58q44 -14 69 -36q26 -23 41.5 -59.5t15.5 -74.5q0 -87 -68 -141q-55 -46 -159 -46h-167zM155 373h56q65 0 95 26q35 32 35 86q0 56 -35 88q-29 25 -93 25h-58v-225zM155 69h85q79 0 116 30q43 34 43 90 q0 31 -15 58.5t-40 41.5q-35 21 -114 21h-75v-241z" />
<glyph unicode="C" horiz-adv-x="631" d="M588 612v-92q-94 88 -202 88q-110 0 -189.5 -81.5t-79.5 -196.5q0 -112 79.5 -192t190.5 -80q108 0 201 87v-92q-94 -65 -201 -65q-142 0 -243.5 101t-101.5 242q0 143 102.5 245t246.5 102q102 0 197 -66z" />
<glyph unicode="D" horiz-adv-x="619" d="M80 0v667h137q154 0 245 -77q115 -95 115 -256t-117 -257q-49 -41 -106 -59t-138 -18h-136zM155 69h65q118 0 191 61q91 76 91 203q0 128 -90 204q-73 61 -192 61h-65v-529z" />
<glyph unicode="E" horiz-adv-x="469" d="M425 598h-270v-199h263v-69h-263v-261h270v-69h-345v667h345v-69z" />
<glyph unicode="F" horiz-adv-x="420" d="M383 598h-228v-199h221v-69h-221v-330h-75v667h303v-69z" />
<glyph unicode="G" horiz-adv-x="742" d="M422 335h278v-17q0 -106 -35 -169q-40 -73 -116.5 -117t-164.5 -44q-140 0 -241 101.5t-101 242.5q0 143 102 244.5t246 101.5q116 0 204 -68q35 -25 77 -77l-55 -50q-50 65 -103.5 95t-121.5 30q-114 0 -194 -81t-80 -196q0 -111 79.5 -192t188.5 -81q62 0 119.5 31.5 t88.5 82.5q23 36 27 94h-198v69z" />
<glyph unicode="H" horiz-adv-x="650" d="M155 395h340v272h75v-667h-75v326h-340v-326h-75v667h75v-272z" />
<glyph unicode="I" horiz-adv-x="235" d="M155 667v-667h-75v667h75z" />
<glyph unicode="J" horiz-adv-x="294" d="M214 667v-539q0 -62 -10.5 -97t-36.5 -60q-42 -40 -100 -40q-61 0 -120 49l41 58q42 -37 77 -37q39 0 56.5 30.5t17.5 96.5v539h75z" />
<glyph unicode="K" horiz-adv-x="555" d="M155 381l284 286h100l-313 -311l323 -356h-102l-273 306l-19 -19v-287h-75v667h75v-286z" />
<glyph unicode="L" horiz-adv-x="345" d="M155 667v-598h183v-69h-258v667h75z" />
<glyph unicode="M" horiz-adv-x="849" d="M57 0l110 704l256 -563l262 564l103 -705h-76l-62 464l-227 -492l-224 492l-66 -464h-76z" />
<glyph unicode="N" horiz-adv-x="754" d="M80 0v695l519 -545v517h75v-697l-519 544v-514h-75z" />
<glyph unicode="O" horiz-adv-x="778" d="M390 678q142 0 244 -101.5t102 -243.5q0 -143 -102.5 -244t-247.5 -101q-71 0 -139.5 31t-118.5 86q-86 97 -86 232q0 138 103.5 239.5t244.5 101.5zM389 608q-112 0 -192 -80t-80 -191q0 -123 85 -203q81 -76 185 -76q114 0 194 80t80 195q0 114 -79.5 194.5 t-192.5 80.5z" />
<glyph unicode="P" horiz-adv-x="444" d="M155 292v-292h-75v667h121q114 0 168 -47q62 -52 62 -140t-56.5 -138t-154.5 -50h-65zM155 360h60q68 0 105.5 31.5t37.5 88.5t-37 88q-36 30 -111 30h-55v-238z" />
<glyph unicode="Q" horiz-adv-x="779" d="M740 -7h-95l-56 60q-91 -65 -202 -65q-143 0 -244 100.5t-101 242.5q0 143 102 245t245 102t245 -102t102 -247q0 -68 -22 -122t-74 -112zM473 268l115 -120q73 81 73 183q0 116 -79 196.5t-193 80.5q-115 0 -193.5 -80.5t-78.5 -196.5q0 -119 83 -197q82 -76 186 -76 q84 0 151 48l-161 162h97z" />
<glyph unicode="R" horiz-adv-x="489" d="M254 298l212 -298h-91l-201 292h-19v-292h-75v667h108q106 0 160 -36q35 -23 54.5 -63.5t19.5 -87.5q0 -76 -46 -125.5t-122 -56.5zM155 358h47q70 0 108.5 31.5t38.5 90.5q0 66 -49 96q-35 22 -101 22h-44v-240z" />
<glyph unicode="S" horiz-adv-x="504" d="M436 574l-59 -38q-25 40 -50.5 56t-64.5 16q-47 0 -78.5 -29.5t-31.5 -73.5q0 -43 42 -72q24 -16 115 -56q81 -35 116 -78t35 -106q0 -86 -61 -145.5t-151 -59.5q-79 0 -132.5 45t-72.5 127l72 20q11 -45 27 -68q38 -54 109 -54q56 0 95 38t39 93q0 61 -55 95 q-25 16 -118 58q-72 32 -103.5 70.5t-31.5 93.5q0 74 53.5 123t133.5 49q112 0 172 -104z" />
<glyph unicode="T" horiz-adv-x="411" d="M243 598v-598h-75v598h-161v69h398v-69h-162z" />
<glyph unicode="U" horiz-adv-x="635" d="M155 667v-409q0 -90 22 -128q20 -32 59 -52t82 -20t81.5 20t58.5 52q22 38 22 128v409h75v-429q0 -102 -44 -158q-33 -43 -84.5 -67.5t-108.5 -24.5q-58 0 -110 24.5t-84 67.5q-44 56 -44 158v429h75z" />
<glyph unicode="V" horiz-adv-x="541" d="M82 667l189 -508l189 508h81l-271 -706l-270 706h82z" />
<glyph unicode="W" horiz-adv-x="942" d="M81 667l178 -500l209 534l197 -534l196 500h81l-279 -701l-197 533l-210 -533l-256 701h81z" />
<glyph unicode="X" horiz-adv-x="489" d="M204 345l-180 322h85l138 -251l141 251h85l-184 -322l193 -345h-83l-153 274l-155 -274h-84z" />
<glyph unicode="Y" horiz-adv-x="514" d="M218 287l-218 380h86l170 -298l172 298h87l-222 -380v-287h-75v287z" />
<glyph unicode="Z" horiz-adv-x="521" d="M141 69h354v-69h-478l364 598h-317v69h440z" />
<glyph unicode="[" horiz-adv-x="291" d="M153 662v-771h95v-67h-168v905h168v-67h-95z" />
<glyph unicode="\" horiz-adv-x="475" d="M58 733l436 -886l-58 -27l-436 887z" />
<glyph unicode="]" horiz-adv-x="291" d="M138 -109v771h-95v67h168v-905h-168v67h95z" />
<glyph unicode="^" horiz-adv-x="500" d="M105 364h-81l176 305h99l176 -305h-81l-145 245z" />
<glyph unicode="_" horiz-adv-x="500" d="M0 -64h500v-69h-500v69z" />
<glyph unicode="`" horiz-adv-x="476" d="M102 623l74 33l105 -144l-44 -25z" />
<glyph unicode="a" d="M379 415h71v-415h-71v58q-58 -70 -143 -70q-87 0 -143.5 62.5t-56.5 158.5q0 94 56 155t142 61t145 -69v59zM246 360q-58 0 -97.5 -43t-39.5 -107q0 -68 38.5 -112.5t97.5 -44.5q61 0 100 43.5t39 111.5q0 67 -38.5 109.5t-99.5 42.5z" />
<glyph unicode="b" d="M135 729v-373q59 68 145 68t142 -61t56 -155q0 -95 -57 -157.5t-143 -62.5t-143 69v-57h-71v729h71zM269 359q-62 0 -100.5 -42t-38.5 -110t38.5 -111t99.5 -43q59 0 98 43.5t39 108.5q0 67 -38.5 110.5t-97.5 43.5z" />
<glyph unicode="c" horiz-adv-x="423" d="M385 385v-94q-35 38 -64 53t-66 15q-63 0 -105 -44t-42 -109t41.5 -109t103.5 -44q39 0 69.5 16t65.5 56v-94q-69 -43 -133 -43q-93 0 -156.5 62.5t-63.5 154.5q0 93 63.5 156t157.5 63q69 0 129 -39z" />
<glyph unicode="d" d="M379 729h71v-729h-72v57q-52 -69 -142 -69q-86 0 -143 62.5t-57 157.5q0 94 56 155t142 61t145 -68v373zM246 359q-58 0 -97.5 -43t-39.5 -106q0 -68 38.5 -112.5t97.5 -44.5q62 0 100 42.5t38 112.5q0 75 -42 113q-41 38 -95 38z" />
<glyph unicode="e" horiz-adv-x="468" d="M434 193h-324q3 -64 39.5 -102t92.5 -38q41 0 69.5 19.5t58.5 67.5l60 -34q-67 -118 -191 -118q-90 0 -147 60.5t-57 156.5q0 97 56 158t145 61q90 0 144 -60t54 -159v-12zM115 253h244q-10 49 -43 78t-79 29q-45 0 -80 -30.5t-42 -76.5z" />
<glyph unicode="f" horiz-adv-x="241" d="M141 349v-349h-71v349h-39v66h39v177q0 74 24 105q33 44 100 44q22 0 52 -9v-72q-26 10 -48 10q-34 0 -45.5 -19.5t-11.5 -75.5v-160h105v-66h-105z" />
<glyph unicode="g" horiz-adv-x="514" d="M450 415v-406q0 -62 -8.5 -97.5t-31.5 -65.5q-58 -77 -166 -77q-89 0 -143.5 51.5t-57.5 138.5h70q4 -44 20 -70q16 -25 46.5 -40t66.5 -15q71 0 106 51q27 37 27 112v60q-62 -68 -146 -68q-85 0 -141.5 62t-56.5 155q0 95 57 157t144 62t143 -69v59h71zM244 361 q-59 0 -97.5 -43.5t-38.5 -110.5q0 -68 38 -111t97 -43q61 0 100 43t39 110q0 78 -45 119q-41 36 -93 36z" />
<glyph unicode="h" horiz-adv-x="461" d="M64 729h71v-363q48 58 119 58q38 0 70 -15.5t49 -41.5q24 -37 24 -110v-257h-71v252q0 57 -20 82t-66 25q-64 0 -88 -49q-17 -34 -17 -103v-207h-71v729z" />
<glyph unicode="i" horiz-adv-x="200" d="M135 415v-415h-71v415h71zM100 623q21 0 36 -15t15 -36t-15 -36t-36 -15t-36 15t-15 37q0 20 15 35t36 15z" />
<glyph unicode="j" horiz-adv-x="200" d="M135 415v-649h-71v649h71zM100 623q21 0 36 -15t15 -36t-15 -36t-36 -15t-36 15t-15 37q0 20 15 35t36 15z" />
<glyph unicode="k" horiz-adv-x="411" d="M135 729v-467l150 153h95l-177 -177l211 -238h-94l-167 189l-18 -18v-171h-71v729h71z" />
<glyph unicode="l" horiz-adv-x="199" d="M135 729v-729h-71v729h71z" />
<glyph unicode="m" horiz-adv-x="672" d="M64 415h71v-45q41 55 103 55q77 0 114 -67q38 67 121 67q77 0 112 -56q23 -37 23 -106v-263h-71v252q0 57 -17.5 82.5t-57.5 25.5q-89 0 -89 -130v-230h-71v246q0 114 -77 114q-23 0 -44 -12.5t-31 -32.5q-15 -30 -15 -89v-226h-71v415z" />
<glyph unicode="n" horiz-adv-x="461" d="M64 415h71v-50q27 33 54 46.5t66 13.5q38 0 70 -15.5t49 -41.5q23 -37 23 -111v-257h-71v245q0 59 -14 81q-21 35 -74 35q-54 0 -78.5 -36.5t-24.5 -117.5v-207h-71v415z" />
<glyph unicode="o" horiz-adv-x="508" d="M255 424q92 0 155.5 -63t63.5 -155t-63.5 -155t-157.5 -63q-92 0 -155 64t-63 158q0 88 64.5 151t155.5 63zM254 359q-63 0 -104.5 -43t-41.5 -108q0 -68 40.5 -111.5t104.5 -43.5q65 0 106.5 43t41.5 110t-41.5 110t-105.5 43z" />
<glyph unicode="p" d="M135 -234h-71v649h71l-1 -59q60 69 144 69q87 0 143.5 -62.5t56.5 -157.5q0 -94 -56 -155.5t-142 -61.5t-145 70v-292zM269 360q-61 0 -100 -43.5t-39 -111.5q0 -67 39 -109.5t100 -42.5q58 0 97 43t39 107q0 68 -38.5 112.5t-97.5 44.5z" />
<glyph unicode="q" d="M379 -234v292q-60 -70 -145 -70q-86 0 -142 61.5t-56 155.5q0 95 56.5 157.5t143.5 62.5q90 0 142 -69v59h72v-649h-71zM246 360q-59 0 -98 -43.5t-39 -108.5q0 -68 38.5 -111.5t97.5 -43.5q64 0 107 49q31 36 31 103q0 69 -38 112t-99 43z" />
<glyph unicode="r" horiz-adv-x="285" d="M64 415h71v-45q28 33 46.5 44t47.5 11q31 0 63 -18l-33 -64q-23 14 -42 14q-46 0 -66 -38q-16 -29 -16 -100v-219h-71v415z" />
<glyph unicode="s" horiz-adv-x="351" d="M292 349l-59 -31q-22 41 -58 41q-20 0 -35 -13.5t-15 -32.5q0 -18 14 -30.5t53 -28.5q57 -24 79 -40q46 -34 46 -91q0 -58 -40.5 -96.5t-101.5 -38.5q-104 0 -145 106l63 26q18 -38 36 -52.5t47 -14.5t48.5 18.5t19.5 46.5q0 24 -14 38t-53 31q-72 32 -96 56t-24 65 q0 50 34.5 83t86.5 33q76 0 114 -75z" />
<glyph unicode="t" horiz-adv-x="218" d="M141 349v-349h-71v349h-43v66h43v150h71v-150h74v-66h-74z" />
<glyph unicode="u" horiz-adv-x="457" d="M135 415v-242q0 -52 13 -78q23 -42 81 -42q57 0 80 42q13 26 13 78v242h71v-250q0 -83 -38 -125q-46 -52 -126 -52q-81 0 -127 52q-38 42 -38 125v250h71z" />
<glyph unicode="v" horiz-adv-x="409" d="M81 415l124 -279l123 279h80l-203 -443l-204 443h80z" />
<glyph unicode="w" horiz-adv-x="668" d="M81 415l123 -281l130 313l129 -313l124 281h80l-206 -444l-128 309l-128 -309l-204 444h80z" />
<glyph unicode="x" horiz-adv-x="445" d="M179 221l-151 194h87l108 -141l109 141h88l-152 -194l172 -221h-86l-131 169l-132 -169h-89z" />
<glyph unicode="y" horiz-adv-x="445" d="M192 39l-191 376h82l147 -297l134 297h81l-307 -649h-80z" />
<glyph unicode="z" horiz-adv-x="450" d="M145 66h286v-66h-430l301 349h-245v66h387z" />
<glyph unicode="{" horiz-adv-x="281" d="M176 580v-187q0 -49 -13 -73.5t-48 -43.5q34 -19 47.5 -45t13.5 -73v-181q0 -58 14 -74t65 -16v-62q-15 -1 -27 -1q-68 0 -96.5 34t-28.5 114v184q0 43 -13 64t-44 29v59q31 8 44 29t13 60v195q0 73 29.5 105.5t96.5 32.5q13 0 26 -1v-62h-9q-43 0 -56.5 -17t-13.5 -70z " />
<glyph unicode="|" horiz-adv-x="500" d="M213 667h75v-834h-75v834z" />
<glyph unicode="}" horiz-adv-x="281" d="M105 -26v187q0 49 13 73.5t48 42.5q-34 19 -47.5 45t-13.5 73v181q0 59 -14 75t-65 15v63q46 0 61.5 -2t33.5 -10q57 -26 57 -135v-184q0 -43 13 -64t44 -30v-59q-31 -7 -44 -28t-13 -60v-196q0 -73 -29.5 -105t-96.5 -32h-26v63h9q43 0 56.5 17t13.5 70z" />
<glyph unicode="~" horiz-adv-x="667" d="M136 268l-43 29q31 64 62 89.5t75 25.5q39 0 112 -34q67 -32 97 -32q28 0 47.5 15t42.5 53l45 -26q-29 -59 -63.5 -86t-80.5 -27q-21 0 -47 9t-93 39q-39 18 -65 18q-50 0 -89 -73z" />
<glyph unicode="&#xa1;" horiz-adv-x="277" d="M139 521q20 0 34 -14.5t14 -35.5q0 -20 -14 -34.5t-34 -14.5t-34.5 14.5t-14.5 35.5q0 20 14.5 34.5t34.5 14.5zM175 375v-531h-72v531h72z" />
<glyph unicode="&#xa2;" horiz-adv-x="553" d="M335 650v-93q57 -4 106 -38v-94q-50 59 -106 67v-304q57 9 109 71v-94q-60 -40 -109 -42v-99h-58v100q-80 11 -133 72t-53 143q0 83 53 144.5t133 72.5v94h58zM277 189v301q-49 -10 -81 -52t-32 -98t31.5 -98.5t81.5 -52.5z" />
<glyph unicode="&#xa3;" horiz-adv-x="553" d="M254 293h126v-57h-106q6 -20 6 -39q0 -44 -29 -96l58 -20q55 -20 75 -20q23 0 41 15t39 52l60 -36q-52 -103 -137 -103q-39 0 -110 26q-68 25 -94 25q-45 0 -80 -53l-57 39q52 83 129 85q29 44 29 84q0 14 -7 41h-112v57h88q-13 25 -29 57q-27 51 -35.5 78.5t-8.5 61.5 q0 78 57.5 132t140.5 54q85 0 137 -53.5t56 -144.5l-73 -20q-4 48 -11 72q-11 34 -40.5 54t-68.5 20q-53 0 -88 -34t-35 -85q0 -45 54 -144q5 -8 9.5 -16.5t7 -13.5t3.5 -6q1 -2 5 -12z" />
<glyph unicode="&#xa4;" horiz-adv-x="643" d="M43 123l95 94q-52 73 -52 143q0 39 11 69.5t39 71.5l-95 95l41 42l96 -95q45 31 74.5 41.5t69.5 10.5t70 -10.5t73 -40.5l95 94l41 -42l-94 -94q29 -43 39.5 -73.5t10.5 -68.5q0 -39 -10.5 -68t-39.5 -73l95 -96l-40 -41l-96 95q-72 -51 -143 -51q-37 0 -68 10.5 t-76 39.5l-95 -94zM324 529q-71 0 -120.5 -49t-49.5 -120q0 -69 49.5 -118.5t118.5 -49.5q70 0 119 49t49 119q0 69 -49 119t-117 50z" />
<glyph unicode="&#xa5;" horiz-adv-x="553" d="M368 383l-50 -87h192v-57h-198v-239h-75v239h-194v57h188l-49 87h-139v57h106l-130 227h86l170 -298l172 298h87l-133 -227h109v-57h-142z" />
<glyph unicode="&#xa6;" horiz-adv-x="500" d="M213 667h75v-334h-75v334zM213 153h75v-320h-75v320z" />
<glyph unicode="&#xa7;" horiz-adv-x="543" d="M91 2h72q4 -56 19 -77q25 -40 82 -40q46 0 73 26.5t27 73.5q0 55 -43 83q-20 13 -89 40q-68 26 -94 50q-49 46 -49 120q0 113 100 157q-84 48 -84 136q0 70 50.5 118t124.5 48q46 0 85 -20.5t58 -54.5q24 -40 28 -114h-71q-1 52 -16 77q-24 44 -83 44q-47 0 -75.5 -28.5 t-28.5 -75.5q0 -45 34 -70q21 -15 88 -38q73 -27 102 -52q53 -43 53 -126q0 -52 -23.5 -88.5t-76.5 -68.5q33 -20 46 -34q37 -37 37 -105q0 -75 -48 -121t-127 -46q-49 0 -88 20.5t-59 56.5q-21 35 -24 109zM271 389q-44 0 -76 -32t-32 -76q0 -46 31.5 -78t76.5 -32t76.5 32 t31.5 77t-31.5 77t-76.5 32z" />
<glyph unicode="&#xa8;" horiz-adv-x="476" d="M151 610q21 0 35.5 -14.5t14.5 -35.5q0 -20 -15 -35t-35 -15q-21 0 -35.5 14.5t-14.5 36.5q0 20 15 34.5t35 14.5zM324 610q21 0 35.5 -14.5t14.5 -35.5t-14.5 -35.5t-35.5 -14.5t-35.5 15t-14.5 36q0 20 15 34.5t35 14.5z" />
<glyph unicode="&#xa9;" horiz-adv-x="740" d="M523 478v-85q-32 38 -43 48q-41 38 -97 38q-60 0 -104.5 -45.5t-44.5 -106.5q0 -59 44.5 -103.5t104.5 -44.5q55 0 97 37q10 8 43 46v-84q-68 -54 -138 -54q-85 0 -147 61t-62 144q0 84 61 145t146 61q41 0 72 -13t68 -44zM375 678q139 0 239 -102t100 -242 q0 -143 -100.5 -244t-243.5 -101q-144 0 -244.5 101t-100.5 246q0 142 102 242t248 100zM374 622q-132 0 -219 -96q-74 -82 -74 -190q0 -122 84 -206.5t205 -84.5q119 0 203.5 84.5t84.5 204.5q0 117 -84.5 202.5t-199.5 85.5z" />
<glyph unicode="&#xaa;" horiz-adv-x="347" d="M248 664h47v-250h-47v31q-35 -38 -87 -38q-55 0 -90.5 37.5t-35.5 94.5t35.5 94t89.5 37q52 0 88 -38v32zM166 628q-35 0 -59 -25t-24 -62q0 -40 23.5 -66t59.5 -26q38 0 61.5 25t23.5 65t-23.5 64.5t-61.5 24.5z" />
<glyph unicode="&#xab;" horiz-adv-x="431" d="M262 213l119 -147l-46 -37l-149 184l149 187l46 -36zM114 213l119 -147l-47 -37l-149 184l149 187l47 -36z" />
<glyph unicode="&#xac;" horiz-adv-x="500" d="M391 0v197h-358v70h433v-267h-75z" />
<glyph unicode="&#xad;" horiz-adv-x="181" d="M0 245h181v-64h-181v64z" />
<glyph unicode="&#xae;" horiz-adv-x="740" d="M390 307l122 -177h-70l-103 151v-151h-57v400h68q64 0 98 -29t34 -85q0 -45 -24 -73t-68 -36zM339 359h18q67 0 67 58t-72 58h-13v-116zM375 678q139 0 239 -102t100 -242q0 -143 -100.5 -244t-243.5 -101q-144 0 -244.5 101t-100.5 246q0 142 102 242t248 100zM374 622 q-132 0 -219 -96q-74 -82 -74 -190q0 -122 84 -206.5t205 -84.5q119 0 203.5 84.5t84.5 204.5q0 117 -84.5 202.5t-199.5 85.5z" />
<glyph unicode="&#xaf;" horiz-adv-x="476" d="M104 587h269v-60h-269v60z" />
<glyph unicode="&#xb0;" horiz-adv-x="543" d="M273 677q54 0 93 -39t39 -94t-39 -94.5t-94 -39.5t-94.5 39t-39.5 94q0 56 39.5 95t95.5 39zM273 624q-34 0 -58 -23.5t-24 -56.5q0 -34 23.5 -57.5t57.5 -23.5q33 0 56.5 23.5t23.5 57.5q0 32 -23.5 56t-55.5 24z" />
<glyph unicode="&#xb1;" horiz-adv-x="556" d="M43 310v61h205v201h61v-201h205v-61h-205v-195h-61v195h-205zM43 0v61h471v-61h-471z" />
<glyph unicode="&#xb2;" horiz-adv-x="387" d="M150 314h169v-47h-278l156 171q41 45 56 69.5t15 45.5q0 31 -23 52t-57 21q-45 0 -66 -33q-10 -15 -14 -48h-53q5 48 22 73q38 55 111 55q56 0 94 -35t38 -86q0 -33 -17.5 -62t-73.5 -90z" />
<glyph unicode="&#xb3;" horiz-adv-x="387" d="M172 454v45q34 0 51 9q31 16 31 55q0 28 -19 45.5t-49 17.5t-45 -14t-22 -49h-52q6 39 20 63q31 47 99 47q52 0 86 -31t34 -78q0 -51 -48 -87q54 -36 54 -96q0 -52 -37.5 -86.5t-93.5 -34.5q-77 0 -111 57q-12 19 -16 58h51q5 -28 15 -40q21 -28 62 -28q33 0 55.5 22 t22.5 54q0 47 -39 63q-14 7 -49 8z" />
<glyph unicode="&#xb4;" horiz-adv-x="476" d="M374 623l-135 -136l-44 25l105 144z" />
<glyph unicode="&#xb5;" horiz-adv-x="465" d="M139 -234h-71v649h71v-253q0 -109 93 -109q58 0 81 42q13 26 13 78v242h71v-250q0 -84 -38 -125q-46 -52 -124 -52q-57 0 -99 31z" />
<glyph unicode="&#xb6;" horiz-adv-x="543" d="M200 -99v427h-15q-69 0 -112.5 46.5t-43.5 120.5q0 47 19.5 86t53.5 60q44 26 120 26h287l-33 -58h-44v-708h-63v708h-106v-708h-63z" />
<glyph unicode="&#xb7;" horiz-adv-x="225" d="M112 263q21 0 35.5 -14.5t14.5 -34.5q0 -21 -14.5 -35.5t-34.5 -14.5q-21 0 -35.5 14.5t-14.5 35.5q0 20 14.5 34.5t34.5 14.5z" />
<glyph unicode="&#xb8;" horiz-adv-x="476" d="M320 -74l-101 -128l-49 25l84 130z" />
<glyph unicode="&#xb9;" horiz-adv-x="387" d="M179 620h-71l28 47h96v-400h-53v353z" />
<glyph unicode="&#xba;" horiz-adv-x="348" d="M174 670q58 0 97.5 -38t39.5 -94t-40 -94t-99 -38q-57 0 -96.5 39t-39.5 95q0 54 40.5 92t97.5 38zM173 629q-38 0 -63.5 -25.5t-25.5 -63.5q0 -40 25 -66t63 -26q40 0 65.5 25t25.5 65t-25 65.5t-65 25.5z" />
<glyph unicode="&#xbb;" horiz-adv-x="431" d="M169 213l-119 151l47 36l149 -187l-149 -184l-47 37zM318 213l-119 151l46 36l149 -187l-149 -184l-46 37z" />
<glyph unicode="&#xbc;" horiz-adv-x="836" d="M153 620h-71l28 47h96v-400h-53v353zM582 680l39 -21l-388 -672l-39 23zM706 112h50v-47h-50v-65h-53v65h-215l268 364v-317zM653 112v164l-121 -164h121z" />
<glyph unicode="&#xbd;" horiz-adv-x="836" d="M135 620h-71l28 47h96v-400h-53v353zM542 680l39 -21l-388 -672l-39 23zM578 47h169v-47h-278l156 171q41 45 56 70t15 47q0 30 -23 51t-57 21q-45 0 -66 -33q-10 -15 -14 -48h-53q5 47 22 73q38 54 111 54q56 0 94 -34.5t38 -84.5q0 -34 -17.5 -63.5t-73.5 -89.5z" />
<glyph unicode="&#xbe;" horiz-adv-x="836" d="M185 454v45q34 0 51 9q31 16 31 55q0 28 -19 45.5t-49 17.5t-45 -14t-22 -49h-52q6 39 20 63q31 47 99 47q52 0 86 -31t34 -78q0 -51 -48 -87q54 -36 54 -96q0 -52 -37.5 -86.5t-93.5 -34.5q-77 0 -111 57q-12 19 -16 58h51q5 -28 15 -40q21 -28 62 -28q33 0 55.5 22 t22.5 54q0 47 -39 63q-14 7 -49 8zM627 680l39 -21l-388 -672l-39 23zM720 112h50v-47h-50v-65h-53v65h-215l268 364v-317zM667 112v164l-121 -164h121z" />
<glyph unicode="&#xbf;" horiz-adv-x="436" d="M147 223h-72q1 51 20 83q18 32 51.5 51t73.5 19q61 0 102 -41.5t41 -102.5q0 -50 -28.5 -82.5t-92.5 -52.5q-48 -16 -59.5 -20.5t-23.5 -13.5q-29 -24 -29 -68q0 -40 25.5 -66t65.5 -26q37 0 62 24.5t25 62.5q0 18 -6 43h73q5 -29 5 -47q0 -64 -46.5 -108t-114.5 -44 q-70 0 -116 45.5t-46 115.5q0 40 17 75t45 54q26 17 104 40q67 19 67 73q0 30 -20.5 51t-50.5 21q-44 0 -62 -37q-7 -16 -10 -49zM219 519q20 0 34.5 -14.5t14.5 -35.5q0 -20 -14.5 -34.5t-35.5 -14.5q-20 0 -34.5 14.5t-14.5 34.5q0 21 14.5 35.5t35.5 14.5z" />
<glyph unicode="&#xc0;" horiz-adv-x="607" d="M446 189h-285l-80 -189h-81l307 699l300 -699h-82zM417 258l-111 267l-114 -267h225zM175 837l67 45l119 -130l-43 -32z" />
<glyph unicode="&#xc1;" horiz-adv-x="607" d="M446 189h-285l-80 -189h-81l307 699l300 -699h-82zM417 258l-111 267l-114 -267h225zM438 837l-143 -117l-43 32l119 130z" />
<glyph unicode="&#xc2;" horiz-adv-x="607" d="M446 189h-285l-80 -189h-81l307 699l300 -699h-82zM417 258l-111 267l-114 -267h225zM170 762l139 119l141 -119l-53 -41l-88 76l-87 -76z" />
<glyph unicode="&#xc3;" horiz-adv-x="607" d="M446 189h-285l-80 -189h-81l307 699l300 -699h-82zM417 258l-111 267l-114 -267h225zM205 746l-43 34q36 71 89 71q23 0 64 -21q39 -20 54 -20q26 0 46 43l43 -33q-34 -72 -91 -72q-26 0 -65 21q-40 20 -56 20q-13 0 -20.5 -8t-20.5 -35z" />
<glyph unicode="&#xc4;" horiz-adv-x="607" d="M446 189h-285l-80 -189h-81l307 699l300 -699h-82zM417 258l-111 267l-114 -267h225zM213 849q21 0 36 -15t15 -36t-15 -36t-36 -15t-36 15t-15 37q0 20 15 35t36 15zM403 849q21 0 36 -15t15 -36t-15 -36t-36 -15t-36 15t-15 37q0 20 15 35t36 15z" />
<glyph unicode="&#xc5;" horiz-adv-x="607" d="M446 189h-285l-80 -189h-81l307 699l300 -699h-82zM417 258l-111 267l-114 -267h225zM306 896q38 0 64.5 -26t26.5 -64q0 -37 -26.5 -64t-63.5 -27q-38 0 -64.5 27t-26.5 65q0 36 26.5 62.5t63.5 26.5zM307 847q-17 0 -29.5 -12t-12.5 -29t12 -29.5t30 -12.5 q17 0 29 12.5t12 29.5t-12 29t-29 12z" />
<glyph unicode="&#xc6;" horiz-adv-x="872" d="M445 187h-284l-79 -187h-82l297 667h293l29 -69h-269l83 -200h263l30 -69h-263l108 -260h271l30 -69h-349zM416 256l-111 263l-112 -263h223z" />
<glyph unicode="&#xc7;" horiz-adv-x="631" d="M588 612v-92q-94 88 -202 88q-110 0 -189.5 -81.5t-79.5 -196.5q0 -112 79.5 -192t190.5 -80q108 0 201 87v-92q-94 -65 -201 -65q-142 0 -243.5 101t-101.5 242q0 143 102.5 245t246.5 102q102 0 197 -66zM425 -79l-110 -130l-51 26l89 136z" />
<glyph unicode="&#xc8;" horiz-adv-x="469" d="M425 598h-270v-199h263v-69h-263v-261h270v-69h-345v667h345v-69zM123 837l67 45l119 -130l-43 -32z" />
<glyph unicode="&#xc9;" horiz-adv-x="469" d="M425 598h-270v-199h263v-69h-263v-261h270v-69h-345v667h345v-69zM379 837l-143 -117l-43 32l119 130z" />
<glyph unicode="&#xca;" horiz-adv-x="469" d="M425 598h-270v-199h263v-69h-263v-261h270v-69h-345v667h345v-69zM113 762l139 119l141 -119l-53 -41l-88 76l-87 -76z" />
<glyph unicode="&#xcb;" horiz-adv-x="469" d="M425 598h-270v-199h263v-69h-263v-261h270v-69h-345v667h345v-69zM158 849q21 0 36 -15t15 -36t-15 -36t-36 -15t-36 15t-15 37q0 20 15 35t36 15zM348 849q21 0 36 -15t15 -36t-15 -36t-36 -15t-36 15t-15 37q0 20 15 35t36 15z" />
<glyph unicode="&#xcc;" horiz-adv-x="235" d="M155 667v-667h-75v667h75zM2 837l67 45l96 -133l-43 -29z" />
<glyph unicode="&#xcd;" horiz-adv-x="235" d="M155 667v-667h-75v667h75zM232 837l-120 -117l-43 29l96 133z" />
<glyph unicode="&#xce;" horiz-adv-x="235" d="M155 667v-667h-75v667h75zM-6 762l123 119l123 -119l-49 -41l-74 76l-75 -76z" />
<glyph unicode="&#xcf;" horiz-adv-x="235" d="M155 667v-667h-75v667h75zM50 849q21 0 36 -15t15 -36t-15 -36t-36 -15t-36 15t-15 37q0 20 15 35t36 15zM185 849q21 0 36 -15t15 -36t-15 -36t-36 -15t-36 15t-15 37q0 20 15 35t36 15z" />
<glyph unicode="&#xd0;" horiz-adv-x="619" d="M81 0v326h-67v67h67v274h136q153 0 244 -77q115 -95 115 -257q0 -160 -117 -256q-50 -41 -106 -59t-137 -18h-135zM156 69h64q117 0 190 61q91 76 91 203q0 128 -90 204q-73 61 -191 61h-64v-205h159v-67h-159v-257z" />
<glyph unicode="&#xd1;" horiz-adv-x="754" d="M80 0v695l519 -545v517h75v-697l-519 544v-514h-75zM279 746l-43 34q36 71 89 71q23 0 64 -21q39 -20 54 -20q26 0 46 43l43 -33q-34 -72 -91 -72q-26 0 -65 21q-40 20 -56 20q-13 0 -20.5 -8t-20.5 -35z" />
<glyph unicode="&#xd2;" horiz-adv-x="778" d="M390 678q142 0 244 -101.5t102 -243.5q0 -143 -102.5 -244t-247.5 -101q-71 0 -139.5 31t-118.5 86q-86 97 -86 232q0 138 103.5 239.5t244.5 101.5zM389 608q-112 0 -192 -80t-80 -191q0 -123 85 -203q81 -76 185 -76q114 0 194 80t80 195q0 114 -79.5 194.5 t-192.5 80.5zM257 837l67 45l119 -130l-43 -32z" />
<glyph unicode="&#xd3;" horiz-adv-x="778" d="M390 678q142 0 244 -101.5t102 -243.5q0 -143 -102.5 -244t-247.5 -101q-71 0 -139.5 31t-118.5 86q-86 97 -86 232q0 138 103.5 239.5t244.5 101.5zM389 608q-112 0 -192 -80t-80 -191q0 -123 85 -203q81 -76 185 -76q114 0 194 80t80 195q0 114 -79.5 194.5 t-192.5 80.5zM523 837l-143 -117l-43 32l119 130z" />
<glyph unicode="&#xd4;" horiz-adv-x="778" d="M390 678q142 0 244 -101.5t102 -243.5q0 -143 -102.5 -244t-247.5 -101q-71 0 -139.5 31t-118.5 86q-86 97 -86 232q0 138 103.5 239.5t244.5 101.5zM389 608q-112 0 -192 -80t-80 -191q0 -123 85 -203q81 -76 185 -76q114 0 194 80t80 195q0 114 -79.5 194.5 t-192.5 80.5zM249 762l139 119l141 -119l-53 -41l-88 76l-87 -76z" />
<glyph unicode="&#xd5;" horiz-adv-x="778" d="M390 678q142 0 244 -101.5t102 -243.5q0 -143 -102.5 -244t-247.5 -101q-71 0 -139.5 31t-118.5 86q-86 97 -86 232q0 138 103.5 239.5t244.5 101.5zM389 608q-112 0 -192 -80t-80 -191q0 -123 85 -203q81 -76 185 -76q114 0 194 80t80 195q0 114 -79.5 194.5 t-192.5 80.5zM294 746l-43 34q35 71 89 71q23 0 64 -21q39 -20 54 -20q26 0 46 43l43 -33q-34 -72 -91 -72q-26 0 -65 21q-40 20 -56 20q-13 0 -20.5 -8t-20.5 -35z" />
<glyph unicode="&#xd6;" horiz-adv-x="778" d="M390 678q142 0 244 -101.5t102 -243.5q0 -143 -102.5 -244t-247.5 -101q-71 0 -139.5 31t-118.5 86q-86 97 -86 232q0 138 103.5 239.5t244.5 101.5zM389 608q-112 0 -192 -80t-80 -191q0 -123 85 -203q81 -76 185 -76q114 0 194 80t80 195q0 114 -79.5 194.5 t-192.5 80.5zM294 849q21 0 36 -15t15 -36t-15 -36t-36 -15t-36 15t-15 37q0 20 15 35t36 15zM484 849q21 0 36 -15t15 -36t-15 -36t-36 -15t-36 15t-15 37q0 20 15 35t36 15z" />
<glyph unicode="&#xd7;" horiz-adv-x="556" d="M81 495l42 42l155 -155l155 155l42 -42l-155 -155l155 -155l-42 -42l-155 155l-155 -155l-42 42l155 155z" />
<glyph unicode="&#xd8;" horiz-adv-x="781" d="M42 37l78 77q-42 58 -59.5 107.5t-17.5 110.5q0 142 102.5 244t245.5 102q101 0 189 -57q4 -2 7 -4.5t9.5 -7t12.5 -8.5l77 77l43 -44l-75 -76q46 -61 64.5 -111t18.5 -114q0 -142 -102 -243.5t-245 -101.5q-63 0 -113 18t-113 64l-77 -77zM173 166l383 385 q-73 57 -166 57q-113 0 -192.5 -80.5t-79.5 -195.5q0 -47 12 -83.5t43 -82.5zM602 507l-385 -384q32 -29 79.5 -47t95.5 -18q111 0 190.5 80.5t79.5 193.5q0 92 -60 175z" />
<glyph unicode="&#xd9;" horiz-adv-x="635" d="M155 667v-409q0 -90 22 -128q20 -32 59 -52t82 -20t81.5 20t58.5 52q22 38 22 128v409h75v-429q0 -102 -44 -158q-33 -43 -84.5 -67.5t-108.5 -24.5q-58 0 -110 24.5t-84 67.5q-44 56 -44 158v429h75zM189 837l67 45l119 -130l-43 -32z" />
<glyph unicode="&#xda;" horiz-adv-x="635" d="M155 667v-409q0 -90 22 -128q20 -32 59 -52t82 -20t81.5 20t58.5 52q22 38 22 128v409h75v-429q0 -102 -44 -158q-33 -43 -84.5 -67.5t-108.5 -24.5q-58 0 -110 24.5t-84 67.5q-44 56 -44 158v429h75zM449 837l-143 -117l-43 32l119 130z" />
<glyph unicode="&#xdb;" horiz-adv-x="635" d="M155 667v-409q0 -90 22 -128q20 -32 59 -52t82 -20t81.5 20t58.5 52q22 38 22 128v409h75v-429q0 -102 -44 -158q-33 -43 -84.5 -67.5t-108.5 -24.5q-58 0 -110 24.5t-84 67.5q-44 56 -44 158v429h75zM178 762l139 119l141 -119l-53 -41l-88 76l-87 -76z" />
<glyph unicode="&#xdc;" horiz-adv-x="635" d="M155 667v-409q0 -90 22 -128q20 -32 59 -52t82 -20t81.5 20t58.5 52q22 38 22 128v409h75v-429q0 -102 -44 -158q-33 -43 -84.5 -67.5t-108.5 -24.5q-58 0 -110 24.5t-84 67.5q-44 56 -44 158v429h75zM223 849q21 0 36 -15t15 -36t-15 -36t-36 -15t-36 15t-15 37 q0 20 15 35t36 15zM413 849q21 0 36 -15t15 -36t-15 -36t-36 -15t-36 15t-15 37q0 20 15 35t36 15z" />
<glyph unicode="&#xdd;" horiz-adv-x="514" d="M218 287l-218 380h86l170 -298l172 298h87l-222 -380v-287h-75v287zM388 837l-143 -117l-43 32l119 130z" />
<glyph unicode="&#xde;" horiz-adv-x="444" d="M155 199v-199h-75v667h75v-94h46q115 0 168 -46q62 -52 62 -141q0 -87 -56.5 -137t-154.5 -50h-65zM155 267h60q68 0 105.5 31t37.5 88q0 56 -37 88q-36 30 -111 30h-55v-237z" />
<glyph unicode="&#xdf;" horiz-adv-x="519" d="M70 0v349h-39v66h39v138q0 85 38 131q22 26 58.5 41.5t77.5 15.5q75 0 123.5 -47t48.5 -120q0 -89 -74 -129q65 -25 103.5 -82.5t38.5 -131.5q0 -61 -30 -114t-85 -87q-57 -38 -138 -42v70q64 4 109 36q71 52 71 140q0 44 -20.5 82.5t-55.5 58.5q-37 22 -104 31v64 q47 3 72 21q40 30 40 86q0 43 -28.5 71t-72.5 28q-29 0 -53.5 -14t-34.5 -36q-13 -26 -13 -105v-521h-71z" />
<glyph unicode="&#xe0;" d="M379 415h71v-415h-71v58q-58 -70 -143 -70q-87 0 -143.5 62.5t-56.5 158.5q0 94 56 155t142 61t145 -69v59zM246 360q-58 0 -97.5 -43t-39.5 -107q0 -68 38.5 -112.5t97.5 -44.5q61 0 100 43.5t39 111.5q0 67 -38.5 109.5t-99.5 42.5zM136 623l74 33l105 -144l-44 -25z " />
<glyph unicode="&#xe1;" d="M379 415h71v-415h-71v58q-58 -70 -143 -70q-87 0 -143.5 62.5t-56.5 158.5q0 94 56 155t142 61t145 -69v59zM246 360q-58 0 -97.5 -43t-39.5 -107q0 -68 38.5 -112.5t97.5 -44.5q61 0 100 43.5t39 111.5q0 67 -38.5 109.5t-99.5 42.5zM385 623l-135 -136l-44 25l105 144z " />
<glyph unicode="&#xe2;" d="M379 415h71v-415h-71v58q-58 -70 -143 -70q-87 0 -143.5 62.5t-56.5 158.5q0 94 56 155t142 61t145 -69v59zM246 360q-58 0 -97.5 -43t-39.5 -107q0 -68 38.5 -112.5t97.5 -44.5q61 0 100 43.5t39 111.5q0 67 -38.5 109.5t-99.5 42.5zM121 526l138 130l139 -130l-52 -39 l-87 83l-88 -83z" />
<glyph unicode="&#xe3;" d="M379 415h71v-415h-71v58q-58 -70 -143 -70q-87 0 -143.5 62.5t-56.5 158.5q0 94 56 155t142 61t145 -69v59zM246 360q-58 0 -97.5 -43t-39.5 -107q0 -68 38.5 -112.5t97.5 -44.5q61 0 100 43.5t39 111.5q0 67 -38.5 109.5t-99.5 42.5zM160 506l-42 34q12 34 34.5 52.5 t51.5 18.5q27 0 62 -21q33 -20 46 -20q26 0 47 43l42 -32q-13 -34 -36.5 -53.5t-51.5 -19.5q-22 0 -57 21q-38 21 -54 21q-29 0 -42 -44z" />
<glyph unicode="&#xe4;" d="M379 415h71v-415h-71v58q-58 -70 -143 -70q-87 0 -143.5 62.5t-56.5 158.5q0 94 56 155t142 61t145 -69v59zM246 360q-58 0 -97.5 -43t-39.5 -107q0 -68 38.5 -112.5t97.5 -44.5q61 0 100 43.5t39 111.5q0 67 -38.5 109.5t-99.5 42.5zM172 610q21 0 35.5 -14.5 t14.5 -35.5q0 -20 -15 -35t-35 -15q-21 0 -35.5 14.5t-14.5 36.5q0 20 15 34.5t35 14.5zM345 610q21 0 35.5 -14.5t14.5 -35.5t-14.5 -35.5t-35.5 -14.5t-35.5 15t-14.5 36q0 20 15 34.5t35 14.5z" />
<glyph unicode="&#xe5;" d="M379 415h71v-415h-71v58q-58 -70 -143 -70q-87 0 -143.5 62.5t-56.5 158.5q0 94 56 155t142 61t145 -69v59zM246 360q-58 0 -97.5 -43t-39.5 -107q0 -68 38.5 -112.5t97.5 -44.5q61 0 100 43.5t39 111.5q0 67 -38.5 109.5t-99.5 42.5zM258 665q38 0 64.5 -26t26.5 -64 q0 -37 -26.5 -64t-63.5 -27q-38 0 -64.5 27t-26.5 65q0 36 26.5 62.5t63.5 26.5zM259 616q-17 0 -29.5 -12t-12.5 -29t12 -29.5t30 -12.5q17 0 29 12.5t12 29.5t-12 29t-29 12z" />
<glyph unicode="&#xe6;" horiz-adv-x="758" d="M724 193h-325q5 -63 41 -101.5t91 -38.5q41 0 71 20.5t57 66.5l60 -35q-37 -61 -81.5 -89t-106.5 -28q-107 0 -162 83q-26 -44 -63 -63.5t-93 -19.5q-80 0 -129 37t-49 97q0 63 53 105q43 34 118 34q38 0 63 -7.5t57 -28.5q-1 70 -29.5 103t-88.5 33q-50 0 -128 -25v66 q82 23 133 23q54 0 94.5 -22t58.5 -62q23 39 66 61.5t94 22.5q59 0 106 -29t70 -80q23 -49 22 -123zM405 254h243q-9 50 -41.5 78.5t-79.5 28.5q-98 0 -122 -107zM214 196q-48 0 -78.5 -20t-30.5 -51q0 -32 29 -52t77 -20q49 0 80 21t31 53q0 30 -30.5 49.5t-77.5 19.5z" />
<glyph unicode="&#xe7;" horiz-adv-x="423" d="M385 385v-94q-35 38 -64 53t-66 15q-63 0 -105 -44t-42 -109t41.5 -109t103.5 -44q39 0 69.5 16t65.5 56v-94q-69 -43 -133 -43q-93 0 -156.5 62.5t-63.5 154.5q0 93 63.5 156t157.5 63q69 0 129 -39zM293 -74l-101 -128l-49 25l84 130z" />
<glyph unicode="&#xe8;" horiz-adv-x="469" d="M434 193h-324q3 -64 39.5 -102t92.5 -38q41 0 69.5 19.5t58.5 67.5l60 -34q-67 -118 -191 -118q-90 0 -147 60.5t-57 156.5q0 97 56 158t145 61q90 0 144 -60t54 -159v-12zM115 253h244q-10 49 -43 78t-79 29q-45 0 -80 -30.5t-42 -76.5zM118 623l74 33l105 -144l-44 -25 z" />
<glyph unicode="&#xe9;" horiz-adv-x="469" d="M434 193h-324q3 -64 39.5 -102t92.5 -38q41 0 69.5 19.5t58.5 67.5l60 -34q-67 -118 -191 -118q-90 0 -147 60.5t-57 156.5q0 97 56 158t145 61q90 0 144 -60t54 -159v-12zM115 253h244q-10 49 -43 78t-79 29q-45 0 -80 -30.5t-42 -76.5zM370 623l-135 -136l-44 25 l105 144z" />
<glyph unicode="&#xea;" horiz-adv-x="469" d="M434 193h-324q3 -64 39.5 -102t92.5 -38q41 0 69.5 19.5t58.5 67.5l60 -34q-67 -118 -191 -118q-90 0 -147 60.5t-57 156.5q0 97 56 158t145 61q90 0 144 -60t54 -159v-12zM115 253h244q-10 49 -43 78t-79 29q-45 0 -80 -30.5t-42 -76.5zM106 526l138 130l139 -130 l-52 -39l-87 83l-88 -83z" />
<glyph unicode="&#xeb;" horiz-adv-x="469" d="M434 193h-324q3 -64 39.5 -102t92.5 -38q41 0 69.5 19.5t58.5 67.5l60 -34q-67 -118 -191 -118q-90 0 -147 60.5t-57 156.5q0 97 56 158t145 61q90 0 144 -60t54 -159v-12zM115 253h244q-10 49 -43 78t-79 29q-45 0 -80 -30.5t-42 -76.5zM158 610q21 0 35.5 -14.5 t14.5 -35.5q0 -20 -15 -35t-35 -15q-21 0 -35.5 14.5t-14.5 36.5q0 20 15 34.5t35 14.5zM331 610q21 0 35.5 -14.5t14.5 -35.5t-14.5 -35.5t-35.5 -14.5t-35.5 15t-14.5 36q0 20 15 34.5t35 14.5z" />
<glyph unicode="&#xec;" horiz-adv-x="197" d="M134 415v-415h-71v415h71zM-18 623l74 33l85 -144l-41 -25z" />
<glyph unicode="&#xed;" horiz-adv-x="197" d="M133 415v-415h-71v415h71zM214 623l-118 -136l-41 25l85 144z" />
<glyph unicode="&#xee;" horiz-adv-x="197" d="M134 415v-415h-71v415h71zM-20 526l118 130l119 -130l-48 -39l-71 83l-71 -83z" />
<glyph unicode="&#xef;" horiz-adv-x="197" d="M134 415v-415h-71v415h71zM34 608q20 0 34 -14t14 -34t-14 -34t-34 -14t-34 14.5t-14 34.5q0 19 14.5 33t33.5 14zM163 608q20 0 34 -14t14 -34t-14 -34t-34 -14t-34 14.5t-14 34.5q0 19 14.5 33t33.5 14z" />
<glyph unicode="&#xf0;" horiz-adv-x="511" d="M70 688l29 43q85 -22 157 -66l110 55l42 -40l-103 -53q80 -74 125 -181t45 -225q0 -104 -60.5 -168.5t-157.5 -64.5q-94 0 -157.5 62.5t-63.5 155.5q0 92 64 155.5t158 63.5q44 0 72.5 -13.5t59.5 -49.5q-13 61 -54 128.5t-88 106.5l-107 -56l-45 41l99 51 q-51 33 -125 55zM255 360q-62 0 -104 -43.5t-42 -107.5q0 -68 41 -112t104 -44q65 0 107 43t42 110t-41.5 110.5t-106.5 43.5z" />
<glyph unicode="&#xf1;" horiz-adv-x="458" d="M63 415h71v-50q27 33 54 46.5t66 13.5q38 0 70 -15.5t49 -41.5q23 -37 23 -111v-257h-71v245q0 59 -14 81q-21 35 -74 35q-54 0 -78.5 -36.5t-24.5 -117.5v-207h-71v415zM123 506l-42 34q12 34 34.5 52.5t51.5 18.5q27 0 62 -21q32 -20 46 -20q15 0 25 9.5t22 33.5 l42 -32q-13 -34 -36.5 -53.5t-51.5 -19.5q-22 0 -57 21q-38 21 -54 21q-29 0 -42 -44z" />
<glyph unicode="&#xf2;" horiz-adv-x="509" d="M255 424q92 0 155.5 -63t63.5 -155t-63.5 -155t-157.5 -63q-92 0 -155 64t-63 158q0 88 64.5 151t155.5 63zM254 359q-63 0 -104.5 -43t-41.5 -108q0 -68 40.5 -111.5t104.5 -43.5q65 0 106.5 43t41.5 110t-41.5 110t-105.5 43zM128 623l74 33l105 -144l-44 -25z" />
<glyph unicode="&#xf3;" horiz-adv-x="509" d="M255 424q92 0 155.5 -63t63.5 -155t-63.5 -155t-157.5 -63q-92 0 -155 64t-63 158q0 88 64.5 151t155.5 63zM254 359q-63 0 -104.5 -43t-41.5 -108q0 -68 40.5 -111.5t104.5 -43.5q65 0 106.5 43t41.5 110t-41.5 110t-105.5 43zM384 623l-135 -136l-44 25l105 144z" />
<glyph unicode="&#xf4;" horiz-adv-x="509" d="M255 424q92 0 155.5 -63t63.5 -155t-63.5 -155t-157.5 -63q-92 0 -155 64t-63 158q0 88 64.5 151t155.5 63zM254 359q-63 0 -104.5 -43t-41.5 -108q0 -68 40.5 -111.5t104.5 -43.5q65 0 106.5 43t41.5 110t-41.5 110t-105.5 43zM119 526l138 130l139 -130l-52 -39l-87 83 l-88 -83z" />
<glyph unicode="&#xf5;" horiz-adv-x="509" d="M255 424q92 0 155.5 -63t63.5 -155t-63.5 -155t-157.5 -63q-92 0 -155 64t-63 158q0 88 64.5 151t155.5 63zM254 359q-63 0 -104.5 -43t-41.5 -108q0 -68 40.5 -111.5t104.5 -43.5q65 0 106.5 43t41.5 110t-41.5 110t-105.5 43zM163 506l-42 34q12 34 34.5 52.5 t51.5 18.5q27 0 62 -21q33 -20 46 -20q15 0 25 9.5t22 33.5l42 -32q-13 -34 -36.5 -53.5t-51.5 -19.5q-22 0 -57 21q-38 21 -54 21q-29 0 -42 -44z" />
<glyph unicode="&#xf6;" horiz-adv-x="509" d="M255 424q92 0 155.5 -63t63.5 -155t-63.5 -155t-157.5 -63q-92 0 -155 64t-63 158q0 88 64.5 151t155.5 63zM254 359q-63 0 -104.5 -43t-41.5 -108q0 -68 40.5 -111.5t104.5 -43.5q65 0 106.5 43t41.5 110t-41.5 110t-105.5 43zM168 610q21 0 35.5 -14.5t14.5 -35.5 q0 -20 -15 -35t-35 -15q-21 0 -35.5 14.5t-14.5 36.5q0 20 15 34.5t35 14.5zM341 610q21 0 35.5 -14.5t14.5 -35.5t-14.5 -35.5t-35.5 -14.5t-35.5 15t-14.5 36q0 20 15 34.5t35 14.5z" />
<glyph unicode="&#xf7;" horiz-adv-x="556" d="M43 310v61h471v-61h-471zM279 256q19 0 32.5 -14t13.5 -33t-13.5 -33t-32.5 -14q-20 0 -33.5 14t-13.5 34q0 19 14 32.5t33 13.5zM279 518q19 0 32.5 -14t13.5 -33t-13.5 -33t-32.5 -14q-20 0 -33.5 14t-13.5 34q0 19 14 32.5t33 13.5z" />
<glyph unicode="&#xf8;" horiz-adv-x="509" d="M20 15l59 59q-44 59 -44 134q0 90 64 153t156 63q74 0 132 -44l59 60l40 -40l-59 -59q20 -20 33.5 -58t13.5 -78q0 -91 -63.5 -154t-154.5 -63q-71 0 -136 45l-60 -59zM130 123l207 210q-33 26 -83 26q-64 0 -105 -43.5t-41 -111.5q0 -47 22 -81zM377 294l-209 -214 q33 -27 86 -27q64 0 105.5 43.5t41.5 109.5q0 51 -24 88z" />
<glyph unicode="&#xf9;" horiz-adv-x="455" d="M134 415v-242q0 -52 13 -78q23 -42 81 -42q57 0 80 42q13 26 13 78v242h71v-250q0 -83 -38 -125q-46 -52 -126 -52q-81 0 -127 52q-38 42 -38 125v250h71zM101 623l74 33l105 -144l-44 -25z" />
<glyph unicode="&#xfa;" horiz-adv-x="455" d="M134 415v-242q0 -52 13 -78q23 -42 81 -42q57 0 80 42q13 26 13 78v242h71v-250q0 -83 -38 -125q-46 -52 -126 -52q-81 0 -127 52q-38 42 -38 125v250h71zM354 623l-135 -136l-44 25l105 144z" />
<glyph unicode="&#xfb;" horiz-adv-x="455" d="M134 415v-242q0 -52 13 -78q23 -42 81 -42q57 0 80 42q13 26 13 78v242h71v-250q0 -83 -38 -125q-46 -52 -126 -52q-81 0 -127 52q-38 42 -38 125v250h71zM89 526l138 130l139 -130l-52 -39l-87 83l-88 -83z" />
<glyph unicode="&#xfc;" horiz-adv-x="455" d="M134 415v-242q0 -52 13 -78q23 -42 81 -42q57 0 80 42q13 26 13 78v242h71v-250q0 -83 -38 -125q-46 -52 -126 -52q-81 0 -127 52q-38 42 -38 125v250h71zM141 610q21 0 35.5 -14.5t14.5 -35.5q0 -20 -15 -35t-35 -15q-21 0 -35.5 14.5t-14.5 36.5q0 20 15 34.5t35 14.5z M314 610q21 0 35.5 -14.5t14.5 -35.5t-14.5 -35.5t-35.5 -14.5t-35.5 15t-14.5 36q0 20 15 34.5t35 14.5z" />
<glyph unicode="&#xfd;" horiz-adv-x="449" d="M194 39l-191 376h82l147 -297l134 297h81l-307 -649h-80zM351 623l-135 -136l-44 25l105 144z" />
<glyph unicode="&#xfe;" d="M134 -234h-71v963h71v-373q58 68 143 68q87 0 143.5 -62.5t56.5 -157.5q0 -93 -56.5 -154.5t-141.5 -61.5t-145 70v-292zM268 359q-61 0 -99.5 -43t-38.5 -111q0 -67 38.5 -109.5t99.5 -42.5q58 0 97 43t39 106q0 69 -38.5 113t-97.5 44z" />
<glyph unicode="&#xff;" horiz-adv-x="449" d="M194 39l-191 376h82l147 -297l134 297h81l-307 -649h-80zM138 610q21 0 35.5 -14.5t14.5 -35.5q0 -20 -15 -35t-35 -15q-21 0 -35.5 14.5t-14.5 36.5q0 20 15 34.5t35 14.5zM311 610q21 0 35.5 -14.5t14.5 -35.5t-14.5 -35.5t-35.5 -14.5t-35.5 15t-14.5 36q0 20 15 34.5 t35 14.5z" />
<glyph unicode="&#x100;" horiz-adv-x="607" d="M446 189h-285l-80 -189h-81l307 699l300 -699h-82zM417 258l-111 267l-114 -267h225zM160 824h293v-62h-293v62z" />
<glyph unicode="&#x101;" d="M379 415h71v-415h-71v58q-58 -70 -143 -70q-87 0 -143.5 62.5t-56.5 158.5q0 94 56 155t142 61t145 -69v59zM246 360q-58 0 -97.5 -43t-39.5 -107q0 -68 38.5 -112.5t97.5 -44.5q61 0 100 43.5t39 111.5q0 67 -38.5 109.5t-99.5 42.5zM125 587h269v-60h-269v60z" />
<glyph unicode="&#x102;" horiz-adv-x="607" d="M446 189h-285l-80 -189h-81l307 699l300 -699h-82zM417 258l-111 267l-114 -267h225zM168 861h64q16 -67 74 -67q59 0 75 67h64q-8 -62 -44.5 -96t-94.5 -34q-70 0 -110 49q-24 31 -28 81z" />
<glyph unicode="&#x103;" d="M379 415h71v-415h-71v58q-58 -70 -143 -70q-87 0 -143.5 62.5t-56.5 158.5q0 94 56 155t142 61t145 -69v59zM246 360q-58 0 -97.5 -43t-39.5 -107q0 -68 38.5 -112.5t97.5 -44.5q61 0 100 43.5t39 111.5q0 67 -38.5 109.5t-99.5 42.5zM128 633h62q3 -33 21 -51.5 t47 -18.5q59 0 71 70h61q-7 -60 -42.5 -95t-89.5 -35q-56 0 -92.5 36t-37.5 94z" />
<glyph unicode="&#x104;" horiz-adv-x="607" d="M307 699l300 -699q-76 -49 -76 -89q0 -17 11.5 -28t28.5 -11q24 0 55 16l-8 -61q-24 -16 -58 -16q-41 0 -68.5 25t-27.5 62q0 30 17.5 53t59.5 49h-16l-79 189h-285l-80 -189h-81zM417 258l-111 267l-114 -267h225z" />
<glyph unicode="&#x105;" d="M450 415v-415q-71 -51 -71 -87q0 -16 11 -26.5t27 -10.5q24 0 51 13l-9 -55q-25 -13 -53 -13q-37 0 -62 23t-25 55q0 53 75 101h-15v58q-58 -70 -143 -70q-87 0 -143.5 62.5t-56.5 158.5q0 94 56 155t142 61t145 -69v59h71zM246 360q-58 0 -97.5 -43t-39.5 -107 q0 -68 38.5 -112.5t97.5 -44.5q61 0 100 43.5t39 111.5q0 67 -38.5 109.5t-99.5 42.5z" />
<glyph unicode="&#x106;" horiz-adv-x="631" d="M588 612v-92q-94 88 -202 88q-110 0 -189.5 -81.5t-79.5 -196.5q0 -112 79.5 -192t190.5 -80q108 0 201 87v-92q-94 -65 -201 -65q-142 0 -243.5 101t-101.5 242q0 143 102.5 245t246.5 102q102 0 197 -66zM516 837l-143 -117l-43 32l119 130z" />
<glyph unicode="&#x107;" horiz-adv-x="424" d="M385 385v-94q-35 38 -64 53t-66 15q-63 0 -105 -44t-42 -109t41.5 -109t103.5 -44q39 0 69.5 16t65.5 56v-94q-69 -43 -133 -43q-93 0 -156.5 62.5t-63.5 154.5q0 93 63.5 156t157.5 63q69 0 129 -39zM381 623l-135 -136l-44 25l105 144z" />
<glyph unicode="&#x108;" horiz-adv-x="631" d="M588 612v-92q-94 88 -202 88q-110 0 -189.5 -81.5t-79.5 -196.5q0 -112 79.5 -192t190.5 -80q108 0 201 87v-92q-94 -65 -201 -65q-142 0 -243.5 101t-101.5 242q0 143 102.5 245t246.5 102q102 0 197 -66zM247 762l139 119l141 -119l-53 -41l-88 76l-87 -76z" />
<glyph unicode="&#x109;" horiz-adv-x="423" d="M385 385v-94q-35 38 -64 53t-66 15q-63 0 -105 -44t-42 -109t41.5 -109t103.5 -44q39 0 69.5 16t65.5 56v-94q-69 -43 -133 -43q-93 0 -156.5 62.5t-63.5 154.5q0 93 63.5 156t157.5 63q69 0 129 -39zM101 526l138 130l139 -130l-52 -39l-87 83l-88 -83z" />
<glyph unicode="&#x10a;" horiz-adv-x="631" d="M588 612v-92q-94 88 -202 88q-110 0 -189.5 -81.5t-79.5 -196.5q0 -112 79.5 -192t190.5 -80q108 0 201 87v-92q-94 -65 -201 -65q-142 0 -243.5 101t-101.5 242q0 143 102.5 245t246.5 102q102 0 197 -66zM386 850q22 0 38 -15.5t16 -37.5t-15.5 -38t-37.5 -16 q-23 0 -38.5 15.5t-15.5 38.5q0 22 15.5 37.5t37.5 15.5z" />
<glyph unicode="&#x10b;" horiz-adv-x="423" d="M385 385v-94q-35 38 -64 53t-66 15q-63 0 -105 -44t-42 -109t41.5 -109t103.5 -44q39 0 69.5 16t65.5 56v-94q-69 -43 -133 -43q-93 0 -156.5 62.5t-63.5 154.5q0 93 63.5 156t157.5 63q69 0 129 -39zM251 610q21 0 36 -15t15 -36t-15 -36t-36 -15t-36 15t-15 37 q0 20 15 35t36 15z" />
<glyph unicode="&#x10c;" horiz-adv-x="631" d="M588 612v-92q-94 88 -202 88q-110 0 -189.5 -81.5t-79.5 -196.5q0 -112 79.5 -192t190.5 -80q108 0 201 87v-92q-94 -65 -201 -65q-142 0 -243.5 101t-101.5 242q0 143 102.5 245t246.5 102q102 0 197 -66zM527 840l-139 -119l-141 119l53 41l88 -75l87 75z" />
<glyph unicode="&#x10d;" horiz-adv-x="424" d="M385 385v-94q-35 38 -64 53t-66 15q-63 0 -105 -44t-42 -109t41.5 -109t103.5 -44q39 0 69.5 16t65.5 56v-94q-69 -43 -133 -43q-93 0 -156.5 62.5t-63.5 154.5q0 93 63.5 156t157.5 63q69 0 129 -39zM390 617l-138 -130l-139 130l51 39l88 -82l88 82z" />
<glyph unicode="&#x10e;" horiz-adv-x="619" d="M80 0v667h137q154 0 245 -77q115 -95 115 -256t-117 -257q-49 -41 -106 -59t-138 -18h-136zM155 69h65q118 0 191 61q91 76 91 203q0 128 -90 204q-73 61 -192 61h-65v-529zM417 840l-139 -119l-141 119l53 41l88 -75l87 75z" />
<glyph unicode="&#x10f;" horiz-adv-x="607" d="M379 729h71v-729h-72v57q-52 -69 -142 -69q-86 0 -143 62.5t-57 157.5q0 94 56 155t142 61t145 -68v373zM246 359q-58 0 -97.5 -43t-39.5 -106q0 -68 38.5 -112.5t97.5 -44.5q62 0 100 42.5t38 112.5q0 75 -42 113q-41 38 -95 38zM543 733l69 -21l-65 -154l-51 16z" />
<glyph unicode="&#x110;" horiz-adv-x="619" d="M81 0v326h-67v67h67v274h136q153 0 244 -77q115 -95 115 -257q0 -160 -117 -256q-50 -41 -106 -59t-137 -18h-135zM156 69h64q117 0 190 61q91 76 91 203q0 128 -90 204q-73 61 -191 61h-64v-205h159v-67h-159v-257z" />
<glyph unicode="&#x111;" d="M379 729h71v-93h60v-63h-60v-573h-71v57q-57 -69 -144 -69q-86 0 -143 62.5t-57 157.5q0 94 56 155t142 61q87 0 146 -68v217h-121v63h121v93zM245 359q-58 0 -97.5 -43t-39.5 -106q0 -68 38.5 -112.5t97.5 -44.5q62 0 101 43.5t39 111.5q0 67 -39 109t-100 42z" />
<glyph unicode="&#x112;" horiz-adv-x="469" d="M425 598h-270v-199h263v-69h-263v-261h270v-69h-345v667h345v-69zM106 824h293v-62h-293v62z" />
<glyph unicode="&#x113;" horiz-adv-x="469" d="M434 193h-324q3 -64 39.5 -102t92.5 -38q41 0 69.5 19.5t58.5 67.5l60 -34q-67 -118 -191 -118q-90 0 -147 60.5t-57 156.5q0 97 56 158t145 61q90 0 144 -60t54 -159v-12zM115 253h244q-10 49 -43 78t-79 29q-45 0 -80 -30.5t-42 -76.5zM110 587h269v-60h-269v60z" />
<glyph unicode="&#x114;" horiz-adv-x="469" d="M425 598h-270v-199h263v-69h-263v-261h270v-69h-345v667h345v-69zM114 861h64q16 -67 74 -67q59 0 75 67h64q-8 -62 -44.5 -96t-94.5 -34q-70 0 -110 49q-24 31 -28 81z" />
<glyph unicode="&#x115;" horiz-adv-x="469" d="M434 193h-324q3 -64 39.5 -102t92.5 -38q41 0 69.5 19.5t58.5 67.5l60 -34q-67 -118 -191 -118q-90 0 -147 60.5t-57 156.5q0 97 56 158t145 61q90 0 144 -60t54 -159v-12zM115 253h244q-10 49 -43 78t-79 29q-45 0 -80 -30.5t-42 -76.5zM115 633h62q3 -33 21 -51.5 t47 -18.5q59 0 71 70h61q-7 -60 -42.5 -95t-89.5 -35q-56 0 -92.5 36t-37.5 94z" />
<glyph unicode="&#x116;" horiz-adv-x="469" d="M425 598h-270v-199h263v-69h-263v-261h270v-69h-345v667h345v-69zM252 850q22 0 38 -15.5t16 -37.5t-15.5 -38t-37.5 -16q-23 0 -38.5 15.5t-15.5 38.5q0 22 15.5 37.5t37.5 15.5z" />
<glyph unicode="&#x117;" horiz-adv-x="469" d="M434 193h-324q3 -64 39.5 -102t92.5 -38q41 0 69.5 19.5t58.5 67.5l60 -34q-67 -118 -191 -118q-90 0 -147 60.5t-57 156.5q0 97 56 158t145 61q90 0 144 -60t54 -159v-12zM115 253h244q-10 49 -43 78t-79 29q-45 0 -80 -30.5t-42 -76.5zM244 610q21 0 36 -15t15 -36 t-15 -36t-36 -15t-36 15t-15 37q0 20 15 35t36 15z" />
<glyph unicode="&#x118;" horiz-adv-x="469" d="M425 69v-69q-75 -48 -75 -89q0 -17 11.5 -28t28.5 -11q23 0 54 16l-7 -61q-25 -16 -58 -16q-41 0 -68.5 25t-27.5 62q0 30 17.5 53t59.5 49h-280v667h345v-69h-270v-199h263v-69h-263v-261h270z" />
<glyph unicode="&#x119;" horiz-adv-x="469" d="M386 -111l-9 -55q-26 -13 -53 -13q-38 0 -63 23.5t-25 58.5q0 42 58 92q-28 -7 -52 -7q-92 0 -149.5 60t-57.5 157t56 158t145 61q90 0 144 -60t54 -159v-12h-324q3 -64 39.5 -102t92.5 -38q41 0 69.5 19.5t58.5 67.5l60 -34q-21 -37 -71 -87q-37 -37 -45 -51 q-19 -29 -19 -53q0 -17 11.5 -28t27.5 -11q25 0 52 13zM115 253h244q-10 49 -43 78t-79 29q-45 0 -80 -30.5t-42 -76.5z" />
<glyph unicode="&#x11a;" horiz-adv-x="469" d="M425 598h-270v-199h263v-69h-263v-261h270v-69h-345v667h345v-69zM393 840l-139 -119l-141 119l53 41l88 -75l87 75z" />
<glyph unicode="&#x11b;" horiz-adv-x="469" d="M434 193h-324q3 -64 39.5 -102t92.5 -38q41 0 69.5 19.5t58.5 67.5l60 -34q-67 -118 -191 -118q-90 0 -147 60.5t-57 156.5q0 97 56 158t145 61q90 0 144 -60t54 -159v-12zM115 253h244q-10 49 -43 78t-79 29q-45 0 -80 -30.5t-42 -76.5zM383 617l-138 -130l-139 130 l51 39l88 -82l88 82z" />
<glyph unicode="&#x11c;" horiz-adv-x="742" d="M422 335h278v-17q0 -106 -35 -169q-40 -73 -116.5 -117t-164.5 -44q-140 0 -241 101.5t-101 242.5q0 143 102 244.5t246 101.5q116 0 204 -68q35 -25 77 -77l-55 -50q-50 65 -103.5 95t-121.5 30q-114 0 -194 -81t-80 -196q0 -111 79.5 -192t188.5 -81q62 0 119.5 31.5 t88.5 82.5q23 36 27 94h-198v69zM254 762l139 119l141 -119l-53 -41l-88 76l-87 -76z" />
<glyph unicode="&#x11d;" d="M450 415v-406q0 -62 -8.5 -97.5t-31.5 -65.5q-58 -77 -166 -77q-89 0 -143.5 51.5t-57.5 138.5h70q4 -44 20 -70q16 -25 46.5 -40t66.5 -15q71 0 106 51q27 37 27 112v60q-62 -68 -146 -68q-85 0 -141.5 62t-56.5 155q0 95 57 157t144 62t143 -69v59h71zM244 361 q-59 0 -97.5 -43.5t-38.5 -110.5q0 -68 38 -111t97 -43q61 0 100 43t39 110q0 78 -45 119q-41 36 -93 36zM121 526l138 130l139 -130l-52 -39l-87 83l-88 -83z" />
<glyph unicode="&#x11e;" horiz-adv-x="742" d="M422 335h278v-17q0 -106 -35 -169q-40 -73 -116.5 -117t-164.5 -44q-140 0 -241 101.5t-101 242.5q0 143 102 244.5t246 101.5q116 0 204 -68q35 -25 77 -77l-55 -50q-50 65 -103.5 95t-121.5 30q-114 0 -194 -81t-80 -196q0 -111 79.5 -192t188.5 -81q62 0 119.5 31.5 t88.5 82.5q23 36 27 94h-198v69zM256 861h64q16 -67 74 -67q59 0 75 67h64q-8 -62 -44.5 -96t-94.5 -34q-70 0 -110 49q-24 31 -28 81z" />
<glyph unicode="&#x11f;" d="M450 415v-406q0 -62 -8.5 -97.5t-31.5 -65.5q-58 -77 -166 -77q-89 0 -143.5 51.5t-57.5 138.5h70q4 -44 20 -70q16 -25 46.5 -40t66.5 -15q71 0 106 51q27 37 27 112v60q-62 -68 -146 -68q-85 0 -141.5 62t-56.5 155q0 95 57 157t144 62t143 -69v59h71zM244 361 q-59 0 -97.5 -43.5t-38.5 -110.5q0 -68 38 -111t97 -43q61 0 100 43t39 110q0 78 -45 119q-41 36 -93 36zM128 633h62q3 -33 21 -51.5t47 -18.5q59 0 71 70h61q-7 -60 -42.5 -95t-89.5 -35q-56 0 -92.5 36t-37.5 94z" />
<glyph unicode="&#x120;" horiz-adv-x="742" d="M422 335h278v-17q0 -106 -35 -169q-40 -73 -116.5 -117t-164.5 -44q-140 0 -241 101.5t-101 242.5q0 143 102 244.5t246 101.5q116 0 204 -68q35 -25 77 -77l-55 -50q-50 65 -103.5 95t-121.5 30q-114 0 -194 -81t-80 -196q0 -111 79.5 -192t188.5 -81q62 0 119.5 31.5 t88.5 82.5q23 36 27 94h-198v69zM394 850q22 0 38 -15.5t16 -37.5t-15.5 -38t-37.5 -16q-23 0 -38.5 15.5t-15.5 38.5q0 22 15.5 37.5t37.5 15.5z" />
<glyph unicode="&#x121;" d="M450 415v-406q0 -62 -8.5 -97.5t-31.5 -65.5q-58 -77 -166 -77q-89 0 -143.5 51.5t-57.5 138.5h70q4 -44 20 -70q16 -25 46.5 -40t66.5 -15q71 0 106 51q27 37 27 112v60q-62 -68 -146 -68q-85 0 -141.5 62t-56.5 155q0 95 57 157t144 62t143 -69v59h71zM244 361 q-59 0 -97.5 -43.5t-38.5 -110.5q0 -68 38 -111t97 -43q61 0 100 43t39 110q0 78 -45 119q-41 36 -93 36zM259 610q21 0 36 -15t15 -36t-15 -36t-36 -15t-36 15t-15 37q0 20 15 35t36 15z" />
<glyph unicode="&#x122;" horiz-adv-x="742" d="M422 335h278v-17q0 -106 -35 -169q-40 -73 -116.5 -117t-164.5 -44q-140 0 -241 101.5t-101 242.5q0 143 102 244.5t246 101.5q116 0 204 -68q35 -25 77 -77l-55 -50q-50 65 -103.5 95t-121.5 30q-114 0 -194 -81t-80 -196q0 -111 79.5 -192t188.5 -81q62 0 119.5 31.5 t88.5 82.5q23 36 27 94h-198v69zM355 -53l76 -24l-79 -152l-51 16z" />
<glyph unicode="&#x123;" d="M450 415v-406q0 -62 -8.5 -97.5t-31.5 -65.5q-58 -77 -166 -77q-89 0 -143.5 51.5t-57.5 138.5h70q4 -44 20 -70q16 -25 46.5 -40t66.5 -15q71 0 106 51q27 37 27 112v60q-62 -68 -146 -68q-85 0 -141.5 62t-56.5 155q0 95 57 157t144 62t143 -69v59h71zM244 361 q-59 0 -97.5 -43.5t-38.5 -110.5q0 -68 38 -111t97 -43q61 0 100 43t39 110q0 78 -45 119q-41 36 -93 36zM284 489l-69 21l65 153l51 -16z" />
<glyph unicode="&#x124;" horiz-adv-x="650" d="M155 395h340v272h75v-667h-75v326h-340v-326h-75v667h75v-272zM185 762l139 119l141 -119l-53 -41l-88 76l-87 -76z" />
<glyph unicode="&#x125;" horiz-adv-x="461" d="M64 729h71v-363q27 32 54.5 45t65.5 13q80 0 119 -57q24 -37 24 -110v-257h-71v252q0 57 -20 82t-66 25q-65 0 -89 -49q-17 -34 -17 -103v-207h-71v729zM-10 789l139 119l141 -120l-53 -40l-88 75l-87 -75z" />
<glyph unicode="&#x126;" horiz-adv-x="650" d="M495 667h75v-101h66v-67h-66v-499h-75v326h-340v-326h-75v499h-67v67h67v101h75v-101h340v101zM495 499h-340v-104h340v104z" />
<glyph unicode="&#x127;" horiz-adv-x="459" d="M254 636v-63h-120v-207q48 58 119 58q80 0 119 -57q24 -37 24 -110v-257h-71v252q0 57 -20 82t-66 25q-64 0 -88 -49q-17 -34 -17 -103v-207h-71v573h-60v63h60v93h71v-93h120z" />
<glyph unicode="&#x128;" horiz-adv-x="235" d="M155 667v-667h-75v667h75zM13 746l-43 34q36 71 89 71q23 0 64 -21q39 -20 54 -20q26 0 46 43l43 -33q-34 -72 -91 -72q-26 0 -65 21q-40 20 -56 20q-13 0 -20.5 -8t-20.5 -35z" />
<glyph unicode="&#x129;" horiz-adv-x="200" d="M135 415v-415h-71v415h71zM0 506l-42 34q12 34 34.5 52.5t51.5 18.5q27 0 62 -21q33 -20 46 -20q26 0 47 43l42 -32q-13 -34 -36.5 -53.5t-51.5 -19.5q-22 0 -57 21q-38 21 -54 21q-29 0 -42 -44z" />
<glyph unicode="&#x12a;" horiz-adv-x="235" d="M155 667v-667h-75v667h75zM11 824h213v-62h-213v62z" />
<glyph unicode="&#x12b;" horiz-adv-x="197" d="M134 415v-415h-71v415h71zM-9 587h215v-60h-215v60z" />
<glyph unicode="&#x12c;" horiz-adv-x="235" d="M155 667v-667h-75v667h75zM-21 861h64q16 -67 74 -67q59 0 75 67h64q-8 -62 -44.5 -96t-94.5 -34q-70 0 -110 49q-24 31 -28 81z" />
<glyph unicode="&#x12d;" horiz-adv-x="197" d="M134 415v-415h-71v415h71zM-18 630h60q2 -66 55 -66q52 0 58 66h60q-5 -56 -37 -90.5t-81 -34.5q-36 0 -67 22.5t-43 56.5q-5 19 -5 46z" />
<glyph unicode="&#x12e;" horiz-adv-x="235" d="M156 667v-667q-47 -54 -47 -90q0 -15 10.5 -24.5t27.5 -9.5t40 12l-6 -59q-27 -14 -50 -14q-37 0 -61.5 24.5t-24.5 60.5q0 28 14 49.5t52 50.5h-30v667h75z" />
<glyph unicode="&#x12f;" horiz-adv-x="197" d="M133 415v-415q-40 -56 -40 -89q0 -15 9 -25.5t22 -10.5q17 0 36 11l-7 -52q-18 -13 -39 -13q-32 0 -56 23.5t-24 54.5q0 38 59 101h-31v415h71zM98 623q21 0 36 -15t15 -36t-15 -36t-36 -15t-36 15t-15 37q0 20 15 35t36 15z" />
<glyph unicode="&#x130;" horiz-adv-x="235" d="M155 667v-667h-75v667h75zM117 850q22 0 38 -15.5t16 -37.5t-15.5 -38t-37.5 -16t-38 15.5t-16 38.5q0 22 15.5 37.5t37.5 15.5z" />
<glyph unicode="&#x131;" horiz-adv-x="200" d="M135 415v-415h-71v415h71z" />
<glyph unicode="&#x132;" horiz-adv-x="535" d="M155 667v-667h-75v667h75zM455 667v-539q0 -62 -10.5 -97t-36.5 -60q-42 -40 -100 -40q-61 0 -120 49l41 58q42 -37 77 -37q39 0 56.5 30.5t17.5 96.5v539h75z" />
<glyph unicode="&#x133;" horiz-adv-x="401" d="M135 415v-415h-71v415h71zM100 623q21 0 36 -15t15 -36t-15 -36t-36 -15t-36 15t-15 37q0 20 15 35t36 15zM337 415v-649h-71v649h71zM302 623q21 0 36 -15t15 -36t-15 -36t-36 -15t-36 15t-15 37q0 20 15 35t36 15z" />
<glyph unicode="&#x134;" horiz-adv-x="294" d="M214 667v-539q0 -62 -10.5 -97t-36.5 -60q-42 -40 -100 -40q-61 0 -120 49l41 58q42 -37 77 -37q39 0 56.5 30.5t17.5 96.5v539h75zM33 762l139 119l141 -119l-53 -41l-88 76l-87 -76z" />
<glyph unicode="&#x135;" horiz-adv-x="200" d="M135 415v-649h-71v649h71zM-39 526l138 130l139 -130l-52 -39l-87 83l-88 -83z" />
<glyph unicode="&#x136;" horiz-adv-x="555" d="M155 381l284 286h100l-313 -311l323 -356h-102l-273 306l-19 -19v-287h-75v667h75v-286zM262 -53l76 -24l-79 -152l-51 16z" />
<glyph unicode="&#x137;" horiz-adv-x="410" d="M134 729v-467l150 153h95l-177 -177l211 -238h-94l-167 189l-18 -18v-171h-71v729h71zM189 -53l69 -21l-65 -154l-51 16z" />
<glyph unicode="&#x138;" horiz-adv-x="417" d="M135 415v-153l150 153h95l-177 -177l211 -238h-94l-167 189l-18 -18v-171h-71v415h71z" />
<glyph unicode="&#x139;" horiz-adv-x="345" d="M155 667v-598h183v-69h-258v667h75zM257 837l-143 -117l-43 32l119 130z" />
<glyph unicode="&#x13a;" horiz-adv-x="197" d="M134 729v-729h-71v729h71zM218 884l-120 -117l-43 29l99 133z" />
<glyph unicode="&#x13b;" horiz-adv-x="345" d="M155 667v-598h183v-69h-258v667h75zM181 -53l76 -24l-79 -152l-51 16z" />
<glyph unicode="&#x13c;" horiz-adv-x="197" d="M133 729v-729h-71v729h71zM67 -53l69 -21l-65 -154l-51 16z" />
<glyph unicode="&#x13d;" horiz-adv-x="345" d="M155 667v-598h183v-69h-258v667h75zM262 670l76 -24l-79 -152l-51 17z" />
<glyph unicode="&#x13e;" horiz-adv-x="291" d="M134 729v-729h-71v729h71zM228 733l69 -21l-65 -154l-51 16z" />
<glyph unicode="&#x13f;" horiz-adv-x="345" d="M155 667v-598h183v-69h-258v667h75zM292 404q26 0 45 -18.5t19 -45.5q0 -26 -19 -45t-45 -19q-27 0 -45.5 19t-18.5 46q0 26 19 44.5t45 18.5z" />
<glyph unicode="&#x140;" horiz-adv-x="325" d="M134 729v-729h-71v729h71zM266 428q26 0 45 -18.5t19 -45.5q0 -26 -19 -45t-45 -19q-27 0 -45.5 19t-18.5 46q0 26 19 44.5t45 18.5z" />
<glyph unicode="&#x141;" horiz-adv-x="345" d="M155 394l113 80v-76l-113 -80v-249h183v-69h-258v285l-67 -46v75l67 47v306h75v-273z" />
<glyph unicode="&#x142;" horiz-adv-x="197" d="M133 421l64 48v-76l-64 -48v-345h-71v312l-63 -47v76l63 47v341h71v-308z" />
<glyph unicode="&#x143;" horiz-adv-x="754" d="M80 0v695l519 -545v517h75v-697l-519 544v-514h-75zM505 837l-143 -117l-43 32l119 130z" />
<glyph unicode="&#x144;" horiz-adv-x="458" d="M63 415h71v-50q27 33 54 46.5t66 13.5q38 0 70 -15.5t49 -41.5q23 -37 23 -111v-257h-71v245q0 59 -14 81q-21 35 -74 35q-54 0 -78.5 -36.5t-24.5 -117.5v-207h-71v415zM349 623l-135 -136l-44 25l105 144z" />
<glyph unicode="&#x145;" horiz-adv-x="754" d="M80 0v695l519 -545v517h75v-697l-519 544v-514h-75zM341 -53l76 -24l-79 -152l-51 16z" />
<glyph unicode="&#x146;" horiz-adv-x="458" d="M63 415h71v-50q27 33 54 46.5t66 13.5q38 0 70 -15.5t49 -41.5q23 -37 23 -111v-257h-71v245q0 59 -14 81q-21 35 -74 35q-54 0 -78.5 -36.5t-24.5 -117.5v-207h-71v415zM197 -53l69 -21l-65 -154l-51 16z" />
<glyph unicode="&#x147;" horiz-adv-x="754" d="M80 0v695l519 -545v517h75v-697l-519 544v-514h-75zM517 840l-139 -119l-141 119l53 41l88 -75l87 75z" />
<glyph unicode="&#x148;" horiz-adv-x="458" d="M63 415h71v-50q27 33 54 46.5t66 13.5q38 0 70 -15.5t49 -41.5q23 -37 23 -111v-257h-71v245q0 59 -14 81q-21 35 -74 35q-54 0 -78.5 -36.5t-24.5 -117.5v-207h-71v415zM361 617l-138 -130l-139 130l51 39l88 -82l88 82z" />
<glyph unicode="&#x149;" horiz-adv-x="580" d="M126 700l65 -24l-100 -225l-48 19zM183 415h71v-50q27 33 54 46.5t65 13.5t70 -15.5t49 -41.5q23 -37 23 -111v-257h-71v245q0 59 -14 81q-21 35 -73 35q-54 0 -78.5 -36.5t-24.5 -117.5v-207h-71v415z" />
<glyph unicode="&#x14a;" horiz-adv-x="650" d="M80 667h75v-86q43 53 86 75t104 22q59 0 110 -24.5t78 -66.5q37 -60 37 -178v-239q0 -117 -38 -168q-54 -71 -156 -71q-37 0 -83 14v72q45 -16 80 -16q68 0 97 32q25 28 25 122v268q0 94 -25 130q-39 55 -133 55q-110 0 -152 -79q-30 -57 -30 -167v-362h-75v667z" />
<glyph unicode="&#x14b;" horiz-adv-x="461" d="M64 415h71v-50q27 33 54 46.5t66 13.5q38 0 70 -15.5t49 -41.5q23 -37 23 -111v-177q0 -74 -24 -105q-33 -44 -99 -44q-22 0 -53 8v72q27 -9 48 -9q34 0 45.5 19t11.5 75v149q0 59 -14 81q-21 35 -74 35q-54 0 -78.5 -36.5t-24.5 -117.5v-207h-71v415z" />
<glyph unicode="&#x14c;" horiz-adv-x="778" d="M390 678q142 0 244 -101.5t102 -243.5q0 -143 -102.5 -244t-247.5 -101q-71 0 -139.5 31t-118.5 86q-86 97 -86 232q0 138 103.5 239.5t244.5 101.5zM389 608q-112 0 -192 -80t-80 -191q0 -123 85 -203q81 -76 185 -76q114 0 194 80t80 195q0 114 -79.5 194.5 t-192.5 80.5zM242 824h293v-62h-293v62z" />
<glyph unicode="&#x14d;" horiz-adv-x="509" d="M255 424q92 0 155.5 -63t63.5 -155t-63.5 -155t-157.5 -63q-92 0 -155 64t-63 158q0 88 64.5 151t155.5 63zM254 359q-63 0 -104.5 -43t-41.5 -108q0 -68 40.5 -111.5t104.5 -43.5q65 0 106.5 43t41.5 110t-41.5 110t-105.5 43zM120 587h269v-60h-269v60z" />
<glyph unicode="&#x14e;" horiz-adv-x="778" d="M390 678q142 0 244 -101.5t102 -243.5q0 -143 -102.5 -244t-247.5 -101q-71 0 -139.5 31t-118.5 86q-86 97 -86 232q0 138 103.5 239.5t244.5 101.5zM389 608q-112 0 -192 -80t-80 -191q0 -123 85 -203q81 -76 185 -76q114 0 194 80t80 195q0 114 -79.5 194.5 t-192.5 80.5zM251 861h64q16 -67 74 -67q59 0 75 67h64q-8 -62 -44.5 -96t-94.5 -34q-70 0 -110 49q-24 31 -28 81z" />
<glyph unicode="&#x14f;" horiz-adv-x="508" d="M255 424q92 0 155.5 -63t63.5 -155t-63.5 -155t-157.5 -63q-92 0 -155 64t-63 158q0 88 64.5 151t155.5 63zM254 359q-63 0 -104.5 -43t-41.5 -108q0 -68 40.5 -111.5t104.5 -43.5q65 0 106.5 43t41.5 110t-41.5 110t-105.5 43zM123 633h62q3 -33 21 -51.5t47 -18.5 q59 0 71 70h61q-7 -60 -42.5 -95t-89.5 -35q-56 0 -92.5 36t-37.5 94z" />
<glyph unicode="&#x150;" horiz-adv-x="778" d="M390 678q142 0 244 -101.5t102 -243.5q0 -143 -102.5 -244t-247.5 -101q-71 0 -139.5 31t-118.5 86q-86 97 -86 232q0 138 103.5 239.5t244.5 101.5zM389 608q-112 0 -192 -80t-80 -191q0 -123 85 -203q81 -76 185 -76q114 0 194 80t80 195q0 114 -79.5 194.5 t-192.5 80.5zM464 846l-147 -122l-35 28l118 130zM631 846l-147 -122l-35 28l118 130z" />
<glyph unicode="&#x151;" horiz-adv-x="509" d="M255 424q92 0 155.5 -63t63.5 -155t-63.5 -155t-157.5 -63q-92 0 -155 64t-63 158q0 88 64.5 151t155.5 63zM254 359q-63 0 -104.5 -43t-41.5 -108q0 -68 40.5 -111.5t104.5 -43.5q65 0 106.5 43t41.5 110t-41.5 110t-105.5 43zM335 625l-133 -138l-36 23l105 146z M469 625l-133 -138l-37 23l106 146z" />
<glyph unicode="&#x152;" horiz-adv-x="1041" d="M998 598h-266v-199h259v-69h-259v-261h266v-69h-341v128q-101 -140 -266 -140q-143 0 -246 101t-103 243q0 143 101.5 244.5t244.5 101.5q164 0 269 -142v131h341v-69zM387 608q-109 0 -189.5 -81t-80.5 -190q0 -115 78.5 -197t188.5 -82q113 0 193 80.5t80 193.5 t-79.5 194.5t-190.5 81.5z" />
<glyph unicode="&#x153;" horiz-adv-x="837" d="M803 194h-327q3 -62 40.5 -101.5t95.5 -39.5q78 0 125 88l60 -35q-67 -118 -190 -118q-56 0 -103 27t-69 72q-29 -47 -77.5 -73t-105.5 -26q-90 0 -153.5 63.5t-63.5 153.5q0 91 64.5 155t156.5 64q57 0 105 -26t74 -72q23 46 67.5 72t100.5 26q91 0 145.5 -59t54.5 -157 v-14zM482 254h246q-11 50 -42.5 77.5t-80.5 27.5q-98 0 -123 -105zM253 359q-62 0 -103.5 -43t-41.5 -108q0 -68 40.5 -111.5t103.5 -43.5q65 0 106.5 42.5t41.5 108.5q0 68 -41 111.5t-106 43.5z" />
<glyph unicode="&#x154;" horiz-adv-x="489" d="M254 298l212 -298h-91l-201 292h-19v-292h-75v667h108q106 0 160 -36q35 -23 54.5 -63.5t19.5 -87.5q0 -76 -46 -125.5t-122 -56.5zM155 358h47q70 0 108.5 31.5t38.5 90.5q0 66 -49 96q-35 22 -101 22h-44v-240zM362 837l-143 -117l-43 32l119 130z" />
<glyph unicode="&#x155;" horiz-adv-x="284" d="M63 415h71v-45q28 33 46.5 44t47.5 11q31 0 63 -18l-33 -64q-23 14 -42 14q-46 0 -66 -38q-16 -29 -16 -100v-219h-71v415zM288 623l-135 -136l-44 25l105 144z" />
<glyph unicode="&#x156;" horiz-adv-x="489" d="M254 298l212 -298h-91l-201 292h-19v-292h-75v667h108q106 0 160 -36q35 -23 54.5 -63.5t19.5 -87.5q0 -76 -46 -125.5t-122 -56.5zM155 358h47q70 0 108.5 31.5t38.5 90.5q0 66 -49 96q-35 22 -101 22h-44v-240zM223 -53l76 -24l-79 -152l-51 16z" />
<glyph unicode="&#x157;" horiz-adv-x="284" d="M63 415h71v-45q28 33 46.5 44t47.5 11q31 0 63 -18l-33 -64q-23 14 -42 14q-46 0 -66 -38q-16 -29 -16 -100v-219h-71v415zM70 -53l69 -21l-65 -154l-51 16z" />
<glyph unicode="&#x158;" horiz-adv-x="489" d="M254 298l212 -298h-91l-201 292h-19v-292h-75v667h108q106 0 160 -36q35 -23 54.5 -63.5t19.5 -87.5q0 -76 -46 -125.5t-122 -56.5zM155 358h47q70 0 108.5 31.5t38.5 90.5q0 66 -49 96q-35 22 -101 22h-44v-240zM371 840l-139 -119l-141 119l53 41l88 -75l87 75z" />
<glyph unicode="&#x159;" horiz-adv-x="284" d="M63 415h71v-45q28 33 46.5 44t47.5 11q31 0 63 -18l-33 -64q-23 14 -42 14q-46 0 -66 -38q-16 -29 -16 -100v-219h-71v415zM299 617l-138 -130l-139 130l51 39l88 -82l88 82z" />
<glyph unicode="&#x15a;" horiz-adv-x="504" d="M436 574l-59 -38q-25 40 -50.5 56t-64.5 16q-47 0 -78.5 -29.5t-31.5 -73.5q0 -43 42 -72q24 -16 115 -56q81 -35 116 -78t35 -106q0 -86 -61 -145.5t-151 -59.5q-79 0 -132.5 45t-72.5 127l72 20q11 -45 27 -68q38 -54 109 -54q56 0 95 38t39 93q0 61 -55 95 q-25 16 -118 58q-72 32 -103.5 70.5t-31.5 93.5q0 74 53.5 123t133.5 49q112 0 172 -104zM396 837l-143 -117l-43 32l119 130z" />
<glyph unicode="&#x15b;" horiz-adv-x="339" d="M291 349l-59 -31q-22 41 -58 41q-20 0 -35 -13.5t-15 -32.5q0 -18 14 -30.5t53 -28.5q57 -24 79 -40q46 -34 46 -91q0 -58 -40.5 -96.5t-101.5 -38.5q-104 0 -145 106l63 26q18 -38 36 -52.5t47 -14.5t48.5 18.5t19.5 46.5q0 24 -14 38t-53 31q-72 32 -96 56t-24 65 q0 50 34.5 83t86.5 33q76 0 114 -75zM309 623l-135 -136l-44 25l105 144z" />
<glyph unicode="&#x15c;" horiz-adv-x="504" d="M436 574l-59 -38q-25 40 -50.5 56t-64.5 16q-47 0 -78.5 -29.5t-31.5 -73.5q0 -43 42 -72q24 -16 115 -56q81 -35 116 -78t35 -106q0 -86 -61 -145.5t-151 -59.5q-79 0 -132.5 45t-72.5 127l72 20q11 -45 27 -68q38 -54 109 -54q56 0 95 38t39 93q0 61 -55 95 q-25 16 -118 58q-72 32 -103.5 70.5t-31.5 93.5q0 74 53.5 123t133.5 49q112 0 172 -104zM125 762l139 119l141 -119l-53 -41l-88 76l-87 -76z" />
<glyph unicode="&#x15d;" horiz-adv-x="339" d="M291 349l-59 -31q-22 41 -58 41q-20 0 -35 -13.5t-15 -32.5q0 -18 14 -30.5t53 -28.5q57 -24 79 -40q46 -34 46 -91q0 -58 -40.5 -96.5t-101.5 -38.5q-104 0 -145 106l63 26q18 -38 36 -52.5t47 -14.5t48.5 18.5t19.5 46.5q0 24 -14 38t-53 31q-72 32 -96 56t-24 65 q0 50 34.5 83t86.5 33q76 0 114 -75zM39 526l138 130l139 -130l-52 -39l-87 83l-88 -83z" />
<glyph unicode="&#x15e;" horiz-adv-x="504" d="M436 574l-59 -38q-25 40 -50.5 56t-64.5 16q-47 0 -78.5 -29.5t-31.5 -73.5q0 -43 42 -72q24 -16 115 -56q81 -35 116 -78t35 -106q0 -86 -61 -145.5t-151 -59.5q-79 0 -132.5 45t-72.5 127l72 20q11 -45 27 -68q38 -54 109 -54q56 0 95 38t39 93q0 61 -55 95 q-25 16 -118 58q-72 32 -103.5 70.5t-31.5 93.5q0 74 53.5 123t133.5 49q112 0 172 -104zM306 -79l-110 -130l-51 26l89 136z" />
<glyph unicode="&#x15f;" horiz-adv-x="339" d="M291 349l-59 -31q-22 41 -58 41q-20 0 -35 -13.5t-15 -32.5q0 -18 14 -30.5t53 -28.5q57 -24 79 -40q46 -34 46 -91q0 -58 -40.5 -96.5t-101.5 -38.5q-104 0 -145 106l63 26q18 -38 36 -52.5t47 -14.5t48.5 18.5t19.5 46.5q0 24 -14 38t-53 31q-72 32 -96 56t-24 65 q0 50 34.5 83t86.5 33q76 0 114 -75zM218 -74l-101 -128l-49 25l84 130z" />
<glyph unicode="&#x160;" horiz-adv-x="504" d="M436 574l-59 -38q-25 40 -50.5 56t-64.5 16q-47 0 -78.5 -29.5t-31.5 -73.5q0 -43 42 -72q24 -16 115 -56q81 -35 116 -78t35 -106q0 -86 -61 -145.5t-151 -59.5q-79 0 -132.5 45t-72.5 127l72 20q11 -45 27 -68q38 -54 109 -54q56 0 95 38t39 93q0 61 -55 95 q-25 16 -118 58q-72 32 -103.5 70.5t-31.5 93.5q0 74 53.5 123t133.5 49q112 0 172 -104zM405 840l-139 -119l-141 119l53 41l88 -75l87 75z" />
<glyph unicode="&#x161;" horiz-adv-x="339" d="M291 349l-59 -31q-22 41 -58 41q-20 0 -35 -13.5t-15 -32.5q0 -18 14 -30.5t53 -28.5q57 -24 79 -40q46 -34 46 -91q0 -58 -40.5 -96.5t-101.5 -38.5q-104 0 -145 106l63 26q18 -38 36 -52.5t47 -14.5t48.5 18.5t19.5 46.5q0 24 -14 38t-53 31q-72 32 -96 56t-24 65 q0 50 34.5 83t86.5 33q76 0 114 -75zM316 617l-138 -130l-139 130l51 39l88 -82l88 82z" />
<glyph unicode="&#x162;" horiz-adv-x="411" d="M243 598v-598h-75v598h-161v69h398v-69h-162zM174 -53l76 -24l-79 -152l-51 16z" />
<glyph unicode="&#x163;" horiz-adv-x="204" d="M134 349v-349h-71v349h-43v66h43v150h71v-150h74v-66h-74zM69 -53l69 -21l-65 -154l-51 16z" />
<glyph unicode="&#x164;" horiz-adv-x="411" d="M243 598v-598h-75v598h-161v69h398v-69h-162zM346 840l-139 -119l-141 119l53 41l88 -75l87 75z" />
<glyph unicode="&#x165;" horiz-adv-x="299" d="M134 349v-349h-71v349h-43v66h43v150h71v-150h74v-66h-74zM235 684l69 -21l-65 -154l-51 16z" />
<glyph unicode="&#x166;" horiz-adv-x="425" d="M382 475v-67h-133v-408h-75v408h-133v67h133v123h-161v69h398v-69h-162v-123h133z" />
<glyph unicode="&#x167;" horiz-adv-x="220" d="M216 289v-63h-74v-226h-71v226h-43v63h43v60h-43v66h43v150h71v-150h74v-66h-74v-60h74z" />
<glyph unicode="&#x168;" horiz-adv-x="635" d="M155 667v-409q0 -90 22 -128q20 -32 59 -52t82 -20t81.5 20t58.5 52q22 38 22 128v409h75v-429q0 -102 -44 -158q-33 -43 -84.5 -67.5t-108.5 -24.5q-58 0 -110 24.5t-84 67.5q-44 56 -44 158v429h75zM213 746l-43 34q36 71 89 71q23 0 64 -21q39 -20 54 -20q26 0 46 43 l43 -33q-34 -72 -91 -72q-26 0 -65 21q-40 20 -56 20q-13 0 -20.5 -8t-20.5 -35z" />
<glyph unicode="&#x169;" horiz-adv-x="455" d="M134 415v-242q0 -52 13 -78q23 -42 81 -42q57 0 80 42q13 26 13 78v242h71v-250q0 -83 -38 -125q-46 -52 -126 -52q-81 0 -127 52q-38 42 -38 125v250h71zM128 506l-42 34q12 34 34.5 52.5t51.5 18.5q27 0 62 -21q32 -20 46 -20q26 0 47 43l42 -32q-13 -34 -36.5 -53.5 t-51.5 -19.5q-22 0 -57 21q-38 21 -54 21q-29 0 -42 -44z" />
<glyph unicode="&#x16a;" horiz-adv-x="635" d="M155 667v-409q0 -90 22 -128q20 -32 59 -52t82 -20t81.5 20t58.5 52q22 38 22 128v409h75v-429q0 -102 -44 -158q-33 -43 -84.5 -67.5t-108.5 -24.5q-58 0 -110 24.5t-84 67.5q-44 56 -44 158v429h75zM171 824h293v-62h-293v62z" />
<glyph unicode="&#x16b;" horiz-adv-x="455" d="M134 415v-242q0 -52 13 -78q23 -42 81 -42q57 0 80 42q13 26 13 78v242h71v-250q0 -83 -38 -125q-46 -52 -126 -52q-81 0 -127 52q-38 42 -38 125v250h71zM93 587h269v-60h-269v60z" />
<glyph unicode="&#x16c;" horiz-adv-x="635" d="M155 667v-409q0 -90 22 -128q20 -32 59 -52t82 -20t81.5 20t58.5 52q22 38 22 128v409h75v-429q0 -102 -44 -158q-33 -43 -84.5 -67.5t-108.5 -24.5q-58 0 -110 24.5t-84 67.5q-44 56 -44 158v429h75zM179 861h64q16 -67 74 -67q59 0 75 67h64q-8 -62 -44.5 -96 t-94.5 -34q-70 0 -110 49q-24 31 -28 81z" />
<glyph unicode="&#x16d;" horiz-adv-x="455" d="M134 415v-242q0 -52 13 -78q23 -42 81 -42q57 0 80 42q13 26 13 78v242h71v-250q0 -83 -38 -125q-46 -52 -126 -52q-81 0 -127 52q-38 42 -38 125v250h71zM97 633h62q3 -33 21 -51.5t47 -18.5q59 0 71 70h61q-7 -60 -42.5 -95t-89.5 -35q-56 0 -92.5 36t-37.5 94z" />
<glyph unicode="&#x16e;" horiz-adv-x="635" d="M155 667v-409q0 -90 22 -128q20 -32 59 -52t82 -20t81.5 20t58.5 52q22 38 22 128v409h75v-429q0 -102 -44 -158q-33 -43 -84.5 -67.5t-108.5 -24.5q-58 0 -110 24.5t-84 67.5q-44 56 -44 158v429h75zM317 896q38 0 64.5 -26t26.5 -64q0 -37 -26.5 -64t-63.5 -27 q-38 0 -64.5 27t-26.5 65q0 36 26.5 62.5t63.5 26.5zM318 847q-17 0 -29.5 -12t-12.5 -29t12 -29.5t30 -12.5q17 0 29 12.5t12 29.5t-12 29t-29 12z" />
<glyph unicode="&#x16f;" horiz-adv-x="455" d="M134 415v-242q0 -52 13 -78q23 -42 81 -42q57 0 80 42q13 26 13 78v242h71v-250q0 -83 -38 -125q-46 -52 -126 -52q-81 0 -127 52q-38 42 -38 125v250h71zM227 665q38 0 64.5 -26t26.5 -64q0 -37 -26.5 -64t-63.5 -27q-38 0 -64.5 27t-26.5 65q0 36 26.5 62.5t63.5 26.5z M228 616q-17 0 -29.5 -12t-12.5 -29t12 -29.5t30 -12.5q17 0 29 12.5t12 29.5t-12 29t-29 12z" />
<glyph unicode="&#x170;" horiz-adv-x="635" d="M155 667v-409q0 -90 22 -128q20 -32 59 -52t82 -20t81.5 20t58.5 52q22 38 22 128v409h75v-429q0 -102 -44 -158q-33 -43 -84.5 -67.5t-108.5 -24.5q-58 0 -110 24.5t-84 67.5q-44 56 -44 158v429h75zM386 846l-147 -122l-35 28l118 130zM553 846l-147 -122l-35 28 l118 130z" />
<glyph unicode="&#x171;" horiz-adv-x="455" d="M134 415v-242q0 -52 13 -78q23 -42 81 -42q57 0 80 42q13 26 13 78v242h71v-250q0 -83 -38 -125q-46 -52 -126 -52q-81 0 -127 52q-38 42 -38 125v250h71zM302 625l-133 -138l-36 23l105 146zM436 625l-133 -138l-37 23l106 146z" />
<glyph unicode="&#x172;" horiz-adv-x="635" d="M491 -105l-7 -61q-25 -16 -59 -16q-40 0 -67.5 25t-27.5 62q0 26 14 46.5t50 48.5q-38 -12 -73 -12q-60 0 -112 24.5t-85 67.5q-44 58 -44 158v429h75v-409q0 -90 22 -128q20 -32 59 -52t82 -20t81.5 20t58.5 52q22 38 22 128v409h75v-429q0 -71 -16.5 -111t-67.5 -90 q-75 -72 -75 -116q0 -19 11 -30.5t29 -11.5q26 0 55 16z" />
<glyph unicode="&#x173;" horiz-adv-x="455" d="M369 -111l-9 -55q-26 -13 -53 -13q-38 0 -63 23.5t-25 58.5q0 42 57 91q-32 -6 -53 -6q-75 0 -122 52q-38 41 -38 125v250h71v-242q0 -52 13 -78q23 -42 81 -42q57 0 80 42q13 26 13 78v242h71v-250q0 -52 -11 -80.5t-49 -70.5q-53 -60 -53 -97q0 -19 11 -30t28 -11 q24 0 51 13z" />
<glyph unicode="&#x174;" horiz-adv-x="942" d="M81 667l178 -500l209 534l197 -534l196 500h81l-279 -701l-197 533l-210 -533l-256 701h81zM331 762l139 119l141 -119l-53 -41l-88 76l-87 -76z" />
<glyph unicode="&#x175;" horiz-adv-x="668" d="M81 415l123 -281l130 313l129 -313l124 281h80l-206 -444l-128 309l-128 -309l-204 444h80zM196 526l138 130l139 -130l-52 -39l-87 83l-88 -83z" />
<glyph unicode="&#x176;" horiz-adv-x="514" d="M218 287l-218 380h86l170 -298l172 298h87l-222 -380v-287h-75v287zM117 762l139 119l141 -119l-53 -41l-88 76l-87 -76z" />
<glyph unicode="&#x177;" horiz-adv-x="449" d="M194 39l-191 376h82l147 -297l134 297h81l-307 -649h-80zM87 526l138 130l139 -130l-52 -39l-87 83l-88 -83z" />
<glyph unicode="&#x178;" horiz-adv-x="514" d="M218 287l-218 380h86l170 -298l172 298h87l-222 -380v-287h-75v287zM162 849q21 0 36 -15t15 -36t-15 -36t-36 -15t-36 15t-15 37q0 20 15 35t36 15zM352 849q21 0 36 -15t15 -36t-15 -36t-36 -15t-36 15t-15 37q0 20 15 35t36 15z" />
<glyph unicode="&#x179;" horiz-adv-x="521" d="M141 69h354v-69h-478l364 598h-317v69h440zM409 837l-143 -117l-43 32l119 130z" />
<glyph unicode="&#x17a;" horiz-adv-x="449" d="M147 66h286v-66h-430l301 349h-245v66h387zM371 623l-135 -136l-44 25l105 144z" />
<glyph unicode="&#x17b;" horiz-adv-x="521" d="M141 69h354v-69h-478l364 598h-317v69h440zM277 850q22 0 38 -15.5t16 -37.5t-15.5 -38t-37.5 -16t-38 15.5t-16 38.5q0 22 15.5 37.5t37.5 15.5z" />
<glyph unicode="&#x17c;" horiz-adv-x="449" d="M147 66h286v-66h-430l301 349h-245v66h387zM244 610q21 0 36 -15t15 -36t-15 -36t-36 -15t-36 15t-15 37q0 20 15 35t36 15z" />
<glyph unicode="&#x17d;" horiz-adv-x="521" d="M141 69h354v-69h-478l364 598h-317v69h440zM418 840l-139 -119l-141 119l53 41l88 -75l87 75z" />
<glyph unicode="&#x17e;" horiz-adv-x="449" d="M147 66h286v-66h-430l301 349h-245v66h387zM380 617l-138 -130l-139 130l51 39l88 -82l88 82z" />
<glyph unicode="&#x17f;" horiz-adv-x="241" d="M141 0h-71v349h-39v66h39v177q0 74 24 105q33 44 100 44q22 0 52 -9v-72q-26 10 -48 10q-34 0 -45.5 -19.5t-11.5 -75.5v-575z" />
<glyph unicode="&#x18f;" horiz-adv-x="794" d="M51 350h617q-10 113 -86 185.5t-184 72.5q-153 0 -238 -140l-67 29q49 86 129.5 133.5t175.5 47.5q142 0 244 -102t102 -244q0 -141 -102.5 -242.5t-244.5 -101.5t-244.5 100t-102.5 240q0 13 1 22zM664 281h-534q18 -97 93.5 -160t173.5 -63t173 62.5t94 160.5z" />
<glyph unicode="&#x192;" horiz-adv-x="553" d="M324 403h107l-10 -60h-108l-52 -288q-14 -78 -29 -114.5t-41 -59.5q-51 -45 -133 -45q-12 0 -46 3l14 67q12 -1 30 -1q64 0 95 40q22 27 37 113l52 285h-72l9 60h74l27 150q13 76 48.5 111.5t97.5 35.5q27 0 60 -11l-14 -67q-23 11 -46 11q-34 0 -49.5 -20.5t-25.5 -79.5 z" />
<glyph unicode="&#x1a0;" horiz-adv-x="778" d="M740 686l-65 -153q61 -115 61 -207q0 -137 -103.5 -237.5t-243.5 -100.5q-143 0 -245 100.5t-102 242.5q0 143 102.5 245t245.5 102q142 0 242 -100l39 129zM389 608q-112 0 -192 -80t-80 -191q0 -123 85 -203q81 -76 185 -76q114 0 194 80t80 195q0 114 -79.5 194.5 t-192.5 80.5z" />
<glyph unicode="&#x1a1;" horiz-adv-x="508" d="M426 343l30 102l69 -21l-62 -148q11 -38 11 -69q0 -92 -63.5 -155.5t-155.5 -63.5t-156 63.5t-64 154.5t63.5 154.5t155.5 63.5q108 0 172 -81zM254 359q-63 0 -104.5 -43t-41.5 -108q0 -68 40.5 -111.5t104.5 -43.5q65 0 106.5 43t41.5 110t-41.5 110t-105.5 43z" />
<glyph unicode="&#x1af;" horiz-adv-x="635" d="M155 667v-409q0 -90 22 -128q20 -32 59 -52t82 -20t81.5 20t58.5 52q22 38 22 128v409h75v-429q0 -102 -44 -158q-33 -43 -84.5 -67.5t-108.5 -24.5q-58 0 -110 24.5t-84 67.5q-44 56 -44 158v429h75zM648 707l76 -24l-78 -152l-51 16z" />
<glyph unicode="&#x1b0;" horiz-adv-x="457" d="M135 415v-242q0 -52 13 -78q23 -42 81 -42q57 0 80 42q13 26 13 78v242h71v-250q0 -83 -38 -125q-46 -52 -126 -52q-81 0 -127 52q-38 42 -38 125v250h71zM466 442l69 -21l-65 -153l-51 15z" />
<glyph unicode="&#x1cd;" horiz-adv-x="607" d="M446 189h-285l-80 -189h-81l307 699l300 -699h-82zM417 258l-111 267l-114 -267h225zM448 840l-139 -119l-141 119l53 41l88 -75l87 75z" />
<glyph unicode="&#x1ce;" d="M379 415h71v-415h-71v58q-58 -70 -143 -70q-87 0 -143.5 62.5t-56.5 158.5q0 94 56 155t142 61t145 -69v59zM246 360q-58 0 -97.5 -43t-39.5 -107q0 -68 38.5 -112.5t97.5 -44.5q61 0 100 43.5t39 111.5q0 67 -38.5 109.5t-99.5 42.5zM398 617l-138 -130l-139 130l51 39 l88 -82l88 82z" />
<glyph unicode="&#x1cf;" horiz-adv-x="235" d="M155 667v-667h-75v667h75zM257 840l-139 -119l-141 119l53 41l88 -75l87 75z" />
<glyph unicode="&#x1d0;" horiz-adv-x="200" d="M135 415v-415h-71v415h71zM238 617l-138 -130l-139 130l51 39l88 -82l88 82z" />
<glyph unicode="&#x1d2;" horiz-adv-x="508" d="M255 424q92 0 155.5 -63t63.5 -155t-63.5 -155t-157.5 -63q-92 0 -155 64t-63 158q0 88 64.5 151t155.5 63zM254 359q-63 0 -104.5 -43t-41.5 -108q0 -68 40.5 -111.5t104.5 -43.5q65 0 106.5 43t41.5 110t-41.5 110t-105.5 43zM393 617l-138 -130l-139 130l51 39l88 -82 l88 82z" />
<glyph unicode="&#x1d3;" horiz-adv-x="635" d="M155 667v-409q0 -90 22 -128q20 -32 59 -52t82 -20t81.5 20t58.5 52q22 38 22 128v409h75v-429q0 -102 -44 -158q-33 -43 -84.5 -67.5t-108.5 -24.5q-58 0 -110 24.5t-84 67.5q-44 56 -44 158v429h75zM458 840l-139 -119l-141 119l53 41l88 -75l87 75z" />
<glyph unicode="&#x1d4;" horiz-adv-x="457" d="M135 415v-242q0 -52 13 -78q23 -42 81 -42q57 0 80 42q13 26 13 78v242h71v-250q0 -83 -38 -125q-46 -52 -126 -52q-81 0 -127 52q-38 42 -38 125v250h71zM367 617l-138 -130l-139 130l51 39l88 -82l88 82z" />
<glyph unicode="&#x1dd;" horiz-adv-x="500" d="M38 219h347q-1 49 -19 80q-18 32 -50 50.5t-69 18.5q-81 0 -129 -80l-68 15q28 58 79 90t117 32q94 0 154.5 -60.5t60.5 -154.5q0 -96 -60.5 -158.5t-152.5 -62.5q-94 0 -151.5 63.5t-58.5 166.5zM382 168h-267q11 -56 47 -89t86 -33q52 0 89.5 34t44.5 88z" />
<glyph unicode="&#x1e6;" horiz-adv-x="742" d="M422 335h278v-17q0 -106 -35 -169q-40 -73 -116.5 -117t-164.5 -44q-140 0 -241 101.5t-101 242.5q0 143 102 244.5t246 101.5q116 0 204 -68q35 -25 77 -77l-55 -50q-50 65 -103.5 95t-121.5 30q-114 0 -194 -81t-80 -196q0 -111 79.5 -192t188.5 -81q62 0 119.5 31.5 t88.5 82.5q23 36 27 94h-198v69zM534 840l-139 -119l-141 119l53 41l88 -75l87 75z" />
<glyph unicode="&#x1e7;" d="M450 415v-406q0 -62 -8.5 -97.5t-31.5 -65.5q-58 -77 -166 -77q-89 0 -143.5 51.5t-57.5 138.5h70q4 -44 20 -70q16 -25 46.5 -40t66.5 -15q71 0 106 51q27 37 27 112v60q-62 -68 -146 -68q-85 0 -141.5 62t-56.5 155q0 95 57 157t144 62t143 -69v59h71zM244 361 q-59 0 -97.5 -43.5t-38.5 -110.5q0 -68 38 -111t97 -43q61 0 100 43t39 110q0 78 -45 119q-41 36 -93 36zM398 617l-138 -130l-139 130l51 39l88 -82l88 82z" />
<glyph unicode="&#x1f4;" horiz-adv-x="742" d="M422 335h278v-17q0 -106 -35 -169q-40 -73 -116.5 -117t-164.5 -44q-140 0 -241 101.5t-101 242.5q0 143 102 244.5t246 101.5q116 0 204 -68q35 -25 77 -77l-55 -50q-50 65 -103.5 95t-121.5 30q-114 0 -194 -81t-80 -196q0 -111 79.5 -192t188.5 -81q62 0 119.5 31.5 t88.5 82.5q23 36 27 94h-198v69zM522 837l-143 -117l-43 32l119 130z" />
<glyph unicode="&#x1f5;" horiz-adv-x="514" d="M450 415v-406q0 -62 -8.5 -97.5t-31.5 -65.5q-58 -77 -166 -77q-89 0 -143.5 51.5t-57.5 138.5h70q4 -44 20 -70q16 -25 46.5 -40t66.5 -15q71 0 106 51q27 37 27 112v60q-62 -68 -146 -68q-85 0 -141.5 62t-56.5 155q0 95 57 157t144 62t143 -69v59h71zM244 361 q-59 0 -97.5 -43.5t-38.5 -110.5q0 -68 38 -111t97 -43q61 0 100 43t39 110q0 78 -45 119q-41 36 -93 36zM332 623l-135 -136l-44 25l105 144z" />
<glyph unicode="&#x1fa;" horiz-adv-x="607" d="M446 189h-285l-80 -189h-81l307 699l300 -699h-82zM417 258l-111 267l-114 -267h225zM306 896q38 0 64.5 -26t26.5 -64q0 -37 -26.5 -64t-63.5 -27q-38 0 -64.5 27t-26.5 65q0 36 26.5 62.5t63.5 26.5zM307 847q-17 0 -29.5 -12t-12.5 -29t12 -29.5t30 -12.5 q17 0 29 12.5t12 29.5t-12 29t-29 12zM350 976l-143 -117l-43 32l119 130z" />
<glyph unicode="&#x1fb;" d="M379 415h71v-415h-71v58q-58 -70 -143 -70q-87 0 -143.5 62.5t-56.5 158.5q0 94 56 155t142 61t145 -69v59zM246 360q-58 0 -97.5 -43t-39.5 -107q0 -68 38.5 -112.5t97.5 -44.5q61 0 100 43.5t39 111.5q0 67 -38.5 109.5t-99.5 42.5zM259 665q38 0 64.5 -26.5 t26.5 -63.5t-27 -64t-64 -27q-38 0 -64.5 27t-26.5 65q0 36 27 62.5t64 26.5zM259 616q-17 0 -29.5 -12t-12.5 -29t12.5 -29.5t29.5 -12.5t29.5 12.5t12.5 29.5t-12.5 29t-29.5 12zM320 780l-135 -136l-44 25l105 144z" />
<glyph unicode="&#x1fc;" horiz-adv-x="872" d="M445 187h-284l-79 -187h-82l297 667h293l29 -69h-269l83 -200h263l30 -69h-263l108 -260h271l30 -69h-349zM416 256l-111 263l-112 -263h223zM529 837l-143 -117l-43 32l119 130z" />
<glyph unicode="&#x1fd;" horiz-adv-x="758" d="M724 193h-325q5 -63 41 -101.5t91 -38.5q41 0 71 20.5t57 66.5l60 -35q-37 -61 -81.5 -89t-106.5 -28q-107 0 -162 83q-26 -44 -63 -63.5t-93 -19.5q-80 0 -129 37t-49 97q0 63 53 105q43 34 118 34q38 0 63 -7.5t57 -28.5q-1 70 -29.5 103t-88.5 33q-50 0 -128 -25v66 q82 23 133 23q54 0 94.5 -22t58.5 -62q23 39 66 61.5t94 22.5q59 0 106 -29t70 -80q23 -49 22 -123zM405 254h243q-9 50 -41.5 78.5t-79.5 28.5q-98 0 -122 -107zM214 196q-48 0 -78.5 -20t-30.5 -51q0 -32 29 -52t77 -20q49 0 80 21t31 53q0 30 -30.5 49.5t-77.5 19.5z M485 623l-135 -136l-44 25l105 144z" />
<glyph unicode="&#x1fe;" horiz-adv-x="781" d="M42 37l78 77q-42 58 -59.5 107.5t-17.5 110.5q0 142 102.5 244t245.5 102q101 0 189 -57q4 -2 7 -4.5t9.5 -7t12.5 -8.5l77 77l43 -44l-75 -76q46 -61 64.5 -111t18.5 -114q0 -142 -102 -243.5t-245 -101.5q-63 0 -113 18t-113 64l-77 -77zM173 166l383 385 q-73 57 -166 57q-113 0 -192.5 -80.5t-79.5 -195.5q0 -47 12 -83.5t43 -82.5zM602 507l-385 -384q32 -29 79.5 -47t95.5 -18q111 0 190.5 80.5t79.5 193.5q0 92 -60 175zM510 837l-143 -117l-43 32l119 130z" />
<glyph unicode="&#x1ff;" horiz-adv-x="509" d="M20 15l59 59q-44 59 -44 134q0 90 64 153t156 63q74 0 132 -44l59 60l40 -40l-59 -59q20 -20 33.5 -58t13.5 -78q0 -91 -63.5 -154t-154.5 -63q-71 0 -136 45l-60 -59zM130 123l207 210q-33 26 -83 26q-64 0 -105 -43.5t-41 -111.5q0 -47 22 -81zM377 294l-209 -214 q33 -27 86 -27q64 0 105.5 43.5t41.5 109.5q0 51 -24 88zM372 623l-135 -136l-44 25l105 144z" />
<glyph unicode="&#x218;" horiz-adv-x="504" d="M436 574l-59 -38q-25 40 -50.5 56t-64.5 16q-47 0 -78.5 -29.5t-31.5 -73.5q0 -43 42 -72q24 -16 115 -56q81 -35 116 -78t35 -106q0 -86 -61 -145.5t-151 -59.5q-79 0 -132.5 45t-72.5 127l72 20q11 -45 27 -68q38 -54 109 -54q56 0 95 38t39 93q0 61 -55 95 q-25 16 -118 58q-72 32 -103.5 70.5t-31.5 93.5q0 74 53.5 123t133.5 49q112 0 172 -104zM223 -53l76 -24l-79 -152l-51 16z" />
<glyph unicode="&#x219;" horiz-adv-x="339" d="M291 349l-59 -31q-22 41 -58 41q-20 0 -35 -13.5t-15 -32.5q0 -18 14 -30.5t53 -28.5q57 -24 79 -40q46 -34 46 -91q0 -58 -40.5 -96.5t-101.5 -38.5q-104 0 -145 106l63 26q18 -38 36 -52.5t47 -14.5t48.5 18.5t19.5 46.5q0 24 -14 38t-53 31q-72 32 -96 56t-24 65 q0 50 34.5 83t86.5 33q76 0 114 -75zM143 -53l69 -21l-65 -154l-51 16z" />
<glyph unicode="&#x21a;" horiz-adv-x="411" d="M243 598v-598h-75v598h-161v69h398v-69h-162zM174 -53l76 -24l-79 -152l-51 16z" />
<glyph unicode="&#x21b;" horiz-adv-x="204" d="M134 349v-349h-71v349h-43v66h43v150h71v-150h74v-66h-74zM69 -53l69 -21l-65 -154l-51 16z" />
<glyph unicode="&#x226;" horiz-adv-x="607" d="M446 189h-285l-80 -189h-81l307 699l300 -699h-82zM417 258l-111 267l-114 -267h225zM306 850q22 0 38 -15.5t16 -37.5t-15.5 -38t-37.5 -16q-23 0 -38.5 15.5t-15.5 38.5q0 22 15.5 37.5t37.5 15.5z" />
<glyph unicode="&#x227;" d="M379 415h71v-415h-71v58q-58 -70 -143 -70q-87 0 -143.5 62.5t-56.5 158.5q0 94 56 155t142 61t145 -69v59zM246 360q-58 0 -97.5 -43t-39.5 -107q0 -68 38.5 -112.5t97.5 -44.5q61 0 100 43.5t39 111.5q0 67 -38.5 109.5t-99.5 42.5zM259 610q21 0 36 -15t15 -36 t-15 -36t-36 -15t-36 15t-15 37q0 20 15 35t36 15z" />
<glyph unicode="&#x259;" horiz-adv-x="500" d="M38 219h347q-1 49 -19 80q-18 32 -50 50.5t-69 18.5q-81 0 -129 -80l-68 15q28 58 79 90t117 32q94 0 154.5 -60.5t60.5 -154.5q0 -96 -60.5 -158.5t-152.5 -62.5q-94 0 -151.5 63.5t-58.5 166.5zM382 168h-267q11 -56 47 -89t86 -33q52 0 89.5 34t44.5 88z" />
<glyph unicode="&#x2bb;" horiz-adv-x="476" d="M249 489l-69 21l65 153l51 -16z" />
<glyph unicode="&#x2bc;" horiz-adv-x="262" d="M140 700l65 -24l-100 -225l-48 19z" />
<glyph unicode="&#x2c6;" horiz-adv-x="476" d="M100 526l138 130l139 -130l-52 -39l-87 83l-88 -83z" />
<glyph unicode="&#x2c7;" horiz-adv-x="476" d="M377 617l-138 -130l-139 130l51 39l88 -82l88 82z" />
<glyph unicode="&#x2c9;" horiz-adv-x="476" d="M104 587h269v-60h-269v60z" />
<glyph unicode="&#x2d8;" horiz-adv-x="476" d="M107 633h62q3 -33 21 -51.5t47 -18.5q59 0 71 70h61q-7 -60 -42.5 -95t-89.5 -35q-56 0 -92.5 36t-37.5 94z" />
<glyph unicode="&#x2d9;" horiz-adv-x="476" d="M238 610q21 0 36 -15t15 -36t-15 -36t-36 -15t-36 15t-15 37q0 20 15 35t36 15z" />
<glyph unicode="&#x2da;" horiz-adv-x="476" d="M237 665q38 0 64.5 -26t26.5 -64q0 -37 -26.5 -64t-63.5 -27q-38 0 -64.5 27t-26.5 65q0 36 26.5 62.5t63.5 26.5zM238 616q-17 0 -29.5 -12t-12.5 -29t12 -29.5t30 -12.5q17 0 29 12.5t12 29.5t-12 29t-29 12z" />
<glyph unicode="&#x2db;" horiz-adv-x="476" d="M371 0h56q-72 -49 -72 -87q0 -15 11.5 -26t27.5 -11q24 0 51 13l-9 -55q-26 -13 -53 -13q-37 0 -62 22.5t-25 55.5q0 53 75 101z" />
<glyph unicode="&#x2dc;" horiz-adv-x="476" d="M139 506l-42 34q12 34 34.5 52.5t51.5 18.5q27 0 62 -21q32 -20 46 -20q15 0 25 9.5t22 33.5l42 -32q-13 -34 -36.5 -53.5t-51.5 -19.5q-22 0 -57 21q-38 21 -54 21q-29 0 -42 -44z" />
<glyph unicode="&#x2dd;" horiz-adv-x="476" d="M302 625l-133 -138l-36 23l105 146zM436 625l-133 -138l-37 23l106 146z" />
<glyph unicode="&#x37e;" horiz-adv-x="227" d="M107 98l65 -24l-100 -226l-48 19zM130 424q20 0 34.5 -14.5t14.5 -34.5t-14.5 -34.5t-34.5 -14.5q-21 0 -35.5 14.5t-14.5 35.5q0 19 15 33.5t35 14.5z" />
<glyph unicode="&#x384;" horiz-adv-x="500" d="M224 501l-11 206h74l-10 -206h-53z" />
<glyph unicode="&#x385;" horiz-adv-x="500" d="M138 627q20 0 34 -14.5t14 -35.5t-14 -35.5t-34 -14.5q-21 0 -35 14.5t-14 36.5q0 20 14.5 34.5t34.5 14.5zM362 627q20 0 34 -14.5t14 -35.5t-14 -35.5t-34 -14.5q-21 0 -35 14.5t-14 36.5q0 20 14.5 34.5t34.5 14.5zM223 501l-10 206h74l-11 -206h-53z" />
<glyph unicode="&#x386;" horiz-adv-x="607" d="M446 189h-285l-80 -189h-81l307 699l300 -699h-82zM417 258l-111 267l-114 -267h225zM75 496l-11 211h75l-11 -211h-53z" />
<glyph unicode="&#x388;" horiz-adv-x="577" d="M28 496l-11 211h74l-10 -211h-53zM534 598h-270v-199h263v-69h-263v-261h270v-69h-345v667h345v-69z" />
<glyph unicode="&#x389;" horiz-adv-x="759" d="M28 496l-11 211h74l-10 -211h-53zM264 395h340v272h75v-667h-75v326h-340v-326h-75v667h75v-272z" />
<glyph unicode="&#x38a;" horiz-adv-x="343" d="M28 496l-11 211h74l-10 -211h-53zM263 667v-667h-75v667h75z" />
<glyph unicode="&#x38c;" horiz-adv-x="887" d="M28 496l-11 211h74l-10 -211h-53zM498 678q143 0 245 -101.5t102 -243.5q0 -143 -102.5 -244t-247.5 -101q-71 0 -140.5 31t-118.5 86q-86 97 -86 232q0 138 103.5 239.5t244.5 101.5zM498 608q-112 0 -192.5 -80t-80.5 -191q0 -123 85 -203q81 -76 185 -76q115 0 195 80 t80 195q0 114 -79.5 194.5t-192.5 80.5z" />
<glyph unicode="&#x38e;" horiz-adv-x="645" d="M28 496l-11 211h74l-10 -211h-53zM349 287l-218 380h86l170 -298l172 298h87l-222 -380v-287h-75v287z" />
<glyph unicode="&#x38f;" horiz-adv-x="898" d="M28 496l-11 211h74l-10 -211h-53zM157 0v69h193v27q-194 69 -194 268q0 140 95.5 227t249.5 87t249.5 -87t95.5 -227q0 -199 -194 -268v-27h193v-69h-267v136q69 16 122 62q71 61 71 158q0 111 -72 181q-71 71 -198 71q-124 0 -197 -68.5t-73 -184.5q0 -102 81 -166 q51 -39 112 -53v-136h-267z" />
<glyph unicode="&#x390;" horiz-adv-x="202" d="M65 0v415h72v-415h-72zM-11 627q20 0 34 -14.5t14 -35.5t-14 -35.5t-34 -14.5q-21 0 -35 14.5t-14 36.5q0 20 14.5 34.5t34.5 14.5zM213 627q20 0 34 -14.5t14 -35.5t-14 -35.5t-34 -14.5q-21 0 -35 14.5t-14 36.5q0 20 14.5 34.5t34.5 14.5zM74 501l-10 206h74l-11 -206 h-53z" />
<glyph unicode="&#x391;" horiz-adv-x="607" d="M446 189h-285l-80 -189h-81l307 699l300 -699h-82zM417 258l-111 267l-114 -267h225z" />
<glyph unicode="&#x392;" horiz-adv-x="516" d="M80 0v667h121q100 0 151 -41q62 -52 62 -139q0 -43 -15 -72t-51 -58q44 -14 69 -36q26 -23 41.5 -59.5t15.5 -74.5q0 -87 -68 -141q-55 -46 -159 -46h-167zM155 373h56q65 0 95 26q35 32 35 86q0 56 -35 88q-29 25 -93 25h-58v-225zM155 69h85q79 0 116 30q43 34 43 90 q0 31 -15 58.5t-40 41.5q-35 21 -114 21h-75v-241z" />
<glyph unicode="&#x393;" horiz-adv-x="467" d="M87 0v667h357v-69h-282v-598h-75z" />
<glyph unicode="&#x394;" horiz-adv-x="583" d="M0 0l295 698l288 -698h-583zM111 69h361l-178 454z" />
<glyph unicode="&#x395;" horiz-adv-x="469" d="M425 598h-270v-199h263v-69h-263v-261h270v-69h-345v667h345v-69z" />
<glyph unicode="&#x396;" horiz-adv-x="521" d="M141 69h354v-69h-478l364 598h-317v69h440z" />
<glyph unicode="&#x397;" horiz-adv-x="650" d="M155 395h340v272h75v-667h-75v326h-340v-326h-75v667h75v-272z" />
<glyph unicode="&#x398;" horiz-adv-x="787" d="M229 304v72h328v-72h-328zM394 679q149 0 250 -100t101 -247t-101 -247t-250 -100q-151 0 -251.5 100t-100.5 251q0 68 29 136t78 113q100 94 245 94zM393 603q-114 0 -193.5 -78t-79.5 -190q0 -117 78.5 -195.5t195.5 -78.5q116 0 194.5 78t78.5 193t-79 193t-195 78z " />
<glyph unicode="&#x399;" horiz-adv-x="235" d="M155 667v-667h-75v667h75z" />
<glyph unicode="&#x39a;" horiz-adv-x="572" d="M87 0v667h75v-317l288 317h93l-302 -325l322 -342h-99l-302 328v-328h-75z" />
<glyph unicode="&#x39b;" horiz-adv-x="543" d="M271 699l272 -699h-84l-188 522l-188 -522h-83z" />
<glyph unicode="&#x39c;" horiz-adv-x="849" d="M57 0l110 704l256 -563l262 564l103 -705h-76l-62 464l-227 -492l-224 492l-66 -464h-76z" />
<glyph unicode="&#x39d;" horiz-adv-x="754" d="M80 0v695l519 -545v517h75v-697l-519 544v-514h-75z" />
<glyph unicode="&#x39e;" horiz-adv-x="553" d="M51 598v69h451v-69h-451zM60 326v69h433v-69h-433zM51 0v69h451v-69h-451z" />
<glyph unicode="&#x39f;" horiz-adv-x="778" d="M390 678q142 0 244 -101.5t102 -243.5q0 -143 -102.5 -244t-247.5 -101q-71 0 -139.5 31t-118.5 86q-86 97 -86 232q0 138 103.5 239.5t244.5 101.5zM389 608q-112 0 -192 -80t-80 -191q0 -123 85 -203q81 -76 185 -76q114 0 194 80t80 195q0 114 -79.5 194.5 t-192.5 80.5z" />
<glyph unicode="&#x3a0;" horiz-adv-x="677" d="M87 0v667h504v-667h-75v598h-354v-598h-75z" />
<glyph unicode="&#x3a1;" horiz-adv-x="444" d="M155 292v-292h-75v667h121q114 0 168 -47q62 -52 62 -140t-56.5 -138t-154.5 -50h-65zM155 360h60q68 0 105.5 31.5t37.5 88.5t-37 88q-36 30 -111 30h-55v-238z" />
<glyph unicode="&#x3a3;" horiz-adv-x="523" d="M43 0l208 368l-193 299h407v-69h-281l152 -228l-173 -301h313v-69h-433z" />
<glyph unicode="&#x3a4;" horiz-adv-x="411" d="M243 598v-598h-75v598h-161v69h398v-69h-162z" />
<glyph unicode="&#x3a5;" horiz-adv-x="514" d="M218 287l-218 380h86l170 -298l172 298h87l-222 -380v-287h-75v287z" />
<glyph unicode="&#x3a6;" horiz-adv-x="879" d="M403 -54v98q-121 6 -197 44q-74 38 -114.5 101.5t-40.5 142.5q0 85 47 152t131 102q71 30 174 34v100h70v-100q124 -6 199 -44q74 -38 114.5 -101.5t40.5 -142.5q0 -85 -47 -152t-131 -102q-69 -28 -176 -34v-98h-70zM473 547v-430q100 6 154 32q125 59 125 183 q0 64 -37.5 115t-105.5 77q-49 19 -136 23zM403 118v429q-97 -6 -152 -31q-60 -29 -92.5 -76.5t-32.5 -107.5q0 -64 37.5 -114.5t105.5 -76.5q49 -19 134 -23z" />
<glyph unicode="&#x3a7;" horiz-adv-x="489" d="M204 345l-180 322h85l138 -251l141 251h85l-184 -322l193 -345h-83l-153 274l-155 -274h-84z" />
<glyph unicode="&#x3a8;" horiz-adv-x="771" d="M348 0v166q-81 5 -125.5 17t-80.5 37q-82 59 -82 193v254h75v-239q0 -67 13.5 -102t46.5 -55q52 -32 153 -35v431h75v-431q101 3 153 35q33 20 46.5 55.5t13.5 101.5v239h75v-254q0 -134 -82 -193q-36 -25 -80.5 -37t-125.5 -17v-166h-75z" />
<glyph unicode="&#x3a9;" horiz-adv-x="789" d="M48 0v69h193v27q-194 69 -194 268q0 140 95.5 227t249.5 87t249.5 -87t95.5 -227q0 -199 -194 -268v-27h193v-69h-267v136q69 16 122 62q71 61 71 158q0 111 -72 181q-71 71 -198 71q-124 0 -197 -68.5t-73 -184.5q0 -102 81 -166q51 -39 112 -53v-136h-267z" />
<glyph unicode="&#x3aa;" horiz-adv-x="235" d="M155 667v-667h-75v667h75zM22 849q21 0 36 -15t15 -36t-15 -36t-36 -15t-36 15t-15 37q0 20 15 35t36 15zM212 849q21 0 36 -15t15 -36t-15 -36t-36 -15t-36 15t-15 37q0 20 15 35t36 15z" />
<glyph unicode="&#x3ab;" horiz-adv-x="514" d="M218 287l-218 380h86l170 -298l172 298h87l-222 -380v-287h-75v287zM162 849q21 0 36 -15t15 -36t-15 -36t-36 -15t-36 15t-15 37q0 20 15 35t36 15zM352 849q21 0 36 -15t15 -36t-15 -36t-36 -15t-36 15t-15 37q0 20 15 35t36 15z" />
<glyph unicode="&#x3ac;" d="M379 415h71v-415h-71v58q-58 -70 -143 -70q-87 0 -143.5 62.5t-56.5 158.5q0 94 56 155t142 61t145 -69v59zM246 360q-58 0 -97.5 -43t-39.5 -107q0 -68 38.5 -112.5t97.5 -44.5q61 0 100 43.5t39 111.5q0 67 -38.5 109.5t-99.5 42.5zM231 501l-11 206h74l-10 -206h-53z " />
<glyph unicode="&#x3ad;" horiz-adv-x="424" d="M400 79v-70q-75 -22 -157 -22q-199 0 -199 128q0 76 70 101q-59 27 -59 88q0 119 185 119q80 0 150 -21v-68q-65 25 -135 25q-125 0 -125 -63q0 -31 34 -46q20 -10 72 -10h97v-55h-97q-117 0 -117 -65q0 -32 33 -50t93 -18q69 0 155 27zM214 501l-11 206h74l-10 -206h-53 z" />
<glyph unicode="&#x3ae;" horiz-adv-x="466" d="M64 0v415h71v-53q26 34 54 47.5t69 13.5q77 0 115 -47q29 -36 29 -120v-490h-71v473q0 61 -15 86q-22 33 -75 33q-55 0 -80.5 -36t-25.5 -114v-208h-71zM213 501l-11 206h74l-10 -206h-53z" />
<glyph unicode="&#x3af;" horiz-adv-x="202" d="M65 0v415h72v-415h-72zM75 501l-11 206h74l-10 -206h-53z" />
<glyph unicode="&#x3b0;" horiz-adv-x="460" d="M63 415h71v-239q0 -69 19 -93q23 -30 76 -30q58 0 81 36q15 23 15 87v239h71v-250q0 -90 -38 -132q-41 -46 -129 -46q-92 0 -134 53q-32 41 -32 125v250zM118 627q20 0 34 -14.5t14 -35.5t-14 -35.5t-34 -14.5q-21 0 -35 14.5t-14 36.5q0 20 14.5 34.5t34.5 14.5z M342 627q20 0 34 -14.5t14 -35.5t-14 -35.5t-34 -14.5q-21 0 -35 14.5t-14 36.5q0 20 14.5 34.5t34.5 14.5zM203 501l-10 206h74l-11 -206h-53z" />
<glyph unicode="&#x3b1;" d="M379 415h71v-415h-71v58q-58 -70 -143 -70q-87 0 -143.5 62.5t-56.5 158.5q0 94 56 155t142 61t145 -69v59zM246 360q-58 0 -97.5 -43t-39.5 -107q0 -68 38.5 -112.5t97.5 -44.5q61 0 100 43.5t39 111.5q0 67 -38.5 109.5t-99.5 42.5z" />
<glyph unicode="&#x3b2;" horiz-adv-x="521" d="M65 -234v702q0 137 31 188q47 84 165 84q83 0 132.5 -50t49.5 -134q0 -109 -93 -161q50 -17 78 -45q55 -58 55 -149q0 -95 -58.5 -154.5t-152.5 -59.5q-79 0 -136 47v-268h-71zM136 483v-382q50 -47 117 -47q71 0 113.5 41.5t42.5 109.5q0 47 -22 84t-62 54 q-30 13 -74 13h-13v67q50 3 79 21q55 38 55 108q0 53 -32 87t-83 34q-35 0 -63.5 -17.5t-41.5 -48.5q-16 -36 -16 -124z" />
<glyph unicode="&#x3b3;" horiz-adv-x="407" d="M171 -234v150q0 68 -8.5 117.5t-32.5 118.5q-40 118 -120 263h84q91 -183 113 -308q11 58 40 136l66 172h81l-90 -212q-38 -91 -50 -146.5t-12 -140.5v-150h-71z" />
<glyph unicode="&#x3b4;" horiz-adv-x="515" d="M257 416l-70 63q-60 54 -60 124q0 74 58 107q37 19 124 19h73v-67h-80q-53 0 -77 -15t-24 -49q0 -39 48 -82l130 -113q52 -46 75 -92t23 -104q0 -99 -60 -159.5t-158 -60.5q-99 0 -159 60t-60 160q0 59 23.5 106t65.5 72q44 27 128 31zM340 335l-18 16q-33 6 -59 6 q-69 0 -109.5 -41t-40.5 -110q0 -68 39.5 -109t106.5 -41q66 0 105.5 41.5t39.5 109.5q0 73 -64 128z" />
<glyph unicode="&#x3b5;" horiz-adv-x="424" d="M400 79v-70q-75 -22 -157 -22q-199 0 -199 128q0 76 70 101q-59 27 -59 88q0 119 185 119q80 0 150 -21v-68q-65 25 -135 25q-125 0 -125 -63q0 -31 34 -46q20 -10 72 -10h97v-55h-97q-117 0 -117 -65q0 -32 33 -50t93 -18q69 0 155 27z" />
<glyph unicode="&#x3b6;" horiz-adv-x="352" d="M45 662v67h319q-158 -294 -204 -396t-46 -161q0 -52 27 -77t90 -33q61 -8 83 -24q40 -27 40 -84q0 -43 -22.5 -74.5t-85.5 -75.5l-38 48q46 31 61 49.5t15 44.5q0 30 -24 43q-16 9 -62 13q-82 7 -120.5 46t-38.5 113q0 73 47.5 181t172.5 320h-214z" />
<glyph unicode="&#x3b7;" horiz-adv-x="466" d="M64 0v415h71v-53q26 34 54 47.5t69 13.5q77 0 115 -47q29 -36 29 -120v-490h-71v473q0 61 -15 86q-22 33 -75 33q-55 0 -80.5 -36t-25.5 -114v-208h-71z" />
<glyph unicode="&#x3b8;" horiz-adv-x="495" d="M101 398h292q-4 124 -45 201t-101 77q-35 0 -65 -29t-50 -81q-23 -58 -31 -168zM393 329h-291q8 -128 46.5 -202t97.5 -74q61 0 102 76.5t45 199.5zM249 740q91 0 154.5 -109t63.5 -267t-63.5 -267t-156.5 -109q-91 0 -155 108.5t-64 261.5q0 163 63.5 272.5t157.5 109.5 z" />
<glyph unicode="&#x3b9;" horiz-adv-x="202" d="M65 0v415h72v-415h-72z" />
<glyph unicode="&#x3ba;" horiz-adv-x="422" d="M64 0v415h71v-196l178 196h81l-186 -200l206 -215h-86l-193 201v-201h-71z" />
<glyph unicode="&#x3bb;" horiz-adv-x="393" d="M2 0l156 426l-111 303h77l269 -729h-78l-119 332l-113 -332h-81z" />
<glyph unicode="&#x3bc;" horiz-adv-x="463" d="M64 -234v649h71v-207q0 -80 22.5 -115t74.5 -35t74.5 35t22.5 116v206h71v-415h-64l-2 52q-16 -33 -38 -46t-65 -13q-68 0 -96 47v-274h-71z" />
<glyph unicode="&#x3bd;" horiz-adv-x="409" d="M81 415l124 -279l123 279h80l-203 -443l-204 443h80z" />
<glyph unicode="&#x3be;" horiz-adv-x="387" d="M46 661v68h328q-122 -75 -145 -92q-83 -61 -83 -127q0 -34 23 -59t64 -36q35 -8 107 -9l-32 -64q-36 5 -55 5q-60 0 -99 -42.5t-39 -107.5q0 -70 43 -102q24 -18 85 -26q64 -9 89 -25q42 -27 42 -89q0 -44 -22.5 -76t-85.5 -76l-39 49q47 31 62 49.5t15 44.5q0 32 -26 47 q-13 7 -66 13q-91 11 -129 51q-43 48 -43 134q0 138 126 194q-53 23 -72.5 48t-19.5 68q0 52 26.5 89t87.5 71h-142z" />
<glyph unicode="&#x3bf;" horiz-adv-x="508" d="M255 424q92 0 155.5 -63t63.5 -155t-63.5 -155t-157.5 -63q-92 0 -155 64t-63 158q0 88 64.5 151t155.5 63zM254 359q-63 0 -104.5 -43t-41.5 -108q0 -68 40.5 -111.5t104.5 -43.5q65 0 106.5 43t41.5 110t-41.5 110t-105.5 43z" />
<glyph unicode="&#x3c0;" horiz-adv-x="514" d="M102 0v348h-76v67h462v-67h-76v-348h-72v348h-166v-348h-72z" />
<glyph unicode="&#x3c1;" horiz-adv-x="524" d="M139 -234h-71v403q0 88 21 144q21 51 71 81.5t114 30.5q92 0 150 -61t58 -159q0 -94 -56 -155.5t-142 -61.5t-145 70v-292zM270 360q-60 0 -98 -42t-38 -109q0 -70 38 -113t100 -43q61 0 99 42.5t38 111.5q0 68 -38.5 110.5t-100.5 42.5z" />
<glyph unicode="&#x3c2;" horiz-adv-x="396" d="M368 386v-83q-60 50 -122 50q-61 0 -96 -41t-35 -111q0 -75 43 -106q24 -18 84 -26q65 -9 89 -25q43 -29 43 -89q0 -44 -22.5 -76t-85.5 -76l-39 49q47 31 62 49.5t15 44.5q0 32 -26 47q-14 7 -66 13q-91 11 -129 52q-43 46 -43 137q0 107 52.5 167.5t144.5 60.5 q68 0 131 -37z" />
<glyph unicode="&#x3c3;" horiz-adv-x="517" d="M527 415v-67h-98q46 -66 46 -144q0 -97 -60 -157t-158 -60q-95 0 -156 61t-61 156q0 98 60 159.5t156 61.5q37 0 92 -5q70 -5 97 -5h82zM343 351q-59 5 -81 5q-66 0 -106.5 -42t-40.5 -111q0 -66 39.5 -106.5t103.5 -40.5q67 0 105.5 41t38.5 112q0 77 -59 142z" />
<glyph unicode="&#x3c4;" horiz-adv-x="322" d="M125 0v348h-120v67h312v-67h-120v-348h-72z" />
<glyph unicode="&#x3c5;" horiz-adv-x="460" d="M63 415h71v-239q0 -69 19 -93q23 -30 76 -30q58 0 81 36q15 23 15 87v239h71v-250q0 -90 -38 -132q-41 -46 -129 -46q-92 0 -134 53q-32 41 -32 125v250z" />
<glyph unicode="&#x3c6;" horiz-adv-x="625" d="M276 -234v223q-111 10 -173.5 67t-62.5 148q0 131 131 189l29 -50q-35 -23 -46 -33q-42 -37 -42 -102t43.5 -105.5t120.5 -47.5v366q26 3 42 3q123 0 195.5 -59t72.5 -159q0 -94 -64 -152t-176 -65v-223h-70zM346 358v-303q80 5 124 45t44 107q0 66 -44.5 106.5 t-123.5 44.5z" />
<glyph unicode="&#x3c7;" horiz-adv-x="413" d="M165 116l-147 299h79l116 -234l103 234h77l-146 -305l168 -344h-79l-134 277l-123 -277h-80z" />
<glyph unicode="&#x3c8;" horiz-adv-x="651" d="M290 -234v231h-20q-110 0 -160 46q-26 24 -36.5 61t-10.5 101v210h72v-206q0 -85 25 -114q30 -31 105 -31h25v351h70v-351h25q75 0 105 31q25 29 25 114v206h72v-210q0 -64 -10.5 -101t-36.5 -61q-50 -46 -160 -46h-20v-231h-70z" />
<glyph unicode="&#x3c9;" horiz-adv-x="650" d="M292 273h66v-82q0 -132 79 -132q45 0 72.5 40t27.5 105q0 82 -39 149q-12 21 -47 62h72q87 -91 87 -214q0 -96 -45.5 -154t-121.5 -58q-82 0 -118 70q-36 -70 -118 -70q-76 0 -121.5 58t-45.5 154q0 123 87 214h72q-38 -45 -52 -69q-34 -66 -34 -143q0 -64 27.5 -104 t71.5 -40q41 0 60.5 32t19.5 100v82z" />
<glyph unicode="&#x3ca;" horiz-adv-x="202" d="M65 0v415h72v-415h-72zM15 610q21 0 35.5 -14.5t14.5 -35.5q0 -20 -15 -35t-35 -15q-21 0 -35.5 14.5t-14.5 36.5q0 20 15 34.5t35 14.5zM188 610q21 0 35.5 -14.5t14.5 -35.5t-14.5 -35.5t-35.5 -14.5t-35.5 15t-14.5 36q0 20 15 34.5t35 14.5z" />
<glyph unicode="&#x3cb;" horiz-adv-x="460" d="M63 415h71v-239q0 -69 19 -93q23 -30 76 -30q58 0 81 36q15 23 15 87v239h71v-250q0 -90 -38 -132q-41 -46 -129 -46q-92 0 -134 53q-32 41 -32 125v250zM143 610q21 0 35.5 -14.5t14.5 -35.5q0 -20 -15 -35t-35 -15q-21 0 -35.5 14.5t-14.5 36.5q0 20 15 34.5t35 14.5z M316 610q21 0 35.5 -14.5t14.5 -35.5t-14.5 -35.5t-35.5 -14.5t-35.5 15t-14.5 36q0 20 15 34.5t35 14.5z" />
<glyph unicode="&#x3cc;" horiz-adv-x="508" d="M255 424q92 0 155.5 -63t63.5 -155t-63.5 -155t-157.5 -63q-92 0 -155 64t-63 158q0 88 64.5 151t155.5 63zM254 359q-63 0 -104.5 -43t-41.5 -108q0 -68 40.5 -111.5t104.5 -43.5q65 0 106.5 43t41.5 110t-41.5 110t-105.5 43zM228 501l-11 206h74l-10 -206h-53z" />
<glyph unicode="&#x3cd;" horiz-adv-x="460" d="M63 415h71v-239q0 -69 19 -93q23 -30 76 -30q58 0 81 36q15 23 15 87v239h71v-250q0 -90 -38 -132q-41 -46 -129 -46q-92 0 -134 53q-32 41 -32 125v250zM203 501l-11 206h74l-10 -206h-53z" />
<glyph unicode="&#x3ce;" horiz-adv-x="650" d="M292 273h66v-82q0 -132 79 -132q45 0 72.5 40t27.5 105q0 82 -39 149q-12 21 -47 62h72q87 -91 87 -214q0 -96 -45.5 -154t-121.5 -58q-82 0 -118 70q-36 -70 -118 -70q-76 0 -121.5 58t-45.5 154q0 123 87 214h72q-38 -45 -52 -69q-34 -66 -34 -143q0 -64 27.5 -104 t71.5 -40q41 0 60.5 32t19.5 100v82zM299 501l-11 206h74l-10 -206h-53z" />
<glyph unicode="&#x3d1;" horiz-adv-x="453" d="M332 378h-73q-120 0 -164 32q-56 39 -56 128t48 145.5t123 56.5q163 0 192 -296h69v-66h-66q1 -13 1 -30q0 -107 -26 -198q-46 -160 -159 -160q-86 0 -134.5 90t-48.5 250v39h71v-38q0 -133 28.5 -203.5t82.5 -70.5q53 0 83 76t30 208q0 22 -1 37zM254 444h76 q-12 118 -41.5 173.5t-80.5 55.5q-44 0 -71 -36t-27 -94q0 -60 40 -83q27 -16 104 -16z" />
<glyph unicode="&#x3d5;" horiz-adv-x="625" d="M280 -10h-4h-3q-106 6 -169.5 65.5t-63.5 151.5q0 94 64.5 152t175.5 65v150h66v-150q115 -10 177.5 -66.5t62.5 -150.5t-64 -152.5t-172 -64.5h-4v-157h-66v157zM346 358v-303q80 5 124 45t44 107t-44.5 107t-123.5 44zM280 55v303q-79 -4 -123.5 -44t-44.5 -107 t44 -107t124 -45z" />
<glyph unicode="&#x400;" horiz-adv-x="469" d="M425 598h-270v-199h263v-69h-263v-261h270v-69h-345v667h345v-69zM123 837l67 45l119 -130l-43 -32z" />
<glyph unicode="&#x401;" horiz-adv-x="469" d="M425 598h-270v-199h263v-69h-263v-261h270v-69h-345v667h345v-69zM157 849q21 0 36 -15t15 -36t-15 -36t-36 -15t-36 15t-15 37q0 20 15 35t36 15zM347 849q21 0 36 -15t15 -36t-15 -36t-36 -15t-36 15t-15 37q0 20 15 35t36 15z" />
<glyph unicode="&#x402;" horiz-adv-x="615" d="M130 0v598h-117v69h358v-69h-166v-257q77 74 170 74q100 0 143 -68q24 -41 24 -120v-228q0 -50 -16.5 -88.5t-62.5 -94.5h-70q43 64 59.5 104t16.5 79v216q0 68 -23 95q-29 35 -91 35q-89 0 -150 -86v-259h-75z" />
<glyph unicode="&#x403;" horiz-adv-x="467" d="M87 0v667h357v-69h-282v-598h-75zM393 837l-143 -117l-43 32l119 130z" />
<glyph unicode="&#x404;" horiz-adv-x="666" d="M485 308h-355q8 -56 16 -82.5t27 -52.5q80 -112 223 -112q134 0 228 95v-92q-97 -76 -234 -76q-149 0 -244 96.5t-95 247.5q0 152 95.5 249t246.5 97q114 0 210 -62v-90q-92 78 -208 78q-75 0 -136 -33.5t-97 -94.5q-18 -29 -31 -101h354v-67z" />
<glyph unicode="&#x405;" horiz-adv-x="517" d="M443 574l-59 -38q-25 40 -50.5 56t-64.5 16q-47 0 -78.5 -29.5t-31.5 -73.5q0 -43 42 -72q24 -16 115 -56q81 -35 116 -78t35 -106q0 -86 -61 -145.5t-151 -59.5q-79 0 -132.5 45t-72.5 127l72 20q11 -45 27 -68q38 -54 109 -54q56 0 95 38t39 93q0 61 -55 95 q-25 16 -118 58q-72 32 -103.5 70.5t-31.5 93.5q0 74 53.5 123t133.5 49q112 0 172 -104z" />
<glyph unicode="&#x406;" horiz-adv-x="248" d="M87 0v667h75v-667h-75z" />
<glyph unicode="&#x407;" horiz-adv-x="235" d="M155 667v-667h-75v667h75zM22 849q21 0 36 -15t15 -36t-15 -36t-36 -15t-36 15t-15 37q0 20 15 35t36 15zM212 849q21 0 36 -15t15 -36t-15 -36t-36 -15t-36 15t-15 37q0 20 15 35t36 15z" />
<glyph unicode="&#x408;" horiz-adv-x="307" d="M220 667v-539q0 -62 -10.5 -97t-36.5 -60q-42 -40 -100 -40q-61 0 -120 49l41 58q42 -37 77 -37q39 0 56.5 30.5t17.5 96.5v539h75z" />
<glyph unicode="&#x409;" horiz-adv-x="891" d="M444 0v598h-212q-13 -263 -30 -374q-19 -119 -60.5 -172.5t-115.5 -53.5q-17 0 -31 2v71q19 -3 25 -3q67 0 94 98q35 130 45 501h358v-269h114q109 0 160 -44q61 -53 61 -153q0 -113 -75 -166q-51 -35 -152 -35h-181zM517 66h93q100 0 135 36q33 38 33 97q0 69 -41 105 q-32 29 -127 29h-93v-267z" />
<glyph unicode="&#x40a;" horiz-adv-x="971" d="M87 0v667h75v-269h362v269h73v-269h114q109 0 160 -44q61 -53 61 -153q0 -114 -75 -166q-51 -35 -152 -35h-181v332h-362v-332h-75zM597 66h93q101 0 135 37q33 36 33 97q0 68 -41 104q-33 29 -127 29h-93v-267z" />
<glyph unicode="&#x40b;" horiz-adv-x="674" d="M149 0v598h-136v69h401v-69h-190v-257q87 74 190 74q110 0 159 -68q27 -38 27 -120v-227h-73v215q0 68 -26 95q-32 35 -105 35q-102 0 -172 -86v-259h-75z" />
<glyph unicode="&#x40c;" horiz-adv-x="572" d="M87 0v667h75v-317l288 317h93l-302 -325l322 -342h-99l-302 328v-328h-75zM439 837l-143 -117l-43 32l119 130z" />
<glyph unicode="&#x40d;" horiz-adv-x="684" d="M87 -39v706h73v-506l437 538v-699h-73v498zM249 837l67 45l119 -130l-43 -32z" />
<glyph unicode="&#x40e;" horiz-adv-x="531" d="M69 0l161 272l-219 395h87l172 -317l175 317h88l-385 -667h-79zM131 861h64q16 -67 74 -67q59 0 75 67h64q-8 -62 -44.5 -96t-94.5 -34q-70 0 -110 49q-24 31 -28 81z" />
<glyph unicode="&#x40f;" horiz-adv-x="673" d="M87 0v667h75v-598h344v598h75v-667h-212v-128h-70v128h-212z" />
<glyph unicode="&#x410;" horiz-adv-x="607" d="M446 189h-285l-80 -189h-81l307 699l300 -699h-82zM417 258l-111 267l-114 -267h225z" />
<glyph unicode="&#x411;" horiz-adv-x="537" d="M87 0v667h359v-69h-284v-204h112q111 0 160 -43q62 -53 62 -152q0 -113 -76 -164q-50 -35 -152 -35h-181zM162 66h92q56 0 86 8t48 28q34 36 34 95q0 67 -41 103q-33 29 -127 29h-92v-263z" />
<glyph unicode="&#x412;" horiz-adv-x="516" d="M80 0v667h121q100 0 151 -41q62 -52 62 -139q0 -43 -15 -72t-51 -58q44 -14 69 -36q26 -23 41.5 -59.5t15.5 -74.5q0 -87 -68 -141q-55 -46 -159 -46h-167zM155 373h56q65 0 95 26q35 32 35 86q0 56 -35 88q-29 25 -93 25h-58v-225zM155 69h85q79 0 116 30q43 34 43 90 q0 31 -15 58.5t-40 41.5q-35 21 -114 21h-75v-241z" />
<glyph unicode="&#x413;" horiz-adv-x="467" d="M87 0v667h357v-69h-282v-598h-75z" />
<glyph unicode="&#x414;" horiz-adv-x="626" d="M-20 -128v197h29q34 0 63 24.5t43 65.5q16 48 30 190.5t19 317.5h367v-598h57v-197h-70v128h-468v-128h-70zM125 69h331v529h-219q-7 -187 -26 -343q-11 -81 -28 -117.5t-58 -68.5z" />
<glyph unicode="&#x415;" horiz-adv-x="469" d="M425 598h-270v-199h263v-69h-263v-261h270v-69h-345v667h345v-69z" />
<glyph unicode="&#x416;" horiz-adv-x="870" d="M398 0v311h-32l-258 -311h-99l289 341l-268 326h92l235 -290h41v290h75v-290h41l235 290h92l-268 -326l289 -341h-99l-258 311h-32v-311h-75z" />
<glyph unicode="&#x417;" horiz-adv-x="551" d="M159 318v65h55q93 0 135 18q66 28 66 94q0 52 -48.5 81.5t-134.5 29.5t-172 -38v81q82 30 180 30q116 0 184 -47t68 -127q0 -68 -51 -114q-27 -24 -79 -39q141 -44 141 -169q0 -92 -67 -143q-66 -51 -195 -51q-111 0 -197 33v86q88 -46 193 -46q188 0 188 125 q0 131 -212 131h-54z" />
<glyph unicode="&#x418;" horiz-adv-x="684" d="M87 -39v706h73v-506l437 538v-699h-73v498z" />
<glyph unicode="&#x419;" horiz-adv-x="684" d="M87 -39v706h73v-506l437 538v-699h-73v498zM204 861h64q16 -67 74 -67q59 0 75 67h64q-8 -62 -44.5 -96t-94.5 -34q-70 0 -110 49q-24 31 -28 81z" />
<glyph unicode="&#x41a;" horiz-adv-x="572" d="M87 0v667h75v-317l288 317h93l-302 -325l322 -342h-99l-302 328v-328h-75z" />
<glyph unicode="&#x41b;" horiz-adv-x="605" d="M159 667h359v-667h-75v598h-211q-13 -263 -30 -374q-19 -119 -60.5 -172.5t-116.5 -53.5q-16 0 -30 2v71q19 -3 25 -3q68 0 93 99q36 127 46 500z" />
<glyph unicode="&#x41c;" horiz-adv-x="849" d="M57 0l110 704l256 -563l262 564l103 -705h-76l-62 464l-227 -492l-224 492l-66 -464h-76z" />
<glyph unicode="&#x41d;" horiz-adv-x="650" d="M155 395h340v272h75v-667h-75v326h-340v-326h-75v667h75v-272z" />
<glyph unicode="&#x41e;" horiz-adv-x="778" d="M390 678q142 0 244 -101.5t102 -243.5q0 -143 -102.5 -244t-247.5 -101q-71 0 -139.5 31t-118.5 86q-86 97 -86 232q0 138 103.5 239.5t244.5 101.5zM389 608q-112 0 -192 -80t-80 -191q0 -123 85 -203q81 -76 185 -76q114 0 194 80t80 195q0 114 -79.5 194.5 t-192.5 80.5z" />
<glyph unicode="&#x41f;" horiz-adv-x="677" d="M87 0v667h504v-667h-75v598h-354v-598h-75z" />
<glyph unicode="&#x420;" horiz-adv-x="444" d="M155 292v-292h-75v667h121q114 0 168 -47q62 -52 62 -140t-56.5 -138t-154.5 -50h-65zM155 360h60q68 0 105.5 31.5t37.5 88.5t-37 88q-36 30 -111 30h-55v-238z" />
<glyph unicode="&#x421;" horiz-adv-x="646" d="M596 612v-92q-94 88 -202 88q-110 0 -189.5 -81.5t-79.5 -196.5q0 -112 79.5 -192t190.5 -80q108 0 201 87v-92q-94 -65 -201 -65q-142 0 -243.5 101t-101.5 242q0 143 102.5 245t246.5 102q102 0 197 -66z" />
<glyph unicode="&#x422;" horiz-adv-x="411" d="M243 598v-598h-75v598h-161v69h398v-69h-162z" />
<glyph unicode="&#x423;" horiz-adv-x="531" d="M69 0l161 272l-219 395h87l172 -317l175 317h88l-385 -667h-79z" />
<glyph unicode="&#x424;" horiz-adv-x="879" d="M403 -54v98q-121 6 -197 44q-74 38 -114.5 101.5t-40.5 142.5q0 85 47 152t131 102q71 30 174 34v100h70v-100q124 -6 199 -44q74 -38 114.5 -101.5t40.5 -142.5q0 -85 -47 -152t-131 -102q-69 -28 -176 -34v-98h-70zM473 547v-430q100 6 154 32q125 59 125 183 q0 64 -37.5 115t-105.5 77q-49 19 -136 23zM403 118v429q-97 -6 -152 -31q-60 -29 -92.5 -76.5t-32.5 -107.5q0 -64 37.5 -114.5t105.5 -76.5q49 -19 134 -23z" />
<glyph unicode="&#x425;" horiz-adv-x="489" d="M204 345l-180 322h85l138 -251l141 251h85l-184 -322l193 -345h-83l-153 274l-155 -274h-84z" />
<glyph unicode="&#x426;" horiz-adv-x="675" d="M87 0v667h75v-598h344v598h75v-598h57v-197h-70v128h-481z" />
<glyph unicode="&#x427;" horiz-adv-x="601" d="M439 0v239q-100 -17 -149 -17q-143 0 -204 73q-42 52 -42 167v205h75v-188q0 -61 8 -93t28 -52q40 -42 145 -42q62 0 139 21v354h75v-667h-75z" />
<glyph unicode="&#x428;" horiz-adv-x="919" d="M87 0v667h75v-598h260v598h75v-598h260v598h75v-667h-745z" />
<glyph unicode="&#x429;" horiz-adv-x="926" d="M87 0v667h75v-598h260v598h75v-598h260v598h75v-598h57v-197h-70v128h-732z" />
<glyph unicode="&#x42a;" horiz-adv-x="649" d="M201 0v598h-198v69h271v-269h114q109 0 160 -44q61 -53 61 -153q0 -114 -75 -166q-51 -35 -152 -35h-181zM274 66h93q100 0 135 36q33 38 33 97q0 69 -41 105q-32 29 -127 29h-93v-267z" />
<glyph unicode="&#x42b;" horiz-adv-x="750" d="M87 0v667h73v-269h114q109 0 160 -44q61 -53 61 -153q0 -114 -75 -166q-51 -35 -152 -35h-181zM160 66h93q100 0 135 36q33 38 33 97q0 69 -41 105q-32 29 -127 29h-93v-267zM587 0v667h76v-667h-76z" />
<glyph unicode="&#x42c;" horiz-adv-x="535" d="M87 0v667h73v-269h114q109 0 160 -44q61 -53 61 -153q0 -114 -75 -166q-51 -35 -152 -35h-181zM160 66h93q100 0 135 36q33 38 33 97q0 69 -41 105q-32 29 -127 29h-93v-267z" />
<glyph unicode="&#x42d;" horiz-adv-x="666" d="M181 308v67h354q-10 51 -17.5 72t-24.5 45q-78 112 -222 112q-116 0 -207 -78v90q94 62 209 62q151 0 246.5 -97t95.5 -250q0 -150 -95.5 -246.5t-243.5 -96.5q-132 0 -234 76v92q96 -95 228 -95q74 0 135.5 33.5t97.5 94.5q23 38 33 119h-355z" />
<glyph unicode="&#x42e;" horiz-adv-x="1038" d="M87 0v667h75v-297h150q10 82 48 145q45 75 123 119t166 44q141 0 240 -101t99 -244t-99.5 -244t-240.5 -101q-88 0 -166.5 44.5t-123.5 120.5q-37 62 -47 146h-149v-299h-75zM649 608q-108 0 -186.5 -80.5t-78.5 -190.5q0 -116 77 -197.5t186 -81.5q110 0 188 80t78 194 t-77.5 195t-186.5 81z" />
<glyph unicode="&#x42f;" horiz-adv-x="540" d="M378 295h-22l-229 -295h-85l237 300q-96 1 -140 32q-69 48 -69 147q0 105 73 155q50 33 144 33h166v-667h-75v295zM378 358v242h-87q-59 0 -93 -19q-53 -29 -53 -103q0 -58 36 -89t103 -31h94z" />
<glyph unicode="&#x430;" d="M379 415h71v-415h-71v58q-58 -70 -143 -70q-87 0 -143.5 62.5t-56.5 158.5q0 94 56 155t142 61t145 -69v59zM246 360q-58 0 -97.5 -43t-39.5 -107q0 -68 38.5 -112.5t97.5 -44.5q61 0 100 43.5t39 111.5q0 67 -38.5 109.5t-99.5 42.5z" />
<glyph unicode="&#x431;" horiz-adv-x="535" d="M428 736l5 -71q-19 -15 -118 -27q-43 -4 -70 -9.5t-49 -19t-33.5 -32t-19 -53t-10 -75.5t-2.5 -106q31 45 65.5 63.5t88.5 18.5q93 0 152 -61t59 -157q0 -97 -61 -158t-158 -61q-61 0 -109 25.5t-73 71.5q-37 71 -37 259q0 234 69 302q24 23 57 33.5t121 23.5 q95 14 123 33zM277 357q-64 0 -103.5 -41t-39.5 -107q0 -68 40 -110.5t105 -42.5q61 0 102 43t41 108t-41 107.5t-104 42.5z" />
<glyph unicode="&#x432;" horiz-adv-x="449" d="M64 0v415h176q81 0 114 -27q34 -28 34 -80q0 -58 -55 -86q78 -28 78 -105q0 -117 -152 -117h-195zM135 237h94q87 0 87 66q0 59 -77 59h-104v-125zM135 53h111q50 0 72 15.5t22 49.5q0 70 -100 70h-105v-135z" />
<glyph unicode="&#x433;" horiz-adv-x="333" d="M64 0v415h258v-66h-187v-349h-71z" />
<glyph unicode="&#x434;" horiz-adv-x="477" d="M385 0h-326v-110h-69v176h18q27 0 49 22t34 62q19 63 26 265h291v-349h46v-176h-69v110zM335 66v283h-152q-1 -14 -1 -28l-5 -73q-5 -74 -19 -115.5t-43 -66.5h220z" />
<glyph unicode="&#x435;" horiz-adv-x="468" d="M434 193h-324q3 -64 39.5 -102t92.5 -38q41 0 69.5 19.5t58.5 67.5l60 -34q-67 -118 -191 -118q-90 0 -147 60.5t-57 156.5q0 97 56 158t145 61q90 0 144 -60t54 -159v-12zM115 253h244q-10 49 -43 78t-79 29q-45 0 -80 -30.5t-42 -76.5z" />
<glyph unicode="&#x436;" horiz-adv-x="584" d="M257 0v183h-24l-162 -183h-85l190 214l-169 201h80l146 -177h24v177h70v-177h24l146 177h80l-169 -201l190 -214h-85l-162 183h-24v-183h-70z" />
<glyph unicode="&#x437;" horiz-adv-x="409" d="M92 185v55h82q54 0 77 12q30 16 30 45q0 62 -119 62q-65 0 -127 -25v68q68 21 144 21q86 0 131.5 -30.5t45.5 -88.5q0 -61 -59 -88q69 -25 69 -102q0 -62 -49 -95q-48 -32 -142 -32q-76 0 -150 22v70q83 -27 147 -27q56 0 87.5 18t31.5 50q0 65 -117 65h-82z" />
<glyph unicode="&#x438;" horiz-adv-x="456" d="M64 -38v453h70v-273l258 305v-447h-70v267z" />
<glyph unicode="&#x439;" horiz-adv-x="456" d="M64 -38v453h70v-273l258 305v-447h-70v267zM97 633h62q3 -33 21 -51.5t47 -18.5q59 0 71 70h61q-7 -60 -42.5 -95t-89.5 -35q-56 0 -92.5 36t-37.5 94z" />
<glyph unicode="&#x43a;" horiz-adv-x="422" d="M64 0v415h71v-196l178 196h81l-186 -200l206 -215h-86l-193 201v-201h-71z" />
<glyph unicode="&#x43b;" horiz-adv-x="444" d="M309 0v349h-151q-7 -148 -15 -204q-21 -147 -127 -147q-15 0 -29 2v72q17 -4 24 -4q29 0 45 31.5t23 101.5q7 73 10 214h291v-415h-71z" />
<glyph unicode="&#x43c;" horiz-adv-x="601" d="M39 0l96 447l165 -338l165 338l96 -447h-71l-48 255l-145 -284l-138 284l-49 -255h-71z" />
<glyph unicode="&#x43d;" horiz-adv-x="463" d="M64 0v415h71v-161h193v161h71v-415h-71v189h-193v-189h-71z" />
<glyph unicode="&#x43e;" horiz-adv-x="508" d="M255 424q92 0 155.5 -63t63.5 -155t-63.5 -155t-157.5 -63q-92 0 -155 64t-63 158q0 88 64.5 151t155.5 63zM254 359q-63 0 -104.5 -43t-41.5 -108q0 -68 40.5 -111.5t104.5 -43.5q65 0 106.5 43t41.5 110t-41.5 110t-105.5 43z" />
<glyph unicode="&#x43f;" horiz-adv-x="456" d="M64 0v415h328v-415h-71v349h-186v-349h-71z" />
<glyph unicode="&#x440;" d="M135 -234h-71v649h71l-1 -59q60 69 144 69q87 0 143.5 -62.5t56.5 -157.5q0 -94 -56 -155.5t-142 -61.5t-145 70v-292zM269 360q-61 0 -100 -43.5t-39 -111.5q0 -67 39 -109.5t100 -42.5q58 0 97 43t39 107q0 68 -38.5 112.5t-97.5 44.5z" />
<glyph unicode="&#x441;" horiz-adv-x="423" d="M385 385v-94q-35 38 -64 53t-66 15q-63 0 -105 -44t-42 -109t41.5 -109t103.5 -44q39 0 69.5 16t65.5 56v-94q-69 -43 -133 -43q-93 0 -156.5 62.5t-63.5 154.5q0 93 63.5 156t157.5 63q69 0 129 -39z" />
<glyph unicode="&#x442;" horiz-adv-x="322" d="M125 0v348h-120v67h312v-67h-120v-348h-72z" />
<glyph unicode="&#x443;" horiz-adv-x="445" d="M192 39l-191 376h82l147 -297l134 297h81l-307 -649h-80z" />
<glyph unicode="&#x444;" horiz-adv-x="722" d="M327 -234v265q-48 -44 -113 -44q-78 0 -126 60.5t-48 158.5t48 159t126 61q64 0 113 -43v196h70v-196q50 43 113 43q78 0 126 -61t48 -159t-48 -158.5t-126 -60.5q-63 0 -113 44v-265h-70zM327 111v191q-45 56 -101 56q-52 0 -83 -41.5t-31 -110.5q0 -68 31 -109.5 t83 -41.5q55 0 101 56zM397 302v-191q46 -56 101 -56q52 0 83 41.5t31 109.5q0 69 -31 110.5t-83 41.5q-56 0 -101 -56z" />
<glyph unicode="&#x445;" horiz-adv-x="445" d="M179 221l-151 194h87l108 -141l109 141h88l-152 -194l172 -221h-86l-131 169l-132 -169h-89z" />
<glyph unicode="&#x446;" horiz-adv-x="463" d="M64 0v415h71v-349h186v349h71v-349h46v-176h-69v110h-305z" />
<glyph unicode="&#x447;" horiz-adv-x="423" d="M288 0v126q-48 -13 -90 -13q-82 0 -120 43t-38 137v122h71v-120q0 -66 23 -90q23 -25 73 -25q41 0 81 16v219h71v-415h-71z" />
<glyph unicode="&#x448;" horiz-adv-x="658" d="M64 0v415h72v-349h157v349h71v-349h157v349h72v-415h-529z" />
<glyph unicode="&#x449;" horiz-adv-x="664" d="M64 0v415h72v-349h157v349h71v-349h157v349h72v-349h45v-176h-69v110h-505z" />
<glyph unicode="&#x44a;" horiz-adv-x="461" d="M106 0v349h-109v66h180v-149h94q77 0 115 -24q51 -33 51 -108q0 -134 -161 -134h-170zM177 57h87q57 0 81 17.5t24 58.5t-24 58.5t-81 17.5h-87v-152z" />
<glyph unicode="&#x44b;" horiz-adv-x="597" d="M64 0v415h71v-149h94q77 0 115 -24q51 -33 51 -108q0 -134 -161 -134h-170zM135 57h87q57 0 81 17.5t24 58.5t-24 58.5t-81 17.5h-87v-152zM460 0v415h73v-415h-73z" />
<glyph unicode="&#x44c;" horiz-adv-x="420" d="M64 0v415h71v-149h94q77 0 115 -24q51 -33 51 -108q0 -134 -161 -134h-170zM135 57h87q57 0 81 17.5t24 58.5t-24 58.5t-81 17.5h-87v-152z" />
<glyph unicode="&#x44d;" horiz-adv-x="445" d="M116 182v56h214q-10 42 -25 64q-43 60 -131 60q-42 0 -70 -10t-73 -41v77q81 38 153 38q98 0 159.5 -61t61.5 -159q0 -100 -62 -159.5t-165 -59.5q-78 0 -150 38v76q43 -30 72 -40t71 -10q98 0 139 69q14 22 21 62h-215z" />
<glyph unicode="&#x44e;" horiz-adv-x="706" d="M79 0v415h71v-175h91q12 67 42 105q62 80 169 80q94 0 154 -61.5t60 -156.5t-60 -156.5t-154 -61.5q-86 0 -142.5 50t-68.5 137h-91v-176h-71zM452 357q-64 0 -103.5 -41t-39.5 -107q0 -69 39 -110.5t104 -41.5q64 0 103.5 41.5t39.5 108.5t-39.5 108.5t-103.5 41.5z" />
<glyph unicode="&#x44f;" horiz-adv-x="420" d="M283 0v155l-6 1l-154 -156h-91l169 164q-75 1 -109 21q-56 33 -56 101q0 74 54 107q35 22 112 22h153v-415h-72zM283 210v149h-73q-55 0 -78.5 -16.5t-23.5 -54.5q0 -44 30 -63q22 -15 71 -15h74z" />
<glyph unicode="&#x450;" horiz-adv-x="469" d="M434 193h-324q3 -64 39.5 -102t92.5 -38q41 0 69.5 19.5t58.5 67.5l60 -34q-67 -118 -191 -118q-90 0 -147 60.5t-57 156.5q0 97 56 158t145 61q90 0 144 -60t54 -159v-12zM115 253h244q-10 49 -43 78t-79 29q-45 0 -80 -30.5t-42 -76.5zM118 623l74 33l105 -144l-44 -25 z" />
<glyph unicode="&#x451;" horiz-adv-x="468" d="M434 193h-324q3 -64 39.5 -102t92.5 -38q41 0 69.5 19.5t58.5 67.5l60 -34q-67 -118 -191 -118q-90 0 -147 60.5t-57 156.5q0 97 56 158t145 61q90 0 144 -60t54 -159v-12zM115 253h244q-10 49 -43 78t-79 29q-45 0 -80 -30.5t-42 -76.5zM152 610q21 0 35.5 -14.5 t14.5 -35.5q0 -20 -15 -35t-35 -15q-21 0 -35.5 14.5t-14.5 36.5q0 20 15 34.5t35 14.5zM325 610q21 0 35.5 -14.5t14.5 -35.5t-14.5 -35.5t-35.5 -14.5t-35.5 15t-14.5 36q0 20 15 34.5t35 14.5z" />
<glyph unicode="&#x452;" horiz-adv-x="459" d="M56 0v530h-53v52h53v137h73v-137h139v-52h-139v-175q28 38 58 54t73 16q71 0 110 -52q25 -37 25 -111v-265q0 -54 -8.5 -98t-34.5 -122h-67q37 140 37 222v253q0 56 -19.5 80t-66.5 24q-58 0 -87 -44q-20 -32 -20 -96v-216h-73z" />
<glyph unicode="&#x453;" horiz-adv-x="333" d="M64 0v415h258v-66h-187v-349h-71zM315 623l-135 -136l-44 25l105 144z" />
<glyph unicode="&#x454;" horiz-adv-x="445" d="M329 182h-215q10 -48 26 -70q45 -61 133 -61q42 0 71.5 10.5t72.5 39.5v-76q-72 -38 -150 -38q-103 0 -165 59.5t-62 159.5q0 98 61.5 159t159.5 61q74 0 153 -38v-77q-44 31 -72.5 41t-70.5 10q-92 0 -135 -67q-12 -19 -21 -57h214v-56z" />
<glyph unicode="&#x455;" horiz-adv-x="350" d="M297 349l-59 -31q-22 41 -58 41q-20 0 -35 -13.5t-15 -32.5q0 -18 14 -30.5t53 -28.5q57 -24 79 -40q46 -34 46 -91q0 -58 -40.5 -96.5t-101.5 -38.5q-104 0 -145 106l63 26q18 -38 36 -52.5t47 -14.5t48.5 18.5t19.5 46.5q0 24 -14 38t-53 31q-72 32 -96 56t-24 65 q0 50 34.5 83t86.5 33q76 0 114 -75z" />
<glyph unicode="&#x456;" horiz-adv-x="208" d="M139 415v-415h-71v415h71zM104 623q21 0 36 -15t15 -36t-15 -36t-36 -15t-36 15t-15 37q0 20 15 35t36 15z" />
<glyph unicode="&#x457;" horiz-adv-x="200" d="M135 415v-415h-71v415h71zM13 610q21 0 35.5 -14.5t14.5 -35.5q0 -20 -15 -35t-35 -15q-21 0 -35.5 14.5t-14.5 36.5q0 20 15 34.5t35 14.5zM186 610q21 0 35.5 -14.5t14.5 -35.5t-14.5 -35.5t-35.5 -14.5t-35.5 15t-14.5 36q0 20 15 34.5t35 14.5z" />
<glyph unicode="&#x458;" horiz-adv-x="208" d="M139 415v-649h-71v649h71zM104 623q21 0 36 -15t15 -36t-15 -36t-36 -15t-36 15t-15 37q0 20 15 35t36 15z" />
<glyph unicode="&#x459;" horiz-adv-x="643" d="M288 0v349h-131q-6 -147 -14 -204q-21 -147 -127 -147q-15 0 -29 2v72q17 -4 24 -4q29 0 45 31.5t23 101.5q7 74 10 214h271v-149h94q77 0 115 -24q51 -35 51 -108q0 -134 -161 -134h-171zM360 57h87q57 0 81 17.5t24 58.5t-24 58.5t-81 17.5h-87v-152z" />
<glyph unicode="&#x45a;" horiz-adv-x="683" d="M64 0v415h71v-148h193v148h71v-148h94q77 0 115 -25q51 -33 51 -107q0 -135 -161 -135h-170v202h-193v-202h-71zM399 57h87q56 0 80.5 17.5t24.5 58.5t-24 58.5t-81 17.5h-87v-152z" />
<glyph unicode="&#x45b;" horiz-adv-x="459" d="M56 0v530h-53v52h53v137h73v-137h151v-52h-151v-175q28 38 58 54t73 16q71 0 110 -52q25 -37 25 -111v-262h-73v252q0 56 -19.5 80t-66.5 24q-59 0 -86 -44q-21 -32 -21 -96v-216h-73z" />
<glyph unicode="&#x45c;" horiz-adv-x="422" d="M64 0v415h71v-196l178 196h81l-186 -200l206 -215h-86l-193 201v-201h-71zM358 623l-135 -136l-44 25l105 144z" />
<glyph unicode="&#x45d;" horiz-adv-x="456" d="M64 -38v453h70v-273l258 305v-447h-70v267zM139 623l74 33l105 -144l-44 -25z" />
<glyph unicode="&#x45e;" horiz-adv-x="445" d="M192 39l-191 376h82l147 -297l134 297h81l-307 -649h-80zM98 633h62q3 -33 21 -51.5t47 -18.5q59 0 71 70h61q-7 -60 -42.5 -95t-89.5 -35q-56 0 -92.5 36t-37.5 94z" />
<glyph unicode="&#x45f;" horiz-adv-x="457" d="M64 0v415h71v-349h187v349h71v-415h-130v-110h-69v110h-130z" />
<glyph unicode="&#x490;" horiz-adv-x="467" d="M87 0v667h287v65h70v-134h-282v-598h-75z" />
<glyph unicode="&#x491;" horiz-adv-x="333" d="M64 0v415h190v65h68v-131h-187v-349h-71z" />
<glyph unicode="&#x492;" horiz-adv-x="468" d="M86 0v319h-61v67h61v281h359v-69h-283v-212h169v-67h-169v-319h-76z" />
<glyph unicode="&#x493;" horiz-adv-x="315" d="M64 0v173h-47v62h47v180h241v-66h-170v-114h118v-62h-118v-173h-71z" />
<glyph unicode="&#x496;" horiz-adv-x="870" d="M803 69h59v-197h-70v128h-29l-258 311h-32v-311h-75v311h-32l-258 -311h-99l289 341l-268 326h92l235 -290h41v290h75v-290h41l235 290h92l-268 -326z" />
<glyph unicode="&#x497;" horiz-adv-x="584" d="M538 66h62v-176h-69v110h-19l-161 183h-24v-183h-70v183h-24l-162 -183h-85l190 214l-169 201h80l146 -177h24v177h70v-177h24l145 177h80l-168 -201z" />
<glyph unicode="&#x49a;" horiz-adv-x="572" d="M498 69h62v-197h-70v128h-26l-302 327v-327h-75v667h75v-317l287 317h94l-303 -325z" />
<glyph unicode="&#x49b;" horiz-adv-x="422" d="M351 66h63v-176h-69v110h-17l-193 201v-201h-71v415h71v-196l178 196h81l-186 -201z" />
<glyph unicode="&#x49c;" horiz-adv-x="583" d="M87 0v667h75v-295h58v170h47v-168l216 293h93l-244 -325l265 -342h-100l-230 305v-180h-47v181h-58v-306h-75z" />
<glyph unicode="&#x49d;" horiz-adv-x="454" d="M64 0v415h71v-162h46v98h43v-96l128 160h80l-154 -193l175 -222h-86l-143 187v-102h-43v103h-46v-188h-71z" />
<glyph unicode="&#x4a2;" horiz-adv-x="650" d="M570 69h43v-197h-70v128h-48v326h-340v-326h-75v667h75v-272h340v272h75v-598z" />
<glyph unicode="&#x4a3;" horiz-adv-x="463" d="M399 66h41v-176h-69v110h-43v189h-193v-189h-71v415h71v-161h193v161h71v-349z" />
<glyph unicode="&#x4ae;" horiz-adv-x="514" d="M218 287l-218 380h86l170 -298l172 298h87l-222 -380v-287h-75v287z" />
<glyph unicode="&#x4af;" horiz-adv-x="452" d="M196 5l-194 410h82l150 -332l137 332h80l-176 -405v-244h-79v239z" />
<glyph unicode="&#x4b0;" horiz-adv-x="547" d="M233 0v200h-127v70h127v24l-224 373h89l175 -293l176 293h90l-231 -373v-24h129v-70h-129v-200h-75z" />
<glyph unicode="&#x4b1;" horiz-adv-x="507" d="M213 -67h-129v67h129v28l-199 385h85l153 -312l155 312h85l-203 -386v-27h127v-67h-127v-159h-76v159z" />
<glyph unicode="&#x4b2;" horiz-adv-x="489" d="M444 69h64v-197h-70v128h-39l-153 274l-155 -274h-84l198 345l-180 322h84l138 -251l141 251h85l-183 -322z" />
<glyph unicode="&#x4b3;" horiz-adv-x="445" d="M388 66h61v-176h-69v110h-26l-132 169l-132 -169h-89l177 221l-151 194h87l108 -142l109 142h88l-152 -194z" />
<glyph unicode="&#x4b6;" horiz-adv-x="601" d="M496 0h-57v239q-101 -18 -149 -18q-144 0 -204 74q-42 51 -42 167v205h75v-188q0 -62 8 -94t28 -52q40 -42 145 -42q63 0 139 22v354h75v-598h52v-197h-70v128z" />
<glyph unicode="&#x4b7;" horiz-adv-x="423" d="M333 0h-45v126q-46 -13 -90 -13q-82 0 -120 43t-38 137v122h71v-120q0 -66 23 -90q23 -25 73 -25q43 0 81 16v219h71v-349h43v-176h-69v110z" />
<glyph unicode="&#x4b8;" horiz-adv-x="601" d="M257 91v132q-116 10 -164.5 64.5t-48.5 174.5v205h75v-189q0 -100 28 -137t110 -47v196h47v-199q65 2 135 22v354h75v-667h-75v239q-97 -17 -135 -17v-131h-47z" />
<glyph unicode="&#x4b9;" horiz-adv-x="423" d="M183 36v77q-77 7 -110 48.5t-33 131.5v122h71v-120q0 -57 15.5 -81.5t56.5 -31.5v126h43v-127q38 4 62 15v219h71v-415h-71v126q-26 -7 -62 -12v-78h-43z" />
<glyph unicode="&#x4bb;" horiz-adv-x="469" d="M68 729h71v-363q48 58 119 58q38 0 70 -15.5t49 -41.5q24 -37 24 -110v-257h-71v252q0 57 -20 82t-66 25q-64 0 -88 -49q-17 -34 -17 -103v-207h-71v729z" />
<glyph unicode="&#x4c0;" horiz-adv-x="248" d="M87 0v667h75v-667h-75z" />
<glyph unicode="&#x4cf;" horiz-adv-x="248" d="M87 0v667h75v-667h-75z" />
<glyph unicode="&#x4d8;" horiz-adv-x="794" d="M51 350h617q-10 113 -86 185.5t-184 72.5q-153 0 -238 -140l-67 29q49 86 129.5 133.5t175.5 47.5q142 0 244 -102t102 -244q0 -141 -102.5 -242.5t-244.5 -101.5t-244.5 100t-102.5 240q0 13 1 22zM664 281h-534q18 -97 93.5 -160t173.5 -63t173 62.5t94 160.5z" />
<glyph unicode="&#x4d9;" horiz-adv-x="500" d="M38 219h347q-1 49 -19 80q-18 32 -50 50.5t-69 18.5q-81 0 -129 -80l-68 15q28 58 79 90t117 32q94 0 154.5 -60.5t60.5 -154.5q0 -96 -60.5 -158.5t-152.5 -62.5q-94 0 -151.5 63.5t-58.5 166.5zM382 168h-267q11 -56 47 -89t86 -33q52 0 89.5 34t44.5 88z" />
<glyph unicode="&#x4e2;" horiz-adv-x="684" d="M87 -39v706h73v-506l437 538v-699h-73v498zM196 824h293v-62h-293v62z" />
<glyph unicode="&#x4e3;" horiz-adv-x="456" d="M64 -38v453h70v-273l258 305v-447h-70v267zM94 587h269v-60h-269v60z" />
<glyph unicode="&#x4e8;" horiz-adv-x="794" d="M398 678q142 0 244 -101.5t102 -243.5q0 -143 -102.5 -244t-247.5 -101q-71 0 -139.5 31t-118.5 86q-86 97 -86 232q0 138 103.5 239.5t244.5 101.5zM128 368h538q-13 103 -89 171.5t-179 68.5q-104 0 -180.5 -67.5t-89.5 -172.5zM667 299h-540q13 -104 90 -172.5 t180 -68.5t179.5 68.5t90.5 172.5z" />
<glyph unicode="&#x4e9;" horiz-adv-x="530" d="M265 425q97 0 161.5 -62.5t64.5 -156.5q0 -93 -65 -155t-163 -62q-96 0 -160.5 63.5t-64.5 158.5q0 89 66 151.5t161 62.5zM111 237h307q-8 33 -15 46q-19 36 -57.5 58.5t-82.5 22.5q-58 0 -98 -33.5t-54 -93.5zM418 182h-307q8 -38 20 -57q19 -34 55 -54.5t77 -20.5 q44 0 82.5 22t56.5 57q9 19 16 53z" />
<glyph unicode="&#x4ee;" horiz-adv-x="531" d="M69 0l161 272l-219 395h87l172 -317l175 317h88l-385 -667h-79zM125 824h293v-62h-293v62z" />
<glyph unicode="&#x4ef;" horiz-adv-x="445" d="M192 39l-191 376h82l147 -297l134 297h81l-307 -649h-80zM89 587h269v-60h-269v60z" />
<glyph unicode="&#x1e1e;" horiz-adv-x="420" d="M383 598h-228v-199h221v-69h-221v-330h-75v667h303v-69zM231 850q22 0 38 -15.5t16 -37.5t-15.5 -38t-37.5 -16t-38 15.5t-16 38.5q0 22 15.5 37.5t37.5 15.5z" />
<glyph unicode="&#x1e80;" horiz-adv-x="942" d="M81 667l178 -500l209 534l197 -534l196 500h81l-279 -701l-197 533l-210 -533l-256 701h81zM351 837l67 45l119 -130l-43 -32z" />
<glyph unicode="&#x1e81;" horiz-adv-x="668" d="M81 415l123 -281l130 313l129 -313l124 281h80l-206 -444l-128 309l-128 -309l-204 444h80zM215 623l74 33l105 -144l-44 -25z" />
<glyph unicode="&#x1e82;" horiz-adv-x="942" d="M81 667l178 -500l209 534l197 -534l196 500h81l-279 -701l-197 533l-210 -533l-256 701h81zM577 837l-143 -117l-43 32l119 130z" />
<glyph unicode="&#x1e83;" horiz-adv-x="668" d="M81 415l123 -281l130 313l129 -313l124 281h80l-206 -444l-128 309l-128 -309l-204 444h80zM453 623l-135 -136l-44 25l105 144z" />
<glyph unicode="&#x1e84;" horiz-adv-x="942" d="M81 667l178 -500l209 534l197 -534l196 500h81l-279 -701l-197 533l-210 -533l-256 701h81zM376 849q21 0 36 -15t15 -36t-15 -36t-36 -15t-36 15t-15 37q0 20 15 35t36 15zM566 849q21 0 36 -15t15 -36t-15 -36t-36 -15t-36 15t-15 37q0 20 15 35t36 15z" />
<glyph unicode="&#x1e85;" horiz-adv-x="668" d="M81 415l123 -281l130 313l129 -313l124 281h80l-206 -444l-128 309l-128 -309l-204 444h80zM248 610q21 0 35.5 -14.5t14.5 -35.5q0 -20 -15 -35t-35 -15q-21 0 -35.5 14.5t-14.5 36.5q0 20 15 34.5t35 14.5zM421 610q21 0 35.5 -14.5t14.5 -35.5t-14.5 -35.5 t-35.5 -14.5t-35.5 15t-14.5 36q0 20 15 34.5t35 14.5z" />
<glyph unicode="&#x1ea0;" horiz-adv-x="607" d="M446 189h-285l-80 -189h-81l307 699l300 -699h-82zM417 258l-111 267l-114 -267h225zM303 -60q21 0 36 -15t15 -36t-15 -36t-36 -15t-36 15t-15 37q0 20 15 35t36 15z" />
<glyph unicode="&#x1ea1;" d="M379 415h71v-415h-71v58q-58 -70 -143 -70q-87 0 -143.5 62.5t-56.5 158.5q0 94 56 155t142 61t145 -69v59zM246 360q-58 0 -97.5 -43t-39.5 -107q0 -68 38.5 -112.5t97.5 -44.5q61 0 100 43.5t39 111.5q0 67 -38.5 109.5t-99.5 42.5zM257 -60q21 0 36 -15t15 -36 t-15 -36t-36 -15t-36 15t-15 37q0 20 15 35t36 15z" />
<glyph unicode="&#x1ea2;" horiz-adv-x="607" d="M446 189h-285l-80 -189h-81l307 699l300 -699h-82zM417 258l-111 267l-114 -267h225zM323 753h-40v61q23 5 31 5q32 5 44 13t12 26q0 41 -53 41q-19 0 -47 -14l-8 -4l-13 32q50 19 88 19q42 0 68.5 -22t26.5 -56q0 -29 -21 -46t-57 -17q-19 0 -31 1v-39z" />
<glyph unicode="&#x1ea3;" d="M379 415h71v-415h-71v58q-58 -70 -143 -70q-87 0 -143.5 62.5t-56.5 158.5q0 94 56 155t142 61t145 -69v59zM246 360q-58 0 -97.5 -43t-39.5 -107q0 -68 38.5 -112.5t97.5 -44.5q61 0 100 43.5t39 111.5q0 67 -38.5 109.5t-99.5 42.5zM269 496h-40v61q23 5 31 5 q32 5 44 13t12 26q0 41 -53 41q-19 0 -47 -14l-8 -4l-13 32q49 19 88 19q42 0 68.5 -22t26.5 -56q0 -29 -21 -46t-57 -17q-19 0 -31 1v-39z" />
<glyph unicode="&#x1ea4;" horiz-adv-x="607" d="M380 821l109 118l67 -45l-134 -109l28 -23l-53 -41l-88 76l-87 -76l-52 41l139 119zM446 189h-285l-80 -189h-81l307 699l300 -699h-82zM417 258l-111 267l-114 -267h225z" />
<glyph unicode="&#x1ea5;" d="M333 586l93 127l74 -34l-128 -129l25 -24l-51 -39l-88 82l-87 -82l-50 39l137 130zM379 415h71v-415h-71v58q-58 -70 -143 -70q-86 0 -143 62.5t-57 157.5q0 94 56 155.5t142 61.5t145 -69v59zM246 360q-58 0 -97.5 -43t-39.5 -107q0 -68 38.5 -112.5t97.5 -44.5 q61 0 100 43.5t39 111.5q0 67 -38.5 109.5t-99.5 42.5z" />
<glyph unicode="&#x1ea6;" horiz-adv-x="607" d="M201 789l-134 109l67 45l109 -119l66 57l141 -119l-53 -41l-88 76l-87 -76l-52 41zM446 189h-285l-80 -189h-81l307 699l300 -699h-82zM417 258l-111 267l-114 -267h225z" />
<glyph unicode="&#x1ea7;" d="M149 552l-130 131l74 33l93 -128l73 68l139 -130l-52 -39l-87 82l-88 -82l-50 39zM379 415h71v-415h-71v58q-58 -70 -143 -70q-86 0 -143 62.5t-57 157.5q0 94 56 155.5t142 61.5t145 -69v59zM246 360q-58 0 -97.5 -43t-39.5 -107q0 -68 38.5 -112.5t97.5 -44.5 q61 0 100 43.5t39 111.5q0 67 -38.5 109.5t-99.5 42.5z" />
<glyph unicode="&#x1ea8;" horiz-adv-x="607" d="M393 811v40q23 5 31 5q32 5 44 13t12 26q0 41 -53 41q-19 0 -47 -14l-8 -4l-13 32q50 19 88 19q42 0 68.5 -22t26.5 -56q0 -29 -21 -46t-57 -17q-19 0 -31 1v-39h-16l33 -28l-53 -40l-87 75l-88 -76l-52 41l140 119zM446 189h-285l-80 -189h-81l307 699l300 -699h-82z M417 258l-111 267l-114 -267h225z" />
<glyph unicode="&#x1ea9;" d="M346 574v41q23 5 31 5q32 5 44 13t12 26q0 41 -53 41q-19 0 -47 -14l-8 -4l-13 32q50 19 88 19q42 0 68.5 -22t26.5 -56q0 -29 -21 -46t-57 -17q-19 0 -31 1v-39h-18l29 -28l-51 -39l-88 83l-87 -83l-50 39l137 130zM379 415h71v-415h-71v58q-58 -70 -143 -70 q-86 0 -143 62.5t-57 157.5q0 94 56 155.5t142 61.5t145 -69v59zM246 360q-58 0 -97.5 -43t-39.5 -107q0 -68 38.5 -112.5t97.5 -44.5q61 0 100 43.5t39 111.5q0 67 -38.5 109.5t-99.5 42.5z" />
<glyph unicode="&#x1eaa;" horiz-adv-x="607" d="M446 189h-285l-80 -189h-81l307 699l300 -699h-82zM417 258l-111 267l-114 -267h225zM170 762l139 119l141 -119l-53 -41l-88 76l-87 -76zM199 876l-43 33q35 72 89 72q23 0 64 -21q39 -20 54 -20q24 0 46 42l43 -32q-35 -72 -92 -72q-25 0 -64 21q-40 20 -56 20 q-13 0 -20.5 -8t-20.5 -35z" />
<glyph unicode="&#x1eab;" d="M379 415h71v-415h-71v58q-58 -70 -143 -70q-87 0 -143.5 62.5t-56.5 158.5q0 94 56 155t142 61t145 -69v59zM246 360q-58 0 -97.5 -43t-39.5 -107q0 -68 38.5 -112.5t97.5 -44.5q61 0 100 43.5t39 111.5q0 67 -38.5 109.5t-99.5 42.5zM121 526l137 130l139 -130l-51 -39 l-88 83l-87 -83zM156 664l-41 34q25 71 85 71q28 0 63 -21q32 -20 46 -20t24.5 9.5t22.5 33.5l41 -33q-13 -33 -36.5 -52.5t-51.5 -19.5q-22 0 -57 21q-38 21 -54 21q-28 0 -42 -44z" />
<glyph unicode="&#x1eac;" horiz-adv-x="607" d="M446 189h-285l-80 -189h-81l307 699l300 -699h-82zM417 258l-111 267l-114 -267h225zM170 762l139 119l141 -119l-53 -41l-88 76l-87 -76zM303 -60q21 0 36 -15t15 -36t-15 -36t-36 -15t-36 15t-15 37q0 20 15 35t36 15z" />
<glyph unicode="&#x1ead;" d="M379 415h71v-415h-71v58q-58 -70 -143 -70q-87 0 -143.5 62.5t-56.5 158.5q0 94 56 155t142 61t145 -69v59zM246 360q-58 0 -97.5 -43t-39.5 -107q0 -68 38.5 -112.5t97.5 -44.5q61 0 100 43.5t39 111.5q0 67 -38.5 109.5t-99.5 42.5zM121 526l137 130l139 -130l-51 -39 l-88 83l-87 -83zM256 -60q21 0 36 -15t15 -36t-15 -36t-36 -15t-36 15t-15 37q0 20 15 35t36 15z" />
<glyph unicode="&#x1eae;" horiz-adv-x="607" d="M446 189h-285l-80 -189h-81l307 699l300 -699h-82zM417 258l-111 267l-114 -267h225zM168 861h64q17 -67 74 -67q59 0 75 67h64q-7 -61 -43.5 -95.5t-95.5 -34.5q-70 0 -110 49q-23 29 -28 81zM452 953l-144 -117l-43 32l119 129z" />
<glyph unicode="&#x1eaf;" d="M379 415h71v-415h-71v58q-58 -70 -143 -70q-87 0 -143.5 62.5t-56.5 158.5q0 94 56 155t142 61t145 -69v59zM246 360q-58 0 -97.5 -43t-39.5 -107q0 -68 38.5 -112.5t97.5 -44.5q61 0 100 43.5t39 111.5q0 67 -38.5 109.5t-99.5 42.5zM128 633h62q3 -33 21 -51.5 t47 -18.5q59 0 70 70h62q-7 -60 -42.5 -95t-89.5 -35q-56 0 -92.5 36t-37.5 94zM402 734l-135 -136l-44 25l105 145z" />
<glyph unicode="&#x1eb0;" horiz-adv-x="607" d="M446 189h-285l-80 -189h-81l307 699l300 -699h-82zM417 258l-111 267l-114 -267h225zM168 861h64q17 -67 74 -67q59 0 75 67h64q-7 -61 -43.5 -95.5t-95.5 -34.5q-70 0 -110 49q-23 29 -28 81zM155 943l67 45l119 -130l-43 -32z" />
<glyph unicode="&#x1eb1;" d="M379 415h71v-415h-71v58q-58 -70 -143 -70q-87 0 -143.5 62.5t-56.5 158.5q0 94 56 155t142 61t145 -69v59zM246 360q-58 0 -97.5 -43t-39.5 -107q0 -68 38.5 -112.5t97.5 -44.5q61 0 100 43.5t39 111.5q0 67 -38.5 109.5t-99.5 42.5zM128 633h62q3 -33 21 -51.5 t47 -18.5q59 0 70 70h62q-7 -60 -42.5 -95t-89.5 -35q-56 0 -92.5 36t-37.5 94zM120 730l74 33l105 -144l-45 -25z" />
<glyph unicode="&#x1eb2;" horiz-adv-x="607" d="M446 189h-285l-80 -189h-81l307 699l300 -699h-82zM417 258l-111 267l-114 -267h225zM168 861h64q17 -67 74 -67q59 0 75 67h64q-7 -61 -43.5 -95.5t-95.5 -34.5q-70 0 -110 49q-23 29 -28 81zM323 834h-40v61q23 5 31 5q32 5 44 13t12 26q0 41 -53 41q-19 0 -47 -14 l-8 -4l-13 32q50 19 88 19q42 0 68.5 -22t26.5 -56q0 -29 -21 -46t-57 -17q-19 0 -31 1v-39z" />
<glyph unicode="&#x1eb3;" d="M379 415h71v-415h-71v58q-58 -70 -143 -70q-87 0 -143.5 62.5t-56.5 158.5q0 94 56 155t142 61t145 -69v59zM246 360q-58 0 -97.5 -43t-39.5 -107q0 -68 38.5 -112.5t97.5 -44.5q61 0 100 43.5t39 111.5q0 67 -38.5 109.5t-99.5 42.5zM128 633h62q3 -33 21 -51.5 t47 -18.5q59 0 70 70h62q-7 -60 -42.5 -95t-89.5 -35q-56 0 -92.5 36t-37.5 94zM268 606h-40v61q23 5 31 5q32 5 44 13t12 26q0 41 -53 41q-19 0 -47 -14l-8 -4l-13 32q50 19 88 19q42 0 68.5 -22t26.5 -56q0 -29 -21 -46t-57 -17q-19 0 -31 1v-39z" />
<glyph unicode="&#x1eb4;" horiz-adv-x="607" d="M446 189h-285l-80 -189h-81l307 699l300 -699h-82zM417 258l-111 267l-114 -267h225zM168 861h64q17 -67 74 -67q59 0 75 67h64q-7 -61 -43.5 -95.5t-95.5 -34.5q-70 0 -110 49q-23 29 -28 81zM199 889l-43 34q36 71 89 71q23 0 64 -21q39 -20 54 -20q26 0 46 43l43 -32 q-35 -73 -92 -73q-25 0 -64 21q-40 20 -56 20q-13 0 -20.5 -8t-20.5 -35z" />
<glyph unicode="&#x1eb5;" d="M379 415h71v-415h-71v58q-58 -70 -143 -70q-87 0 -143.5 62.5t-56.5 158.5q0 94 56 155t142 61t145 -69v59zM246 360q-58 0 -97.5 -43t-39.5 -107q0 -68 38.5 -112.5t97.5 -44.5q61 0 100 43.5t39 111.5q0 67 -38.5 109.5t-99.5 42.5zM128 633h62q3 -33 21 -51.5 t47 -18.5q59 0 70 70h62q-7 -60 -42.5 -95t-89.5 -35q-56 0 -92.5 36t-37.5 94zM156 663l-41 33q25 71 85 71q28 0 63 -21q33 -19 46 -19q25 0 47 42l41 -32q-13 -34 -36.5 -53t-51.5 -19q-20 0 -57 20q-38 21 -54 21q-28 0 -42 -43z" />
<glyph unicode="&#x1eb6;" horiz-adv-x="607" d="M446 189h-285l-80 -189h-81l307 699l300 -699h-82zM417 258l-111 267l-114 -267h225zM168 861h64q17 -67 74 -67q59 0 75 67h64q-7 -61 -43.5 -95.5t-95.5 -34.5q-70 0 -110 49q-23 29 -28 81zM303 -60q21 0 36 -15t15 -36t-15 -36t-36 -15t-36 15t-15 37q0 20 15 35 t36 15z" />
<glyph unicode="&#x1eb7;" d="M379 415h71v-415h-71v58q-58 -70 -143 -70q-87 0 -143.5 62.5t-56.5 158.5q0 94 56 155t142 61t145 -69v59zM246 360q-58 0 -97.5 -43t-39.5 -107q0 -68 38.5 -112.5t97.5 -44.5q61 0 100 43.5t39 111.5q0 67 -38.5 109.5t-99.5 42.5zM128 633h62q3 -33 21 -51.5 t47 -18.5q59 0 70 70h62q-7 -60 -42.5 -95t-89.5 -35q-56 0 -92.5 36t-37.5 94zM256 -60q21 0 36 -15t15 -36t-15 -36t-36 -15t-36 15t-15 37q0 20 15 35t36 15z" />
<glyph unicode="&#x1eb8;" horiz-adv-x="469" d="M425 598h-270v-199h263v-69h-263v-261h270v-69h-345v667h345v-69zM234 -60q21 0 36 -15t15 -36t-15 -36t-36 -15t-36 15t-15 37q0 20 15 35t36 15z" />
<glyph unicode="&#x1eb9;" horiz-adv-x="468" d="M434 193h-324q3 -64 39.5 -102t92.5 -38q41 0 69.5 19.5t58.5 67.5l60 -34q-67 -118 -191 -118q-90 0 -147 60.5t-57 156.5q0 97 56 158t145 61q90 0 144 -60t54 -159v-12zM115 253h244q-10 49 -43 78t-79 29q-45 0 -80 -30.5t-42 -76.5zM234 -60q21 0 36 -15t15 -36 t-15 -36t-36 -15t-36 15t-15 37q0 20 15 35t36 15z" />
<glyph unicode="&#x1eba;" horiz-adv-x="469" d="M425 598h-270v-199h263v-69h-263v-261h270v-69h-345v667h345v-69zM278 753h-40v61q23 5 31 5q32 5 44 13t12 26q0 41 -53 41q-19 0 -47 -14l-8 -4l-13 32q50 19 88 19q42 0 68.5 -22t26.5 -56q0 -29 -21 -46t-57 -17q-19 0 -31 1v-39z" />
<glyph unicode="&#x1ebb;" horiz-adv-x="468" d="M434 193h-324q3 -64 39.5 -102t92.5 -38q41 0 69.5 19.5t58.5 67.5l60 -34q-67 -118 -191 -118q-90 0 -147 60.5t-57 156.5q0 97 56 158t145 61q90 0 144 -60t54 -159v-12zM115 253h244q-10 49 -43 78t-79 29q-45 0 -80 -30.5t-42 -76.5zM246 496h-40v61q23 5 31 5 q32 5 44 13t12 26q0 41 -53 41q-19 0 -47 -14l-8 -4l-13 32q49 19 88 19q42 0 68.5 -22t26.5 -56q0 -29 -21 -46t-57 -17q-19 0 -31 1v-39z" />
<glyph unicode="&#x1ebc;" horiz-adv-x="469" d="M425 598h-270v-199h263v-69h-263v-261h270v-69h-345v667h345v-69zM130 746l-43 34q35 71 89 71q23 0 64 -21q39 -20 54 -20q26 0 46 43l43 -33q-35 -72 -91 -72q-26 0 -65 21q-40 20 -56 20q-13 0 -20.5 -8t-20.5 -35z" />
<glyph unicode="&#x1ebd;" horiz-adv-x="468" d="M434 193h-324q3 -64 39.5 -102t92.5 -38q41 0 69.5 19.5t58.5 67.5l60 -34q-67 -118 -191 -118q-90 0 -147 60.5t-57 156.5q0 97 56 158t145 61q90 0 144 -60t54 -159v-12zM115 253h244q-10 49 -43 78t-79 29q-45 0 -80 -30.5t-42 -76.5zM135 506l-42 34q12 34 34.5 52.5 t51.5 18.5q27 0 62 -21q33 -20 46 -20q15 0 25 9.5t22 33.5l42 -32q-13 -34 -36.5 -53.5t-51.5 -19.5q-22 0 -57 21q-38 21 -54 21q-29 0 -42 -44z" />
<glyph unicode="&#x1ebe;" horiz-adv-x="469" d="M325 819l111 120l67 -45l-136 -110l26 -22l-53 -41l-88 76l-88 -76l-51 41l139 119zM425 598h-270v-199h263v-69h-263v-261h270v-69h-345v667h345v-69z" />
<glyph unicode="&#x1ebf;" horiz-adv-x="469" d="M319 586l91 126l74 -34l-127 -128l26 -24l-51 -39l-88 82l-88 -82l-50 39l138 130zM434 193h-324q3 -64 39.5 -102t92.5 -38q41 0 69.5 19.5t58.5 67.5l60 -34q-67 -118 -191 -118q-90 0 -147 60.5t-57 156.5q0 97 56 158t145 61t143.5 -59.5t54.5 -157.5v-14zM115 253 h244q-10 49 -43 78t-79 29q-45 0 -80 -30.5t-42 -76.5z" />
<glyph unicode="&#x1ec0;" horiz-adv-x="469" d="M140 785l-133 108l67 45l108 -117l70 60l140 -119l-53 -41l-87 76l-88 -76l-52 41zM425 598h-270v-199h263v-69h-263v-261h270v-69h-345v667h345v-69z" />
<glyph unicode="&#x1ec1;" horiz-adv-x="469" d="M134 553l-127 128l74 34l92 -126l71 67l139 -130l-52 -39l-87 82l-88 -82l-50 39zM434 193h-324q3 -64 39 -102t93 -38q41 0 69.5 19.5t58.5 67.5l60 -34q-67 -118 -191 -118q-90 0 -147 60.5t-57 156.5q0 97 56 158t145 61t143.5 -59.5t54.5 -157.5v-14zM115 253h244 q-10 49 -43 78t-79 29t-80 -30t-42 -77z" />
<glyph unicode="&#x1ec2;" horiz-adv-x="469" d="M344 803v48q23 5 31 5q32 5 44 13t12 26q0 41 -53 41q-19 0 -47 -14l-8 -4l-13 32q50 19 88 19q42 0 68.5 -22t26.5 -56q0 -29 -21 -46t-57 -17q-19 0 -31 1v-39h-25l33 -28l-53 -40l-87 75l-88 -76l-52 41l140 119zM425 598h-270v-199h263v-69h-263v-261h270v-69h-345 v667h345v-69z" />
<glyph unicode="&#x1ec3;" horiz-adv-x="469" d="M336 570v39q23 5 31 5q32 5 44 13t12 26q0 41 -53 41q-19 0 -47 -14l-8 -4l-13 32q50 19 88 19q42 0 68.5 -22t26.5 -56q0 -29 -21 -46t-57 -17q-19 0 -31 1v-39h-17l24 -22l-52 -39l-87 83l-88 -83l-50 39l137 130zM434 193h-324q3 -64 39.5 -102t92.5 -38 q41 0 69.5 19.5t58.5 67.5l60 -34q-67 -118 -191 -118q-90 0 -147 60.5t-57 156.5q0 97 56 158t145 61t143.5 -59.5t54.5 -157.5v-14zM115 253h244q-10 49 -43 78t-79 29q-45 0 -80 -30.5t-42 -76.5z" />
<glyph unicode="&#x1ec4;" horiz-adv-x="469" d="M425 598h-270v-199h263v-69h-263v-261h270v-69h-345v667h345v-69zM113 762l139 119l141 -119l-53 -41l-88 76l-88 -76zM147 888l-43 33q35 72 88 72q24 0 64 -21q40 -20 55 -20q24 0 46 42l43 -32q-35 -72 -92 -72q-24 0 -65 21q-39 20 -56 20q-12 0 -19.5 -8.5 t-20.5 -34.5z" />
<glyph unicode="&#x1ec5;" horiz-adv-x="469" d="M434 193h-324q3 -64 39.5 -102t92.5 -38q41 0 69.5 19.5t58.5 67.5l60 -34q-67 -118 -191 -118q-90 0 -147 60.5t-57 156.5q0 97 56 158t145 61q90 0 144 -60t54 -159v-12zM115 253h244q-10 49 -43 78t-79 29q-45 0 -80 -30.5t-42 -76.5zM106 526l138 130l139 -130 l-51 -39l-88 83l-88 -83zM151 649l-42 34q12 34 34.5 52.5t51.5 18.5q28 0 62 -21q33 -20 47 -20q26 0 46 43l42 -33q-13 -33 -36.5 -52.5t-51.5 -19.5q-22 0 -57 21q-38 21 -54 21q-29 0 -42 -44z" />
<glyph unicode="&#x1ec6;" horiz-adv-x="469" d="M425 598h-270v-199h263v-69h-263v-261h270v-69h-345v667h345v-69zM113 762l139 119l141 -119l-53 -41l-88 76l-88 -76zM234 -60q21 0 36 -15t15 -36t-15 -36t-36 -15t-36 15t-15 37q0 20 15 35t36 15z" />
<glyph unicode="&#x1ec7;" horiz-adv-x="469" d="M434 193h-324q3 -64 39.5 -102t92.5 -38q41 0 69.5 19.5t58.5 67.5l60 -34q-67 -118 -191 -118q-90 0 -147 60.5t-57 156.5q0 97 56 158t145 61q90 0 144 -60t54 -159v-12zM115 253h244q-10 49 -43 78t-79 29q-45 0 -80 -30.5t-42 -76.5zM106 526l138 130l139 -130 l-51 -39l-88 83l-88 -83zM234 -60q21 0 36 -15t15 -36t-15 -36t-36 -15t-36 15t-15 37q0 20 15 35t36 15z" />
<glyph unicode="&#x1ec8;" horiz-adv-x="235" d="M156 667v-667h-75v667h75zM138 753h-40v61q23 5 31 5q32 5 44 13t12 26q0 41 -53 41q-19 0 -47 -14l-8 -4l-13 32q49 19 88 19q42 0 68.5 -22t26.5 -56q0 -29 -21 -46t-57 -17q-19 0 -31 1v-39z" />
<glyph unicode="&#x1ec9;" horiz-adv-x="200" d="M136 415v-415h-71v415h71zM121 479h-40v61q23 5 31 5q32 5 44 13t12 26q0 41 -53 41q-20 0 -47 -14l-8 -4l-13 32q49 19 88 19q42 0 68.5 -22t26.5 -56q0 -29 -21 -46t-57 -17q-19 0 -31 1v-39z" />
<glyph unicode="&#x1eca;" horiz-adv-x="235" d="M155 667v-667h-75v667h75zM117 -60q21 0 36 -15t15 -36t-15 -36t-36 -15t-36 15t-15 37q0 20 15 35t36 15z" />
<glyph unicode="&#x1ecb;" horiz-adv-x="200" d="M135 415v-415h-71v415h71zM100 623q21 0 36 -15t15 -36t-15 -36t-36 -15t-36 15t-15 37q0 20 15 35t36 15zM100 -60q21 0 36 -15t15 -36t-15 -36t-36 -15t-36 15t-15 37q0 20 15 35t36 15z" />
<glyph unicode="&#x1ecc;" horiz-adv-x="778" d="M390 678q142 0 244 -101.5t102 -243.5q0 -143 -102.5 -244t-247.5 -101q-71 0 -139.5 31t-118.5 86q-86 97 -86 232q0 138 103.5 239.5t244.5 101.5zM389 608q-112 0 -192 -80t-80 -191q0 -123 85 -203q81 -76 185 -76q114 0 194 80t80 195q0 114 -79.5 194.5 t-192.5 80.5zM389 -60q21 0 36 -15t15 -36t-15 -36t-36 -15t-36 15t-15 37q0 20 15 35t36 15z" />
<glyph unicode="&#x1ecd;" horiz-adv-x="508" d="M255 424q92 0 155.5 -63t63.5 -155t-63.5 -155t-157.5 -63q-92 0 -155 64t-63 158q0 88 64.5 151t155.5 63zM254 359q-63 0 -104.5 -43t-41.5 -108q0 -68 40.5 -111.5t104.5 -43.5q65 0 106.5 43t41.5 110t-41.5 110t-105.5 43zM254 -60q21 0 36 -15t15 -36t-15 -36 t-36 -15t-36 15t-15 37q0 20 15 35t36 15z" />
<glyph unicode="&#x1ece;" horiz-adv-x="778" d="M390 678q142 0 244 -101.5t102 -243.5q0 -143 -102.5 -244t-247.5 -101q-71 0 -139.5 31t-118.5 86q-86 97 -86 232q0 138 103.5 239.5t244.5 101.5zM389 608q-112 0 -192 -80t-80 -191q0 -123 85 -203q81 -76 185 -76q114 0 194 80t80 195q0 114 -79.5 194.5 t-192.5 80.5zM401 753h-40v61q23 5 31 5q32 5 44 13t12 26q0 41 -53 41q-19 0 -47 -14l-8 -4l-13 32q50 19 88 19q42 0 68.5 -22t26.5 -56q0 -29 -21 -46t-57 -17q-19 0 -31 1v-39z" />
<glyph unicode="&#x1ecf;" horiz-adv-x="508" d="M255 424q92 0 155.5 -63t63.5 -155t-63.5 -155t-157.5 -63q-92 0 -155 64t-63 158q0 88 64.5 151t155.5 63zM254 359q-63 0 -104.5 -43t-41.5 -108q0 -68 40.5 -111.5t104.5 -43.5q65 0 106.5 43t41.5 110t-41.5 110t-105.5 43zM266 479h-40v61q23 5 31 5q32 5 44 13 t12 26q0 41 -53 41q-20 0 -47 -14l-8 -4l-13 32q47 19 88 19q42 0 68.5 -22t26.5 -56q0 -29 -21 -46t-57 -17q-19 0 -31 1v-39z" />
<glyph unicode="&#x1ed0;" horiz-adv-x="778" d="M461 820l110 119l67 -45l-135 -110l26 -22l-53 -41l-88 76l-87 -76l-52 41l139 119zM387 678q145 0 247 -101t102 -244q0 -142 -102 -243.5t-245 -101.5q-141 0 -244 100.5t-103 237.5q0 153 110 257q46 44 109.5 69.5t125.5 25.5zM389 608q-112 0 -192 -80t-80 -191 q0 -123 85 -203q81 -76 185 -76q114 0 194 80t80 195q0 114 -79.5 194.5t-192.5 80.5z" />
<glyph unicode="&#x1ed1;" horiz-adv-x="509" d="M333 585l92 125l74 -33l-127 -128l24 -23l-51 -39l-88 82l-88 -82l-50 39l138 130zM253 424q94 0 157.5 -63t63.5 -155t-63.5 -155t-155.5 -63q-91 0 -155.5 63t-64.5 151q0 94 63 158t155 64zM254 359q-63 0 -104.5 -43t-41.5 -108q0 -68 40.5 -111.5t104.5 -43.5 q65 0 106.5 43t41.5 110t-41.5 110t-105.5 43z" />
<glyph unicode="&#x1ed2;" horiz-adv-x="778" d="M276 785l-134 109l67 45l109 -118l70 60l141 -119l-53 -41l-88 76l-87 -76l-52 41zM387 678q145 0 247 -101t102 -244q0 -142 -102 -243.5t-245 -101.5q-141 0 -244 100.5t-103 237.5q0 153 110 257q46 44 109.5 69.5t125.5 25.5zM389 608q-112 0 -192 -80t-80 -191 q0 -123 85 -203q81 -76 185 -76q114 0 194 80t80 195q0 114 -79.5 194.5t-192.5 80.5z" />
<glyph unicode="&#x1ed3;" horiz-adv-x="509" d="M144 549l-130 131l74 34l94 -129l75 71l139 -130l-51 -39l-88 82l-87 -82l-50 39zM253 424q94 0 157.5 -63t63.5 -155t-63.5 -155t-155.5 -63q-91 0 -155.5 63t-64.5 151q0 94 63 158t155 64zM254 359q-63 0 -104.5 -43t-41.5 -108q0 -68 40.5 -111.5t104.5 -43.5 q65 0 106.5 43t41.5 110t-41.5 110t-105.5 43z" />
<glyph unicode="&#x1ed4;" horiz-adv-x="778" d="M483 801v41q23 5 31 5q32 5 44 13t12 26q0 41 -53 41q-19 0 -47 -14l-8 -4l-13 32q50 19 88 19q42 0 68.5 -22t26.5 -56q0 -29 -21 -46t-57 -17q-19 0 -31 1v-39h-16l22 -19l-53 -40l-88 75l-88 -75l-51 40l139 119zM387 678q145 0 247 -101t102 -244q0 -142 -102 -243.5 t-245 -101.5q-141 0 -244 100.5t-103 237.5q0 153 110 257q46 44 109.5 69.5t125.5 25.5zM389 608q-112 0 -192 -80t-80 -191q0 -123 85 -203q81 -76 185 -76q114 0 194 80t80 195q0 114 -79.5 194.5t-192.5 80.5z" />
<glyph unicode="&#x1ed5;" horiz-adv-x="509" d="M352 567v41q23 5 31 5q32 5 44 13t12 26q0 41 -53 41q-19 0 -47 -14l-8 -4l-13 32q50 19 88 19q42 0 68.5 -22t26.5 -56q0 -29 -21 -46t-57 -17q-19 0 -31 1v-39h-18l22 -21l-51 -39l-88 83l-88 -83l-50 39l138 130zM253 424q94 0 157.5 -63t63.5 -155t-63.5 -155 t-155.5 -63q-91 0 -155.5 63t-64.5 151q0 94 63 158t155 64zM254 359q-63 0 -104.5 -43t-41.5 -108q0 -68 40.5 -111.5t104.5 -43.5q65 0 106.5 43t41.5 110t-41.5 110t-105.5 43z" />
<glyph unicode="&#x1ed6;" horiz-adv-x="778" d="M390 678q142 0 244 -101.5t102 -243.5q0 -143 -102.5 -244t-247.5 -101q-71 0 -139.5 31t-118.5 86q-86 97 -86 232q0 138 103.5 239.5t244.5 101.5zM389 608q-112 0 -192 -80t-80 -191q0 -123 85 -203q81 -76 185 -76q114 0 194 80t80 195q0 114 -79.5 194.5 t-192.5 80.5zM249 762l139 119l141 -119l-53 -41l-88 76l-87 -76zM284 880l-42 33q35 71 88 71q24 0 64 -21q41 -19 55 -19q24 0 46 42l43 -32q-35 -72 -92 -72q-24 0 -65 20q-40 20 -56 20q-12 0 -20 -8.5t-21 -33.5z" />
<glyph unicode="&#x1ed7;" horiz-adv-x="509" d="M255 424q92 0 155.5 -63t63.5 -155t-63.5 -155t-157.5 -63q-92 0 -155 64t-63 158q0 88 64.5 151t155.5 63zM254 359q-63 0 -104.5 -43t-41.5 -108q0 -68 40.5 -111.5t104.5 -43.5q65 0 106.5 43t41.5 110t-41.5 110t-105.5 43zM119 526l138 130l139 -130l-51 -39l-88 83 l-88 -83zM154 668l-41 33q25 72 86 72q27 0 62 -21q33 -20 46 -20q25 0 47 42l42 -32q-14 -33 -37.5 -52.5t-51.5 -19.5q-21 0 -56 21q-39 21 -54 21q-29 0 -43 -44z" />
<glyph unicode="&#x1ed8;" horiz-adv-x="778" d="M390 678q142 0 244 -101.5t102 -243.5q0 -143 -102.5 -244t-247.5 -101q-71 0 -139.5 31t-118.5 86q-86 97 -86 232q0 138 103.5 239.5t244.5 101.5zM389 608q-112 0 -192 -80t-80 -191q0 -123 85 -203q81 -76 185 -76q114 0 194 80t80 195q0 114 -79.5 194.5 t-192.5 80.5zM249 762l139 119l141 -119l-53 -41l-88 76l-87 -76zM389 -60q21 0 36 -15t15 -36t-15 -36t-36 -15t-36 15t-15 37q0 20 15 35t36 15z" />
<glyph unicode="&#x1ed9;" horiz-adv-x="509" d="M255 424q92 0 155.5 -63t63.5 -155t-63.5 -155t-157.5 -63q-92 0 -155 64t-63 158q0 88 64.5 151t155.5 63zM254 359q-63 0 -104.5 -43t-41.5 -108q0 -68 40.5 -111.5t104.5 -43.5q65 0 106.5 43t41.5 110t-41.5 110t-105.5 43zM119 526l138 130l139 -130l-51 -39l-88 83 l-88 -83zM254 -60q21 0 36 -15t15 -36t-15 -36t-36 -15t-36 15t-15 37q0 20 15 35t36 15z" />
<glyph unicode="&#x1eda;" horiz-adv-x="778" d="M630 581l42 126l76 -24l-77 -149q65 -90 65 -202q0 -141 -102.5 -242.5t-244.5 -101.5q-143 0 -245 100.5t-102 242.5q0 143 102.5 245t245.5 102q137 0 240 -97zM389 608q-112 0 -192 -80t-80 -191q0 -123 85 -203q81 -76 185 -76q114 0 194 80t80 195 q0 114 -79.5 194.5t-192.5 80.5zM537 837l-143 -117l-43 32l119 130z" />
<glyph unicode="&#x1edb;" horiz-adv-x="508" d="M426 343l30 102l69 -21l-62 -148q11 -38 11 -69q0 -92 -63.5 -155.5t-155.5 -63.5t-156 63.5t-64 154.5t63.5 154.5t155.5 63.5q108 0 172 -81zM254 359q-63 0 -104.5 -43t-41.5 -108q0 -68 40.5 -111.5t104.5 -43.5q65 0 106.5 43t41.5 110t-41.5 110t-105.5 43z M391 623l-135 -136l-45 25l106 144z" />
<glyph unicode="&#x1edc;" horiz-adv-x="778" d="M630 581l42 126l76 -24l-77 -149q65 -90 65 -202q0 -141 -102.5 -242.5t-244.5 -101.5q-143 0 -245 100.5t-102 242.5q0 143 102.5 245t245.5 102q137 0 240 -97zM389 608q-112 0 -192 -80t-80 -191q0 -123 85 -203q81 -76 185 -76q114 0 194 80t80 195 q0 114 -79.5 194.5t-192.5 80.5zM241 837l67 45l119 -130l-43 -32z" />
<glyph unicode="&#x1edd;" horiz-adv-x="508" d="M426 343l30 102l69 -21l-62 -148q11 -38 11 -69q0 -92 -63.5 -155.5t-155.5 -63.5t-156 63.5t-64 154.5t63.5 154.5t155.5 63.5q108 0 172 -81zM254 359q-63 0 -104.5 -43t-41.5 -108q0 -68 40.5 -111.5t104.5 -43.5q65 0 106.5 43t41.5 110t-41.5 110t-105.5 43z M118 623l74 33l105 -144l-44 -25z" />
<glyph unicode="&#x1ede;" horiz-adv-x="778" d="M630 581l42 126l76 -24l-77 -149q65 -90 65 -202q0 -141 -102.5 -242.5t-244.5 -101.5q-143 0 -245 100.5t-102 242.5q0 143 102.5 245t245.5 102q137 0 240 -97zM389 608q-112 0 -192 -80t-80 -191q0 -123 85 -203q81 -76 185 -76q114 0 194 80t80 195 q0 114 -79.5 194.5t-192.5 80.5zM401 753h-40v61q23 5 31 5q32 5 44 13t12 26q0 41 -53 41q-19 0 -47 -14l-8 -4l-13 32q50 19 88 19q42 0 68.5 -22t26.5 -56q0 -29 -21 -46t-57 -17q-19 0 -31 1v-39z" />
<glyph unicode="&#x1edf;" horiz-adv-x="508" d="M426 343l30 102l69 -21l-62 -148q11 -38 11 -69q0 -92 -63.5 -155.5t-155.5 -63.5t-156 63.5t-64 154.5t63.5 154.5t155.5 63.5q108 0 172 -81zM254 359q-63 0 -104.5 -43t-41.5 -108q0 -68 40.5 -111.5t104.5 -43.5q65 0 106.5 43t41.5 110t-41.5 110t-105.5 43z M266 496h-40v61q23 5 31 5q32 5 44 13t12 26q0 41 -53 41q-19 0 -47 -14l-8 -4l-13 32q49 19 88 19q42 0 68.5 -22t26.5 -56q0 -29 -21 -46t-57 -17q-19 0 -31 1v-39z" />
<glyph unicode="&#x1ee0;" horiz-adv-x="778" d="M630 581l42 126l76 -24l-77 -149q65 -90 65 -202q0 -141 -102.5 -242.5t-244.5 -101.5q-143 0 -245 100.5t-102 242.5q0 143 102.5 245t245.5 102q137 0 240 -97zM389 608q-112 0 -192 -80t-80 -191q0 -123 85 -203q81 -76 185 -76q114 0 194 80t80 195 q0 114 -79.5 194.5t-192.5 80.5zM284 746l-42 34q36 71 88 71q24 0 64 -21q40 -20 55 -20q25 0 46 43l43 -33q-35 -72 -92 -72q-26 0 -65 21q-39 20 -56 20q-12 0 -20 -8.5t-21 -34.5z" />
<glyph unicode="&#x1ee1;" horiz-adv-x="508" d="M426 343l30 102l69 -21l-62 -148q11 -38 11 -69q0 -92 -63.5 -155.5t-155.5 -63.5t-156 63.5t-64 154.5t63.5 154.5t155.5 63.5q108 0 172 -81zM254 359q-63 0 -104.5 -43t-41.5 -108q0 -68 40.5 -111.5t104.5 -43.5q65 0 106.5 43t41.5 110t-41.5 110t-105.5 43z M154 506l-41 34q12 34 34.5 52.5t51.5 18.5q27 0 62 -21q33 -20 46 -20q14 0 24.5 9.5t22.5 33.5l42 -32q-14 -34 -37.5 -53.5t-51.5 -19.5q-21 0 -56 21q-39 21 -54 21q-29 0 -43 -44z" />
<glyph unicode="&#x1ee2;" horiz-adv-x="778" d="M630 581l42 126l76 -24l-77 -149q65 -90 65 -202q0 -141 -102.5 -242.5t-244.5 -101.5q-143 0 -245 100.5t-102 242.5q0 143 102.5 245t245.5 102q137 0 240 -97zM389 608q-112 0 -192 -80t-80 -191q0 -123 85 -203q81 -76 185 -76q114 0 194 80t80 195 q0 114 -79.5 194.5t-192.5 80.5zM389 -60q21 0 36 -15t15 -36t-15 -36t-36 -15t-36 15t-15 37q0 20 15 35t36 15z" />
<glyph unicode="&#x1ee3;" horiz-adv-x="508" d="M426 343l30 102l69 -21l-62 -148q11 -38 11 -69q0 -92 -63.5 -155.5t-155.5 -63.5t-156 63.5t-64 154.5t63.5 154.5t155.5 63.5q108 0 172 -81zM254 359q-63 0 -104.5 -43t-41.5 -108q0 -68 40.5 -111.5t104.5 -43.5q65 0 106.5 43t41.5 110t-41.5 110t-105.5 43z M254 -60q21 0 36 -15t15 -36t-15 -36t-36 -15t-36 15t-15 37q0 20 15 35t36 15z" />
<glyph unicode="&#x1ee4;" horiz-adv-x="635" d="M155 667v-409q0 -90 22 -128q20 -32 59 -52t82 -20t81.5 20t58.5 52q22 38 22 128v409h75v-429q0 -102 -44 -158q-33 -43 -84.5 -67.5t-108.5 -24.5q-58 0 -110 24.5t-84 67.5q-44 56 -44 158v429h75zM318 -60q21 0 36 -15t15 -36t-15 -36t-36 -15t-36 15t-15 37 q0 20 15 35t36 15z" />
<glyph unicode="&#x1ee5;" horiz-adv-x="457" d="M135 415v-242q0 -52 13 -78q23 -42 81 -42q57 0 80 42q13 26 13 78v242h71v-250q0 -83 -38 -125q-46 -52 -126 -52q-81 0 -127 52q-38 42 -38 125v250h71zM229 -60q21 0 36 -15t15 -36t-15 -36t-36 -15t-36 15t-15 37q0 20 15 35t36 15z" />
<glyph unicode="&#x1ee6;" horiz-adv-x="635" d="M155 667v-409q0 -90 22 -128q20 -32 59 -52t82 -20t81.5 20t58.5 52q22 38 22 128v409h75v-429q0 -102 -44 -158q-33 -43 -84.5 -67.5t-108.5 -24.5q-58 0 -110 24.5t-84 67.5q-44 56 -44 158v429h75zM341 753h-40v61q23 5 31 5q32 5 44 13t12 26q0 41 -53 41 q-19 0 -47 -14l-8 -4l-13 32q50 19 88 19q42 0 68.5 -22t26.5 -56q0 -29 -21 -46t-57 -17q-19 0 -31 1v-39z" />
<glyph unicode="&#x1ee7;" horiz-adv-x="457" d="M135 415v-242q0 -52 13 -78q23 -42 81 -42q57 0 80 42q13 26 13 78v242h71v-250q0 -83 -38 -125q-46 -52 -126 -52q-81 0 -127 52q-38 42 -38 125v250h71zM252 496h-40v61q23 5 31 5q32 5 44 13t12 26q0 41 -53 41q-19 0 -47 -14l-8 -4l-13 32q49 19 88 19q42 0 68.5 -22 t26.5 -56q0 -29 -21 -46t-57 -17q-19 0 -31 1v-39z" />
<glyph unicode="&#x1ee8;" horiz-adv-x="635" d="M155 667v-409q0 -90 22 -128q20 -32 59 -52t82 -20t81.5 20t58.5 52q22 38 22 128v409h75v-429q0 -102 -44 -158q-33 -43 -84.5 -67.5t-108.5 -24.5q-58 0 -110 24.5t-84 67.5q-44 56 -44 158v429h75zM648 707l76 -24l-78 -152l-51 16zM466 837l-144 -117l-43 32l120 130 z" />
<glyph unicode="&#x1ee9;" horiz-adv-x="457" d="M135 415v-242q0 -52 13 -78q23 -42 81 -42q57 0 80 42q13 26 13 78v242h71v-250q0 -83 -38 -125q-46 -52 -126 -52q-81 0 -127 52q-38 42 -38 125v250h71zM466 442l69 -21l-65 -153l-51 15zM365 623l-135 -136l-44 25l105 144z" />
<glyph unicode="&#x1eea;" horiz-adv-x="635" d="M155 667v-409q0 -90 22 -128q20 -32 59 -52t82 -20t81.5 20t58.5 52q22 38 22 128v409h75v-429q0 -102 -44 -158q-33 -43 -84.5 -67.5t-108.5 -24.5q-58 0 -110 24.5t-84 67.5q-44 56 -44 158v429h75zM648 707l76 -24l-78 -152l-51 16zM169 837l67 45l120 -130l-43 -32z " />
<glyph unicode="&#x1eeb;" horiz-adv-x="457" d="M135 415v-242q0 -52 13 -78q23 -42 81 -42q57 0 80 42q13 26 13 78v242h71v-250q0 -83 -38 -125q-46 -52 -126 -52q-81 0 -127 52q-38 42 -38 125v250h71zM466 442l69 -21l-65 -153l-51 15zM92 623l74 33l106 -144l-45 -25z" />
<glyph unicode="&#x1eec;" horiz-adv-x="635" d="M155 667v-409q0 -90 22 -128q20 -32 59 -52t82 -20t81.5 20t58.5 52q22 38 22 128v409h75v-429q0 -102 -44 -158q-33 -43 -84.5 -67.5t-108.5 -24.5q-58 0 -110 24.5t-84 67.5q-44 56 -44 158v429h75zM648 707l76 -24l-78 -152l-51 16zM329 753h-40v61q23 5 31 5 q32 5 44 13t12 26q0 41 -53 41q-19 0 -47 -14l-8 -4l-13 32q50 19 88 19q42 0 68.5 -22t26.5 -56q0 -29 -21 -46t-57 -17q-19 0 -31 1v-39z" />
<glyph unicode="&#x1eed;" horiz-adv-x="457" d="M135 415v-242q0 -52 13 -78q23 -42 81 -42q57 0 80 42q13 26 13 78v242h71v-250q0 -83 -38 -125q-46 -52 -126 -52q-81 0 -127 52q-38 42 -38 125v250h71zM466 442l69 -21l-65 -153l-51 15zM240 496h-40v61q23 5 31 5q32 5 44 13t12 26q0 41 -53 41q-19 0 -47 -14l-8 -4 l-13 32q49 19 88 19q42 0 68.5 -22t26.5 -56q0 -29 -21 -46t-57 -17q-19 0 -31 1v-39z" />
<glyph unicode="&#x1eee;" horiz-adv-x="635" d="M155 667v-409q0 -90 22 -128q20 -32 59 -52t82 -20t81.5 20t58.5 52q22 38 22 128v409h75v-429q0 -102 -44 -158q-33 -43 -84.5 -67.5t-108.5 -24.5q-58 0 -110 24.5t-84 67.5q-44 56 -44 158v429h75zM648 707l76 -24l-78 -152l-51 16zM213 746l-43 34q36 71 89 71 q23 0 64 -21q39 -20 55 -20q25 0 45 43l43 -33q-34 -72 -91 -72q-26 0 -65 21q-40 20 -56 20q-12 0 -20 -8.5t-21 -34.5z" />
<glyph unicode="&#x1eef;" horiz-adv-x="457" d="M135 415v-242q0 -52 13 -78q23 -42 81 -42q57 0 80 42q13 26 13 78v242h71v-250q0 -83 -38 -125q-46 -52 -126 -52q-81 0 -127 52q-38 42 -38 125v250h71zM466 442l69 -21l-65 -153l-51 15zM129 506l-42 34q27 71 86 71q28 0 62 -21q33 -20 47 -20q26 0 46 43l42 -32 q-13 -34 -36.5 -53.5t-51.5 -19.5q-22 0 -57 21q-38 21 -54 21q-29 0 -42 -44z" />
<glyph unicode="&#x1ef0;" horiz-adv-x="635" d="M155 667v-409q0 -90 22 -128q20 -32 59 -52t82 -20t81.5 20t58.5 52q22 38 22 128v409h75v-429q0 -102 -44 -158q-33 -43 -84.5 -67.5t-108.5 -24.5q-58 0 -110 24.5t-84 67.5q-44 56 -44 158v429h75zM648 707l76 -24l-78 -152l-51 16zM318 -60q21 0 36 -15t15 -36 t-15 -36t-36 -15t-36 15t-15 37q0 20 15 35t36 15z" />
<glyph unicode="&#x1ef1;" horiz-adv-x="457" d="M135 415v-242q0 -52 13 -78q23 -42 81 -42q57 0 80 42q13 26 13 78v242h71v-250q0 -83 -38 -125q-46 -52 -126 -52q-81 0 -127 52q-38 42 -38 125v250h71zM466 442l69 -21l-65 -153l-51 15zM229 -60q21 0 36 -15t15 -36t-15 -36t-36 -15t-36 15t-15 37q0 20 15 35t36 15z " />
<glyph unicode="&#x1ef2;" horiz-adv-x="514" d="M218 287l-218 380h86l170 -298l172 298h87l-222 -380v-287h-75v287zM123 837l67 45l119 -130l-43 -32z" />
<glyph unicode="&#x1ef3;" horiz-adv-x="445" d="M192 39l-191 376h82l147 -297l134 297h81l-307 -649h-80zM103 623l74 33l105 -144l-44 -25z" />
<glyph unicode="&#x1ef4;" horiz-adv-x="514" d="M218 287l-218 380h86l170 -298l172 298h87l-222 -380v-287h-75v287zM257 -60q21 0 36 -15t15 -36t-15 -36t-36 -15t-36 15t-15 37q0 20 15 35t36 15z" />
<glyph unicode="&#x1ef5;" horiz-adv-x="445" d="M192 39l-191 376h82l147 -297l134 297h81l-307 -649h-80zM274 -126q21 0 36 -15t15 -36t-15 -36t-36 -15t-36 15t-15 37q0 20 15 35t36 15z" />
<glyph unicode="&#x1ef6;" horiz-adv-x="514" d="M218 287l-218 380h86l170 -298l172 298h87l-222 -380v-287h-75v287zM269 753h-40v61q23 5 31 5q32 5 44 13t12 26q0 41 -53 41q-19 0 -47 -14l-8 -4l-13 32q50 19 88 19q42 0 68.5 -22t26.5 -56q0 -29 -21 -46t-57 -17q-19 0 -31 1v-39z" />
<glyph unicode="&#x1ef7;" horiz-adv-x="445" d="M192 39l-191 376h82l147 -297l134 297h81l-307 -649h-80zM235 496h-40v61q23 5 31 5q32 5 44 13t12 26q0 41 -53 41q-19 0 -47 -14l-8 -4l-13 32q49 19 88 19q42 0 68.5 -22t26.5 -56q0 -29 -21 -46t-57 -17q-19 0 -31 1v-39z" />
<glyph unicode="&#x1ef8;" horiz-adv-x="514" d="M218 287l-218 380h86l170 -298l172 298h87l-222 -380v-287h-75v287zM153 746l-43 34q36 71 89 71q23 0 64 -21q39 -20 54 -20q26 0 46 43l43 -33q-35 -72 -92 -72q-25 0 -64 21q-40 20 -56 20q-13 0 -20.5 -8t-20.5 -35z" />
<glyph unicode="&#x1ef9;" horiz-adv-x="445" d="M192 39l-191 376h82l147 -297l134 297h81l-307 -649h-80zM123 506l-41 34q25 71 85 71q28 0 62 -21q34 -20 47 -20q26 0 47 43l41 -32q-13 -34 -36.5 -53.5t-51.5 -19.5q-22 0 -57 21q-38 21 -54 21q-28 0 -42 -44z" />
<glyph unicode="&#x2011;" horiz-adv-x="181" d="M0 245h181v-64h-181v64z" />
<glyph unicode="&#x2012;" horiz-adv-x="567" d="M117 245h333v-64h-333v64z" />
<glyph unicode="&#x2013;" horiz-adv-x="567" d="M117 245h333v-64h-333v64z" />
<glyph unicode="&#x2014;" horiz-adv-x="544" d="M0 245h544v-64h-544v64z" />
<glyph unicode="&#x2015;" horiz-adv-x="544" d="M0 245h544v-64h-544v64z" />
<glyph unicode="&#x2017;" horiz-adv-x="500" d="M0 -58h500v-47h-500v47zM0 -174h500v-48h-500v48z" />
<glyph unicode="&#x2018;" horiz-adv-x="261" d="M122 451l-65 24l100 225l48 -19z" />
<glyph unicode="&#x2019;" horiz-adv-x="228" d="M117 700l65 -24l-100 -225l-48 19z" />
<glyph unicode="&#x201a;" horiz-adv-x="228" d="M117 100l65 -24l-100 -225l-48 19z" />
<glyph unicode="&#x201b;" horiz-adv-x="476" d="M227 489l-47 158l51 16l65 -153z" />
<glyph unicode="&#x201c;" horiz-adv-x="408" d="M269 451l-66 24l101 225l48 -19zM122 451l-65 24l100 225l48 -19z" />
<glyph unicode="&#x201d;" horiz-adv-x="408" d="M140 700l65 -24l-100 -225l-48 19zM286 700l66 -24l-101 -225l-48 19z" />
<glyph unicode="&#x201e;" horiz-adv-x="408" d="M140 98l65 -24l-100 -226l-48 19zM286 98l66 -24l-101 -226l-48 19z" />
<glyph unicode="&#x2020;" horiz-adv-x="543" d="M235 729h72v-164h148v-69h-148v-672h-72v672h-147v69h147v164z" />
<glyph unicode="&#x2021;" horiz-adv-x="543" d="M235 729h73v-164h147v-69h-147v-302h147v-69h-147v-301h-73v301h-147v69h147v302h-147v69h147v164z" />
<glyph unicode="&#x2022;" horiz-adv-x="667" d="M336 480q56 0 95.5 -41t39.5 -99t-40 -99t-97 -41t-97.5 41t-40.5 99t41 99t99 41z" />
<glyph unicode="&#x2026;" horiz-adv-x="746" d="M124 89q20 0 34.5 -14.5t14.5 -34.5q0 -21 -14.5 -35.5t-34.5 -14.5t-34.5 14.5t-14.5 35.5q0 20 14.5 34.5t34.5 14.5zM373 89q20 0 34.5 -14.5t14.5 -34.5q0 -21 -14.5 -35.5t-34.5 -14.5t-34.5 14.5t-14.5 35.5q0 20 14.5 34.5t34.5 14.5zM621 89q20 0 34.5 -14.5 t14.5 -34.5q0 -21 -14.5 -35.5t-34.5 -14.5t-34.5 14.5t-14.5 35.5q0 20 14.5 34.5t34.5 14.5z" />
<glyph unicode="&#x2030;" horiz-adv-x="1067" d="M176 674q62 0 105.5 -42.5t43.5 -103.5t-43.5 -103t-106.5 -42q-62 0 -104.5 43t-42.5 105q0 58 44 100.5t104 42.5zM177 619q-37 0 -63.5 -26t-26.5 -63q0 -38 26 -64.5t64 -26.5q37 0 63 26.5t26 63.5t-26 63.5t-63 26.5zM527 680l39 -22l-389 -671l-38 23zM528 284 q62 0 105.5 -42.5t43.5 -103.5t-43.5 -103t-106.5 -42q-62 0 -104.5 43t-42.5 105q0 59 43.5 101t104.5 42zM528 229q-36 0 -62.5 -26t-26.5 -63q0 -38 26 -64.5t64 -26.5q37 0 63 26.5t26 63.5t-26 63.5t-64 26.5zM890 284q62 0 105.5 -42.5t43.5 -103.5t-43.5 -103 t-106.5 -42q-62 0 -104.5 43t-42.5 105q0 58 44 100.5t104 42.5zM890 229q-36 0 -62.5 -26t-26.5 -63q0 -38 26 -64.5t64 -26.5q37 0 63 26.5t26 63.5t-26 63.5t-64 26.5z" />
<glyph unicode="&#x2039;" horiz-adv-x="282" d="M114 213l119 -147l-47 -37l-149 184l149 187l47 -36z" />
<glyph unicode="&#x203a;" horiz-adv-x="282" d="M169 213l-119 151l47 36l149 -187l-150 -184l-46 37z" />
<glyph unicode="&#x203e;" horiz-adv-x="500" d="M0 864h500v-68h-500v68z" />
<glyph unicode="&#x2044;" horiz-adv-x="129" d="M239 680l39 -21l-388 -672l-39 23z" />
<glyph unicode="&#x20a3;" horiz-adv-x="553" d="M398 598h-228v-199h221v-69h-221v-330h-75v667h303v-69zM362 294h60v-35q19 28 32 36.5t35 8.5q21 0 50 -15l-31 -52q-14 10 -28 10q-31 0 -47 -26q-11 -21 -11 -71v-150h-60v294z" />
<glyph unicode="&#x20a4;" horiz-adv-x="553" d="M85 173v57h114q-8 28 -31 73h-83v57h54q-25 48 -32 72t-7 57q0 79 57 133t141 54q85 0 137 -53.5t56 -144.5l-73 -19q-4 47 -11 71q-11 34 -40.5 54t-68.5 20q-53 0 -88 -34t-35 -85q0 -26 7 -46.5t31 -66.5l7 -12h160v-57h-131q18 -34 27 -73h104v-57h-103 q-7 -37 -26 -71q54 -19 58 -21q56 -19 75 -19q23 0 41 14.5t39 51.5l60 -36q-52 -103 -137 -103q-37 0 -111 26q-67 25 -93 25q-45 0 -80 -53l-57 39q52 83 129 85q21 34 26 62h-116z" />
<glyph unicode="&#x20a7;" horiz-adv-x="830" d="M155 292v-292h-75v667h121q114 0 168 -47q62 -52 62 -140t-56.5 -138t-154.5 -50h-65zM155 360h60q68 0 105.5 31.5t37.5 88.5t-37 88q-36 30 -111 30h-55v-238zM508 241v-241h-60v241h-37v53h37v103h60v-103h58v-53h-58zM802 248l-52 -26q-15 28 -40 28q-13 0 -22 -8 t-9 -19q0 -12 10 -20t38 -19q52 -20 71.5 -39.5t19.5 -53.5q0 -42 -31.5 -70.5t-77.5 -28.5q-78 0 -110 77l51 23q14 -26 26.5 -36t33.5 -10q19 0 31.5 11.5t12.5 29.5q0 16 -10 25t-39 20q-50 20 -68.5 38t-18.5 49q0 37 26.5 61t67.5 24q61 0 90 -56z" />
<glyph unicode="&#x20ab;" d="M379 729h71v-93h60v-63h-60v-573h-71v57q-57 -69 -144 -69q-86 0 -143 62.5t-57 157.5q0 94 56 155t142 61q87 0 146 -68v217h-121v63h121v93zM245 359q-58 0 -97.5 -43t-39.5 -106q0 -68 38.5 -112.5t97.5 -44.5q62 0 101 43.5t39 111.5q0 67 -39 109t-100 42zM46 -64 h423v-69h-423v69z" />
<glyph unicode="&#x20ac;" horiz-adv-x="553" d="M13 420h56q31 113 125.5 185t213.5 72q59 0 128 -27v-79q-73 36 -133 36q-87 0 -155.5 -50.5t-100.5 -136.5h334l-37 -57h-310q-2 -28 -2 -34q0 -17 3 -40h261l-36 -57h-210q31 -79 100.5 -126.5t152.5 -47.5q61 0 133 36v-79q-72 -27 -132 -27q-114 0 -206 67.5 t-126 176.5h-95l36 57h47q-3 24 -3 40q0 15 2 34h-82z" />
<glyph unicode="&#x2101;" horiz-adv-x="900" d="M291 378h-173l-49 -111h-58l196 423l190 -423h-58zM270 425l-64 146l-66 -146h130zM692 680l38 -21l-388 -672l-38 23zM857 341l-42 -27q-16 25 -30.5 34.5t-38.5 9.5q-28 0 -46.5 -16.5t-18.5 -40.5q0 -23 24 -40q15 -9 72 -33q51 -21 73 -47t22 -64q0 -52 -39 -88 t-96 -36q-51 0 -85 27.5t-47 79.5l52 14q16 -73 82 -73q34 0 57 21.5t23 52.5q0 33 -33 53q-16 9 -72 34q-86 35 -86 99q0 45 34 75t85 30q72 0 110 -65z" />
<glyph unicode="&#x2105;" horiz-adv-x="931" d="M385 652v-94q-34 37 -63 52.5t-67 15.5q-63 0 -105 -44t-42 -109t41.5 -109t103.5 -44q40 0 70 16t65 56v-94q-69 -43 -133 -43q-93 0 -156.5 62.5t-63.5 154.5q0 93 63.5 156t157.5 63q69 0 129 -39zM677 424q92 0 155.5 -63t63.5 -155t-63.5 -155t-156.5 -63 q-92 0 -155 64t-63 158q0 88 64.5 151t154.5 63zM676 359q-62 0 -103.5 -43t-41.5 -108q0 -68 40.5 -111.5t103.5 -43.5q65 0 106.5 43t41.5 110t-41.5 110t-105.5 43zM559 680l42 -21l-269 -672l-43 23z" />
<glyph unicode="&#x2113;" horiz-adv-x="500" d="M249 269q-33 -170 -33 -208q0 -25 18 -25q26 0 51 55q8 18 19 18q13 0 13 -15q0 -24 -26 -60q-36 -48 -76 -48q-31 0 -49 23.5t-18 64.5q0 36 10 127q-41 -38 -49 -38q-5 0 -9.5 5t-4.5 11q0 10 20 27q20 16 50 52q36 190 82 301q47 120 115 120q29 0 46 -22t17 -59 q0 -84 -61 -187q-32 -55 -115 -142zM260 334q59 64 92 132.5t33 126.5q0 45 -23 45q-11 0 -22.5 -12.5t-18.5 -31.5q-28 -77 -61 -260z" />
<glyph unicode="&#x2116;" horiz-adv-x="1104" d="M87 0v672h38l498 -541v536h72v-679h-38l-498 536v-524h-72zM950 456q66 0 109.5 -42t43.5 -106t-43.5 -106.5t-109.5 -42.5q-68 0 -111 42t-43 109q0 62 44 104t110 42zM950 400q-41 0 -67 -25.5t-26 -65.5q0 -42 25 -68t66 -26q42 0 68 26t26 67q0 40 -26 66t-66 26z M795 51v59h308v-59h-308z" />
<glyph unicode="&#x2117;" horiz-adv-x="740" d="M362 284v-168h-61v413h74q68 0 101 -30q36 -36 36 -93q0 -56 -33 -89t-91 -33h-26zM362 339h22q32 0 50 18t18 50q0 66 -68 66h-22v-134zM375 678q139 0 239 -102t100 -242q0 -143 -100.5 -244t-243.5 -101q-144 0 -244.5 101t-100.5 246q0 142 102 242t248 100zM374 622 q-132 0 -219 -96q-74 -82 -74 -190q0 -122 84 -206.5t205 -84.5q119 0 203.5 84.5t84.5 204.5q0 117 -84.5 202.5t-199.5 85.5z" />
<glyph unicode="&#x2122;" horiz-adv-x="710" d="M137 622v-335h-48v335h-90v45h230v-45h-92zM265 287l65 405l143 -316l147 316l61 -405h-47l-34 258l-127 -277l-125 277l-37 -258h-46z" />
<glyph unicode="&#x2126;" horiz-adv-x="667" d="M28 0v66h178q-178 104 -178 298q0 136 88 228t217 92t217 -92t88 -228q0 -194 -178 -298h178v-66h-261v60q70 40 107 82q78 90 78 213q0 118 -78 197q-65 65 -150 65q-98 0 -164 -75t-66 -187q0 -192 185 -295v-60h-261z" />
<glyph unicode="&#x212e;" horiz-adv-x="597" d="M531 250h-373l-1 -105q16 -52 40 -72q38 -35 107 -35q120 0 168 104h44q-46 -148 -213 -148q-109 0 -170.5 69t-61.5 191q0 123 63 195.5t170 72.5q72 0 126.5 -34t79.5 -94q18 -47 21 -144zM458 285v93q-8 24 -23 41q-50 59 -131 59q-54 0 -86.5 -22.5t-57.5 -77.5v-93 h298z" />
<glyph unicode="&#x2202;" horiz-adv-x="510" d="M89 604l10 66q85 -11 142.5 -35.5t105.5 -70.5q61 -57 94.5 -140t33.5 -178q0 -98 -41 -160q-30 -46 -77 -71.5t-101 -25.5q-91 0 -156 66.5t-65 158.5t60.5 156t148.5 64q47 0 79.5 -16t65.5 -56l-6 16q-23 61 -54 99t-81 70q-45 27 -77.5 38.5t-81.5 18.5zM260 377 q-63 0 -106 -48t-43 -118q0 -67 42.5 -115.5t101.5 -48.5q61 0 102.5 49t41.5 121q0 69 -39.5 114.5t-99.5 45.5z" />
<glyph unicode="&#x2205;" horiz-adv-x="618" d="M439 667l48 -25l-48 -88q113 -80 113 -204q0 -102 -72 -172.5t-176 -70.5q-46 0 -79 16l-63 -123l-48 25l61 122q-108 80 -108 202q0 102 71 172.5t173 70.5q39 0 81 -14zM416 502l-165 -330q32 -8 58 -8q77 0 132 54.5t55 130.5q0 47 -21.5 89t-58.5 64zM200 198 l166 329q-28 8 -54 8q-78 0 -133.5 -54.5t-55.5 -130.5q0 -90 77 -152z" />
<glyph unicode="&#x2206;" horiz-adv-x="667" d="M27 0l265 667h80l268 -667h-613zM135 70h396l-198 506z" />
<glyph unicode="&#x220f;" horiz-adv-x="700" d="M37 750h627v-70h-80v-700h80v-70h-237v70h82v700h-318v-700h82v-70h-236v70h79v700h-79v70z" />
<glyph unicode="&#x2211;" horiz-adv-x="667" d="M599 750v-229h-68l-7 158h-412l252 -329l-252 -370h421l4 158h72v-228h-581v79l248 361l-248 322v78h571z" />
<glyph unicode="&#x2212;" horiz-adv-x="556" d="M43 310v61h471v-61h-471z" />
<glyph unicode="&#x2218;" horiz-adv-x="500" d="M253 480q56 0 95.5 -41t39.5 -99t-40 -99t-97 -41t-97.5 41t-40.5 99t40.5 99t99.5 41zM252 433q-39 0 -65.5 -27t-26.5 -66q0 -38 27 -65.5t64 -27.5t63.5 27.5t26.5 65.5t-26 65.5t-63 27.5z" />
<glyph unicode="&#x2219;" horiz-adv-x="225" d="M112 263q21 0 35.5 -14.5t14.5 -34.5q0 -21 -14.5 -35.5t-34.5 -14.5q-21 0 -35.5 14.5t-14.5 35.5q0 20 14.5 34.5t34.5 14.5z" />
<glyph unicode="&#x221a;" horiz-adv-x="667" d="M667 829v-70h-196l-213 -759h-93l-81 298h-84v70h145l36 -127q3 -10 28 -139h6l4 20q9 43 29 129q6 28 10 43q13 49 41 149l108 386h260z" />
<glyph unicode="&#x221e;" horiz-adv-x="667" d="M335 290q-75 -104 -165 -104q-67 0 -109.5 43.5t-42.5 111.5q0 67 43 110t110 43q90 0 161 -103q70 103 165 103q67 0 109 -43.5t42 -111.5q0 -67 -42.5 -110t-107.5 -43q-93 0 -163 104zM371 340q31 -49 58 -69.5t60 -20.5q37 0 61 25.5t24 64.5t-24.5 64.5t-61.5 25.5 q-32 0 -58.5 -20.5t-58.5 -69.5zM295 340q-56 90 -118 90q-37 0 -61 -25.5t-24 -64.5t24.5 -64.5t61.5 -25.5q32 0 59 20.5t58 69.5z" />
<glyph unicode="&#x222b;" horiz-adv-x="500" d="M94 -239l16 67q26 -11 46 -11q47 0 54 46q3 20 3 76v609q0 97 9 127q10 35 41.5 55t75.5 20q29 0 68 -10l-16 -67q-27 9 -46 9q-47 0 -54 -45q-2 -12 -3 -109v-576q0 -77 -4 -104.5t-17 -47.5q-32 -49 -114 -49q-34 0 -59 10z" />
<glyph unicode="&#x223c;" horiz-adv-x="566" d="M87 263l-44 29q52 116 137 116q39 0 112 -34q69 -32 97 -32t47.5 14.5t42.5 53.5l45 -27q-29 -59 -63.5 -86t-81.5 -27q-21 0 -46 9t-94 39q-37 18 -64 18q-26 0 -46 -16.5t-42 -56.5z" />
<glyph unicode="&#x2243;" horiz-adv-x="566" d="M87 347l-44 29q29 61 61.5 88.5t75.5 27.5q37 0 112 -34q70 -32 96 -32q28 0 48 15t43 53l45 -27q-29 -59 -63.5 -86t-81.5 -27q-21 0 -46.5 8.5t-93.5 39.5q-39 18 -64 18q-49 0 -88 -73zM524 297v-59h-481v59h481z" />
<glyph unicode="&#x2248;" horiz-adv-x="566" d="M87 347l-44 29q29 61 61.5 88.5t75.5 27.5q37 0 112 -34q70 -32 96 -32q28 0 48 15t43 53l45 -27q-29 -59 -63.5 -86t-81.5 -27q-21 0 -46.5 8.5t-93.5 39.5q-39 18 -64 18q-49 0 -88 -73zM87 179l-44 29q28 61 61 88.5t77 27.5q38 0 111 -34q69 -32 97 -32t48 15t42 53 l45 -27q-29 -59 -63.5 -86t-81.5 -27q-21 0 -46 9t-94 39q-37 18 -64 18q-49 0 -88 -73z" />
<glyph unicode="&#x2260;" horiz-adv-x="556" d="M293 431l62 130l51 -21l-52 -109h160v-58h-187l-32 -66h219v-58h-247l-65 -138l-52 21l56 117h-163v58h190l32 66h-222v58h250z" />
<glyph unicode="&#x2264;" horiz-adv-x="500" d="M466 612v-72l-353 -156l353 -157v-71l-433 194v65zM466 126v-70h-433v70h433z" />
<glyph unicode="&#x2265;" horiz-adv-x="500" d="M33 156v71l353 157l-353 156v72l433 -197v-65zM33 56v70h433v-70h-433z" />
<glyph unicode="&#xe000;" horiz-adv-x="415" d="M0 415h415v-415h-415v415z" />
<glyph unicode="&#xf6be;" horiz-adv-x="200" d="M135 415v-649h-71v649h71z" />
</font>
</defs>
</svg>
