<?xml version="1.0" standalone="no"?>
<!DOCTYPE svg PUBLIC "-//W3C//DTD SVG 1.1//EN" "http://www.w3.org/Graphics/SVG/1.1/DTD/svg11.dtd" >
<svg xmlns="http://www.w3.org/2000/svg">
<metadata></metadata>
<defs>
<font id="louis_vuittonmedium_oblique" horiz-adv-x="532" >
<font-face units-per-em="1000" ascent="729" descent="-271" />
<missing-glyph horiz-adv-x="250" />
<glyph unicode="ff" horiz-adv-x="543" d="M179 318l-39 -318h-95l39 318h-62l11 89h62l22 182q10 77 42 109q34 32 85 32q34 0 81 -22l-10 -84q-26 22 -50 22q-26 0 -38 -18t-18 -66l-19 -155h54l-11 -89h-54zM423 318l-39 -318h-96l39 318h-53l11 89h53l23 182q8 75 42 109q32 32 85 32q33 0 80 -22l-10 -84 q-26 22 -49 22q-26 0 -38 -18t-18 -66l-19 -155h86l-11 -89h-86z" />
<glyph unicode="fi" horiz-adv-x="472" d="M179 318l-39 -318h-95l39 318h-62l11 89h62l22 182q10 77 42 109q34 32 85 32q34 0 81 -22l-10 -84q-26 22 -50 22q-26 0 -38 -18t-18 -66l-19 -155h87l-11 -89h-87zM404 654q22 0 37.5 -16t15.5 -37t-15 -36t-36 -15t-36.5 15.5t-15.5 37.5q0 21 15 36t35 15zM427 407 l-50 -407h-95l50 407h95z" />
<glyph unicode="fl" horiz-adv-x="472" d="M179 318l-39 -318h-95l39 318h-62l11 89h62l22 182q10 77 42 109q34 32 85 32q34 0 81 -22l-10 -84q-26 22 -50 22q-26 0 -38 -18t-18 -66l-19 -155h87l-11 -89h-87zM467 729l-90 -729h-95l90 729h95z" />
<glyph unicode="ffi" horiz-adv-x="715" d="M179 318l-39 -318h-95l39 318h-62l11 89h62l22 182q10 77 42 109q34 32 85 32q34 0 81 -22l-10 -84q-26 22 -50 22q-26 0 -38 -18t-18 -66l-19 -155h54l-11 -89h-54zM423 318l-39 -318h-96l39 318h-53l11 89h53l23 182q8 75 42 109q32 32 85 32q33 0 80 -22l-10 -84 q-26 22 -49 22q-26 0 -38 -18t-18 -66l-19 -155h86l-11 -89h-86zM647 654q22 0 37.5 -16t15.5 -37t-15.5 -36t-35.5 -15q-21 0 -36.5 15.5t-15.5 37.5q0 21 15 36t35 15zM670 407l-50 -407h-95l50 407h95z" />
<glyph unicode="ffl" horiz-adv-x="715" d="M179 318l-39 -318h-95l39 318h-62l11 89h62l22 182q10 77 42 109q34 32 85 32q34 0 81 -22l-10 -84q-26 22 -50 22q-26 0 -38 -18t-18 -66l-19 -155h54l-11 -89h-54zM423 318l-39 -318h-96l39 318h-53l11 89h53l23 182q8 75 42 109q32 32 85 32q33 0 80 -22l-10 -84 q-26 22 -49 22q-26 0 -38 -18t-18 -66l-19 -155h86l-11 -89h-86zM710 729l-90 -729h-95l90 729h95z" />
<glyph unicode=" "  horiz-adv-x="250" />
<glyph unicode="&#x09;" horiz-adv-x="250" />
<glyph unicode="&#xa0;" horiz-adv-x="250" />
<glyph unicode="!" horiz-adv-x="276" d="M116 108q25 0 41.5 -17t16.5 -43q0 -25 -16.5 -41.5t-40.5 -16.5q-25 0 -42 17.5t-17 43.5q0 24 16.5 40.5t41.5 16.5zM237 667l-60 -492h-95l61 492h94z" />
<glyph unicode="&#x22;" horiz-adv-x="356" d="M156 399h-70l15 268h107zM311 399h-70l14 268h107z" />
<glyph unicode="#" horiz-adv-x="540" d="M541 479l-9 -76h-101l-22 -123h95l-9 -76h-101l-38 -207l-75 10l36 197h-114l-39 -207l-76 10l37 198h-99l9 75h105l23 123h-100l9 76h105l36 194l75 -10l-34 -184h113l37 194l75 -10l-35 -184h97zM353 403h-113l-23 -123h114z" />
<glyph unicode="$" horiz-adv-x="567" d="M297 -11l-13 -102h-73l12 104q-112 17 -173 133l75 51q26 -53 58.5 -76t81.5 -23q50 0 80 29t30 78q0 38 -21 62t-88 62q-76 43 -105 83.5t-29 100.5q0 77 48 128.5t128 60.5l11 87h73l-11 -92q77 -20 125 -94l-65 -62q-45 73 -112 73q-41 0 -71 -28.5t-30 -68.5 q0 -34 21.5 -59t76.5 -56q79 -44 108 -79q38 -49 38 -118q0 -80 -47 -132t-128 -62z" />
<glyph unicode="%" horiz-adv-x="709" d="M205 677q49 0 78.5 -40.5t29.5 -107.5q0 -88 -37.5 -145t-94.5 -57q-52 0 -81.5 40.5t-29.5 109.5q0 85 39 142.5t96 57.5zM206 624q-33 0 -56 -44.5t-23 -107.5q0 -43 14 -67.5t38 -24.5q33 0 55.5 43.5t22.5 107.5q0 43 -13.5 68t-37.5 25zM625 659l-475 -679l-40 28 l475 679zM555 340q49 0 78.5 -40.5t29.5 -107.5q0 -88 -37.5 -145t-94.5 -57q-51 0 -81 40.5t-30 109.5q0 85 39 142.5t96 57.5zM555 287q-32 0 -55 -44.5t-23 -108.5q0 -43 13.5 -67t38.5 -24q32 0 54.5 43.5t22.5 106.5q0 44 -13.5 69t-37.5 25z" />
<glyph unicode="&#x26;" horiz-adv-x="623" d="M498 131l91 -131h-114l-50 72q-39 -29 -59 -42q-62 -40 -127 -40q-77 0 -134 58t-57 137q0 86 78 155q21 18 78 55q-50 77 -50 141q0 63 42 102t109 39q70 0 114 -41.5t44 -106.5q0 -101 -132 -160l114 -164l77 71l62 -71zM285 438q51 25 71 47t20 51q0 28 -18.5 46 t-46.5 18q-27 0 -46 -20t-19 -49q0 -35 39 -93zM376 143l-126 182q-58 -36 -83 -68.5t-25 -71.5q0 -44 30.5 -75.5t73.5 -31.5q51 0 130 65z" />
<glyph unicode="'" horiz-adv-x="201" d="M156 399h-70l15 268h107z" />
<glyph unicode="(" horiz-adv-x="301" d="M214 -157l-72 -28q-66 170 -66 372q0 283 170 550l68 -38q-83 -137 -120.5 -259t-37.5 -258q0 -162 58 -339z" />
<glyph unicode=")" horiz-adv-x="301" d="M99 709l73 28q65 -171 65 -372q0 -284 -170 -550l-68 38q83 136 120.5 258.5t37.5 258.5q0 161 -58 339z" />
<glyph unicode="*" horiz-adv-x="567" d="M296 616l8 118l83 -11l-21 -115l114 29l16 -82l-117 -16l63 -100l-73 -40l-51 106l-75 -91l-62 57l85 82l-109 43l35 76z" />
<glyph unicode="+" horiz-adv-x="567" d="M66 300v80h191v184h81v-184h191v-80h-191v-188h-81v188h-191z" />
<glyph unicode="," horiz-adv-x="243" d="M164 123l-152 -254l-59 32l137 263z" />
<glyph unicode="-" horiz-adv-x="187" d="M189 248l-9 -76h-187l9 76h187z" />
<glyph unicode="." horiz-adv-x="243" d="M97 107q25 0 43 -17.5t18 -42.5q0 -23 -17.5 -40t-40.5 -17q-24 0 -41 17.5t-17 42.5t16 41t39 16z" />
<glyph unicode="/" horiz-adv-x="423" d="M449 710l-412 -904l-67 31l412 902z" />
<glyph unicode="0" horiz-adv-x="567" d="M323 677q94 0 149.5 -78.5t55.5 -210.5q0 -164 -74 -289q-30 -52 -77.5 -80.5t-103.5 -28.5q-98 0 -154.5 78.5t-56.5 214.5q0 166 75.5 280t185.5 114zM323 588q-70 0 -117.5 -91.5t-47.5 -225.5q0 -90 29.5 -141t81.5 -51q36 0 67.5 24.5t50.5 67.5q45 98 45 221 q0 92 -29 144t-80 52z" />
<glyph unicode="1" horiz-adv-x="567" d="M392 667l-82 -667h-99l71 575h-131l45 92h196z" />
<glyph unicode="2" horiz-adv-x="567" d="M469 92l-12 -92h-431l266 293q65 72 78 87.5t24 36.5q16 30 16 64q0 50 -29 78t-80 28q-56 0 -84.5 -32.5t-34.5 -105.5h-94q7 98 41 147q56 81 175 81q92 0 147 -53.5t55 -141.5q0 -57 -23 -99t-99 -124l-154 -167h239z" />
<glyph unicode="3" horiz-adv-x="567" d="M54 166h92q14 -87 109 -87q55 0 89 32.5t34 85.5q0 103 -133 104l11 88q9 -1 24 -1q50 0 78 29.5t28 82.5q0 40 -24 63.5t-64 23.5q-46 0 -70 -26t-29 -82h-87q6 88 41 132q53 66 155 66q80 0 127 -46t47 -125q0 -59 -26 -97t-82 -63q100 -39 100 -153q0 -91 -60.5 -147 t-158.5 -56q-111 0 -167 77q-27 38 -34 99z" />
<glyph unicode="4" horiz-adv-x="567" d="M423 123l-16 -123h-98l16 123h-311l485 616l-65 -531h62l-11 -85h-62zM335 208l29 235l-180 -235h151z" />
<glyph unicode="5" horiz-adv-x="567" d="M497 667l-11 -92h-205l-44 -134q28 6 53 6q91 0 143 -57.5t52 -157.5q0 -109 -64.5 -175.5t-170.5 -66.5q-74 0 -127.5 30.5t-94.5 95.5l69 56q38 -52 71.5 -72.5t80.5 -20.5q64 0 102 42.5t38 113.5q0 63 -36 99t-98 36q-63 0 -145 -47l111 344h276z" />
<glyph unicode="6" horiz-adv-x="567" d="M420 637l-151 -204q34 7 56 7q86 0 138 -54.5t52 -144.5q0 -105 -71 -178t-173 -73q-94 0 -156.5 62t-62.5 155t86 209l208 279zM296 358q-61 0 -104.5 -45.5t-43.5 -109.5q0 -57 33.5 -90.5t89.5 -33.5q63 0 105.5 43.5t42.5 108.5q0 56 -34.5 91.5t-88.5 35.5z" />
<glyph unicode="7" horiz-adv-x="567" d="M593 667l-457 -679l-79 48l365 539h-322l12 92h481z" />
<glyph unicode="8" horiz-adv-x="567" d="M403 355q35 -20 53 -42q40 -50 40 -122q0 -88 -60 -144.5t-152 -56.5q-95 0 -154.5 54.5t-59.5 141.5q0 127 128 178q-77 53 -77 137q0 78 54.5 127t142.5 49q83 0 133.5 -48t50.5 -127q0 -52 -23 -86t-76 -61zM314 588q-42 0 -69.5 -26.5t-27.5 -67.5q0 -38 25.5 -62.5 t65.5 -24.5q43 0 70.5 25.5t27.5 66.5q0 40 -25.5 64.5t-66.5 24.5zM286 307q-53 0 -86.5 -33t-33.5 -85q0 -49 32 -79.5t84 -30.5t85 33.5t33 86.5q0 48 -31.5 78t-82.5 30z" />
<glyph unicode="9" horiz-adv-x="567" d="M163 30l151 204q-23 -7 -47 -7q-90 0 -144 55t-54 146q0 105 71.5 177t175.5 72q92 0 153.5 -62t61.5 -156q0 -92 -86 -208l-208 -279zM312 588q-62 0 -104.5 -45.5t-42.5 -112.5q0 -55 33.5 -88t89.5 -33q61 0 104 44t43 107q0 56 -34.5 92t-88.5 36z" />
<glyph unicode=":" horiz-adv-x="243" d="M97 107q25 0 43 -17.5t18 -42.5q0 -23 -17.5 -40t-40.5 -17q-24 0 -41 17.5t-17 42.5t16 41t39 16zM135 420q25 0 43 -17.5t18 -42.5q0 -23 -17.5 -40t-40.5 -17q-24 0 -41 17.5t-17 42.5t16 41t39 16z" />
<glyph unicode=";" horiz-adv-x="243" d="M131 420q25 0 43 -17.5t18 -42.5q0 -23 -17.5 -40t-40.5 -17q-24 0 -41 17.5t-17 42.5t16 41t39 16zM164 123l-152 -254l-59 32l137 263z" />
<glyph unicode="&#x3c;" horiz-adv-x="500" d="M478 592v-99l-327 -155l327 -155v-99l-433 212v85z" />
<glyph unicode="=" horiz-adv-x="567" d="M66 369v74h463v-74h-463zM66 236v74h463v-74h-463z" />
<glyph unicode="&#x3e;" horiz-adv-x="500" d="M46 84v99l327 155l-327 155v99l433 -212v-85z" />
<glyph unicode="?" horiz-adv-x="429" d="M194 107q24 0 41 -17.5t17 -42.5q0 -24 -16.5 -40.5t-39.5 -16.5q-26 0 -43 16.5t-17 41.5t16.5 42t41.5 17zM294 301h90q-7 -63 -31 -94q-42 -53 -118 -53q-65 0 -108 40t-43 101q0 56 37 98q30 37 107 67q55 22 73 37t18 40q0 27 -18.5 45.5t-46.5 18.5q-42 0 -62 -38 q-11 -21 -11 -63h-86q1 79 31 118q45 59 130 59q70 0 112.5 -38.5t42.5 -102.5q0 -51 -31 -88q-26 -29 -89 -53q-65 -25 -89.5 -47t-24.5 -56q0 -26 16.5 -42.5t43.5 -16.5q52 0 57 68z" />
<glyph unicode="@" horiz-adv-x="773" d="M585 508l-27 -227q-3 -24 -3 -45q0 -34 29 -34q38 0 69 53.5t31 120.5q0 107 -74.5 176t-190.5 69q-121 0 -203.5 -82.5t-82.5 -204.5q0 -78 36.5 -143.5t100.5 -102.5q66 -37 157 -37q62 0 107 11.5t111 43.5l23 -60q-119 -58 -240 -58q-115 0 -197 47q-79 45 -125 125 t-46 174q0 146 103 245.5t255 99.5q140 0 233.5 -85.5t93.5 -212.5q0 -97 -51 -168.5t-120 -71.5q-55 0 -76 52q-53 -54 -117 -54q-72 0 -119 51t-47 130q0 84 52.5 140t130.5 56q72 0 118 -56l5 48h64zM404 437q-44 0 -73 -34t-29 -86q0 -46 23 -75.5t59 -29.5 q46 0 81.5 39t35.5 90q0 41 -27.5 68.5t-69.5 27.5z" />
<glyph unicode="A" horiz-adv-x="624" d="M188 157l-81 -157h-108l369 714l230 -714h-103l-48 157h-259zM231 242h188l-72 237z" />
<glyph unicode="B" horiz-adv-x="515" d="M134 667h123q55 0 87.5 -10t57.5 -34q49 -49 49 -125q0 -102 -97 -154q48 -12 74 -34q44 -39 44 -113q0 -55 -25 -101.5t-68 -70.5q-46 -25 -151 -25h-176zM221 575l-24 -200h28q69 0 97 32q30 33 30 86q0 43 -23.5 62.5t-73.5 19.5h-34zM187 296l-25 -204h66 q74 0 102 18q43 29 43 94q0 49 -29 70.5t-97 21.5h-60z" />
<glyph unicode="C" horiz-adv-x="610" d="M614 607l-13 -108q-88 88 -207 88q-106 0 -171.5 -74.5t-65.5 -194.5q0 -113 63 -175.5t177 -62.5q96 0 169 58l-15 -117q-94 -34 -171 -34q-145 0 -233.5 92t-88.5 243q0 154 94 256t237 102q61 0 113 -16.5t112 -56.5z" />
<glyph unicode="D" horiz-adv-x="633" d="M134 667h135q77 0 118 -7.5t77 -28.5q65 -37 102.5 -112.5t37.5 -168.5q0 -109 -50 -197t-133 -125q-61 -28 -200 -28h-169zM221 575l-59 -483h75q77 0 119.5 13t74.5 46q74 77 74 203q0 75 -30 129t-83 76q-39 16 -115 16h-56z" />
<glyph unicode="E" horiz-adv-x="470" d="M477 667l-11 -92h-245l-21 -173h245l-11 -85h-244l-28 -225h245l-12 -92h-343l82 667h343z" />
<glyph unicode="F" horiz-adv-x="436" d="M463 667l-11 -92h-231l-21 -172h231l-10 -85h-231l-39 -318h-99l82 667h329z" />
<glyph unicode="G" horiz-adv-x="710" d="M412 310h267q-11 -116 -55 -186q-84 -137 -248 -137q-139 0 -229 94t-90 239q0 156 96.5 258t244.5 102q165 0 274 -134l-65 -66q-81 107 -211 107q-106 0 -173 -74t-67 -191q0 -106 63 -174t162 -68q72 0 121.5 38.5t63.5 106.5h-165z" />
<glyph unicode="H" horiz-adv-x="633" d="M607 667l-82 -667h-99l40 325h-275l-40 -325h-99l82 667h99l-32 -262h275l32 262h99z" />
<glyph unicode="I" horiz-adv-x="259" d="M233 667l-82 -667h-99l82 667h99z" />
<glyph unicode="J" horiz-adv-x="377" d="M351 667l-59 -480q-13 -112 -54 -155q-40 -45 -115 -45q-77 0 -138 64l51 73q45 -44 83 -44q36 0 53 36.5t30 140.5l50 410h99z" />
<glyph unicode="K" horiz-adv-x="596" d="M233 667l-35 -283l269 283h125l-311 -310l280 -357h-119l-251 325l-40 -325h-99l82 667h99z" />
<glyph unicode="L" horiz-adv-x="381" d="M233 667l-71 -575h189l-12 -92h-287l82 667h99z" />
<glyph unicode="M" horiz-adv-x="859" d="M729 729l55 -729h-94l-30 425l-258 -472l-143 472l-133 -425h-101l231 714l168 -545z" />
<glyph unicode="N" horiz-adv-x="727" d="M701 667l-88 -713l-404 517l-58 -471h-99l87 703l404 -516l59 480h99z" />
<glyph unicode="O" horiz-adv-x="784" d="M412 680q154 0 248 -91.5t94 -241.5q0 -155 -101.5 -257.5t-255.5 -102.5q-150 0 -244.5 96t-94.5 248q0 151 100.5 250t253.5 99zM415 587q-110 0 -184 -73.5t-74 -183.5q0 -108 68.5 -179t173.5 -71q110 0 182.5 76t72.5 191q0 110 -65 175t-174 65z" />
<glyph unicode="P" horiz-adv-x="493" d="M134 667h135q89 0 135 -29q38 -24 59.5 -67t21.5 -94q0 -84 -52 -141q-59 -66 -176 -66h-73l-33 -270h-99zM221 575l-26 -218h64q63 0 93 31q34 34 34 91q0 54 -42 81q-26 15 -80 15h-43z" />
<glyph unicode="Q" horiz-adv-x="785" d="M715 -27h-112l-46 49q-71 -35 -160 -35q-151 0 -245 94.5t-94 246.5q0 153 101 253t255 100q149 0 243 -95t94 -245q0 -164 -125 -273zM366 229h109l90 -95q87 76 87 211q0 109 -64.5 176t-168.5 67q-114 0 -188 -73.5t-74 -186.5q0 -108 68.5 -178.5t173.5 -70.5 q47 0 92 14z" />
<glyph unicode="R" horiz-adv-x="527" d="M316 281l167 -281h-105l-158 274h-36l-33 -274h-99l82 667h131q107 0 154 -40q64 -54 64 -150q0 -90 -59 -144q-36 -34 -108 -52zM221 575l-26 -214h46q81 0 112 34t31 83q0 65 -51 87q-25 10 -70 10h-42z" />
<glyph unicode="S" horiz-adv-x="494" d="M484 582l-66 -63q-26 38 -50.5 53.5t-57.5 15.5q-44 0 -73 -27.5t-29 -68.5q0 -32 20 -55.5t77 -57.5q85 -50 114.5 -90.5t29.5 -107.5q0 -86 -57 -140t-148 -54q-90 0 -152 51q-32 26 -65 85l75 51q31 -53 60.5 -73.5t75.5 -20.5q52 0 82 28t30 78q0 35 -21.5 59.5 t-86.5 62.5q-76 45 -104.5 85t-28.5 101q0 81 56 134t141 53q55 0 95.5 -22.5t82.5 -76.5z" />
<glyph unicode="T" horiz-adv-x="424" d="M307 575l-71 -575h-98l70 575h-159l11 92h411l-11 -92h-153z" />
<glyph unicode="U" horiz-adv-x="658" d="M632 667l-49 -395q-15 -130 -61 -191q-72 -94 -200 -94q-103 0 -171.5 62.5t-68.5 156.5q0 40 6 88l46 373h98l-47 -386q-4 -42 -4 -58q0 -67 37 -105t102 -38q90 0 132 75q24 44 34 131l47 381h99z" />
<glyph unicode="V" horiz-adv-x="591" d="M638 667l-379 -697l-210 697h100l138 -465l245 465h106z" />
<glyph unicode="W" horiz-adv-x="920" d="M967 667l-348 -696l-133 467l-232 -474l-205 703h101l125 -456l234 479l134 -467l218 444h106z" />
<glyph unicode="X" horiz-adv-x="541" d="M341 347l166 -347h-104l-124 265l-184 -265h-116l253 357l-146 310h105l103 -229l156 229h116z" />
<glyph unicode="Y" horiz-adv-x="516" d="M316 299l-37 -299h-99l38 305l-173 362h106l123 -265l175 265h114z" />
<glyph unicode="Z" horiz-adv-x="551" d="M507 92l-11 -92h-491l394 575h-280l11 92h441l-393 -575h329z" />
<glyph unicode="[" horiz-adv-x="310" d="M30 -177l111 906h200l-9 -73h-120l-93 -760h120l-9 -73h-200z" />
<glyph unicode="\" horiz-adv-x="423" d="M94 723l73 16l189 -916l-73 -17z" />
<glyph unicode="]" horiz-adv-x="310" d="M291 729l-111 -906h-200l9 73h120l93 760h-120l9 73h200z" />
<glyph unicode="^" horiz-adv-x="500" d="M133 351h-106l169 319h131l169 -319h-106l-129 239z" />
<glyph unicode="_" horiz-adv-x="500" d="M12 -56h500v-91h-500v91z" />
<glyph unicode="`" horiz-adv-x="500" d="M208 595l70 47l82 -141l-46 -30z" />
<glyph unicode="a" d="M487 407l-50 -407h-95l5 44q-34 -30 -62 -42t-64 -12q-74 0 -127 51q-56 55 -56 146q0 102 58.5 166t151.5 64q44 0 75 -14.5t62 -48.5l7 53h95zM260 337q-53 0 -89.5 -42t-36.5 -103q0 -54 30.5 -88t77.5 -34q53 0 91 43t38 102q0 54 -31 88t-80 34z" />
<glyph unicode="b" horiz-adv-x="542" d="M224 729l-44 -359q39 27 65.5 37t62.5 10q83 0 137 -56.5t54 -144.5q0 -95 -61.5 -160.5t-150.5 -65.5q-84 0 -146 65l-7 -55h-95l90 729h95zM286 337q-56 0 -93 -41.5t-37 -104.5q0 -54 32 -87.5t82 -33.5q55 0 94 42t39 101q0 55 -32.5 89.5t-84.5 34.5z" />
<glyph unicode="c" horiz-adv-x="405" d="M389 368l-11 -97q-29 37 -56.5 53t-62.5 16q-55 0 -89.5 -40t-34.5 -103q0 -58 33 -94t86 -36q50 0 104 43l-12 -100q-59 -23 -106 -23q-89 0 -145 58.5t-56 151.5q0 95 60.5 159t149.5 64q74 0 140 -52z" />
<glyph unicode="d" horiz-adv-x="550" d="M538 729l-89 -729h-96l6 44q-36 -32 -61.5 -43t-63.5 -11q-86 0 -140 57t-54 147q0 96 59.5 159.5t149.5 63.5q46 0 79 -16t68 -56l47 384h95zM265 337q-56 0 -92.5 -42t-36.5 -106q0 -54 31.5 -86.5t83.5 -32.5q60 0 96 49q34 47 34 102q0 52 -32 84t-84 32z" />
<glyph unicode="e" horiz-adv-x="496" d="M451 169h-315q2 -47 32 -74.5t80 -27.5q67 0 102 50l71 -40q-37 -49 -76.5 -69.5t-98.5 -20.5q-95 0 -151 55.5t-56 149.5q0 98 62 163t155 65q90 0 143 -58.5t53 -158.5zM142 246h213q-15 94 -104 94q-85 0 -109 -94z" />
<glyph unicode="f" horiz-adv-x="271" d="M179 318l-39 -318h-95l39 318h-62l11 89h62l22 182q10 77 42 109q34 32 85 32q34 0 81 -22l-10 -84q-26 22 -50 22q-26 0 -38 -18t-18 -66l-19 -155h87l-11 -89h-87z" />
<glyph unicode="g" horiz-adv-x="542" d="M497 407l-50 -411q-8 -65 -20 -99.5t-34 -59.5q-58 -67 -165 -67t-167 62q-23 24 -32.5 52t-9.5 75h92q3 -46 17 -67q26 -42 93 -42q59 0 92 33q29 29 36 97l7 57q-59 -47 -127 -47q-83 0 -137 57t-54 145q0 97 63 161t158 64q43 0 73 -13t64 -47l6 50h95zM265 337 q-56 0 -93.5 -41t-37.5 -104q0 -55 32 -88.5t85 -33.5q59 0 97.5 41t38.5 103q0 55 -33.5 89t-88.5 34z" />
<glyph unicode="h" horiz-adv-x="488" d="M224 729l-44 -357q57 45 116 45t95.5 -31.5t36.5 -81.5q0 -21 -5 -63l-29 -241h-96l31 247q2 26 2 36q0 26 -16.5 40t-47.5 14q-39 0 -69 -28q-29 -29 -37 -96l-27 -213h-95l90 729h95z" />
<glyph unicode="i" horiz-adv-x="229" d="M161 654q22 0 37.5 -16t15.5 -37t-15 -36t-36 -15t-36.5 15.5t-15.5 37.5q0 21 15 36t35 15zM184 407l-50 -407h-95l50 407h95z" />
<glyph unicode="j" horiz-adv-x="233" d="M160 654q22 0 37.5 -16t15.5 -37t-15 -36t-37 -15q-21 0 -36.5 15.5t-15.5 37.5q0 21 15 36t36 15zM184 407l-79 -640h-95l79 640h95z" />
<glyph unicode="k" horiz-adv-x="456" d="M224 729l-59 -480l171 158h127l-213 -186l172 -221h-116l-148 194l-24 -194h-95l90 729h95z" />
<glyph unicode="l" horiz-adv-x="229" d="M224 729l-90 -729h-95l90 729h95z" />
<glyph unicode="m" horiz-adv-x="702" d="M188 407l-5 -38q48 49 112 49q38 0 59 -14.5t37 -51.5q33 35 62.5 50t68.5 15q59 0 90 -28.5t31 -82.5q0 -22 -8 -82l-27 -224h-96l29 235q2 15 5 49q3 53 -54 53q-40 0 -65 -27q-20 -23 -27 -83l-28 -227h-96l30 241q4 36 4 46q0 51 -55 51q-40 0 -66 -31 q-20 -26 -27 -80l-28 -227h-95l50 407h99z" />
<glyph unicode="n" horiz-adv-x="487" d="M184 407l-4 -38q56 48 114 48q66 0 104 -41q27 -30 27 -83q0 -24 -6 -75l-27 -218h-95l29 239q4 34 4 43q0 55 -60 55q-41 0 -69 -28q-19 -19 -28 -42t-15 -71l-24 -196h-95l50 407h95z" />
<glyph unicode="o" d="M269 420q97 0 158 -59.5t61 -153.5q0 -93 -64.5 -156.5t-158.5 -63.5q-98 0 -161.5 60t-63.5 153q0 94 65.5 157t163.5 63zM269 340q-58 0 -95.5 -39t-37.5 -99t35.5 -97.5t91.5 -37.5t92.5 41t36.5 104q0 58 -34 93t-89 35z" />
<glyph unicode="p" horiz-adv-x="542" d="M184 407l-5 -43q61 53 130 53q82 0 135.5 -57t53.5 -143q0 -96 -62 -161.5t-152 -65.5q-45 0 -76.5 15t-66.5 53l-36 -291h-95l79 640h95zM292 337q-58 0 -96.5 -42t-38.5 -105q0 -53 32.5 -86.5t84.5 -33.5q54 0 91 41.5t37 102.5q0 54 -31 88.5t-79 34.5z" />
<glyph unicode="q" horiz-adv-x="544" d="M499 407l-79 -640h-95l33 270q-33 -27 -60.5 -37t-67.5 -10q-84 0 -138 57t-54 146q0 95 62 159.5t153 64.5q47 0 78 -15t65 -53l7 58h96zM267 337q-56 0 -94.5 -41.5t-38.5 -101.5q0 -54 33 -89t85 -35q54 0 92.5 42.5t38.5 101.5q0 53 -33 88t-83 35z" />
<glyph unicode="r" horiz-adv-x="338" d="M184 407l-4 -35q28 26 49 36t49 10q43 0 78 -32l-61 -78q-26 23 -52 23q-37 0 -56 -29.5t-28 -98.5l-25 -203h-95l50 407h95z" />
<glyph unicode="s" horiz-adv-x="357" d="M331 362l-54 -54q-38 35 -70 35q-22 0 -36.5 -12t-14.5 -31q0 -17 12 -29.5t51 -33.5q53 -31 73 -56.5t20 -65.5q0 -58 -40 -93t-107 -35q-49 0 -83 18.5t-65 62.5l62 44q39 -46 83 -46q24 0 39 13t15 33q0 19 -12.5 30t-62.5 39q-45 26 -63 50.5t-18 61.5q0 55 41 91.5 t103 36.5q68 0 127 -59z" />
<glyph unicode="t" horiz-adv-x="259" d="M179 318l-39 -318h-95l39 318h-54l11 89h54l23 188h95l-23 -188h88l-11 -89h-88z" />
<glyph unicode="u" horiz-adv-x="484" d="M439 407l-29 -237q-7 -55 -17.5 -83t-33.5 -50q-50 -47 -137 -47q-75 0 -120 39t-45 104q0 10 4 54l27 220h96l-28 -228q-4 -23 -4 -44q0 -65 76 -65q40 0 59.5 21.5t26.5 74.5l30 241h95z" />
<glyph unicode="v" horiz-adv-x="431" d="M446 407l-279 -460l-145 460h99l70 -260l146 260h109z" />
<glyph unicode="w" horiz-adv-x="643" d="M659 407l-262 -450l-82 263l-145 -263l-148 450h101l71 -248l145 259l78 -259l133 248h109z" />
<glyph unicode="x" horiz-adv-x="479" d="M295 219l147 -219h-111l-96 155l-132 -155h-123l207 226l-121 181h109l72 -117l97 117h122z" />
<glyph unicode="y" horiz-adv-x="466" d="M481 407l-368 -640h-109l164 284l-146 356h102l101 -260l147 260h109z" />
<glyph unicode="z" horiz-adv-x="458" d="M421 89l-11 -89h-418l273 318h-204l11 89h383l-274 -318h240z" />
<glyph unicode="{" horiz-adv-x="316" d="M333 735l-10 -87q-49 -1 -64 -15t-20 -63l-22 -173q-7 -53 -22 -77t-53 -44q25 -17 36.5 -36.5t12.5 -49.5v-10l-24 -196q-3 -19 -3 -38q0 -20 7 -28q14 -14 60 -14l-10 -87l-25 -1l-29 -1q-59 -3 -86 33q-17 24 -17 72q0 22 3 41l26 213q-1 53 -48 64l10 83q31 7 46 26 t20 57l24 192q9 74 40.5 107.5t91.5 33.5q18 0 31 -1q14 0 25 -1z" />
<glyph unicode="|" horiz-adv-x="500" d="M212 667h100v-834h-100v834z" />
<glyph unicode="}" horiz-adv-x="316" d="M-5 -183l11 87q48 0 63 14t21 64l21 173q7 53 22.5 77t52.5 44q-49 33 -49 86v10l25 196q2 26 2 38q0 25 -13 33t-54 9l11 87q11 1 24 1q16 1 29 1q55 0 79 -24.5t24 -79.5q0 -23 -3 -42l-26 -213v-5q0 -46 48 -59l-10 -83q-58 -12 -66 -82l-24 -193q-9 -74 -40.5 -107.5 t-91.5 -33.5l-31 1z" />
<glyph unicode="~" horiz-adv-x="667" d="M104 296q34 71 65 98.5t78 27.5q42 0 109 -30q62 -27 92 -27q24 0 45 14t31 36q5 11 12 11q18 0 52 -36q-33 -66 -67.5 -94t-82.5 -28q-38 0 -112 34q-54 24 -88 24q-20 0 -42.5 -18t-29.5 -40q-4 -11 -11 -11q-19 0 -51 39z" />
<glyph unicode="&#xa1;" horiz-adv-x="276" d="M165 524q25 0 42 -17.5t17 -43.5q0 -25 -16.5 -41t-41.5 -16t-41.5 17t-16.5 43q0 25 16.5 41.5t40.5 16.5zM45 -153l60 491h95l-61 -491h-94z" />
<glyph unicode="&#xa2;" horiz-adv-x="567" d="M324 124l-14 -114h-73l15 122q-67 21 -103 73t-36 128q0 91 54.5 155t136.5 69l12 100h74l-14 -107q40 -11 84 -46l-12 -96q-29 41 -56 57.5t-63 16.5q-55 0 -91 -42t-36 -106q0 -59 33.5 -97t86.5 -38q52 0 107 48l-13 -100q-51 -22 -92 -23z" />
<glyph unicode="&#xa3;" horiz-adv-x="567" d="M486 127l45 -76q-69 -61 -146 -61q-38 0 -94 19q-90 32 -118 32q-30 0 -52 -12.5t-49 -45.5l-52 68q51 65 113 76q23 53 23 96q0 11 -3 34h-96l8 69h79q-11 91 -11 120q0 101 61.5 166t156.5 65q117 0 166 -92q24 -45 32 -122l-88 -28q-11 155 -111 155q-55 0 -88 -40 t-33 -107q0 -49 13 -114h160l-8 -69h-147q1 -10 1 -24q0 -42 -22 -109q25 -7 33 -10l11 -5q11 -4 33 -14q47 -20 81 -20q53 0 102 49z" />
<glyph unicode="&#xa4;" horiz-adv-x="667" d="M56 130l98 99q-48 64 -48 140q0 71 48 139l-100 99l55 56l99 -100q70 48 143 48q72 0 140 -47l99 98l54 -55l-97 -98q48 -71 48 -141q0 -69 -47 -139l99 -99l-55 -55l-99 99q-65 -48 -142 -48q-70 0 -142 47l-99 -98zM350 522q-63 0 -107.5 -45t-44.5 -109 q0 -63 44.5 -108t108.5 -45q62 0 107 44.5t45 106.5q0 65 -44.5 110.5t-108.5 45.5z" />
<glyph unicode="&#xa5;" horiz-adv-x="567" d="M76 377l9 67h104l-97 223h106l109 -265l162 265h114l-142 -223h94l-8 -67h-128l-47 -74h166l-8 -67h-169l-29 -236h-98l29 236h-184l8 67l184 1l-31 73h-144z" />
<glyph unicode="&#xa6;" horiz-adv-x="500" d="M212 667h100v-340h-100v340zM212 153h100v-320h-100v320z" />
<glyph unicode="&#xa7;" horiz-adv-x="567" d="M524 526h-89v22q0 47 -28.5 75t-75.5 28q-41 0 -70 -27.5t-29 -67.5q0 -32 20.5 -53.5t69.5 -41.5q75 -31 107 -57q58 -49 58 -131q0 -108 -115 -159q34 -30 46 -46q27 -37 27 -88q0 -73 -53.5 -119.5t-138.5 -46.5q-61 0 -106 23.5t-66 66.5q-13 27 -16.5 48t-3.5 68h89 v-20q0 -50 26 -78t73 -28q45 0 72.5 24.5t27.5 65.5q0 35 -25 60q-15 13 -28 20t-77 35q-121 52 -121 165q0 114 110 164q-37 29 -52.5 58.5t-15.5 71.5q0 79 54 129.5t138 50.5q54 0 97.5 -24t67.5 -67q26 -46 27 -121zM290 364q-41 0 -69 -26.5t-28 -66.5t28 -66t70 -26 t70.5 26t28.5 66t-28 66.5t-72 26.5z" />
<glyph unicode="&#xa8;" horiz-adv-x="500" d="M209 601q21 0 36.5 -15.5t15.5 -37.5q0 -21 -15 -36t-36 -15t-36.5 15.5t-15.5 37.5q0 21 15 36t36 15zM365 601q21 0 36.5 -15.5t15.5 -37.5q0 -21 -15 -36t-36 -15t-36.5 15.5t-15.5 37.5q0 21 15 36t36 15z" />
<glyph unicode="&#xa9;" horiz-adv-x="733" d="M535 496l-10 -81l-10 9q-53 50 -124 50q-62 0 -100 -40.5t-38 -106.5q0 -64 38 -99t106 -35q57 0 99 32q5 3 13 9l-11 -86q-60 -22 -113 -22q-93 0 -150 55.5t-57 146.5q0 92 60 152.5t151 60.5q71 0 146 -45zM376 681q146 0 247.5 -101t101.5 -246t-101 -246.5 t-244 -101.5t-244.5 102t-101.5 247q0 142 101 244t241 102zM381 630h-3q-118 0 -203 -87.5t-85 -208.5q0 -124 85 -211t205 -87t204.5 87t84.5 211q0 122 -84.5 209t-203.5 87z" />
<glyph unicode="&#xaa;" horiz-adv-x="340" d="M361 667l-31 -250h-72v16q-37 -21 -70 -21q-53 0 -86 34t-33 88q0 61 38 100t98 39q48 0 80 -29l3 23h73zM212 613q-30 0 -50 -22t-20 -54q0 -29 17 -47.5t45 -18.5q30 0 51 22.5t21 54.5q0 28 -18 46.5t-46 18.5z" />
<glyph unicode="&#xab;" horiz-adv-x="402" d="M145 27l-114 183l157 193l46 -39l-130 -156l91 -150zM289 27l-114 182l159 195l44 -40l-129 -156l92 -149z" />
<glyph unicode="&#xac;" horiz-adv-x="500" d="M378 0v173h-333v93h433v-266h-100z" />
<glyph unicode="&#xad;" horiz-adv-x="187" d="M189 248l-9 -76h-187l9 76h187z" />
<glyph unicode="&#xae;" horiz-adv-x="733" d="M412 299l107 -166h-82l-99 159h-12l-20 -159h-74l49 400h87q69 0 101 -25q42 -34 42 -91q0 -43 -24.5 -74.5t-68.5 -42.5zM347 466l-13 -110h21q43 0 60 13q21 18 21 46q0 51 -70 51h-19zM376 681q146 0 247.5 -101t101.5 -246t-101 -246.5t-244 -101.5t-244.5 102 t-101.5 247q0 142 101 244t241 102zM381 630h-3q-118 0 -203 -87.5t-85 -208.5q0 -124 85 -211t205 -87t204.5 87t84.5 211q0 122 -84.5 209t-203.5 87z" />
<glyph unicode="&#xaf;" horiz-adv-x="500" d="M151 579h277l-8 -69h-277z" />
<glyph unicode="&#xb0;" horiz-adv-x="567" d="M324 677q54 0 93 -39t39 -94t-39 -94.5t-94 -39.5t-94.5 39t-39.5 94q0 56 39.5 95t95.5 39zM323 610q-30 0 -50.5 -19.5t-20.5 -47.5q0 -30 21 -51.5t50 -21.5t49.5 21.5t20.5 51.5q0 28 -20.5 47.5t-49.5 19.5z" />
<glyph unicode="&#xb1;" horiz-adv-x="567" d="M66 300v80h191v184h81v-184h191v-80h-191v-188h-81v188h-191zM66 0v80h463v-80h-463z" />
<glyph unicode="&#xb2;" horiz-adv-x="387" d="M335 328l-8 -61h-278l169 178q52 55 62 70.5t10 37.5q0 28 -17 44t-48 16q-34 0 -50.5 -18.5t-20.5 -62.5h-64q4 62 26 92q36 49 111 49q58 0 93.5 -32.5t35.5 -85.5q0 -34 -14 -59t-62 -75l-90 -93h145z" />
<glyph unicode="&#xb3;" horiz-adv-x="387" d="M69 371h63q9 -52 67 -52q32 0 52 18.5t20 47.5q0 31 -20 45t-64 14l7 59q46 0 60 12q20 17 20 50q0 23 -14 36t-38 13q-28 0 -41.5 -14.5t-15.5 -49.5h-61q6 123 125 123q51 0 81 -28.5t30 -75.5q0 -67 -60 -95q57 -23 57 -91q0 -55 -38.5 -89t-100.5 -34q-57 0 -90 28.5 t-39 82.5z" />
<glyph unicode="&#xb4;" horiz-adv-x="500" d="M433 597l-138 -126l-49 29l116 142z" />
<glyph unicode="&#xb5;" horiz-adv-x="484" d="M105 -233h-95l79 640h95l-28 -228q-4 -36 -4 -44q0 -65 76 -65q41 0 60.5 22t25.5 74l30 241h95l-29 -237q-7 -56 -17.5 -83.5t-32.5 -48.5q-51 -48 -133 -48q-55 0 -102 27z" />
<glyph unicode="&#xb6;" horiz-adv-x="567" d="M243 -95h-92l53 430q-66 -1 -102 38.5t-36 112.5q0 95 61 142q49 39 149 39h309l-67 -93h-26l-83 -669h-92l82 669h-74z" />
<glyph unicode="&#xb7;" horiz-adv-x="242" d="M117 269q25 0 43 -17.5t18 -42.5q0 -23 -17.5 -40t-40.5 -17q-24 0 -41 17.5t-17 42.5t16 41t39 16z" />
<glyph unicode="&#xb8;" horiz-adv-x="500" d="M298 -89l-116 -119l-51 29l86 132z" />
<glyph unicode="&#xb9;" horiz-adv-x="387" d="M285 667l-49 -400h-68l42 339h-83l31 61h127z" />
<glyph unicode="&#xba;" horiz-adv-x="340" d="M212 673q62 0 102 -36.5t40 -92.5q0 -58 -41.5 -97t-102.5 -39q-64 0 -105.5 37t-41.5 94q0 58 42.5 96t106.5 38zM210 613q-32 0 -53 -20.5t-21 -51.5q0 -32 20.5 -52.5t52.5 -20.5t52 21.5t20 55.5q0 30 -20 49t-51 19z" />
<glyph unicode="&#xbb;" horiz-adv-x="402" d="M253 394l113 -184l-157 -193l-45 39l129 157l-91 150zM108 394l114 -183l-158 -194l-45 39l130 157l-92 148z" />
<glyph unicode="&#xbc;" horiz-adv-x="889" d="M271 667l-49 -400h-68l42 339h-83l31 61h127zM715 659l-475 -679l-41 28l475 679zM788 73l-10 -73h-68l10 73h-196l310 378l-39 -321h38l-7 -57h-38zM727 130l15 125l-100 -125h85z" />
<glyph unicode="&#xbd;" horiz-adv-x="889" d="M271 667l-49 -400h-68l42 339h-83l31 61h127zM715 659l-475 -679l-41 28l475 679zM817 61l-7 -61h-278l169 178q51 54 61.5 69.5t10.5 38.5q0 28 -17.5 44t-47.5 16q-34 0 -50.5 -18.5t-20.5 -62.5h-64q3 60 25 92q38 49 112 49q58 0 93.5 -32.5t35.5 -85.5 q0 -35 -14 -60t-62 -74l-90 -93h144z" />
<glyph unicode="&#xbe;" horiz-adv-x="889" d="M56 371h63q9 -52 67 -52q32 0 52 18.5t20 47.5q0 31 -20 45t-64 14l7 59q46 0 60 12q20 17 20 50q0 23 -14 36t-38 13q-28 0 -41.5 -14.5t-15.5 -49.5h-61q6 123 125 123q51 0 81 -28.5t30 -75.5q0 -67 -60 -95q57 -23 57 -91q0 -55 -38.5 -89t-100.5 -34q-57 0 -90 28.5 t-39 82.5zM715 659l-475 -679l-40 28l475 679zM788 73l-10 -73h-68l10 73h-196l310 378l-39 -321h38l-7 -57h-38zM727 130l15 125l-99 -125h84z" />
<glyph unicode="&#xbf;" horiz-adv-x="429" d="M240 524q26 0 43 -16.5t17 -41.5t-16.5 -42t-41.5 -17q-24 0 -41 17.5t-17 42.5q0 24 16.5 40.5t39.5 16.5zM142 212h-90q5 61 31 94q42 53 117 53q65 0 108.5 -40t43.5 -101q0 -56 -37 -99q-31 -37 -107 -66q-55 -22 -73 -37.5t-18 -40.5q0 -26 18.5 -44.5t46.5 -18.5 q42 0 62 38q11 22 11 63h85q0 -77 -30 -118q-45 -59 -130 -59q-70 0 -112.5 38.5t-42.5 101.5q0 51 31 88q26 30 89 54q65 25 89.5 47t24.5 56q0 26 -16.5 42.5t-43.5 16.5q-52 0 -57 -68z" />
<glyph unicode="&#xc0;" horiz-adv-x="624" d="M188 157l-81 -157h-108l369 714l230 -714h-103l-48 157h-259zM231 242h188l-72 237zM259 854l75 47l85 -136l-52 -31z" />
<glyph unicode="&#xc1;" horiz-adv-x="624" d="M188 157l-81 -157h-108l369 714l230 -714h-103l-48 157h-259zM231 242h188l-72 237zM515 854l-141 -120l-52 31l118 136z" />
<glyph unicode="&#xc2;" horiz-adv-x="624" d="M188 157l-81 -157h-108l369 714l230 -714h-103l-48 157h-259zM231 242h188l-72 237zM383 803l-104 -76l-43 46l157 121l111 -121l-53 -44z" />
<glyph unicode="&#xc3;" horiz-adv-x="624" d="M188 157l-81 -157h-108l369 714l230 -714h-103l-48 157h-259zM231 242h188l-72 237zM481 859l50 -37q-39 -79 -96 -79q-28 0 -78 28q-26 14 -36 14q-17 0 -45 -42l-50 39q33 44 53 60t43 16t63 -25q33 -19 50 -19q29 0 46 45z" />
<glyph unicode="&#xc4;" horiz-adv-x="624" d="M188 157l-81 -157h-108l369 714l230 -714h-103l-48 157h-259zM231 242h188l-72 237zM458 857q23 0 39 -16.5t16 -39.5q0 -22 -16 -38t-39 -16t-39 16.5t-16 39.5t16 38.5t39 15.5zM297 856q23 0 38 -16t15 -41q0 -22 -15.5 -37t-37.5 -15q-23 0 -39.5 16t-16.5 39 q0 24 15.5 39t40.5 15z" />
<glyph unicode="&#xc5;" horiz-adv-x="624" d="M188 157l-81 -157h-108l369 714l230 -714h-103l-48 157h-259zM231 242h188l-72 237zM373 918q41 0 68.5 -28t27.5 -68q0 -39 -28 -67t-67 -28q-40 0 -68 28t-28 68q0 39 28 67t67 28zM373 862q-17 0 -28 -11t-11 -28t12 -28.5t28 -11.5t27.5 12t11.5 28q0 17 -11.5 28 t-28.5 11z" />
<glyph unicode="&#xc6;" horiz-adv-x="938" d="M687 667l27 -92h-277l58 -175h278l27 -85h-277l73 -223h280l27 -92h-379l-52 164h-276l-95 -164h-109l388 667h307zM246 249h199l-71 226z" />
<glyph unicode="&#xc7;" horiz-adv-x="610" d="M614 607l-13 -108q-88 88 -207 88q-106 0 -171.5 -74.5t-65.5 -194.5q0 -113 63 -175.5t177 -62.5q96 0 169 58l-15 -117q-94 -34 -171 -34q-145 0 -233.5 92t-88.5 243q0 154 94 256t237 102q61 0 113 -16.5t112 -56.5zM392 -91l-119 -122l-54 31l88 135z" />
<glyph unicode="&#xc8;" horiz-adv-x="470" d="M477 667l-11 -92h-245l-21 -173h245l-11 -85h-244l-28 -225h245l-12 -92h-343l82 667h343zM211 847l75 47l85 -136l-52 -31z" />
<glyph unicode="&#xc9;" horiz-adv-x="470" d="M477 667l-11 -92h-245l-21 -173h245l-11 -85h-244l-28 -225h245l-12 -92h-343l82 667h343zM454 847l-141 -120l-52 31l118 136z" />
<glyph unicode="&#xca;" horiz-adv-x="470" d="M477 667l-11 -92h-245l-21 -173h245l-11 -85h-244l-28 -225h245l-12 -92h-343l82 667h343zM331 803l-104 -76l-43 46l157 121l111 -121l-53 -44z" />
<glyph unicode="&#xcb;" horiz-adv-x="470" d="M477 667l-11 -92h-245l-21 -173h245l-11 -85h-244l-28 -225h245l-12 -92h-343l82 667h343zM403 857q23 0 39 -16.5t16 -39.5q0 -22 -16 -38t-39 -16t-39 16.5t-16 39.5t16 38.5t39 15.5zM242 856q23 0 38 -16t15 -41q0 -22 -15.5 -37t-37.5 -15q-23 0 -39.5 16t-16.5 39 q0 24 15.5 39t40.5 15z" />
<glyph unicode="&#xcc;" horiz-adv-x="259" d="M233 667l-82 -667h-99l82 667h99zM89 847l75 47l78 -136l-52 -31z" />
<glyph unicode="&#xcd;" horiz-adv-x="259" d="M233 667l-82 -667h-99l82 667h99zM325 847l-128 -120l-52 31l105 136z" />
<glyph unicode="&#xce;" horiz-adv-x="259" d="M233 667l-82 -667h-99l82 667h99zM205 803l-97 -76l-43 46l150 121l104 -121l-53 -44z" />
<glyph unicode="&#xcf;" horiz-adv-x="259" d="M233 667l-82 -667h-99l82 667h99zM273 857q23 0 39 -16.5t16 -39.5q0 -22 -16 -38t-39 -16t-39 16.5t-16 39.5t16 38.5t39 15.5zM125 856q23 0 38 -16t15 -41q0 -22 -15.5 -37t-37.5 -15q-23 0 -39.5 16t-16.5 39q0 24 15.5 39t40.5 15z" />
<glyph unicode="&#xd0;" horiz-adv-x="633" d="M135 667h134q77 0 118 -7.5t77 -28.5q65 -37 102.5 -112.5t37.5 -168.5q0 -109 -50 -197t-133 -125q-61 -28 -200 -28h-169l40 322h-60l10 80h60zM222 575l-21 -173h153l-10 -80h-153l-28 -230h75q76 0 118.5 13t74.5 46q74 77 74 203q0 75 -30 129t-83 76 q-37 16 -115 16h-55z" />
<glyph unicode="&#xd1;" horiz-adv-x="727" d="M701 667l-88 -713l-404 517l-58 -471h-99l87 703l404 -516l59 480h99zM529 859l50 -37q-39 -79 -96 -79q-28 0 -78 28q-26 14 -36 14q-17 0 -45 -42l-50 39q33 44 53 60t43 16t63 -25q33 -19 50 -19q29 0 46 45z" />
<glyph unicode="&#xd2;" horiz-adv-x="784" d="M412 680q154 0 248 -91.5t94 -241.5q0 -155 -101.5 -257.5t-255.5 -102.5q-150 0 -244.5 96t-94.5 248q0 151 100.5 250t253.5 99zM415 587q-110 0 -184 -73.5t-74 -183.5q0 -108 68.5 -179t173.5 -71q110 0 182.5 76t72.5 191q0 110 -65 175t-174 65zM351 847l75 47 l85 -136l-52 -31z" />
<glyph unicode="&#xd3;" horiz-adv-x="784" d="M412 680q154 0 248 -91.5t94 -241.5q0 -155 -101.5 -257.5t-255.5 -102.5q-150 0 -244.5 96t-94.5 248q0 151 100.5 250t253.5 99zM415 587q-110 0 -184 -73.5t-74 -183.5q0 -108 68.5 -179t173.5 -71q110 0 182.5 76t72.5 191q0 110 -65 175t-174 65zM594 847l-141 -120 l-52 31l118 136z" />
<glyph unicode="&#xd4;" horiz-adv-x="784" d="M412 680q154 0 248 -91.5t94 -241.5q0 -155 -101.5 -257.5t-255.5 -102.5q-150 0 -244.5 96t-94.5 248q0 151 100.5 250t253.5 99zM415 587q-110 0 -184 -73.5t-74 -183.5q0 -108 68.5 -179t173.5 -71q110 0 182.5 76t72.5 191q0 110 -65 175t-174 65zM470 803l-104 -76 l-43 46l157 121l111 -121l-53 -44z" />
<glyph unicode="&#xd5;" horiz-adv-x="784" d="M412 680q154 0 248 -91.5t94 -241.5q0 -155 -101.5 -257.5t-255.5 -102.5q-150 0 -244.5 96t-94.5 248q0 151 100.5 250t253.5 99zM415 587q-110 0 -184 -73.5t-74 -183.5q0 -108 68.5 -179t173.5 -71q110 0 182.5 76t72.5 191q0 110 -65 175t-174 65zM565 859l50 -37 q-39 -79 -96 -79q-28 0 -78 28q-26 14 -36 14q-17 0 -45 -42l-50 39q33 44 53 60t43 16t63 -25q33 -19 50 -19q29 0 46 45z" />
<glyph unicode="&#xd6;" horiz-adv-x="784" d="M412 680q154 0 248 -91.5t94 -241.5q0 -155 -101.5 -257.5t-255.5 -102.5q-150 0 -244.5 96t-94.5 248q0 151 100.5 250t253.5 99zM415 587q-110 0 -184 -73.5t-74 -183.5q0 -108 68.5 -179t173.5 -71q110 0 182.5 76t72.5 191q0 110 -65 175t-174 65zM544 857 q23 0 39 -16.5t16 -39.5q0 -22 -16 -38t-39 -16t-39 16.5t-16 39.5t16 38.5t39 15.5zM383 856q23 0 38 -16t15 -41q0 -22 -15.5 -37t-37.5 -15q-23 0 -39.5 16t-16.5 39q0 24 15.5 39t40.5 15z" />
<glyph unicode="&#xd7;" horiz-adv-x="567" d="M96 489l54 52l144 -145l144 146l60 -59l-145 -146l145 -145l-54 -51l-143 143l-144 -146l-60 59l145 146z" />
<glyph unicode="&#xd8;" horiz-adv-x="784" d="M159 74l-81 -73l-44 52l81 73q-33 63 -45 106t-12 98q0 152 100.5 251t255.5 99q68 0 121 -17.5t112 -60.5l83 72l48 -53l-84 -75q60 -76 60 -197q0 -157 -101 -259.5t-256 -102.5q-70 0 -123.5 19.5t-114.5 67.5zM620 480l-384 -339q68 -61 165 -61q109 0 181.5 76.5 t72.5 191.5q0 80 -35 132zM192 195l380 340q-56 52 -158 52q-110 0 -183.5 -74t-73.5 -184q0 -59 35 -134z" />
<glyph unicode="&#xd9;" horiz-adv-x="658" d="M632 667l-49 -395q-15 -130 -61 -191q-72 -94 -200 -94q-103 0 -171.5 62.5t-68.5 156.5q0 40 6 88l46 373h98l-47 -386q-4 -42 -4 -58q0 -67 37 -105t102 -38q90 0 132 75q24 44 34 131l47 381h99zM287 847l75 47l85 -136l-52 -31z" />
<glyph unicode="&#xda;" horiz-adv-x="658" d="M632 667l-49 -395q-15 -130 -61 -191q-72 -94 -200 -94q-103 0 -171.5 62.5t-68.5 156.5q0 40 6 88l46 373h98l-47 -386q-4 -42 -4 -58q0 -67 37 -105t102 -38q90 0 132 75q24 44 34 131l47 381h99zM527 847l-141 -120l-52 31l118 136z" />
<glyph unicode="&#xdb;" horiz-adv-x="658" d="M632 667l-49 -395q-15 -130 -61 -191q-72 -94 -200 -94q-103 0 -171.5 62.5t-68.5 156.5q0 40 6 88l46 373h98l-47 -386q-4 -42 -4 -58q0 -67 37 -105t102 -38q90 0 132 75q24 44 34 131l47 381h99zM407 803l-104 -76l-43 46l157 121l111 -121l-53 -44z" />
<glyph unicode="&#xdc;" horiz-adv-x="658" d="M632 667l-49 -395q-15 -130 -61 -191q-72 -94 -200 -94q-103 0 -171.5 62.5t-68.5 156.5q0 40 6 88l46 373h98l-47 -386q-4 -42 -4 -58q0 -67 37 -105t102 -38q90 0 132 75q24 44 34 131l47 381h99zM478 857q23 0 39 -16.5t16 -39.5q0 -22 -16 -38t-39 -16t-39 16.5 t-16 39.5t16 38.5t39 15.5zM317 856q23 0 38 -16t15 -41q0 -22 -15.5 -37t-37.5 -15q-23 0 -39.5 16t-16.5 39q0 24 15.5 39t40.5 15z" />
<glyph unicode="&#xdd;" horiz-adv-x="516" d="M316 299l-37 -299h-99l38 305l-173 362h106l123 -265l175 265h114zM447 847l-141 -120l-52 31l118 136z" />
<glyph unicode="&#xde;" horiz-adv-x="493" d="M134 667h99l-12 -94h37q89 0 135 -29q38 -24 59.5 -67t21.5 -94q0 -83 -52 -140q-59 -66 -176 -66h-73l-22 -177h-99zM210 481l-27 -217h65q63 0 93 31q34 34 34 91q0 53 -42 80q-27 15 -81 15h-42z" />
<glyph unicode="&#xdf;" horiz-adv-x="519" d="M45 0l40 318h-46l11 89h45l18 142q11 96 45 134q47 58 139 58q82 0 131.5 -46t49.5 -123q0 -111 -103 -166q50 -26 73.5 -66.5t23.5 -101.5q0 -115 -75 -188q-55 -54 -150 -54q-23 0 -59 4l11 83q22 -7 44 -7q61 0 97 45.5t36 121.5q0 123 -143 123l10 82q60 0 84 14 q27 15 43.5 47t16.5 68q0 40 -22.5 62t-63.5 22q-55 0 -78 -50q-10 -22 -17 -78l-65 -533h-96z" />
<glyph unicode="&#xe0;" d="M487 407l-50 -407h-95l5 44q-34 -30 -62 -42t-64 -12q-74 0 -127 51q-56 55 -56 146q0 102 58.5 166t151.5 64q44 0 75 -14.5t62 -48.5l7 53h95zM260 337q-53 0 -89.5 -42t-36.5 -103q0 -54 30.5 -88t77.5 -34q53 0 91 43t38 102q0 54 -31 88t-80 34zM200 595l70 47 l82 -141l-46 -30z" />
<glyph unicode="&#xe1;" d="M487 407l-50 -407h-95l5 44q-34 -30 -62 -42t-64 -12q-74 0 -127 51q-56 55 -56 146q0 102 58.5 166t151.5 64q44 0 75 -14.5t62 -48.5l7 53h95zM260 337q-53 0 -89.5 -42t-36.5 -103q0 -54 30.5 -88t77.5 -34q53 0 91 43t38 102q0 54 -31 88t-80 34zM436 597l-138 -126 l-49 29l116 142z" />
<glyph unicode="&#xe2;" d="M487 407l-50 -407h-95l5 44q-34 -30 -62 -42t-64 -12q-74 0 -127 51q-56 55 -56 146q0 102 58.5 166t151.5 64q44 0 75 -14.5t62 -48.5l7 53h95zM260 337q-53 0 -89.5 -42t-36.5 -103q0 -54 30.5 -88t77.5 -34q53 0 91 43t38 102q0 54 -31 88t-80 34zM307 554l-94 -83 l-40 44l144 127l101 -128l-43 -41z" />
<glyph unicode="&#xe3;" d="M487 407l-50 -407h-95l5 44q-34 -30 -62 -42t-64 -12q-74 0 -127 51q-56 55 -56 146q0 102 58.5 166t151.5 64q44 0 75 -14.5t62 -48.5l7 53h95zM260 337q-53 0 -89.5 -42t-36.5 -103q0 -54 30.5 -88t77.5 -34q53 0 91 43t38 102q0 54 -31 88t-80 34zM403 611l50 -34 q-41 -78 -93 -78q-27 0 -90 39q-6 3 -14 3q-11 0 -17 -5.5t-18 -25.5q-2 -3 -7 -10l-49 34q26 41 46.5 58.5t44.5 17.5q19 0 61 -24q33 -19 43 -19q22 0 43 44z" />
<glyph unicode="&#xe4;" d="M487 407l-50 -407h-95l5 44q-34 -30 -62 -42t-64 -12q-74 0 -127 51q-56 55 -56 146q0 102 58.5 166t151.5 64q44 0 75 -14.5t62 -48.5l7 53h95zM260 337q-53 0 -89.5 -42t-36.5 -103q0 -54 30.5 -88t77.5 -34q53 0 91 43t38 102q0 54 -31 88t-80 34zM228 601 q21 0 36.5 -15.5t15.5 -37.5q0 -21 -15 -36t-36 -15t-36.5 15.5t-15.5 37.5q0 21 15 36t36 15zM384 601q21 0 36.5 -15.5t15.5 -37.5q0 -21 -15 -36t-36 -15t-36.5 15.5t-15.5 37.5q0 21 15 36t36 15z" />
<glyph unicode="&#xe5;" d="M487 407l-50 -407h-95l5 44q-34 -30 -62 -42t-64 -12q-74 0 -127 51q-56 55 -56 146q0 102 58.5 166t151.5 64q44 0 75 -14.5t62 -48.5l7 53h95zM260 337q-53 0 -89.5 -42t-36.5 -103q0 -54 30.5 -88t77.5 -34q53 0 91 43t38 102q0 54 -31 88t-80 34zM307 651 q41 0 68.5 -27.5t27.5 -68.5q0 -39 -28 -67t-67 -28q-40 0 -68 28t-28 68q0 39 28 67t67 28zM307 596q-17 0 -29 -11.5t-12 -28.5q0 -16 12 -28.5t29 -12.5t29 12t12 29t-12 28.5t-29 11.5z" />
<glyph unicode="&#xe6;" horiz-adv-x="776" d="M732 175h-325q1 -49 34 -78.5t87 -29.5q64 0 107 53l64 -46q-63 -87 -179 -87q-107 0 -159 77q-35 -42 -71 -59.5t-86 -17.5q-75 0 -126.5 41t-51.5 102q0 59 45.5 96.5t116.5 37.5q70 0 129 -45q5 40 5 60q0 29 -23 45t-64 16q-46 0 -109 -22l11 84q69 18 112 18 q99 0 144 -64q57 64 142 64q88 0 143 -59t55 -152q0 -20 -1 -34zM207 184q-39 0 -62 -15t-23 -41t25 -43.5t64 -17.5q41 0 67.5 16.5t26.5 41.5q0 26 -27 42.5t-71 16.5zM414 245h224q-4 46 -31.5 70.5t-74.5 24.5q-48 0 -76 -22.5t-42 -72.5z" />
<glyph unicode="&#xe7;" horiz-adv-x="405" d="M389 368l-11 -97q-29 37 -56.5 53t-62.5 16q-55 0 -89.5 -40t-34.5 -103q0 -58 33 -94t86 -36q50 0 104 43l-12 -100q-59 -23 -106 -23q-89 0 -145 58.5t-56 151.5q0 95 60.5 159t149.5 64q74 0 140 -52zM266 -89l-116 -119l-51 29l86 132z" />
<glyph unicode="&#xe8;" horiz-adv-x="496" d="M451 169h-315q2 -47 32 -74.5t80 -27.5q67 0 102 50l71 -40q-37 -49 -76.5 -69.5t-98.5 -20.5q-95 0 -151 55.5t-56 149.5q0 98 62 163t155 65q90 0 143 -58.5t53 -158.5zM142 246h213q-15 94 -104 94q-85 0 -109 -94zM179 595l70 47l82 -141l-46 -30z" />
<glyph unicode="&#xe9;" horiz-adv-x="496" d="M451 169h-315q2 -47 32 -74.5t80 -27.5q67 0 102 50l71 -40q-37 -49 -76.5 -69.5t-98.5 -20.5q-95 0 -151 55.5t-56 149.5q0 98 62 163t155 65q90 0 143 -58.5t53 -158.5zM142 246h213q-15 94 -104 94q-85 0 -109 -94zM412 597l-138 -126l-49 29l116 142z" />
<glyph unicode="&#xea;" horiz-adv-x="496" d="M451 169h-315q2 -47 32 -74.5t80 -27.5q67 0 102 50l71 -40q-37 -49 -76.5 -69.5t-98.5 -20.5q-95 0 -151 55.5t-56 149.5q0 98 62 163t155 65q90 0 143 -58.5t53 -158.5zM142 246h213q-15 94 -104 94q-85 0 -109 -94zM290 554l-94 -83l-40 44l144 127l101 -128l-43 -41z " />
<glyph unicode="&#xeb;" horiz-adv-x="496" d="M451 169h-315q2 -47 32 -74.5t80 -27.5q67 0 102 50l71 -40q-37 -49 -76.5 -69.5t-98.5 -20.5q-95 0 -151 55.5t-56 149.5q0 98 62 163t155 65q90 0 143 -58.5t53 -158.5zM142 246h213q-15 94 -104 94q-85 0 -109 -94zM207 601q21 0 36.5 -15.5t15.5 -37.5q0 -21 -15 -36 t-36 -15t-36.5 15.5t-15.5 37.5q0 21 15 36t36 15zM363 601q21 0 36.5 -15.5t15.5 -37.5q0 -21 -15 -36t-36 -15t-36.5 15.5t-15.5 37.5q0 21 15 36t36 15z" />
<glyph unicode="&#xec;" horiz-adv-x="229" d="M184 407l-50 -407h-95l50 407h95zM47 595l70 47l75 -141l-46 -30z" />
<glyph unicode="&#xed;" horiz-adv-x="229" d="M184 407l-50 -407h-95l50 407h95zM274 597l-129 -126l-48 29l106 142z" />
<glyph unicode="&#xee;" horiz-adv-x="229" d="M184 407l-50 -407h-95l50 407h95zM158 554l-88 -83l-40 44l137 127l95 -128l-43 -41z" />
<glyph unicode="&#xef;" horiz-adv-x="229" d="M185 407l-50 -407h-96l50 407h96zM83 601q21 0 36.5 -15.5t15.5 -37.5q0 -21 -15 -36t-36 -15t-36.5 15.5t-15.5 37.5q0 21 15 36t36 15zM220 601q21 0 36.5 -15.5t15.5 -37.5q0 -21 -15 -36t-36 -15t-36.5 15.5t-15.5 37.5q0 21 15 36t36 15z" />
<glyph unicode="&#xf0;" d="M122 678l42 55q68 -17 143 -70l98 52l54 -54l-100 -50q130 -141 130 -354q0 -124 -54 -191q-62 -79 -169 -79q-100 0 -163 59.5t-63 153.5q0 93 63 156.5t156 63.5q40 0 68.5 -12.5t62.5 -44.5q-29 136 -105 210l-100 -51l-52 50l93 50q-42 30 -104 56zM267 340 q-57 0 -94.5 -39t-37.5 -99t35.5 -97.5t91.5 -37.5t92 41t36 104q0 58 -34 93t-89 35z" />
<glyph unicode="&#xf1;" horiz-adv-x="487" d="M184 407l-4 -38q56 48 114 48q66 0 104 -41q27 -30 27 -83q0 -24 -6 -75l-27 -218h-95l29 239q4 34 4 43q0 55 -60 55q-41 0 -69 -28q-19 -19 -28 -42t-15 -71l-24 -196h-95l50 407h95zM367 611l50 -34q-41 -78 -93 -78q-27 0 -90 39q-6 3 -14 3q-11 0 -17 -5.5 t-18 -25.5q-2 -3 -7 -10l-49 34q26 41 46.5 58.5t44.5 17.5q19 0 61 -24q33 -19 43 -19q22 0 43 44z" />
<glyph unicode="&#xf2;" d="M269 420q97 0 158 -59.5t61 -153.5q0 -93 -64.5 -156.5t-158.5 -63.5q-98 0 -161.5 60t-63.5 153q0 94 65.5 157t163.5 63zM269 340q-58 0 -95.5 -39t-37.5 -99t35.5 -97.5t91.5 -37.5t92.5 41t36.5 104q0 58 -34 93t-89 35zM194 595l70 47l82 -141l-46 -30z" />
<glyph unicode="&#xf3;" d="M269 420q97 0 158 -59.5t61 -153.5q0 -93 -64.5 -156.5t-158.5 -63.5q-98 0 -161.5 60t-63.5 153q0 94 65.5 157t163.5 63zM269 340q-58 0 -95.5 -39t-37.5 -99t35.5 -97.5t91.5 -37.5t92.5 41t36.5 104q0 58 -34 93t-89 35zM427 597l-138 -126l-49 29l116 142z" />
<glyph unicode="&#xf4;" d="M269 420q97 0 158 -59.5t61 -153.5q0 -93 -64.5 -156.5t-158.5 -63.5q-98 0 -161.5 60t-63.5 153q0 94 65.5 157t163.5 63zM269 340q-58 0 -95.5 -39t-37.5 -99t35.5 -97.5t91.5 -37.5t92.5 41t36.5 104q0 58 -34 93t-89 35zM308 554l-94 -83l-40 44l144 127l101 -128 l-43 -41z" />
<glyph unicode="&#xf5;" d="M269 420q97 0 158 -59.5t61 -153.5q0 -93 -64.5 -156.5t-158.5 -63.5q-98 0 -161.5 60t-63.5 153q0 94 65.5 157t163.5 63zM269 340q-58 0 -95.5 -39t-37.5 -99t35.5 -97.5t91.5 -37.5t92.5 41t36.5 104q0 58 -34 93t-89 35zM398 611l50 -34q-41 -78 -93 -78 q-27 0 -90 39q-6 3 -14 3q-11 0 -17 -5.5t-18 -25.5q-2 -3 -7 -10l-49 34q26 41 46.5 58.5t44.5 17.5q19 0 61 -24q33 -19 43 -19q22 0 43 44z" />
<glyph unicode="&#xf6;" d="M269 420q97 0 158 -59.5t61 -153.5q0 -93 -64.5 -156.5t-158.5 -63.5q-98 0 -161.5 60t-63.5 153q0 94 65.5 157t163.5 63zM269 340q-58 0 -95.5 -39t-37.5 -99t35.5 -97.5t91.5 -37.5t92.5 41t36.5 104q0 58 -34 93t-89 35zM222 601q21 0 36.5 -15.5t15.5 -37.5 q0 -21 -15 -36t-36 -15t-36.5 15.5t-15.5 37.5q0 21 15 36t36 15zM378 601q21 0 36.5 -15.5t15.5 -37.5q0 -21 -15 -36t-36 -15t-36.5 15.5t-15.5 37.5q0 21 15 36t36 15z" />
<glyph unicode="&#xf7;" horiz-adv-x="567" d="M66 300v80h463v-80h-463zM294 247q25 0 43 -17.5t18 -42.5q0 -23 -17.5 -40t-41.5 -17q-23 0 -40 17.5t-17 42.5t16 41t39 16zM296 550q25 0 43 -17.5t18 -42.5q0 -23 -17.5 -40t-40.5 -17q-24 0 -41 17.5t-17 42.5t16 41t39 16z" />
<glyph unicode="&#xf8;" d="M114 37l-72 -62l-41 48l71 61q-32 57 -32 116q0 95 65.5 157.5t164.5 62.5q74 0 141 -44l71 62l42 -49l-69 -57q22 -50 27.5 -70t5.5 -53q0 -95 -64 -158.5t-159 -63.5q-85 0 -151 50zM380 266l-199 -171q38 -28 82 -28q58 0 93.5 41t35.5 107q0 28 -12 51zM145 147 l197 170q-27 23 -74 23q-58 0 -95 -39.5t-37 -100.5q0 -26 9 -53z" />
<glyph unicode="&#xf9;" horiz-adv-x="484" d="M439 407l-29 -237q-7 -55 -17.5 -83t-33.5 -50q-50 -47 -137 -47q-75 0 -120 39t-45 104q0 10 4 54l27 220h96l-28 -228q-4 -23 -4 -44q0 -65 76 -65q40 0 59.5 21.5t26.5 74.5l30 241h95zM172 595l70 47l82 -141l-46 -30z" />
<glyph unicode="&#xfa;" horiz-adv-x="484" d="M439 407l-29 -237q-7 -55 -17.5 -83t-33.5 -50q-50 -47 -137 -47q-75 0 -120 39t-45 104q0 10 4 54l27 220h96l-28 -228q-4 -23 -4 -44q0 -65 76 -65q40 0 59.5 21.5t26.5 74.5l30 241h95zM408 597l-138 -126l-49 29l116 142z" />
<glyph unicode="&#xfb;" horiz-adv-x="484" d="M439 407l-29 -237q-7 -55 -17.5 -83t-33.5 -50q-50 -47 -137 -47q-75 0 -120 39t-45 104q0 10 4 54l27 220h96l-28 -228q-4 -23 -4 -44q0 -65 76 -65q40 0 59.5 21.5t26.5 74.5l30 241h95zM284 554l-94 -83l-40 44l144 127l101 -128l-43 -41z" />
<glyph unicode="&#xfc;" horiz-adv-x="484" d="M439 407l-29 -237q-7 -55 -17.5 -83t-33.5 -50q-50 -47 -137 -47q-75 0 -120 39t-45 104q0 10 4 54l27 220h96l-28 -228q-4 -23 -4 -44q0 -65 76 -65q40 0 59.5 21.5t26.5 74.5l30 241h95zM203 601q21 0 36.5 -15.5t15.5 -37.5q0 -21 -15 -36t-36 -15t-36.5 15.5 t-15.5 37.5q0 21 15 36t36 15zM359 601q21 0 36.5 -15.5t15.5 -37.5q0 -21 -15 -36t-36 -15t-36.5 15.5t-15.5 37.5q0 21 15 36t36 15z" />
<glyph unicode="&#xfd;" horiz-adv-x="466" d="M481 407l-368 -640h-109l164 284l-146 356h102l101 -260l147 260h109zM396 597l-138 -126l-49 29l116 142z" />
<glyph unicode="&#xfe;" horiz-adv-x="542" d="M224 729l-45 -365q35 29 63.5 41t66.5 12q82 0 135.5 -57t53.5 -143q0 -96 -62 -161.5t-152 -65.5q-45 0 -77 15t-66 53l-36 -291h-95l118 962h96zM292 337q-58 0 -96.5 -42t-38.5 -105q0 -53 32.5 -86.5t84.5 -33.5q54 0 91 41.5t37 102.5q0 54 -31 88.5t-79 34.5z" />
<glyph unicode="&#xff;" horiz-adv-x="466" d="M481 407l-368 -640h-109l164 284l-146 356h102l101 -260l147 260h109zM188 601q21 0 36.5 -15.5t15.5 -37.5q0 -21 -15 -36t-36 -15t-36.5 15.5t-15.5 37.5q0 21 15 36t36 15zM344 601q21 0 36.5 -15.5t15.5 -37.5q0 -21 -15 -36t-36 -15t-36.5 15.5t-15.5 37.5 q0 21 15 36t36 15z" />
<glyph unicode="&#x100;" horiz-adv-x="624" d="M188 157l-81 -157h-108l369 714l230 -714h-103l-48 157h-259zM231 242h188l-72 237zM228 833h306l-9 -73h-306z" />
<glyph unicode="&#x101;" d="M487 407l-50 -407h-95l5 44q-34 -30 -62 -42t-64 -12q-74 0 -127 51q-56 55 -56 146q0 102 58.5 166t151.5 64q44 0 75 -14.5t62 -48.5l7 53h95zM260 337q-53 0 -89.5 -42t-36.5 -103q0 -54 30.5 -88t77.5 -34q53 0 91 43t38 102q0 54 -31 88t-80 34zM170 579h277l-8 -69 h-277z" />
<glyph unicode="&#x102;" horiz-adv-x="624" d="M188 157l-81 -157h-108l369 714l230 -714h-103l-48 157h-259zM231 242h188l-72 237zM257 868h70q1 -69 51 -69q52 0 78 69h71q-18 -56 -41 -84q-43 -54 -110 -54q-52 0 -85.5 33.5t-33.5 86.5v18z" />
<glyph unicode="&#x103;" d="M487 407l-50 -407h-95l5 44q-34 -30 -62 -42t-64 -12q-74 0 -127 51q-56 55 -56 146q0 102 58.5 166t151.5 64q44 0 75 -14.5t62 -48.5l7 53h95zM260 337q-53 0 -89.5 -42t-36.5 -103q0 -54 30.5 -88t77.5 -34q53 0 91 43t38 102q0 54 -31 88t-80 34zM192 618h67v-15 q0 -23 14 -38.5t36 -15.5q47 0 70 69h68q-17 -51 -40 -81q-44 -53 -102 -53q-48 0 -80.5 34t-32.5 84v16z" />
<glyph unicode="&#x104;" horiz-adv-x="624" d="M368 714l230 -714q-79 -53 -79 -89q0 -27 30 -27q26 0 61 19l-20 -80q-31 -16 -64 -16q-40 0 -65 22t-25 57q0 33 20 57.5t71 56.5h-32l-48 157h-259l-81 -157h-108zM231 242h188l-72 237z" />
<glyph unicode="&#x105;" d="M487 407l-50 -407q-43 -26 -53 -35q-29 -24 -29 -47q0 -15 12 -24.5t31 -9.5q15 0 46 8l-16 -60q-33 -17 -64 -17q-38 0 -63 23.5t-25 58.5q0 57 88 103h-22l5 44q-34 -30 -62 -42t-64 -12q-74 0 -127 51q-56 55 -56 146q0 102 58.5 166t151.5 64q44 0 75 -14.5t62 -48.5 l7 53h95zM260 337q-53 0 -89.5 -42t-36.5 -103q0 -54 30.5 -88t77.5 -34q53 0 91 43t38 102q0 54 -31 88t-80 34z" />
<glyph unicode="&#x106;" horiz-adv-x="610" d="M614 607l-13 -108q-88 88 -207 88q-106 0 -171.5 -74.5t-65.5 -194.5q0 -113 63 -175.5t177 -62.5q96 0 169 58l-15 -117q-94 -34 -171 -34q-145 0 -233.5 92t-88.5 243q0 154 94 256t237 102q61 0 113 -16.5t112 -56.5zM564 847l-141 -120l-52 31l118 136z" />
<glyph unicode="&#x107;" horiz-adv-x="405" d="M389 368l-11 -97q-29 37 -56.5 53t-62.5 16q-55 0 -89.5 -40t-34.5 -103q0 -58 33 -94t86 -36q50 0 104 43l-12 -100q-59 -23 -106 -23q-89 0 -145 58.5t-56 151.5q0 95 60.5 159t149.5 64q74 0 140 -52zM406 597l-138 -126l-49 29l116 142z" />
<glyph unicode="&#x108;" horiz-adv-x="610" d="M614 607l-13 -108q-88 88 -207 88q-106 0 -171.5 -74.5t-65.5 -194.5q0 -113 63 -175.5t177 -62.5q96 0 169 58l-15 -117q-94 -34 -171 -34q-145 0 -233.5 92t-88.5 243q0 154 94 256t237 102q61 0 113 -16.5t112 -56.5zM432 803l-104 -76l-43 46l157 121l111 -121 l-53 -44z" />
<glyph unicode="&#x109;" horiz-adv-x="405" d="M389 368l-11 -97q-29 37 -56.5 53t-62.5 16q-55 0 -89.5 -40t-34.5 -103q0 -58 33 -94t86 -36q50 0 104 43l-12 -100q-59 -23 -106 -23q-89 0 -145 58.5t-56 151.5q0 95 60.5 159t149.5 64q74 0 140 -52zM265 554l-94 -83l-40 44l144 127l101 -128l-43 -41z" />
<glyph unicode="&#x10a;" horiz-adv-x="610" d="M614 607l-13 -108q-88 88 -207 88q-106 0 -171.5 -74.5t-65.5 -194.5q0 -113 63 -175.5t177 -62.5q96 0 169 58l-15 -117q-94 -34 -171 -34q-145 0 -233.5 92t-88.5 243q0 154 94 256t237 102q61 0 113 -16.5t112 -56.5zM428 856q23 0 38 -16t15 -41q0 -22 -15.5 -37 t-37.5 -15q-23 0 -39.5 16t-16.5 39q0 24 15.5 39t40.5 15z" />
<glyph unicode="&#x10b;" horiz-adv-x="405" d="M389 368l-11 -97q-29 37 -56.5 53t-62.5 16q-55 0 -89.5 -40t-34.5 -103q0 -58 33 -94t86 -36q50 0 104 43l-12 -100q-59 -23 -106 -23q-89 0 -145 58.5t-56 151.5q0 95 60.5 159t149.5 64q74 0 140 -52zM277 601q21 0 36.5 -15.5t15.5 -37.5q0 -21 -15 -36t-36 -15 t-36.5 15.5t-15.5 37.5q0 21 15 36t36 15z" />
<glyph unicode="&#x10c;" horiz-adv-x="610" d="M614 607l-13 -108q-88 88 -207 88q-106 0 -171.5 -74.5t-65.5 -194.5q0 -113 63 -175.5t177 -62.5q96 0 169 58l-15 -117q-94 -34 -171 -34q-145 0 -233.5 92t-88.5 243q0 154 94 256t237 102q61 0 113 -16.5t112 -56.5zM426 818l104 76l43 -47l-157 -120l-111 121l53 44 z" />
<glyph unicode="&#x10d;" horiz-adv-x="405" d="M389 368l-11 -97q-29 37 -56.5 53t-62.5 16q-55 0 -89.5 -40t-34.5 -103q0 -58 33 -94t86 -36q50 0 104 43l-12 -100q-59 -23 -106 -23q-89 0 -145 58.5t-56 151.5q0 95 60.5 159t149.5 64q74 0 140 -52zM278 560l94 82l40 -43l-143 -128l-102 128l43 42z" />
<glyph unicode="&#x10e;" horiz-adv-x="633" d="M134 667h135q77 0 118 -7.5t77 -28.5q65 -37 102.5 -112.5t37.5 -168.5q0 -109 -50 -197t-133 -125q-61 -28 -200 -28h-169zM221 575l-59 -483h75q77 0 119.5 13t74.5 46q74 77 74 203q0 75 -30 129t-83 76q-39 16 -115 16h-56zM348 818l104 76l43 -47l-157 -120 l-111 121l53 44z" />
<glyph unicode="&#x10f;" horiz-adv-x="666" d="M538 729l-89 -729h-96l6 44q-36 -32 -61.5 -43t-63.5 -11q-86 0 -140 57t-54 147q0 96 59.5 159.5t149.5 63.5q46 0 79 -16t68 -56l47 384h95zM265 337q-56 0 -92.5 -42t-36.5 -106q0 -54 31.5 -86.5t83.5 -32.5q60 0 96 49q34 47 34 102q0 52 -32 84t-84 32zM641 733 l78 -36l-107 -150l-49 27z" />
<glyph unicode="&#x110;" horiz-adv-x="633" d="M135 667h134q77 0 118 -7.5t77 -28.5q65 -37 102.5 -112.5t37.5 -168.5q0 -109 -50 -197t-133 -125q-61 -28 -200 -28h-169l40 322h-60l10 80h60zM222 575l-21 -173h153l-10 -80h-153l-28 -230h75q76 0 118.5 13t74.5 46q74 77 74 203q0 75 -30 129t-83 76 q-37 16 -115 16h-55z" />
<glyph unicode="&#x111;" horiz-adv-x="550" d="M538 729l-10 -86h60l-10 -80h-60l-69 -563h-96l6 44q-36 -32 -61.5 -43t-63.5 -11q-86 0 -140 57t-54 147q0 96 59.5 159.5t149.5 63.5q46 0 78.5 -16t68.5 -56l27 218h-120l9 80h120l11 86h95zM265 337q-56 0 -92.5 -42t-36.5 -106q0 -54 31.5 -86.5t83.5 -32.5 q60 0 96 49q34 47 34 102q0 52 -32 84t-84 32z" />
<glyph unicode="&#x112;" horiz-adv-x="470" d="M477 667l-11 -92h-245l-21 -173h245l-11 -85h-244l-28 -225h245l-12 -92h-343l82 667h343zM173 833h306l-9 -73h-306z" />
<glyph unicode="&#x113;" horiz-adv-x="496" d="M451 169h-315q2 -47 32 -74.5t80 -27.5q67 0 102 50l71 -40q-37 -49 -76.5 -69.5t-98.5 -20.5q-95 0 -151 55.5t-56 149.5q0 98 62 163t155 65q90 0 143 -58.5t53 -158.5zM142 246h213q-15 94 -104 94q-85 0 -109 -94zM149 579h277l-8 -69h-277z" />
<glyph unicode="&#x114;" horiz-adv-x="470" d="M477 667l-11 -92h-245l-21 -173h245l-11 -85h-244l-28 -225h245l-12 -92h-343l82 667h343zM204 868h70q1 -69 51 -69q52 0 78 69h71q-18 -56 -41 -84q-43 -54 -110 -54q-52 0 -85.5 33.5t-33.5 86.5v18z" />
<glyph unicode="&#x115;" horiz-adv-x="496" d="M451 169h-315q2 -47 32 -74.5t80 -27.5q67 0 102 50l71 -40q-37 -49 -76.5 -69.5t-98.5 -20.5q-95 0 -151 55.5t-56 149.5q0 98 62 163t155 65q90 0 143 -58.5t53 -158.5zM142 246h213q-15 94 -104 94q-85 0 -109 -94zM175 618h67v-15q0 -23 14 -38.5t36 -15.5 q47 0 70 69h68q-17 -51 -40 -81q-44 -53 -102 -53q-48 0 -80.5 34t-32.5 84v16z" />
<glyph unicode="&#x116;" horiz-adv-x="470" d="M477 667l-11 -92h-245l-21 -173h245l-11 -85h-244l-28 -225h245l-12 -92h-343l82 667h343zM323 856q23 0 38 -16t15 -41q0 -22 -15.5 -37t-37.5 -15q-23 0 -39.5 16t-16.5 39q0 24 15.5 39t40.5 15z" />
<glyph unicode="&#x117;" horiz-adv-x="496" d="M451 169h-315q2 -47 32 -74.5t80 -27.5q67 0 102 50l71 -40q-37 -49 -76.5 -69.5t-98.5 -20.5q-95 0 -151 55.5t-56 149.5q0 98 62 163t155 65q90 0 143 -58.5t53 -158.5zM142 246h213q-15 94 -104 94q-85 0 -109 -94zM285 601q21 0 36.5 -15.5t15.5 -37.5q0 -21 -15 -36 t-36 -15t-36.5 15.5t-15.5 37.5q0 21 15 36t36 15z" />
<glyph unicode="&#x118;" horiz-adv-x="470" d="M407 92l-12 -92q-78 -55 -78 -89q0 -27 30 -27q26 0 60 19l-19 -80q-31 -16 -64 -16q-40 0 -65 22t-25 57q0 33 19.5 58t71.5 56h-273l82 667h343l-11 -92h-245l-21 -173h245l-11 -85h-244l-28 -225h245z" />
<glyph unicode="&#x119;" horiz-adv-x="496" d="M389 -108l-16 -60q-31 -17 -64 -17q-38 0 -63 23.5t-25 58.5q0 26 15.5 47t55.5 47q-29 -4 -55 -4q-87 0 -142.5 57t-55.5 148q0 98 62 163t155 65q90 0 143 -58.5t53 -158.5l-1 -34h-315q2 -47 32 -74.5t80 -27.5q67 0 102 50l71 -40q-15 -21 -49 -52q-72 -68 -72 -106 q0 -16 12 -25.5t31 -9.5q15 0 46 8zM142 246h213q-15 94 -104 94q-85 0 -109 -94z" />
<glyph unicode="&#x11a;" horiz-adv-x="470" d="M477 667l-11 -92h-245l-21 -173h245l-11 -85h-244l-28 -225h245l-12 -92h-343l82 667h343zM325 818l104 76l43 -47l-157 -120l-111 121l53 44z" />
<glyph unicode="&#x11b;" horiz-adv-x="496" d="M451 169h-315q2 -47 32 -74.5t80 -27.5q67 0 102 50l71 -40q-37 -49 -76.5 -69.5t-98.5 -20.5q-95 0 -151 55.5t-56 149.5q0 98 62 163t155 65q90 0 143 -58.5t53 -158.5zM142 246h213q-15 94 -104 94q-85 0 -109 -94zM287 560l94 82l40 -43l-143 -128l-102 128l43 42z " />
<glyph unicode="&#x11c;" horiz-adv-x="710" d="M412 310h267q-11 -116 -55 -186q-84 -137 -248 -137q-139 0 -229 94t-90 239q0 156 96.5 258t244.5 102q165 0 274 -134l-65 -66q-81 107 -211 107q-106 0 -173 -74t-67 -191q0 -106 63 -174t162 -68q72 0 121.5 38.5t63.5 106.5h-165zM443 803l-104 -76l-43 46l157 121 l111 -121l-53 -44z" />
<glyph unicode="&#x11d;" horiz-adv-x="542" d="M497 407l-50 -411q-8 -65 -20 -99.5t-34 -59.5q-58 -67 -165 -67t-167 62q-23 24 -32.5 52t-9.5 75h92q3 -46 17 -67q26 -42 93 -42q59 0 92 33q29 29 36 97l7 57q-59 -47 -127 -47q-83 0 -137 57t-54 145q0 97 63 161t158 64q43 0 73 -13t64 -47l6 50h95zM265 337 q-56 0 -93.5 -41t-37.5 -104q0 -55 32 -88.5t85 -33.5q59 0 97.5 41t38.5 103q0 55 -33.5 89t-88.5 34zM313 554l-94 -83l-40 44l144 127l101 -128l-43 -41z" />
<glyph unicode="&#x11e;" horiz-adv-x="710" d="M412 310h267q-11 -116 -55 -186q-84 -137 -248 -137q-139 0 -229 94t-90 239q0 156 96.5 258t244.5 102q165 0 274 -134l-65 -66q-81 107 -211 107q-106 0 -173 -74t-67 -191q0 -106 63 -174t162 -68q72 0 121.5 38.5t63.5 106.5h-165zM316 868h70q1 -69 51 -69 q52 0 78 69h71q-18 -56 -41 -84q-43 -54 -110 -54q-52 0 -85.5 33.5t-33.5 86.5v18z" />
<glyph unicode="&#x11f;" horiz-adv-x="542" d="M497 407l-50 -411q-8 -65 -20 -99.5t-34 -59.5q-58 -67 -165 -67t-167 62q-23 24 -32.5 52t-9.5 75h92q3 -46 17 -67q26 -42 93 -42q59 0 92 33q29 29 36 97l7 57q-59 -47 -127 -47q-83 0 -137 57t-54 145q0 97 63 161t158 64q43 0 73 -13t64 -47l6 50h95zM265 337 q-56 0 -93.5 -41t-37.5 -104q0 -55 32 -88.5t85 -33.5q59 0 97.5 41t38.5 103q0 55 -33.5 89t-88.5 34zM197 618h67v-15q0 -23 14 -38.5t36 -15.5q47 0 70 69h68q-17 -51 -40 -81q-44 -53 -102 -53q-48 0 -80.5 34t-32.5 84v16z" />
<glyph unicode="&#x120;" horiz-adv-x="710" d="M412 310h267q-11 -116 -55 -186q-84 -137 -248 -137q-139 0 -229 94t-90 239q0 156 96.5 258t244.5 102q165 0 274 -134l-65 -66q-81 107 -211 107q-106 0 -173 -74t-67 -191q0 -106 63 -174t162 -68q72 0 121.5 38.5t63.5 106.5h-165zM439 856q23 0 38 -16t15 -41 q0 -22 -15.5 -37t-37.5 -15q-23 0 -39.5 16t-16.5 39q0 24 15.5 39t40.5 15z" />
<glyph unicode="&#x121;" horiz-adv-x="542" d="M497 407l-50 -411q-8 -65 -20 -99.5t-34 -59.5q-58 -67 -165 -67t-167 62q-23 24 -32.5 52t-9.5 75h92q3 -46 17 -67q26 -42 93 -42q59 0 92 33q29 29 36 97l7 57q-59 -47 -127 -47q-83 0 -137 57t-54 145q0 97 63 161t158 64q43 0 73 -13t64 -47l6 50h95zM265 337 q-56 0 -93.5 -41t-37.5 -104q0 -55 32 -88.5t85 -33.5q59 0 97.5 41t38.5 103q0 55 -33.5 89t-88.5 34zM307 601q21 0 36.5 -15.5t15.5 -37.5q0 -21 -15 -36t-36 -15t-36.5 15.5t-15.5 37.5q0 21 15 36t36 15z" />
<glyph unicode="&#x122;" horiz-adv-x="710" d="M412 310h267q-11 -116 -55 -186q-84 -137 -248 -137q-139 0 -229 94t-90 239q0 156 96.5 258t244.5 102q165 0 274 -134l-65 -66q-81 107 -211 107q-106 0 -173 -74t-67 -191q0 -106 63 -174t162 -68q72 0 121.5 38.5t63.5 106.5h-165zM319 -53l82 -32l-104 -158l-56 27z " />
<glyph unicode="&#x123;" horiz-adv-x="542" d="M497 407l-50 -411q-8 -65 -20 -99.5t-34 -59.5q-58 -67 -165 -67t-167 62q-23 24 -32.5 52t-9.5 75h92q3 -46 17 -67q26 -42 93 -42q59 0 92 33q29 29 36 97l7 57q-59 -47 -127 -47q-83 0 -137 57t-54 145q0 97 63 161t158 64q43 0 73 -13t64 -47l6 50h95zM265 337 q-56 0 -93.5 -41t-37.5 -104q0 -55 32 -88.5t85 -33.5q59 0 97.5 41t38.5 103q0 55 -33.5 89t-88.5 34zM325 471l-78 36l107 149l49 -27z" />
<glyph unicode="&#x124;" horiz-adv-x="633" d="M607 667l-82 -667h-99l40 325h-275l-40 -325h-99l82 667h99l-32 -262h275l32 262h99zM393 803l-104 -76l-43 46l157 121l111 -121l-53 -44z" />
<glyph unicode="&#x125;" horiz-adv-x="488" d="M224 729l-44 -357q57 45 116 45t95.5 -31.5t36.5 -81.5q0 -21 -5 -63l-29 -241h-96l31 247q2 26 2 36q0 26 -16.5 40t-47.5 14q-39 0 -69 -28q-29 -29 -37 -96l-27 -213h-95l90 729h95zM234 835l-104 -76l-43 46l157 121l111 -121l-53 -44z" />
<glyph unicode="&#x126;" horiz-adv-x="633" d="M655 575l-9 -80h-60l-61 -495h-99l40 325h-275l-40 -325h-99l61 495h-60l10 80h60l11 92h99l-12 -92h276l11 92h99l-12 -92h60zM212 495l-11 -90h275l11 90h-275z" />
<glyph unicode="&#x127;" horiz-adv-x="488" d="M224 729l-11 -86h120l-9 -80h-120l-24 -191q59 45 116 45q59 0 95.5 -31.5t36.5 -81.5q0 -21 -5 -63l-29 -241h-96l31 247q2 26 2 36q0 26 -16.5 40t-47.5 14q-39 0 -69 -28q-29 -29 -37 -96l-27 -213h-95l69 563h-60l10 80h60l11 86h95z" />
<glyph unicode="&#x128;" horiz-adv-x="259" d="M232 667l-82 -667h-98l82 667h98zM296 859l50 -37q-40 -79 -96 -79q-28 0 -78 28q-26 14 -36 14q-17 0 -45 -42l-50 39q33 44 53 60t43 16t63 -25q33 -19 50 -19q29 0 46 45z" />
<glyph unicode="&#x129;" horiz-adv-x="229" d="M184 407l-50 -407h-95l50 407h95zM248 611l50 -34q-41 -78 -93 -78q-27 0 -90 39q-6 3 -14 3q-11 0 -17 -5.5t-18 -25.5q-2 -3 -7 -10l-49 34q26 41 46.5 58.5t44.5 17.5q19 0 61 -24q33 -19 43 -19q22 0 43 44z" />
<glyph unicode="&#x12a;" horiz-adv-x="259" d="M233 667l-82 -667h-99l82 667h99zM84 833h239l-9 -73h-239z" />
<glyph unicode="&#x12b;" horiz-adv-x="229" d="M184 407l-50 -407h-95l50 407h95zM52 579h211l-9 -69h-210z" />
<glyph unicode="&#x12c;" horiz-adv-x="259" d="M233 667l-82 -667h-99l82 667h99zM68 868h70q1 -69 51 -69q52 0 78 69h71q-18 -56 -41 -84q-43 -54 -110 -54q-52 0 -85.5 33.5t-33.5 86.5v18z" />
<glyph unicode="&#x12d;" horiz-adv-x="229" d="M184 407l-50 -407h-95l50 407h95zM40 614h66q-1 -4 -1 -11q0 -22 12.5 -36.5t31.5 -14.5q41 0 62 62h66q-17 -60 -51 -92t-79 -32q-44 0 -75.5 33t-31.5 79v12z" />
<glyph unicode="&#x12e;" horiz-adv-x="259" d="M233 667l-79 -667q-62 -58 -62 -89q0 -11 7.5 -19t17.5 -8q16 0 49 19l-20 -80q-32 -16 -54 -16q-35 0 -59 23t-24 56q0 30 18 55.5t63 58.5h-38l82 667h99z" />
<glyph unicode="&#x12f;" horiz-adv-x="229" d="M180 407l-50 -407q-52 -51 -52 -85q0 -32 33 -32q17 0 36 9l-16 -60q-25 -18 -53 -18q-33 0 -56 23.5t-23 56.5q0 57 82 106h-46l50 407h95zM161 654q22 0 37.5 -16t15.5 -37t-15 -36t-36 -15t-36.5 15.5t-15.5 37.5q0 21 15 36t35 15z" />
<glyph unicode="&#x130;" horiz-adv-x="259" d="M233 667l-82 -667h-99l82 667h99zM200 856q23 0 38 -16t15 -41q0 -22 -15.5 -37t-37.5 -15q-23 0 -39.5 16t-16.5 39q0 24 15.5 39t40.5 15z" />
<glyph unicode="&#x131;" horiz-adv-x="229" d="M184 407l-50 -407h-95l50 407h95z" />
<glyph unicode="&#x132;" horiz-adv-x="629" d="M233 667l-82 -667h-99l82 667h99zM603 667l-59 -480q-13 -112 -54 -155q-40 -45 -115 -45q-77 0 -138 64l51 73q45 -44 83 -44q36 0 53 36.5t30 140.5l50 410h99z" />
<glyph unicode="&#x133;" horiz-adv-x="455" d="M161 654q22 0 37.5 -16t15.5 -37t-15 -36t-36 -15t-36.5 15.5t-15.5 37.5q0 21 15 36t35 15zM184 407l-50 -407h-95l50 407h95zM382 654q22 0 37.5 -16t15.5 -37t-15 -36t-37 -15q-21 0 -36.5 15.5t-15.5 37.5q0 21 15 36t36 15zM406 407l-78 -640h-96l79 640h95z" />
<glyph unicode="&#x134;" horiz-adv-x="377" d="M351 667l-59 -480q-13 -112 -54 -155q-40 -45 -115 -45q-77 0 -138 64l51 73q45 -44 83 -44q36 0 53 36.5t30 140.5l50 410h99zM319 803l-104 -76l-43 46l157 121l111 -121l-53 -44z" />
<glyph unicode="&#x135;" horiz-adv-x="233" d="M184 407l-79 -640h-95l79 640h95zM152 554l-94 -83l-40 44l144 127l101 -128l-43 -41z" />
<glyph unicode="&#x136;" horiz-adv-x="596" d="M233 667l-35 -283l269 283h125l-311 -310l280 -357h-119l-251 325l-40 -325h-99l82 667h99zM247 -53l82 -32l-104 -158l-56 27z" />
<glyph unicode="&#x137;" horiz-adv-x="456" d="M224 729l-59 -480l171 158h127l-213 -186l172 -221h-116l-148 194l-24 -194h-95l90 729h95zM175 -53l78 -36l-107 -149l-49 27z" />
<glyph unicode="&#x138;" horiz-adv-x="456" d="M184 407l-19 -158l171 158h127l-213 -186l172 -221h-116l-148 194l-24 -194h-95l50 407h95z" />
<glyph unicode="&#x139;" horiz-adv-x="381" d="M233 667l-71 -575h189l-12 -92h-287l82 667h99zM335 847l-141 -120l-52 31l118 136z" />
<glyph unicode="&#x13a;" horiz-adv-x="229" d="M224 729l-90 -729h-95l90 729h95zM309 887l-129 -120l-49 31l109 136z" />
<glyph unicode="&#x13b;" horiz-adv-x="381" d="M233 667l-71 -575h189l-12 -92h-287l82 667h99zM163 -53l82 -32l-104 -158l-56 27z" />
<glyph unicode="&#x13c;" horiz-adv-x="229" d="M223 729l-89 -729h-96l90 729h95zM51 -53l78 -36l-107 -149l-49 27z" />
<glyph unicode="&#x13d;" horiz-adv-x="381" d="M233 667l-71 -575h189l-12 -92h-287l82 667h99zM339 670l82 -32l-104 -158l-56 27z" />
<glyph unicode="&#x13e;" horiz-adv-x="351" d="M224 729l-90 -729h-95l90 729h95zM327 733l78 -36l-107 -150l-49 27z" />
<glyph unicode="&#x13f;" horiz-adv-x="381" d="M233 667l-71 -575h189l-12 -92h-287l82 667h99zM328 416q32 0 55.5 -23t23.5 -55q0 -29 -23 -51.5t-53 -22.5q-31 0 -53 23t-22 55t20.5 53t51.5 21z" />
<glyph unicode="&#x140;" horiz-adv-x="379" d="M224 729l-90 -729h-95l90 729h95zM316 436q32 0 55.5 -23t23.5 -55q0 -29 -23 -51.5t-53 -22.5q-31 0 -53 23t-22 55t20.5 53t51.5 21z" />
<glyph unicode="&#x141;" horiz-adv-x="381" d="M325 472l-12 -95l-125 -77l-26 -208h189l-11 -92h-288l32 259l-65 -41l12 95l65 41l38 313h99l-33 -272z" />
<glyph unicode="&#x142;" horiz-adv-x="229" d="M256 476l-12 -99l-68 -43l-41 -334h-96l36 293l-68 -44l12 98l68 44l42 338h95l-36 -296z" />
<glyph unicode="&#x143;" horiz-adv-x="727" d="M701 667l-88 -713l-404 517l-58 -471h-99l87 703l404 -516l59 480h99zM552 847l-141 -120l-52 31l118 136z" />
<glyph unicode="&#x144;" horiz-adv-x="487" d="M184 407l-4 -38q56 48 114 48q66 0 104 -41q27 -30 27 -83q0 -24 -6 -75l-27 -218h-95l29 239q4 34 4 43q0 55 -60 55q-41 0 -69 -28q-19 -19 -28 -42t-15 -71l-24 -196h-95l50 407h95zM402 597l-138 -126l-49 29l116 142z" />
<glyph unicode="&#x145;" horiz-adv-x="727" d="M701 667l-88 -713l-404 517l-58 -471h-99l87 703l404 -516l59 480h99zM308 -53l82 -32l-104 -158l-56 27z" />
<glyph unicode="&#x146;" horiz-adv-x="487" d="M184 407l-4 -38q56 48 114 48q66 0 104 -41q27 -30 27 -83q0 -24 -6 -75l-27 -218h-95l29 239q4 34 4 43q0 55 -60 55q-41 0 -69 -28q-19 -19 -28 -42t-15 -71l-24 -196h-95l50 407h95zM186 -53l78 -36l-107 -149l-49 27z" />
<glyph unicode="&#x147;" horiz-adv-x="727" d="M701 667l-88 -713l-404 517l-58 -471h-99l87 703l404 -516l59 480h99zM424 818l104 76l43 -47l-157 -120l-111 121l53 44z" />
<glyph unicode="&#x148;" horiz-adv-x="487" d="M184 407l-4 -38q56 48 114 48q66 0 104 -41q27 -30 27 -83q0 -24 -6 -75l-27 -218h-95l29 239q4 34 4 43q0 55 -60 55q-41 0 -69 -28q-19 -19 -28 -42t-15 -71l-24 -196h-95l50 407h95zM273 560l94 82l40 -43l-143 -128l-102 128l43 42z" />
<glyph unicode="&#x149;" horiz-adv-x="625" d="M270 643l-137 -228l-53 28l123 237zM323 407l-5 -38q58 48 115 48q65 0 103 -41q27 -30 27 -83q0 -27 -5 -75l-27 -218h-96l30 239q3 24 3 43q0 55 -60 55q-39 0 -69 -28q-19 -19 -27.5 -42.5t-14.5 -70.5l-24 -196h-96l50 407h96z" />
<glyph unicode="&#x14a;" horiz-adv-x="633" d="M134 667h99l-8 -62q44 43 80.5 59t86.5 16q87 0 138 -50.5t51 -136.5q0 -40 -6 -85l-40 -329q-14 -106 -54 -150q-56 -62 -153 -62q-46 0 -107 26l11 93q41 -18 58 -23t40 -5q56 0 80 38q19 29 28 104l34 273q8 74 8 98q0 117 -111 117q-41 0 -77 -19.5t-55 -51.5 q-28 -49 -42 -157l-44 -360h-99z" />
<glyph unicode="&#x14b;" horiz-adv-x="487" d="M184 407l-4 -38q56 48 114 48q61 0 96 -33t35 -91q0 -27 -6 -75l-24 -193q-9 -79 -39 -112q-41 -46 -112 -46q-30 0 -69 15l12 82q35 -12 52 -12q31 0 43.5 18t19.5 70l24 199q4 34 4 43q0 55 -60 55q-41 0 -69 -28q-19 -19 -28 -42t-15 -71l-24 -196h-95l50 407h95z" />
<glyph unicode="&#x14c;" horiz-adv-x="784" d="M412 680q154 0 248 -91.5t94 -241.5q0 -155 -101.5 -257.5t-255.5 -102.5q-150 0 -244.5 96t-94.5 248q0 151 100.5 250t253.5 99zM415 587q-110 0 -184 -73.5t-74 -183.5q0 -108 68.5 -179t173.5 -71q110 0 182.5 76t72.5 191q0 110 -65 175t-174 65zM314 833h306 l-9 -73h-306z" />
<glyph unicode="&#x14d;" d="M269 420q97 0 158 -59.5t61 -153.5q0 -93 -64.5 -156.5t-158.5 -63.5q-98 0 -161.5 60t-63.5 153q0 94 65.5 157t163.5 63zM269 340q-58 0 -95.5 -39t-37.5 -99t35.5 -97.5t91.5 -37.5t92.5 41t36.5 104q0 58 -34 93t-89 35zM169 579h277l-8 -69h-277z" />
<glyph unicode="&#x14e;" horiz-adv-x="784" d="M412 680q154 0 248 -91.5t94 -241.5q0 -155 -101.5 -257.5t-255.5 -102.5q-150 0 -244.5 96t-94.5 248q0 151 100.5 250t253.5 99zM415 587q-110 0 -184 -73.5t-74 -183.5q0 -108 68.5 -179t173.5 -71q110 0 182.5 76t72.5 191q0 110 -65 175t-174 65zM312 868h70 q1 -69 51 -69q52 0 78 69h71q-18 -56 -41 -84q-43 -54 -110 -54q-52 0 -85.5 33.5t-33.5 86.5v18z" />
<glyph unicode="&#x14f;" d="M269 420q97 0 158 -59.5t61 -153.5q0 -93 -64.5 -156.5t-158.5 -63.5q-98 0 -161.5 60t-63.5 153q0 94 65.5 157t163.5 63zM269 340q-58 0 -95.5 -39t-37.5 -99t35.5 -97.5t91.5 -37.5t92.5 41t36.5 104q0 58 -34 93t-89 35zM176 618h67v-15q0 -23 14 -38.5t36 -15.5 q47 0 70 69h68q-17 -51 -40 -81q-44 -53 -102 -53q-48 0 -80.5 34t-32.5 84v16z" />
<glyph unicode="&#x150;" horiz-adv-x="784" d="M412 680q154 0 248 -91.5t94 -241.5q0 -155 -101.5 -257.5t-255.5 -102.5q-150 0 -244.5 96t-94.5 248q0 151 100.5 250t253.5 99zM415 587q-110 0 -184 -73.5t-74 -183.5q0 -108 68.5 -179t173.5 -71q110 0 182.5 76t72.5 191q0 110 -65 175t-174 65zM514 847l-134 -118 l-43 29l110 136zM681 847l-134 -118l-43 29l110 136z" />
<glyph unicode="&#x151;" d="M269 420q97 0 158 -59.5t61 -153.5q0 -93 -64.5 -156.5t-158.5 -63.5q-98 0 -161.5 60t-63.5 153q0 94 65.5 157t163.5 63zM269 340q-58 0 -95.5 -39t-37.5 -99t35.5 -97.5t91.5 -37.5t92.5 41t36.5 104q0 58 -34 93t-89 35zM356 597l-124 -126l-42 30l102 141zM507 597 l-124 -126l-42 30l102 141z" />
<glyph unicode="&#x152;" horiz-adv-x="1050" d="M1053 667l-11 -92h-256l-21 -175h260l-11 -85h-260l-27 -223h260l-11 -92h-359l11 90q-56 -56 -110 -79.5t-127 -23.5q-144 0 -239 95.5t-95 240.5q0 154 102 255.5t257 101.5q85 0 148 -33t119 -106l16 126h354zM409 587q-107 0 -180 -76.5t-73 -189.5q0 -105 69 -173 t176 -68q110 0 183.5 74.5t73.5 185.5t-68.5 179t-180.5 68z" />
<glyph unicode="&#x153;" horiz-adv-x="866" d="M822 172h-324q4 -41 24 -67q28 -38 93 -38q72 0 106 58l72 -45q-36 -49 -77.5 -71t-99.5 -22q-109 0 -173 81q-37 -45 -76 -63t-98 -18q-101 0 -165 60.5t-64 155.5t65.5 156t166.5 61q58 0 100 -19t79 -62q68 81 170 81q94 0 147.5 -57t53.5 -156v-35zM271 340 q-58 0 -96.5 -40t-38.5 -101q0 -58 37 -95t94 -37q59 0 97 39t38 100t-36 97.5t-95 36.5zM500 242h224q-6 98 -103 98q-98 0 -121 -98z" />
<glyph unicode="&#x154;" horiz-adv-x="527" d="M316 281l167 -281h-105l-158 274h-36l-33 -274h-99l82 667h131q107 0 154 -40q64 -54 64 -150q0 -90 -59 -144q-36 -34 -108 -52zM221 575l-26 -214h46q81 0 112 34t31 83q0 65 -51 87q-25 10 -70 10h-42zM435 847l-141 -120l-52 31l118 136z" />
<glyph unicode="&#x155;" horiz-adv-x="338" d="M184 407l-4 -35q28 26 49 36t49 10q43 0 78 -32l-61 -78q-26 23 -52 23q-37 0 -56 -29.5t-28 -98.5l-25 -203h-95l50 407h95zM355 597l-138 -126l-49 29l116 142z" />
<glyph unicode="&#x156;" horiz-adv-x="527" d="M316 281l167 -281h-105l-158 274h-36l-33 -274h-99l82 667h131q107 0 154 -40q64 -54 64 -150q0 -90 -59 -144q-36 -34 -108 -52zM221 575l-26 -214h46q81 0 112 34t31 83q0 65 -51 87q-25 10 -70 10h-42zM215 -53l82 -32l-104 -158l-56 27z" />
<glyph unicode="&#x157;" horiz-adv-x="338" d="M184 407l-4 -35q28 26 48.5 36t48.5 10q44 0 79 -32l-61 -78q-26 23 -53 23q-36 0 -55.5 -30t-27.5 -98l-25 -203h-95l50 407h95zM54 -53l78 -36l-107 -149l-49 27z" />
<glyph unicode="&#x158;" horiz-adv-x="527" d="M316 281l167 -281h-105l-158 274h-36l-33 -274h-99l82 667h131q107 0 154 -40q64 -54 64 -150q0 -90 -59 -144q-36 -34 -108 -52zM221 575l-26 -214h46q81 0 112 34t31 83q0 65 -51 87q-25 10 -70 10h-42zM308 818l104 76l43 -47l-157 -120l-111 121l53 44z" />
<glyph unicode="&#x159;" horiz-adv-x="338" d="M184 407l-4 -35q28 26 49 36t49 10q43 0 78 -32l-61 -78q-26 23 -52 23q-37 0 -56 -29.5t-28 -98.5l-25 -203h-95l50 407h95zM226 560l94 82l40 -43l-143 -128l-102 128l43 42z" />
<glyph unicode="&#x15a;" horiz-adv-x="494" d="M484 582l-66 -63q-26 38 -50.5 53.5t-57.5 15.5q-44 0 -73 -27.5t-29 -68.5q0 -32 20 -55.5t77 -57.5q85 -50 114.5 -90.5t29.5 -107.5q0 -86 -57 -140t-148 -54q-90 0 -152 51q-32 26 -65 85l75 51q31 -53 60.5 -73.5t75.5 -20.5q52 0 82 28t30 78q0 35 -21.5 59.5 t-86.5 62.5q-76 45 -104.5 85t-28.5 101q0 81 56 134t141 53q55 0 95.5 -22.5t82.5 -76.5zM455 847l-141 -120l-52 31l118 136z" />
<glyph unicode="&#x15b;" horiz-adv-x="357" d="M331 362l-54 -54q-38 35 -70 35q-22 0 -36.5 -12t-14.5 -31q0 -17 12 -29.5t51 -33.5q53 -31 73 -56.5t20 -65.5q0 -58 -40 -93t-107 -35q-49 0 -83 18.5t-65 62.5l62 44q39 -46 83 -46q24 0 39 13t15 33q0 19 -12.5 30t-62.5 39q-45 26 -63 50.5t-18 61.5q0 55 41 91.5 t103 36.5q68 0 127 -59zM351 597l-138 -126l-49 29l116 142z" />
<glyph unicode="&#x15c;" horiz-adv-x="494" d="M484 582l-66 -63q-26 38 -50.5 53.5t-57.5 15.5q-44 0 -73 -27.5t-29 -68.5q0 -32 20 -55.5t77 -57.5q85 -50 114.5 -90.5t29.5 -107.5q0 -86 -57 -140t-148 -54q-90 0 -152 51q-32 26 -65 85l75 51q31 -53 60.5 -73.5t75.5 -20.5q52 0 82 28t30 78q0 35 -21.5 59.5 t-86.5 62.5q-76 45 -104.5 85t-28.5 101q0 81 56 134t141 53q55 0 95.5 -22.5t82.5 -76.5zM339 803l-104 -76l-43 46l157 121l111 -121l-53 -44z" />
<glyph unicode="&#x15d;" horiz-adv-x="357" d="M331 362l-54 -54q-38 35 -70 35q-22 0 -36.5 -12t-14.5 -31q0 -17 12 -29.5t51 -33.5q53 -31 73 -56.5t20 -65.5q0 -58 -40 -93t-107 -35q-49 0 -83 18.5t-65 62.5l62 44q39 -46 83 -46q24 0 39 13t15 33q0 19 -12.5 30t-62.5 39q-45 26 -63 50.5t-18 61.5q0 55 41 91.5 t103 36.5q68 0 127 -59zM228 554l-94 -83l-40 44l144 127l101 -128l-43 -41z" />
<glyph unicode="&#x15e;" horiz-adv-x="494" d="M484 582l-66 -63q-26 38 -50.5 53.5t-57.5 15.5q-44 0 -73 -27.5t-29 -68.5q0 -32 20 -55.5t77 -57.5q85 -50 114.5 -90.5t29.5 -107.5q0 -86 -57 -140t-148 -54q-90 0 -152 51q-32 26 -65 85l75 51q31 -53 60.5 -73.5t75.5 -20.5q52 0 82 28t30 78q0 35 -21.5 59.5 t-86.5 62.5q-76 45 -104.5 85t-28.5 101q0 81 56 134t141 53q55 0 95.5 -22.5t82.5 -76.5zM285 -91l-119 -122l-54 31l88 135z" />
<glyph unicode="&#x15f;" horiz-adv-x="357" d="M331 362l-54 -54q-38 35 -70 35q-22 0 -36.5 -12t-14.5 -31q0 -17 12 -29.5t51 -33.5q53 -31 73 -56.5t20 -65.5q0 -58 -40 -93t-107 -35q-49 0 -83 18.5t-65 62.5l62 44q39 -46 83 -46q24 0 39 13t15 33q0 19 -12.5 30t-62.5 39q-45 26 -63 50.5t-18 61.5q0 55 41 91.5 t103 36.5q68 0 127 -59zM200 -89l-116 -119l-51 29l86 132z" />
<glyph unicode="&#x160;" horiz-adv-x="494" d="M484 582l-66 -63q-26 38 -50.5 53.5t-57.5 15.5q-44 0 -73 -27.5t-29 -68.5q0 -32 20 -55.5t77 -57.5q85 -50 114.5 -90.5t29.5 -107.5q0 -86 -57 -140t-148 -54q-90 0 -152 51q-32 26 -65 85l75 51q31 -53 60.5 -73.5t75.5 -20.5q52 0 82 28t30 78q0 35 -21.5 59.5 t-86.5 62.5q-76 45 -104.5 85t-28.5 101q0 81 56 134t141 53q55 0 95.5 -22.5t82.5 -76.5zM326 818l104 76l43 -47l-157 -120l-111 121l53 44z" />
<glyph unicode="&#x161;" horiz-adv-x="357" d="M331 362l-54 -54q-38 35 -70 35q-22 0 -36.5 -12t-14.5 -31q0 -17 12 -29.5t51 -33.5q53 -31 73 -56.5t20 -65.5q0 -58 -40 -93t-107 -35q-49 0 -83 18.5t-65 62.5l62 44q39 -46 83 -46q24 0 39 13t15 33q0 19 -12.5 30t-62.5 39q-45 26 -63 50.5t-18 61.5q0 55 41 91.5 t103 36.5q68 0 127 -59zM224 560l94 82l40 -43l-143 -128l-102 128l43 42z" />
<glyph unicode="&#x162;" horiz-adv-x="424" d="M307 575l-71 -575h-98l70 575h-159l11 92h411l-11 -92h-153zM151 -53l82 -32l-104 -158l-56 27z" />
<glyph unicode="&#x163;" horiz-adv-x="259" d="M180 318l-39 -318h-95l39 318h-54l11 89h54l23 188h95l-23 -188h88l-11 -89h-88zM60 -53l78 -36l-107 -149l-49 27z" />
<glyph unicode="&#x164;" horiz-adv-x="424" d="M307 575l-71 -575h-98l70 575h-159l11 92h411l-11 -92h-153zM284 818l104 76l43 -47l-157 -120l-111 121l53 44z" />
<glyph unicode="&#x165;" horiz-adv-x="370" d="M179 318l-39 -318h-95l39 318h-54l11 89h54l23 188h95l-23 -188h88l-11 -89h-88zM338 706l78 -36l-107 -150l-49 27z" />
<glyph unicode="&#x166;" horiz-adv-x="424" d="M413 462l-10 -80h-120l-47 -382h-98l47 382h-120l10 80h120l13 113h-159l11 92h411l-11 -92h-153l-14 -113h120z" />
<glyph unicode="&#x167;" horiz-adv-x="259" d="M259 251l-10 -80h-88l-21 -171h-95l21 171h-54l10 80h54l8 67h-54l11 89h54l23 188h95l-23 -188h88l-11 -89h-88l-8 -67h88z" />
<glyph unicode="&#x168;" horiz-adv-x="658" d="M632 667l-49 -395q-15 -130 -61 -191q-72 -94 -200 -94q-103 0 -171.5 62.5t-68.5 156.5q0 40 6 88l46 373h98l-47 -386q-4 -42 -4 -58q0 -67 37 -105t102 -38q90 0 132 75q24 44 34 131l47 381h99zM489 859l50 -37q-39 -79 -96 -79q-28 0 -78 28q-26 14 -36 14 q-17 0 -45 -42l-50 39q33 44 53 60t43 16t63 -25q33 -19 50 -19q29 0 46 45z" />
<glyph unicode="&#x169;" horiz-adv-x="484" d="M439 407l-29 -237q-7 -55 -17.5 -83t-33.5 -50q-50 -47 -137 -47q-75 0 -120 39t-45 104q0 10 4 54l27 220h96l-28 -228q-4 -23 -4 -44q0 -65 76 -65q40 0 59.5 21.5t26.5 74.5l30 241h95zM375 611l50 -34q-41 -78 -93 -78q-27 0 -90 39q-6 3 -14 3q-11 0 -17 -5.5 t-18 -25.5q-2 -3 -7 -10l-49 34q26 41 46.5 58.5t44.5 17.5q19 0 61 -24q33 -19 43 -19q22 0 43 44z" />
<glyph unicode="&#x16a;" horiz-adv-x="658" d="M632 667l-49 -395q-15 -130 -61 -191q-72 -94 -200 -94q-103 0 -171.5 62.5t-68.5 156.5q0 40 6 88l46 373h98l-47 -386q-4 -42 -4 -58q0 -67 37 -105t102 -38q90 0 132 75q24 44 34 131l47 381h99zM248 833h306l-9 -73h-306z" />
<glyph unicode="&#x16b;" horiz-adv-x="484" d="M439 407l-29 -237q-7 -55 -17.5 -83t-33.5 -50q-50 -47 -137 -47q-75 0 -120 39t-45 104q0 10 4 54l27 220h96l-28 -228q-4 -23 -4 -44q0 -65 76 -65q40 0 59.5 21.5t26.5 74.5l30 241h95zM147 579h277l-8 -69h-277z" />
<glyph unicode="&#x16c;" horiz-adv-x="658" d="M632 667l-49 -395q-15 -130 -61 -191q-72 -94 -200 -94q-103 0 -171.5 62.5t-68.5 156.5q0 40 6 88l46 373h98l-47 -386q-4 -42 -4 -58q0 -67 37 -105t102 -38q90 0 132 75q24 44 34 131l47 381h99zM260 868h70q1 -69 51 -69q52 0 78 69h71q-18 -56 -41 -84 q-43 -54 -110 -54q-52 0 -85.5 33.5t-33.5 86.5v18z" />
<glyph unicode="&#x16d;" horiz-adv-x="484" d="M439 407l-29 -237q-7 -55 -17.5 -83t-33.5 -50q-50 -47 -137 -47q-75 0 -120 39t-45 104q0 10 4 54l27 220h96l-28 -228q-4 -23 -4 -44q0 -65 76 -65q40 0 59.5 21.5t26.5 74.5l30 241h95zM161 618h67v-15q0 -23 14 -38.5t36 -15.5q47 0 70 69h68q-17 -51 -40 -81 q-44 -53 -102 -53q-48 0 -80.5 34t-32.5 84v16z" />
<glyph unicode="&#x16e;" horiz-adv-x="658" d="M632 667l-49 -395q-15 -130 -61 -191q-72 -94 -200 -94q-103 0 -171.5 62.5t-68.5 156.5q0 40 6 88l46 373h98l-47 -386q-4 -42 -4 -58q0 -67 37 -105t102 -38q90 0 132 75q24 44 34 131l47 381h99zM402 918q40 0 68 -28t28 -68q0 -39 -28 -67t-67 -28q-40 0 -68 28 t-28 68q0 39 28 67t67 28zM402 862q-16 0 -27.5 -11t-11.5 -28t11.5 -28.5t28.5 -11.5q16 0 27.5 12t11.5 28q0 17 -11.5 28t-28.5 11z" />
<glyph unicode="&#x16f;" horiz-adv-x="484" d="M439 407l-29 -237q-7 -55 -17.5 -83t-33.5 -50q-50 -47 -137 -47q-75 0 -120 39t-45 104q0 10 4 54l27 220h96l-28 -228q-4 -23 -4 -44q0 -65 76 -65q40 0 59.5 21.5t26.5 74.5l30 241h95zM281 651q41 0 68.5 -27.5t27.5 -68.5q0 -39 -28 -67t-67 -28q-40 0 -68 28 t-28 68q0 39 28 67t67 28zM281 596q-17 0 -29 -11.5t-12 -28.5q0 -16 12 -28.5t29 -12.5t29 12t12 29t-12 28.5t-29 11.5z" />
<glyph unicode="&#x170;" horiz-adv-x="658" d="M632 667l-49 -395q-15 -130 -61 -191q-72 -94 -200 -94q-103 0 -171.5 62.5t-68.5 156.5q0 40 6 88l46 373h98l-47 -386q-4 -42 -4 -58q0 -67 37 -105t102 -38q90 0 132 75q24 44 34 131l47 381h99zM449 847l-134 -118l-43 29l110 136zM616 847l-134 -118l-43 29l110 136 z" />
<glyph unicode="&#x171;" horiz-adv-x="484" d="M439 407l-29 -237q-7 -55 -17.5 -83t-33.5 -50q-50 -47 -137 -47q-75 0 -120 39t-45 104q0 10 4 54l27 220h96l-28 -228q-4 -23 -4 -44q0 -65 76 -65q40 0 59.5 21.5t26.5 74.5l30 241h95zM335 597l-124 -126l-42 30l102 141zM486 597l-124 -126l-42 30l102 141z" />
<glyph unicode="&#x172;" horiz-adv-x="658" d="M477 -97l-19 -80q-31 -16 -64 -16q-40 0 -65 22t-25 57q0 31 17 54t61 53q-37 -6 -64 -6q-100 0 -168 63t-68 156q0 40 6 88l46 373h98l-47 -386q-4 -42 -4 -58q0 -67 37 -105t102 -38q90 0 132 75q24 44 34 131l47 381h99l-49 -395q-14 -104 -37.5 -152.5t-90.5 -106.5 q-68 -62 -68 -103q0 -26 30 -26q26 0 60 19z" />
<glyph unicode="&#x173;" horiz-adv-x="484" d="M352 -108l-16 -60q-33 -17 -64 -17q-38 0 -63 23.5t-25 58.5q0 26 17 48t57 48q-26 -3 -45 -3q-68 0 -112 40t-44 103q0 10 4 54l27 220h96l-28 -228q-4 -23 -4 -44q0 -65 76 -65q40 0 59.5 21.5t26.5 74.5l30 241h95l-29 -237q-8 -66 -22.5 -95t-54.5 -62 q-69 -56 -69 -95q0 -15 11.5 -24.5t30.5 -9.5q15 0 46 8z" />
<glyph unicode="&#x174;" horiz-adv-x="920" d="M967 667l-348 -696l-133 467l-232 -474l-205 703h101l125 -456l234 479l134 -467l218 444h106zM528 803l-104 -76l-43 46l157 121l111 -121l-53 -44z" />
<glyph unicode="&#x175;" horiz-adv-x="643" d="M659 407l-262 -450l-82 263l-145 -263l-148 450h101l71 -248l145 259l78 -259l133 248h109zM352 554l-94 -83l-40 44l144 127l101 -128l-43 -41z" />
<glyph unicode="&#x176;" horiz-adv-x="516" d="M316 299l-37 -299h-99l38 305l-173 362h106l123 -265l175 265h114zM327 803l-104 -76l-43 46l157 121l111 -121l-53 -44z" />
<glyph unicode="&#x177;" horiz-adv-x="466" d="M481 407l-368 -640h-109l164 284l-146 356h102l101 -260l147 260h109zM272 554l-94 -83l-40 44l144 127l101 -128l-43 -41z" />
<glyph unicode="&#x178;" horiz-adv-x="516" d="M316 299l-37 -299h-99l38 305l-173 362h106l123 -265l175 265h114zM399 857q23 0 39 -16.5t16 -39.5q0 -22 -16 -38t-39 -16t-39 16.5t-16 39.5t16 38.5t39 15.5zM238 856q23 0 38 -16t15 -41q0 -22 -15.5 -37t-37.5 -15q-23 0 -39.5 16t-16.5 39q0 24 15.5 39t40.5 15z " />
<glyph unicode="&#x179;" horiz-adv-x="551" d="M507 92l-11 -92h-491l394 575h-280l11 92h441l-393 -575h329zM481 847l-141 -120l-52 31l118 136z" />
<glyph unicode="&#x17a;" horiz-adv-x="458" d="M421 89l-11 -89h-418l273 318h-204l11 89h383l-274 -318h240zM404 597l-138 -126l-49 29l116 142z" />
<glyph unicode="&#x17b;" horiz-adv-x="551" d="M507 92l-11 -92h-491l394 575h-280l11 92h441l-393 -575h329zM353 856q23 0 38 -16t15 -41q0 -22 -15.5 -37t-37.5 -15q-23 0 -39.5 16t-16.5 39q0 24 15.5 39t40.5 15z" />
<glyph unicode="&#x17c;" horiz-adv-x="458" d="M421 89l-11 -89h-418l273 318h-204l11 89h383l-274 -318h240zM270 601q21 0 36.5 -15.5t15.5 -37.5q0 -21 -15 -36t-36 -15t-36.5 15.5t-15.5 37.5q0 21 15 36t36 15z" />
<glyph unicode="&#x17d;" horiz-adv-x="551" d="M507 92l-11 -92h-491l394 575h-280l11 92h441l-393 -575h329zM350 818l104 76l43 -47l-157 -120l-111 121l53 44z" />
<glyph unicode="&#x17e;" horiz-adv-x="458" d="M421 89l-11 -89h-418l273 318h-204l11 89h383l-274 -318h240zM272 560l94 82l40 -43l-143 -128l-102 128l43 42z" />
<glyph unicode="&#x17f;" horiz-adv-x="271" d="M140 0h-95l39 318h-62l11 89h62l22 182q10 77 42 109q34 32 85 32q34 0 81 -22l-10 -84q-26 22 -50 22q-26 0 -38 -18t-18 -66z" />
<glyph unicode="&#x18f;" horiz-adv-x="800" d="M67 373h590q-4 95 -63.5 153.5t-153.5 58.5q-73 0 -135 -36t-103 -102l-85 43q59 89 149 139.5t191 50.5q127 0 214.5 -88.5t87.5 -217.5q0 -101 -54.5 -190.5t-146.5 -143t-196 -53.5q-128 0 -216.5 86t-88.5 211q0 30 10 89zM648 294h-490q4 -43 12 -69q21 -63 79 -103 t128 -40q93 0 169 59.5t102 152.5z" />
<glyph unicode="&#x192;" horiz-adv-x="567" d="M346 456h110l-9 -68h-113l-50 -281q-15 -83 -28.5 -120t-38.5 -62q-57 -55 -151 -55q-14 0 -26 1l14 82q69 1 95 29t45 122l49 284h-81l9 68h85l20 113q15 88 57 129.5t115 41.5q21 0 56 -7l-15 -82q-20 7 -40 7q-36 0 -54.5 -22t-28.5 -78z" />
<glyph unicode="&#x1a0;" horiz-adv-x="784" d="M662 586l58 122l82 -32l-96 -146q48 -79 48 -179q0 -158 -101 -261t-256 -103q-150 0 -244.5 96t-94.5 248q0 151 100.5 250t254.5 99q152 0 249 -94zM416 587q-111 0 -185 -73.5t-74 -183.5q0 -108 69 -179t174 -71q110 0 182.5 76t72.5 191q0 110 -65 175t-174 65z" />
<glyph unicode="&#x1a1;" d="M443 343l55 112l78 -35l-99 -139q11 -36 11 -71q0 -95 -64 -159t-159 -64q-98 0 -161.5 60t-63.5 153q0 95 65.5 157.5t164.5 62.5q112 0 173 -77zM269 340q-58 0 -95.5 -39t-37.5 -99t35.5 -97.5t91.5 -37.5t92.5 41t36.5 104q0 58 -34 93t-89 35z" />
<glyph unicode="&#x1af;" horiz-adv-x="658" d="M632 667l-49 -395q-15 -130 -61 -191q-72 -94 -200 -94q-103 0 -171.5 62.5t-68.5 156.5q0 40 6 88l46 373h98l-47 -386q-4 -42 -4 -58q0 -67 37 -105t102 -38q90 0 132 75q24 44 34 131l47 381h99zM717 717l82 -32l-104 -157l-56 27z" />
<glyph unicode="&#x1b0;" horiz-adv-x="484" d="M439 407l-29 -237q-7 -55 -17.5 -83t-33.5 -50q-50 -47 -137 -47q-75 0 -120 39t-45 104q0 10 4 54l27 220h96l-28 -228q-4 -23 -4 -44q0 -65 76 -65q40 0 59.5 21.5t26.5 74.5l30 241h95zM534 460l78 -36l-107 -150l-49 27z" />
<glyph unicode="&#x1cd;" horiz-adv-x="624" d="M188 157l-81 -157h-108l369 714l230 -714h-103l-48 157h-259zM231 242h188l-72 237zM376 818l104 76l43 -47l-157 -120l-111 121l53 44z" />
<glyph unicode="&#x1ce;" d="M487 407l-50 -407h-95l5 44q-34 -30 -62 -42t-64 -12q-74 0 -127 51q-56 55 -56 146q0 102 58.5 166t151.5 64q44 0 75 -14.5t62 -48.5l7 53h95zM260 337q-53 0 -89.5 -42t-36.5 -103q0 -54 30.5 -88t77.5 -34q53 0 91 43t38 102q0 54 -31 88t-80 34zM304 560l94 82 l40 -43l-143 -128l-102 128l43 42z" />
<glyph unicode="&#x1cf;" horiz-adv-x="259" d="M233 667l-82 -667h-99l82 667h99zM194 818l104 76l43 -47l-156 -120l-112 121l53 44z" />
<glyph unicode="&#x1d0;" horiz-adv-x="229" d="M184 407l-50 -407h-96l50 407h96zM148 560l94 82l40 -43l-143 -128l-102 128l43 42z" />
<glyph unicode="&#x1d2;" d="M269 420q97 0 158 -59.5t61 -153.5q0 -93 -64.5 -156.5t-158.5 -63.5q-98 0 -161.5 60t-63.5 153q0 94 65.5 157t163.5 63zM269 340q-58 0 -95.5 -39t-37.5 -99t35.5 -97.5t91.5 -37.5t92.5 41t36.5 104q0 58 -34 93t-89 35zM295 560l94 82l40 -43l-143 -128l-102 128 l43 42z" />
<glyph unicode="&#x1d3;" horiz-adv-x="658" d="M632 667l-49 -395q-15 -130 -61 -191q-72 -94 -200 -94q-103 0 -171.5 62.5t-68.5 156.5q0 40 6 88l46 373h98l-47 -386q-4 -42 -4 -58q0 -67 37 -105t102 -38q90 0 132 75q24 44 34 131l47 381h99zM394 818l104 76l43 -47l-157 -120l-111 121l53 44z" />
<glyph unicode="&#x1d4;" horiz-adv-x="484" d="M439 407l-29 -237q-7 -55 -17.5 -83t-33.5 -50q-50 -47 -137 -47q-75 0 -120 39t-45 104q0 10 4 54l27 220h96l-28 -228q-4 -23 -4 -44q0 -65 76 -65q40 0 59.5 21.5t26.5 74.5l30 241h95zM280 560l94 82l40 -43l-143 -128l-102 128l43 42z" />
<glyph unicode="&#x1dd;" horiz-adv-x="521" d="M381 227l1 23q0 47 -29.5 77.5t-75.5 30.5q-78 0 -125 -69l-95 11q34 61 94 96t132 35q91 0 146 -52t55 -137q0 -106 -74 -179.5t-180 -73.5q-88 0 -142.5 54t-54.5 142q0 8 4 42h344zM371 166h-239q3 -49 31.5 -77t75.5 -28q46 0 82.5 29t49.5 76z" />
<glyph unicode="&#x1e6;" horiz-adv-x="710" d="M412 310h267q-11 -116 -55 -186q-84 -137 -248 -137q-139 0 -229 94t-90 239q0 156 96.5 258t244.5 102q165 0 274 -134l-65 -66q-81 107 -211 107q-106 0 -173 -74t-67 -191q0 -106 63 -174t162 -68q72 0 121.5 38.5t63.5 106.5h-165zM435 818l104 76l43 -47l-157 -120 l-111 121l53 44z" />
<glyph unicode="&#x1e7;" horiz-adv-x="542" d="M497 407l-50 -411q-8 -65 -20 -99.5t-34 -59.5q-58 -67 -165 -67t-167 62q-23 24 -32.5 52t-9.5 75h92q3 -46 17 -67q26 -42 93 -42q59 0 92 33q29 29 36 97l7 57q-59 -47 -127 -47q-83 0 -137 57t-54 145q0 97 63 161t158 64q43 0 73 -13t64 -47l6 50h95zM265 337 q-56 0 -93.5 -41t-37.5 -104q0 -55 32 -88.5t85 -33.5q59 0 97.5 41t38.5 103q0 55 -33.5 89t-88.5 34zM310 560l94 82l40 -43l-143 -128l-102 128l43 42z" />
<glyph unicode="&#x1f4;" horiz-adv-x="710" d="M412 310h267q-11 -116 -55 -186q-84 -137 -248 -137q-139 0 -229 94t-90 239q0 156 96.5 258t244.5 102q165 0 274 -134l-65 -66q-81 107 -211 107q-106 0 -173 -74t-67 -191q0 -106 63 -174t162 -68q72 0 121.5 38.5t63.5 106.5h-165zM567 847l-141 -120l-52 31l118 136 z" />
<glyph unicode="&#x1f5;" horiz-adv-x="542" d="M497 407l-50 -411q-8 -65 -20 -99.5t-34 -59.5q-58 -67 -165 -67t-167 62q-23 24 -32.5 52t-9.5 75h92q3 -46 17 -67q26 -42 93 -42q59 0 92 33q29 29 36 97l7 57q-59 -47 -127 -47q-83 0 -137 57t-54 145q0 97 63 161t158 64q43 0 73 -13t64 -47l6 50h95zM265 337 q-56 0 -93.5 -41t-37.5 -104q0 -55 32 -88.5t85 -33.5q59 0 97.5 41t38.5 103q0 55 -33.5 89t-88.5 34zM412 597l-138 -126l-49 29l116 142z" />
<glyph unicode="&#x1fa;" horiz-adv-x="624" d="M188 157l-81 -157h-108l369 714l230 -714h-103l-48 157h-259zM231 242h188l-72 237zM373 918q41 0 68.5 -28t27.5 -68q0 -39 -28 -67t-67 -28q-40 0 -68 28t-28 68q0 39 28 67t67 28zM373 862q-17 0 -28 -11t-11 -28t12 -28.5t28 -11.5t27.5 12t11.5 28q0 17 -11.5 28 t-28.5 11zM404 993l-141 -120l-52 31l118 136z" />
<glyph unicode="&#x1fb;" d="M487 407l-50 -407h-95l5 44q-34 -30 -62 -42t-64 -12q-74 0 -127 51q-56 55 -56 146q0 102 58.5 166t151.5 64q44 0 75 -14.5t62 -48.5l7 53h95zM260 337q-53 0 -89.5 -42t-36.5 -103q0 -54 30.5 -88t77.5 -34q53 0 91 43t38 102q0 54 -31 88t-80 34zM307 651 q41 0 68.5 -27.5t27.5 -68.5q0 -39 -28 -67t-67 -28q-40 0 -68 28t-28 68q0 39 28 67t67 28zM307 596q-17 0 -29 -11.5t-12 -28.5q0 -16 12 -28.5t29 -12.5t29 12t12 29t-12 28.5t-29 11.5zM374 769l-138 -126l-49 29l116 142z" />
<glyph unicode="&#x1fc;" horiz-adv-x="938" d="M687 667l27 -92h-277l58 -175h278l27 -85h-277l73 -223h280l27 -92h-379l-52 164h-276l-95 -164h-109l388 667h307zM246 249h199l-71 226zM640 847l-141 -120l-52 31l118 136z" />
<glyph unicode="&#x1fd;" horiz-adv-x="776" d="M732 175h-325q1 -49 34 -78.5t87 -29.5q64 0 107 53l64 -46q-63 -87 -179 -87q-107 0 -159 77q-35 -42 -71 -59.5t-86 -17.5q-75 0 -126.5 41t-51.5 102q0 59 45.5 96.5t116.5 37.5q70 0 129 -45q5 40 5 60q0 29 -23 45t-64 16q-46 0 -109 -22l11 84q69 18 112 18 q99 0 144 -64q57 64 142 64q88 0 143 -59t55 -152q0 -20 -1 -34zM207 184q-39 0 -62 -15t-23 -41t25 -43.5t64 -17.5q41 0 67.5 16.5t26.5 41.5q0 26 -27 42.5t-71 16.5zM414 245h224q-4 46 -31.5 70.5t-74.5 24.5q-48 0 -76 -22.5t-42 -72.5zM542 597l-138 -126l-49 29 l116 142z" />
<glyph unicode="&#x1fe;" horiz-adv-x="784" d="M159 74l-81 -73l-44 52l81 73q-33 63 -45 106t-12 98q0 152 100.5 251t255.5 99q68 0 121 -17.5t112 -60.5l83 72l48 -53l-84 -75q60 -76 60 -197q0 -157 -101 -259.5t-256 -102.5q-70 0 -123.5 19.5t-114.5 67.5zM620 480l-384 -339q68 -61 165 -61q109 0 181.5 76.5 t72.5 191.5q0 80 -35 132zM192 195l380 340q-56 52 -158 52q-110 0 -183.5 -74t-73.5 -184q0 -59 35 -134zM576 847l-141 -120l-52 31l118 136z" />
<glyph unicode="&#x1ff;" d="M114 37l-72 -62l-41 48l71 61q-32 57 -32 116q0 95 65.5 157.5t164.5 62.5q74 0 141 -44l71 62l42 -49l-69 -57q22 -50 27.5 -70t5.5 -53q0 -95 -64 -158.5t-159 -63.5q-85 0 -151 50zM380 266l-199 -171q38 -28 82 -28q58 0 93.5 41t35.5 107q0 28 -12 51zM145 147 l197 170q-27 23 -74 23q-58 0 -95 -39.5t-37 -100.5q0 -26 9 -53zM434 597l-138 -126l-49 29l116 142z" />
<glyph unicode="&#x218;" horiz-adv-x="494" d="M484 582l-66 -63q-26 38 -50.5 53.5t-57.5 15.5q-44 0 -73 -27.5t-29 -68.5q0 -32 20 -55.5t77 -57.5q85 -50 114.5 -90.5t29.5 -107.5q0 -86 -57 -140t-148 -54q-90 0 -152 51q-32 26 -65 85l75 51q31 -53 60.5 -73.5t75.5 -20.5q52 0 82 28t30 78q0 35 -21.5 59.5 t-86.5 62.5q-76 45 -104.5 85t-28.5 101q0 81 56 134t141 53q55 0 95.5 -22.5t82.5 -76.5zM200 -53l82 -32l-104 -158l-56 27z" />
<glyph unicode="&#x219;" horiz-adv-x="357" d="M331 362l-54 -54q-38 35 -70 35q-22 0 -36.5 -12t-14.5 -31q0 -17 12 -29.5t51 -33.5q53 -31 73 -56.5t20 -65.5q0 -58 -40 -93t-107 -35q-49 0 -83 18.5t-65 62.5l62 44q39 -46 83 -46q24 0 39 13t15 33q0 19 -12.5 30t-62.5 39q-45 26 -63 50.5t-18 61.5q0 55 41 91.5 t103 36.5q68 0 127 -59zM121 -53l78 -36l-107 -149l-49 27z" />
<glyph unicode="&#x21a;" horiz-adv-x="424" d="M307 575l-71 -575h-98l70 575h-159l11 92h411l-11 -92h-153zM151 -53l82 -32l-104 -158l-56 27z" />
<glyph unicode="&#x21b;" horiz-adv-x="259" d="M180 318l-39 -318h-95l39 318h-54l11 89h54l23 188h95l-23 -188h88l-11 -89h-88zM60 -53l78 -36l-107 -149l-49 27z" />
<glyph unicode="&#x226;" horiz-adv-x="624" d="M188 157l-81 -157h-108l369 714l230 -714h-103l-48 157h-259zM231 242h188l-72 237zM377 856q23 0 38 -16t15 -41q0 -22 -15.5 -37t-37.5 -15q-23 0 -39.5 16t-16.5 39q0 24 15.5 39t40.5 15z" />
<glyph unicode="&#x227;" d="M487 407l-50 -407h-95l5 44q-34 -30 -62 -42t-64 -12q-74 0 -127 51q-56 55 -56 146q0 102 58.5 166t151.5 64q44 0 75 -14.5t62 -48.5l7 53h95zM260 337q-53 0 -89.5 -42t-36.5 -103q0 -54 30.5 -88t77.5 -34q53 0 91 43t38 102q0 54 -31 88t-80 34zM305 601 q21 0 36.5 -15.5t15.5 -37.5q0 -21 -15 -36t-36 -15t-36.5 15.5t-15.5 37.5q0 21 15 36t36 15z" />
<glyph unicode="&#x259;" horiz-adv-x="521" d="M381 227l1 23q0 47 -29.5 77.5t-75.5 30.5q-78 0 -125 -69l-95 11q34 61 94 96t132 35q91 0 146 -52t55 -137q0 -106 -74 -179.5t-180 -73.5q-88 0 -142.5 54t-54.5 142q0 8 4 42h344zM371 166h-239q3 -49 31.5 -77t75.5 -28q46 0 82.5 29t49.5 76z" />
<glyph unicode="&#x2bb;" horiz-adv-x="500" d="M320 471l-78 36l107 149l49 -27z" />
<glyph unicode="&#x2bc;" horiz-adv-x="272" d="M270 643l-137 -228l-53 28l123 237z" />
<glyph unicode="&#x2c6;" horiz-adv-x="500" d="M296 554l-94 -83l-40 44l144 127l101 -128l-43 -41z" />
<glyph unicode="&#x2c7;" horiz-adv-x="500" d="M282 560l94 82l40 -43l-143 -128l-102 128l43 42z" />
<glyph unicode="&#x2c9;" horiz-adv-x="500" d="M151 579h277l-8 -69h-277z" />
<glyph unicode="&#x2d8;" horiz-adv-x="500" d="M165 618h67v-15q0 -23 14 -38.5t36 -15.5q47 0 70 69h68q-17 -51 -40 -81q-44 -53 -102 -53q-48 0 -80.5 34t-32.5 84v16z" />
<glyph unicode="&#x2d9;" horiz-adv-x="500" d="M289 601q21 0 36.5 -15.5t15.5 -37.5q0 -21 -15 -36t-36 -15t-36.5 15.5t-15.5 37.5q0 21 15 36t36 15z" />
<glyph unicode="&#x2da;" horiz-adv-x="500" d="M291 651q41 0 68.5 -27.5t27.5 -68.5q0 -39 -28 -67t-67 -28q-40 0 -68 28t-28 68q0 39 28 67t67 28zM291 596q-17 0 -29 -11.5t-12 -28.5q0 -16 12 -28.5t29 -12.5t29 12t12 29t-12 28.5t-29 11.5z" />
<glyph unicode="&#x2db;" horiz-adv-x="500" d="M347 0h73q-45 -26 -63.5 -44.5t-18.5 -37.5q0 -15 12 -24.5t31 -9.5q15 0 46 8l-16 -60q-33 -17 -64 -17q-38 0 -63 23.5t-25 58.5q0 57 88 103z" />
<glyph unicode="&#x2dc;" horiz-adv-x="500" d="M385 611l50 -34q-41 -78 -93 -78q-27 0 -90 39q-6 3 -14 3q-11 0 -17 -5.5t-18 -25.5q-2 -3 -7 -10l-49 34q26 41 46.5 58.5t44.5 17.5q19 0 61 -24q33 -19 43 -19q22 0 43 44z" />
<glyph unicode="&#x2dd;" horiz-adv-x="500" d="M342 597l-124 -126l-42 30l102 141zM493 597l-124 -126l-42 30l102 141z" />
<glyph unicode="&#x37e;" horiz-adv-x="243" d="M131 420q25 0 43 -17.5t18 -42.5q0 -23 -17.5 -40t-40.5 -17q-24 0 -41 17.5t-17 42.5t16 41t39 16zM164 123l-152 -254l-59 32l137 263z" />
<glyph unicode="&#x384;" horiz-adv-x="500" d="M249 507l12 208h96l-38 -208h-70z" />
<glyph unicode="&#x385;" horiz-adv-x="500" d="M171 650q21 0 35 -15t14 -37q0 -27 -19 -47t-45 -20q-21 0 -35 15t-14 37q0 27 19 47t45 20zM432 650q22 0 36 -14.5t14 -37.5q0 -27 -19 -47t-45 -20q-22 0 -36 14.5t-14 37.5q0 27 19 47t45 20zM249 507l13 208h96l-39 -208h-70z" />
<glyph unicode="&#x386;" horiz-adv-x="655" d="M463 162h-286l-94 -162h-108l417 709l231 -709h-110zM434 257l-72 226l-131 -226h203zM116 496l14 219h96l-40 -219h-70z" />
<glyph unicode="&#x388;" horiz-adv-x="626" d="M61 496l14 219h96l-40 -219h-70zM616 572h-268l-19 -160h259l-12 -95h-259l-27 -222h267l-11 -95h-368l81 667h368z" />
<glyph unicode="&#x389;" horiz-adv-x="774" d="M61 496l14 219h96l-40 -219h-70zM328 407h287l32 260h101l-82 -667h-100l38 312h-288l-38 -312h-100l81 667h101z" />
<glyph unicode="&#x38a;" horiz-adv-x="386" d="M61 496l14 219h96l-40 -219h-70zM360 667l-82 -667h-100l81 667h101z" />
<glyph unicode="&#x38c;" horiz-adv-x="883" d="M61 496l14 219h96l-40 -219h-70zM549 680q127 0 215 -88.5t88 -216.5q0 -155 -119 -271.5t-279 -116.5q-71 0 -137.5 31.5t-108.5 86.5q-58 76 -58 184q0 158 119 274.5t280 116.5zM532 585q-114 0 -197 -85t-83 -201q0 -92 62 -154.5t154 -62.5q114 0 198 84.5t84 199.5 q0 96 -61 157.5t-157 61.5z" />
<glyph unicode="&#x38e;" horiz-adv-x="678" d="M61 496l14 219h96l-40 -219h-70zM370 288l-172 379h116l120 -267l186 267h115l-264 -379l-36 -288h-101z" />
<glyph unicode="&#x38f;" horiz-adv-x="890" d="M61 496l14 219h96l-40 -219h-70zM118 0l11 95h179l3 24q-146 60 -146 218q0 130 87 225q109 118 300 118q144 0 227.5 -71t83.5 -193t-77 -210q-26 -31 -55 -50t-77 -37l-3 -24h179l-12 -95h-279l20 166q80 19 140 75q61 60 61 154q0 89 -58.5 139.5t-162.5 50.5 q-154 0 -229 -107q-45 -64 -45 -144q0 -59 41 -105t111 -63l-20 -166h-279z" />
<glyph unicode="&#x390;" horiz-adv-x="225" d="M34 0l52 421h99l-51 -421h-100zM33 650q21 0 35 -15t14 -37q0 -27 -19 -47t-45 -20q-21 0 -35 15t-14 37q0 27 19 47t45 20zM294 650q22 0 36 -14.5t14 -37.5q0 -27 -19 -47t-45 -20q-22 0 -36 14.5t-14 37.5q0 27 19 47t45 20zM111 507l13 208h96l-39 -208h-70z" />
<glyph unicode="&#x391;" horiz-adv-x="655" d="M463 162h-286l-94 -162h-108l417 709l231 -709h-110zM434 257l-72 226l-131 -226h203z" />
<glyph unicode="&#x392;" horiz-adv-x="523" d="M52 0l82 667h101q108 0 155 -34q26 -20 42 -55.5t16 -74.5q0 -86 -71 -144q46 -16 71 -54t25 -91q0 -83 -61 -144q-38 -39 -84.5 -54.5t-123.5 -15.5h-152zM199 380h32q72 0 101 46q20 32 20 65q0 83 -94 83h-35zM164 95h63q81 0 117 40q29 34 29 71q0 44 -32 68 q-29 22 -101 22h-51z" />
<glyph unicode="&#x393;" horiz-adv-x="468" d="M52 0l82 667h370l-11 -95h-270l-70 -572h-101z" />
<glyph unicode="&#x394;" horiz-adv-x="620" d="M-28 0l396 697l224 -697h-620zM455 95l-115 380l-208 -380h323z" />
<glyph unicode="&#x395;" horiz-adv-x="500" d="M490 572h-267l-20 -160h260l-12 -95h-259l-28 -222h268l-12 -95h-368l82 667h368z" />
<glyph unicode="&#x396;" horiz-adv-x="553" d="M179 95h320l-12 -95h-485l397 572h-273l11 95h439z" />
<glyph unicode="&#x397;" horiz-adv-x="649" d="M203 407h287l32 260h101l-82 -667h-101l38 312h-287l-38 -312h-101l82 667h101z" />
<glyph unicode="&#x398;" horiz-adv-x="790" d="M255 299l11 88h296l-11 -88h-296zM456 680q127 0 215 -88.5t88 -216.5q0 -155 -119 -271.5t-279 -116.5q-71 0 -137.5 31.5t-108.5 86.5q-58 76 -58 184q0 158 119 274.5t280 116.5zM439 585q-114 0 -197 -85t-83 -201q0 -92 62 -154.5t154 -62.5q114 0 198 84.5 t84 199.5q0 96 -61 157.5t-157 61.5z" />
<glyph unicode="&#x399;" horiz-adv-x="261" d="M235 667l-82 -667h-101l82 667h101z" />
<glyph unicode="&#x39a;" horiz-adv-x="592" d="M52 0l82 667h101l-39 -315l305 315h122l-326 -325l264 -342h-129l-240 322l-39 -322h-101z" />
<glyph unicode="&#x39b;" horiz-adv-x="580" d="M348 696l204 -696h-108l-125 464l-238 -464h-109z" />
<glyph unicode="&#x39c;" horiz-adv-x="850" d="M29 0l228 717l166 -518l300 518l38 -717h-103l-15 402l-250 -433l-139 433l-121 -402h-104z" />
<glyph unicode="&#x39d;" horiz-adv-x="747" d="M52 0l87 712l424 -508l57 463h101l-87 -708l-424 508l-57 -467h-101z" />
<glyph unicode="&#x39e;" horiz-adv-x="561" d="M87 572l12 95h471l-12 -95h-471zM67 312l12 95h447l-12 -95h-447zM17 0l12 95h470l-11 -95h-471z" />
<glyph unicode="&#x39f;" horiz-adv-x="790" d="M456 680q127 0 215 -88.5t88 -216.5q0 -155 -119 -271.5t-279 -116.5q-71 0 -137.5 31.5t-108.5 86.5q-58 76 -58 184q0 158 119 274.5t280 116.5zM439 585q-114 0 -197 -85t-83 -201q0 -92 62 -154.5t154 -62.5q114 0 198 84.5t84 199.5q0 96 -61 157.5t-157 61.5z" />
<glyph unicode="&#x3a0;" horiz-adv-x="685" d="M52 0l82 667h525l-82 -667h-101l71 572h-324l-70 -572h-101z" />
<glyph unicode="&#x3a1;" horiz-adv-x="477" d="M186 271l-33 -271h-101l82 667h114q76 0 114 -8.5t68 -33.5q55 -49 55 -131q0 -79 -53 -143q-68 -80 -199 -80h-47zM197 364h38q93 0 128 49q24 34 24 71q0 47 -31.5 68.5t-99.5 21.5h-33z" />
<glyph unicode="&#x3a3;" horiz-adv-x="555" d="M3 0l251 364l-155 303h459l-11 -95h-292l110 -208l-188 -269h321l-11 -95h-484z" />
<glyph unicode="&#x3a4;" horiz-adv-x="427" d="M306 572l-70 -572h-101l70 572h-153l12 95h406l-11 -95h-153z" />
<glyph unicode="&#x3a5;" horiz-adv-x="531" d="M223 288l-172 379h116l120 -267l185 267h116l-265 -379l-35 -288h-101z" />
<glyph unicode="&#x3a6;" horiz-adv-x="897" d="M367 -54l12 97q-119 6 -189 40q-134 68 -134 215q0 78 39.5 147t107.5 111q92 57 247 66l12 98h92l-12 -98q124 -7 190 -41q134 -66 134 -214q0 -78 -39.5 -147t-107.5 -112q-97 -58 -248 -65l-12 -97h-92zM530 527l-47 -389q114 7 179 46q47 29 74 74t27 97 q0 51 -28.5 90t-81.5 60q-40 16 -123 22zM390 138l48 389q-114 -8 -178 -47q-48 -28 -74.5 -73t-26.5 -97q0 -107 110 -150q40 -16 121 -22z" />
<glyph unicode="&#x3a7;" horiz-adv-x="546" d="M234 349l-144 318h114l100 -226l161 226h116l-231 -318l158 -349h-112l-117 255l-183 -255h-114z" />
<glyph unicode="&#x3a8;" horiz-adv-x="795" d="M320 0l19 154q-74 5 -111.5 13.5t-70.5 27.5q-86 47 -86 162q0 23 3 51l32 259h101l-30 -246q-4 -31 -4 -50q0 -64 40 -91t138 -31l51 418h99l-52 -418q112 3 159.5 41t57.5 131l30 246h101l-32 -259q-15 -127 -92.5 -187t-234.5 -67l-19 -154h-99z" />
<glyph unicode="&#x3a9;" horiz-adv-x="782" d="M10 0l12 95h178l3 24q-146 60 -146 218q0 130 87 225q109 118 300 118q145 0 228.5 -71t83.5 -193q0 -121 -77 -210q-27 -31 -55.5 -49.5t-77.5 -37.5l-3 -24h179l-12 -95h-279l21 166q79 19 139 75q62 59 62 154q0 89 -59 139.5t-163 50.5q-153 0 -229 -107 q-45 -64 -45 -144q0 -59 41 -104.5t111 -63.5l-20 -166h-279z" />
<glyph unicode="&#x3aa;" horiz-adv-x="261" d="M234 667l-82 -667h-100l82 667h100zM110 857q24 0 39.5 -15.5t15.5 -38.5q0 -28 -21 -49t-48 -21q-24 0 -39.5 15.5t-15.5 39.5q0 27 21 48t48 21zM304 857q24 0 39.5 -15.5t15.5 -38.5q0 -28 -21 -49t-48 -21q-24 0 -39.5 15.5t-15.5 39.5q0 27 21 48t48 21z" />
<glyph unicode="&#x3ab;" horiz-adv-x="531" d="M223 288l-172 379h116l120 -267l185 267h116l-265 -379l-35 -288h-101zM246 857q24 0 39.5 -15.5t15.5 -38.5q0 -28 -21 -49t-49 -21q-24 0 -39.5 15.5t-15.5 39.5q0 27 21 48t49 21zM440 857q24 0 39.5 -15.5t15.5 -38.5q0 -28 -21 -49t-49 -21q-24 0 -39.5 15.5 t-15.5 39.5q0 27 21 48t49 21z" />
<glyph unicode="&#x3ac;" horiz-adv-x="530" d="M395 421h98l-52 -421h-97l5 44q-37 -31 -67.5 -44t-68.5 -13q-79 0 -127 52.5t-48 138.5q0 106 67 180t162 74q72 0 122 -60zM273 345q-55 0 -95 -45.5t-40 -108.5q0 -54 27 -85.5t74 -31.5q59 0 98.5 45t39.5 112q0 52 -28.5 83t-75.5 31zM265 507l12 208h96l-38 -208 h-70z" />
<glyph unicode="&#x3ad;" horiz-adv-x="436" d="M397 95l-11 -88q-79 -20 -163 -20q-197 0 -197 117q0 39 22 70t61 46q-27 14 -38 31.5t-11 44.5q0 55 46 95q50 41 160 41q86 0 158 -22l-10 -86q-65 23 -134 23q-119 0 -119 -56q0 -23 28 -34q17 -8 66 -8h93l-8 -71h-94q-115 0 -115 -56q0 -48 111 -48q68 0 155 21z M244 507l12 208h96l-38 -208h-70z" />
<glyph unicode="&#x3ae;" horiz-adv-x="484" d="M33 0l52 421h97l-7 -54q31 35 62.5 50t74.5 15q55 0 87 -31t32 -85q0 -13 -4 -53l-60 -492h-98l57 460q4 39 4 47q0 67 -59 67q-99 0 -114 -128l-27 -217h-97zM253 507l12 208h96l-38 -208h-70z" />
<glyph unicode="&#x3af;" horiz-adv-x="225" d="M35 0l52 421h99l-52 -421h-99zM112 507l12 208h96l-38 -208h-70z" />
<glyph unicode="&#x3b0;" horiz-adv-x="492" d="M84 421h97l-29 -238q-3 -22 -3 -42q0 -69 78 -69q53 0 79 32q17 22 23 79l30 238h97l-30 -244q-12 -95 -56 -139q-55 -53 -154 -53q-79 0 -122.5 35.5t-43.5 100.5q0 28 4 56zM167 650q21 0 35 -15t14 -37q0 -27 -19 -47t-45 -20q-21 0 -35 15t-14 37q0 27 19 47t45 20z M428 650q22 0 36 -14.5t14 -37.5q0 -27 -19 -47t-45 -20q-22 0 -36 14.5t-14 37.5q0 27 19 47t45 20zM245 507l13 208h96l-39 -208h-70z" />
<glyph unicode="&#x3b1;" horiz-adv-x="530" d="M395 421h98l-52 -421h-97l5 44q-37 -31 -67.5 -44t-68.5 -13q-79 0 -127 52.5t-48 138.5q0 106 67 180t162 74q72 0 122 -60zM273 345q-55 0 -95 -45.5t-40 -108.5q0 -54 27 -85.5t74 -31.5q59 0 98.5 45t39.5 112q0 52 -28.5 83t-75.5 31z" />
<glyph unicode="&#x3b2;" horiz-adv-x="544" d="M7 -229l85 691q16 138 59 195q61 83 183 83q83 0 128.5 -43.5t45.5 -123.5q0 -62 -29.5 -111t-82.5 -77q48 -15 70 -43q38 -44 38 -115q0 -101 -68.5 -170.5t-167.5 -69.5q-80 0 -131 47l-33 -263h-97zM193 491l-46 -373q41 -44 102 -44q67 0 111.5 42.5t44.5 105.5 q0 54 -33.5 83.5t-95.5 29.5h-13l11 86q65 1 101.5 37t36.5 98q0 47 -24 72t-68 25q-66 0 -100 -56q-18 -30 -27 -106z" />
<glyph unicode="&#x3b3;" horiz-adv-x="442" d="M117 -229l18 144q8 61 8 102q0 152 -114 404h110q66 -163 73 -283q20 59 63 138l72 145h109l-118 -200q-52 -87 -73.5 -149t-33.5 -157l-18 -144h-96z" />
<glyph unicode="&#x3b4;" horiz-adv-x="533" d="M267 421l-52 46q-19 17 -36 55q-9 24 -9 49q0 69 45 114q26 25 62.5 34.5t106.5 9.5h78l-11 -87h-78q-53 0 -78 -16t-25 -51q0 -31 38 -66l100 -88q83 -74 83 -176q0 -112 -72 -185t-183 -73q-92 0 -145.5 51t-53.5 140q0 68 28.5 123.5t77.5 85.5q48 30 124 34zM350 320 l-15 13q-30 6 -52 6q-64 0 -104.5 -42.5t-40.5 -108.5q0 -53 29 -83.5t80 -30.5q61 0 102 44t41 109q0 58 -40 93z" />
<glyph unicode="&#x3b5;" horiz-adv-x="436" d="M397 95l-11 -88q-79 -20 -163 -20q-197 0 -197 117q0 39 22 70t61 46q-27 14 -38 31.5t-11 44.5q0 55 46 95q50 41 160 41q86 0 158 -22l-10 -86q-65 23 -134 23q-119 0 -119 -56q0 -23 28 -34q17 -8 66 -8h93l-8 -71h-94q-115 0 -115 -56q0 -48 111 -48q68 0 155 21z " />
<glyph unicode="&#x3b6;" horiz-adv-x="372" d="M97 642l11 87h337q-190 -284 -250.5 -394t-60.5 -173q0 -37 22.5 -56t77.5 -27q57 -9 81 -27q29 -23 29 -69q0 -54 -41 -103q-25 -29 -98 -80l-45 64q56 35 70 51q18 23 18 45q0 20 -17 29q-12 6 -57 12q-77 10 -111 42t-34 95q0 103 104 260q78 118 176 244h-212z" />
<glyph unicode="&#x3b7;" horiz-adv-x="484" d="M33 0l52 421h97l-7 -54q31 35 62.5 50t74.5 15q55 0 87 -31t32 -85q0 -13 -4 -53l-60 -492h-98l57 460q4 39 4 47q0 67 -59 67q-99 0 -114 -128l-27 -217h-97z" />
<glyph unicode="&#x3b8;" horiz-adv-x="526" d="M408 322h-263q-1 -18 -1 -43q0 -100 25 -150q26 -55 75 -55q58 0 107 83q34 54 57 165zM155 407h264q2 34 2 47q0 94 -27 148t-74 54q-54 0 -98.5 -67.5t-66.5 -181.5zM323 743q105 0 160 -121q36 -78 36 -184q0 -182 -83.5 -316.5t-196.5 -134.5q-102 0 -157 120 q-37 81 -37 183q0 91 26.5 183t71.5 156q37 53 85 83.5t95 30.5z" />
<glyph unicode="&#x3b9;" horiz-adv-x="225" d="M35 0l52 421h99l-52 -421h-99z" />
<glyph unicode="&#x3ba;" horiz-adv-x="453" d="M34 0l52 421h97l-24 -193l189 193h107l-203 -203l171 -218h-114l-154 196l-24 -196h-97z" />
<glyph unicode="&#x3bb;" horiz-adv-x="429" d="M-28 0l214 424l-83 305h105l197 -729h-106l-76 301l-141 -301h-110z" />
<glyph unicode="&#x3bc;" horiz-adv-x="498" d="M6 -229l80 650h97l-26 -211q-3 -22 -3 -41q0 -45 18.5 -65.5t59.5 -20.5q48 0 72.5 29.5t32.5 97.5l26 211h97l-51 -421h-87l7 55q-19 -35 -42 -48t-65 -13q-64 0 -86 39l-33 -262h-97z" />
<glyph unicode="&#x3bd;" horiz-adv-x="444" d="M137 421l79 -236l138 236h109l-273 -450l-162 450h109z" />
<glyph unicode="&#x3be;" horiz-adv-x="402" d="M98 642l11 87h334l-14 -10t-11 -8t-6 -4q-21 -13 -63 -41q-29 -19 -66.5 -52.5t-51.5 -54.5q-25 -35 -25 -74q0 -55 71 -74q33 -8 102 -10l-50 -82q-32 5 -51 5q-61 0 -101.5 -41t-40.5 -103q0 -44 23.5 -64.5t83.5 -30.5q64 -11 86 -28q31 -25 31 -73q0 -56 -41 -103 q-22 -26 -97 -81l-46 64q53 33 70.5 51.5t17.5 43.5q0 22 -14.5 30t-63.5 15q-83 11 -118.5 46.5t-35.5 108.5q0 92 55 153q32 36 93 64q-41 19 -57 38.5t-16 52.5q0 56 27 97t89 78h-125z" />
<glyph unicode="&#x3bf;" horiz-adv-x="531" d="M290 432q87 0 143 -55t56 -140q0 -102 -75.5 -176t-179.5 -74q-86 0 -141 55.5t-55 141.5q0 100 75.5 174t176.5 74zM279 345q-61 0 -101.5 -44.5t-40.5 -112.5q0 -54 29 -84t81 -30q62 0 102 44.5t40 112.5q0 54 -29 84t-81 30z" />
<glyph unicode="&#x3c0;" horiz-adv-x="543" d="M71 0l40 334h-74l11 87h494l-10 -87h-75l-41 -334h-98l41 334h-150l-41 -334h-97z" />
<glyph unicode="&#x3c1;" horiz-adv-x="548" d="M107 -232h-97l50 411q13 100 52 157q33 47 86 73.5t115 26.5q93 0 146.5 -53.5t53.5 -145.5q0 -106 -68 -178t-166 -72q-50 0 -68 15l-49 40q-1 1 -4 3t-7 4.5t-8 5.5zM304 349q-61 0 -105 -48t-44 -113q0 -51 31 -82.5t81 -31.5q59 0 103 46.5t44 110.5q0 55 -29.5 86.5 t-80.5 31.5z" />
<glyph unicode="&#x3c2;" horiz-adv-x="411" d="M401 398l-12 -100q-53 47 -112 47q-61 0 -100.5 -46t-39.5 -118q0 -45 23 -65.5t84 -30.5q63 -11 85 -28q31 -25 31 -73q0 -56 -41 -103q-22 -26 -97 -81l-46 64q55 34 70 51q18 23 18 44q0 22 -14.5 30t-64.5 15q-84 11 -118.5 45.5t-34.5 107.5q0 102 53 181 q62 94 183 94q68 0 133 -34z" />
<glyph unicode="&#x3c3;" horiz-adv-x="546" d="M577 421l-10 -87h-91q1 -1 2.5 -4t2.5 -4q22 -44 22 -87q0 -109 -75 -181t-188 -72q-92 0 -148.5 52t-56.5 138q0 110 73.5 183t183.5 73q36 0 99 -5q74 -6 103 -6h83zM366 334q-50 4 -76 4q-66 0 -109 -42t-43 -107q0 -50 31 -79t84 -29q67 0 108.5 43t41.5 113 q0 28 -7.5 48t-29.5 49z" />
<glyph unicode="&#x3c4;" horiz-adv-x="353" d="M99 0l41 334h-120l11 87h339l-11 -87h-120l-41 -334h-99z" />
<glyph unicode="&#x3c5;" horiz-adv-x="492" d="M84 421h97l-29 -238q-3 -22 -3 -42q0 -69 78 -69q53 0 79 32q17 22 23 79l30 238h97l-30 -244q-12 -95 -56 -139q-55 -53 -154 -53q-79 0 -122.5 35.5t-43.5 100.5q0 28 4 56z" />
<glyph unicode="&#x3c6;" horiz-adv-x="667" d="M227 -229l27 218q-107 10 -163.5 58.5t-56.5 130.5q0 74 42 131t120 88l31 -64q-7 -6 -13 -9q-30 -20 -41 -30.5t-22 -29.5q-17 -31 -17 -68q0 -51 34.5 -82.5t96.5 -36.5l43 349q30 5 59 5q124 0 192 -50.5t68 -141.5q0 -106 -75.5 -174t-202.5 -76l-26 -218h-96z M393 344l-33 -267q78 4 123 45t45 106q0 51 -35.5 81.5t-99.5 34.5z" />
<glyph unicode="&#x3c7;" horiz-adv-x="445" d="M156 118l-117 303h107l82 -210l119 210h105l-188 -303l133 -347h-107l-96 253l-144 -253h-110z" />
<glyph unicode="&#x3c8;" horiz-adv-x="692" d="M242 -229l28 229h-20q-103 0 -149.5 35t-46.5 112q0 29 5 67l25 207h99l-25 -207q-4 -36 -4 -48q0 -43 24 -61t83 -18h20l41 334h96l-41 -334h20q70 0 97 25.5t37 101.5l25 207h100l-26 -207q-8 -69 -24.5 -107t-48.5 -63q-57 -44 -171 -44h-20l-28 -229h-96z" />
<glyph unicode="&#x3c9;" horiz-adv-x="690" d="M309 289h88l-10 -80q-3 -24 -3 -55q0 -32 8 -48q6 -14 20 -23t30 -9q47 0 79 51t32 128q0 83 -51 151q-6 9 -12 17h97q34 -44 45 -71q20 -52 20 -102q0 -112 -59.5 -186.5t-149.5 -74.5q-88 0 -119 71q-46 -71 -135 -71q-73 0 -114 48t-41 132q0 85 42 161q16 29 30 46.5 t45 46.5h97q-11 -11 -16 -17q-47 -47 -72 -102q-25 -61 -25 -121q0 -49 20 -78t54 -29q39 0 60 32t30 103z" />
<glyph unicode="&#x3ca;" horiz-adv-x="225" d="M34 0l52 421h99l-51 -421h-100zM69 615q24 0 39.5 -15.5t15.5 -38.5q0 -28 -21 -48.5t-48 -20.5q-24 0 -39.5 15.5t-15.5 39.5q0 27 21 47.5t48 20.5zM249 615q24 0 39.5 -15.5t15.5 -38.5q0 -28 -21 -48.5t-48 -20.5q-24 0 -39.5 15.5t-15.5 39.5q0 27 21 47.5t48 20.5z " />
<glyph unicode="&#x3cb;" horiz-adv-x="492" d="M84 421h97l-29 -238q-3 -22 -3 -42q0 -69 78 -69q53 0 79 32q17 22 23 79l30 238h97l-30 -244q-12 -95 -56 -139q-55 -53 -154 -53q-79 0 -122.5 35.5t-43.5 100.5q0 28 4 56zM203 615q24 0 39.5 -15.5t15.5 -38.5q0 -28 -21 -48.5t-48 -20.5q-24 0 -39.5 15.5 t-15.5 39.5q0 27 21 47.5t48 20.5zM384 615q24 0 39.5 -15.5t15.5 -38.5q0 -28 -21 -48.5t-48 -20.5q-24 0 -39.5 15.5t-15.5 39.5q0 27 21 47.5t48 20.5z" />
<glyph unicode="&#x3cc;" horiz-adv-x="531" d="M290 432q87 0 143 -55t56 -140q0 -102 -75.5 -176t-179.5 -74q-86 0 -141 55.5t-55 141.5q0 100 75.5 174t176.5 74zM279 345q-61 0 -101.5 -44.5t-40.5 -112.5q0 -54 29 -84t81 -30q62 0 102 44.5t40 112.5q0 54 -29 84t-81 30zM265 507l12 208h96l-38 -208h-70z" />
<glyph unicode="&#x3cd;" horiz-adv-x="492" d="M84 421h97l-29 -238q-3 -22 -3 -42q0 -69 78 -69q53 0 79 32q17 22 23 79l30 238h97l-30 -244q-12 -95 -56 -139q-55 -53 -154 -53q-79 0 -122.5 35.5t-43.5 100.5q0 28 4 56zM246 507l12 208h96l-38 -208h-70z" />
<glyph unicode="&#x3ce;" horiz-adv-x="690" d="M309 289h88l-10 -80q-3 -24 -3 -55q0 -32 8 -48q6 -14 20 -23t30 -9q47 0 79 51t32 128q0 83 -51 151q-6 9 -12 17h97q34 -44 45 -71q20 -52 20 -102q0 -112 -59.5 -186.5t-149.5 -74.5q-88 0 -119 71q-46 -71 -135 -71q-73 0 -114 48t-41 132q0 85 42 161q16 29 30 46.5 t45 46.5h97q-11 -11 -16 -17q-47 -47 -72 -102q-25 -61 -25 -121q0 -49 20 -78t54 -29q39 0 60 32t30 103zM345 507l12 208h96l-38 -208h-70z" />
<glyph unicode="&#x3d1;" horiz-adv-x="513" d="M377 334h-91q-67 0 -102.5 8.5t-58.5 29.5q-40 37 -40 119q0 108 63 178.5t160 70.5q92 0 135.5 -69t43.5 -214q0 -20 -1 -36h65l-10 -87h-65q-15 -109 -54 -193q-72 -154 -203 -154q-85 0 -131 63t-46 181q0 27 5 77l2 13h97l-1 -13q-6 -39 -6 -85q0 -72 23.5 -110.5 t66.5 -38.5q56 0 94 67t54 193zM292 421h95q2 28 2 55q0 78 -18 121q-22 56 -78 56q-49 0 -80.5 -39.5t-31.5 -100.5q0 -53 23.5 -72.5t87.5 -19.5z" />
<glyph unicode="&#x3d5;" horiz-adv-x="667" d="M238 -163l19 152q-104 5 -164 55.5t-60 134.5q0 107 75 174.5t203 75.5l18 149h92l-19 -149q108 -7 166 -56.5t58 -134.5q0 -106 -76.5 -174.5t-201.5 -74.5l-18 -152h-92zM392 343l-33 -267q78 4 123 45t45 106q0 52 -35.5 82.5t-99.5 33.5zM267 76l33 267 q-76 -4 -122 -45.5t-46 -106.5q0 -52 35 -81t100 -34z" />
<glyph unicode="&#x400;" horiz-adv-x="470" d="M477 667l-11 -92h-245l-21 -173h245l-11 -85h-244l-28 -225h245l-12 -92h-343l82 667h343zM211 847l75 47l85 -136l-52 -31z" />
<glyph unicode="&#x401;" horiz-adv-x="500" d="M490 572h-267l-20 -160h260l-12 -95h-259l-28 -222h268l-12 -95h-368l82 667h368zM250 857q24 0 39.5 -15.5t15.5 -38.5q0 -28 -21 -49t-48 -21q-24 0 -39.5 15.5t-15.5 39.5q0 27 21 48t48 21zM444 857q24 0 39.5 -15.5t15.5 -38.5q0 -28 -21 -49t-48 -21 q-24 0 -39.5 15.5t-15.5 39.5q0 27 21 48t48 21z" />
<glyph unicode="&#x402;" horiz-adv-x="626" d="M99 0l70 572h-111l12 95h373l-12 -95h-160l-28 -233q88 75 177 75q73 0 113 -42q31 -34 31 -95q0 -27 -3 -52l-29 -236q-8 -62 -24 -94t-68 -93h-91q46 67 62.5 104.5t23.5 86.5l25 210q3 21 3 38q0 76 -88 76q-78 0 -145 -80l-29 -237h-102z" />
<glyph unicode="&#x403;" horiz-adv-x="468" d="M52 0l82 667h370l-11 -95h-270l-70 -572h-101zM491 846l-191 -119l-43 40l156 139z" />
<glyph unicode="&#x404;" horiz-adv-x="661" d="M494 295h-333q3 -50 8 -71.5t19 -43.5q60 -98 192 -98q125 0 234 87l-14 -114q-110 -68 -244 -68q-135 0 -218 81t-83 212q0 171 112 285.5t279 114.5q111 0 203 -56l-15 -118q-87 79 -195 79q-109 0 -190 -72q-28 -26 -42.5 -48.5t-30.5 -67.5l-4 -12h333z" />
<glyph unicode="&#x405;" horiz-adv-x="515" d="M484 582l-66 -63q-26 38 -50.5 53.5t-57.5 15.5q-44 0 -73 -27.5t-29 -68.5q0 -32 20 -55.5t77 -57.5q85 -50 114.5 -90.5t29.5 -107.5q0 -86 -57 -140t-148 -54q-90 0 -152 51q-32 26 -65 85l75 51q31 -53 60.5 -73.5t75.5 -20.5q52 0 82 28t30 78q0 35 -21.5 59.5 t-86.5 62.5q-76 45 -104.5 85t-28.5 101q0 81 56 134t141 53q55 0 95.5 -22.5t82.5 -76.5z" />
<glyph unicode="&#x406;" horiz-adv-x="261" d="M52 0l82 667h101l-82 -667h-101z" />
<glyph unicode="&#x407;" horiz-adv-x="261" d="M234 667l-82 -667h-100l82 667h100zM110 857q24 0 39.5 -15.5t15.5 -38.5q0 -28 -21 -49t-48 -21q-24 0 -39.5 15.5t-15.5 39.5q0 27 21 48t48 21zM304 857q24 0 39.5 -15.5t15.5 -38.5q0 -28 -21 -49t-48 -21q-24 0 -39.5 15.5t-15.5 39.5q0 27 21 48t48 21z" />
<glyph unicode="&#x408;" horiz-adv-x="363" d="M339 667l-53 -432q-9 -74 -24.5 -116.5t-44.5 -73.5q-56 -58 -143 -58q-62 0 -114 34l60 86q33 -25 65 -25q51 0 77 51q15 32 23 102l53 432h101z" />
<glyph unicode="&#x409;" horiz-adv-x="903" d="M410 0l70 572h-195q-42 -245 -75 -358q-34 -113 -85 -164.5t-128 -51.5q-18 0 -34 2l12 97q20 -3 24 -3q63 0 99 88q48 118 104 485h388l-32 -260h115q100 0 148.5 -41t48.5 -126q0 -107 -65 -174q-65 -66 -193 -66h-202zM519 89h86q57 0 87 10t49 36q29 39 29 87 q0 54 -30.5 76.5t-105.5 22.5h-87z" />
<glyph unicode="&#x40a;" horiz-adv-x="971" d="M52 0l82 667h101l-33 -260h328l32 260h98l-32 -260h115q100 0 148 -41t48 -126q0 -107 -65 -174q-65 -66 -192 -66h-202l39 318h-327l-39 -318h-101zM589 89h86q56 0 86 10t49 36q29 39 29 87q0 53 -31.5 76t-104.5 23h-86z" />
<glyph unicode="&#x40b;" horiz-adv-x="679" d="M112 0l70 572h-131l12 95h419l-12 -95h-186l-29 -233q100 75 199 75q80 0 127 -42q36 -33 36 -98q0 -25 -3 -49l-27 -225h-98l25 203q2 13 2 36q0 78 -105 78q-91 0 -168 -80l-29 -237h-102z" />
<glyph unicode="&#x40c;" horiz-adv-x="592" d="M52 0l82 667h101l-39 -315l305 315h122l-326 -325l264 -342h-129l-240 322l-39 -322h-101zM538 846l-191 -119l-43 40l155 139z" />
<glyph unicode="&#x40d;" horiz-adv-x="687" d="M46 -45l87 712h98l-57 -460l491 500l-87 -707h-97l56 454zM295 847l75 47l85 -136l-52 -31z" />
<glyph unicode="&#x40e;" horiz-adv-x="548" d="M43 0l186 260l-170 407h118l118 -302l196 302h118l-459 -667h-107zM211 875h80q1 -68 66 -68t84 68h80q-13 -57 -42 -88q-51 -57 -133 -57q-61 0 -98.5 35t-37.5 91q0 11 1 19z" />
<glyph unicode="&#x40f;" horiz-adv-x="680" d="M52 0l82 667h101l-71 -572h315l70 572h101l-82 -667h-212l-16 -128h-92l16 128h-212z" />
<glyph unicode="&#x410;" horiz-adv-x="655" d="M463 162h-286l-94 -162h-108l417 709l231 -709h-110zM434 257l-72 226l-131 -226h203z" />
<glyph unicode="&#x411;" horiz-adv-x="542" d="M52 0l82 667h373l-12 -95h-272l-21 -173h100q101 0 150 -40.5t49 -123.5q0 -104 -65 -171q-64 -64 -194 -64h-190zM164 95h72q57 0 87 9.5t50 32.5q28 35 28 78q0 51 -31.5 72t-107.5 21h-72z" />
<glyph unicode="&#x412;" horiz-adv-x="523" d="M52 0l82 667h101q108 0 155 -34q26 -20 42 -55.5t16 -74.5q0 -86 -71 -144q46 -16 71 -54t25 -91q0 -83 -61 -144q-38 -39 -84.5 -54.5t-123.5 -15.5h-152zM199 380h32q72 0 101 46q20 32 20 65q0 83 -94 83h-35zM164 95h63q81 0 117 40q29 34 29 71q0 44 -32 68 q-29 22 -101 22h-51z" />
<glyph unicode="&#x413;" horiz-adv-x="468" d="M52 0l82 667h370l-11 -95h-270l-70 -572h-101z" />
<glyph unicode="&#x414;" horiz-adv-x="645" d="M-63 -128l27 223h32q33 0 62.5 21t46.5 57q48 98 110 494h396l-70 -572h59l-28 -223h-92l16 128h-451l-16 -128h-92zM139 95h301l59 477h-201q-22 -153 -61 -307q-19 -71 -37 -102.5t-61 -67.5z" />
<glyph unicode="&#x415;" horiz-adv-x="500" d="M490 572h-267l-20 -160h260l-12 -95h-259l-28 -222h268l-12 -95h-368l82 667h368z" />
<glyph unicode="&#x416;" horiz-adv-x="893" d="M369 0l37 298h-31l-274 -298h-127l318 341l-215 326h118l183 -280h39l34 280h99l-34 -280h39l251 280h119l-296 -326l234 -341h-126l-201 298h-31l-37 -298h-99z" />
<glyph unicode="&#x417;" horiz-adv-x="551" d="M166 304l11 86h52q88 0 128 15q73 26 73 90q0 43 -41.5 66.5t-115.5 23.5q-86 0 -181 -41l12 105q87 31 193 31q113 0 176 -42t63 -117q0 -79 -63 -129q-30 -24 -83 -41q64 -22 91.5 -55.5t27.5 -87.5q0 -48 -23 -93t-63 -74q-76 -54 -209 -54q-127 0 -203 35l14 115 q78 -55 191 -55q91 0 140 32.5t49 92.5q0 50 -45.5 73.5t-141.5 23.5h-52z" />
<glyph unicode="&#x418;" horiz-adv-x="687" d="M46 -45l87 712h98l-57 -460l491 500l-87 -707h-97l56 454z" />
<glyph unicode="&#x419;" horiz-adv-x="687" d="M46 -45l87 712h98l-57 -460l491 500l-87 -707h-97l56 454zM267 875h80q1 -68 67 -68q65 0 83 68h80q-11 -54 -41 -88q-51 -57 -133 -57q-61 0 -98.5 35t-37.5 91v19z" />
<glyph unicode="&#x41a;" horiz-adv-x="592" d="M52 0l82 667h101l-39 -315l305 315h122l-326 -325l264 -342h-129l-240 322l-39 -322h-101z" />
<glyph unicode="&#x41b;" horiz-adv-x="619" d="M202 667h391l-82 -667h-101l70 572h-195q-40 -239 -75 -359q-34 -112 -85 -163.5t-128 -51.5q-18 0 -34 2l12 96q18 -3 24 -3q63 0 99 88q46 115 104 486z" />
<glyph unicode="&#x41c;" horiz-adv-x="850" d="M29 0l228 717l166 -518l300 518l38 -717h-103l-15 402l-250 -433l-139 433l-121 -402h-104z" />
<glyph unicode="&#x41d;" horiz-adv-x="649" d="M203 407h287l32 260h101l-82 -667h-101l38 312h-287l-38 -312h-101l82 667h101z" />
<glyph unicode="&#x41e;" horiz-adv-x="790" d="M456 680q127 0 215 -88.5t88 -216.5q0 -155 -119 -271.5t-279 -116.5q-71 0 -137.5 31.5t-108.5 86.5q-58 76 -58 184q0 158 119 274.5t280 116.5zM439 585q-114 0 -197 -85t-83 -201q0 -92 62 -154.5t154 -62.5q114 0 198 84.5t84 199.5q0 96 -61 157.5t-157 61.5z" />
<glyph unicode="&#x41f;" horiz-adv-x="685" d="M52 0l82 667h525l-82 -667h-101l71 572h-324l-70 -572h-101z" />
<glyph unicode="&#x420;" horiz-adv-x="477" d="M186 271l-33 -271h-101l82 667h114q76 0 114 -8.5t68 -33.5q55 -49 55 -131q0 -79 -53 -143q-68 -80 -199 -80h-47zM197 364h38q93 0 128 49q24 34 24 71q0 47 -31.5 68.5t-99.5 21.5h-33z" />
<glyph unicode="&#x421;" horiz-adv-x="610" d="M614 607l-13 -108q-88 88 -207 88q-106 0 -171.5 -74.5t-65.5 -194.5q0 -113 63 -175.5t177 -62.5q96 0 169 58l-15 -117q-94 -34 -171 -34q-145 0 -233.5 92t-88.5 243q0 154 94 256t237 102q61 0 113 -16.5t112 -56.5z" />
<glyph unicode="&#x422;" horiz-adv-x="427" d="M306 572l-70 -572h-101l70 572h-153l12 95h406l-11 -95h-153z" />
<glyph unicode="&#x423;" horiz-adv-x="548" d="M43 0l186 260l-170 407h118l118 -302l196 302h118l-459 -667h-107z" />
<glyph unicode="&#x424;" horiz-adv-x="897" d="M367 -54l12 97q-119 6 -189 40q-134 68 -134 215q0 78 39.5 147t107.5 111q92 57 247 66l12 98h92l-12 -98q124 -7 190 -41q134 -66 134 -214q0 -78 -39.5 -147t-107.5 -112q-97 -58 -248 -65l-12 -97h-92zM530 527l-47 -389q114 7 179 46q47 29 74 74t27 97 q0 51 -28.5 90t-81.5 60q-40 16 -123 22zM390 138l48 389q-114 -8 -178 -47q-48 -28 -74.5 -73t-26.5 -97q0 -107 110 -150q40 -16 121 -22z" />
<glyph unicode="&#x425;" horiz-adv-x="546" d="M234 349l-144 318h114l100 -226l161 226h116l-231 -318l158 -349h-112l-117 255l-183 -255h-114z" />
<glyph unicode="&#x426;" horiz-adv-x="683" d="M52 0l82 667h101l-71 -572h315l70 572h101l-71 -572h59l-27 -223h-92l15 128h-482z" />
<glyph unicode="&#x427;" horiz-adv-x="612" d="M403 0l27 223q-87 -15 -141 -15q-128 0 -184 59q-42 43 -42 127q0 21 4 67l26 206h100l-23 -192q-5 -37 -5 -61q0 -57 36 -84t112 -27q62 0 129 19l43 345h100l-81 -667h-101z" />
<glyph unicode="&#x428;" horiz-adv-x="941" d="M52 0l82 667h101l-71 -572h240l70 572h101l-70 -572h239l70 572h101l-82 -667h-781z" />
<glyph unicode="&#x429;" horiz-adv-x="949" d="M52 0l82 667h101l-71 -572h240l70 572h101l-70 -572h239l70 572h101l-70 -572h58l-27 -223h-92l16 128h-748z" />
<glyph unicode="&#x42a;" horiz-adv-x="654" d="M164 0l71 572h-189l12 95h289l-32 -258h101q100 0 148.5 -42t48.5 -129q0 -106 -65 -174q-64 -64 -193 -64h-191zM277 95h71q57 0 87 9.5t49 32.5q28 33 28 80q0 53 -31 75t-106 22h-71z" />
<glyph unicode="&#x42b;" horiz-adv-x="774" d="M134 667h101l-32 -258h100q101 0 149.5 -42t48.5 -129q0 -106 -65 -174q-64 -64 -194 -64h-190zM164 95h72q57 0 87 9.5t49 32.5q28 33 28 80q0 53 -31 75t-106 22h-72zM563 0l81 667h104l-82 -667h-103z" />
<glyph unicode="&#x42c;" horiz-adv-x="542" d="M134 667h101l-32 -258h100q101 0 149.5 -42t48.5 -129q0 -106 -65 -174q-64 -64 -194 -64h-190zM164 95h72q57 0 87 9.5t49 32.5q28 33 28 80q0 53 -31 75t-106 22h-72z" />
<glyph unicode="&#x42d;" horiz-adv-x="661" d="M183 295l11 90h334q-2 10 -2 12q-6 48 -14 69t-30 47q-63 72 -173 72q-108 0 -214 -79l14 118q106 56 217 56q139 0 222.5 -81t83.5 -215q0 -169 -111 -283t-275 -114q-135 0 -228 68l14 114q88 -87 212 -87q69 0 128 29t100 82q23 31 44 102h-333z" />
<glyph unicode="&#x42e;" horiz-adv-x="1045" d="M52 0l82 667h101l-35 -283h138q37 133 141 214.5t237 81.5q130 0 215 -85.5t85 -216.5q0 -158 -116.5 -274.5t-274.5 -116.5q-131 0 -213.5 83t-85.5 216h-138l-35 -286h-101zM704 585q-110 0 -193 -84.5t-83 -196.5q0 -97 59.5 -159.5t150.5 -62.5q111 0 193.5 84 t82.5 197q0 95 -60 158.5t-150 63.5z" />
<glyph unicode="&#x42f;" horiz-adv-x="560" d="M384 278h-21l-244 -278h-112l257 288q-85 1 -124 34q-50 41 -50 118q0 103 68 169q61 58 184 58h191l-81 -667h-102zM394 361l27 215h-80q-78 0 -115 -38q-34 -36 -34 -85q0 -92 117 -92h85z" />
<glyph unicode="&#x430;" horiz-adv-x="530" d="M395 421h98l-52 -421h-97l5 44q-37 -31 -67.5 -44t-68.5 -13q-79 0 -127 52.5t-48 138.5q0 106 67 180t162 74q72 0 122 -60zM273 345q-55 0 -95 -45.5t-40 -108.5q0 -54 27 -85.5t74 -31.5q59 0 98.5 45t39.5 112q0 52 -28.5 83t-75.5 31z" />
<glyph unicode="&#x431;" horiz-adv-x="536" d="M498 741v-86q-30 -21 -128 -29q-43 -2 -69.5 -6t-50 -16t-36 -28t-24.5 -47.5t-18.5 -69t-14.5 -98.5q38 41 71 56t82 15q84 0 134 -52t50 -138q0 -110 -73 -182.5t-182 -72.5q-108 0 -156 70q-33 47 -33 148q0 70 12.5 160t31.5 154q40 133 127 166q24 9 47.5 13 t104.5 13q94 10 125 30zM284 345q-62 0 -102 -44.5t-40 -113.5q0 -50 30.5 -81.5t79.5 -31.5q59 0 100.5 46t41.5 110q0 52 -30 83.5t-80 31.5z" />
<glyph unicode="&#x432;" horiz-adv-x="481" d="M34 0l52 421h207q77 0 110.5 -21.5t33.5 -71.5q0 -72 -69 -104q67 -23 67 -89q0 -62 -48 -100q-45 -35 -133 -35h-220zM162 249h89q87 0 87 55q0 41 -67 41h-97zM141 77h103q95 0 95 58q0 47 -86 47h-99z" />
<glyph unicode="&#x433;" horiz-adv-x="357" d="M34 0l52 421h283l-11 -87h-186l-41 -334h-97z" />
<glyph unicode="&#x434;" horiz-adv-x="511" d="M370 0h-314l-14 -114h-92l25 201h17q26 0 50 21t41 57q30 67 60 256h324l-41 -334h47l-24 -201h-93zM325 87l30 247h-134q-4 -13 -4 -18l-12 -63q-14 -65 -32.5 -103t-49.5 -63h202z" />
<glyph unicode="&#x435;" horiz-adv-x="489" d="M439 187h-301q-1 -5 -1 -11q0 -47 26.5 -74.5t70.5 -27.5q36 0 62.5 17.5t60.5 64.5l76 -46q-34 -48 -65 -72q-65 -51 -149 -51q-96 0 -147 65q-36 45 -36 120q0 113 66 186t167 73q52 0 94.5 -22.5t61.5 -60.5q20 -40 20 -95q0 -30 -6 -66zM154 266h195q-11 78 -89 78 q-35 0 -63.5 -20.5t-42.5 -57.5z" />
<glyph unicode="&#x436;" horiz-adv-x="637" d="M243 0l22 178h-21l-173 -178h-112l211 218l-140 203h107l115 -172h22l21 172h94l-21 -172h22l158 172h106l-190 -203l158 -218h-112l-129 178h-22l-21 -178h-95z" />
<glyph unicode="&#x437;" horiz-adv-x="426" d="M84 178l9 71h83q52 0 72 10q33 14 33 40q0 46 -102 46q-64 0 -133 -22l11 87q78 22 159 22q170 0 170 -108q0 -69 -71 -104q58 -24 58 -88q0 -56 -42 -95q-54 -50 -181 -50q-83 0 -154 20l11 88q78 -21 145 -21q56 0 87 15t31 42q0 47 -103 47h-83z" />
<glyph unicode="&#x438;" horiz-adv-x="488" d="M29 -37l56 458h96l-30 -243l303 276l-56 -454h-95l29 238z" />
<glyph unicode="&#x439;" horiz-adv-x="488" d="M29 -37l56 458h96l-30 -243l303 276l-56 -454h-95l29 238zM139 631h80q1 -68 66 -68t84 68h79q-11 -54 -41 -88q-51 -57 -133 -57q-60 0 -98 35t-38 91q0 11 1 19z" />
<glyph unicode="&#x43a;" horiz-adv-x="453" d="M34 0l52 421h97l-24 -193l189 193h107l-203 -203l171 -218h-114l-154 196l-24 -196h-97z" />
<glyph unicode="&#x43b;" horiz-adv-x="476" d="M289 0l41 334h-134q-26 -148 -40 -192q-40 -143 -163 -143q-11 0 -30 1l11 90q12 -2 22 -2q29 0 48.5 29t34.5 94q13 58 36 210h323l-51 -421h-98z" />
<glyph unicode="&#x43c;" horiz-adv-x="627" d="M282 -32l-104 257l-76 -225h-96l172 453l126 -302l201 302l61 -453h-97l-20 225z" />
<glyph unicode="&#x43d;" horiz-adv-x="476" d="M33 0l52 421h97l-19 -157h158l19 157h98l-52 -421h-97l22 177h-159l-22 -177h-97z" />
<glyph unicode="&#x43e;" horiz-adv-x="531" d="M290 432q87 0 143 -55t56 -140q0 -102 -75.5 -176t-179.5 -74q-86 0 -141 55.5t-55 141.5q0 100 75.5 174t176.5 74zM279 345q-61 0 -101.5 -44.5t-40.5 -112.5q0 -54 29 -84t81 -30q62 0 102 44.5t40 112.5q0 54 -29 84t-81 30z" />
<glyph unicode="&#x43f;" horiz-adv-x="482" d="M33 0l52 421h359l-52 -421h-97l41 334h-165l-41 -334h-97z" />
<glyph unicode="&#x440;" horiz-adv-x="530" d="M102 -229h-97l80 650h97l-6 -46q67 57 138 57q78 0 126 -52.5t48 -138.5q0 -105 -67 -179.5t-162 -74.5q-73 0 -123 60zM287 345q-59 0 -98.5 -45t-39.5 -112q0 -52 28.5 -83t76.5 -31q55 0 94.5 45.5t39.5 108.5q0 53 -27.5 85t-73.5 32z" />
<glyph unicode="&#x441;" horiz-adv-x="421" d="M410 402l-16 -129q-28 41 -52.5 56.5t-59.5 15.5q-60 0 -102.5 -45.5t-42.5 -109.5q0 -53 30 -84.5t81 -31.5q35 0 62.5 15.5t68.5 57.5l-16 -129q-63 -31 -122 -31q-90 0 -147 54.5t-57 140.5q0 101 77 175.5t182 74.5q61 0 114 -30z" />
<glyph unicode="&#x442;" horiz-adv-x="353" d="M99 0l41 334h-120l11 87h339l-11 -87h-120l-41 -334h-99z" />
<glyph unicode="&#x443;" horiz-adv-x="480" d="M176 79l-147 342h112l99 -242l150 242h110l-415 -650h-111z" />
<glyph unicode="&#x444;" horiz-adv-x="764" d="M279 -229l30 250q-53 -34 -111 -34q-75 0 -118 49.5t-43 136.5t46 162q61 97 169 97q56 0 104 -34l22 183h95l-23 -183q56 34 112 34q75 0 118 -49.5t43 -135.5q0 -110 -62 -185t-154 -75q-57 0 -103 34l-31 -250h-94zM322 122l21 175q-36 48 -84 48q-53 0 -88 -46 t-35 -115q0 -51 24 -80.5t66 -29.5q47 0 96 48zM438 297l-22 -175q36 -48 84 -48q53 0 88.5 46t35.5 116q0 50 -24 79.5t-66 29.5q-49 0 -96 -48z" />
<glyph unicode="&#x445;" horiz-adv-x="494" d="M192 228l-128 193h116l79 -123l110 123h119l-179 -193l152 -228h-115l-104 157l-146 -157h-119z" />
<glyph unicode="&#x446;" horiz-adv-x="490" d="M34 0l52 421h97l-41 -334h166l41 334h98l-41 -334h46l-24 -201h-92l14 114h-316z" />
<glyph unicode="&#x447;" horiz-adv-x="456" d="M270 0l14 114q-44 -11 -87 -11q-80 0 -116.5 34t-36.5 108q0 27 3 54l15 122h98l-16 -130q-3 -21 -3 -37q0 -64 78 -64q40 0 76 14l26 217h98l-52 -421h-97z" />
<glyph unicode="&#x448;" horiz-adv-x="707" d="M34 0l52 421h99l-41 -334h145l40 334h97l-41 -334h145l41 334h99l-52 -421h-584z" />
<glyph unicode="&#x449;" horiz-adv-x="713" d="M34 0l52 421h99l-41 -333h145l40 333h97l-41 -333h145l41 333h99l-41 -333h46l-24 -202h-92l14 114h-539z" />
<glyph unicode="&#x44a;" horiz-adv-x="490" d="M76 0l41 334h-106l11 87h203l-17 -139h89q87 0 120 -25q42 -30 42 -92q0 -79 -53 -124q-47 -41 -136 -41h-194zM183 74h80q55 0 80 18.5t25 59.5q0 30 -20.5 43t-67.5 13h-81z" />
<glyph unicode="&#x44b;" horiz-adv-x="648" d="M33 0l52 421h97l-17 -139h88q88 0 121 -25q42 -30 42 -92q0 -79 -53 -124q-47 -41 -136 -41h-194zM139 74h81q55 0 80 18.5t25 59.5q0 30 -20.5 43t-68.5 13h-80zM458 0l51 421h101l-51 -421h-101z" />
<glyph unicode="&#x44c;" horiz-adv-x="448" d="M34 0l52 421h97l-17 -139h88q88 0 121 -25q42 -30 42 -92q0 -79 -53 -124q-47 -41 -136 -41h-194zM140 74h81q55 0 80 18.5t25 59.5q0 30 -20.5 43t-68.5 13h-80z" />
<glyph unicode="&#x44d;" horiz-adv-x="469" d="M111 176l8 72h211q-7 36 -21 53q-35 44 -113 44q-41 0 -69.5 -7.5t-79.5 -32.5l12 96q89 31 165 31q95 0 150.5 -51t55.5 -139q0 -100 -62 -172q-72 -83 -210 -83q-83 0 -152 31l12 94q43 -23 71.5 -30.5t68.5 -7.5q87 0 135 52q14 16 29 50h-211z" />
<glyph unicode="&#x44e;" horiz-adv-x="738" d="M44 0l52 421h97l-20 -166h83q26 79 92.5 128t147.5 49q88 0 144 -54.5t56 -140.5q0 -101 -75.5 -175.5t-177.5 -74.5q-83 0 -137.5 49.5t-61.5 131.5h-82l-21 -168h-97zM486 345q-61 0 -101.5 -44.5t-40.5 -112.5q0 -54 29 -84t81 -30q62 0 102 44.5t40 112.5 q0 54 -29 84t-81 30z" />
<glyph unicode="&#x44f;" horiz-adv-x="456" d="M266 0l19 147h-7l-161 -147h-117l185 162q-74 2 -108.5 28t-34.5 79q0 67 46 110q25 23 57.5 32.5t89.5 9.5h182l-51 -421h-100zM293 216l16 134h-68q-59 0 -81 -22q-20 -20 -20 -51q0 -33 19.5 -47t64.5 -14h69z" />
<glyph unicode="&#x450;" horiz-adv-x="496" d="M451 169h-315q2 -47 32 -74.5t80 -27.5q67 0 102 50l71 -40q-37 -49 -76.5 -69.5t-98.5 -20.5q-95 0 -151 55.5t-56 149.5q0 98 62 163t155 65q90 0 143 -58.5t53 -158.5zM142 246h213q-15 94 -104 94q-85 0 -109 -94zM179 595l70 47l82 -141l-46 -30z" />
<glyph unicode="&#x451;" horiz-adv-x="489" d="M439 187h-301q-1 -5 -1 -11q0 -47 26.5 -74.5t70.5 -27.5q36 0 62.5 17.5t60.5 64.5l76 -46q-34 -48 -65 -72q-65 -51 -149 -51q-96 0 -147 65q-36 45 -36 120q0 113 66 186t167 73q52 0 94.5 -22.5t61.5 -60.5q20 -40 20 -95q0 -30 -6 -66zM154 266h195q-11 78 -89 78 q-35 0 -63.5 -20.5t-42.5 -57.5zM201 615q24 0 39.5 -15.5t15.5 -38.5q0 -28 -21 -48.5t-48 -20.5q-24 0 -39.5 15.5t-15.5 39.5q0 27 21 47.5t48 20.5zM382 615q24 0 39.5 -15.5t15.5 -38.5q0 -28 -21 -48.5t-49 -20.5q-24 0 -39.5 15.5t-15.5 39.5q0 27 21 47.5t49 20.5z " />
<glyph unicode="&#x452;" horiz-adv-x="490" d="M27 0l64 525h-53l8 65h53l18 139h101l-17 -139h137l-8 -65h-137l-20 -161q34 37 66 52t74 15q58 0 90.5 -32t32.5 -89q0 -20 -3 -43l-34 -280q-7 -58 -20.5 -95.5t-57.5 -120.5h-89q61 146 68 222l32 255q2 22 2 30q0 58 -69 58q-50 0 -80 -35q-24 -28 -30 -82l-27 -219 h-101z" />
<glyph unicode="&#x453;" horiz-adv-x="357" d="M34 0l52 421h283l-11 -87h-186l-41 -334h-97zM402 628l-174 -142l-50 32l138 158z" />
<glyph unicode="&#x454;" horiz-adv-x="469" d="M346 176h-211q6 -39 21 -56q36 -46 118 -46q40 0 70 7.5t79 30.5l-11 -94q-78 -31 -160 -31q-104 0 -160.5 49t-56.5 140q0 112 73.5 184t187.5 72q77 0 157 -31l-12 -96q-45 25 -71.5 32.5t-67.5 7.5q-85 0 -130 -50q-13 -15 -28 -47h211z" />
<glyph unicode="&#x455;" horiz-adv-x="367" d="M342 374l-56 -55q-38 35 -72 35q-23 0 -38 -12.5t-15 -31.5q0 -18 12.5 -30.5t52.5 -35.5q55 -31 75.5 -58t20.5 -68q0 -60 -41.5 -96t-110.5 -36q-50 0 -85 19t-68 65l65 45q40 -48 85 -48q25 0 40.5 13.5t15.5 34.5q0 19 -12.5 30.5t-64.5 40.5q-47 26 -65.5 52 t-18.5 64q0 58 42 95.5t106 37.5q71 0 132 -61z" />
<glyph unicode="&#x456;" horiz-adv-x="223" d="M184 421l-52 -421h-97l52 421h97zM164 646q23 0 39 -15.5t16 -39.5q0 -27 -20.5 -46.5t-48.5 -19.5q-23 0 -38.5 16t-15.5 39q0 26 20.5 46t47.5 20z" />
<glyph unicode="&#x457;" horiz-adv-x="220" d="M182 421l-51 -421h-98l52 421h97zM67 615q24 0 39.5 -15.5t15.5 -38.5q0 -28 -21 -48.5t-48 -20.5q-24 0 -39.5 15.5t-15.5 39.5q0 27 21 47.5t48 20.5zM247 615q24 0 39.5 -15.5t15.5 -38.5q0 -28 -21 -48.5t-48 -20.5q-24 0 -39.5 15.5t-15.5 39.5q0 27 21 47.5 t48 20.5z" />
<glyph unicode="&#x458;" horiz-adv-x="223" d="M184 421l-80 -650h-97l80 650h97zM164 658q24 0 40.5 -16.5t16.5 -39.5q0 -28 -21.5 -49t-50.5 -21q-23 0 -39.5 16.5t-16.5 40.5q0 28 21 48.5t50 20.5z" />
<glyph unicode="&#x459;" horiz-adv-x="688" d="M275 0l41 334h-120q-23 -137 -40 -192q-42 -143 -163 -143q-11 0 -30 1l11 90q12 -2 22 -2q29 0 48.5 28.5t34.5 93.5q17 81 36 211h309l-17 -139h88q88 0 121 -25q42 -30 42 -92q0 -79 -53 -124q-47 -41 -136 -41h-194zM381 74h81q55 0 80 18.5t25 59.5q0 30 -20.5 43 t-68.5 13h-80z" />
<glyph unicode="&#x45a;" horiz-adv-x="674" d="M315 0l22 182h-178l-23 -182h-97l52 421h97l-18 -148h178l18 148h98l-18 -148h63q64 0 99 -30.5t35 -85.5q0 -42 -19 -77.5t-52 -56.5q-39 -23 -101 -23h-156zM423 91h51q32 0 50.5 13.5t18.5 37.5q0 40 -62 40h-47z" />
<glyph unicode="&#x45b;" horiz-adv-x="490" d="M27 0l64 525h-53l8 65h53l18 139h101l-17 -139h142l-8 -65h-142l-20 -161q34 37 66 52t74 15q58 0 90.5 -32t32.5 -89q0 -20 -3 -43l-32 -267h-100l31 248q2 22 2 30q0 58 -69 58q-50 0 -80 -35q-24 -28 -30 -82l-27 -219h-101z" />
<glyph unicode="&#x45c;" horiz-adv-x="453" d="M34 0l52 421h97l-24 -193l189 193h107l-203 -203l171 -218h-114l-154 196l-24 -196h-97zM441 628l-174 -142l-49 32l138 158z" />
<glyph unicode="&#x45d;" horiz-adv-x="488" d="M29 -37l56 458h96l-30 -243l303 276l-56 -454h-95l29 238zM183 595l70 47l82 -141l-46 -30z" />
<glyph unicode="&#x45e;" horiz-adv-x="480" d="M176 79l-147 342h112l99 -242l150 242h110l-415 -650h-111zM135 631h80q1 -68 67 -68q65 0 83 68h80q-13 -56 -41 -88q-51 -57 -133 -57q-60 0 -98 35t-38 91v19z" />
<glyph unicode="&#x45f;" horiz-adv-x="484" d="M33 0l52 421h97l-41 -334h167l41 334h97l-52 -421h-134l-14 -114h-92l14 114h-135z" />
<glyph unicode="&#x490;" horiz-adv-x="468" d="M52 0l82 667h279l8 67h92l-20 -162h-270l-70 -572h-101z" />
<glyph unicode="&#x491;" horiz-adv-x="357" d="M34 0l52 421h193l8 66h90l-19 -153h-186l-41 -334h-97z" />
<glyph unicode="&#x492;" horiz-adv-x="471" d="M52 0l36 296h-61l11 91h62l34 280h373l-11 -95h-270l-23 -185h161l-11 -91h-161l-36 -296h-104z" />
<glyph unicode="&#x493;" horiz-adv-x="344" d="M34 0l18 148h-47l10 83h47l24 190h270l-10 -87h-174l-12 -103h113l-10 -83h-113l-19 -148h-97z" />
<glyph unicode="&#x496;" horiz-adv-x="893" d="M799 95h62l-27 -223h-92l15 128h-20l-201 298h-31l-37 -298h-99l37 298h-31l-274 -298h-127l318 341l-215 326h118l183 -280h39l34 280h99l-34 -280h39l251 280h119l-296 -326z" />
<glyph unicode="&#x497;" horiz-adv-x="637" d="M559 88h77l-24 -202h-93l14 114h-23l-129 178h-22l-21 -178h-95l22 178h-21l-173 -178h-112l211 218l-140 203h107l115 -172h22l21 172h94l-21 -172h22l158 172h106l-190 -203z" />
<glyph unicode="&#x49a;" horiz-adv-x="592" d="M488 95h80l-27 -223h-92l16 128h-33l-240 322l-39 -322h-101l82 667h101l-39 -315l305 315h122l-326 -325z" />
<glyph unicode="&#x49b;" horiz-adv-x="453" d="M355 88h76l-25 -202h-92l14 114h-19l-154 196l-24 -196h-97l52 421h97l-24 -192l189 192h107l-203 -202z" />
<glyph unicode="&#x49c;" horiz-adv-x="611" d="M52 0l82 667h101l-36 -286h54l20 164h54l-20 -162l231 284h121l-270 -325l209 -342h-129l-173 292l-21 -169h-54l21 169h-53l-36 -292h-101z" />
<glyph unicode="&#x49d;" horiz-adv-x="489" d="M34 0l52 421h97l-19 -157h42l12 93h47l-11 -92l134 156h107l-172 -199l140 -222h-114l-106 176l-13 -102h-47l13 103h-43l-22 -177h-97z" />
<glyph unicode="&#x4a2;" horiz-adv-x="649" d="M552 95h51l-27 -223h-92l16 128h-60l38 312h-287l-38 -312h-101l82 667h101l-32 -260h287l32 260h101z" />
<glyph unicode="&#x4a3;" horiz-adv-x="476" d="M397 88h41l-25 -202h-92l14 114h-46l22 177h-159l-22 -177h-97l52 421h97l-19 -157h158l19 157h98z" />
<glyph unicode="&#x4ae;" horiz-adv-x="531" d="M223 288l-172 379h116l120 -267l185 267h116l-265 -379l-35 -288h-101z" />
<glyph unicode="&#x4af;" horiz-adv-x="480" d="M169 17l-146 404h112l97 -308l162 308h109l-229 -404l-30 -246h-106z" />
<glyph unicode="&#x4b0;" horiz-adv-x="567" d="M202 0l21 171h-120l12 93h119l5 39l-184 364h120l130 -256l194 256h121l-281 -364l-4 -39h123l-12 -93h-123l-21 -171h-100z" />
<glyph unicode="&#x4b1;" horiz-adv-x="524" d="M171 -86h-122l10 86h122l4 32l-151 389h114l101 -295l176 295h113l-249 -389l-4 -32h120l-11 -86h-120l-18 -143h-103z" />
<glyph unicode="&#x4b2;" horiz-adv-x="546" d="M465 95h65l-27 -223h-92l16 128h-31l-117 255l-183 -255h-114l252 349l-144 318h114l100 -226l161 226h116l-231 -318z" />
<glyph unicode="&#x4b3;" horiz-adv-x="494" d="M403 88h68l-24 -202h-93l14 114h-22l-104 158l-146 -158h-119l215 228l-128 193h116l79 -123l110 123h119l-179 -193z" />
<glyph unicode="&#x4b6;" horiz-adv-x="612" d="M473 0h-69l27 223q-91 -15 -141 -15q-128 0 -184 59q-42 43 -42 127q0 21 4 67l26 206h100l-23 -192q-5 -37 -5 -61q0 -57 36 -84t112 -27q63 0 129 19l43 345h100l-70 -572h60l-27 -223h-92z" />
<glyph unicode="&#x4b7;" horiz-adv-x="456" d="M325 0h-55l14 114q-43 -11 -87 -11q-80 0 -116.5 34t-36.5 109q0 26 3 54l15 121h98l-16 -130q-3 -21 -3 -37q0 -64 78 -64q40 0 76 14l26 217h98l-41 -333h50l-25 -202h-92z" />
<glyph unicode="&#x4b8;" horiz-adv-x="612" d="M241 82l16 127q-102 10 -148 53.5t-46 131.5q0 21 4 67l26 206h100l-23 -192q-5 -37 -5 -61q0 -49 24 -74t80 -34l23 192h54l-23 -195q59 2 119 19l43 345h100l-81 -667h-101l27 223q-76 -13 -119 -14l-16 -127h-54z" />
<glyph unicode="&#x4b9;" horiz-adv-x="456" d="M229 104l-9 -73h-48l9 73q-74 5 -105.5 37.5t-31.5 103.5q0 27 3 54l15 122h98l-16 -127q-3 -22 -3 -37q0 -51 52 -61l15 123h47l-15 -125q36 5 55 13l26 214h98l-52 -421h-97l14 114q-28 -8 -55 -10z" />
<glyph unicode="&#x4bb;" horiz-adv-x="485" d="M125 729h97l-42 -344q55 47 119 47q59 0 96 -35.5t37 -90.5q0 -22 -3 -48l-32 -258h-97l30 248q2 11 2 32q0 65 -65 65q-61 0 -85 -45q-15 -28 -25 -97l-25 -203h-97z" />
<glyph unicode="&#x4c0;" horiz-adv-x="261" d="M52 0l82 667h101l-82 -667h-101z" />
<glyph unicode="&#x4cf;" horiz-adv-x="261" d="M52 0l82 667h101l-82 -667h-101z" />
<glyph unicode="&#x4d8;" horiz-adv-x="800" d="M67 373h590q-4 95 -63.5 153.5t-153.5 58.5q-73 0 -135 -36t-103 -102l-85 43q59 89 149 139.5t191 50.5q127 0 214.5 -88.5t87.5 -217.5q0 -101 -54.5 -190.5t-146.5 -143t-196 -53.5q-128 0 -216.5 86t-88.5 211q0 30 10 89zM648 294h-490q4 -43 12 -69q21 -63 79 -103 t128 -40q93 0 169 59.5t102 152.5z" />
<glyph unicode="&#x4d9;" horiz-adv-x="521" d="M381 227l1 23q0 47 -29.5 77.5t-75.5 30.5q-78 0 -125 -69l-95 11q34 61 94 96t132 35q91 0 146 -52t55 -137q0 -106 -74 -179.5t-180 -73.5q-88 0 -142.5 54t-54.5 142q0 8 4 42h344zM371 166h-239q3 -49 31.5 -77t75.5 -28q46 0 82.5 29t49.5 76z" />
<glyph unicode="&#x4e2;" horiz-adv-x="687" d="M46 -45l87 712h98l-57 -460l491 500l-87 -707h-97l56 454zM266 833h306l-9 -73h-306z" />
<glyph unicode="&#x4e3;" horiz-adv-x="488" d="M29 -37l56 458h96l-30 -243l303 276l-56 -454h-95l29 238zM139 579h277l-8 -69h-277z" />
<glyph unicode="&#x4e8;" horiz-adv-x="800" d="M456 680q128 0 215.5 -88.5t87.5 -217.5q0 -101 -54.5 -190.5t-147 -143t-196.5 -53.5q-71 0 -137 31.5t-109 86.5q-58 76 -58 184q0 158 119 274.5t280 116.5zM169 373h487q-2 93 -63 152.5t-154 59.5q-94 0 -168 -58t-102 -154zM647 294h-489q1 -46 16 -81 q25 -59 80 -95t121 -36q94 0 170.5 59.5t101.5 152.5z" />
<glyph unicode="&#x4e9;" horiz-adv-x="548" d="M298 431q95 0 153.5 -54t58.5 -142q0 -103 -77.5 -174.5t-190.5 -71.5q-92 0 -150.5 54.5t-58.5 140.5q0 102 78 174.5t187 72.5zM137 244h277q-4 30 -15 51q-16 25 -46.5 40.5t-65.5 15.5q-52 0 -91.5 -28t-58.5 -79zM405 177h-275q5 -32 12 -47q13 -28 43.5 -44.5 t67.5 -16.5q38 0 75 18t56 46q10 14 21 44z" />
<glyph unicode="&#x4ee;" horiz-adv-x="548" d="M43 0l186 260l-170 407h118l118 -302l196 302h118l-459 -667h-107zM186 833h306l-9 -73h-306z" />
<glyph unicode="&#x4ef;" horiz-adv-x="480" d="M176 79l-147 342h112l99 -242l150 242h110l-415 -650h-111zM138 579h277l-8 -69h-277z" />
<glyph unicode="&#x1e1e;" horiz-adv-x="436" d="M463 667l-11 -92h-231l-21 -172h231l-10 -85h-231l-39 -318h-99l82 667h329zM313 856q23 0 38 -16t15 -41q0 -22 -15.5 -37t-37.5 -15q-23 0 -39.5 16t-16.5 39q0 24 15.5 39t40.5 15z" />
<glyph unicode="&#x1e80;" horiz-adv-x="920" d="M967 667l-348 -696l-133 467l-232 -474l-205 703h101l125 -456l234 479l134 -467l218 444h106zM405 847l75 47l85 -136l-52 -31z" />
<glyph unicode="&#x1e81;" horiz-adv-x="643" d="M659 407l-262 -450l-82 263l-145 -263l-148 450h101l71 -248l145 259l78 -259l133 248h109zM237 595l70 47l82 -141l-46 -30z" />
<glyph unicode="&#x1e82;" horiz-adv-x="920" d="M967 667l-348 -696l-133 467l-232 -474l-205 703h101l125 -456l234 479l134 -467l218 444h106zM635 847l-141 -120l-52 31l118 136z" />
<glyph unicode="&#x1e83;" horiz-adv-x="643" d="M659 407l-262 -450l-82 263l-145 -263l-148 450h101l71 -248l145 259l78 -259l133 248h109zM475 597l-138 -126l-49 29l116 142z" />
<glyph unicode="&#x1e84;" horiz-adv-x="920" d="M967 667l-348 -696l-133 467l-232 -474l-205 703h101l125 -456l234 479l134 -467l218 444h106zM603 857q23 0 39 -16.5t16 -39.5q0 -22 -16 -38t-39 -16t-39 16.5t-16 39.5t16 38.5t39 15.5zM442 856q23 0 38 -16t15 -41q0 -22 -15.5 -37t-37.5 -15q-23 0 -39.5 16 t-16.5 39q0 24 15.5 39t40.5 15z" />
<glyph unicode="&#x1e85;" horiz-adv-x="643" d="M659 407l-262 -450l-82 263l-145 -263l-148 450h101l71 -248l145 259l78 -259l133 248h109zM262 601q21 0 36.5 -15.5t15.5 -37.5q0 -21 -15 -36t-36 -15t-36.5 15.5t-15.5 37.5q0 21 15 36t36 15zM418 601q21 0 36.5 -15.5t15.5 -37.5q0 -21 -15 -36t-36 -15t-36.5 15.5 t-15.5 37.5q0 21 15 36t36 15z" />
<glyph unicode="&#x1ea0;" horiz-adv-x="624" d="M188 157l-81 -157h-108l369 714l230 -714h-103l-48 157h-259zM231 242h188l-72 237zM392 751h-53l16 73q96 6 96 43q0 12 -10.5 21.5t-23.5 8.5q-23 -1 -63 -18l-7 -3l-8 45q62 22 102 22q39 0 62 -18.5t23 -49.5q0 -38 -28.5 -62t-74.5 -24h-23z" />
<glyph unicode="&#x1ea1;" d="M487 407l-50 -407h-95l5 44q-34 -30 -62 -42t-64 -12q-74 0 -127 51q-56 55 -56 146q0 102 58.5 166t151.5 64q44 0 75 -14.5t62 -48.5l7 53h95zM260 337q-53 0 -89.5 -42t-36.5 -103q0 -54 30.5 -88t77.5 -34q53 0 91 43t38 102q0 54 -31 88t-80 34zM207 -47 q25 0 43 -17.5t18 -42.5q0 -23 -17.5 -40t-40.5 -17q-24 0 -41 17.5t-17 42.5t16 41t39 16z" />
<glyph unicode="&#x1ea2;" horiz-adv-x="624" d="M188 157l-81 -157h-108l369 714l230 -714h-103l-48 157h-259zM231 242h188l-72 237zM398 751h-53l16 73q29 6 38 6q33 4 45 13t12 27q0 27 -41 27q-17 0 -30 -6q-8 -5 -24 -12q-2 0 -8 -3l-8 45l7 3l3 1q51 18 92 18q39 0 62 -18.5t23 -49.5q0 -38 -28.5 -62t-74.5 -24 h-22z" />
<glyph unicode="&#x1ea3;" d="M487 407l-50 -407h-95l5 44q-34 -30 -62 -42t-64 -12q-74 0 -127 51q-56 55 -56 146q0 102 58.5 166t151.5 64q44 0 75 -14.5t62 -48.5l7 53h95zM260 337q-53 0 -89.5 -42t-36.5 -103q0 -54 30.5 -88t77.5 -34q53 0 91 43t38 102q0 54 -31 88t-80 34zM294 505h-53l15 73 q37 7 39 7q33 5 45 13t12 27q0 26 -41 26q-16 0 -39 -10q0 -1 -23 -10l-8 45l7 2l3 1q48 18 91 18q40 0 63 -18.5t23 -49.5q0 -38 -29 -62t-75 -24h-22z" />
<glyph unicode="&#x1ea4;" horiz-adv-x="624" d="M434 849l101 116l75 -48l-134 -113l28 -31l-53 -44l-68 74l-104 -76l-43 46l157 121zM188 157l-81 -157h-108l369 714l230 -714h-103l-48 157h-259zM231 242h188l-72 237z" />
<glyph unicode="&#x1ea5;" d="M366 580l93 115l71 -46l-127 -115l16 -20l-44 -41l-67 81l-95 -83l-40 44l144 127zM487 407l-50 -407h-95l5 44q-34 -30 -62 -42t-64 -12q-74 0 -127 51q-56 55 -56 146q0 102 58.5 166t151.5 64q44 0 75 -14.5t62 -48.5l7 53h95zM260 337q-53 0 -89.5 -42t-36.5 -103 q0 -54 30.5 -88t77.5 -34q53 0 91 43t38 102q0 54 -31 88t-80 34z" />
<glyph unicode="&#x1ea6;" horiz-adv-x="624" d="M261 793l-100 110l75 48l75 -120l82 63l111 -121l-53 -44l-68 74l-104 -76l-43 46zM188 157l-81 -157h-108l369 714l230 -714h-103l-48 157h-259zM231 242h188l-72 237z" />
<glyph unicode="&#x1ea7;" d="M193 533l-89 105l70 47l65 -112l78 70l102 -128l-44 -42l-67 81l-95 -82l-40 43zM487 407l-50 -407h-95l5 44q-34 -30 -62 -42t-64 -12q-74 0 -127 51q-56 55 -56 146q0 102 58.5 166t151.5 64q44 0 75 -14.5t62 -48.5l7 53h95zM260 337q-53 0 -89.5 -42t-36.5 -103 q0 -54 30.5 -88t77.5 -34q53 0 91 43t38 102q0 54 -31 88t-80 34z" />
<glyph unicode="&#x1ea8;" horiz-adv-x="624" d="M458 824l9 45q3 1 7 1l19 -2q7 4 18 8q24 4 30.5 6.5t13.5 10.5q8 8 8 22q0 27 -41 27q-17 0 -30 -6q-9 -5 -25 -12q-4 -2 -7 -3l-8 45q8 3 10 4q52 18 91 18q40 0 63 -18.5t23 -49.5q0 -38 -29 -62.5t-75 -24.5q-11 0 -22 1l-8 -38h-22l21 -23l-53 -44l-68 74l-104 -75 l-43 46l157 120zM188 157l-81 -157h-108l369 714l230 -714h-103l-48 157h-259zM231 242h188l-72 237z" />
<glyph unicode="&#x1ea9;" d="M376 567l9 44q29 5 39 6q33 5 45 13t12 27q0 27 -41 27q-17 0 -38 -11q-10 -4 -24 -10l-8 45l7 2l3 2q49 18 91 18q40 0 63 -18.5t23 -49.5q0 -38 -28.5 -62.5t-74.5 -24.5q-12 0 -23 1l-8 -39h-23l19 -23l-44 -42l-67 81l-95 -82l-40 43l144 129zM487 407l-50 -407h-95 l5 44q-34 -30 -62 -42t-64 -12q-74 0 -127 51q-56 55 -56 146q0 102 58.5 166t151.5 64q44 0 75 -14.5t62 -48.5l7 53h95zM260 337q-53 0 -89.5 -42t-36.5 -103q0 -54 30.5 -88t77.5 -34q53 0 91 43t38 102q0 54 -31 88t-80 34z" />
<glyph unicode="&#x1eaa;" horiz-adv-x="624" d="M188 157l-81 -157h-108l369 714l230 -714h-103l-48 157h-259zM231 242h188l-72 237zM383 803l-104 -76l-43 46l157 121l111 -121l-53 -44zM500 1024l51 -37q-23 -43 -47 -61t-60 -18q-17 0 -23.5 2t-25.5 15q-9 7 -29 15.5t-26 8.5q-10 0 -19 -8t-26 -33l-50 38 q33 45 53 60.5t44 15.5q22 0 62 -24q33 -18 50 -18q29 0 46 44z" />
<glyph unicode="&#x1eab;" d="M487 407l-50 -407h-95l5 44q-34 -30 -62 -42t-64 -12q-74 0 -127 51q-56 55 -56 146q0 102 58.5 166t151.5 64q44 0 75 -14.5t62 -48.5l7 53h95zM260 337q-53 0 -89.5 -42t-36.5 -103q0 -54 30.5 -88t77.5 -34q53 0 91 43t38 102q0 54 -31 88t-80 34zM308 554l-95 -83 l-40 44l144 127l102 -128l-44 -41zM415 767l51 -34q-41 -78 -93 -78q-28 0 -91 38q-4 3 -14 3t-16 -5.5t-18 -25.5q0 -1 -2.5 -4t-4.5 -6l-49 34q46 76 90 76q20 0 61 -24q35 -18 44 -18q22 0 42 44z" />
<glyph unicode="&#x1eac;" horiz-adv-x="624" d="M453 829l10 47q5 1 11 2t10.5 1.5t8 1t5.5 1.5h3q33 4 45 13t12 27q0 27 -41 27q-17 0 -30 -6q-8 -5 -25 -12q-3 -1 -7 -3l-8 45l7 3l3 1q51 18 91 18t63 -18t23 -49q0 -39 -28.5 -63t-74.5 -24h-23l-8 -38h-23l27 -30l-53 -44l-68 74l-104 -76l-43 47l157 120zM188 157 l-81 -157h-108l369 714l230 -714h-103l-48 157h-259zM231 242h188l-72 237z" />
<glyph unicode="&#x1ead;" d="M487 407l-50 -407h-95l5 44q-34 -30 -62 -42t-64 -12q-74 0 -127 51q-56 55 -56 146q0 102 58.5 166t151.5 64q44 0 75 -14.5t62 -48.5l7 53h95zM260 337q-53 0 -89.5 -42t-36.5 -103q0 -54 30.5 -88t77.5 -34q53 0 91 43t38 102q0 54 -31 88t-80 34zM308 554l-95 -83 l-40 44l144 127l102 -128l-44 -41zM227 -47q25 0 43 -17.5t18 -42.5q0 -23 -17.5 -40t-40.5 -17q-24 0 -41 17.5t-17 42.5t16 41t39 16z" />
<glyph unicode="&#x1eae;" horiz-adv-x="624" d="M188 157l-81 -157h-108l369 714l230 -714h-103l-48 157h-259zM231 242h188l-72 237zM257 868h70q0 -69 51 -69q52 0 78 69h71q-18 -56 -41 -84q-43 -54 -110 -54q-52 0 -85.5 33.5t-33.5 86.5v18zM540 955l-142 -120l-52 32l119 136z" />
<glyph unicode="&#x1eaf;" d="M487 407l-50 -407h-95l5 44q-34 -30 -62 -42t-64 -12q-74 0 -127 51q-56 55 -56 146q0 102 58.5 166t151.5 64q44 0 75 -14.5t62 -48.5l7 53h95zM260 337q-53 0 -89.5 -42t-36.5 -103q0 -54 30.5 -88t77.5 -34q53 0 91 43t38 102q0 54 -31 88t-80 34zM192 618h67v-15 q0 -23 14 -38.5t36 -15.5q47 0 70 69h68q-17 -51 -40 -81q-44 -53 -102 -53q-48 0 -80.5 34t-32.5 84v16zM469 709l-138 -125l-49 28l116 143z" />
<glyph unicode="&#x1eb0;" horiz-adv-x="624" d="M188 157l-81 -157h-108l369 714l230 -714h-103l-48 157h-259zM231 242h188l-72 237zM257 868h70q0 -69 51 -69q52 0 78 69h71q-18 -56 -41 -84q-43 -54 -110 -54q-52 0 -85.5 33.5t-33.5 86.5v18zM269 955l75 48l84 -136l-51 -32z" />
<glyph unicode="&#x1eb1;" d="M487 407l-50 -407h-95l5 44q-34 -30 -62 -42t-64 -12q-74 0 -127 51q-56 55 -56 146q0 102 58.5 166t151.5 64q44 0 75 -14.5t62 -48.5l7 53h95zM260 337q-53 0 -89.5 -42t-36.5 -103q0 -54 30.5 -88t77.5 -34q53 0 91 43t38 102q0 54 -31 88t-80 34zM192 618h67v-15 q0 -23 14 -38.5t36 -15.5q47 0 70 69h68q-17 -51 -40 -81q-44 -53 -102 -53q-48 0 -80.5 34t-32.5 84v16zM200 709l70 47l82 -141l-47 -30z" />
<glyph unicode="&#x1eb2;" horiz-adv-x="624" d="M188 157l-81 -157h-108l369 714l230 -714h-103l-48 157h-259zM231 242h188l-72 237zM257 868h70q0 -69 51 -69q52 0 78 69h71q-18 -56 -41 -84q-43 -54 -110 -54q-52 0 -85.5 33.5t-33.5 86.5v18zM412 840h-53l16 73q28 6 38 6q33 4 45 13t12 27q0 27 -41 27 q-15 0 -54 -18q-3 0 -7 -3l-9 45l7 3l4 1q49 18 91 18q39 0 62 -18.5t23 -49.5q0 -38 -28.5 -62t-74.5 -24h-22z" />
<glyph unicode="&#x1eb3;" d="M487 407l-50 -407h-95l5 44q-34 -30 -62 -42t-64 -12q-74 0 -127 51q-56 55 -56 146q0 102 58.5 166t151.5 64q44 0 75 -14.5t62 -48.5l7 53h95zM260 337q-53 0 -89.5 -42t-36.5 -103q0 -54 30.5 -88t77.5 -34q53 0 91 43t38 102q0 54 -31 88t-80 34zM192 618h67v-15 q0 -23 14 -38.5t36 -15.5q47 0 70 69h68q-17 -51 -40 -81q-44 -53 -102 -53q-48 0 -80.5 34t-32.5 84v16zM345 588h-53l15 73q21 5 39 6q33 5 45 13t12 27q0 27 -41 27q-17 0 -30 -6q-4 -3 -25 -12q-4 -1 -7 -3l-8 45l7 3l3 1q51 18 91 18t63 -18.5t23 -49.5q0 -38 -29 -62 t-75 -24h-22z" />
<glyph unicode="&#x1eb4;" horiz-adv-x="624" d="M188 157l-81 -157h-108l369 714l230 -714h-103l-48 157h-259zM231 242h188l-72 237zM257 868h70q0 -69 51 -69q52 0 78 69h71q-18 -56 -41 -84q-43 -54 -110 -54q-52 0 -85.5 33.5t-33.5 86.5v18zM498 1011l51 -38q-41 -78 -97 -78q-28 0 -78 27q-24 14 -36 14 q-10 0 -18.5 -8t-26.5 -33l-50 38q32 44 52.5 60t44.5 16q20 0 62 -24q33 -19 50 -19q29 0 46 45z" />
<glyph unicode="&#x1eb5;" d="M487 407l-50 -407h-95l5 44q-34 -30 -62 -42t-64 -12q-74 0 -127 51q-56 55 -56 146q0 102 58.5 166t151.5 64q44 0 75 -14.5t62 -48.5l7 53h95zM260 337q-53 0 -89.5 -42t-36.5 -103q0 -54 30.5 -88t77.5 -34q53 0 91 43t38 102q0 54 -31 88t-80 34zM192 618h67v-15 q0 -23 14 -38.5t36 -15.5q47 0 70 69h68q-17 -51 -40 -81q-44 -53 -102 -53q-48 0 -80.5 34t-32.5 84v16zM427 748l51 -34q-41 -78 -93 -78q-27 0 -90 38q-6 3 -15 3q-10 0 -16 -5.5t-18 -25.5l-1 -2q-1 -1 -2.5 -3.5t-3.5 -4.5l-49 35q47 75 90 75q20 0 61 -24 q35 -18 44 -18q22 0 42 44z" />
<glyph unicode="&#x1eb6;" horiz-adv-x="624" d="M188 157l-81 -157h-108l369 714l230 -714h-103l-48 157h-259zM231 242h188l-72 237zM257 868h70q0 -69 51 -69q52 0 78 69h71q-18 -56 -41 -84q-43 -54 -110 -54q-52 0 -85.5 33.5t-33.5 86.5v18zM414 846h-53l15 73q15 3 39 6q33 5 45 13t12 27q0 27 -41 27 q-17 0 -30 -6q-9 -5 -25 -12q-2 0 -7 -3l-8 45l7 3l3 1q51 18 91 18t63 -18.5t23 -49.5q0 -38 -29 -62t-75 -24h-22z" />
<glyph unicode="&#x1eb7;" d="M487 407l-50 -407h-95l5 44q-34 -30 -62 -42t-64 -12q-74 0 -127 51q-56 55 -56 146q0 102 58.5 166t151.5 64q44 0 75 -14.5t62 -48.5l7 53h95zM260 337q-53 0 -89.5 -42t-36.5 -103q0 -54 30.5 -88t77.5 -34q53 0 91 43t38 102q0 54 -31 88t-80 34zM192 618h67v-15 q0 -23 14 -38.5t36 -15.5q47 0 70 69h68q-17 -51 -40 -81q-44 -53 -102 -53q-48 0 -80.5 34t-32.5 84v16zM221 -47q25 0 43 -17.5t18 -42.5q0 -23 -17.5 -40t-40.5 -17q-24 0 -41 17.5t-17 42.5t16 41t39 16z" />
<glyph unicode="&#x1eb8;" horiz-adv-x="470" d="M477 667l-11 -92h-245l-21 -173h245l-11 -85h-244l-28 -225h245l-12 -92h-343l82 667h343zM332 751h-54l16 73q22 4 38 6q33 5 45 13.5t12 26.5q0 27 -41 27q-16 0 -30 -6q-8 -5 -24 -12q-4 -1 -7 -3l-9 45l7 3l4 1q51 18 91 18q39 0 62 -18.5t23 -49.5q0 -38 -28.5 -62 t-74.5 -24h-22z" />
<glyph unicode="&#x1eb9;" horiz-adv-x="496" d="M451 169h-315q2 -47 32 -74.5t80 -27.5q67 0 102 50l71 -40q-37 -49 -76.5 -69.5t-98.5 -20.5q-95 0 -151 55.5t-56 149.5q0 98 62 163t155 65q90 0 143 -58.5t53 -158.5zM142 246h213q-15 94 -104 94q-85 0 -109 -94zM229 -47q25 0 43 -17.5t18 -42.5q0 -23 -17.5 -40 t-40.5 -17q-24 0 -41 17.5t-17 42.5t16 41t39 16z" />
<glyph unicode="&#x1eba;" horiz-adv-x="470" d="M477 667l-11 -92h-245l-21 -173h245l-11 -85h-244l-28 -225h245l-12 -92h-343l82 667h343zM329 751h-54l16 73q29 6 38 6q33 4 45 13t12 27q0 27 -41 27q-15 0 -54 -18q-3 0 -7 -3l-9 45l7 3l4 1q50 18 91 18q39 0 62 -18.5t23 -49.5q0 -38 -28.5 -62t-74.5 -24h-22z" />
<glyph unicode="&#x1ebb;" horiz-adv-x="496" d="M451 169h-315q2 -47 32 -74.5t80 -27.5q67 0 102 50l71 -40q-37 -49 -76.5 -69.5t-98.5 -20.5q-95 0 -151 55.5t-56 149.5q0 98 62 163t155 65q90 0 143 -58.5t53 -158.5zM142 246h213q-15 94 -104 94q-85 0 -109 -94zM288 505h-53l15 74q7 1 16.5 2.5t15.5 2.5t7 1 q33 5 45 13t12 27q0 26 -41 26q-18 0 -39 -10q-17 -8 -23 -10l-8 45q8 3 10 4q53 18 91 18q40 0 63 -18.5t23 -49.5q0 -38 -29 -62.5t-75 -24.5h-22z" />
<glyph unicode="&#x1ebc;" horiz-adv-x="470" d="M477 667l-11 -92h-245l-21 -173h245l-11 -85h-244l-28 -225h245l-12 -92h-343l82 667h343zM415 859l51 -37q-40 -79 -96 -79q-28 0 -79 28q-25 14 -36 14q-16 0 -45 -42l-49 39q32 44 52 60t44 16q22 0 62 -25q34 -19 51 -19q28 0 45 45z" />
<glyph unicode="&#x1ebd;" horiz-adv-x="496" d="M451 169h-315q2 -47 32 -74.5t80 -27.5q67 0 102 50l71 -40q-37 -49 -76.5 -69.5t-98.5 -20.5q-95 0 -151 55.5t-56 149.5q0 98 62 163t155 65q90 0 143 -58.5t53 -158.5zM142 246h213q-15 94 -104 94q-85 0 -109 -94zM383 611l50 -34q-40 -78 -93 -78q-27 0 -90 39 q-6 3 -14 3q-11 0 -17 -5.5t-18 -25.5q-2 -3 -7 -10l-49 34q26 41 46.5 58.5t44.5 17.5q20 0 61 -24q33 -19 43 -19q23 0 43 44z" />
<glyph unicode="&#x1ebe;" horiz-adv-x="470" d="M391 839l95 109l75 -47l-127 -108l18 -20l-53 -44l-68 74l-104 -76l-43 46l157 121zM477 667l-11 -92h-245l-21 -173h245l-11 -85h-244l-28 -225h245l-12 -92h-343l82 667h343z" />
<glyph unicode="&#x1ebf;" horiz-adv-x="496" d="M352 577l95 117l71 -45l-130 -118l13 -17l-43 -41l-68 81l-94 -83l-40 44l144 127zM451 169h-315q2 -47 32 -74.5t79 -27.5q68 0 103 50l71 -40q-37 -49 -76.5 -69.5t-98.5 -20.5q-95 0 -151 55.5t-56 149.5q0 98 62 163t155 65q90 0 143 -58.5t53 -158.5zM142 246h213 q-15 94 -104 94q-85 0 -109 -94z" />
<glyph unicode="&#x1ec0;" horiz-adv-x="470" d="M211 794l-95 105l75 48l71 -114l79 61l111 -121l-53 -44l-68 74l-104 -76l-43 46zM477 667l-11 -92h-245l-21 -173h245l-11 -85h-244l-28 -225h245l-12 -92h-343l82 667h343z" />
<glyph unicode="&#x1ec1;" horiz-adv-x="496" d="M178 534l-94 110l70 47l69 -117l77 68l101 -128l-43 -41l-68 81l-94 -83l-40 44zM451 169h-315q2 -47 32 -74.5t79 -27.5q68 0 103 50l71 -40q-37 -49 -76.5 -69.5t-98.5 -20.5q-95 0 -151 55.5t-56 149.5q0 98 62 163t155 65q90 0 143 -58.5t53 -158.5zM142 246h213 q-15 94 -104 94q-85 0 -109 -94z" />
<glyph unicode="&#x1ec2;" horiz-adv-x="470" d="M407 821l10 46q12 2 38 6q33 4 45 13t12 27q0 27 -39 27q-18 0 -31 -6q-9 -5 -25 -12h-1l-4 -2t-4 -1l-6 45l6 3l4 1q51 18 91 18q39 0 62 -18t23 -49q0 -39 -28.5 -63t-74.5 -24h-22l-8 -38h-23l20 -21l-53 -45l-68 75l-104 -76l-43 46l157 121zM477 667l-11 -92h-245 l-21 -173h245l-11 -85h-244l-28 -225h245l-12 -92h-343l82 667h343z" />
<glyph unicode="&#x1ec3;" horiz-adv-x="496" d="M361 566l9 43q22 4 38 7q33 4 45 12.5t12 26.5q0 27 -41 27q-16 0 -30 -6q-3 -2 -24 -11q-1 -1 -7 -3l-9 45l7 2l4 1q48 18 91 18q39 0 62 -18t23 -49q0 -39 -28.5 -63t-74.5 -24h-22l-8 -38h-24l17 -21l-43 -42l-68 81l-94 -83l-40 44l144 128zM451 169h-315 q2 -47 32 -74.5t79 -27.5q68 0 103 50l71 -40q-37 -49 -76.5 -69.5t-98.5 -20.5q-95 0 -151 55.5t-56 149.5q0 98 62 163t155 65q90 0 143 -58.5t53 -158.5zM142 246h213q-15 94 -104 94q-85 0 -109 -94z" />
<glyph unicode="&#x1ec4;" horiz-adv-x="470" d="M477 667l-11 -92h-245l-21 -173h245l-11 -85h-244l-28 -225h245l-12 -92h-343l82 667h343zM331 803l-104 -76l-43 46l157 121l111 -121l-53 -44zM445 1015l50 -37q-39 -79 -96 -79q-29 0 -78 27q-25 14 -36 14q-10 0 -19 -8t-26 -33l-50 38q32 44 52.5 60t43.5 16 q21 0 63 -24q33 -19 50 -19q29 0 46 45z" />
<glyph unicode="&#x1ec5;" horiz-adv-x="496" d="M451 169h-315q2 -47 32 -74.5t80 -27.5q67 0 102 50l71 -40q-37 -49 -76.5 -69.5t-98.5 -20.5q-95 0 -151 55.5t-56 149.5q0 98 62 163t155 65q90 0 143 -58.5t53 -158.5zM142 246h213q-15 94 -104 94q-85 0 -109 -94zM290 554l-94 -83l-40 44l144 127l101 -128l-43 -41z M397 767l50 -34q-40 -78 -93 -78q-27 0 -90 38q-4 3 -14 3t-16 -5.5t-19 -25.5l-6 -10l-50 34q26 41 46.5 58.5t44.5 17.5q20 0 61 -24q35 -18 44 -18q22 0 42 44z" />
<glyph unicode="&#x1ec6;" horiz-adv-x="470" d="M407 821l11 50l13 3q7 1 13 1.5t8 1t4 0.5q33 4 45 13t12 27q0 27 -41 27q-17 0 -30 -6q-9 -5 -25 -12q-3 -1 -7 -3l-8 45l7 3l3 1q51 18 91 18t63 -18t23 -49q0 -39 -28.5 -63t-74.5 -24h-23l-8 -38h-27l24 -26l-53 -44l-68 74l-104 -75l-43 46l157 120zM477 667 l-11 -92h-245l-21 -173h245l-11 -85h-244l-28 -225h245l-12 -92h-343l82 667h343z" />
<glyph unicode="&#x1ec7;" horiz-adv-x="496" d="M451 169h-315q2 -47 32 -74.5t80 -27.5q67 0 102 50l71 -40q-37 -49 -76.5 -69.5t-98.5 -20.5q-95 0 -151 55.5t-56 149.5q0 98 62 163t155 65q90 0 143 -58.5t53 -158.5zM142 246h213q-15 94 -104 94q-85 0 -109 -94zM290 554l-94 -83l-40 44l144 127l101 -128l-43 -41z M229 -47q25 0 43 -17.5t18 -42.5q0 -23 -17.5 -40t-40.5 -17q-24 0 -41 17.5t-17 42.5t16 41t39 16z" />
<glyph unicode="&#x1ec8;" horiz-adv-x="259" d="M233 667l-82 -667h-99l82 667h99zM222 751h-54l16 73q28 6 38 6q33 4 45 13t12 27q0 27 -41 27q-15 0 -54 -18q-2 0 -7 -3l-9 45l7 3l4 1q50 18 91 18q39 0 62 -18.5t23 -49.5q0 -38 -28.5 -62t-74.5 -24h-22z" />
<glyph unicode="&#x1ec9;" horiz-adv-x="229" d="M184 407l-50 -407h-95l50 407h95zM174 503h-54l16 73q22 4 38 6q33 5 45 13t12 27q0 27 -41 27q-16 0 -38 -11q-6 -2 -16 -7l-7 -3l-9 45l7 3l4 1q48 18 91 18q39 0 62 -18.5t23 -49.5q0 -38 -28.5 -62t-74.5 -24h-22z" />
<glyph unicode="&#x1eca;" horiz-adv-x="259" d="M233 667l-82 -667h-99l82 667h99zM215 744h-54l16 73q12 2 38 6q33 4 45 13t12 27q0 27 -41 27q-16 0 -29 -6q-9 -5 -25 -12q-4 -1 -7 -3l-8 45l6 3l4 1q51 18 91 18q39 0 62 -18.5t23 -49.5q0 -38 -28.5 -62t-74.5 -24h-22z" />
<glyph unicode="&#x1ecb;" horiz-adv-x="229" d="M161 654q22 0 37.5 -16t15.5 -37t-15 -36t-36 -15t-36.5 15.5t-15.5 37.5q0 21 15 36t35 15zM184 407l-50 -407h-95l50 407h95zM75 -47q25 0 43 -17.5t18 -42.5q0 -23 -17.5 -40t-40.5 -17q-24 0 -41 17.5t-17 42.5t16 41t39 16z" />
<glyph unicode="&#x1ecc;" horiz-adv-x="784" d="M412 680q154 0 248 -91.5t94 -241.5q0 -155 -101.5 -257.5t-255.5 -102.5q-150 0 -244.5 96t-94.5 248q0 151 100.5 250t253.5 99zM415 587q-110 0 -184 -73.5t-74 -183.5q0 -108 68.5 -179t173.5 -71q110 0 182.5 76t72.5 191q0 110 -65 175t-174 65zM464 751h-53l16 73 q13 3 38 6q33 4 45 13t12 27q0 27 -41 27q-17 0 -30 -6q-9 -5 -25 -12q-3 -1 -7 -3l-8 45l7 3l3 1q51 18 91 18t63 -18.5t23 -49.5q0 -38 -28.5 -62t-74.5 -24h-23z" />
<glyph unicode="&#x1ecd;" d="M269 420q97 0 158 -59.5t61 -153.5q0 -93 -64.5 -156.5t-158.5 -63.5q-98 0 -161.5 60t-63.5 153q0 94 65.5 157t163.5 63zM269 340q-58 0 -95.5 -39t-37.5 -99t35.5 -97.5t91.5 -37.5t92.5 41t36.5 104q0 58 -34 93t-89 35zM248 -47q25 0 43 -17.5t18 -42.5 q0 -23 -17.5 -40t-40.5 -17q-24 0 -41 17.5t-17 42.5t16 41t39 16z" />
<glyph unicode="&#x1ece;" horiz-adv-x="784" d="M412 680q154 0 248 -91.5t94 -241.5q0 -155 -101.5 -257.5t-255.5 -102.5q-150 0 -244.5 96t-94.5 248q0 151 100.5 250t253.5 99zM415 587q-110 0 -184 -73.5t-74 -183.5q0 -108 68.5 -179t173.5 -71q110 0 182.5 76t72.5 191q0 110 -65 175t-174 65zM433 751h-53l15 73 q30 5 39 6q33 4 45 13t12 27q0 27 -41 27q-17 0 -30 -6q-9 -5 -25 -12q-3 0 -7 -3l-8 45l7 3l3 1q49 18 91 18q40 0 63 -18.5t23 -49.5q0 -38 -29 -62t-75 -24h-22z" />
<glyph unicode="&#x1ecf;" d="M269 420q97 0 158 -59.5t61 -153.5q0 -93 -64.5 -156.5t-158.5 -63.5q-98 0 -161.5 60t-63.5 153q0 94 65.5 157t163.5 63zM269 340q-58 0 -95.5 -39t-37.5 -99t35.5 -97.5t91.5 -37.5t92.5 41t36.5 104q0 58 -34 93t-89 35zM312 527h-53l15 73q34 6 39 6q33 4 45 13 t12 27q0 27 -41 27q-16 0 -38 -11l-24 -10l-8 45l7 3l3 1q51 18 91 18t63 -18.5t23 -49.5q0 -38 -29 -62t-75 -24h-22z" />
<glyph unicode="&#x1ed0;" horiz-adv-x="784" d="M533 836l98 112l75 -47l-131 -111l16 -17l-53 -44l-68 74l-104 -76l-43 46l157 121zM412 680q151 0 246 -91t95 -235q0 -161 -100 -264t-257 -103q-149 0 -243.5 96t-94.5 248q0 151 100.5 250t253.5 99zM415 587q-110 0 -184 -73.5t-74 -183.5q0 -108 68.5 -179 t173.5 -71q110 0 182.5 76t72.5 191q0 110 -65 175t-174 65z" />
<glyph unicode="&#x1ed1;" d="M364 585l93 115l71 -46l-127 -116l19 -24l-44 -41l-67 81l-94 -83l-41 44l144 127zM270 420q95 0 156.5 -59t61.5 -151q0 -96 -63.5 -159.5t-160.5 -63.5q-98 0 -161 60t-63 153q0 95 65.5 157.5t164.5 62.5zM269 340q-58 0 -95.5 -39t-37.5 -99t35.5 -97.5t91.5 -37.5 t92.5 41t36.5 104q0 58 -34 93t-89 35z" />
<glyph unicode="&#x1ed2;" horiz-adv-x="784" d="M343 788l-94 104l75 48l70 -112l86 66l111 -121l-53 -44l-68 74l-104 -76l-43 46zM412 680q151 0 246 -91t95 -235q0 -161 -100 -264t-257 -103q-149 0 -243.5 96t-94.5 248q0 151 100.5 250t253.5 99zM415 587q-110 0 -184 -73.5t-74 -183.5q0 -108 68.5 -179t173.5 -71 q110 0 182.5 76t72.5 191q0 110 -65 175t-174 65z" />
<glyph unicode="&#x1ed3;" d="M195 533l-95 111l70 47l69 -118l79 69l102 -128l-44 -41l-67 81l-94 -83l-41 44zM270 420q95 0 156.5 -59t61.5 -151q0 -96 -63.5 -159.5t-160.5 -63.5q-98 0 -161 60t-63 153q0 95 65.5 157.5t164.5 62.5zM269 340q-58 0 -95.5 -39t-37.5 -99t35.5 -97.5t91.5 -37.5 t92.5 41t36.5 104q0 58 -34 93t-89 35z" />
<glyph unicode="&#x1ed4;" horiz-adv-x="784" d="M544 824l9 42q22 4 38 6q33 4 45 13t12 27q0 27 -41 27q-16 0 -30 -6q-8 -5 -24 -12q-4 -1 -7 -3l-9 45l7 3l4 1q51 18 91 18q39 0 62 -18t23 -49q0 -39 -28.5 -63t-74.5 -24h-22l-8 -38h-19l19 -20l-53 -45l-68 74l-104 -75l-43 46l157 121zM412 680q151 0 246 -91 t95 -235q0 -161 -100 -264t-257 -103q-149 0 -243.5 96t-94.5 248q0 151 100.5 250t253.5 99zM415 587q-110 0 -184 -73.5t-74 -183.5q0 -108 68.5 -179t173.5 -71q110 0 182.5 76t72.5 191q0 110 -65 175t-174 65z" />
<glyph unicode="&#x1ed5;" d="M377 568l9 41q22 4 38 7q33 4 45 12.5t12 26.5q0 27 -41 27q-16 0 -30 -6q-3 -2 -24 -11q-1 -1 -7 -3l-9 45l7 2l4 1q48 18 91 18q39 0 62 -18t23 -49q0 -39 -28.5 -63t-74.5 -24h-22l-8 -38h-21l17 -21l-44 -42l-67 81l-94 -83l-41 44l144 128zM270 420q95 0 156.5 -59 t61.5 -151q0 -96 -63.5 -159.5t-160.5 -63.5q-98 0 -161 60t-63 153q0 95 65.5 157.5t164.5 62.5zM269 340q-58 0 -95.5 -39t-37.5 -99t35.5 -97.5t91.5 -37.5t92.5 41t36.5 104q0 58 -34 93t-89 35z" />
<glyph unicode="&#x1ed6;" horiz-adv-x="784" d="M412 680q154 0 248 -91.5t94 -241.5q0 -155 -101.5 -257.5t-255.5 -102.5q-150 0 -244.5 96t-94.5 248q0 151 100.5 250t253.5 99zM415 587q-110 0 -184 -73.5t-74 -183.5q0 -108 68.5 -179t173.5 -71q110 0 182.5 76t72.5 191q0 110 -65 175t-174 65zM470 803l-104 -76 l-43 46l157 121l111 -121l-53 -44zM580 1021l50 -37q-40 -79 -96 -79q-29 0 -78 27q-26 14 -36 14q-18 0 -45 -41l-50 38q32 44 52 60t44 16q21 0 63 -24q33 -19 50 -19q29 0 46 45z" />
<glyph unicode="&#x1ed7;" d="M269 420q97 0 158 -59.5t61 -153.5q0 -93 -64.5 -156.5t-158.5 -63.5q-98 0 -161.5 60t-63.5 153q0 94 65.5 157t163.5 63zM269 340q-58 0 -95.5 -39t-37.5 -99t35.5 -97.5t91.5 -37.5t92.5 41t36.5 104q0 58 -34 93t-89 35zM309 554l-94 -83l-41 44l144 127l102 -128 l-44 -41zM419 764l50 -34q-40 -78 -93 -78q-27 0 -90 39q-6 3 -14 3q-11 0 -17 -5.5t-18 -25.5q-2 -3 -7 -10l-49 34q26 41 46.5 58.5t44.5 17.5q19 0 61 -24q33 -19 43 -19q22 0 43 44z" />
<glyph unicode="&#x1ed8;" horiz-adv-x="784" d="M548 819l11 52q21 5 39 6q33 4 45 13t12 27q0 27 -41 27q-17 0 -30 -6q-4 -3 -25 -12q-4 -1 -7 -3l-8 45l7 3l3 1q51 18 91 18t63 -18t23 -49q0 -39 -28.5 -63t-74.5 -24h-23l-8 -38h-29l23 -26l-53 -44l-68 74l-104 -75l-43 46l157 120zM412 680q151 0 246 -91t95 -235 q0 -161 -100 -264t-257 -103q-149 0 -243.5 96t-94.5 248q0 151 100.5 250t253.5 99zM415 587q-110 0 -184 -73.5t-74 -183.5q0 -108 68.5 -179t173.5 -71q110 0 182.5 76t72.5 191q0 110 -65 175t-174 65z" />
<glyph unicode="&#x1ed9;" d="M269 420q97 0 158 -59.5t61 -153.5q0 -93 -64.5 -156.5t-158.5 -63.5q-98 0 -161.5 60t-63.5 153q0 94 65.5 157t163.5 63zM269 340q-58 0 -95.5 -39t-37.5 -99t35.5 -97.5t91.5 -37.5t92.5 41t36.5 104q0 58 -34 93t-89 35zM309 554l-94 -83l-41 44l144 127l102 -128 l-44 -41zM248 -47q25 0 43 -17.5t18 -42.5q0 -23 -17.5 -40t-40.5 -17q-24 0 -41 17.5t-17 42.5t16 41t39 16z" />
<glyph unicode="&#x1eda;" horiz-adv-x="784" d="M662 586l58 122l82 -32l-96 -146q48 -79 48 -179q0 -158 -101 -261t-256 -103q-150 0 -244.5 96t-94.5 248q0 151 100.5 250t254.5 99q152 0 249 -94zM416 587q-111 0 -185 -73.5t-74 -183.5q0 -108 69 -179t174 -71q110 0 182.5 76t72.5 191q0 110 -65 175t-174 65z M611 847l-142 -120l-52 31l119 136z" />
<glyph unicode="&#x1edb;" d="M443 343l55 112l78 -35l-99 -139q11 -36 11 -71q0 -95 -64 -159t-159 -64q-98 0 -161.5 60t-63.5 153q0 95 65.5 157.5t164.5 62.5q112 0 173 -77zM269 340q-58 0 -95.5 -39t-37.5 -99t35.5 -97.5t91.5 -37.5t92.5 41t36.5 104q0 58 -34 93t-89 35zM450 597l-139 -126 l-48 29l116 142z" />
<glyph unicode="&#x1edc;" horiz-adv-x="784" d="M662 586l58 122l82 -32l-96 -146q48 -79 48 -179q0 -158 -101 -261t-256 -103q-150 0 -244.5 96t-94.5 248q0 151 100.5 250t254.5 99q152 0 249 -94zM416 587q-111 0 -185 -73.5t-74 -183.5q0 -108 69 -179t174 -71q110 0 182.5 76t72.5 191q0 110 -65 175t-174 65z M347 847l75 47l85 -136l-51 -31z" />
<glyph unicode="&#x1edd;" d="M443 343l55 112l78 -35l-99 -139q11 -36 11 -71q0 -95 -64 -159t-159 -64q-98 0 -161.5 60t-63.5 153q0 95 65.5 157.5t164.5 62.5q112 0 173 -77zM269 340q-58 0 -95.5 -39t-37.5 -99t35.5 -97.5t91.5 -37.5t92.5 41t36.5 104q0 58 -34 93t-89 35zM224 595l70 47 l82 -141l-46 -30z" />
<glyph unicode="&#x1ede;" horiz-adv-x="784" d="M662 586l58 122l82 -32l-96 -146q48 -79 48 -179q0 -158 -101 -261t-256 -103q-150 0 -244.5 96t-94.5 248q0 151 100.5 250t254.5 99q152 0 249 -94zM416 587q-111 0 -185 -73.5t-74 -183.5q0 -108 69 -179t174 -71q110 0 182.5 76t72.5 191q0 110 -65 175t-174 65z M440 751h-53l16 73q29 6 38 6q33 4 45 13t12 27q0 27 -41 27q-17 0 -30 -6q-8 -5 -24 -12q-2 0 -8 -3l-8 45l7 3l3 1q51 18 92 18q39 0 62 -18.5t23 -49.5q0 -38 -28.5 -62t-74.5 -24h-22z" />
<glyph unicode="&#x1edf;" d="M443 343l55 112l78 -35l-99 -139q11 -36 11 -71q0 -95 -64 -159t-159 -64q-98 0 -161.5 60t-63.5 153q0 95 65.5 157.5t164.5 62.5q112 0 173 -77zM269 340q-58 0 -95.5 -39t-37.5 -99t35.5 -97.5t91.5 -37.5t92.5 41t36.5 104q0 58 -34 93t-89 35zM312 514h-53l16 73 q5 1 11 2t10.5 1.5t8 1t5.5 0.5l3 1q33 5 45 13t12 27q0 27 -41 27q-17 0 -38 -11l-24 -10l-8 45l7 3l3 1q54 18 91 18q40 0 63 -18.5t23 -49.5q0 -38 -28.5 -62t-74.5 -24h-23z" />
<glyph unicode="&#x1ee0;" horiz-adv-x="784" d="M662 586l58 122l82 -32l-96 -146q48 -79 48 -179q0 -158 -101 -261t-256 -103q-150 0 -244.5 96t-94.5 248q0 151 100.5 250t254.5 99q152 0 249 -94zM416 587q-111 0 -185 -73.5t-74 -183.5q0 -108 69 -179t174 -71q110 0 182.5 76t72.5 191q0 110 -65 175t-174 65z M572 859l51 -37q-41 -79 -97 -79q-28 0 -78 28q-24 14 -36 14q-16 0 -45 -42l-50 39q33 45 53 60.5t44 15.5q22 0 62 -25q33 -19 50 -19q29 0 46 45z" />
<glyph unicode="&#x1ee1;" d="M443 343l55 112l78 -35l-99 -139q11 -36 11 -71q0 -95 -64 -159t-159 -64q-98 0 -161.5 60t-63.5 153q0 95 65.5 157.5t164.5 62.5q112 0 173 -77zM269 340q-58 0 -95.5 -39t-37.5 -99t35.5 -97.5t91.5 -37.5t92.5 41t36.5 104q0 58 -34 93t-89 35zM401 611l51 -34 q-41 -78 -93 -78q-28 0 -91 39q-5 3 -14 3q-10 0 -16 -5.5t-18 -25.5q0 -1 -2.5 -4t-4.5 -6l-49 34q46 76 90 76q20 0 61 -24q34 -19 44 -19q22 0 42 44z" />
<glyph unicode="&#x1ee2;" horiz-adv-x="784" d="M662 586l58 122l82 -32l-96 -146q48 -79 48 -179q0 -158 -101 -261t-256 -103q-150 0 -244.5 96t-94.5 248q0 151 100.5 250t254.5 99q152 0 249 -94zM416 587q-111 0 -185 -73.5t-74 -183.5q0 -108 69 -179t174 -71q110 0 182.5 76t72.5 191q0 110 -65 175t-174 65z M441 751h-53l15 73q19 4 39 6q33 4 45 13t12 27q0 27 -41 27q-17 0 -30 -6q-4 -3 -25 -12q-4 -1 -7 -3l-8 45l7 3l3 1q51 18 91 18t63 -18.5t23 -49.5q0 -38 -29 -62t-75 -24h-22z" />
<glyph unicode="&#x1ee3;" d="M443 343l55 112l78 -35l-99 -139q11 -36 11 -71q0 -95 -64 -159t-159 -64q-98 0 -161.5 60t-63.5 153q0 95 65.5 157.5t164.5 62.5q112 0 173 -77zM269 340q-58 0 -95.5 -39t-37.5 -99t35.5 -97.5t91.5 -37.5t92.5 41t36.5 104q0 58 -34 93t-89 35zM248 -47 q25 0 43 -17.5t18 -42.5q0 -23 -17.5 -40t-40.5 -17q-24 0 -41 17.5t-17 42.5t16 41t39 16z" />
<glyph unicode="&#x1ee4;" horiz-adv-x="658" d="M632 667l-49 -395q-15 -130 -61 -191q-72 -94 -200 -94q-103 0 -171.5 62.5t-68.5 156.5q0 40 6 88l46 373h98l-47 -386q-4 -42 -4 -58q0 -67 37 -105t102 -38q90 0 132 75q24 44 34 131l47 381h99zM414 751h-53l15 73q30 5 39 6q33 4 45 13t12 27q0 27 -41 27 q-17 0 -30 -6q-9 -5 -25 -12q-2 0 -7 -3l-8 45l7 3l3 1q49 18 91 18q40 0 63 -18.5t23 -49.5q0 -38 -29 -62t-75 -24h-22z" />
<glyph unicode="&#x1ee5;" horiz-adv-x="484" d="M439 407l-29 -237q-7 -55 -17.5 -83t-33.5 -50q-50 -47 -137 -47q-75 0 -120 39t-45 104q0 10 4 54l27 220h96l-28 -228q-4 -23 -4 -44q0 -65 76 -65q40 0 59.5 21.5t26.5 74.5l30 241h95zM208 -47q25 0 43 -17.5t18 -42.5q0 -23 -17.5 -40t-40.5 -17q-24 0 -41 17.5 t-17 42.5t16 41t39 16z" />
<glyph unicode="&#x1ee6;" horiz-adv-x="658" d="M632 667l-49 -395q-15 -130 -61 -191q-72 -94 -200 -94q-103 0 -171.5 62.5t-68.5 156.5q0 40 6 88l46 373h98l-47 -386q-4 -42 -4 -58q0 -67 37 -105t102 -38q90 0 132 75q24 44 34 131l47 381h99zM414 751h-54l16 73q12 2 38 6q33 4 45 13t12 27q0 27 -41 27 q-16 0 -29 -6q-9 -5 -25 -12q-4 -1 -7 -3l-8 45l6 3l4 1q51 18 91 18q39 0 62 -18.5t23 -49.5q0 -38 -28.5 -62t-74.5 -24h-22z" />
<glyph unicode="&#x1ee7;" horiz-adv-x="484" d="M439 407l-29 -237q-7 -55 -17.5 -83t-33.5 -50q-50 -47 -137 -47q-75 0 -120 39t-45 104q0 10 4 54l27 220h96l-28 -228q-4 -23 -4 -44q0 -65 76 -65q40 0 59.5 21.5t26.5 74.5l30 241h95zM301 527h-53l15 73q28 6 39 6q33 4 45 13t12 27q0 27 -41 27q-18 0 -39 -11 q-12 -5 -23 -10l-8 45l7 3l3 1q50 18 91 18q40 0 63 -18.5t23 -49.5q0 -38 -29 -62t-75 -24h-22z" />
<glyph unicode="&#x1ee8;" horiz-adv-x="658" d="M632 667l-49 -395q-15 -130 -61 -191q-72 -94 -200 -94q-103 0 -171.5 62.5t-68.5 156.5q0 40 6 88l46 373h98l-47 -386q-4 -42 -4 -58q0 -67 37 -105t102 -38q90 0 132 75q24 44 34 131l47 381h99zM717 717l82 -32l-104 -157l-56 27zM548 847l-142 -120l-52 31l119 136z " />
<glyph unicode="&#x1ee9;" horiz-adv-x="484" d="M439 407l-29 -237q-7 -55 -17.5 -83t-33.5 -50q-50 -47 -137 -47q-75 0 -120 39t-45 104q0 10 4 54l27 220h96l-28 -228q-4 -23 -4 -44q0 -65 76 -65q40 0 59.5 21.5t26.5 74.5l30 241h95zM534 460l78 -36l-107 -150l-49 27zM425 597l-138 -126l-49 29l116 142z" />
<glyph unicode="&#x1eea;" horiz-adv-x="658" d="M632 667l-49 -395q-15 -130 -61 -191q-72 -94 -200 -94q-103 0 -171.5 62.5t-68.5 156.5q0 40 6 88l46 373h98l-47 -386q-4 -42 -4 -58q0 -67 37 -105t102 -38q90 0 132 75q24 44 34 131l47 381h99zM717 717l82 -32l-104 -157l-56 27zM285 847l75 47l84 -136l-51 -31z " />
<glyph unicode="&#x1eeb;" horiz-adv-x="484" d="M439 407l-29 -237q-7 -55 -17.5 -83t-33.5 -50q-50 -47 -137 -47q-75 0 -120 39t-45 104q0 10 4 54l27 220h96l-28 -228q-4 -23 -4 -44q0 -65 76 -65q40 0 59.5 21.5t26.5 74.5l30 241h95zM534 460l78 -36l-107 -150l-49 27zM199 595l70 47l83 -141l-47 -30z" />
<glyph unicode="&#x1eec;" horiz-adv-x="658" d="M632 667l-49 -395q-15 -130 -61 -191q-72 -94 -200 -94q-103 0 -171.5 62.5t-68.5 156.5q0 40 6 88l46 373h98l-47 -386q-4 -42 -4 -58q0 -67 37 -105t102 -38q90 0 132 75q24 44 34 131l47 381h99zM717 717l82 -32l-104 -157l-56 27zM413 751h-53l16 73q28 6 38 6 q33 4 45 13t12 27q0 27 -41 27q-15 0 -54 -18q-2 0 -7 -3l-9 45l7 3l4 1q49 18 91 18q39 0 62 -18.5t23 -49.5q0 -38 -28.5 -62t-74.5 -24h-22z" />
<glyph unicode="&#x1eed;" horiz-adv-x="484" d="M439 407l-29 -237q-7 -55 -17.5 -83t-33.5 -50q-50 -47 -137 -47q-75 0 -120 39t-45 104q0 10 4 54l27 220h96l-28 -228q-4 -23 -4 -44q0 -65 76 -65q40 0 59.5 21.5t26.5 74.5l30 241h95zM534 460l78 -36l-107 -150l-49 27zM301 527h-54l16 73q26 6 38 6q33 4 45 13 t12 27q0 27 -41 27q-18 0 -38 -11q-15 -6 -23 -10l-9 45l7 3l4 1q51 18 91 18q39 0 62 -18.5t23 -49.5q0 -38 -28.5 -62t-74.5 -24h-22z" />
<glyph unicode="&#x1eee;" horiz-adv-x="658" d="M632 667l-49 -395q-15 -130 -61 -191q-72 -94 -200 -94q-103 0 -171.5 62.5t-68.5 156.5q0 40 6 88l46 373h98l-47 -386q-4 -42 -4 -58q0 -67 37 -105t102 -38q90 0 132 75q24 44 34 131l47 381h99zM717 717l82 -32l-104 -157l-56 27zM509 859l51 -37q-40 -79 -97 -79 q-27 0 -78 28q-25 14 -36 14q-16 0 -45 -42l-50 39q33 45 53 60.5t44 15.5q22 0 62 -25q33 -19 50 -19q29 0 46 45z" />
<glyph unicode="&#x1eef;" horiz-adv-x="484" d="M439 407l-29 -237q-7 -55 -17.5 -83t-33.5 -50q-50 -47 -137 -47q-75 0 -120 39t-45 104q0 10 4 54l27 220h96l-28 -228q-4 -23 -4 -44q0 -65 76 -65q40 0 59.5 21.5t26.5 74.5l30 241h95zM534 460l78 -36l-107 -150l-49 27zM377 611l50 -34q-41 -78 -93 -78 q-27 0 -90 39q-6 3 -14 3q-11 0 -17 -5.5t-18 -25.5q-2 -3 -7 -10l-49 34q26 41 46.5 58.5t44.5 17.5q19 0 61 -24q33 -19 43 -19q22 0 43 44z" />
<glyph unicode="&#x1ef0;" horiz-adv-x="658" d="M632 667l-49 -395q-15 -130 -61 -191q-72 -94 -200 -94q-103 0 -171.5 62.5t-68.5 156.5q0 40 6 88l46 373h98l-47 -386q-4 -42 -4 -58q0 -67 37 -105t102 -38q90 0 132 75q24 44 34 131l47 381h99zM717 717l82 -32l-104 -157l-56 27zM411 751h-54l16 73q12 2 38 6 q33 4 45 13t12 27q0 27 -41 27q-16 0 -29 -6q-9 -5 -25 -12q-4 -1 -7 -3l-8 45l6 3l4 1q51 18 91 18q39 0 62 -18.5t23 -49.5q0 -38 -28.5 -62t-74.5 -24h-22z" />
<glyph unicode="&#x1ef1;" horiz-adv-x="484" d="M439 407l-29 -237q-7 -55 -17.5 -83t-33.5 -50q-50 -47 -137 -47q-75 0 -120 39t-45 104q0 10 4 54l27 220h96l-28 -228q-4 -23 -4 -44q0 -65 76 -65q40 0 59.5 21.5t26.5 74.5l30 241h95zM534 460l78 -36l-107 -150l-49 27zM223 -47q25 0 43 -17.5t18 -42.5 q0 -23 -17.5 -40t-40.5 -17q-24 0 -41 17.5t-17 42.5t16 41t39 16z" />
<glyph unicode="&#x1ef2;" horiz-adv-x="516" d="M316 299l-37 -299h-99l38 305l-173 362h106l123 -265l175 265h114zM209 847l75 47l85 -136l-52 -31z" />
<glyph unicode="&#x1ef3;" horiz-adv-x="466" d="M481 407l-368 -640h-109l164 284l-146 356h102l101 -260l147 260h109zM151 595l70 47l82 -141l-46 -30z" />
<glyph unicode="&#x1ef4;" horiz-adv-x="516" d="M316 299l-37 -299h-99l38 305l-173 362h106l123 -265l175 265h114zM321 751h-53l16 73q28 6 38 6q33 4 45 13t12 27q0 27 -41 27q-15 0 -54 -18q-2 0 -7 -3l-9 45l7 3l4 1q50 18 91 18q39 0 62 -18.5t23 -49.5q0 -38 -28.5 -62t-74.5 -24h-22z" />
<glyph unicode="&#x1ef5;" horiz-adv-x="466" d="M481 407l-368 -640h-109l164 284l-146 356h102l101 -260l147 260h109zM303 -47q25 0 43 -17.5t18 -42.5q0 -23 -17.5 -40t-40.5 -17q-24 0 -41 17.5t-17 42.5t16 41t39 16z" />
<glyph unicode="&#x1ef6;" horiz-adv-x="516" d="M316 299l-37 -299h-99l38 305l-173 362h106l123 -265l175 265h114zM325 751h-54l16 73q12 2 38 6q33 4 45 13t12 27q0 27 -41 27q-16 0 -29 -6q-9 -5 -25 -12q-4 -1 -7 -3l-8 45l6 3l4 1q51 18 91 18q39 0 62 -18.5t23 -49.5q0 -38 -28.5 -62t-74.5 -24h-22z" />
<glyph unicode="&#x1ef7;" horiz-adv-x="466" d="M481 407l-368 -640h-109l164 284l-146 356h102l101 -260l147 260h109zM277 527h-53l15 73q34 6 39 6q33 4 45 13t12 27q0 27 -41 27q-16 0 -38 -11l-24 -10l-8 45l7 3l3 1q51 18 91 18t63 -18.5t23 -49.5q0 -38 -29 -62t-75 -24h-22z" />
<glyph unicode="&#x1ef8;" horiz-adv-x="516" d="M316 299l-37 -299h-99l38 305l-173 362h106l123 -265l175 265h114zM409 859l50 -37q-39 -79 -96 -79q-28 0 -78 28q-26 14 -36 14q-17 0 -45 -42l-50 39q32 44 52 60t44 16q21 0 63 -25q33 -19 50 -19q29 0 46 45z" />
<glyph unicode="&#x1ef9;" horiz-adv-x="466" d="M481 407l-368 -640h-109l164 284l-146 356h102l101 -260l147 260h109zM347 611l50 -34q-40 -78 -93 -78q-27 0 -90 39q-6 3 -14 3q-11 0 -17 -5.5t-18 -25.5q-2 -3 -7 -10l-49 34q26 41 46.5 58.5t44.5 17.5q19 0 61 -24q33 -19 43 -19q22 0 43 44z" />
<glyph unicode="&#x2011;" horiz-adv-x="187" d="M189 248l-9 -76h-187l9 76h187z" />
<glyph unicode="&#x2012;" horiz-adv-x="567" d="M513 248l-10 -76h-454l9 76h455z" />
<glyph unicode="&#x2013;" horiz-adv-x="567" d="M513 248l-10 -76h-454l9 76h455z" />
<glyph unicode="&#x2014;" horiz-adv-x="561" d="M563 248l-9 -76h-561l9 76h561z" />
<glyph unicode="&#x2015;" horiz-adv-x="561" d="M563 248l-9 -76h-561l9 76h561z" />
<glyph unicode="&#x2017;" horiz-adv-x="500" d="M12 -53h500v-61h-500v61zM12 -171h500v-61h-500v61z" />
<glyph unicode="&#x2018;" horiz-adv-x="272" d="M81 451l137 229l53 -29l-123 -236z" />
<glyph unicode="&#x2019;" horiz-adv-x="272" d="M270 643l-137 -228l-53 28l123 237z" />
<glyph unicode="&#x201a;" horiz-adv-x="272" d="M188 83l-137 -229l-53 29l123 237z" />
<glyph unicode="&#x201b;" horiz-adv-x="500" d="M320 471l-78 158l49 27l107 -149z" />
<glyph unicode="&#x201c;" horiz-adv-x="437" d="M246 451l137 229l53 -29l-123 -236zM81 451l137 229l53 -29l-123 -236z" />
<glyph unicode="&#x201d;" horiz-adv-x="437" d="M270 643l-137 -228l-53 28l123 237zM435 643l-137 -228l-53 28l123 237z" />
<glyph unicode="&#x201e;" horiz-adv-x="437" d="M188 83l-137 -229l-53 29l123 237zM353 83l-137 -229l-53 29l123 237z" />
<glyph unicode="&#x2020;" horiz-adv-x="567" d="M390 729l-22 -177h158l-10 -82h-158l-80 -647h-86l80 647h-163l10 82h163l21 177h87z" />
<glyph unicode="&#x2021;" horiz-adv-x="567" d="M390 729l-22 -177h158l-10 -82h-158l-29 -238h158l-10 -82h-158l-40 -327h-87l41 327h-163l10 82h163l29 238h-163l10 82h163l22 177h86z" />
<glyph unicode="&#x2022;" horiz-adv-x="667" d="M348 480q56 0 95.5 -41t39.5 -99t-40 -99t-97 -41t-97.5 41t-40.5 99t41 99t99 41z" />
<glyph unicode="&#x2026;" horiz-adv-x="739" d="M97 107q25 0 43 -17.5t18 -42.5q0 -23 -17.5 -40t-40.5 -17q-24 0 -41 17.5t-17 42.5t16 41t39 16zM346 107q25 0 43 -17.5t18 -42.5q0 -23 -17.5 -40t-40.5 -17q-24 0 -41 17.5t-17 42.5t16 41t39 16zM594 107q25 0 43 -17.5t18 -42.5q0 -23 -17.5 -40t-40.5 -17 q-24 0 -41 17.5t-17 42.5t16 41t39 16z" />
<glyph unicode="&#x2030;" horiz-adv-x="1015" d="M205 677q49 0 78.5 -40.5t29.5 -107.5q0 -88 -37.5 -145t-94.5 -57q-52 0 -81.5 40.5t-29.5 109.5q0 85 39 142.5t96 57.5zM206 624q-33 0 -56 -44.5t-23 -107.5q0 -43 14 -67.5t38 -24.5q33 0 55.5 43.5t22.5 107.5q0 43 -13.5 68t-37.5 25zM625 659l-475 -679l-40 28 l475 679zM555 340q49 0 78.5 -40.5t29.5 -107.5q0 -88 -37.5 -145t-94.5 -57q-51 0 -81 40.5t-30 109.5q0 85 39 142.5t96 57.5zM555 287q-32 0 -55 -44.5t-23 -108.5q0 -43 13.5 -67t38.5 -24q32 0 54.5 43.5t22.5 106.5q0 44 -13.5 69t-37.5 25zM862 340q49 0 78.5 -40.5 t29.5 -107.5q0 -88 -37.5 -145t-94.5 -57q-51 0 -81 40.5t-30 109.5q0 85 39 142.5t96 57.5zM862 287q-32 0 -55 -44.5t-23 -108.5q0 -43 13.5 -67t38.5 -24q32 0 54.5 43.5t22.5 106.5q0 44 -13.5 69t-37.5 25z" />
<glyph unicode="&#x2039;" horiz-adv-x="257" d="M145 27l-114 183l157 193l46 -39l-130 -156l91 -150z" />
<glyph unicode="&#x203a;" horiz-adv-x="257" d="M108 394l114 -184l-157 -193l-46 39l129 157l-90 150z" />
<glyph unicode="&#x203e;" horiz-adv-x="500" d="M12 877h500v-90h-500v90z" />
<glyph unicode="&#x2044;" horiz-adv-x="169" d="M356 659l-476 -679l-40 28l475 679z" />
<glyph unicode="&#x20a3;" horiz-adv-x="567" d="M470 667l-11 -92h-231l-21 -172h231l-10 -85h-231l-39 -318h-99l82 667h329zM450 249v-10l1 -1q5 1 22 13q7 4 32 4q26 0 54 -23l-47 -57q-20 16 -34 16q-35 0 -43 -67l-16 -124h-72l31 249h72z" />
<glyph unicode="&#x20a4;" horiz-adv-x="567" d="M46 166l8 67h101q-2 32 -6 61h-88l9 67h69q-6 61 -6 86q0 100 61.5 165t156.5 65q117 0 166 -92q24 -45 32 -122l-88 -28q-11 155 -111 155q-55 0 -88 -40t-33 -108q0 -24 7 -81h170l-8 -67h-153q3 -28 3 -48q0 -7 -1 -13h143l-8 -67h-144q-5 -18 -12 -39q15 -4 33 -10 q3 -1 44 -20q47 -20 81 -20q53 0 102 50l45 -76q-69 -61 -146 -61q-39 0 -94 20q-92 31 -118 31q-30 0 -52 -12.5t-49 -45.5l-52 68q53 65 113 76q8 18 15 39h-102z" />
<glyph unicode="&#x20a7;" horiz-adv-x="829" d="M134 667h135q89 0 135 -29q38 -24 59.5 -67t21.5 -94q0 -84 -52 -141q-59 -66 -176 -66h-73l-33 -270h-99zM221 575l-26 -218h64q63 0 93 31q34 34 34 91q0 54 -42 81q-26 15 -80 15h-43zM522 184l-22 -184h-73l23 184h-33l7 65h34l10 86h73l-11 -86h55l-8 -65h-55z M801 217l-44 -41q-25 22 -44 22q-24 0 -24 -17q0 -8 7 -14.5t29 -17.5q35 -18 48.5 -34.5t13.5 -41.5q0 -37 -27 -59t-71 -22q-34 0 -55.5 12t-45.5 43l50 33l3 -4q22 -25 47 -25q26 0 26 19q0 9 -6.5 14t-37.5 21q-30 16 -42 31.5t-12 39.5q0 35 27.5 58t68.5 23 q45 0 89 -40z" />
<glyph unicode="&#x20ab;" horiz-adv-x="550" d="M539 729l-11 -86h60l-10 -80h-60l-69 -563h-95l5 44q-36 -32 -61.5 -43t-63.5 -11q-86 0 -140 57t-54 147q0 96 59.5 159.5t150.5 63.5q45 0 78 -16t68 -56l27 218h-120l10 80h120l10 86h96zM265 337q-56 0 -92.5 -42t-36.5 -106q0 -54 31.5 -86.5t83.5 -32.5q60 0 96 49 q34 47 34 102q0 52 -32 84t-84 32zM2 -56h458l-14 -91h-457z" />
<glyph unicode="&#x20ac;" horiz-adv-x="588" d="M520 96l-12 -99q-48 -14 -101 -14q-119 0 -207 67t-110 175h-101l45 69h46v4v12l-1 15v2q0 3 2 31h-76l45 69h44q34 117 123.5 186.5t206.5 69.5q92 0 164 -37l-12 -96l-2 1q-2 1 -3 1q-63 36 -138 36q-81 0 -139.5 -41.5t-88.5 -119.5h315l-44 -69h-290q-3 -36 -2 -63 v-1h250l-44 -69h-190q23 -70 80 -108.5t138 -38.5q52 0 102 18z" />
<glyph unicode="&#x2101;" horiz-adv-x="966" d="M159 361l-51 -94h-73l233 433l150 -433h-70l-32 94h-157zM187 415h110l-43 130zM814 659l-475 -679l-40 28l475 679zM933 346l-46 -41q-29 44 -71 44q-24 0 -41.5 -15.5t-17.5 -37.5q0 -19 13.5 -33.5t47.5 -32.5q54 -28 74 -53.5t20 -66.5q0 -52 -36.5 -85t-95.5 -33 q-48 0 -81 19.5t-60 65.5l53 34q17 -33 36.5 -46.5t50.5 -13.5q30 0 47.5 16t17.5 43q0 22 -12.5 35.5t-54.5 35.5q-49 26 -68 51t-19 62q0 49 36 81.5t92 32.5q69 0 115 -62z" />
<glyph unicode="&#x2105;" horiz-adv-x="937" d="M415 634l-11 -97q-29 38 -56.5 54t-62.5 16q-55 0 -89.5 -40t-34.5 -103q0 -58 33 -94t86 -36q50 0 104 43l-12 -100q-59 -23 -106 -23q-89 0 -145 58.5t-56 151.5q0 95 60.5 159t149.5 64q74 0 140 -53zM684 420q97 0 158 -59.5t61 -153.5q0 -93 -64.5 -156.5 t-158.5 -63.5q-98 0 -161.5 60t-63.5 153q0 94 65.5 157t163.5 63zM684 340q-58 0 -95.5 -39t-37.5 -99t35.5 -97.5t91.5 -37.5t92.5 41t36.5 104q0 58 -34 93t-89 35zM594 678l48 -26l-346 -663l-49 29z" />
<glyph unicode="&#x2113;" horiz-adv-x="500" d="M267 268q0 -3 -2 -11t-5.5 -25.5t-6.5 -34.5q-17 -88 -17 -125q0 -27 17 -27q22 0 46 51q9 19 20 19q16 0 16 -18q0 -38 -35 -74.5t-71 -36.5q-71 0 -71 106q0 26 5 99q-35 -33 -42 -33q-6 0 -11 6t-5 14q0 12 17 28q20 19 49 53q33 183 81 297q50 122 121 122 q32 0 51 -23.5t19 -63.5q0 -86 -65 -189q-30 -48 -111 -134zM280 345q53 59 83.5 123t30.5 116q0 43 -21 43q-9 0 -19.5 -12t-16.5 -30q-30 -87 -57 -240z" />
<glyph unicode="&#x2116;" horiz-adv-x="1103" d="M52 0l82 670h70l385 -502l61 499h97l-83 -675h-70l-386 493l-59 -485h-97zM975 469q62 0 101.5 -36.5t39.5 -94.5q0 -72 -51.5 -122t-126.5 -50q-64 0 -103 36t-39 95q0 73 51.5 122.5t127.5 49.5zM966 400q-40 0 -67.5 -27t-27.5 -68q0 -31 20.5 -50.5t53.5 -19.5 q41 0 68.5 27.5t27.5 67.5q0 32 -20.5 51t-54.5 19zM764 47l9 75h318l-10 -75h-317z" />
<glyph unicode="&#x2117;" horiz-adv-x="733" d="M352 286l-19 -153h-75l49 400h88q68 0 100 -25q42 -34 42 -92q0 -46 -34 -86q-20 -24 -49 -34t-79 -10h-23zM374 466l-14 -110h22q42 0 59 13q21 18 21 46q0 51 -69 51h-19zM376 681q146 0 247.5 -101t101.5 -246t-101 -246.5t-244 -101.5t-244.5 102t-101.5 247 q0 142 101 244t241 102zM381 630h-3q-118 0 -203 -87.5t-85 -208.5q0 -124 85 -211t205 -87t204.5 87t84.5 211q0 122 -84.5 209t-203.5 87z" />
<glyph unicode="&#x2122;" horiz-adv-x="760" d="M211 603l-39 -316h-72l39 316h-96l8 64h260l-8 -64h-92zM707 716l40 -429h-70l-19 219l-149 -254l-87 254l-73 -219h-74l143 420l107 -305z" />
<glyph unicode="&#x2126;" horiz-adv-x="667" d="M40 0v90h159q-83 50 -121 115.5t-38 157.5q0 137 87.5 228.5t217.5 91.5t217.5 -91.5t87.5 -228.5q0 -92 -38 -157.5t-120 -115.5h158v-90h-265v80q83 47 122 113.5t39 160.5q0 74 -31 130q-30 52 -74 80.5t-95 28.5q-76 0 -134 -58q-68 -68 -68 -185q0 -179 162 -270 v-80h-266z" />
<glyph unicode="&#x212e;" horiz-adv-x="597" d="M531 250h-373l-1 -105q16 -52 40 -72q38 -35 107 -35q120 0 168 104h44q-46 -148 -213 -148q-109 0 -170.5 69t-61.5 191q0 123 63 195.5t170 72.5q72 0 126.5 -34t79.5 -94q18 -47 21 -144zM458 285v93q-8 24 -23 41q-50 59 -131 59q-54 0 -86.5 -22.5t-57.5 -77.5v-93 h298z" />
<glyph unicode="&#x2202;" horiz-adv-x="500" d="M86 580l13 88q93 -12 153.5 -36.5t109.5 -69.5q126 -115 126 -306q0 -120 -62 -193t-164 -73q-93 0 -159.5 66.5t-66.5 160.5q0 91 60 154t147 63q43 0 73.5 -13.5t61.5 -46.5q-32 87 -107 140t-185 66zM265 360q-54 0 -90.5 -42.5t-36.5 -104.5q0 -61 36 -104t88 -43 t88 43.5t36 107.5q0 61 -34.5 102t-86.5 41z" />
<glyph unicode="&#x2205;" horiz-adv-x="618" d="M451 667l48 -25l-48 -88q113 -80 113 -204q0 -102 -72 -172.5t-176 -70.5q-46 0 -79 16l-63 -123l-48 25l61 122q-108 80 -108 202q0 102 71 172.5t173 70.5q39 0 81 -14zM428 502l-165 -330q32 -8 58 -8q77 0 132 54.5t55 130.5q0 47 -21.5 89t-58.5 64zM212 198 l166 329q-28 8 -54 8q-78 0 -133.5 -54.5t-55.5 -130.5q0 -90 77 -152z" />
<glyph unicode="&#x2206;" horiz-adv-x="667" d="M34 0l255 667h109l258 -667h-622zM177 93h334l-167 452z" />
<glyph unicode="&#x220f;" horiz-adv-x="715" d="M50 750h639v-93h-82v-654h82v-93h-263v93h81v654h-276v-654h81v-93h-262v93h81v654h-81v93z" />
<glyph unicode="&#x2211;" horiz-adv-x="667" d="M621 750v-239h-90l-10 145h-372l251 -307l-251 -346h381l6 145h94v-238h-593v104l246 335l-246 297v104h584z" />
<glyph unicode="&#x2212;" horiz-adv-x="567" d="M66 300v80h463v-80h-463z" />
<glyph unicode="&#x2218;" horiz-adv-x="500" d="M265 480q56 0 95.5 -41t39.5 -99t-40 -99t-97 -41t-97.5 41t-40.5 99t40.5 99t99.5 41zM264 433q-39 0 -65.5 -27t-26.5 -66q0 -38 27 -65.5t64 -27.5t63.5 27.5t26.5 65.5t-26 65.5t-63 27.5z" />
<glyph unicode="&#x2219;" horiz-adv-x="242" d="M117 269q25 0 43 -17.5t18 -42.5q0 -23 -17.5 -40t-40.5 -17q-24 0 -41 17.5t-17 42.5t16 41t39 16z" />
<glyph unicode="&#x221a;" horiz-adv-x="667" d="M679 830v-93h-188l-191 -737h-129l-70 286h-89v93h171l28 -109q6 -28 21 -143h8q17 111 28 163.5t38 154.5l99 385h274z" />
<glyph unicode="&#x221e;" horiz-adv-x="667" d="M348 275q-70 -92 -161 -92q-69 0 -113 44t-44 114q0 69 44.5 113t113.5 44q88 0 156 -91q67 91 161 91q69 0 113 -44t44 -114q0 -69 -44 -113.5t-112 -44.5q-91 0 -158 93zM395 341q26 -40 48.5 -57t48.5 -17q31 0 51 20.5t20 52.5q0 31 -20.5 52t-51.5 21q-48 0 -96 -72 zM296 340q-25 40 -47.5 56.5t-48.5 16.5q-31 0 -51 -20.5t-20 -52.5q0 -30 20.5 -51t50.5 -21q49 0 96 72z" />
<glyph unicode="&#x222b;" horiz-adv-x="500" d="M85 -239l20 89q27 -10 50 -10q49 0 55 51q2 12 2 75v549q0 110 10 145q11 42 48 66t90 24q33 0 79 -10l-19 -89q-30 9 -50 9q-50 0 -56 -50q-1 -11 -2 -125v-500q0 -92 -5 -124t-22 -57q-39 -53 -126 -53q-41 0 -74 10z" />
<glyph unicode="&#x223c;" horiz-adv-x="500" d="M76 256l-56 37q29 68 62.5 97.5t81.5 29.5q36 0 108 -30q66 -28 92 -28t43.5 13t37.5 47l59 -34q-33 -67 -64 -91q-40 -31 -89 -31q-31 0 -142 46q-33 12 -53 12q-25 0 -42.5 -15t-37.5 -53z" />
<glyph unicode="&#x2243;" horiz-adv-x="500" d="M76 348l-56 37q30 68 63 97t81 29q36 0 108 -30q67 -28 92 -28q26 0 43.5 13t37.5 47l59 -34q-33 -67 -64 -91q-40 -31 -89 -31q-31 0 -142 46q-33 12 -53 12q-25 0 -42.5 -15t-37.5 -52zM39 293h434v-90h-434v90z" />
<glyph unicode="&#x2248;" horiz-adv-x="500" d="M76 348l-56 37q30 68 63 97t81 29q36 0 108 -30q67 -28 92 -28q26 0 43.5 13t37.5 47l59 -34q-33 -67 -64 -91q-40 -31 -89 -31q-31 0 -142 46q-33 12 -53 12q-25 0 -42.5 -15t-37.5 -52zM76 164l-56 36q30 69 63 98t81 29q37 0 108 -30q65 -28 93 -28q26 0 43 13t37 47 l59 -34q-33 -67 -64 -91q-40 -31 -89 -31q-31 0 -142 46q-33 12 -53 12q-25 0 -42.5 -15t-37.5 -52z" />
<glyph unicode="&#x2260;" horiz-adv-x="500" d="M279 468l55 110l65 -30l-39 -80h119v-90h-160l-39 -79h199v-90h-240l-52 -105l-66 30l37 75h-113v90h154l39 79h-193v90h234z" />
<glyph unicode="&#x2264;" horiz-adv-x="500" d="M478 638v-95l-327 -148l327 -147v-95l-433 198v85zM478 124v-93h-433v93h433z" />
<glyph unicode="&#x2265;" horiz-adv-x="500" d="M45 153v95l327 148l-327 147v95l433 -202v-85zM45 31v93h433v-93h-433z" />
<glyph unicode="&#xe000;" horiz-adv-x="405" d="M0 405h405v-405h-405v405z" />
<glyph unicode="&#xf6be;" horiz-adv-x="233" d="M184 407l-79 -640h-95l79 640h95z" />
</font>
</defs>
</svg>
